<svg xmlns="http://www.w3.org/2000/svg" xmlns:xlink="http://www.w3.org/1999/xlink" width="1669.176" height="1409.067" viewBox="0 0 1669.176 1409.067"><defs><style>.a{fill:none;}.b{opacity:0.111;}.c{fill:#d55386;}.d{clip-path:url(#a);}.e{opacity:0.48;}.f{clip-path:url(#b);}.g{fill:#dfa3be;}.h{clip-path:url(#e);}.i{clip-path:url(#f);}.j{clip-path:url(#i);}.k{clip-path:url(#j);}.l{clip-path:url(#k);}.m{clip-path:url(#l);}</style><clipPath id="a"><rect class="a" width="240.607" height="216.161"/></clipPath><clipPath id="b"><rect class="a" width="15810.292" height="22228.34"/></clipPath><clipPath id="e"><rect class="a" width="129.559" height="116.395"/></clipPath><clipPath id="f"><rect class="a" width="8513.32" height="11969.227"/></clipPath><clipPath id="i"><rect class="a" width="95.156" height="85.488"/></clipPath><clipPath id="j"><rect class="a" width="6252.743" height="8790.988"/></clipPath><clipPath id="k"><rect class="a" width="95.156" height="85.488" transform="translate(0 0)"/></clipPath><clipPath id="l"><rect class="a" width="6252.743" height="8790.988" transform="translate(0 0)"/></clipPath></defs><g transform="translate(20041.436 -1802.779)"><g class="b" transform="translate(-19604.941 -1265.721) rotate(9)"><path class="c" d="M1337.925,1069.12l-127.419,185.825c-67.223,110.354,15,260.322,134.914,260.322h254.836c119.9,0,201.177-159.41,134.892-260.322l-127.4-185.825c-93.878-103.8-184.336-104.208-269.821,0" transform="translate(-47.364 1935.233)"/><g transform="translate(1304.96 3234.334)"><g class="d"><g class="e" transform="translate(-9787.604 -14313.144)"><g transform="translate(0 0)"><g class="f"><rect class="g" width="240.607" height="216.161" transform="translate(9787.604 14313.144)"/></g></g></g></g></g></g><g class="b" transform="matrix(0.899, -0.438, 0.438, 0.899, -22347.99, 609.862)"><path class="c" d="M1337.925,1069.12l-127.419,185.825c-67.223,110.354,15,260.322,134.914,260.322h254.836c119.9,0,201.177-159.41,134.892-260.322l-127.4-185.825c-93.878-103.8-184.336-104.208-269.821,0" transform="translate(-47.364 1935.233)"/><g transform="translate(1304.96 3234.334)"><g class="d"><g class="e" transform="translate(-9787.604 -14313.144)"><g transform="translate(0 0)"><g class="f"><rect class="g" width="240.607" height="216.161" transform="translate(9787.604 14313.144)"/></g></g></g></g></g></g><g class="b" transform="translate(-19819.145 -1050.936) rotate(16)"><path class="c" d="M1267.974,1033.119l-68.611,100.06c-36.2,59.422,8.08,140.175,72.646,140.175H1409.23c64.565,0,108.327-85.837,72.635-140.175l-68.6-100.06c-50.55-55.894-99.259-56.113-145.29,0" transform="translate(-47.364 1935.233)"/><g transform="translate(1228.364 3092.189)"><g class="h"><g class="e" transform="translate(-5270.301 -7707.155)"><g transform="translate(0 0)"><g class="i"><rect class="g" width="129.559" height="116.395" transform="translate(5270.301 7707.155)"/></g></g></g></g></g></g><g class="b" transform="translate(-18662.438 3055.003) rotate(164)"><path class="c" d="M81.611,240.235,13,140.175C-23.2,80.753,21.08,0,85.647,0H222.867C287.432,0,331.194,85.837,295.5,140.175l-68.6,100.06c-50.55,55.894-99.259,56.113-145.29,0" transform="translate(0 0)"/><g transform="translate(89.364 0.003)"><g class="h"><g class="e" transform="translate(-5270.301 -4145.676)"><g transform="translate(0)"><g class="i"><rect class="g" width="129.559" height="116.395" transform="translate(5270.301 4145.676)"/></g></g></g></g></g></g><g class="b" transform="translate(-22075.012 -219.081) rotate(-25)"><path class="c" d="M1246.3,1021.966l-50.392,73.491c-26.586,43.643,5.934,102.954,53.356,102.954h100.784c47.421,0,79.563-63.044,53.348-102.954l-50.385-73.491c-37.127-41.052-72.9-41.213-106.711,0" transform="translate(-47.364 1935.233)"/><g transform="translate(1204.634 3048.153)"><g class="j"><g class="e" transform="translate(-3870.856 -5660.642)"><g transform="translate(0 0)"><g class="k"><rect class="g" width="95.156" height="85.488" transform="translate(3870.856 5660.642)"/></g></g></g></g></g></g><g class="b" transform="translate(-18552.719 2847.299) rotate(-155)"><path class="c" d="M59.94,176.445,9.548,102.954C-17.037,59.31,15.482,0,62.9,0H163.688c47.421,0,79.563,63.044,53.348,102.954l-50.385,73.491c-37.127,41.052-72.9,41.213-106.711,0" transform="translate(0 0)"/><g transform="translate(65.635 0.002)"><g class="l"><g class="e" transform="translate(-3870.856 -3044.858)"><g transform="translate(0)"><g class="m"><rect class="g" width="95.156" height="85.488" transform="translate(3870.856 3044.858)"/></g></g></g></g></g></g></g></svg>