<svg xmlns="http://www.w3.org/2000/svg" width="1340.887" height="720.021" viewBox="0 0 1340.887 720.021"><defs><style>.a{fill:#fff;}.b{fill:#d25f91;}.c{fill:#efda39;}.d{fill:#7ac1d4;}</style></defs><g transform="translate(17206 -4361.603)"><g transform="translate(-17856.98 4117.388) rotate(-31)"><g transform="translate(358.896 666.641)"><path class="a" d="M634.878,695.035c-2.362,1-.01.052-2.458.82a2.665,2.665,0,0,0-2.1,2.425c-1.555,9.731-3.17,19.453-4.771,29.178a10.579,10.579,0,0,1-.355,1.725c-.4,1.158-1.309,1.388-1.983.476-4.351-5.876-8.75-11.724-12.839-17.781-2-2.963-3.336-6.375-5.066-9.531a1.878,1.878,0,0,0-1.541-.7c-5.093.619-10.185,1.277-15.251,2.085-.559.089-1.272,1.126-1.383,1.811-1.693,10.282-5.157,20.057-8.492,29.865a9.745,9.745,0,0,1-1.549,2.218c-.7-.666-1.7-1.2-2.067-2.017-4.309-9.73-8.51-19.51-12.8-29.248a2.184,2.184,0,0,0-1.56-1.089c-8.445-.374-16.893-.7-25.343-.9-.611-.014-1.568.893-1.823,1.575-2.151,5.775-4.126,11.617-6.261,17.4-1.424,3.857-2.989,7.664-4.575,11.458a9.012,9.012,0,0,1-1.5,1.907c-.6-.583-1.494-1.059-1.751-1.766-2.038-5.584-3.972-11.206-5.9-16.829-1.644-4.8-3.2-9.621-4.9-14.4a2.667,2.667,0,0,0-1.691-1.555c-7.007-.9-14.025-1.72-21.057-2.38a3.412,3.412,0,0,0-2.5,1.521c-5.4,8.5-10.656,17.1-16.045,25.606a18.49,18.49,0,0,1-2.955,2.947,18.731,18.731,0,0,1-1.6-3.718q-2.836-14.493-5.455-29.027c-.206-1.136-.619-1.623-1.745-1.81-7.763-1.288-15.51-2.671-23.284-3.886a3.143,3.143,0,0,0-2.331,1.188c-4.9,6.143-9.725,12.354-14.556,18.556-.944,1.212-1.832,2.466-3.1,4.173a9.922,9.922,0,0,1-1.494-2.364c-.88-3.485-1.737-6.984-2.385-10.519-.927-5.051-1.691-10.133-2.466-15.212a2.817,2.817,0,0,0-2.232-2.581c-4.9-1.542-9.723-3.326-14.63-4.847-.829-.256-1.949.254-2.882.569a2.707,2.707,0,0,0-1.123,1.035c-4.786,6.736-11.428,11.322-18.13,15.875-1.745,1.184-3.122,2.9-4.748,4.274a16,16,0,0,1-2.482,1.448,9.177,9.177,0,0,1-.82-2.77c.191-5.435.486-10.867.813-16.3.261-4.325.676-8.644.872-12.973a2.446,2.446,0,0,0-1.252-1.821c-.543-.552-.721-2.537.7-2.509,16.155,5.863,32.3,11.81,48.7,16.9,9.65,2.992,19.763,4.554,29.719,6.488q14.51,2.816,29.131,5.053c8.363,1.285,16.769,2.317,25.181,3.238,11.486,1.26,22.978,2.54,34.5,3.389,13.2.97,26.408,1.9,39.685,1.228,12.636-.643,25.259-1.18,37.717-3.613,8.583-1.677,17.2-3.175,25.758-4.964,2.856-.6,3.584-.7,3.584-.7,1.319-.194,1.678,1.035.868,1.379m-274.207,3.5c8.505-6.4,18.173-10.87,23.856-20.349l-21.489-7.52-2.367,27.869M464.85,725.214l.63.233c5.411-8.546,10.82-17.091,16.48-26.032l-22.322-3.31c.207,10.3,3.451,19.567,5.212,29.109M628.285,697.2l-21.06,3.533c3.491,9.787,9,17.726,15.418,25.092l.9-.087,4.742-28.538m-64,8.1c3.167,9.894,7.753,18.773,12.05,28.083,2.226-4.217,9.054-25.783,8.141-29.215l-20.19,1.132M520.2,731.532l.83-.015c3.549-8.967,8.132-17.535,10.694-27.091l-21.306-1.81c3.374,9.971,6.579,19.443,9.783,28.916M407.686,685.944c1.5,8.5,2.916,16.463,4.327,24.427l.643,0,15.356-19.779-20.326-4.643" transform="translate(-358.896 -666.641)"/><path class="b" d="M359.991,696.995l2.367-27.869,21.49,7.52c-5.681,9.479-15.351,13.947-23.856,20.349" transform="translate(-358.217 -665.1)"/><path class="c" d="M426.292,713.936c-1.761-9.54-5-18.812-5.21-29.108l22.322,3.31c-5.662,8.943-11.071,17.487-16.48,26.032l-.632-.233" transform="translate(-320.34 -655.365)"/><path class="c" d="M533.244,685.505c-1.628,9.8-3.185,19.168-4.742,28.538l-.9.086c-6.422-7.366-11.926-15.306-15.418-25.091l21.06-3.533" transform="translate(-263.855 -654.945)"/><path class="d" d="M485.678,690.935l20.19-1.132c.914,3.433-5.915,25-8.141,29.215-4.3-9.31-8.883-18.189-12.05-28.083" transform="translate(-280.29 -652.28)"/><path class="b" d="M462.208,717.763c-3.2-9.472-6.41-18.944-9.783-28.916l21.306,1.81c-2.561,9.556-7.144,18.125-10.694,27.091l-.83.014" transform="translate(-300.907 -652.873)"/></g><path class="d" d="M389.013,678.556l20.326,4.643-15.356,19.779-.643,0c-1.411-7.964-2.822-15.928-4.327-24.427" transform="translate(18.673 7.388)"/></g><g transform="matrix(0.966, 0.259, -0.259, 0.966, -16306.233, 4204.704)"><g transform="translate(358.896 666.641)"><path class="a" d="M634.878,695.035c-2.362,1-.01.052-2.458.82a2.665,2.665,0,0,0-2.1,2.425c-1.555,9.731-3.17,19.453-4.771,29.178a10.579,10.579,0,0,1-.355,1.725c-.4,1.158-1.309,1.388-1.983.476-4.351-5.876-8.75-11.724-12.839-17.781-2-2.963-3.336-6.375-5.066-9.531a1.878,1.878,0,0,0-1.541-.7c-5.093.619-10.185,1.277-15.251,2.085-.559.089-1.272,1.126-1.383,1.811-1.693,10.282-5.157,20.057-8.492,29.865a9.745,9.745,0,0,1-1.549,2.218c-.7-.666-1.7-1.2-2.067-2.017-4.309-9.73-8.51-19.51-12.8-29.248a2.184,2.184,0,0,0-1.56-1.089c-8.445-.374-16.893-.7-25.343-.9-.611-.014-1.568.893-1.823,1.575-2.151,5.775-4.126,11.617-6.261,17.4-1.424,3.857-2.989,7.664-4.575,11.458a9.012,9.012,0,0,1-1.5,1.907c-.6-.583-1.494-1.059-1.751-1.766-2.038-5.584-3.972-11.206-5.9-16.829-1.644-4.8-3.2-9.621-4.9-14.4a2.667,2.667,0,0,0-1.691-1.555c-7.007-.9-14.025-1.72-21.057-2.38a3.412,3.412,0,0,0-2.5,1.521c-5.4,8.5-10.656,17.1-16.045,25.606a18.49,18.49,0,0,1-2.955,2.947,18.731,18.731,0,0,1-1.6-3.718q-2.836-14.493-5.455-29.027c-.206-1.136-.619-1.623-1.745-1.81-7.763-1.288-15.51-2.671-23.284-3.886a3.143,3.143,0,0,0-2.331,1.188c-4.9,6.143-9.725,12.354-14.556,18.556-.944,1.212-1.832,2.466-3.1,4.173a9.922,9.922,0,0,1-1.494-2.364c-.88-3.485-1.737-6.984-2.385-10.519-.927-5.051-1.691-10.133-2.466-15.212a2.817,2.817,0,0,0-2.232-2.581c-4.9-1.542-9.723-3.326-14.63-4.847-.829-.256-1.949.254-2.882.569a2.707,2.707,0,0,0-1.123,1.035c-4.786,6.736-11.428,11.322-18.13,15.875-1.745,1.184-3.122,2.9-4.748,4.274a16,16,0,0,1-2.482,1.448,9.177,9.177,0,0,1-.82-2.77c.191-5.435.486-10.867.813-16.3.261-4.325.676-8.644.872-12.973a2.446,2.446,0,0,0-1.252-1.821c-.543-.552-.721-2.537.7-2.509,16.155,5.863,32.3,11.81,48.7,16.9,9.65,2.992,19.763,4.554,29.719,6.488q14.51,2.816,29.131,5.053c8.363,1.285,16.769,2.317,25.181,3.238,11.486,1.26,22.978,2.54,34.5,3.389,13.2.97,26.408,1.9,39.685,1.228,12.636-.643,25.259-1.18,37.717-3.613,8.583-1.677,17.2-3.175,25.758-4.964,2.856-.6,3.584-.7,3.584-.7,1.319-.194,1.678,1.035.868,1.379m-274.207,3.5c8.505-6.4,18.173-10.87,23.856-20.349l-21.489-7.52-2.367,27.869M464.85,725.214l.63.233c5.411-8.546,10.82-17.091,16.48-26.032l-22.322-3.31c.207,10.3,3.451,19.567,5.212,29.109M628.285,697.2l-21.06,3.533c3.491,9.787,9,17.726,15.418,25.092l.9-.087,4.742-28.538m-64,8.1c3.167,9.894,7.753,18.773,12.05,28.083,2.226-4.217,9.054-25.783,8.141-29.215l-20.19,1.132M520.2,731.532l.83-.015c3.549-8.967,8.132-17.535,10.694-27.091l-21.306-1.81c3.374,9.971,6.579,19.443,9.783,28.916M407.686,685.944c1.5,8.5,2.916,16.463,4.327,24.427l.643,0,15.356-19.779-20.326-4.643" transform="translate(-358.896 -666.641)"/><path class="b" d="M359.991,696.995l2.367-27.869,21.49,7.52c-5.681,9.479-15.351,13.947-23.856,20.349" transform="translate(-358.217 -665.1)"/><path class="c" d="M426.292,713.936c-1.761-9.54-5-18.812-5.21-29.108l22.322,3.31c-5.662,8.943-11.071,17.487-16.48,26.032l-.632-.233" transform="translate(-320.34 -655.365)"/><path class="c" d="M533.244,685.505c-1.628,9.8-3.185,19.168-4.742,28.538l-.9.086c-6.422-7.366-11.926-15.306-15.418-25.091l21.06-3.533" transform="translate(-263.855 -654.945)"/><path class="d" d="M485.678,690.935l20.19-1.132c.914,3.433-5.915,25-8.141,29.215-4.3-9.31-8.883-18.189-12.05-28.083" transform="translate(-280.29 -652.28)"/><path class="b" d="M462.208,717.763c-3.2-9.472-6.41-18.944-9.783-28.916l21.306,1.81c-2.561,9.556-7.144,18.125-10.694,27.091l-.83.014" transform="translate(-300.907 -652.873)"/></g><path class="d" d="M389.013,678.556l20.326,4.643-15.356,19.779-.643,0c-1.411-7.964-2.822-15.928-4.327-24.427" transform="translate(18.673 7.388)"/></g></g></svg>