<svg xmlns="http://www.w3.org/2000/svg" width="1377.729" height="1277.19" viewBox="0 0 1377.729 1277.19"><defs><style>.a{opacity:0.1;}.b{fill:#2f9eaf;}.c{fill:#4eaab8;}</style></defs><g transform="translate(17825.943 -4551.638)"><g class="a" transform="matrix(0.978, -0.208, 0.208, 0.978, -18005.59, 4656.697)"><path class="b" d="M776.415,227.254a18.481,18.481,0,0,0-9.026-9.06,185.041,185.041,0,0,0-28.749-10.088,386.354,386.354,0,0,0-55.215-10.071,594.94,594.94,0,0,0-66.4-3.642,555.315,555.315,0,0,0-86.264,6.342,341.689,341.689,0,0,0-35.369,7.37,203.7,203.7,0,0,0-21.013,6.865,202.667,202.667,0,0,0-21.03-6.865,386.346,386.346,0,0,0-55.215-10.071,595.175,595.175,0,0,0-66.4-3.642,555.383,555.383,0,0,0-86.281,6.342,341.887,341.887,0,0,0-35.335,7.37,185.932,185.932,0,0,0-28.766,10.088,18.483,18.483,0,0,0-9.008,9.043c-14.026,3.52-30,10.088-30,21.727V586.734a58.84,58.84,0,0,0,58.839,58.839H438.261v3.049a11.526,11.526,0,0,0,11.517,11.552h49.2A11.526,11.526,0,0,0,510.5,648.622v-3.049H747.579a58.84,58.84,0,0,0,58.839-58.839V248.963c0-11.639-15.978-18.207-30-21.709m-320.469,351.5c-.871-.244-1.707-.505-2.6-.767a383.917,383.917,0,0,0-55.215-10.071,591.065,591.065,0,0,0-66.4-3.642,562.189,562.189,0,0,0-86.281,6.325,350.22,350.22,0,0,0-35.335,7.387c-.889.261-1.725.523-2.6.767V247.448c3.729-1.289,7.806-2.526,12.2-3.729a347.1,347.1,0,0,1,49.8-9.043,551.678,551.678,0,0,1,62.219-3.38,527.153,527.153,0,0,1,80.5,5.854,306.808,306.808,0,0,1,31.5,6.569q6.638,1.8,12.214,3.729Zm285.274,0c-.871-.244-1.69-.505-2.579-.767a383.924,383.924,0,0,0-55.215-10.071,590.834,590.834,0,0,0-66.4-3.642,561.954,561.954,0,0,0-86.264,6.325,350.994,350.994,0,0,0-35.369,7.387c-.871.261-1.708.523-2.579.767V247.448q5.567-1.934,12.214-3.729a345.65,345.65,0,0,1,49.761-9.043,552.228,552.228,0,0,1,62.237-3.38,527.326,527.326,0,0,1,80.5,5.854,308.214,308.214,0,0,1,31.519,6.569c4.391,1.2,8.468,2.439,12.179,3.729Z" transform="translate(0)"/><path class="c" d="M394.505,543.969c-.871-.244-1.707-.505-2.6-.767a383.205,383.205,0,0,0-55.2-10.071,591.64,591.64,0,0,0-66.418-3.642,561.953,561.953,0,0,0-86.264,6.325,350.6,350.6,0,0,0-35.352,7.387c-.889.261-1.725.523-2.6.767V212.663c3.729-1.289,7.806-2.526,12.2-3.729a347.579,347.579,0,0,1,49.8-9.043,551.927,551.927,0,0,1,62.219-3.38,526.98,526.98,0,0,1,80.5,5.854,307.188,307.188,0,0,1,31.519,6.569c4.408,1.2,8.485,2.439,12.2,3.729Z" transform="translate(61.44 34.785)"/><path class="c" d="M410.863,543.969c-.871-.244-1.69-.505-2.579-.767a383.918,383.918,0,0,0-55.215-10.071,590.865,590.865,0,0,0-66.4-3.642,561.955,561.955,0,0,0-86.264,6.325,351.015,351.015,0,0,0-35.37,7.387c-.871.261-1.707.523-2.579.767V212.663q5.567-1.934,12.214-3.729a345.657,345.657,0,0,1,49.761-9.043,552.249,552.249,0,0,1,62.237-3.38,527.326,527.326,0,0,1,80.5,5.854,308.193,308.193,0,0,1,31.519,6.569c4.391,1.2,8.468,2.439,12.179,3.729Z" transform="translate(330.374 34.785)"/><path class="b" d="M150.917,212.994l-2.875,21.135c37.286-12.719,81.158-17.249,121.737-11.743l55.772,7.6,2.614-19.236-55.773-7.579a291.516,291.516,0,0,0-121.476,9.827" transform="translate(93.63 103.346)"/><path class="b" d="M150.917,216.754l-2.875,21.135c37.286-12.719,81.158-17.249,121.737-11.744l55.772,7.6,2.614-19.235-55.773-7.579a291.517,291.517,0,0,0-121.476,9.827" transform="translate(93.63 165.098)"/><path class="b" d="M150.917,220.527l-2.875,21.135c37.286-12.736,81.158-17.267,121.737-11.743l55.772,7.579,2.614-19.235-55.773-7.579a291.231,291.231,0,0,0-121.476,9.844" transform="translate(93.63 226.785)"/><path class="b" d="M167.291,212.994l-2.875,21.135c37.286-12.719,81.158-17.249,121.738-11.743l55.773,7.6,2.613-19.236-55.772-7.579a291.517,291.517,0,0,0-121.476,9.827" transform="translate(362.547 103.346)"/><path class="b" d="M167.291,216.754l-2.875,21.135c37.286-12.719,81.158-17.249,121.738-11.744l55.773,7.6,2.613-19.235-55.772-7.579a291.518,291.518,0,0,0-121.476,9.827" transform="translate(362.547 165.098)"/><path class="b" d="M167.291,220.527l-2.875,21.135c37.286-12.736,81.158-17.267,121.738-11.743l55.773,7.579,2.613-19.235-55.772-7.579a291.232,291.232,0,0,0-121.476,9.844" transform="translate(362.547 226.785)"/></g><g class="a" transform="matrix(0.993, 0.122, -0.122, 0.993, -17200.035, 5134.724)"><path class="b" d="M707.051,223.659a16.459,16.459,0,0,0-8.038-8.069,164.8,164.8,0,0,0-25.6-8.985,344.089,344.089,0,0,0-49.175-8.969,529.858,529.858,0,0,0-59.137-3.243,494.567,494.567,0,0,0-76.827,5.648,304.311,304.311,0,0,0-31.5,6.564,181.418,181.418,0,0,0-18.714,6.114,180.5,180.5,0,0,0-18.73-6.114,344.081,344.081,0,0,0-49.175-8.969,530.066,530.066,0,0,0-59.137-3.243,494.628,494.628,0,0,0-76.842,5.648,304.487,304.487,0,0,0-31.469,6.564,165.592,165.592,0,0,0-25.619,8.985,16.461,16.461,0,0,0-8.023,8.053c-12.492,3.135-26.721,8.985-26.721,19.35V543.814a52.4,52.4,0,0,0,52.4,52.4H405.889v2.716a10.265,10.265,0,0,0,10.257,10.288h43.821a10.265,10.265,0,0,0,10.257-10.288v-2.716H681.37a52.4,52.4,0,0,0,52.4-52.4V242.994c0-10.366-14.23-16.216-26.721-19.334M421.639,536.708c-.776-.217-1.521-.45-2.312-.683a341.914,341.914,0,0,0-49.175-8.969,526.4,526.4,0,0,0-59.137-3.243,500.684,500.684,0,0,0-76.842,5.633,311.9,311.9,0,0,0-31.469,6.579c-.792.233-1.536.466-2.312.683V241.644c3.321-1.148,6.952-2.25,10.862-3.321a309.134,309.134,0,0,1,44.349-8.054,491.327,491.327,0,0,1,55.413-3.01,469.486,469.486,0,0,1,71.69,5.214,273.245,273.245,0,0,1,28.056,5.85q5.912,1.606,10.878,3.321Zm254.067,0c-.776-.217-1.505-.45-2.3-.683a341.922,341.922,0,0,0-49.175-8.969,526.194,526.194,0,0,0-59.137-3.243,500.475,500.475,0,0,0-76.827,5.633,312.586,312.586,0,0,0-31.5,6.579c-.776.233-1.521.466-2.3.683V241.644q4.958-1.723,10.878-3.321a307.841,307.841,0,0,1,44.318-8.054,491.819,491.819,0,0,1,55.428-3.01,469.64,469.64,0,0,1,71.691,5.214,274.5,274.5,0,0,1,28.071,5.85c3.91,1.071,7.541,2.172,10.846,3.321Z" transform="translate(0)"/><path class="c" d="M367.329,505.96c-.776-.217-1.521-.45-2.312-.683a341.289,341.289,0,0,0-49.159-8.969,526.914,526.914,0,0,0-59.152-3.243,500.475,500.475,0,0,0-76.827,5.633,312.252,312.252,0,0,0-31.485,6.579c-.792.233-1.536.466-2.312.683V210.9c3.321-1.148,6.952-2.25,10.862-3.321a309.557,309.557,0,0,1,44.349-8.054,491.551,491.551,0,0,1,55.413-3.01,469.332,469.332,0,0,1,71.69,5.214,273.583,273.583,0,0,1,28.071,5.85c3.926,1.071,7.557,2.172,10.862,3.321Z" transform="translate(54.31 30.748)"/><path class="c" d="M383.689,505.96c-.776-.217-1.505-.45-2.3-.683a341.923,341.923,0,0,0-49.175-8.969,526.224,526.224,0,0,0-59.137-3.243,500.476,500.476,0,0,0-76.827,5.633,312.623,312.623,0,0,0-31.5,6.579c-.776.233-1.521.466-2.3.683V210.9q4.958-1.723,10.878-3.321a307.846,307.846,0,0,1,44.318-8.054,491.838,491.838,0,0,1,55.428-3.01,469.64,469.64,0,0,1,71.69,5.214,274.48,274.48,0,0,1,28.071,5.85c3.91,1.071,7.542,2.172,10.847,3.321Z" transform="translate(292.033 30.748)"/><path class="b" d="M150.6,211.647l-2.56,18.823a243.654,243.654,0,0,1,108.42-10.459l49.671,6.766,2.328-17.131L258.79,202.9A259.626,259.626,0,0,0,150.6,211.647" transform="translate(82.764 91.352)"/><path class="b" d="M150.6,215.407l-2.56,18.823a243.651,243.651,0,0,1,108.42-10.459l49.671,6.766,2.328-17.131-49.671-6.75A259.627,259.627,0,0,0,150.6,215.407" transform="translate(82.764 145.937)"/><path class="b" d="M150.6,219.178,148.042,238a243.208,243.208,0,0,1,108.42-10.459l49.671,6.75,2.328-17.131-49.671-6.75A259.372,259.372,0,0,0,150.6,219.178" transform="translate(82.764 200.465)"/><path class="b" d="M166.976,211.647l-2.56,18.823a243.655,243.655,0,0,1,108.42-10.459l49.671,6.766,2.327-17.131-49.671-6.75a259.627,259.627,0,0,0-108.188,8.752" transform="translate(320.472 91.352)"/><path class="b" d="M166.976,215.407l-2.56,18.823a243.652,243.652,0,0,1,108.42-10.459l49.671,6.766,2.327-17.131-49.671-6.75a259.628,259.628,0,0,0-108.188,8.752" transform="translate(320.472 145.937)"/><path class="b" d="M166.976,219.178,164.416,238a243.209,243.209,0,0,1,108.42-10.459l49.671,6.75,2.327-17.131-49.671-6.75a259.373,259.373,0,0,0-108.188,8.767" transform="translate(320.472 200.465)"/></g><g class="a" transform="matrix(0.993, 0.122, -0.122, 0.993, -17025.762, 4341.347)"><path class="b" d="M584.816,217.324a12.9,12.9,0,0,0-6.3-6.323,129.131,129.131,0,0,0-20.062-7.04,269.61,269.61,0,0,0-38.531-7.028,415.164,415.164,0,0,0-46.336-2.541,387.515,387.515,0,0,0-60.2,4.426,238.44,238.44,0,0,0-24.682,5.143,142.142,142.142,0,0,0-14.663,4.791,141.425,141.425,0,0,0-14.675-4.791,269.6,269.6,0,0,0-38.53-7.028,415.329,415.329,0,0,0-46.336-2.541,387.563,387.563,0,0,0-60.209,4.426,238.577,238.577,0,0,0-24.658,5.143A129.749,129.749,0,0,0,169.564,211a12.9,12.9,0,0,0-6.286,6.31c-9.788,2.456-20.937,7.04-20.937,15.162V468.18a41.06,41.06,0,0,0,41.06,41.06H348.842v2.128a8.043,8.043,0,0,0,8.037,8.061h34.336a8.043,8.043,0,0,0,8.037-8.061V509.24H564.694a41.061,41.061,0,0,0,41.06-41.06V232.474c0-8.122-11.15-12.706-20.937-15.149M361.183,462.611c-.608-.17-1.191-.353-1.812-.535a267.9,267.9,0,0,0-38.53-7.028,412.461,412.461,0,0,0-46.336-2.541,392.31,392.31,0,0,0-60.209,4.414,244.388,244.388,0,0,0-24.658,5.155c-.62.182-1.2.365-1.812.535v-231.2c2.6-.9,5.447-1.763,8.511-2.6a242.221,242.221,0,0,1,34.749-6.31,384.977,384.977,0,0,1,43.418-2.359,367.864,367.864,0,0,1,56.173,4.085,214.1,214.1,0,0,1,21.983,4.584q4.633,1.258,8.523,2.6Zm199.072,0c-.608-.17-1.179-.353-1.8-.535a267.913,267.913,0,0,0-38.531-7.028,412.3,412.3,0,0,0-46.336-2.541,392.146,392.146,0,0,0-60.2,4.414,244.929,244.929,0,0,0-24.682,5.155c-.608.182-1.192.365-1.8.535v-231.2q3.885-1.35,8.523-2.6a241.208,241.208,0,0,1,34.725-6.31,385.363,385.363,0,0,1,43.431-2.359,367.985,367.985,0,0,1,56.173,4.085,215.083,215.083,0,0,1,21.995,4.584c3.064.839,5.909,1.7,8.5,2.6Z" transform="translate(0 0)"/><path class="c" d="M319.439,438.978c-.608-.17-1.191-.353-1.812-.535a267.414,267.414,0,0,0-38.518-7.028,412.855,412.855,0,0,0-46.348-2.541,392.142,392.142,0,0,0-60.2,4.414,244.655,244.655,0,0,0-24.67,5.155c-.62.182-1.2.365-1.812.535v-231.2c2.6-.9,5.447-1.763,8.511-2.6a242.547,242.547,0,0,1,34.749-6.31,385.151,385.151,0,0,1,43.418-2.359,367.743,367.743,0,0,1,56.173,4.085,214.358,214.358,0,0,1,21.995,4.584c3.076.839,5.921,1.7,8.511,2.6Z" transform="translate(41.744 23.634)"/><path class="c" d="M335.8,438.978c-.608-.17-1.179-.353-1.8-.535a267.911,267.911,0,0,0-38.531-7.028,412.315,412.315,0,0,0-46.336-2.541,392.142,392.142,0,0,0-60.2,4.414,244.945,244.945,0,0,0-24.682,5.155c-.608.182-1.191.365-1.8.535v-231.2q3.885-1.35,8.523-2.6a241.207,241.207,0,0,1,34.725-6.31,385.375,385.375,0,0,1,43.43-2.359,367.984,367.984,0,0,1,56.173,4.085A215.062,215.062,0,0,1,327.3,205.18c3.064.839,5.909,1.7,8.5,2.6Z" transform="translate(224.466 23.634)"/><path class="b" d="M150.048,209.275l-2.006,14.748a190.914,190.914,0,0,1,84.952-8.195l38.919,5.3,1.824-13.423-38.92-5.289a203.428,203.428,0,0,0-84.77,6.857" transform="translate(63.615 70.216)"/><path class="b" d="M150.048,213.035l-2.006,14.749a190.911,190.911,0,0,1,84.952-8.2l38.919,5.3,1.824-13.423-38.92-5.289a203.429,203.429,0,0,0-84.77,6.857" transform="translate(63.615 112.172)"/><path class="b" d="M150.048,216.8l-2.006,14.748a190.564,190.564,0,0,1,84.952-8.195l38.919,5.289,1.824-13.423-38.92-5.289a203.229,203.229,0,0,0-84.77,6.87" transform="translate(63.615 154.084)"/><path class="b" d="M166.422,209.275l-2.006,14.748a190.914,190.914,0,0,1,84.952-8.195l38.92,5.3,1.824-13.423-38.92-5.289a203.429,203.429,0,0,0-84.77,6.857" transform="translate(246.326 70.216)"/><path class="b" d="M166.422,213.035l-2.006,14.749a190.912,190.912,0,0,1,84.952-8.2l38.92,5.3,1.824-13.423-38.92-5.289a203.43,203.43,0,0,0-84.77,6.857" transform="translate(246.326 112.172)"/><path class="b" d="M166.422,216.8l-2.006,14.748a190.565,190.565,0,0,1,84.952-8.195l38.92,5.289,1.824-13.423-38.92-5.289a203.23,203.23,0,0,0-84.77,6.87" transform="translate(246.326 154.084)"/></g></g></svg>