<svg xmlns="http://www.w3.org/2000/svg" width="1553.479" height="913.208" viewBox="0 0 1553.479 913.208"><defs><style>.a{opacity:0.1;}.b{fill:#4b9f3b;}.c{fill:#75b268;}</style></defs><g transform="translate(228.693 -6354.713)"><g class="a" transform="translate(-1509.862 5980.187) rotate(-20)"><path class="b" d="M1628.027,1275.771c0,157.211-139.988,284.657-312.7,284.657-172.688,0-312.676-127.446-312.676-284.657s139.988-284.655,312.676-284.655c172.708,0,312.7,127.444,312.7,284.655" transform="translate(0 0)"/><path class="c" d="M1438.482,1060.667c0,70.915-96.431,128.414-215.407,128.414-118.96,0-215.412-57.5-215.412-128.414s430.819-70.916,430.819,0" transform="translate(92.258 301.4)"/><path class="c" d="M1045.45,1039.84c0,24.021-7.516,43.478-16.778,43.478s-16.76-19.457-16.76-43.478,7.5-43.479,16.76-43.479,16.778,19.458,16.778,43.479" transform="translate(170.519 96.623)"/><path class="c" d="M1056.58,1039.84c0,24.021-7.513,43.478-16.775,43.478s-16.759-19.457-16.759-43.478,7.5-43.479,16.759-43.479,16.775,19.458,16.775,43.479" transform="translate(375.553 96.623)"/></g><g class="a" transform="matrix(0.996, 0.087, -0.087, 0.996, -106.565, 5675.415)"><path class="b" d="M1523.53,1228.206c0,130.942-116.6,237.092-260.445,237.092-143.833,0-260.429-106.15-260.429-237.092s116.6-237.09,260.429-237.09c143.849,0,260.445,106.148,260.445,237.09" transform="translate(0 0)"/><path class="c" d="M1366.494,1051.779c0,59.065-80.318,106.956-179.414,106.956s-179.417-47.891-179.417-106.956,358.831-59.066,358.831,0" transform="translate(76.005 248.303)"/><path class="c" d="M1039.846,1032.575c0,20.007-6.26,36.213-13.974,36.213s-13.959-16.206-13.959-36.213,6.243-36.214,13.959-36.214,13.974,16.207,13.974,36.214" transform="translate(140.479 79.602)"/><path class="c" d="M1050.976,1032.575c0,20.007-6.258,36.213-13.972,36.213s-13.959-16.206-13.959-36.213,6.244-36.214,13.959-36.214,13.972,16.207,13.972,36.214" transform="translate(309.392 79.602)"/></g></g></svg>