<svg xmlns="http://www.w3.org/2000/svg" xmlns:xlink="http://www.w3.org/1999/xlink" width="162.122" height="102.719" viewBox="0 0 162.122 102.719"><defs><style>.a{fill:#fff;}.b{fill:#42290b;}.c{fill:#d25f91;}.d{filter:url(#a);}</style><filter id="a" x="0" y="0" width="162.122" height="102.719" filterUnits="userSpaceOnUse"><feOffset dy="3" input="SourceAlpha"/><feGaussianBlur stdDeviation="3" result="b"/><feFlood flood-opacity="0.161"/><feComposite operator="in" in2="b"/><feComposite in="SourceGraphic"/></filter></defs><g transform="translate(15246.122 -5554.744)"><g class="d" transform="matrix(1, 0, 0, 1, -15246.12, 5554.74)"><path class="a" d="M-472.13,3083.856c2.672-21.763,37.026-35.453,76.733-30.578s69.731,26.47,67.058,48.233c-2.57,20.938-34.474,34.4-72.251,31.043l-20.726,4.458,2.255-7.414C-451.584,3121.962-474.479,3102.976-472.13,3083.856Z" transform="translate(481.3 -3046.29)"/></g><path class="b" d="M-34.474-1.562c-2.662-2.574-2.662-2.574-3.212-3.058a34.1,34.1,0,0,0-4.07-3.19,29.136,29.136,0,0,0,3.432-6.072,4.231,4.231,0,0,1,.7-1.188l-1.452-1.5a4.766,4.766,0,0,1-1.958.242l-7.744.11H-49.3a9.628,9.628,0,0,1-1.936-.132l.088,2.816a17.338,17.338,0,0,1,2.4-.176c6.93-.11,6.93-.11,7.282-.132l-.242.572A21.205,21.205,0,0,1-49.1-4.312a18.163,18.163,0,0,1-4.4,2.42A8.825,8.825,0,0,1-51.722.55,26.144,26.144,0,0,0-43.34-5.808,42.292,42.292,0,0,1-36.586.726ZM-15.158-15.8a5.775,5.775,0,0,1-1.936.264c-5.368.044-5.368.044-5.72.088a10.963,10.963,0,0,0,.528-1.056,11.591,11.591,0,0,1,.66-1.232l-2.86-.638a13.412,13.412,0,0,1-1.276,3.058,18.913,18.913,0,0,1-5.522,6.27,6.984,6.984,0,0,1,2.2,1.76A22.761,22.761,0,0,0-23.936-13.2l6.842-.066a21.019,21.019,0,0,1-2.464,5.192,28.636,28.636,0,0,0-4.422-2.948l-1.672,1.958a24.906,24.906,0,0,1,4.51,3.146A15.97,15.97,0,0,1-24.75-2.86a22.172,22.172,0,0,1-4.29,2.2,6.982,6.982,0,0,1,1.826,2.266c4.686-2.156,7.788-4.752,10.032-8.4a36.9,36.9,0,0,0,2.816-6.05,3.941,3.941,0,0,1,.682-1.474Zm5.72,8.888a24.151,24.151,0,0,1,3.586-.11H5.83a24.151,24.151,0,0,1,3.586.11V-9.966a21.6,21.6,0,0,1-3.564.154H-5.874a21.6,21.6,0,0,1-3.564-.154ZM19.844.99a24.186,24.186,0,0,1-.088-2.442V-7.26a11.374,11.374,0,0,0-.088-1.5,7.108,7.108,0,0,0,.748.374A52.05,52.05,0,0,1,28.2-4.18l1.54-2.6a64.634,64.634,0,0,0-9.988-4.642V-15.51a14.748,14.748,0,0,1,.088-2.31H16.83a14.141,14.141,0,0,1,.132,2.244v14.1A14.82,14.82,0,0,1,16.83.99ZM45.3-4.422a7.857,7.857,0,0,1-.044-.924c0-.308,0-.308.044-1.584l.308-7.48c.044-.946.132-2.09.2-2.684H42.2c.088.616.154,1.716.2,2.684L42.7-6.93c.066,1.32.066,1.32.066,1.562,0,.264-.022.484-.044.946ZM45.606.4V-2.618h-3.19V.4Z" transform="translate(-15162.892 5610.511) rotate(9)"/><path class="c" d="M64.775,0h2.133L67,.02h.033q.874.016,1.741.044l-.032,1C67.43,1.021,66.1,1,64.775,1V0Zm7.995.257q2.013.131,3.988.325l-.1,1c-1.3-.129-2.635-.237-3.954-.323l.065-1Zm7.959.786.781.107h0l.062.009h0l.026,0h.008l.029,0,.024,0,.013,0,.017,0,.026,0,.027,0,.062.009h0l.022,0h0q1.17.168,2.32.358h0l.022,0h0l.021,0h0l.035.006.013,0,.013,0,.027,0,.02,0h.007l.029,0h0l.027,0h0l.3.051-.168.986c-1.289-.219-2.608-.419-3.921-.594Zm7.886,1.343.124.026h0l.029.006h0l.058.012h.007l.02,0,.01,0,.024.005.008,0,.02,0,.027.006.014,0,.012,0L89,2.467l.008,0,.018,0,.008,0,.064.014h0l.023,0h0c.351.075.7.151,1.046.229h0l.088.02h0l.063.014h0l.018,0,.008,0,.018,0h0l.038.009.009,0,.015,0,.012,0,.015,0,.023.005.012,0,.015,0,.012,0,.017,0,.01,0,.025.006.009,0,.019,0,.009,0,.024.005h0l.029.007h0l.027.006h0q.912.21,1.809.434l-.243.97c-1.262-.316-2.561-.613-3.859-.884Zm7.758,1.943h.005l.015,0,.02.006.014,0,.013,0,.017,0,.015,0,.018.005.011,0,.02.006.007,0,.026.008.008,0,.021.006.007,0,.027.008h0l.024.007.006,0,.056.017h0l.027.008h0l.03.009h0l.03.009h0l.06.018h0q1.695.51,3.324,1.072l-.326.945c-1.224-.422-2.492-.827-3.768-1.2Zm7.56,2.611.1.041h0L104.09,7l.006,0,.029.012.007,0,.015.006.01,0,.023.009.012,0,.013.005.013.005.018.007.015.006.012,0,.015.006.015.006.017.007.01,0,.021.008.01,0,.018.007.009,0,.024.01.007,0,.02.008.006,0,.026.011h0l.024.01,0,0,.026.011,0,0,.026.011h0l.028.012h0l.057.023h0q1.52.626,2.966,1.3l-.421.907c-1.166-.542-2.384-1.068-3.622-1.563l.372-.928Zm7.246,3.377.467.255h0l.015.008,0,0,.015.008h0l.032.018,0,0,.012.007.005,0,.01.006.006,0,.008,0,.008,0,.007,0,.017.009.005,0,.011.006,0,0,.011.006,0,0,.011.006h0l.067.038h0q1.411.788,2.727,1.623l-.536.844c-1.075-.682-2.217-1.351-3.392-1.987l.476-.88Zm6.741,4.295h0l.006,0,.007.005.008.006.006,0,.008.006.005,0,.008.006.006,0,.008.006,0,0,.009.007,0,0,.009.007,0,0,.009.007,0,0,.01.007h0l.049.037,0,0,.009.007,0,0,.009.007,0,0,.008.006.005,0,.009.007,0,0,.009.007,0,0,.01.007,0,0,.01.008,0,0,.01.008h0l.062.048h0l.012.01h0l.011.009,0,0,.011.008,0,0,.01.008,0,0,.01.008,0,0,.01.008,0,0,.011.008h0l.075.058h0l.011.009h0l.012.009h0l.012.009h0l.012.009h0l.012.01h0l.1.077h0l.012.009h0l.011.009h0l.011.009h0l.011.008,0,0,.01.008h0l.011.009h0l.073.057,0,0,.011.008h0l.01.008,0,0,.01.008,0,0,.01.008,0,0,.01.008,0,0,.01.008h0l.023.019h0l.048.038h0l.011.009h0l.01.008,0,0,.01.008,0,0,.009.008,0,0,.009.007,0,0,.009.007,0,0,.009.007,0,0,.01.008,0,0,.032.026,0,0,.008.006,0,0,.008.007,0,0,.007.006.006,0,.007.006.006,0,.007.005.006.005.007.005.006.005.006.005.007.005.006,0,.007.006.005,0,.007.006.006.005.006.005.006,0,.009.007.01.008.007.006.006,0,.006.005.006.005.007.005.006,0,.007.006.006,0,.007.006.006,0,.006,0,.007.005.007.005.006,0,.007.006.005,0,.009.007,0,0,.009.008,0,0,.026.021h0l.011.009,0,0,.008.007.006,0,.008.006,0,0,.009.007,0,0,.008.007,0,0,.009.007,0,0,.01.008,0,0,.011.009,0,0,.078.064h0l.025.021h0l.013.01h0l.013.01h0q.747.622,1.442,1.26l-.676.737c-.925-.85-1.936-1.689-3-2.494Zm5.865,5.421.184.216h0l.009.011h0l.008.01,0,0,.008.01,0,0,.008.009,0,0,.007.009,0,0,.007.008,0,0,.007.008,0,0,.007.008,0,0,.007.008,0,0,.006.007,0,.005.006.007,0,0,.006.007,0,.005.006.007,0,.006.005.006.005.006.005.006.005.006,0,.005.007.008,0,0,.019.023h0l.081.1h0l.009.012h0l.01.012h0l.009.011h0l.009.011,0,0,.009.011h0l.009.011h0l.01.012h0l.01.012h0l.009.011h0l.01.012h0l.01.012h0l.009.012h0l.01.012h0q.115.142.227.284h0l.019.025h0l.01.012h0l.009.011h0l.009.011h0l.009.011h0l.009.011h0l.009.011v0l.009.011h0l.009.012h0l.019.024h0l.115.149h0l.019.025h0l.008.011,0,0,.008.01,0,0,.007.009,0,0,.007.009,0,0,.006.008,0,0,.006.008,0,0,.006.008,0,0,.006.008,0,0,.006.008,0,0,.006.008,0,0,.006.008,0,0,.006.008,0,0,.006.008,0,0,.005.007,0,.005.005.007,0,.005.005.007,0,.006,0,.006,0,.006,0,.006,0,.006,0,.006,0,.006,0,.005.005.007,0,0,.006.008,0,0,.006.008,0,0,.007.009h0l.053.071h0l.009.012h0l.008.011h0l.008.011h0l.008.011h0l.008.011v0l.008.011h0l.008.011v0l.008.011v0l.008.01v0l.008.011h0l.008.011h0l.008.011h0l.008.011h0l.008.011h0l.009.012h0q.488.669.924,1.351l-.843.538a27.136,27.136,0,0,0-2.309-3.085Zm4.255,6.735q.226.541.419,1.089h0l.031.088h0l0,.013h0l0,.013v0l0,.013v0l0,.013h0l.015.044h0l0,.014v0l0,.012v0l0,.012v0l0,.011v0l0,.011v0l.01.029h0l0,.014v0l0,.01,0,.005,0,.009,0,0,0,.009,0,.005,0,.009,0,.005,0,.009,0,0,0,.013h0l0,.014v0l0,.01,0,.005,0,.009,0,.006,0,.008,0,.006,0,.008,0,.006,0,.008,0,.006,0,.008,0,.006,0,.012,0,.005,0,.01,0,.006,0,.008,0,.007,0,.007,0,.007,0,.007,0,.007,0,.007,0,.007,0,.007,0,.007,0,.008,0,.006,0,.014,0,.006,0,.009,0,.007,0,.007,0,.007,0,.007,0,.008,0,.006,0,.008,0,.006,0,.008,0,.006,0,.008,0,.005.006.019v0l0,.009v0l0,.009v0l0,.009v0l0,.009,0,.005,0,.009v0l0,.009v0l0,.009h0l.007.023v0l0,.009,0,.005,0,.009,0,.005,0,.009,0,.005,0,.009v.005l0,.009v0l0,.009v0l.01.034v0l0,.009v0l0,.009,0,.005,0,.009v0l0,.009v.005l0,.009,0,.005,0,.009v0l.009.033v0l0,.009v0l0,.009v0l0,.009v0l0,.009v0l0,.009v0l.013.047v0l0,.01v0l0,.01v0l0,.01v0l0,.01v0l0,.01v0l.013.049v0l0,.01v0l0,.01v0l0,.01v0l0,.01v0l0,.011h0l.014.05v0l0,.01v0l0,.01v0l0,.01v0l0,.011h0l.014.052h0l0,.011v0l0,.011v0l0,.011v0l0,.011v0l.017.065h0l0,.012v0l0,.011v0l0,.011v0l0,.012h0l.016.065h0l0,.012v0l0,.012v0l0,.012h0l0,.013h0l.016.066h0l0,.012v0l0,.012v0l0,.012h0l.019.079h0l0,.013h0l0,.013h0c.05.214.1.43.138.645l-.981.192a18.846,18.846,0,0,0-1.107-3.626Zm.505,7.774,1,.024a18.5,18.5,0,0,1-.472,3.728h0l0,.014h0l0,.014h0l-.014.06v0l0,.012v0l0,.01v0l0,.01v0l0,.011v0l0,.012v0l0,.014v.005l0,.009,0,.007,0,.007,0,.008v.01l-.972-.237A17.594,17.594,0,0,0,128.544,34.542Zm-1.764,7.324.907.422q-.135.29-.28.579h0l-.007.013h0l-.006.012v0l-.006.011v0l-.006.011v0l-.006.011v0l-.006.011v0l-.007.013h0l-.021.041v0l-.006.011,0,0,0,.009,0,0,0,.008,0,.005,0,.008,0,.005,0,.008,0,.005,0,.007,0,.006,0,.007,0,.006,0,.007,0,.007,0,.006,0,.008,0,0,0,.009v0l-.024.047v0l-.005.01v0l-.005.01,0,0-.005.01,0,0-.005.01,0,0-.005.01,0,0-.005.01,0,0-.006.011h0l-.006.012h0l-.067.126h0q-.563,1.051-1.249,2.073h0l-.008.012h0l-.008.011v0l-.007.011h0l-.008.011h0l-.008.011h0l-.008.012h0l-.024.035h0l-.005.008,0,.005,0,.007,0,.006,0,.006,0,.007,0,.006,0,.007,0,0-.006.008,0,0-.006.009,0,0-.006.009,0,0-.007.01,0,0-.008.011h0l-.018.026-.824-.566A23.114,23.114,0,0,0,126.78,41.865ZM122.466,48.2l.739.673q-.424.465-.873.923h0l-.009.009,0,0-.007.008,0,0-.007.007,0,0-.006.007,0,0-.006.006-.005.006-.005.006-.005.005-.006.006-.006.006,0,0-.007.007,0,0-.008.008,0,0-.009.009,0,0-.009.009,0,0-.01.01h0q-.877.882-1.846,1.732l-.66-.752A34.95,34.95,0,0,0,122.466,48.2Zm-5.834,5.15.587.809q-.5.362-1.016.717h0l-.012.008h0l-.012.008h0l-.05.034h0l-.01.007,0,0-.01.007,0,0-.011.007,0,0-.011.007h0l-.033.022,0,0-.008.005-.006,0-.007,0-.008.005-.007,0-.007,0-.007,0-.007,0-.007,0-.013.009-.005,0-.009.006-.006,0-.009.006-.005,0-.009.006,0,0-.01.007,0,0-.011.008,0,0-.029.019,0,0-.011.007,0,0-.011.008,0,0-.013.009h0l-.014.01h0l-.045.03h0l-.014.009h0q-.9.6-1.842,1.18l-.522-.853C114.508,54.829,115.606,54.1,116.631,53.354Zm-6.685,4.109.464.886q-1.736.908-3.6,1.746l-.41-.912C107.617,58.636,108.81,58.057,109.946,57.463ZM102.758,60.7l.361.932q-1.833.71-3.763,1.354l-.316-.949C100.3,61.622,101.554,61.172,102.758,60.7Zm-7.5,2.5.274.962q-.356.1-.714.2h0l-.087.024-.006,0L94.7,64.4h0l-.026.007-.009,0-.017,0-.011,0-.019.005-.015,0-.015,0-.015,0-.01,0-.016,0h0l-.039.011-.006,0-.019.005h0l-.062.017h0q-1.356.368-2.749.7l-.234-.972C92.723,63.9,94.012,63.565,95.261,63.209Zm-7.7,1.856.2.981h0l-.022,0h-.007l-.026.005h0l-.03.006h0l-.027.005h0l-.088.017h0q-.834.165-1.68.318h0l-.092.017h0l-.092.017h0l-.122.022h0l-.091.016h0l-.091.016h0l-.029.005h0l-.06.011h0l-.027,0h0l-.059.01h0l-.027,0h0l-.06.01h0l-.026,0h-.006L85,66.56h0l-.028,0h0l-.026,0h0l-.059.01h-.005l-.025,0h0l-.059.01h0l-.025,0h-.005l-.059.01h0l-.025,0h-.005l-.029,0h0l-.031.005h0l-.027,0h-.006l-.027,0h0l-.06.01h0l-.029,0h0l-.062.01h0l-.03,0h0l-.061.01h0l-.466.076-.16-.987C84.972,65.559,86.284,65.321,87.564,65.065ZM79.74,66.334l.125.992q-.614.077-1.232.148h0l-.092.01h0l-.027,0-.03,0h-.006l-.058.007-.027,0-.029,0-.034,0-.032,0h-.013l-.029,0h-.013l-.014,0h-.012l-.034,0-.026,0-.027,0h0l-.095.01h0c-.71.078-1.42.149-2.138.214l-.091-1C77.114,66.641,78.441,66.5,79.74,66.334Zm-7.9.721.058,1q-.743.043-1.491.077h0l-.093,0h-.032l-.122.005h-.034l-.092,0h-.064l-.091,0h-.065l-.091,0h-.065l-.066,0h-.061l-.06,0h-.1l-.091,0h-.035l-.092,0h-.033q-.611.021-1.224.037l-.025-1C69.2,67.185,70.532,67.13,71.842,67.055Zm-11.9.108c1.311.051,2.646.082,3.966.091l-.007,1q-1.463-.01-2.909-.054h-.034l-.061,0h-.254l-.074,0h-.061l-.6-.022Zm-7.911-.572c1.3.138,2.631.256,3.949.351l-.072,1-.5-.037-.029,0-.031,0h-.006l-.057,0h-.012l-.03,0h-.029l-.048,0-.025,0-.026,0h-.007l-.1-.008h0q-1.282-.1-2.547-.23l-.025,0h0l-.071-.007-.022,0-.026,0h-.028l-.03,0-.025,0h-.009l-.021,0H52.2l-.028,0-.245-.026ZM44.18,65.48c1.286.229,2.6.439,3.914.625l-.14.99h-.005l-.022,0-.028,0-.011,0-.02,0-.015,0-.018,0-.013,0-.029,0-.013,0-.056-.008h-.01l-.018,0-.027,0h0l-.039-.006h-.007l-.02,0h-.005l-.021,0h0l-.072-.01h0q-1.012-.147-2.01-.311h0l-.094-.015h0l-.022,0h0l-.067-.011h0l-.021,0h0l-.069-.011h0l-.027,0-.026,0-.061-.01h-.007l-.019,0-.026,0h0l-.041-.007-.024,0h-.009l-.017,0-.01,0-.032-.005H44.9l-.016,0-.01,0-.016,0-.012,0-.014,0-.024,0-.028,0-.028,0-.012,0-.022,0-.01,0-.022,0-.011,0-.018,0-.01,0-.021,0h-.006l-.027,0h-.007l-.021,0-.009,0-.021,0h-.007l-.028,0h0l-.024,0h-.007l-.021,0h-.007l-.057-.01h0l-.025,0h0l-.027,0h0l-.059-.01h0l-.026,0h0l-.06-.011h0l-.028-.005h0l-.09-.016h0L44,66.465Zm-7.74-1.686c1.26.327,2.556.636,3.853.918l-.212.977c-.355-.077-.711-.157-1.063-.237h0l-.088-.02h0l-.063-.014h0l-.019,0-.008,0-.057-.013-.008,0-.017,0-.01,0-.027-.006-.012,0-.013,0-.014,0-.013,0-.015,0-.016,0-.02,0-.013,0-.015,0-.011,0-.022-.005h-.006l-.026-.006-.007,0-.022-.005h-.006l-.057-.013h0l-.026-.006h0l-.03-.007h0l-.029-.007h0l-.089-.021h0q-1.035-.245-2.05-.509ZM28.877,61.48c1.219.434,2.482.851,3.754,1.24l-.292.956q-.637-.195-1.265-.4h0l-.06-.019h0l-.029-.009h0l-.029-.01h0l-.028-.009h0l-.055-.018,0,0-.025-.008h0l-.026-.009-.007,0-.02-.006-.008,0-.025-.008-.007,0-.02-.006-.009,0-.025-.008-.006,0-.019-.006-.011,0-.017-.005-.012,0-.021-.007-.012,0-.015,0-.011,0-.023-.007-.012,0-.014,0-.012,0-.015-.005-.021-.007-.011,0-.015,0-.009,0-.028-.009-.008,0-.016-.005-.009,0-.053-.017-.007,0-.055-.018-.006,0L30.233,63l0,0-.033-.011-.006,0-.018-.006,0,0-.056-.019-.006,0-.056-.019h0l-.018-.006h0l-.037-.012h0l-.02-.007h0l-.059-.02,0,0-.057-.019h0l-.057-.019,0,0-.019-.006h0l-.06-.02h0l-.058-.02h0l-.058-.02h0l-.059-.02h0l-.019-.007h0l-.058-.02h0l-.056-.019-.006,0-.056-.019h0l-.017-.006-.007,0-.03-.01-.006,0-.016-.006-.009,0-.021-.007-.014,0-.014,0-.011,0-.014,0-.014,0-.02-.007-.012,0-.013,0-.013,0-.02-.007-.014-.005-.012,0-.013,0L29,62.585l-.02-.007-.011,0-.016-.006-.009,0-.024-.008-.007,0-.02-.007-.008,0-.025-.009h0l-.023-.008-.007,0-.025-.009h0l-.026-.009-.006,0-.023-.008h0l-.028-.01h0l-.027-.01h0l-.057-.02h0l-.087-.031Zm-7.289-3.023c1.158.556,2.37,1.1,3.6,1.606l-.382.924q-1.226-.507-2.4-1.045h0l-.033-.015,0,0-.016-.007,0,0-.028-.013-.008,0-.014-.007-.008,0-.024-.011-.01,0-.012-.006-.02-.009-.01,0-.015-.007-.009,0-.022-.01-.009,0-.018-.008-.007,0-.024-.011-.006,0-.024-.011h0l-.025-.012,0,0-.053-.024h0q-.421-.2-.835-.394Zm-6.853-3.848c1.062.7,2.192,1.384,3.358,2.037l-.488.873-.195-.109h0L17.4,57.4h0l-.013-.007h0l-.052-.03,0,0-.01-.006,0,0-.01-.006,0,0-.031-.018-.008,0-.008,0-.007,0-.008,0-.007,0-.008,0-.009-.005-.006,0-.031-.018h0l-.013-.008,0,0-.012-.007,0,0-.013-.007,0,0-.032-.018h0l-.015-.008h0l-.015-.009h0q-1.491-.855-2.87-1.763ZM8.61,49.771c.9.869,1.894,1.729,2.945,2.555l-.618.786q-.7-.548-1.356-1.111h0l-.025-.021h0l-.012-.011h0l-.012-.01h0l-.012-.01h0l-.012-.01h0l-.05-.043,0,0-.01-.009,0,0-.009-.007,0,0-.008-.007,0,0-.007-.006-.006,0-.006-.005-.007-.006-.005,0-.007-.006-.006,0-.007-.006,0,0L9.35,51.8l0,0-.008-.007,0,0-.079-.069h0l-.011-.01h0l-.011-.01h0q-.68-.6-1.315-1.206Zm-4.835-6a25.926,25.926,0,0,0,2.206,3.152l-.776.631q-.243-.3-.476-.6h0l-.009-.011h0l-.009-.012h0L4.7,46.916h0L4.691,46.9l0,0-.008-.011v0l-.008-.011,0,0-.008-.011v0l-.008-.01,0,0-.008-.011h0l-.009-.011h0l-.009-.012h0L4.614,46.8h0l-.057-.076h0l-.009-.012v0l-.008-.01,0,0-.007-.01,0,0-.007-.01,0,0-.007-.009,0,0L4.5,46.651l0,0-.007-.009,0,0-.007-.009,0,0-.006-.009,0,0L4.462,46.6l0,0-.006-.008,0,0-.006-.008,0,0-.006-.009,0,0-.006-.008,0,0-.006-.008,0,0-.006-.009,0,0L4.4,46.514l0,0-.007-.01,0,0-.028-.038,0,0-.007-.01,0,0-.006-.009,0,0-.006-.008,0,0-.006-.008,0,0L4.312,46.4l0-.005L4.3,46.385l0-.005-.005-.007,0-.006-.005-.007,0-.005-.005-.007,0-.006,0-.007,0-.005-.005-.007,0-.005-.005-.007,0,0L4.239,46.3l0-.005-.005-.007,0,0-.006-.008,0,0-.007-.009,0,0L4.2,46.246l0,0-.008-.011v0l-.045-.063v0l-.008-.011h0l-.008-.011,0,0-.006-.009,0,0-.007-.009,0,0L4.1,46.1l0,0-.006-.009,0,0-.006-.009,0,0-.007-.009,0,0-.007-.009,0,0-.006-.009,0,0-.006-.009,0,0-.006-.009,0,0L4.029,46l0,0-.007-.01,0,0-.008-.011v0L4,45.964H4l-.089-.128h0L3.9,45.822h0l-.009-.012h0L3.885,45.8h0l-.008-.012h0l-.008-.012h0l-.008-.012h0l-.009-.013h0l-.008-.012h0q-.493-.718-.926-1.451ZM1.186,36.664a18.374,18.374,0,0,0,.943,3.667l-.938.346q-.1-.282-.2-.565h0l0-.014v0l0-.013v0l0-.014h0l-.01-.03h0l0-.013v0l0-.01,0-.005,0-.009,0-.006,0-.008,0-.006,0-.008,0-.006,0-.008,0-.006,0-.007,0-.014,0-.005,0-.008,0-.006,0-.009,0,0,0-.009,0,0,0-.009v0l0-.01v0L.891,39.8h0l0-.012h0l0-.012v0l0-.012v0l0-.012h0Q.6,38.878.411,37.994h0l0-.013h0l0-.013h0L.391,37.9h0l0-.012v0l0-.011v0l0-.011v0l0-.011v0l0-.011v0L.37,37.8v0l0-.009v-.006l0-.008v-.006l0-.008v-.029l0-.009v-.005l0-.014v0l0-.011v0l0-.01v-.005l0-.01v0l0-.01v0l0-.012v0l0-.014h0l-.009-.045h0l0-.013v0l0-.013v0l0-.014h0q-.066-.351-.118-.7ZM.758,28.892l.96.281a17.818,17.818,0,0,0-.673,3.719l-1-.071a18.747,18.747,0,0,1,.711-3.928Zm3.6-7.1.805.593a24.144,24.144,0,0,0-2.03,3.257l-.889-.457,0,0,0-.007,0-.006,0-.007,0-.006,0-.007,0-.006,0-.007,0-.007,0-.006,0-.007,0-.006,0-.007,0-.006,0-.007,0-.005.022-.042,0,0,0-.009,0,0,0-.009,0,0,0-.008,0,0,0-.008,0-.005,0-.009,0,0,0-.009,0,0,0-.009,0,0,0-.009,0,0,0-.009,0,0,.005-.01,0,0L2.4,24.9v0l.006-.011h0l.033-.062h0l.006-.011v0l.006-.011v0l.005-.01,0,0,.005-.01,0,0,.005-.01v0l.006-.01v0l.005-.01,0,0,.005-.01v0L2.5,24.71h0l.013-.024h0l.041-.075h0L2.56,24.6v0l.006-.01,0,0,.005-.01,0,0,.005-.01,0,0,.006-.01v0l.006-.011v0l.006-.01v0l.006-.011v0l.006-.011h0l.006-.012h0l.035-.063h0l.006-.01,0,0,.005-.009,0,0,0-.008,0,0,0-.009,0,0,0-.009,0,0,0-.009,0,0,0-.008,0,0,.005-.009,0,0,.005-.009,0,0,0-.009,0,0,0-.008,0,0,0-.008,0,0,.006-.01v0l.011-.02,0,0,0-.008,0,0,0-.007,0-.006,0-.007,0-.006,0-.006,0-.007,0-.006,0-.007,0-.006,0-.007,0-.006,0-.007,0-.006,0-.008,0-.005,0-.007,0-.006,0-.008,0,0,.005-.009,0,0,.006-.011v0l.007-.013h0l.023-.04h0L2.9,24h0l.007-.012h0l.007-.012h0l.007-.012v0l.006-.011v0l.007-.011v0l.007-.011v0l.007-.012v0l.007-.012h0Q3.6,22.829,4.36,21.794Zm5.505-5.778.643.766a36.507,36.507,0,0,0-2.846,2.653l-.721-.693q.883-.92,1.867-1.806h0l.011-.01h0l.011-.01h0l.011-.01h0l.011-.01h0l.08-.071h0l.008-.007,0,0,.007-.006,0,0,.007-.006,0,0,.007-.006.006,0,.005,0L9,16.764l0,0,.008-.007,0,0,.008-.008,0,0,.009-.008,0,0,.01-.008,0,0,.01-.009h0l.011-.01h0q.387-.343.789-.68Zm6.542-4.589.509.861c-1.151.68-2.263,1.394-3.3,2.12l-.572-.82q1.6-1.118,3.367-2.161Zm7.128-3.618.4.917c-1.223.533-2.424,1.1-3.568,1.675l-.451-.892h0l.053-.027h0l.053-.027h0l.054-.027h0l.026-.013h0l.025-.012h0l.025-.013,0,0,.051-.025,0,0,.025-.012h0l.022-.011,0,0,.024-.012,0,0,.022-.011,0,0,.024-.012.006,0,.023-.011h0l.024-.012.006,0,.024-.012h0l.023-.011.006,0,.024-.012,0,0,.022-.011.005,0,.024-.012.006,0,.02-.01.005,0,.023-.011.007,0,.022-.011h0l.024-.012.006,0,.024-.012,0,0,.021-.01.006,0L20.74,9.1l.006,0,.02-.01.006,0,.023-.011.007,0,.02-.01,0,0,.023-.011.007,0,.022-.011,0,0,.022-.011.006,0L20.936,9h0l.023-.011.005,0,.024-.012,0,0,.021-.01.006,0,.023-.011.006,0,.023-.011h0l.025-.012.005,0,.025-.012h0l.023-.011.005,0,.025-.012h0l.024-.011,0,0,.025-.012,0,0,.024-.011h0l.026-.012,0,0,.051-.025,0,0,.052-.025,0,0,.026-.012h0l.024-.011,0,0,.025-.012,0,0,.026-.012h0l.027-.013,0,0,.053-.025,0,0,.026-.012h0l.026-.012h0l.026-.012h0l.026-.012h0l.027-.012,0,0,.054-.025h0l.055-.026h0l.055-.026h0l.028-.013h0l.056-.026h0l.056-.026h0l.056-.026h0l.142-.065h0l.057-.026h0l.258-.117h0l.143-.065h0l.056-.025h0l.056-.025h0l.056-.025h0l.028-.012h0l.027-.012h0l.028-.012h0l.054-.024,0,0,.026-.011,0,0L23.1,8,23.1,8l.025-.011.005,0,.022-.01.005,0,.024-.011.008,0,.02-.009.006,0,.023-.01.009,0,.021-.009.008,0,.018-.008.011,0,.02-.009.012-.005.014-.006.012-.005.02-.009.013-.006.011,0,.021-.009.012-.005.015-.006.008,0,.027-.012.006,0,.017-.007h0Zm7.485-2.815.307.952c-1.267.408-2.523.845-3.733,1.3l-.351-.936.259-.1h0l.028-.011h0l.028-.01h0l.026-.009h0l.027-.01h0l.023-.008.007,0,.025-.009h0l.021-.008.01,0,.019-.007.009,0,.021-.008.01,0,.015-.006.01,0,.022-.008.011,0,.014-.005.011,0,.021-.008.012,0,.013,0,.012,0,.014-.005.021-.008.01,0,.015-.005.008,0,.027-.01.008,0,.016-.006.007,0L28.072,6l0,0L28.093,6l.006,0,.055-.02h0l.056-.02,0,0,.018-.006h0l.037-.013h0l.019-.007h0l.039-.014h0l.019-.007h0l.057-.021h0l.056-.02,0,0,.055-.02.005,0,.017-.006h0l.035-.012h0l.018-.006h0l.057-.02h0l.056-.02.006,0,.053-.019.008,0,.016-.006,0,0,.032-.011.006,0,.017-.006.008,0,.027-.01.009,0,.015-.005.01,0,.025-.009.01,0L29,5.673l.011,0,.016-.006.019-.007.014,0,.011,0,.014,0,.018-.006.016-.006.013,0,.012,0,.021-.007.01,0,.018-.006.009,0,.022-.008.007,0,.023-.008.008,0,.021-.007.005,0,.025-.009.007,0,.021-.007.007,0,.026-.009h0l.024-.008,0,0,.056-.019h0l.058-.02h0Q30.265,5.238,31.021,4.994ZM38.732,2.87l.226.974c-1.294.3-2.585.626-3.839.971l-.265-.964q.728-.2,1.467-.391h0l.026-.007h.005l.027-.007h0l.026-.007.01,0,.017,0,.011,0,.02-.005.016,0,.013,0,.015,0,.01,0,.056-.014h.006l.019,0h0q1.053-.268,2.127-.517Zm7.854-1.507.152.988c-1.309.2-2.623.428-3.9.673l-.188-.982q1.062-.2,2.14-.388h0l.029,0h0l.06-.01h0l.027,0h0l.06-.01h0l.027,0h0l.06-.01h0l.028,0H45.1l.027,0h0l.06-.01h0l.026,0h0l.06-.01h0l.029,0h0l.092-.015h0Q45.994,1.455,46.587,1.364ZM54.53.424l.083,1c-1.318.11-2.645.244-3.945.4L50.551.825l.6-.069.026,0h0l.073-.008.023,0,.026,0h0L51.37.732l.025,0,.027,0h.008l.06-.007.026,0,.028,0,.027,0,.037,0,.029,0,.028,0,.028,0,.029,0,.028,0,.029,0h.009l.026,0h0l.03,0h0l.033,0,.029,0L52,.663h0l.027,0h0Q53.274.53,54.53.424Zm7.988-.4.018,1c-1.32.024-2.654.069-3.965.136l-.05-1,.155-.008h0l.031,0h0l.061,0h.1l.044,0H59l.1,0h0Q59.687.1,60.279.081h.028l.1,0h.053l.076,0h.077l.073,0h.806l.1,0h.028c.3-.008.6-.014.9-.019Z" transform="translate(-15105.666 5644.056) rotate(-172)"/></g></svg>