<svg xmlns="http://www.w3.org/2000/svg" xmlns:xlink="http://www.w3.org/1999/xlink" width="110" height="110" viewBox="0 0 110 110"><defs><style>.a{fill:#fff;}.b{fill:#4e9727;}.c{fill:#42290b;font-size:16px;font-family:Helvetica-Bold, Helvetica;font-weight:700;}.d{font-family:HiraginoSans-W6, Hiragino Sans;font-weight:400;}.e{filter:url(#a);}</style><filter id="a" x="0" y="0" width="110" height="110" filterUnits="userSpaceOnUse"><feOffset dy="3" input="SourceAlpha"/><feGaussianBlur stdDeviation="3" result="b"/><feFlood flood-opacity="0.161"/><feComposite operator="in" in2="b"/><feComposite in="SourceGraphic"/></filter></defs><g transform="translate(-1042 -13617)"><g class="e" transform="matrix(1, 0, 0, 1, 1042, 13617)"><path class="a" d="M-505.675,3223.646a45.787,45.787,0,0,0,7.687-25.457,46,46,0,0,0-46-46,46,46,0,0,0-46,46,46,46,0,0,0,46,46,45.789,45.789,0,0,0,27.806-9.361l14.885,3.2Z" transform="translate(598.99 -3146.19)"/></g><path class="b" d="M42,0h.848l.1,0h.1l.135,0h.051q.962.028,1.912.1h.15l.035,0,.02,0H45.5l.088.007h.064l.339.031-.094,1C44.613,1.062,43.3,1,42,1V0Zm7.953.752.126.024.016,0,.016,0,.016,0,.015,0,.016,0,.016,0,.016,0L50.2.8l.015,0,.015,0,.016,0,.015,0,.015,0,.015,0,.015,0,.015,0,.012,0h0l.168.034h0l.015,0h0l.015,0h0l.014,0h0l.014,0h0l.014,0h0l.015,0h0l.015,0h0l.015,0h0q.368.077.734.16h0l.03.007h0l.3.071h0l.015,0h0l.015,0h0l.015,0h0l.014,0h0l.014,0h0l.014,0h0l.014,0h0l.015,0h0l.211.051h0l.015,0h0l.014,0h0l.014,0h0l.014,0h0l.014,0h0l.014,0h0l.013,0h0l.013,0h0l.013,0h0l.014,0h0l.014,0h0l.015,0h0l.226.057h0l.014,0h0l.014,0h0l.015,0h0l.015,0h0l.014,0h0l.014,0h0l.014,0h0l.014,0h0l.015,0h0q.634.164,1.259.348l-.281.96c-1.243-.365-2.519-.673-3.793-.917ZM57.618,3l.02.008h0l.014.005h0l.014.005h0l.013.005h0l.013.005h0l.013.005h0l.013.005h0l.013.005h0l.012,0h0l.011,0h0l.011,0h0l.011,0,0,0,.01,0,0,0,.011,0,0,0,.011,0,0,0,.011,0,0,0,.009,0,.006,0,.009,0,.006,0,.009,0,.005,0,.01,0,0,0,.009,0,.005,0,.009,0,.005,0,.01,0,0,0,.01,0,0,0,.008,0,.007,0,.007,0,.008,0,.008,0,.006,0,.009,0,.006,0,.006,0,.081.034h0l.013.005h0l.028.012h0l.013.005h0l.012.005h0l.013.005h0l.013.006h0l.013.006h0l.013.005h0l.013.005h0l.013.006h0l.013.006h0l.013.005h0l.013.005h0l.014.006h0l.014.006h0l.013.006h0l.013.006h0l.014.006h0l.013.006h0l.013.006h0l.013.006h0l.013.006h0l.028.012h0l.014.006h0l.014.006h0l.028.012h0q.978.419,1.929.886h0l.013.006h0l.013.006h0l.013.006h0l.012.006h0l.012.006h0l.012.006h0l.012.006h0l.011.006,0,0,.011.005h0l.012.006h0l.012.006h0l.012.006h0l.011.006h0l.012.006h0l.011.006,0,0,.01.005,0,0,.01,0,0,0,.01,0,0,0,.01,0,.005,0,.009,0,.006,0,.008,0,0,0,.009,0,.006,0,.008,0,.01.005,0,0,.012.006h0l.013.006h0l.128.064h0l.028.014h0l.013.007h0l.247.126-.459.888c-1.152-.6-2.346-1.142-3.549-1.624Zm7.1,3.667c.223.143.443.288.663.436h0l.026.018h0l.026.017h0l.025.017h0l.012.008h0l.012.008h0l.013.009h0l.012.008h0l.013.009h0l.012.008h0l.025.017h0l.024.016h0l.024.016h0l.025.017h0l.024.017h0l.01.007,0,0,.006,0,.007,0h0l.012.008.006,0,.043.029,0,0,.025.017h0l.025.017h0l.051.035h0l.1.071h0q1.026.714,2.007,1.487l-.619.786c-1.019-.8-2.088-1.566-3.178-2.267Zm6.275,4.943c.178.17.354.341.53.515h0l.022.022h0l.022.022h0l.011.011h0l.011.011h0l.011.01h0l.01.01h0l.01.01h0l.01.01h0l.01.01h0l.01.01,0,0,.01.01h0l.009.009,0,0,.009.009,0,0,.009.009,0,0,.009.009,0,0,.009.009,0,0,.009.009,0,0,.009.009,0,0,.009.009,0,0,.008.008,0,0,.008.008,0,0,.008.008,0,0,.008.008,0,0,.008.008,0,0,.008.008,0,0,.008.008,0,0,.008.008,0,0,.008.008,0,0,.007.007,0,0,.007.007,0,0,.007.007,0,0,.007.007,0,0,.007.007,0,0,.006.007,0,0,.007.007,0,0,.007.007,0,0,.006.006,0,0,.006.006.005.005.006.006,0,0,.006.006,0,0,.006.006,0,0,.006.006.005.005.006.006.005.005.006.006.006.006.005.005.006.006,0,0,.006.006.005.005.006.006,0,.005.006.006,0,0,.006.007,0,0,.007.007,0,0,.007.007,0,0,.007.007,0,0,.007.007,0,0,.008.008,0,0,.007.008,0,0,.008.008,0,0,.008.009,0,0,.009.009,0,0,.009.009,0,0,.009.009,0,0,.009.01h0l.01.01h0l.01.01h0l.01.01h0l.01.01h0l.01.011h0q.758.788,1.475,1.615l-.756.655c-.849-.98-1.756-1.93-2.694-2.826Zm5.232,6.036,0,0v0l.008.011,0,0,.007.01,0,0,.007.01,0,0,.007.01h0l.008.011v0l.008.011h0l.009.012h0l.036.051h0q.765,1.083,1.463,2.215h0l.008.013h0l.008.013h0l.008.013h0l.008.013h0l.008.013h0l.008.013h0l.008.013h0l.008.013h0l.008.012h0l.008.013h0l.008.013h0l.007.012v0l.007.012h0l.007.012v0l.007.012v0l.007.011,0,0,.007.011,0,0,.007.011v0l.007.012v0l.007.011v0l.007.011v0l.007.012v0l.007.012v0l.007.011v0l.007.012h0l.008.013h0l.008.013h0l.008.012h0l.007.012h0l.007.012h0l.007.012h0l.007.012v0l.008.013h0q.166.277.327.556l-.866.5c-.648-1.122-1.359-2.226-2.112-3.282Zm4,6.916q.829,1.813,1.486,3.712l-.945.327c-.423-1.225-.911-2.444-1.45-3.623Zm2.609,7.55v0l0,.011v0l0,.012v0l0,.012v0l0,.012v0l0,.013h0l0,.014h0l.035.15v0l0,.014h0l0,.014h0l0,.014v0l0,.013v0l0,.013v0l0,.013v0l0,.014h0l0,.013v0l0,.013h0l0,.014h0l.041.181h0l0,.014h0l0,.013v0l0,.012v0l0,.013v0l0,.013v0l0,.013v0l0,.013v0l0,.013v0l0,.013v0l0,.013v0l0,.013h0l.03.136h0l0,.014v0l0,.013v0l0,.013v0l0,.012v0l0,.011v0l0,.011v.005l0,.011v0l0,.011v0l0,.012v0l0,.012v0l0,.012v0l0,.013v0l0,.012v0l0,.013v0l.019.088v0l0,.012v0l0,.011v.005l0,.011v0l0,.01v.005l0,.01v.005l0,.01v.006l0,.01V33.4l0,.01v.006l0,.01v.006l0,.01v.006l0,.009v.006l0,.01v.006l0,.01V33.5l0,.01v.005l0,.01v0l0,.011v0l0,.012v0l0,.011,0,.009,0,.015V33.6l0,.009v.007l0,.008,0,.008,0,.008,0,.008,0,.008,0,.007,0,.008,0,.008v.007l0,.009V33.7l0,.009v.007l0,.008,0,.008,0,.008v.007l0,.009v.007l0,.009v.007l0,.009v.007l0,.009v.006l0,.01v.006l0,.01v.006l0,.01v.005l0,.013v0l0,.014v0l.012.064v0l0,.013v0l0,.012v0l0,.012v0l0,.012v0l0,.012v0l0,.011v.005l0,.011v0l0,.011v0l0,.011v0l0,.011v0l0,.012v0l0,.012v0l0,.013v0l0,.013v0l0,.016h0l.018.1h0l0,.015v0l0,.013v0l0,.013v0l0,.012v0l0,.012v0l0,.012v0l0,.012v0l0,.012v0l0,.012v0l0,.012v0l0,.012v0l0,.013v0l0,.014v0l0,.015h0l.02.113v0l0,.014v0l0,.014v0l0,.014v0l0,.013v0l0,.012v0l0,.012v0l0,.012v0l0,.012v0l0,.012v0l0,.013v0l0,.013v0l0,.013v0l0,.013v0l0,.015h0l.014.081h0l0,.015v0l0,.013v0l0,.012v0l0,.012v0l0,.011v.005l0,.011v0l0,.011v.005l0,.01v.006l0,.009v.007l0,.009V35.1l0,.01v.006l0,.009v.106l0,.02v.007l0,.009v.006l0,.01v.006l0,.01v.006l0,.01v.006l0,.011v0l0,.011v0l0,.011v0l0,.011v0l0,.011v0l0,.011v0l0,.011v0l0,.012v0l0,.013v0l0,.014h0l0,.014h0q.042.272.081.544l-.99.141c-.183-1.285-.429-2.575-.733-3.833Zm1.125,7.909c.007.141.012.282.018.424h0v.016h0v.016h0v.016h0l0,.05v.124q0,.045,0,.09h0v.015h0v.015h0v.015h0v.015h0q0,.17.008.34h0q0,.085,0,.17h0v.062h0q0,.046,0,.092h0V41.6c0,.018,0,.037,0,.055v.127s0,0,0,.009V41.8c0,.006,0,.008,0,.014v.084s0,0,0,.007v.009s0,0,0,.007,0,.006,0,.009,0,0,0,.007,0,.006,0,.009,0,0,0,.007v.016s0,.006,0,.011,0,0,0,.006V42h0v.016s0,0,0,.005,0,.007,0,.012v.006s0,.006,0,.011,0,0,0,.007v.01s0,0,0,.007,0,.007,0,.01,0,0,0,.007v.01s0,0,0,.007v.016s0,.007,0,.009v.007s0,.006,0,.009v.007s0,.007,0,.01v.04s0,.009,0,.013v0c0,.011,0,.022,0,.033v.424c0,.028,0,.056,0,.084h0V42.9h0c0,.034,0,.067,0,.1h0v.118c0,.045,0,.089,0,.134h0v.016h0v.1h0c0,.039,0,.078,0,.117h0v.116h0v.016h0l0,.084h0v.167h0l0,.05v.093l-1-.047C82.984,43.319,83,42.655,83,42s-.015-1.294-.045-1.934l1-.046Zm-1.369,7.838.99.142q-.285,1.994-.755,3.927l-.972-.235C82.153,50.432,82.4,49.142,82.585,47.858Zm-1.836,7.577.945.328c-.117.338-.239.675-.365,1.01h0l-.006.015h0l-.005.014h0l-.005.014h0l-.005.014h0l-.005.013v0l0,.012v0l0,.012v0l0,.012v0l0,.012v0l0,.011,0,0,0,.012v0l0,.012v0l0,.011v0l0,.01,0,0,0,.011v0l0,.01,0,0,0,.01,0,.005,0,.008,0,.007,0,.01,0,0,0,.01,0,.005v0l-.014.037v0l-.005.014h0l0,.013v0l-.005.013h0l0,.011,0,0,0,.01,0,0,0,.011v0l0,.012v0l0,.011v0l0,.012v0l0,.012v0l0,.013v0l0,.013v0l-.005.013h0l-.005.013v0l-.005.013h0l-.005.014h0l-.011.029h0q-.4,1-.84,1.982h0l-.026.056h0l-.023.051,0,.005-.909-.416C79.835,57.878,80.324,56.659,80.748,55.435ZM77.5,62.523l.865.5c-.191.33-.388.659-.588.983h0l-.008.013h0l-.008.013h0l-.008.013h0l-.008.012h0l-.007.012v0l-.007.012v0l-.007.012v0l-.007.011v0l-.007.011,0,0-.006.01,0,0-.006.01,0,0-.006.01,0,0-.006.01,0,0-.006.009,0,0-.005.009,0,.005,0,.008,0,.005-.005.008,0,.005-.005.008,0,.005-.005.008,0,.006,0,.008,0,.005-.005.008,0,.005L77.6,64.3l0,0-.005.008,0,.005,0,.008,0,.005,0,.008,0,.006,0,.008,0,.006,0,.007,0,.006,0,.007,0,.006,0,.007,0,.007,0,.006,0,.007,0,.006,0,.008,0,.005,0,.008,0,.005-.005.008,0,.005,0,.008,0,.005-.005.008,0,.005-.005.008,0,.005-.005.008,0,.005-.005.008,0,.005-.005.008,0,0-.006.009,0,0-.006.009,0,0-.006.009,0,0-.006.009,0,0-.006.01,0,0-.006.01,0,0-.006.01,0,0-.007.01h0l-.007.012,0,0-.007.011v0l-.007.011,0,0-.007.011h0l-.007.012v0l-.007.011h0l-.008.012h0q-.118.183-.238.364h0l-.008.012h0l-.007.011v0l-.007.011,0,0-.007.01,0,0-.007.011v0l-.007.011,0,0-.007.01,0,0-.007.01,0,0-.007.011v0L77,65.227l0,0-.007.01,0,0-.007.01,0,0-.007.01,0,0-.007.011,0,0-.007.01,0,0-.007.01,0,0-.006.009,0,0-.007.01,0,0-.006.01,0,0-.006.009,0,0-.006.009,0,0-.006.009,0,0-.006.009,0,0-.006.009,0,0-.006.009,0,0-.006.009,0,0-.006.009,0,0-.006.009,0,0-.006.009,0,0-.006.009,0,0-.006.009,0,0-.006.009,0,0-.005.008,0,0-.006.008,0,.005-.005.007,0,.006,0,.007,0,.006,0,.007,0,.006,0,.007,0,.006,0,.007,0,.007,0,.006,0,.007,0,.006,0,.007,0,.006-.005.007,0,.005-.005.008,0,0-.006.008,0,0-.005.008,0,.005-.006.009,0,0-.007.01,0,0-.007.011,0,0-.007.011,0,0-.009.012h0c-.145.21-.292.421-.44.628l-.814-.581C76.14,64.748,76.852,63.644,77.5,62.523Zm-4.532,6.346.755.656,0,.006,0,0-.006.007,0,0-.006.007,0,.006-.005.006-.005.006,0,.005-.006.007,0,0-.007.008,0,0-.007.008,0,0-.007.008,0,0-.008.009h0l-.01.011h0q-1.06,1.211-2.209,2.339h0l-.01.01h0l-.01.01h0l-.01.01h0l-.009.009,0,0-.009.009,0,0-.009.009,0,0-.009.009,0,0-.008.007,0,0-.007.007,0,0-.007.007,0,0-.007.007,0,0-.006.006-.006.005-.006.006-.006.005-.005.005-.006.006-.005.005-.006.006,0,0-.007.007,0,0-.007.007,0,0-.007.007,0,0-.007.007,0,0-.008.008,0,0-.008.008,0,0-.009.008,0,0-.009.009h0l-.01.01h0l-.011.01h0l-.011.011h0l-.151.145-.69-.724C71.212,70.8,72.119,69.848,72.969,68.869Zm-5.647,5.379.618.786,0,0-.008.006,0,0-.008.006,0,0-.008.006,0,0-.008.006,0,0-.008.007,0,0-.009.007,0,0-.009.007,0,0-.01.007,0,0-.022.017h0l-.024.019h0q-1.5,1.17-3.109,2.2l-.541-.841C65.232,75.812,66.3,75.05,67.322,74.248Zm-6.56,4.217.458.889-.327.167h0q-.341.172-.685.338h0q-1.289.621-2.625,1.156l-.371-.929C58.415,79.6,59.609,79.059,60.762,78.465Zm-7.239,2.894.281.96q-1.643.48-3.339.828h0l-.032.006h0l-.032.006h0l-.256.051h0l-.014,0h0l-.014,0h0l-.013,0h0l-.012,0-.016,0-.016,0-.016,0-.016,0-.016,0-.016,0-.016,0-.015,0-.016,0h0l-.013,0h0l-.187-.982C51,82.03,52.279,81.722,53.523,81.359ZM45.864,82.82l.093,1-.106.01h-.138l-.022,0h-.16l-.083.007h-.083q-1.124.089-2.264.119H43.05l-.136,0H42.83l-.085,0h-.783V83H42C43.288,83,44.589,82.94,45.864,82.82ZM34.2,82.259c1.271.245,2.571.431,3.864.555l-.095,1q-.5-.048-1-.107h0l-.016,0-.016,0-.016,0-.013,0h0l-.013,0h0l-.016,0-.016,0-.016,0-.015,0-.012,0h0l-.013,0h0l-.072-.009-.015,0-.015,0-.016,0-.016,0-.016,0-.016,0-.016,0-.016,0-.016,0-.016,0-.016,0-.016,0-.016,0-.016,0-.016,0-.032,0-.016,0-.016,0-.016,0-.016,0-.016,0-.016,0-.016,0-.016,0-.016,0-.016,0-.016,0-.016,0-.017,0-.017,0-.018,0-.017,0h0l-.049-.007-.016,0-.016,0-.016,0-.016,0-.016,0-.016,0-.016,0-.016,0-.016,0-.017,0-.017,0-.016,0-.017,0h0l-.065-.009-.016,0-.016,0-.016,0-.016,0-.016,0-.016,0-.016,0-.016,0-.016,0-.016,0-.016,0-.016,0-.016,0-.016,0-.017,0-.02,0-.017,0-.016,0-.016,0-.016,0-.016,0-.016,0-.016,0-.016,0-.016,0-.016,0-.016,0-.016,0-.016,0-.016,0h-.016l-.015,0-.014,0-.016,0-.021,0-.016,0-.014,0-.015,0h-.023l-.015,0-.016,0-.016,0-.016,0-.015,0-.016,0-.016,0-.016,0-.014,0-.011,0h0l-.012,0h0l-.014,0h0l-.058-.01-.016,0h0l-.013,0h0l-.016,0-.016,0-.015,0-.015,0-.012,0h0l-.016,0-.015,0-.015,0-.014,0h0l-.015,0h0q-.4-.069-.794-.145Zm-7.479-2.2c1.2.483,2.443.914,3.687,1.28l-.282.959-.361-.108h0l-.014,0h0l-.013,0h0l-.013,0h0l-.011,0h0l-.011,0-.015,0-.015,0-.015,0-.015,0-.015,0-.015,0-.01,0h0l-.011,0h0l-.011,0h0l-.013,0h0l-.03-.009h0q-1.264-.393-2.492-.863h0l-.059-.023h0l-.119-.046h0l-.014-.006h0l-.014-.006h0l-.013-.005,0,0-.01,0-.015-.006-.015-.006-.009,0-.006,0-.009,0-.005,0-.01,0-.005,0-.009,0-.006,0-.01,0,0,0-.01,0,0,0-.011,0h0l-.011,0h0l-.012,0h0l-.012,0h0l-.013,0h0l-.013,0h0l-.013-.005h0l-.014-.005h0l-.2-.08ZM19.8,76.473c1.09.7,2.226,1.362,3.376,1.958l-.46.888c-.2-.1-.4-.207-.592-.313h0l-.027-.015h0l-.013-.007h0l-.013-.007h0l-.026-.014h0l-.013-.007h0l-.011-.006h0l-.013-.007h0l-.011-.006,0,0-.111-.06,0,0-.011-.006h0l-.012-.007h0l-.011-.006h0l-.012-.006-.006,0-.008,0-.005,0-.008,0-.006,0-.007,0-.008,0-.005,0-.009,0-.005,0-.007,0-.007,0-.006,0-.008,0-.007,0-.006,0-.008,0-.006,0-.007,0-.007,0-.007,0-.007,0-.008,0-.006,0-.008,0-.006,0-.008,0-.006,0-.007,0-.007,0-.007,0-.006,0-.008,0-.006,0-.008,0-.005,0-.008,0-.006,0-.008,0-.005,0-.009,0-.005,0-.008,0-.006,0-.008,0-.006,0-.008,0-.006,0-.008,0-.006,0-.008,0-.006,0-.008,0-.006,0-.008,0-.006,0-.008,0-.006,0-.008,0-.006,0-.007,0-.007,0-.007,0-.006,0-.008,0-.006,0-.008,0-.006,0-.008,0-.006,0-.008,0-.006,0-.008,0-.006,0-.008,0-.006,0-.007,0-.007,0-.007,0-.006,0-.008,0-.006,0-.008,0-.006,0-.007,0-.006,0-.008,0-.006,0-.008,0-.006,0-.008,0-.007,0-.007,0-.007,0-.007,0-.006,0-.007,0-.006,0-.007,0-.007,0-.007,0-.007,0-.007,0-.005,0-.008,0-.005,0-.008,0-.007,0-.007,0-.008,0-.006,0-.007,0-.007,0-.007,0-.006,0-.011-.006,0,0L21,78.381h0l-.01-.006,0,0-.1-.056h0l-.013-.007,0,0-.01-.006,0,0-.011-.006h0l-.012-.007h0l-.012-.007,0,0-.011-.007h0l-.012-.007h0l-.011-.007h0l-.011-.006,0,0-.011-.006h0l-.012-.007h0l-.012-.007h0l-.011-.007,0,0L20.7,78.2l0,0-.011-.007,0,0-.011-.007,0,0-.011-.006,0,0-.01-.006,0,0-.011-.006,0,0-.011-.006h0l-.011-.007,0,0-.011-.007h0l-.012-.007h0l-.012-.007h0l-.012-.007h0l-.012-.007h0L20.52,78.1h0l-.013-.008h0l-.013-.008h0l-.013-.008h0l-.013-.008h0l-.013-.008h0l-.012-.007h0l-.013-.008h0l-.013-.008h0l-.013-.008h0l-.013-.008h0q-.572-.344-1.13-.7Zm-6.122-4.831c.938.9,1.929,1.758,2.947,2.561l-.62.785-.079-.063h0l-.024-.019h0l-.012-.009h0l-.011-.009h0l-.011-.009h0l-.011-.009h0l-.011-.008h0l-.011-.008,0,0-.011-.009h0l-.011-.009,0,0-.01-.008,0,0-.01-.008,0,0-.009-.007,0,0-.01-.008,0,0-.009-.008,0,0-.009-.007,0,0-.009-.007,0,0-.009-.007,0,0-.008-.007,0,0-.007-.006-.005,0-.007-.006,0,0-.008-.007,0,0-.008-.007,0,0-.008-.007,0,0-.008-.007,0,0-.009-.007,0,0-.008-.006,0,0-.007-.006-.006,0-.007-.005-.005,0-.007-.006,0,0-.007-.006-.005,0-.007-.005-.006,0L15.52,74.6l-.005,0-.007-.005-.006,0-.006,0-.006-.005-.005,0-.007-.006,0,0-.007-.006-.006,0-.006-.005-.005,0-.007-.005-.005,0-.007-.006-.005,0-.006-.005-.006,0-.006-.005,0,0-.007-.006,0,0-.008-.007,0,0-.009-.007,0,0-.009-.007,0,0-.009-.008,0,0-.009-.008h0l-.01-.008,0,0-.01-.008h0l-.084-.069h0l-.19-.158h0l-.012-.01h0l-.035-.029h0l-.023-.019h0l-.012-.01h0l-.01-.008,0,0-.01-.008,0,0-.01-.008,0,0-.011-.009h0l-.01-.008,0,0-.009-.008,0,0-.009-.007,0,0-.008-.007,0,0-.008-.007,0,0-.008-.006,0,0-.008-.006,0,0-.008-.007,0,0L14.795,74l0,0-.008-.007,0,0-.007-.006,0,0-.007-.006,0,0-.007-.006,0,0-.007-.006,0,0-.007-.006,0,0-.007-.006,0,0-.007-.006,0,0-.007-.006,0,0-.007-.006-.005,0-.007-.006-.005,0-.006-.005-.006-.005-.006-.005-.006,0-.006-.005-.006-.005-.006-.005-.006,0-.006-.005-.006-.005-.006,0-.006-.005-.006,0-.006-.006-.005,0-.006-.006-.005,0-.007-.006,0,0-.007-.006-.005,0-.007-.006-.005,0-.006-.006-.005,0L14.5,73.75l0,0-.007-.006,0,0-.008-.007,0,0-.008-.007,0,0-.008-.007,0,0-.009-.007,0,0-.009-.007,0,0-.009-.007,0,0-.009-.008,0,0-.009-.008,0,0-.009-.008,0,0-.009-.008,0,0-.009-.008,0,0-.01-.008,0,0-.009-.008,0,0-.009-.008,0,0-.01-.009,0,0-.01-.009h0l-.011-.009h0l-.011-.01h0l-.011-.01h0l-.012-.01h0l-.012-.01h0l-.011-.01h0q-.635-.56-1.246-1.145Zm-5.1-5.9c.751,1.056,1.563,2.089,2.412,3.07l-.756.654q-.367-.425-.724-.859h0l-.01-.012h0l-.01-.012h0l-.019-.024h0l-.019-.023h0l-.009-.012h0l-.009-.011h0L9.414,68.5h0L9.4,68.488h0l-.01-.012h0l-.009-.011h0l-.009-.012h0l-.009-.011h0l-.019-.024h0l-.019-.024h0l-.02-.024h0l-.039-.049h0q-.784-.973-1.51-1.993Zm-3.9-6.754c.537,1.179,1.139,2.346,1.787,3.47l-.866.5Q4.809,61.6,4.124,60.171h0l-.006-.013h0l-.006-.013v0L4.1,60.129v0L4.1,60.116v0L4.09,60.1v0l-.005-.011,0,0-.005-.011,0,0L4.07,60.06l0,0-.005-.011,0,0-.005-.011,0,0,0-.01,0,0,0-.01,0,0,0-.01,0,0,0-.01,0,0,0-.009,0-.005,0-.009,0-.006,0-.008,0-.006,0-.008,0-.007L4,59.9l0-.007,0-.007,0-.007,0-.007,0-.007,0-.007,0-.008,0-.006,0-.008,0-.006,0-.008,0-.006,0-.008,0-.006,0-.009,0-.005,0-.01,0,0,0-.01,0,0,0-.011,0,0-.006-.012v0L3.91,59.72h0q-.073-.157-.145-.315Zm-2.54-7.371c.3,1.261.671,2.521,1.093,3.746l-.945.326q-.421-1.221-.767-2.474h0l0-.014v0l0-.012v0l0-.011v-.005l0-.01,0-.007,0-.008,0-.007,0-.008,0-.009,0-.007,0-.009,0-.007,0-.009,0-.006,0-.009,0-.006,0-.009,0-.006,0-.01v0l0-.011v0l0-.012v0l0-.013h0l0-.014h0q-.151-.559-.287-1.124ZM1.043,43.9c.059,1.3.181,2.606.362,3.887l-.99.14c-.039-.278-.076-.558-.11-.838h0l0-.016h0l0-.016h0l-.017-.148h0l0-.015v0l0-.014v0l0-.013v-.1l0-.014v0l-.005-.049v-.2l0-.039v-.175L.2,46.135h0v-.077h0v-.015h0q-.1-1.042-.148-2.1ZM.431,35.963l.99.142c-.184,1.281-.31,2.588-.372,3.886l-1-.048Q.147,37.927.431,35.963ZM2.319,28.2l.945.328c-.426,1.224-.8,2.484-1.1,3.743l-.972-.236Q1.664,30.082,2.319,28.2Zm3.333-7.259.865.5c-.651,1.122-1.256,2.288-1.8,3.465l-.909-.417c.09-.2.181-.391.275-.586h0l.006-.013h0l.006-.014h0l.006-.013h0l.006-.013v0l.006-.012v0l.006-.012v0l.006-.012v0l.005-.011,0,0,.005-.011v0l.006-.012v0l.006-.012v0l.006-.011v0l.006-.011v0l.006-.011v0l.006-.012v0l.005-.011,0,0,.005-.011v0l.006-.011v0l.006-.012v0l.006-.012v0l.006-.012v0l.006-.012v0l.006-.012v0l.005-.011,0,0,.005-.011v0l.006-.012v0l.006-.012v0l.006-.011v0l.006-.013h0l.007-.013h0l.014-.028h0l.056-.114v0l.013-.026v0l.006-.012,0,0,.005-.011,0,0,.005-.01,0,0,.005-.01,0,0,0-.01,0-.006,0-.008,0-.006,0-.008,0-.006,0-.009,0,0,0-.009,0,0,0-.009,0-.006,0-.008,0-.005,0-.009,0-.005,0-.009,0-.006,0-.007,0-.007,0-.007,0-.007,0-.007,0-.007,0-.007,0-.007,0-.007,0-.007,0-.007,0-.007,0-.007,0-.007,0-.006,0-.008,0-.006,0-.008,0-.006,0-.008,0-.006,0-.008,0-.006,0-.008,0-.006,0-.008,0-.006,0-.008,0-.007,0-.008,0-.006,0-.008,0-.005,0-.009,0-.005,0-.009,0-.006,0-.009,0-.005,0-.009,0-.006,0-.009,0-.005,0-.008,0-.006,0-.008,0-.005,0-.008,0-.005,0-.009,0,0,0-.009,0-.006,0-.009,0,0,0-.009,0-.005,0-.009,0-.006,0-.008,0-.006,0-.008,0,0,.005-.01,0,0,.006-.011v0l.006-.011,0,0,.006-.011v0l.006-.012h0l.014-.027h0l.058-.11h0l.029-.055h0l.007-.013h0l.006-.012v0l.006-.012v0l.006-.011v0l.006-.011v0l.006-.011v0l.006-.012v0l.006-.011,0,0,.006-.011v0l.006-.011,0,0,.006-.011,0,0,.006-.01,0,0,.006-.011,0,0,.006-.011v0l.006-.011v0l.006-.011,0,0,.006-.011v0l.006-.011,0,0,.006-.011v0l.006-.011,0,0,.006-.01,0,0L5,22.114v0L5,22.1v0l.006-.012v0l.006-.011v0l.006-.012v0l.006-.012v0l.006-.012v0l.006-.011v0L5.056,22v0l.006-.012h0l.007-.012h0l.007-.013h0l.007-.013h0l.007-.013h0l.007-.013h0l.007-.013h0l.007-.013h0q.112-.2.226-.408h0l.007-.012h0l.007-.012h0l.007-.013h0l.007-.012h0l.007-.013h0l.007-.012h0L5.4,21.39v0l.006-.011v0l.007-.012v0l.007-.012h0l.007-.013h0l.007-.012h0l.007-.012h0l.007-.013h0l.007-.013h0l.007-.012v0l.007-.012h0l.007-.013h0l.007-.013h0l.007-.013h0l.015-.026h0l.007-.013h0l.007-.013h0l.015-.026h0Zm4.648-6.5.754.656c-.851.979-1.666,2.009-2.42,3.063l-.813-.582Q8.987,15.956,10.3,14.447Zm5.789-5.5.617.787c-1.02.8-2.013,1.659-2.953,2.553l-.689-.725q.351-.334.709-.659h0l.011-.01,0,0,.009-.009,0,0,.008-.008,0,0,.009-.008,0,0,.008-.007,0,0,.007-.007,0,0,.007-.007,0,0,.007-.006.007-.006.005,0,.009-.008,0,0,.009-.008,0,0,.011-.01h0l.011-.01h0q.667-.6,1.36-1.172h0l.048-.039h0l.012-.01h0l.011-.009h0l.011-.009h0l.009-.007,0,0L15.39,9.5l0,0,.008-.007,0,0,.007-.006.005,0,0,0,.009-.007h0Q15.758,9.2,16.09,8.942Zm6.723-4.313.457.889c-1.152.593-2.29,1.248-3.382,1.949l-.54-.842q.407-.261.82-.513h0l.012-.008,0,0,.01-.006.005,0,.008-.005,0,0,.01-.006.006,0,.007,0q1.022-.62,2.081-1.183h0l.014-.007h0l.013-.007h0l.012-.006h0l.011-.006,0,0,.011-.006,0,0,.01-.005.005,0,.009,0,.006,0,.008,0,.007,0,.007,0,.007,0,.007,0,.008,0,.006,0,.008,0,.006,0,.009,0,0,0,.009,0,0,0,.01-.005,0,0,.011-.006,0,0,.011-.006h0l.011-.006h0l.012-.006h0l.012-.006h0l.013-.007h0l.013-.007h0Zm7.42-2.958.28.96c-1.244.362-2.486.79-3.69,1.27l-.37-.929q1.676-.668,3.42-1.194h0l.03-.009h0l.015,0h0l.015,0h0l.014,0h0l.015,0h0l.014,0h0l.134-.04h0L30.14,1.7h0l.011,0h0l.016,0,.015,0,.008,0,.007,0,.015,0ZM38.08.18l.092,1c-1.293.12-2.594.3-3.865.544L34.121.738l.013,0,.016,0,.016,0,.016,0,.016,0,.016,0h0L34.27.71l.015,0h0L34.3.7l.016,0,.016,0,.016,0,.016,0,.016,0,.016,0,.016,0,.016,0,.009,0h.007l.009,0h.007l.009,0h.007l.016,0,.016,0,.018,0,.02,0,.015,0,.016,0,.016,0,.016,0,.016,0,.016,0,.016,0,.016,0,.016,0,.017,0,.017,0,.016,0,.017,0,.018,0h0l.1-.017.016,0L34.9.6l.016,0,.016,0,.016,0,.016,0,.016,0L35,.58l.016,0h0q1.492-.25,3.018-.393h0l.017,0,.017,0Z" transform="translate(1055 13627)"/><text class="c" transform="translate(1097 13664.5)"><tspan x="-24.305" y="0">TOP</tspan><tspan class="d" y="0">へ</tspan><tspan y="0"></tspan><tspan class="d"><tspan x="-16" y="24">戻る</tspan></tspan></text></g></svg>