<svg xmlns="http://www.w3.org/2000/svg" xmlns:xlink="http://www.w3.org/1999/xlink" width="199" height="139.226" viewBox="0 0 199 139.226"><defs><style>.a{fill:#fff;}.b{fill:#42290b;}.c{fill:#7ac1d4;}.d{filter:url(#a);}</style><filter id="a" x="0" y="0" width="199" height="139.226" filterUnits="userSpaceOnUse"><feOffset dy="3" input="SourceAlpha"/><feGaussianBlur stdDeviation="3" result="b"/><feFlood flood-opacity="0.161"/><feComposite operator="in" in2="b"/><feComposite in="SourceGraphic"/></filter></defs><g transform="translate(15246.122 -5708.285)"><g class="d" transform="matrix(1, 0, 0, 1, -15246.12, 5708.28)"><path class="a" d="M-472.088,3097.457c3.355-31.142,46.5-50.73,96.368-43.754s87.574,37.876,84.216,69.017c-3.228,29.96-43.3,49.218-90.738,44.419l-26.03,6.379,2.832-10.608C-446.284,3151.984-475.038,3124.816-472.088,3097.457Z" transform="translate(481.3 -3046.29)"/></g><path class="b" d="M-25.85-6.468a6.614,6.614,0,0,1-1.98,2.024,9.785,9.785,0,0,1-.594-2.046l3.41-.374c.748-.066,1.408-.11,1.848-.11h.242l-.22-2.2a14.466,14.466,0,0,1-2,.308l-3.608.352c-.044-.374-.088-.66-.176-1.43l2.772-.264a16.657,16.657,0,0,1,1.826-.132h.264l-.176-2.156a11.256,11.256,0,0,1-2.09.308l-2.772.264c-.066-.66-.066-.726-.088-1.364l3.256-.286a17.089,17.089,0,0,1,1.8-.132h.264l-.2-2.178a12.56,12.56,0,0,1-1.98.308h-.11l1.32-1.078a10.825,10.825,0,0,0-2.486-1.87l-1.518,1.1a11.193,11.193,0,0,1,2.31,1.892l-2.75.242c-.022-.55-.044-1.562-.044-1.76a8.413,8.413,0,0,1,.088-1.342l-2.662.022a5.145,5.145,0,0,1,.154,1.078c.044,1.012.044,1.012.132,2.222l-1.21.11c-.66.066-1.188.11-1.584.11a3.819,3.819,0,0,1-.4-.022l.2,2.09a.748.748,0,0,0,.22.022c.022,0,.11-.022.286-.044.242-.044.836-.132,1.408-.176l1.21-.11c.022.308.022.4.044.792a3.5,3.5,0,0,1,.044.594l-1.21.11a13.2,13.2,0,0,1-1.43.088h-.308l.2,2.156a13.822,13.822,0,0,1,1.694-.264l1.254-.11c.11.836.11.836.2,1.43l-2.046.22c-.9.066-1.122.088-1.628.088h-.4l.2,2.266c.572-.11,1.21-.22,2-.308l2.2-.22a15.757,15.757,0,0,0,.924,3.08,21.721,21.721,0,0,1-6.776,2.6,8.58,8.58,0,0,1,1.276,2.134,26.617,26.617,0,0,0,6.512-2.816c1.166,1.8,2.618,2.882,3.894,2.882,1.408,0,2.024-1.1,2.376-4.158a10.423,10.423,0,0,1-1.892-1.254c-.132,2.288-.286,2.9-.748,2.9-.4,0-1.1-.682-1.782-1.672a20.139,20.139,0,0,0,2.178-1.98l.7-.7ZM-40.568-7.26A16.863,16.863,0,0,1-38.7-5.368,12.466,12.466,0,0,1-43.1-.044a9.055,9.055,0,0,1,1.606,1.936A19.915,19.915,0,0,0-39.6.154a15.619,15.619,0,0,0,2.266-3.3A21.756,21.756,0,0,0-35.2-10.56c.154-1.408.22-2,.308-2.508a12.984,12.984,0,0,1-1.826.088h-1.958a19.275,19.275,0,0,0,.418-2.376h2.508a14.069,14.069,0,0,1,1.65.088v-2.31a23.036,23.036,0,0,1-2.332.11h-4a20.56,20.56,0,0,1-2.288-.11v2.332a10.3,10.3,0,0,1,1.76-.11h.506a14.189,14.189,0,0,1-.55,2.816,10.526,10.526,0,0,1-2.464,4.532,5.7,5.7,0,0,1,1.364,2A13.412,13.412,0,0,0-39.27-11h2.024a24.876,24.876,0,0,1-.682,3.476A19.189,19.189,0,0,0-39.49-8.932Zm23.584-10.868a5.171,5.171,0,0,1-.066.748l-.33,2.728c-.176,1.518-.308,3.96-.308,5.742,0,.44.044,2.068.066,2.706v.418a1.71,1.71,0,0,1-.022.286L-15-5.544v-.462a10.548,10.548,0,0,1,2.772-7.106,3.274,3.274,0,0,1,2.376-1.166c1.892,0,2.948,1.76,2.948,4.928,0,3.344-1.166,5.434-3.718,6.732a12.842,12.842,0,0,1-4.818,1.254,8.415,8.415,0,0,1,1.3,2.6A18.762,18.762,0,0,0-9.834,0,9.247,9.247,0,0,0-4.158-9.042a9.213,9.213,0,0,0-1.584-5.852A4.607,4.607,0,0,0-9.5-16.874a5.252,5.252,0,0,0-4.18,2.244,8.894,8.894,0,0,0-1.386,2.618,4.83,4.83,0,0,1-.132.484h-.066c.044-.528.132-1.276.286-2.2a21.58,21.58,0,0,1,.792-4.246ZM12.1-11v-4.84a15.154,15.154,0,0,1,.154-2.684H9.416a22.578,22.578,0,0,1,.132,2.706V-11H4.642a20.61,20.61,0,0,1-2.6-.132v2.42a20.61,20.61,0,0,1,2.6-.132H9.548v2.882H3.7a19.73,19.73,0,0,1-2.64-.132v2.442A20.188,20.188,0,0,1,3.7-3.784H9.548V-.968A20.506,20.506,0,0,1,9.394,1.8h2.86A19.25,19.25,0,0,1,12.1-.924v-2.86h6.226a20.188,20.188,0,0,1,2.64.132V-6.094a19.135,19.135,0,0,1-2.618.132H12.1V-8.844h5.324A20.227,20.227,0,0,1,20-8.712v-2.42A19.067,19.067,0,0,1,17.424-11ZM2.266-16.588A25.065,25.065,0,0,1,5.72-11.44l2.156-1.232A28.722,28.722,0,0,0,4.51-17.71Zm14.608-1.166a21.8,21.8,0,0,1-3.234,5.17l2.09,1.166a29.87,29.87,0,0,0,3.432-5.236Zm13.09,9.042a10.935,10.935,0,0,1-.132,1.276A8.512,8.512,0,0,1,26.95-2.42,10.381,10.381,0,0,1,23.54-.4,7.808,7.808,0,0,1,25.146,1.76a12.743,12.743,0,0,0,5.588-4.84A11.705,11.705,0,0,0,32.45-8.712h4.224v1.276a21.613,21.613,0,0,1-.682,5.852c-.2.33-.44.418-1.254.418a18.085,18.085,0,0,1-2.662-.286,9.449,9.449,0,0,1,.66,2.574c1.474.066,1.826.088,2.266.088,1.958,0,2.75-.308,3.234-1.276.55-1.166.924-4.642.924-9.2v-.748A22.434,22.434,0,0,0,41.888-7.7a10.243,10.243,0,0,1,1.672-2.376,17.061,17.061,0,0,1-6.094-6.38,8.223,8.223,0,0,1-.858-1.914l-2.442.946a9.024,9.024,0,0,1,.462.924,22,22,0,0,0,3.63,5.522c-.528.022-.836.022-1.364.022H28.8A11.371,11.371,0,0,1,27.654-11,24.469,24.469,0,0,0,31.2-16.346a6.221,6.221,0,0,1,.594-1.122l-2.64-.946a6.839,6.839,0,0,1-.88,2.222,16.962,16.962,0,0,1-5.786,6.314,7.649,7.649,0,0,1,1.694,2.156,21.87,21.87,0,0,0,2.75-2.442V-8.6a15.288,15.288,0,0,1,1.87-.11ZM-42.46,18.106c-.044,2.112-.088,2.794-.2,3.96a15.339,15.339,0,0,1-2.288,7.326,10.115,10.115,0,0,1-4.048,3.5,7.983,7.983,0,0,1,1.958,1.848,11.829,11.829,0,0,0,2.882-2.464,14.472,14.472,0,0,0,2.882-5.082c.792-2.442,1.1-4.554,1.254-9.086h3.256c-.066,4.422-.066,4.422-.176,6.226A42.777,42.777,0,0,1-37.51,29.7c-.352,2.024-.55,2.266-1.848,2.266a17.828,17.828,0,0,1-2.376-.242,8.852,8.852,0,0,1,.55,2.442c.594.044,1.672.088,2.2.088,1.8,0,2.794-.528,3.256-1.694C-35.112,31-34.672,27.3-34.5,22.242c.154-4.95.154-5.236.264-6.424a21,21,0,0,1-2.266.088h-7.15a23.654,23.654,0,0,1-2.86-.132v2.42a12.984,12.984,0,0,1,1.826-.088Zm-9.548,4.62v5.808c0,1.628.484,2.046,2.4,2.046a4.97,4.97,0,0,0,3.146-.7c.814-.682,1.078-1.672,1.254-4.488a9.518,9.518,0,0,1-2.156-.836,12.841,12.841,0,0,1-.308,3.278c-.176.352-.55.506-1.3.506-.572,0-.66-.066-.66-.55V22.22l3.168-.638a15.046,15.046,0,0,1,1.606-.264l-.154-2.376a12.646,12.646,0,0,1-1.54.4l-3.08.638V16.7a10.648,10.648,0,0,1,.11-1.958h-2.6a12.994,12.994,0,0,1,.11,2.112v3.63l-.88.176a7.567,7.567,0,0,1-1.628.22l.176,2.4a15.776,15.776,0,0,1,1.694-.44Zm22.726,2.9a13.9,13.9,0,0,1,2.552-.748,24.654,24.654,0,0,1,5.786-.858c2.332,0,3.608.924,3.608,2.64a3.534,3.534,0,0,1-1.562,2.97,7.759,7.759,0,0,1-3.674,1.5,19.387,19.387,0,0,1-3.124.33h-.33a6.955,6.955,0,0,1,.946,2.508,21.628,21.628,0,0,0,4.774-.836c3.5-1.1,5.566-3.476,5.566-6.4a4.99,4.99,0,0,0-.814-2.838c-.99-1.518-2.684-2.244-5.192-2.244a31.083,31.083,0,0,0-6.8.924,11.728,11.728,0,0,1-2.288.418Zm20.328-4.686a3.285,3.285,0,0,1,.418-.022c.176,0,.484,0,.88.022.374.022.594.022.7.022h1.276a1.863,1.863,0,0,0,.286-.022A47,47,0,0,1-9.328,32.78l2.772,1.078a74.588,74.588,0,0,0,2.464-7.282c.572-2,1.122-4.334,1.364-5.7A29.991,29.991,0,0,0,.88,20.416c.528-.088.528-.088.7-.11l-.11-2.53a18.259,18.259,0,0,1-3.762.66c.088-.506.11-.638.22-1.254A12.5,12.5,0,0,1-1.65,15.07l-2.9-.264a2.985,2.985,0,0,1,.022.4,26.7,26.7,0,0,1-.418,3.366c-.506.022-.748.022-1.012.022a17.5,17.5,0,0,1-2.948-.2Zm17.446.484c-1.386-.022-1.584-.022-2.178-.022a28.233,28.233,0,0,0-6.556.7l.2,2.42a23.743,23.743,0,0,1,5.808-.638,22.9,22.9,0,0,1,2.772.154Zm-8.668,4.62C-1.386,27.7-1.8,28.688-1.8,29.854A3.179,3.179,0,0,0-.242,32.56a8.933,8.933,0,0,0,4.422.88,25.6,25.6,0,0,0,4.092-.352c.506-.088.682-.11,1.078-.154l-.2-2.706a16.837,16.837,0,0,1-4.994.814c-2.2,0-3.3-.572-3.3-1.694A3.65,3.65,0,0,1,2,26.928Zm20.57-11.154a12.984,12.984,0,0,1,.11,1.936c.022,2.75.22,8.756.308,9.548a.494.494,0,0,0,.022.22,8.136,8.136,0,0,0-2.046-.22c-3.168,0-5.434,1.65-5.434,3.938a3.967,3.967,0,0,0,.55,1.958c.814,1.254,2.376,1.892,4.62,1.892,3.278,0,5.016-1.3,5.016-3.762a5.123,5.123,0,0,0-.044-.7c.242.154.418.242.7.4a13.852,13.852,0,0,1,2.9,1.8,8.674,8.674,0,0,1,1.562,1.452l1.716-2.486c-.264-.154-.374-.242-.66-.44a29.6,29.6,0,0,0-2.838-1.87,16.244,16.244,0,0,0-3.432-1.5c-.154-2.156-.2-3.146-.242-4.862a47.433,47.433,0,0,0,5.17-.4c.99-.11.99-.11,1.43-.132l-.22-2.662a23.787,23.787,0,0,1-6.446.748c-.022-1.056-.022-1.122-.022-1.43a25.036,25.036,0,0,1,.154-3.41Zm.484,14.08c0,.022.022.638.022,1.034a1.546,1.546,0,0,1-.462,1.232,3.145,3.145,0,0,1-2,.594,3.935,3.935,0,0,1-1.606-.33,1.2,1.2,0,0,1-.748-1.144c0-.968,1.1-1.628,2.75-1.628A7.14,7.14,0,0,1,20.878,28.974Zm24.42-.4a7.857,7.857,0,0,1-.044-.924c0-.308,0-.308.044-1.584l.308-7.48c.044-.946.132-2.09.2-2.684H42.2c.088.616.154,1.716.2,2.684l.308,7.48c.066,1.32.066,1.32.066,1.562,0,.264-.022.484-.044.946Zm.308,4.818V30.382h-3.19V33.4Z" transform="translate(-15141.678 5761.677) rotate(9)"/><path class="c" d="M78.928,1.521c.878,0,1.752.008,2.638.025h.1l.1,0H81.8c.379.008.753.017,1.131.028l-.029,1c-.449-.013-.9-.024-1.353-.032-.882-.017-1.739-.025-2.619-.025v-1Zm8,.23c1.337.077,2.67.173,3.99.288l-.087,1c-1.31-.114-2.642-.21-3.961-.286l.058-1Zm7.969.693c1.334.156,2.653.33,3.966.523l-.146.989c-1.3-.191-2.623-.366-3.936-.519l.116-.993Zm7.913,1.166q1.983.354,3.926.765l-.207.978c-1.283-.271-2.593-.526-3.9-.759Zm7.826,1.654q.642.157,1.279.321h0l.025.006.008,0,.021.005.011,0,.019,0,.012,0,.016,0,.016,0,.013,0,.018,0,.01,0,.02.005.01,0,.02.005.009,0,.021.006.007,0,.024.006h0l.026.007h0q1.146.3,2.273.614l-.27.963c-1.26-.354-2.55-.693-3.836-1.008Zm7.7,2.163q1.924.612,3.79,1.281l-.337.941c-1.229-.44-2.493-.868-3.756-1.269Zm7.531,2.7.365.147h0l.025.01h0l.025.01h0l.128.052h0l.022.009.005,0,.021.009.006,0,.019.008.009,0,.019.008.006,0,.071.029h0l.019.008.008,0,.017.007.011,0,.016.007.01,0,.016.007.012,0,.016.007.01,0,.017.007.01,0,.017.007,0,0,.038.016.01,0,.014.006.013.006.013.005.015.006.011,0,.017.007.011,0,.017.007.01,0,.018.007.011,0,.023.009,0,0,.028.012.005,0,.023.01.006,0,.022.009.007,0,.022.009.006,0,.022.009.007,0,.023.01,0,0,.172.072h0l.028.012h0q1.1.461,2.168.941l-.409.913c-1.188-.532-2.414-1.053-3.645-1.547Zm7.3,3.274q1.812.905,3.538,1.868l-.487.873c-1.133-.632-2.31-1.253-3.5-1.847Zm6.982,3.9.012.007h0q1.716,1.069,3.328,2.2l-.573.82c-1.059-.74-2.168-1.471-3.3-2.174l.529-.849Zm6.552,4.585q.374.295.741.592h0l.047.039,0,0,.02.017,0,0,.047.038,0,0,.019.016.005,0,.021.018h0l.022.018.006.005.016.013.008.006.015.013.007.006.021.017.008.006.013.011.01.008.014.011.008.007.02.016.011.009.01.008.011.009.01.008.021.018.009.007.013.011.007.006.014.012.006.005.049.04,0,0,.016.013,0,0q.924.766,1.8,1.551l-.668.745c-.956-.857-1.97-1.709-3.014-2.532Zm5.946,5.345.014.014,0,0,.012.013.006.006.04.041.006.007.011.012.008.008.019.02.007.008.011.012.007.007.023.024,0,0,.011.012.008.008.011.011.009.009.017.017.009.01.01.011.009.009.014.015.012.013.009.01.009.01.01.01.012.013.013.014.01.01.01.01.009.01.014.015.011.012.009.01.01.011.009.009.017.018.008.009.011.011.008.009.013.014.009.01.014.015.008.009.011.012.007.008.018.019.006.007.013.014.007.007.018.02,0,0,.017.018.007.008.014.014.006.006.018.02.006.006.014.015.006.006.019.02,0,0,.016.017.005.006.017.018,0,0,.019.021,0,0,.016.017,0,0,.02.021h0l.019.02,0,0,.04.043,0,0,.019.02h0l.021.023h0l.02.022h0l.042.046h0l.063.069h0q.846.927,1.63,1.875l-.771.637c-.813-.984-1.692-1.967-2.615-2.92l.719-.7Zm5.077,6.17q.328.479.642.963v0l.01.015v0l.021.033,0,0,.008.013,0,0,.02.031,0,.006.006.01,0,.007.006.009.008.013,0,.008.005.008,0,.007.006.009,0,0,.014.022h0l.007.012,0,0,.033.051h0q.681,1.072,1.282,2.166l-.877.481c-.611-1.114-1.3-2.23-2.047-3.319l.825-.566Zm3.828,7.007.006.014h0l.005.013v0l.005.013h0l.017.042v0l.005.013v0l.005.013v0l.017.041v0l.005.013v0l.017.042h0l.005.012v0l.005.013h0l.017.042h0l.006.014h0l.023.057h0l.005.014h0l.022.056v0l.005.013v0l.017.042h0l.005.013v0l.005.013h0l.017.042h0l.005.013v0l.022.056v0l.005.013v0l.016.042h0l0,.013v0l0,.013h0l.017.043h0l.005.013v0l.005.013h0l.016.042v0l0,.013v0l.021.056v0l0,.013v0l.021.055v0l0,.013h0l.016.042v0l0,.013v0l.021.056v0l0,.013v0l.021.056h0l.026.072v0l.005.014h0l.016.044h0l0,.014v0l.02.055v0l0,.013v0l.02.057h0l.021.058h0l0,.014v0l.02.056v0l0,.013v0l0,.013h0l.015.042v0l0,.013v0l.014.041h0l0,.012,0,0,0,.012v0l.014.039v0l0,.012v0l0,.012v0l.009.026h0l0,.011,0,.005,0,.011,0,.005,0,.011v0l.009.026v0l0,.012,0,.005,0,.011,0,.005,0,.011v0l.008.025v0l0,.012,0,0,0,.011,0,.005.013.037v0l0,.011,0,.006,0,.01,0,.006.007.022v0l0,.01,0,.006,0,.01,0,.006,0,.01,0,.007.006.017,0,.008,0,.009,0,.007,0,.01,0,.008,0,.009.005.015,0,.008,0,.009,0,.008,0,.009,0,.008,0,.011,0,.006.005.016,0,.008,0,.009,0,.009,0,.008,0,.009,0,.009,0,.014,0,.01,0,.008,0,.009,0,.007,0,.01,0,.008,0,.014,0,.007,0,.011,0,.007,0,.01,0,.007,0,.01,0,.007.005.016,0,0,0,.013,0,.006,0,.011,0,.006,0,.013,0,0,.005.017,0,0,0,.012,0,.006,0,.012,0,.005.005.016h0l.005.017,0,0,0,.013,0,.005,0,.014v0l.006.018h0l.005.017v0l0,.015v0l.011.036h0l.005.017v0l0,.016v0l.011.036h0l.005.018h0l.005.018h0l.011.037h0l.005.017h0l.017.056h0l.023.075h0q.092.309.178.62l-.964.266a32.04,32.04,0,0,0-1.26-3.665ZM163.66,48.1q.065.459.115.921h0l0,.041v.017l0,.039v.019l0,.038v.021l0,.02v.023l0,.034V49.4l0,.016v.041l0,.017V49.5l0,.017h0l0,.018v.023l0,.035v.022l0,.018v.021l0,.037h0v.02l0,.037v.02h0l0,.037v.02h0l0,.019h0v.02l0,.038h0l0,.058h0l0,.057h0l0,.038h0v.019h0l.007.1v0l0,.057h0l0,.039h0V50.3h0l0,.038h0l0,.057h0l0,.039h0v.019h0l0,.037v.02h0v.019h0v.021l0,.038h0v.02l0,.037v.021l0,.037v.02h0l0,.038v0l0,.037v.021l0,.037v.04h0v.039h0v.041l0,.036v.138h0v.059h0v.313h0v.216h0v.115h0c0,.074,0,.146,0,.22l-1,.005q0-.162,0-.325a28.913,28.913,0,0,0-.277-3.529Zm-.951,7.846.991.13q-.054.411-.12.819h0l0,.014v0l0,.014h0l-.007.043v0l0,.011v.006l0,.011v.007l0,.01v.008l0,.012,0,.013v.007l0,.01v.007l0,.01v.007l0,.012v.006l-.006.035v0l0,.013v0l0,.013v0l0,.016h0l-.006.037h0l0,.017v0l0,.017h0q-.238,1.372-.6,2.718l-.965-.262A28.841,28.841,0,0,0,162.71,55.944Zm-2.015,7.447.924.383-.1.241v0l-.005.012v0l-.023.054v0l-.005.012,0,0,0,.011v0l-.016.037,0,0,0,.011,0,.005,0,.01,0,0-.01.023v0l0,.008,0,.009,0,.008,0,.009,0,.007,0,.009,0,.007-.007.015,0,0-.005.012,0,.006,0,.011,0,.005-.005.012,0,0-.007.017h0l-.007.015,0,0-.006.013,0,0-.006.014v0l-.015.034v0l-.007.015v0l-.007.015v0l-.023.052h0l-.007.017h0q-.6,1.338-1.317,2.641h0l-.009.016h0l-.028.05,0,0-.007.013,0,0-.007.013,0,0-.018.032,0,0-.007.012,0,0-.007.012,0,0v0L159,66.88A33.067,33.067,0,0,0,160.695,63.391Zm-3.783,6.776.815.579q-.448.632-.926,1.252h0l-.037.048h0l-.037.048h0l-.037.047h0l-.011.014v0l-.024.031,0,0-.01.013v0l-.024.031v0l-.01.013,0,0-.024.03,0,0-.01.012,0,0-.01.012,0,0-.012.015,0,0-.009.012,0,0-.009.012,0,0-.011.014,0,0-.008.01,0,.006-.007.009,0,.006-.011.014,0,0-.008.01-.006.007-.006.007-.006.007-.008.01-.006.008-.008.01-.005.006-.006.008-.006.007-.007.009,0,.005-.01.012-.006.008-.005.007-.006.008,0,0-.016.02v0l-.007.009,0,.005-.007.009,0,0-.007.009h0l-.018.022,0,0-.008.01,0,0-.027.034h0l-.009.012h0q-.476.592-.98,1.175l-.757-.654C155.365,72.236,156.176,71.2,156.912,70.167Zm-5.1,5.917.7.716-.006.005-.012.012-.008.008-.012.011-.012.012-.012.012-.009.009-.01.01-.01.009-.016.016-.01.009-.009.009-.01.01-.01.01-.017.016-.008.008-.012.011-.007.007-.019.019-.008.007-.012.011-.007.007-.012.011h0l-.027.026-.006.006-.012.012,0,0-.025.024,0,0-.014.013,0,0-.043.041,0,0-.043.041,0,0-.014.014h0l-.03.028h0l-.015.014,0,0-.045.042,0,0-.046.043h0q-.528.5-1.077.99h0l-.065.058h0l-.048.042,0,0-.047.042h0l-.016.014h0l-.048.042,0,0-.045.04,0,0-.014.013h0l-.028.025-.006,0-.013.012-.005,0-.024.021-.006.005-.012.011-.009.008-.013.012-.015.013-.012.01-.008.007-.012.01-.01.008-.019.016-.009.008-.011.01-.01.008-.015.013-.013.011-.009.008-.012.011-.009.008-.019.016-.008.007-.013.011-.009.007-.02.017,0,0-.017.015-.007.006-.017.015,0,0-.02.018-.007.006-.016.014-.005,0-.021.018,0,0-.02.017,0,0-.045.039,0,0-.046.039h0l-.023.019h0q-.192.164-.387.328l-.643-.766C149.923,77.863,150.9,76.977,151.817,76.084Zm-6.009,5.052.589.808-.034.025,0,0-.047.034-.008.006-.012.009-.012.009-.01.007-.021.015,0,0-.019.014-.006,0-.019.014,0,0-.048.035h0q-1.273.919-2.624,1.8l0,0-.023.015h0l-.025.016,0,0-.019.012-.007,0-.018.011-.007,0-.022.014-.01.007-.012.008-.013.008-.009.006-.052.034,0,0-.019.012h0l-.177.114-.539-.843C143.675,82.641,144.769,81.894,145.807,81.137Zm-6.633,4.249.491.871q-1.719.968-3.536,1.873l-.446-.9C136.873,86.642,138.048,86.02,139.174,85.385Zm-7.068,3.525.4.915c-.345.152-.691.3-1.041.45h0l-.021.009,0,0-.021.009h0l-.087.037-.009,0-.016.007-.011,0-.014.006-.013.005-.014.006-.015.007-.01,0-.025.011-.01,0-.017.007-.01,0-.017.007-.011,0-.019.008-.007,0-.083.035,0,0-.024.01h0l-.027.011h0q-.806.337-1.626.662h0l-.027.011h0l-.057.023h0l-.025.01-.008,0-.019.007-.01,0-.017.007-.011,0-.017.007-.01,0-.019.007-.025.01-.008,0-.02.008-.005,0-.021.008,0,0-.22.086-.362-.932C129.687,89.943,130.918,89.434,132.106,88.911Zm-7.374,2.87.324.946-.281.1h0l-.021.007-.007,0-.018.006-.011,0-.016.005-.015.005-.012,0-.085.029h0l-.026.009h0q-1.571.528-3.188,1.013h0l-.024.007-.008,0-.02.006-.012,0-.015,0-.015,0-.01,0-.014,0-.286-.958C122.23,92.608,123.5,92.2,124.732,91.78Zm-7.591,2.271.251.968q-1.446.374-2.92.714h0l-.027.006h0l-.026.006h0l-.024.006h-.005l-.023.005-.007,0-.035.008-.015,0-.01,0-.02,0-.008,0-.021,0-.008,0-.022.005-.007,0-.024.006h0l-.673.151-.216-.976C114.58,94.69,115.877,94.379,117.141,94.052Zm-7.74,1.715.183.983c-.821.153-1.645.3-2.478.434h0l-.024,0h-.007l-.02,0-.027,0-.03,0-.028,0-.02,0h-.009l-.023,0h-.006l-.026,0h0q-.618.1-1.241.2l-.15-.989C106.8,96.229,108.114,96.006,109.4,95.767Zm-7.844,1.195.119.993q-1.971.236-3.979.414l-.088-1C98.927,97.256,100.255,97.118,101.557,96.962Zm-7.908.7.058,1q-1.983.115-4,.172l-.028-1C91,97.795,92.339,97.737,93.649,97.661Zm-11.909.164c.489.014.985.027,1.474.036.842.016,1.659.024,2.5.025v1c-.837,0-1.671-.009-2.516-.025h-.057l-.1,0h-.011l-.881-.021h-.163l-.085,0h0l-.183-.005Zm-7.928-.464c1.31.115,2.642.212,3.96.289l-.058,1-.667-.041-.032,0-.03,0h-.031l-.03,0-.032,0-.03,0h-.031l-.029,0-.025,0h-.005l-.027,0h0l-.03,0h0q-1.281-.084-2.551-.192h0l-.027,0h-.006l-.024,0h-.009l-.021,0h-.012l-.033,0-.034,0-.035,0-.036,0h0l-.195-.017Zm-7.885-.928c1.3.193,2.623.368,3.935.523l-.117.993c-.587-.069-1.173-.142-1.755-.218h0l-.062-.008h0l-.029,0h0l-.029,0h0l-.028,0h0l-.029,0h0l-.028,0h0l-.027,0h-.006l-.026,0h0l-.026,0h-.006l-.026,0h-.005l-.026,0h-.006l-.025,0h-.005l-.026,0H67.55l-.026,0h-.005l-.024,0h-.009l-.022,0h-.009l-.023,0h-.009l-.023,0h-.008l-.023,0h-.009l-.023,0h-.007l-.024,0H67.3l-.025,0h-.005l-.024,0h-.008l-.025,0h-.005l-.026,0h-.005l-.027,0h0l-.026,0h-.006l-.028,0h0l-.028,0h0l-.03,0h0l-.028,0h0c-.4-.056-.807-.114-1.208-.173Zm-7.811-1.4c1.283.272,2.593.529,3.894.763l-.177.984q-1.982-.356-3.925-.769Zm-7.7-1.9c1.259.355,2.55.7,3.835,1.012l-.239.971-.609-.152-.006,0-.024-.006-.007,0-.022-.006-.011,0-.018,0-.013,0-.016,0-.015,0-.015,0-.014,0-.016,0-.016,0-.013,0-.018,0-.01,0-.021-.005-.008,0-.021-.005-.008,0-.023-.006h0c-.4-.1-.789-.2-1.183-.307h0l-.028-.007h0l-.027-.007h0l-.027-.007h0l-.026-.007h0l-.025-.007h0l-.027-.007h0l-.159-.043-.013,0-.013,0-.017,0-.01,0-.021-.006h-.005l-.024-.006-.006,0-.024-.007h0l-.026-.007h0l-.027-.007h0l-.027-.007h0l-.028-.008h0l-.03-.008h0q-.571-.155-1.138-.314Zm-7.553-2.414c1.229.442,2.492.87,3.755,1.274l-.3.953q-.436-.139-.869-.281h0l-.028-.009-.007,0-.02-.007-.011,0-.016-.005-.014,0-.014,0-.014,0-.013,0-.017-.006-.009,0-.019-.006-.007,0q-1.38-.456-2.729-.941Zm-7.346-2.961c1.187.534,2.412,1.056,3.643,1.551l-.374.928q-.381-.153-.758-.309h0l-.115-.047-.006,0-.021-.009-.009,0-.017-.007-.013-.005-.014-.006-.014-.006-.012-.005-.016-.007-.009,0-.018-.007-.007,0-.094-.039,0,0-.024-.01h0l-.024-.01h0l-.024-.01h0q-1.253-.523-2.474-1.072Zm-7.07-3.55c1.132.633,2.308,1.256,3.5,1.851l-.448.894-.552-.279-.006,0-.017-.009-.009,0-.016-.008-.011-.005-.015-.008-.011-.006-.013-.007-.017-.009-.016-.008-.019-.01-.008,0-.018-.009-.008,0-.02-.01-.006,0-.021-.011-.005,0-.081-.042,0,0L30.6,86.5l-.005,0-.024-.012h0l-.139-.072h0l-.278-.145h0l-.3-.16h0l-.027-.014h0l-.11-.058h0l-.026-.014h0L29.649,86h0l-.109-.058h0l-.024-.013,0,0-.024-.013h0l-.08-.043,0,0-.022-.012-.006,0-.022-.012,0,0-.025-.013h0l-.052-.028-.007,0-.02-.011-.006,0-.019-.01-.007,0-.02-.011-.006,0-.052-.028-.006,0-.02-.011-.009,0-.017-.009-.009,0-.017-.009-.009,0-.019-.01-.006,0-.026-.014,0,0-.022-.012-.007,0-.017-.009-.011-.006-.016-.009L28.9,85.6l-.018-.01-.007,0-.025-.014h0l-.025-.013-.011-.006-.014-.008-.011-.006-.016-.008-.01-.006-.015-.008-.01-.006-.016-.009-.009-.005-.025-.014-.006,0-.019-.01-.01-.005-.016-.008-.011-.006-.015-.008-.01-.006-.017-.009-.008,0-.051-.028,0,0-.021-.011-.007,0-.019-.01-.007,0-.02-.011-.006,0-.052-.029h0l-.025-.014,0,0-.022-.012,0,0-.023-.013,0,0-.35-.195Zm-6.692-4.189c1.057.741,2.165,1.474,3.293,2.179l-.53.848q-.666-.416-1.315-.84h0l-.02-.013h0l-.062-.041h0l-.018-.012-.006,0-.016-.011-.007,0-.016-.01h0l-.032-.021-.011-.007L23,82.07l-.012-.008-.011-.007-.016-.01-.008-.005-.024-.016,0,0-.02-.013L22.9,82l-.02-.013-.005,0-.023-.015h0l-.052-.034h0q-.821-.544-1.616-1.1Zm-6.17-4.89c.954.859,1.966,1.712,3.008,2.537l-.62.784q-1.593-1.26-3.057-2.578Zm-5.435-5.655c.81.986,1.687,1.971,2.608,2.926l-.72.694q-.888-.922-1.711-1.864v0l-.041-.047,0,0-.013-.015,0,0-.04-.046-.005-.006-.037-.043,0-.006-.011-.013-.006-.007-.018-.021-.007-.008L10.126,71l-.008-.01-.009-.01-.015-.018-.009-.01-.009-.011-.008-.01-.012-.014-.01-.012-.011-.013-.008-.009-.011-.012-.007-.008-.016-.019-.006-.007-.012-.014-.006-.007-.017-.02,0,0-.015-.017-.005-.006-.016-.019,0,0-.018-.021,0,0L9.872,70.7l0,0-.018-.022,0,0-.017-.02,0,0-.038-.045,0,0-.058-.069h0l-.039-.047h0q-.159-.189-.315-.379ZM5.765,63.021c.608,1.115,1.293,2.234,2.036,3.324l-.826.563c-.132-.193-.262-.388-.39-.582v0l-.011-.016h0l-.023-.035h0l-.011-.017v0l-.022-.034v0l-.01-.015v0l-.022-.034h0l-.01-.015,0,0-.022-.033,0,0L6.437,66.1l0,0-.022-.033v0L6.4,66.048l0,0-.009-.014v0l-.01-.016,0,0L6.37,66l0,0-.009-.014,0,0-.01-.016,0,0-.008-.012,0,0-.009-.013,0,0-.01-.016,0,0L6.3,65.889l0,0-.009-.014,0,0-.01-.016,0,0-.008-.012,0-.005-.008-.013,0,0-.01-.016,0,0-.007-.012,0-.005-.007-.011,0-.005-.01-.015,0,0L6.2,65.732l0-.006-.008-.012,0,0-.01-.016,0,0-.007-.012,0-.005-.008-.013,0,0-.01-.016,0,0-.008-.013,0-.006-.007-.012,0,0-.01-.016,0,0L6.1,65.573l0-.006-.007-.011,0,0-.01-.016,0,0-.007-.012,0-.006L6.057,65.5l0,0-.009-.015,0-.006-.007-.01,0-.006-.007-.011,0,0-.01-.016v0L6,65.413l0,0L5.99,65.4l0,0-.01-.016v0l-.009-.014,0,0-.008-.013,0,0-.02-.033,0,0-.009-.015v0L5.9,65.252v0l-.01-.016h0L5.87,65.2v0l-.031-.052h0l-.01-.017h0L5.8,65.092h0Q5.324,64.3,4.887,63.5ZM2.849,55.842A31.967,31.967,0,0,0,4.1,59.511l-.926.378A32.821,32.821,0,0,1,1.884,56.1ZM1.811,48.2c0,.147,0,.3,0,.443a28.906,28.906,0,0,0,.261,3.412l-.991.135a29.789,29.789,0,0,1-.262-3.176h0v-.038h0v-.019s0,0,0,0v-.039h0v-.058h0V48.8h0v-.039h0v-.1h0v-.038h0c0-.1,0-.2,0-.307,0,0,0,0,0,0V48.3s0,0,0-.007,0-.006,0-.007q0-.04,0-.081Zm.07-7.9.964.266a28.87,28.87,0,0,0-.777,3.784l-.991-.134a29.64,29.64,0,0,1,.6-3.128h0l0-.015h0l.015-.06h0l0-.013v0l0-.013v0l.014-.057v0l0-.012v0l0-.012v0l0-.012h0l.007-.026v0l0-.011v-.005l0-.011,0-.007,0-.009,0-.009,0-.008,0-.016,0-.007,0-.01,0-.008,0-.009,0-.007,0-.01,0-.007,0-.013v0l0-.017v-.005l0-.013v0l0-.013v0l0-.014v0l.009-.035v0l0-.016v0l0-.016h0c.022-.082.044-.164.067-.246Zm3.072-7.365.871.492a33.16,33.16,0,0,0-1.711,3.483L3.19,36.52l0-.011v0l.007-.016,0-.006,0-.01,0-.007,0-.009,0-.008,0-.008,0-.008,0,0,.008-.019,0-.007,0-.009,0-.006,0-.01,0,0,.022-.053v0l.006-.013h0A34.116,34.116,0,0,1,4.953,32.932Zm4.631-6.506.755.656c-.867,1-1.681,2.028-2.42,3.062L7.1,29.562c.16-.223.32-.443.485-.665v0l.011-.014h0l.024-.031v0l.011-.014v0l.023-.031v0l.011-.014v0L7.7,28.75h0l.01-.014,0,0,.011-.014h0l.012-.015,0,0,.009-.012,0,0,.009-.012,0,0,.011-.015,0,0,.01-.013,0,0,.009-.012,0,0,.011-.015,0,0,.009-.012,0,0,.009-.012,0,0,.023-.03,0,0,.009-.012,0,0,.023-.031,0,0,.01-.013,0,0,.011-.015h0l.012-.016h0l.011-.014v0l.011-.015h0l.024-.032h0l.037-.048h0l.012-.015h0l.025-.032h0q.729-.94,1.524-1.854Zm5.723-5.578.641.768c-1.019.851-2,1.734-2.917,2.624l-.7-.717q1.19-1.156,2.489-2.266h0l.047-.04,0,0,.022-.018,0,0,.022-.019,0,0,.017-.014.007-.006.018-.016.008-.007.015-.012.01-.008.01-.009.022-.019.006,0,.014-.012.006,0,.048-.041h0l.2-.172Zm6.464-4.7.537.843c-1.121.714-2.216,1.458-3.256,2.214l-.588-.809.009-.006.008-.006.014-.01.007-.005.024-.017.009-.007.012-.009.01-.007.012-.008.012-.009.017-.012.013-.009.011-.008.012-.008.011-.008.013-.01.014-.01.015-.011.009-.007.014-.01.009-.007.016-.012.011-.008.016-.012.009-.007.014-.01.008-.006.019-.013.006,0,.019-.014.007,0,.017-.012.007-.005.045-.032.007,0,.018-.013.005,0,.047-.033,0,0L19.012,18l.005,0,.046-.033.006,0,.019-.013,0,0,.048-.034,0,0,.021-.015,0,0,.048-.034,0,0,.021-.015,0,0,.048-.034,0,0,.022-.016h0l.049-.034,0,0,.024-.017h0l.051-.035h0l.024-.017h0l.05-.035h0l.025-.017h0l.051-.035h0l.025-.017h0l.05-.035h0l.024-.017h0l.077-.053h0l.051-.035h0l.077-.053h0l.025-.017h0l.051-.035h0l.025-.017h0l.051-.035h0l.025-.017h0l.051-.034h0l.025-.017h0l.051-.035h0l.025-.017h0l.05-.034,0,0,.022-.015,0,0,.05-.034h0l.023-.016,0,0,.049-.033,0,0,.022-.015,0,0,.049-.033,0,0,.021-.014,0,0,.049-.033,0,0,.021-.014,0,0,.05-.033,0,0,.021-.014,0,0,.048-.032.005,0,.02-.013.005,0,.024-.016h0l.022-.014.007,0,.017-.011.008-.005.021-.014.007,0,.018-.012.01-.007.015-.01.009-.006.021-.014.006,0L21,16.643l.009-.006.015-.01.01-.006.019-.012.01-.006.016-.011.011-.007.013-.008.011-.007.012-.008.021-.014.01-.007.013-.008.01-.007.014-.009.007,0,.029-.019.006,0,.015-.01.007,0,.015-.01,0,0,.034-.022,0,0,.016-.01.006,0,.074-.048,0,0,.077-.049h0Zm6.971-3.92.444.9C28,13.71,26.82,14.33,25.692,14.963l-.489-.872q1.034-.58,2.1-1.138l0,0,.022-.011.006,0,.023-.012,0,0,.025-.013.009,0,.016-.008.012-.006.013-.007.013-.007.012-.006.054-.028.005,0,.019-.01,0,0c.4-.2.793-.406,1.2-.606Zm7.322-3.216.361.933c-1.239.48-2.469.987-3.659,1.509l-.4-.916q.415-.182.834-.361h0l.092-.039,0,0,.019-.008.006,0,.019-.008.007,0,.019-.008.005,0,.06-.025.01,0,.015-.007.011,0,.014-.006.012-.005.014-.006.012-.005.014-.006.014-.006.022-.009.015-.007.011,0L33.613,10l.011,0,.016-.007.01,0,.019-.008.008,0,.027-.011h0l.025-.011.008,0,.02-.008.007,0,.021-.009.007,0,.023-.009,0,0,.084-.035,0,0,.025-.01h0l.026-.011h0l.114-.047h0q.375-.155.753-.308h0l.115-.046h0l.024-.01.006,0L35,9.425l.007,0,.024-.009h0l.027-.011.009,0,.017-.007.014-.006.012,0,.015-.006.011,0,.016-.006.009,0,.018-.007h0l.047-.019h0l.022-.009,0,0,.021-.009h0q.386-.154.777-.3Zm7.569-2.581.285.958c-1.271.378-2.541.783-3.774,1.2l-.322-.947q.818-.279,1.649-.546l.009,0,.019-.006.011,0,.017-.005.013,0,.013,0,.016-.005.009,0q1.019-.326,2.056-.635Zm7.744-2,.215.977C50.3,5.69,49,6,47.738,6.326l-.25-.968h0l.077-.02.006,0,.023-.006H47.6l.021-.005.008,0,.02-.005.009,0,.019,0,.009,0,.02-.005.007,0,.021-.005.008,0,.021-.005h.006l.023-.006h0l.106-.027h0l.023-.006h.005l.021-.005.007,0,.022-.005.006,0,.02-.005.009,0,.02,0,.008,0,.02-.005.008,0L48.1,5.2h0l.024-.006h0l.1-.026h.005l.021-.005.007,0,.02-.005.009,0,.02-.005.008,0,.02-.005.009,0,.02,0,.009,0,.02,0,.009,0,.02-.005h.005l.127-.032.008,0,.019,0,.01,0,.016,0,.014,0,.015,0,.013,0,.016,0,.013,0,.016,0,.014,0,.014,0,.016,0,.014,0,.016,0,.012,0,.02,0,.01,0,.058-.014.007,0L48.9,5l.008,0L48.931,5l.01,0,.02,0,.009,0,.02,0,.009,0,.022-.005h.006l.025-.006h0l.028-.007h0Q50.223,4.683,51.377,4.428Zm7.865-1.456.149.989c-1.309.2-2.625.419-3.913.657L55.3,3.635l.152-.028h0L55.48,3.6h0l.027,0h0l.026,0h0l.026,0h0l.028-.005h0l.06-.011h0Q57.435,3.246,59.243,2.973Zm7.944-.944.087,1c-1.318.115-2.646.252-3.949.407l-.118-.993q.7-.083,1.4-.158h0l.027,0h0l.025,0,.031,0,.029,0,.03,0,.029,0,.031,0,.028,0h0Q66.01,2.131,67.187,2.028Zm7.985-.456.027,1c-1.321.036-2.656.092-3.967.167l-.057-1q.65-.037,1.3-.068h0l.06,0h1.612c.339-.012.678-.022,1.019-.032Z" transform="translate(-15072.029 5833.741) rotate(-172)"/></g></svg>