<svg xmlns="http://www.w3.org/2000/svg" width="54.897" height="38.505" viewBox="0 0 54.897 38.505"><defs><style>.a{fill:#2f9eaf;}.b{fill:#4eaab8;}</style></defs><g transform="translate(-142.341 -194.393)"><path class="a" d="M194.758,197.11a1.528,1.528,0,0,0-.746-.749,15.3,15.3,0,0,0-2.377-.834,31.938,31.938,0,0,0-4.564-.833,49.179,49.179,0,0,0-5.489-.3,45.907,45.907,0,0,0-7.131.524,28.241,28.241,0,0,0-2.924.609,16.825,16.825,0,0,0-1.737.568,16.739,16.739,0,0,0-1.738-.568,31.937,31.937,0,0,0-4.564-.833,49.2,49.2,0,0,0-5.489-.3,45.911,45.911,0,0,0-7.133.524,28.258,28.258,0,0,0-2.921.609,15.369,15.369,0,0,0-2.378.834,1.528,1.528,0,0,0-.745.748c-1.159.291-2.48.834-2.48,1.8v27.923a4.864,4.864,0,0,0,4.864,4.864h19.6v.252a.953.953,0,0,0,.952.955h4.068a.953.953,0,0,0,.952-.955v-.252h19.6a4.864,4.864,0,0,0,4.864-4.864V198.9c0-.962-1.321-1.505-2.48-1.795m-26.492,29.058c-.072-.02-.141-.042-.215-.063a31.74,31.74,0,0,0-4.564-.833,48.858,48.858,0,0,0-5.489-.3,46.471,46.471,0,0,0-7.133.523,28.952,28.952,0,0,0-2.921.611c-.073.022-.143.043-.215.063V198.779c.308-.107.645-.209,1.008-.308a28.694,28.694,0,0,1,4.117-.748,45.612,45.612,0,0,1,5.143-.279,43.572,43.572,0,0,1,6.654.484,25.359,25.359,0,0,1,2.6.543q.549.149,1.01.308Zm23.583,0c-.072-.02-.14-.042-.213-.063a31.741,31.741,0,0,0-4.564-.833,48.839,48.839,0,0,0-5.489-.3,46.452,46.452,0,0,0-7.131.523,29.016,29.016,0,0,0-2.924.611c-.072.022-.141.043-.213.063V198.779q.46-.16,1.01-.308a28.574,28.574,0,0,1,4.114-.748,45.658,45.658,0,0,1,5.145-.279,43.587,43.587,0,0,1,6.654.484,25.475,25.475,0,0,1,2.606.543c.363.1.7.2,1.007.308Z" transform="translate(0 0)"/><path class="b" d="M166.619,225.234c-.072-.02-.141-.042-.215-.063a31.67,31.67,0,0,0-4.563-.833,48.906,48.906,0,0,0-5.491-.3,46.46,46.46,0,0,0-7.131.523,28.985,28.985,0,0,0-2.922.611c-.073.022-.143.043-.215.063V197.846c.308-.107.645-.209,1.008-.308a28.737,28.737,0,0,1,4.117-.748,45.62,45.62,0,0,1,5.143-.279,43.564,43.564,0,0,1,6.654.484,25.4,25.4,0,0,1,2.606.543c.364.1.7.2,1.008.308Z" transform="translate(1.647 0.933)"/><path class="b" d="M182.992,225.234c-.072-.02-.14-.042-.213-.063a31.728,31.728,0,0,0-4.564-.833,48.841,48.841,0,0,0-5.489-.3,46.46,46.46,0,0,0-7.131.523,29.018,29.018,0,0,0-2.924.611c-.072.022-.141.043-.213.063V197.846q.46-.16,1.01-.308a28.577,28.577,0,0,1,4.114-.748,45.646,45.646,0,0,1,5.145-.279,43.593,43.593,0,0,1,6.654.484,25.485,25.485,0,0,1,2.606.543c.363.1.7.2,1.007.308Z" transform="translate(8.858 0.933)"/><path class="a" d="M148.28,201.7l-.238,1.747a22.616,22.616,0,0,1,10.064-.971l4.611.628.216-1.59-4.611-.627a24.1,24.1,0,0,0-10.042.812" transform="translate(2.51 2.771)"/><path class="a" d="M148.28,205.463l-.238,1.747a22.616,22.616,0,0,1,10.064-.971l4.611.628.216-1.59-4.611-.627a24.1,24.1,0,0,0-10.042.812" transform="translate(2.51 4.427)"/><path class="a" d="M148.28,209.22l-.238,1.747A22.575,22.575,0,0,1,158.106,210l4.611.627.216-1.59-4.611-.627a24.075,24.075,0,0,0-10.042.814" transform="translate(2.51 6.081)"/><path class="a" d="M164.654,201.7l-.238,1.747a22.616,22.616,0,0,1,10.064-.971l4.611.628.216-1.59-4.611-.627a24.1,24.1,0,0,0-10.042.812" transform="translate(9.721 2.771)"/><path class="a" d="M164.654,205.463l-.238,1.747a22.616,22.616,0,0,1,10.064-.971l4.611.628.216-1.59-4.611-.627a24.1,24.1,0,0,0-10.042.812" transform="translate(9.721 4.427)"/><path class="a" d="M164.654,209.22l-.238,1.747A22.575,22.575,0,0,1,174.48,210l4.611.627.216-1.59-4.611-.627a24.075,24.075,0,0,0-10.042.814" transform="translate(9.721 6.081)"/></g></svg>