<svg xmlns="http://www.w3.org/2000/svg" width="160.074" height="123.319" viewBox="0 0 160.074 123.319"><defs><style>.a{fill:#573622;}.b{fill:#d8d5da;}.c{fill:#f2e11f;}.d{fill:#f1d84f;}</style></defs><g transform="translate(-220.848 -5593.398)"><g transform="translate(220.848 5593.398)"><path class="a" d="M198.567,500.858a25.718,25.718,0,0,1,2.47-2.648,5.436,5.436,0,0,1,5.7-1.091,5.984,5.984,0,0,1,3.971,5.234,35,35,0,0,1-.191,6.682c-.138,1.263.03,1.937,1.259,2.542,2.928,1.442,5.3,5.018,4.323,8.547-.38,1.365-.624,2.92-2.7,2.54a2.8,2.8,0,0,1-2.45-3.7,20.636,20.636,0,0,1,1.932-3.654,6.853,6.853,0,0,0-.928-1.244c-1.495-1.4-2.444-1.319-3.468.433-3.217,5.5-7.85,5.958-12.5,4.037-2.731-1.13-4.1-3.417-4.612-6.271a28.746,28.746,0,0,1,.488-12.9c.781-2.786.011-5-1.51-7.23a13.263,13.263,0,0,1-2.58-7.8c.032-1.954,1.057-3.162,2.939-3.145a2.942,2.942,0,0,1,1.954.987c2.327,2.758,2.661,6.173,2.083,9.447C194.046,495.548,195.929,498.062,198.567,500.858Zm1.344,4.527c-.911,3.107-.129,4.217,2.782,4.321a3.542,3.542,0,0,1,1.191.533c-.238.431-.367,1.045-.73,1.261-1.9,1.119-4.769.168-5.321-1.973a27.262,27.262,0,0,1-.391-5.357c-.03-.575.255-1.338-.019-1.7-.953-1.242-2.092-2.344-3.357-3.714a28.845,28.845,0,0,0-.505,13.654c.561,2.52,1.968,4.5,4.735,5a7.579,7.579,0,0,0,8.577-4.918,1.448,1.448,0,0,0-.089-1.244C204.565,509.286,202.285,507.392,199.911,505.386Zm7.434,4.051.675-.414c.631-2.455,1.043-5.035.151-7.441a5.278,5.278,0,0,0-3.06-2.724c-1.353-.423-3.752,1.692-4.117,3.07-.079.3-.138.758.023.928C203.1,505.073,205.228,507.25,207.345,509.437Zm-14.618-17.818c1.153-4.434.51-7.428-1.89-8.787C189.251,484.8,189.95,488.054,192.727,491.619Z" transform="translate(-187.763 -481.189)"/></g><g transform="translate(249.404 5599.804)"><path class="a" d="M283.608,544.633c3.818.181,7.98.1,12.055.646,4.43.6,8.857,1.737,12.492,4.521a19.092,19.092,0,0,1,4.652,5.209,64.522,64.522,0,0,1,3.909,8.449,6.935,6.935,0,0,1,.374,2.775,7.077,7.077,0,0,0,2.136,5.115c1.871,2.017,3.194,2.145,5.506.6,1.3-.866,2.557-1.784,3.816-2.7s2.565-1.026,3.623.168a2.537,2.537,0,0,1-.824,3.839,18.711,18.711,0,0,1-4.427,1.147c-.645.125-1.38-.163-2.011-.011-3.077.745-5.786.321-7.833-2.374-.289.231-.522.323-.558.463-.981,3.724-3.421,6.551-5.689,9.513a7.954,7.954,0,0,0-1.3,3.491c-.609,3.79-.941,7.628-1.639,11.4a4.4,4.4,0,0,1-2.013,2.769c-3.714,1.871-8.413,2.438-12.271-1.206a3.209,3.209,0,0,0-2.266-.554c-2.913.274-5.7.287-7.9-2.089-1.5-1.624-1.455-2.724-.008-4.417,1.2-1.4,2.242-2.92,3.542-4.635l-16.153-3.34c-.544,1.926-1.1,3.924-1.682,5.909a6.088,6.088,0,0,1-.631,1.491c-2.372,3.8-5.451,3.8-8.033-.1a8.342,8.342,0,0,0-.837,1.376c-1.4,3.782-4.988,3.877-7.814,3.181-2.86-.705-3.9-3.143-2.69-5.839a9.263,9.263,0,0,0,.41-7.273c-2.2-6.2-1.4-12.588-.809-18.939.113-1.206.318-2.4.507-3.8-2-.463-3.969-.83-5.888-1.38-4.332-1.24-5.92-3.344-6.324-7.85A3.17,3.17,0,0,0,235.9,547.9c-6.389-3.232-9.9-8.708-11.98-15.244-1.028-3.219-1.775-6.536-2.478-9.844a12.189,12.189,0,0,1,.312-3.385c-5.918,2.276-7.545-2.518-9.844-6.137-1.888-2.971-1.584-5.793,1.565-8.462-3-1.4-5.646-2.712-8.36-3.863-4.529-1.924-4.816-3.036-2.38-7.3,3.336-5.839,8.914-7.789,14.941-9.027a28.236,28.236,0,0,1,5.052-.435c3.559-.072,5.812,2.374,5.217,5.905s-1.5,7-2.278,10.492c-.087.391-.187.779-.312,1.3,2.459.35,3.056,1.981,3.308,4.179a13.377,13.377,0,0,0,1.637,4.491c1.448,2.758,1.062,4.472-1.7,6.1,2.487,4.48,4.776,9.095,7.553,13.392,1.246,1.926,3.472,3.219,5.451,4.977,2.68-4.47,6.341-6.651,10.73-7.944a14.59,14.59,0,0,1,17.291,7.812,2.478,2.478,0,0,0,2.019,1.019,9.913,9.913,0,0,1,9,3.7A37.254,37.254,0,0,1,283.608,544.633Zm-43.734,9.6c.688.486,1.113.987,1.629,1.113a77.893,77.893,0,0,0,8.1,1.737c2.117.28,2.642.68,2.206,2.686a35.982,35.982,0,0,0-.728,4.206c-.559,5.861-1.523,11.783.578,17.51a11.427,11.427,0,0,1-.384,9.43c-.592,1.217,0,1.735,1.121,2.024,2.788.72,4.3-.3,5.464-3.349,1.457-3.839,3.149-7.589,4.608-11.426.58-1.527,1.367-1.162,2.34-.629a34.179,34.179,0,0,0,4.274,2.317,58.68,58.68,0,0,0,20,4.068c2.3.023,4.612-.333,6.965-.52-.777-3.181-1.433-5.861-2.089-8.54l1.064-.495a11.079,11.079,0,0,1,1.455,2.09c.454,1.113.571,2.359.994,3.487,1.985,5.277,2.9,10.447-.852,15.429-1.285,1.707-1.079,2.073,1.009,2.777.382.132.76.287,1.151.391,2.425.648,6.487-.919,6.914-2.962a70.958,70.958,0,0,0,1.457-10.19,9.124,9.124,0,0,1,1.86-5.44,42.306,42.306,0,0,0,3.3-4.115,17.489,17.489,0,0,0-2.24-21.61,11.985,11.985,0,0,0-2.529-2.3c-7.228-4.27-15.112-5.187-23.315-4.451a2.134,2.134,0,0,0-2.1,1.728,18.775,18.775,0,0,1-6.239,8.861c-5.464,4.3-15.248,2.731-20.347-1.23-.187-.144-.147-.577-.35-1.495,1.476.6,2.574.974,3.6,1.489,4.9,2.455,10.01,3.077,14.771.225s7.137-7.53,7.141-13.167c0-3.149-3.71-6.509-6.882-6.143-2.862.329-5.665,1.134-8.515,1.625a8.679,8.679,0,0,1-2.312-.221l.009-.69c.7-.372,1.38-.807,2.111-1.1,2.843-1.157,3.138-2.134,1.257-4.665a8.435,8.435,0,0,0-1.731-1.7,14.349,14.349,0,0,0-20,3.521c.164.788.573,1.633.338,1.9a2.107,2.107,0,0,1-1.767.488c-1.631-.4-3.13-.7-4.347.883-.13.168-.667.023-1.2.023l1.278-1.9c-1.629-2.064-3.412-3.024-5.933-1.024l-.006-.688,1.956-1.771c-1.091-1.514-1.605-3.661-3.79-3.226.2-.762.75-1.633.514-2.143-1.168-2.514-2.5-4.962-3.892-7.36a1.9,1.9,0,0,0-1.644-.567c-2.011.431-3.039,1.854-2.531,3.875,1,4,2.034,8.008,3.419,11.881,2.518,7.037,7.908,11.091,14.788,13.437.626.214,1.665.726,1.648,1.055a6.074,6.074,0,0,1-.894,3C242.067,553.093,241.048,553.454,239.874,554.234Zm-36.646-57,.3.856c2.786-.191,5.587-.248,8.351-.6a16.082,16.082,0,0,0,11.932-7.948,3.608,3.608,0,0,0,.437-2.822c-.2-.493-1.688-.788-2.512-.654a60.137,60.137,0,0,0-10.258,2.1C207.228,489.645,204.782,493.149,203.227,497.232Zm22.886,20.03c-.225-.7-.437-1.333-.626-1.966-.951-3.175-2.03-6.319-2.773-9.541a8.671,8.671,0,0,1,.41-3.892c.83-3.192,1.822-6.341,2.7-9.519a2.834,2.834,0,0,0-.1-1.106c-2.588,2.038-4.9,4.408-7.689,5.9-2.82,1.51-6.107,2.147-9.224,3.177a3.888,3.888,0,0,0,.578.4c.486.231,1,.406,1.486.635,3.671,1.731,6.946,3.733,8.434,7.95a91.134,91.134,0,0,0,4.325,9.095Zm65.465,69.351-.176-.452c-.779.357-1.845.5-2.283,1.106a58.728,58.728,0,0,0-3.705,5.967,1.688,1.688,0,0,0,.17,1.6c1.775,1.353,5.1.985,6.721-.626a15.281,15.281,0,0,1,2.731-2.693c1.6-.911,1.59-2.363,1.854-3.788.3-1.614-.461-2.115-1.947-1.815C293.82,586.14,292.7,586.378,291.579,586.614ZM263.342,591.2c2.89-.973,5.763-6.349,4.483-8.659-.573-1.038-2.372-1.4-3.616-2.064a26.746,26.746,0,0,0-1.522,4.376,12.55,12.55,0,0,0,.423,3.359C263.221,589.177,263.263,590.156,263.342,591.2Zm-48.07-84.757a2.726,2.726,0,0,0-2.31,3.8,46.077,46.077,0,0,0,4.27,6.994c.866,1.2,2.232,1.147,3.805.051C215.384,515.5,212.481,512.485,215.272,506.439Zm9.761.911c1.648-1.077,1.765-2.015.994-3.011-.166-.215-.786-.079-1.2-.1Zm105.144,62.856-2.693,2.291C330.434,572.531,330.929,572.087,330.177,570.206Z" transform="translate(-201.212 -484.205)"/><path class="b" d="M228.1,535.772c1.174-.779,2.194-1.14,2.688-1.862a6.074,6.074,0,0,0,.894-3c.017-.329-1.021-.841-1.648-1.055-6.88-2.346-12.269-6.4-14.788-13.437-1.385-3.873-2.414-7.884-3.419-11.881-.508-2.021.52-3.444,2.531-3.875a1.9,1.9,0,0,1,1.644.567c1.4,2.4,2.724,4.846,3.892,7.36.236.51-.312,1.38-.514,2.143,2.185-.435,2.7,1.712,3.79,3.226l-1.956,1.771.006.688c2.521-2,4.3-1.041,5.933,1.023l-1.278,1.9c.531,0,1.068.144,1.2-.023,1.217-1.588,2.716-1.287,4.347-.883a2.107,2.107,0,0,0,1.767-.488c.236-.268-.174-1.113-.338-1.9a14.349,14.349,0,0,1,20-3.521,8.433,8.433,0,0,1,1.731,1.7c1.881,2.531,1.586,3.508-1.257,4.665-.73.3-1.408.733-2.111,1.1l-.009.69a8.684,8.684,0,0,0,2.312.221c2.85-.49,5.653-1.3,8.515-1.624,3.172-.365,6.884,2.994,6.882,6.143,0,5.638-2.368,10.3-7.141,13.167s-9.872,2.23-14.771-.225c-1.024-.514-2.121-.883-3.6-1.489.2.917.163,1.351.35,1.495,5.1,3.96,14.883,5.527,20.347,1.23a18.775,18.775,0,0,0,6.239-8.861,2.134,2.134,0,0,1,2.1-1.728c8.2-.737,16.087.18,23.315,4.451a11.983,11.983,0,0,1,2.529,2.3,17.489,17.489,0,0,1,2.24,21.61,42.327,42.327,0,0,1-3.3,4.115,9.124,9.124,0,0,0-1.86,5.44,70.945,70.945,0,0,1-1.457,10.19c-.427,2.043-4.489,3.61-6.914,2.962-.391-.1-.769-.259-1.151-.391-2.087-.7-2.293-1.07-1.009-2.777,3.752-4.982,2.837-10.152.851-15.429-.423-1.128-.539-2.374-.994-3.487a11.076,11.076,0,0,0-1.455-2.089l-1.064.495c.656,2.68,1.312,5.36,2.089,8.54-2.353.187-4.661.544-6.965.52a58.678,58.678,0,0,1-20-4.068,34.2,34.2,0,0,1-4.274-2.317c-.972-.533-1.76-.9-2.34.628-1.459,3.837-3.151,7.587-4.608,11.426-1.159,3.049-2.676,4.068-5.464,3.349-1.121-.289-1.714-.807-1.121-2.024a11.427,11.427,0,0,0,.384-9.43c-2.1-5.727-1.136-11.649-.578-17.51a35.979,35.979,0,0,1,.728-4.206c.435-2.007-.089-2.406-2.206-2.686a77.909,77.909,0,0,1-8.1-1.737C229.209,536.76,228.784,536.259,228.1,535.772Zm11.2-15.378c-.7,1.06-1.525,1.765-1.433,2.315.1.605,1.142,1.567,1.605,1.478.733-.138,1.325-1.019,1.977-1.586Zm4.015-3.213a29.506,29.506,0,0,0,.773,3.2c.108.3.7.493,1.1.59.108.025.539-.527.49-.737C245.393,519.01,245.434,517.5,243.312,517.182Z" transform="translate(-189.434 -465.744)"/><path class="c" d="M202.161,496.267c1.554-4.083,4-7.587,8.247-9.076a60.142,60.142,0,0,1,10.258-2.1c.824-.134,2.312.161,2.512.654a3.608,3.608,0,0,1-.437,2.822,16.081,16.081,0,0,1-11.932,7.948c-2.765.355-5.566.412-8.351.6Z" transform="translate(-200.145 -483.241)"/><path class="d" d="M222.092,513.542l-2.476,1.132a91.131,91.131,0,0,1-4.325-9.095c-1.488-4.217-4.763-6.22-8.434-7.95-.486-.229-1-.4-1.486-.635a3.878,3.878,0,0,1-.578-.4c3.117-1.03,6.4-1.667,9.224-3.177,2.786-1.491,5.1-3.86,7.689-5.9a2.834,2.834,0,0,1,.1,1.106c-.881,3.179-1.873,6.328-2.7,9.519a8.671,8.671,0,0,0-.41,3.892c.743,3.221,1.822,6.366,2.773,9.541C221.654,512.208,221.867,512.837,222.092,513.542Z" transform="translate(-197.19 -480.485)"/><path class="b" d="M247.1,532.847c1.121-.236,2.24-.473,3.364-.7,1.486-.3,2.247.2,1.947,1.815-.263,1.425-.255,2.877-1.854,3.788a15.277,15.277,0,0,0-2.731,2.693c-1.622,1.612-4.945,1.979-6.721.626a1.688,1.688,0,0,1-.17-1.6,58.738,58.738,0,0,1,3.705-5.967c.438-.6,1.5-.75,2.283-1.107Z" transform="translate(-156.729 -430.438)"/><path class="b" d="M230.84,540.264c-.079-1.041-.121-2.019-.234-2.988a12.55,12.55,0,0,1-.423-3.359,26.744,26.744,0,0,1,1.522-4.376c1.244.667,3.043,1.026,3.616,2.064C236.6,533.915,233.73,539.292,230.84,540.264Z" transform="translate(-168.71 -433.273)"/><path class="c" d="M209.191,494.676c-2.79,6.045.113,9.059,5.765,10.844-1.573,1.1-2.939,1.153-3.805-.051a46.087,46.087,0,0,1-4.27-6.995A2.726,2.726,0,0,1,209.191,494.676Z" transform="translate(-195.132 -472.442)"/><path class="c" d="M212.538,496.763l-.2-3.113c.412.023,1.032-.112,1.2.1C214.3,494.748,214.186,495.687,212.538,496.763Z" transform="translate(-188.717 -473.618)"/><path class="b" d="M263.371,524.706c.752,1.881.257,2.325-2.693,2.291Z" transform="translate(-134.405 -438.705)"/><path class="a" d="M225.483,509.942c1.287,0,2.149.28,2.149,2.206,0,1.329-1.174,1.593-1.977,1.586a2.413,2.413,0,0,1-1.605-1.478A1.761,1.761,0,0,1,225.483,509.942Z" transform="translate(-175.62 -455.292)"/><path class="a" d="M226.585,508.429c2.121.321,2.081,1.828,2.365,3.049.049.21-.382.762-.49.737-.406-.1-.994-.289-1.1-.59A29.51,29.51,0,0,1,226.585,508.429Z" transform="translate(-172.707 -456.991)"/></g></g></svg>