<svg xmlns="http://www.w3.org/2000/svg" width="287.065" height="128.958" viewBox="0 0 287.065 128.958"><defs><style>.a{fill:#573622;}.b{fill:#e16399;}.c{fill:#fbe431;}.d{fill:#7cc9dd;}</style></defs><g transform="matrix(0.966, 0.259, -0.259, 0.966, 15.022, 0)"><path class="a" d="M574.624,703.666a8.947,8.947,0,0,1-1.822,1.758c-2.092,1.1-4.236,2.123-6.423,3.022a2.459,2.459,0,0,0-1.743,2.389c-.669,9.058-1.393,18.115-2.1,27.172a9.718,9.718,0,0,1-.191,1.612c-.272,1.094-1.094,1.376-1.784.59-4.455-5.056-8.95-10.084-13.178-15.327-2.07-2.567-3.561-5.6-5.4-8.358a1.738,1.738,0,0,0-1.471-.527c-4.629.966-9.252,1.969-13.843,3.1-.505.125-1.079,1.134-1.13,1.771-.752,9.577-3.17,18.824-5.468,28.093a9.062,9.062,0,0,1-1.251,2.157c-.7-.556-1.658-.97-2.056-1.692-4.716-8.6-9.337-17.253-14.04-25.861a2.007,2.007,0,0,0-1.518-.877c-7.784.314-15.569.673-23.345,1.149-.563.034-1.372.943-1.552,1.588-1.525,5.472-2.881,10.991-4.391,16.469-1.009,3.652-2.149,7.271-3.308,10.88a8.345,8.345,0,0,1-1.227,1.867c-.6-.488-1.452-.856-1.746-1.484-2.306-4.971-4.523-9.982-6.731-15-1.886-4.275-3.688-8.587-5.627-12.838a2.453,2.453,0,0,0-1.673-1.3c-6.506-.276-13.015-.486-19.525-.544a3.158,3.158,0,0,0-2.179,1.593c-4.292,8.23-8.451,16.531-12.736,24.768a17.047,17.047,0,0,1-2.484,2.937,17.271,17.271,0,0,1-1.758-3.289q-3.733-13.091-7.275-26.235a1.7,1.7,0,0,0-1.743-1.525c-7.228-.575-14.452-1.242-21.687-1.752a2.891,2.891,0,0,0-2.047,1.272c-4.026,6.024-7.969,12.106-11.921,18.177-.773,1.187-1.491,2.408-2.52,4.075a9.217,9.217,0,0,1-1.556-2.053c-1.079-3.134-2.138-6.279-3.009-9.475-1.246-4.568-2.344-9.175-3.453-13.779a2.6,2.6,0,0,0-2.251-2.2c-4.621-1.034-9.19-2.3-13.813-3.31a5,5,0,0,0-2.6.747,2.491,2.491,0,0,0-.951,1.038c-3.869,6.559-9.611,11.29-15.412,15.994a57.368,57.368,0,0,0-4.028,4.3,15.1,15.1,0,0,1-2.164,1.525,8.515,8.515,0,0,1-.97-2.482c-.248-5.005-.4-10.018-.524-15.03-.1-3.994-.055-7.993-.21-11.983a2.259,2.259,0,0,0-1.293-1.576c-6.141-2.126-12.316-4.151-18.482-6.207a2.088,2.088,0,0,1-.922-.4,15.656,15.656,0,0,1-1.1-1.648c.616-.121,1.31-.495,1.833-.327,6.383,2.047,12.658,4.476,19.122,6.22,15.293,4.124,30.584,8.326,46.047,11.719,9.1,1.994,18.506,2.64,27.8,3.64q13.547,1.456,27.148,2.368c7.78.529,15.582.817,23.379,1.009,10.647.261,21.3.542,31.949.421,12.2-.138,24.4-.31,36.542-1.966,11.554-1.578,23.105-3.055,34.357-6.262,7.753-2.208,15.55-4.257,23.268-6.568A65.509,65.509,0,0,0,571.887,704c.726-.321,1.442-.665,2.161-1ZM317.013,732.107c7.313-6.544,15.843-11.4,20.323-20.551-6.738-1.733-13.435-3.455-20.323-5.228Zm97.759,16.374.6.166c4.3-8.271,8.6-16.539,13.1-25.195-7.22-.45-13.87-.866-20.759-1.3C408.709,731.6,412.41,739.855,414.772,748.481ZM562.684,710c-6.6,1.69-12.7,3.257-19.064,4.888,3.969,8.715,9.645,15.576,16.117,21.84l.82-.149C561.255,727.856,561.953,719.129,562.684,710ZM504.54,722.43c3.68,8.838,8.585,16.635,13.257,24.853,1.716-4.047,6.3-24.385,5.2-27.467ZM466.1,749.965l.76-.079c2.561-8.511,6.1-16.739,7.708-25.715h-19.71C458.731,733.067,462.415,741.516,466.1,749.965ZM359.21,716.876c2.045,7.687,3.962,14.892,5.88,22.1l.59-.057,12.56-19.361Z" transform="translate(-292.984 -696.603)"/><path class="b" d="M304.3,726.961V701.183c6.888,1.773,13.586,3.5,20.323,5.228C320.143,715.561,311.613,720.417,304.3,726.961Z" transform="translate(-280.271 -691.458)"/><path class="c" d="M354.071,734.962c-2.361-8.625-6.062-16.885-7.056-26.326,6.888.431,13.539.847,20.759,1.3-4.5,8.655-8.8,16.924-13.1,25.194Z" transform="translate(-232.284 -683.084)"/><path class="c" d="M430.081,702.914l-2.128,26.579-.82.149c-6.472-6.264-12.148-13.125-16.117-21.84C417.377,706.171,423.484,704.6,430.081,702.914Z" transform="translate(-160.382 -689.513)"/><path class="d" d="M392.613,710.149l18.455-2.614c1.1,3.081-3.482,23.419-5.2,27.467C401.2,726.784,396.293,718.987,392.613,710.149Z" transform="translate(-181.057 -684.321)"/><path class="b" d="M380.456,735.379c-3.682-8.449-7.366-16.9-11.241-25.793h19.71c-1.608,8.976-5.147,17.2-7.708,25.715Z" transform="translate(-207.343 -682.017)"/><path class="d" d="M324.172,706.15l19.03,2.678-12.56,19.361-.59.057C328.134,721.042,326.217,713.837,324.172,706.15Z" transform="translate(-257.946 -685.877)"/></g></svg>