<svg xmlns="http://www.w3.org/2000/svg" width="184.301" height="245.786" viewBox="0 0 184.301 245.786"><defs><style>.a{fill:#573622;}.b{fill:#fff;}.c{fill:#eea3ba;}.d{fill:#f5b8b2;}.e{fill:#f9da4a;}.f{fill:#dd9187;}.g{fill:#e99c95;}</style></defs><path class="a" d="M195.268,613.455l6.079,5.982c2.174-1.385,2.1-1.951,1.427-4.274a13.621,13.621,0,0,1-.036-5.532,31.118,31.118,0,0,1,1.535-4.918l4.419,7.043A37.715,37.715,0,0,0,211.64,609a2.024,2.024,0,0,0,.053-1.614,7.2,7.2,0,0,1,.956-7.067c.531-.7.348-1.943.9-2.988l2.678,7.358c1.752-1.308,3.245-2.319,3.746-4.359.622-2.527,2.5-4.126,4.585-5.487.168-.108.4-.284.544-.24,2.024.656,3.8-.227,5.58-1.159l.325.427c-.187.427-.293,1.153-.578,1.232-1.758.486-1.809,1.977-2.355,3.325a7.782,7.782,0,0,1-5.334,4.355,7.976,7.976,0,0,0-4.438,3.374l6.655,2.65c-3.1,2.257-6.279,3.809-9.732,2.491-2.474-.947-3.41.278-4.642,1.871,2.236.582,4.344,1.115,6.438,1.692a1.175,1.175,0,0,1,.745.6.911.911,0,0,1-.374.8,25.672,25.672,0,0,1-4.2,1.862,8.38,8.38,0,0,1-3.795.261,5.379,5.379,0,0,0-6.508,3.164c1.573.418,3.192.922,4.844,1.251a12.939,12.939,0,0,0,2.153-.147,3.141,3.141,0,0,1,1.017.412c-.221.348-.361.832-.675,1.019a19.525,19.525,0,0,1-3.691,1.9,11.123,11.123,0,0,1-4.6.811c-3.584-.459-4.419-.106-5.786,3.5,2.115.365,4.245.72,6.366,1.124a.712.712,0,0,1,.352.605,1.212,1.212,0,0,1-.586.673c-2.877,1.31-5.413,3.7-9.08,2.55-.544-.17-1.845,1.03-2.323,1.864-3.06,5.355-6.092,10.732-8.923,16.21-1.82,3.521-3.279,7.226-4.9,10.849l.573.321c.648-.864,1.249-1.767,1.954-2.584q4.249-4.928,8.557-9.806a3.75,3.75,0,0,1,1.382-1.168,4.67,4.67,0,0,1,1.754.106c-.076.573.062,1.372-.265,1.69-5.536,5.36-9.84,11.67-14.435,17.8-3.809,5.084-4.03,11.169-6.423,16.586a10.073,10.073,0,0,0-.531,6.854c.4,1.548-.518,3.478-.994,5.194-.44,1.582-1.452,3.083-1.559,4.663-.416,6.158-.537,12.333-.864,18.5-.036.675-.688,1.317-1.055,1.975-.342-.716-.962-1.425-.979-2.149-.1-4.062-.047-8.126-.047-12.454a9.741,9.741,0,0,0-1,.951c-2.406,3.1-4.744,6.252-7.22,9.29a2.907,2.907,0,0,0-.645,2.9c1.482,6.124,2.907,12.263,4.17,18.434.251,1.223,1.113,2.869-1.556,3.527-1.782.44-3.187,2.489-4.706,3.875-.826.756-.272,2.773.962,3.4a7.355,7.355,0,0,0,2.134.594c.8.132,1.631.081,2.431.21,3.444.558,4.423,2.393,2.45,5.23A11.461,11.461,0,0,1,154,763.127a6.288,6.288,0,0,1-7-3.678c-.885-1.743-1.707-3.521-2.6-5.37-2.121.1-3.536,1-3.771,3.3-.055.541-.115,1.081-.2,1.616-.575,3.461-.531,3.33,2.622,4.493,1.128.414,2.663,1.556,2.756,2.493a5.257,5.257,0,0,1-1.486,4.111,11.408,11.408,0,0,1-8.33,2.518,4.4,4.4,0,0,1-4.268-3.967c-.3-2.535-.234-5.113-.319-7.674-.017-.52,0-1.041,0-1.947-1.58.552-2.867,1.108-4.211,1.427a2.9,2.9,0,0,1-2.16-.253c-.395-.3-.457-1.3-.367-1.941.728-5.236,1.531-10.464,2.293-15.695a16.193,16.193,0,0,0,.008-1.858c-2.126,1.323-3.873,2.548-5.744,3.538a45.006,45.006,0,0,1-6.81,3.117c-1.818.6-3.2-.76-4.323-2.064-1.055-1.223-1.924-2.707-.826-4.239a30.808,30.808,0,0,1,3.8-4.138c2.956-2.831,5.986-5.587,8.889-8.774-5.37-.807-10.352-2.094-15.085-4.975.4,1.508.843,3.007,1.2,4.525.724,3.107.015,7.4-3.877,8.8a6.743,6.743,0,0,1-7.118-2.183c-1.261-1.537-1.423-3.491.554-5.491,3.381-3.421,1.96-7.162,1.69-11.021-.3-4.245-2.368-8-2.877-12.1-.648-5.232,1.317-9.78,4.353-14,3.616-5.03,8.579-8.411,13.664-11.66,1.758-1.123,3.72-1.917,5.536-2.958a2.013,2.013,0,0,0,.951-1.334c.442-8.351,3.784-15.643,7.7-22.876,3.635-6.719,6.719-13.749,9.77-20.761a20.873,20.873,0,0,0,1.155-13.34c-.883-3.758-1.48-7.583-2.365-11.339-1.576-6.689.081-12.76,3.954-18.094A38.1,38.1,0,0,1,154.5,577.382a9.1,9.1,0,0,1,3.446-1.1c1.446-.087,1.928-.828,2.334-2a38.059,38.059,0,0,1,8.935-14.38c4.272-4.325,8.659-8.691,13.622-12.138a123.1,123.1,0,0,1,18.518-10.449,141.455,141.455,0,0,1,21.217-8.01,62.371,62.371,0,0,1,20.083-2.331,38.929,38.929,0,0,1,18.578,5.8c8.453,5.149,14.18,15.333,11.828,26.422-1.886,8.884-7.971,13.609-14.964,17.926-9.252,5.714-19.614,8.381-29.97,11.076-7.269,1.892-14.7,3.287-21.78,5.723-6.944,2.387-13.934,4.92-20.126,9.105a2.647,2.647,0,0,0-1.37,2.856c1,7.094.064,14.055-1.531,20.963a15.857,15.857,0,0,1-8.1,10.689q-11.295,6.2-22.78,12.044a33.3,33.3,0,0,0-14.465,14.115c-1.14,2.081-2.3,4.153-3.4,6.256a17.093,17.093,0,0,0-.781,2.089,46.171,46.171,0,0,1,5.929,1.089c6.846,2.212,10.054,7.585,11.768,14.11a45.188,45.188,0,0,1,1.268,19.126l.567.353a63.631,63.631,0,0,0,4.57-4.865c1.489-1.935,3.045-3.81,2.835-6.676a4.529,4.529,0,0,1,4.2-4.608c1.809-.155,2.4-1.2,2.822-2.586,1.839-6.033,3.761-12.042,5.451-18.117a110.428,110.428,0,0,1,10.445-24.443c1.892-3.37,3.913-6.667,5.78-10.05a2.505,2.505,0,0,0,0-1.958c-.934-2.089-1.565-4.128-.781-6.453a6.541,6.541,0,0,0,.045-2.3l5.833,3.468-.675,1.244,2.608-3.744C192.652,621.849,195.891,617.651,195.268,613.455Zm-68.5,73.123.673-.276c.119-1.115.172-2.242.372-3.342,1.317-7.232,4.4-13.739,7.965-20.109a37.072,37.072,0,0,1,16.958-15.8c7.33-3.476,14.9-6.566,21.43-11.475a18.921,18.921,0,0,0,5.691-6.152c3.043-6.124,3.389-12.887,3.285-19.633a33.486,33.486,0,0,0-.612-4.062,49.76,49.76,0,0,0-3.754,3.349c-2.329,2.555-4.551,5.192-5.529,8.655-.144.512-1.136.781-1.737,1.164a5.84,5.84,0,0,1-.418-1.886,6.58,6.58,0,0,1,.8-2.489,39.525,39.525,0,0,1,15.352-14.692A117.8,117.8,0,0,1,213.9,589.515c9.09-2.4,18.157-4.9,27.229-7.373a60.238,60.238,0,0,0,24.031-13.114c5.727-5.007,7.4-16.826,4.839-22.649a27.86,27.86,0,0,0-15.17-14.975c-6.835-2.954-13.934-3.208-20.926-2.344a98.025,98.025,0,0,0-22.92,5.92,144.6,144.6,0,0,0-17.253,8c-10.25,5.546-19.315,12.677-26.271,22.266-4.74,6.534-7.655,13.386-5.425,21.619.106.386-.261.9-.408,1.357-.448-.223-1.128-.333-1.3-.692a8.8,8.8,0,0,1-.917-2.871c-.227-2.132-.268-4.281-.4-6.721a16.9,16.9,0,0,0-2.947.764c-4.508,2.109-7.976,5.51-11.218,9.188-3.417,3.877-5.973,8.264-5.876,13.486a58.616,58.616,0,0,0,1.777,11.987c1.688,7.283,2.444,14.425-1.03,21.432-1.956,3.941-3.846,7.914-5.721,11.891-3,6.364-6.2,12.647-8.876,19.145a23.294,23.294,0,0,0-.754,16.149A28.423,28.423,0,0,0,126.773,686.577Zm35.351,13.584a13.067,13.067,0,0,1-1.138,1.72c-2.51,2.735-4.829,5.725-7.7,8.02a11.76,11.76,0,0,0-2.8,3.368,47.988,47.988,0,0,1-3.956,6.086c-5.047,6.013-11.832,8.3-19.449,8.651a3.69,3.69,0,0,0-2.24.605c-2.979,2.93-5.842,5.98-8.481,8.717l1.971,6.026a2.487,2.487,0,0,0,.633-.238c2.924-1.956,5.816-3.958,8.772-5.865a3.464,3.464,0,0,1,1.994-.393c.164.011.454,1.015.372,1.508-.911,5.481-1.909,10.946-2.822,16.425a25.928,25.928,0,0,0-.023,3.582c5.481-2.329,10.626-4.23,15.5-6.67,4.924-2.463,9.581-5.459,14.879-8.526-1.556-6.547-3.1-13.405-4.858-20.209-.508-1.966-1.125-3.595,1.274-4.669a3.82,3.82,0,0,0,1.236-1.329c2.062-2.848,4.062-5.74,6.166-8.553a35.822,35.822,0,0,1,2.724-2.937l.4.285.425-3.954Zm-15.541-18.215c-.968,2.164-1.8,4.009-2.625,5.861-2.563,5.771-6.876,9.857-12.044,13.373a90.892,90.892,0,0,1-17.962,9.681,20.666,20.666,0,0,0-4.434,1.818c-2.45,1.727-2.665,4.5-2.831,7.075a47.848,47.848,0,0,0,5.3,3.3c8.275,3.765,16.709,4.245,25.216.758,6.039-2.474,9.713-7.158,11.859-13.142,2.264-6.317,2-12.81.792-19.251C149.264,688.289,148.861,684.983,146.582,681.946ZM132.34,697.972l-3.525-1.633.314-.977a18.5,18.5,0,0,1,4.247.618,2.05,2.05,0,0,0,2.467-.537,28.654,28.654,0,0,0,6.623-9.649c.578-1.246-.047-1.839-1.121-2.353-2.555-1.223-5.241-1.189-7.963-1.03-.932.055-1.871.008-3.347.008,0,2.245.036,4.795-.032,7.343-.015.514-.325,1.308-.694,1.446a1.851,1.851,0,0,1-1.51-.578,44.619,44.619,0,0,1-3.89-4.423c-.917-1.249-1.69-1.4-3.03-.631a47.816,47.816,0,0,0-14.919,12.56c-4.245,5.634-6.073,11.832-4.846,18.869a64.448,64.448,0,0,1,.941,7.644,6.471,6.471,0,0,1-1.009,2.964c-.425.832-1.312,1.465-1.6,2.321-.376,1.111-.913,2.828-.393,3.427a4.6,4.6,0,0,0,3.678,1.4,4.172,4.172,0,0,0,2.814-2.633,16.1,16.1,0,0,0-.34-6.347,19.712,19.712,0,0,1,.011-10.834c1.1-3.514,4.207-4.561,7.322-5.748A69.871,69.871,0,0,0,132.34,697.972ZM120.776,678.75c-2.44,1.414-4.8,2.688-7.063,4.115-5.92,3.737-11.1,8.222-13.989,14.811A14.208,14.208,0,0,0,99,707.232a13.373,13.373,0,0,0,1.085-2.565,25.259,25.259,0,0,1,1.983-4.646,47.621,47.621,0,0,1,17.427-16.009C122.288,682.5,122.364,682.367,120.776,678.75Zm17.278,78.35-.459-.467c-1.183.705-3.255,1.274-3.387,2.14a39.861,39.861,0,0,0-.268,9.451c.2,2.285,1.775,3,4.022,2.253a17.638,17.638,0,0,0,4.2-1.962c.663-.435.922-1.478,1.363-2.247-.669-.346-1.329-.709-2.011-1.026a3.538,3.538,0,0,0-.794-.157c-2.71-.533-3.419-1.52-3.079-4.219C137.8,759.615,137.919,758.358,138.055,757.1Zm12.22-6.578c-3.671,1.4-3.962,2.09-2.438,5.294.495,1.041.966,2.092,1.478,3.122.907,1.826,2.389,2.716,4.143,1.866a27.092,27.092,0,0,0,5.016-3.62c.457-.37.607-1.117.9-1.69a6.883,6.883,0,0,0-1.988-.65C154.171,754.818,151.443,754.062,150.275,750.522Zm-19.589-70.33c4.75-.348,9.178-.474,13.184,2.293.835-1.881,1.172-3.431-.272-4.727a11.976,11.976,0,0,0-9.7-3.153,2.435,2.435,0,0,0-1.69,1.109A39.621,39.621,0,0,0,130.686,680.192Zm36.865,13.885c-.333-.3-.943-1.289-1.733-1.465-1.4-.312-2.777,1.42-2.775,3.279,0,1.425.448,2.76,2.047,3.045C166.209,699.135,167.528,696.78,167.551,694.077Zm28.174-73.233-.314.132,1.412,3.145c.8-.637,1.616-1.259,2.4-1.918,1.293-1.085.936-2.346.091-3.4a9.009,9.009,0,0,0-2.181-1.5c-.437.979-.881,1.956-1.3,2.943A2.488,2.488,0,0,0,195.725,620.844Zm25.732-18.909.832.238c1.531-1.259,3.132-2.446,4.544-3.829.37-.361.42-1.745.142-1.924-.556-.359-1.75-.554-2.13-.208a31.33,31.33,0,0,0-3.716,4.192C220.924,600.674,221.331,601.413,221.457,601.935ZM116.226,741.986l-2.1-2.495a13.875,13.875,0,0,0-2.442,2.226,2.444,2.444,0,0,0-.115,2.2c.382.635,1.775,1.438,1.973,1.272A22.487,22.487,0,0,0,116.226,741.986ZM204.514,615.68c2.654-2.1,3.189-3.582,2.07-5.685-.556-1.045-1.344-1.616-2.346-.5C203.03,610.832,203.168,614.155,204.514,615.68Zm2.383,1.162c2.465.471,4.519.915,6.5-.172.4-.221.607-.8.9-1.221-.427-.263-.843-.733-1.28-.752A7.636,7.636,0,0,0,206.9,616.842Zm7.449-7.186c3.2,1.59,6.483,1.009,7.322-1.374C219.117,608.1,216.641,607.56,214.345,609.656Zm-24.069,23.627c2.378-1.7,2.743-3.321,1.444-5.035-.3-.389-.985-.922-1.225-.809-.459.212-1.045.869-1.011,1.293A45.329,45.329,0,0,0,190.276,633.283Zm22.831-25.859a3.456,3.456,0,0,0,1.125-5.34,1.59,1.59,0,0,0-1.327.227C212.489,603.961,211.71,605.666,213.107,607.424Zm-12.7,17.595c3.361,1.385,5.183.932,6.256-1.5C204.342,622.743,202.509,623.683,200.407,625.019Zm-1.208,7.128c-1.9-.851-3.78-.246-5.23,1.682C196.292,634.863,198.373,634.194,199.2,632.147Z" transform="translate(-89.297 -526.889)"/><path class="a" d="M97.17,632c-.047-1.771,1.782-4.158,3.189-4.164,1.469-.006,3.718,2.338,3.818,3.979.108,1.807-2.1,3.705-4.34,3.727C98.135,635.56,97.234,634.362,97.17,632Zm2.92,1.951a17.351,17.351,0,0,0,2.1-2.455c.1-.163-.754-.879-1.17-1.34a14.374,14.374,0,0,0-1.83,2C99.054,632.375,99.61,633.033,100.09,633.952Z" transform="translate(-88.111 -413.481)"/><path class="a" d="M95.455,631.318A2.846,2.846,0,0,1,92.97,628a4.02,4.02,0,0,1,2.179-2.459c1.251-.446,3.349,2.039,3.276,3.525C98.372,630.2,96.846,631.351,95.455,631.318Z" transform="translate(-92.903 -416.116)"/><path class="b" d="M112.409,685.658a28.423,28.423,0,0,1-2.414-4.6,23.294,23.294,0,0,1,.754-16.149c2.68-6.5,5.873-12.781,8.876-19.145,1.875-3.977,3.765-7.95,5.721-11.891,3.474-7.007,2.718-14.148,1.03-21.432a58.616,58.616,0,0,1-1.777-11.987c-.1-5.222,2.459-9.609,5.876-13.486,3.242-3.678,6.71-7.08,11.218-9.188a16.9,16.9,0,0,1,2.947-.764c.132,2.44.172,4.589.4,6.721a8.8,8.8,0,0,0,.917,2.871c.174.359.854.469,1.3.692.146-.454.514-.97.408-1.357-2.23-8.233.686-15.085,5.425-21.619,6.956-9.59,16.021-16.72,26.271-22.266a144.574,144.574,0,0,1,17.253-8,98.019,98.019,0,0,1,22.92-5.92c6.992-.864,14.091-.609,20.926,2.344a27.859,27.859,0,0,1,15.17,14.974c2.563,5.822.888,17.641-4.839,22.649a60.236,60.236,0,0,1-24.031,13.114c-9.071,2.476-18.138,4.969-27.229,7.373a117.8,117.8,0,0,0-26.647,10.318,39.524,39.524,0,0,0-15.352,14.692,6.578,6.578,0,0,0-.8,2.489,5.84,5.84,0,0,0,.418,1.886c.6-.382,1.593-.652,1.737-1.164.979-3.463,3.2-6.1,5.529-8.655a49.748,49.748,0,0,1,3.754-3.349,33.478,33.478,0,0,1,.612,4.062c.1,6.746-.242,13.509-3.285,19.633a18.921,18.921,0,0,1-5.691,6.152c-6.532,4.909-14.1,8-21.43,11.475a37.073,37.073,0,0,0-16.958,15.8c-3.565,6.37-6.648,12.876-7.965,20.109-.2,1.1-.253,2.228-.372,3.342Z" transform="translate(-74.934 -525.97)"/><path class="c" d="M151.412,608.489l2.875,1.65-.425,3.954-.4-.285a35.822,35.822,0,0,0-2.724,2.937c-2.1,2.814-4.1,5.706-6.166,8.553a3.821,3.821,0,0,1-1.236,1.329c-2.4,1.074-1.782,2.7-1.274,4.669,1.76,6.8,3.3,13.662,4.858,20.209-5.3,3.066-9.955,6.062-14.879,8.526-4.875,2.44-10.021,4.34-15.5,6.67a25.928,25.928,0,0,1,.023-3.582c.913-5.479,1.911-10.944,2.822-16.425.083-.493-.208-1.5-.372-1.508a3.462,3.462,0,0,0-1.994.393c-2.956,1.907-5.848,3.909-8.772,5.865a2.492,2.492,0,0,1-.633.238l-1.971-6.026c2.639-2.737,5.5-5.786,8.481-8.717a3.69,3.69,0,0,1,2.24-.605c7.617-.354,14.4-2.637,19.449-8.651a47.993,47.993,0,0,0,3.956-6.086,11.76,11.76,0,0,1,2.8-3.368c2.869-2.3,5.188-5.285,7.7-8.02A13.07,13.07,0,0,0,151.412,608.489Z" transform="translate(-78.586 -435.217)"/><path class="b" d="M140.988,599.911c2.278,3.036,2.682,6.343,3.268,9.473,1.206,6.44,1.472,12.934-.792,19.251-2.147,5.984-5.82,10.668-11.859,13.142-8.506,3.487-16.941,3.007-25.216-.758a47.856,47.856,0,0,1-5.3-3.3c.166-2.574.38-5.349,2.831-7.075a20.66,20.66,0,0,1,4.434-1.818,90.9,90.9,0,0,0,17.962-9.681c5.168-3.517,9.481-7.6,12.044-13.373C139.185,603.92,140.02,602.075,140.988,599.911Zm-3.09,33.2a4.3,4.3,0,0,0-3.72-3.937c-1.79-.108-4.1,2-4.117,3.767-.025,2.228,1.968,4.678,3.863,4.744C135.932,637.751,137.845,635.551,137.9,633.107Zm-9.73-3.034c-.813-1.119-1.595-2.266-2.472-3.332-.136-.168-.767-.066-1.064.1-.151.085-.2.68-.062.894,1.408,2.194.552,3.937-.945,5.657-.268.306-.1.994-.13,1.506.537.021,1.227.267,1.586.023A7.042,7.042,0,0,0,128.169,630.072ZM136.079,618c0,1.907.446,3.72-.113,5.141-.726,1.849.125,2.049,1.306,2.452,2.253-2.72,2.574-4.289,1.232-6.266C137.856,618.378,137.058,617.538,136.079,618Zm-.864,4.725c-1.123-.72-1.743-1.389-2.419-1.45-.437-.04-.956.809-1.438,1.259.58.554,1.083,1.312,1.773,1.571C133.475,624.239,134.163,623.458,135.214,622.729Zm-15.231,6.753-1.427,1.544a8.756,8.756,0,0,0,1.913,1.423c.219.089,1.242-.966,1.166-1.115A9.986,9.986,0,0,0,119.983,629.482Z" transform="translate(-83.703 -444.854)"/><path class="d" d="M130.9,615.733a69.871,69.871,0,0,1-19.805,11.233c-3.115,1.187-6.22,2.234-7.322,5.748a19.712,19.712,0,0,0-.011,10.834,16.1,16.1,0,0,1,.34,6.347,4.171,4.171,0,0,1-2.814,2.633,4.6,4.6,0,0,1-3.678-1.4c-.52-.6.017-2.317.393-3.427.291-.856,1.178-1.489,1.6-2.321a6.471,6.471,0,0,0,1.009-2.964,64.444,64.444,0,0,0-.941-7.644c-1.227-7.037.6-13.235,4.846-18.869a47.814,47.814,0,0,1,14.919-12.56c1.34-.766,2.113-.618,3.03.631a44.605,44.605,0,0,0,3.89,4.423,1.851,1.851,0,0,0,1.51.578c.369-.138.679-.932.694-1.446.068-2.548.032-5.1.032-7.343,1.476,0,2.414.047,3.347-.008,2.722-.159,5.408-.193,7.963,1.03,1.074.514,1.7,1.106,1.121,2.353A28.655,28.655,0,0,1,134.4,613.2a2.05,2.05,0,0,1-2.467.537,18.512,18.512,0,0,0-4.247-.618l-.314.977Zm-13.841,5.531c.854-3,1.595-5.82,2.465-8.6.505-1.612,1.291-3.134,1.79-4.746.149-.478-.251-1.123-.4-1.69-.556.189-1.486.24-1.612.586-1.41,3.863-2.831,7.731-3.93,11.69A2.235,2.235,0,0,0,117.06,621.264ZM114.5,609.617c-.42-.514-1.359-1.108-2.219.236a24.955,24.955,0,0,0-4.056,12.373c-.034.7.737,1.446,1.159,2.217Zm8.483,8.681c.618-1.72,1.2-3.344,1.786-4.971.07-.191.227-.42.172-.571-.238-.661-.539-1.3-.818-1.945-.522.391-1.259.675-1.523,1.2a16.929,16.929,0,0,0-1.2,3.429A2.177,2.177,0,0,0,122.982,618.3Zm14.938-11.467c-1.327-2.151-4.8-3.011-7.1-2.083C132.559,607.523,135.247,606.2,137.92,606.831Zm-2.646,3.854c-1.533-1.966-2.966-2.2-4.646-.964C131.83,611.428,133.37,611.1,135.274,610.685Z" transform="translate(-87.857 -444.65)"/><path class="b" d="M119.518,598.406c1.588,3.616,1.512,3.746-1.283,5.262a47.622,47.622,0,0,0-17.427,16.009,25.263,25.263,0,0,0-1.983,4.646,13.374,13.374,0,0,1-1.085,2.565,14.208,14.208,0,0,1,.726-9.555c2.888-6.589,8.069-11.074,13.989-14.811C114.719,601.094,117.078,599.82,119.518,598.406Z" transform="translate(-88.039 -446.545)"/><path class="b" d="M118.127,635.551c-.136,1.257-.255,2.514-.412,3.767-.34,2.7.369,3.686,3.079,4.219a3.538,3.538,0,0,1,.794.157c.682.317,1.342.68,2.011,1.026-.442.769-.7,1.811-1.363,2.247a17.639,17.639,0,0,1-4.2,1.962c-2.247.743-3.818.032-4.022-2.253a39.862,39.862,0,0,1,.268-9.451c.132-.866,2.2-1.435,3.387-2.14Z" transform="translate(-69.369 -405.339)"/><path class="b" d="M123.369,632.206c1.168,3.54,3.9,4.3,7.109,4.321a6.887,6.887,0,0,1,1.988.65c-.291.573-.442,1.321-.9,1.69a27.089,27.089,0,0,1-5.016,3.62c-1.754.849-3.236-.04-4.143-1.866-.512-1.03-.983-2.081-1.478-3.122C119.406,634.3,119.7,633.6,123.369,632.206Z" transform="translate(-62.391 -408.573)"/><path class="b" d="M112.4,602.088a39.615,39.615,0,0,1,1.527-4.478,2.435,2.435,0,0,1,1.69-1.109,11.975,11.975,0,0,1,9.7,3.153c1.444,1.3,1.106,2.845.272,4.727C121.572,601.614,117.145,601.739,112.4,602.088Z" transform="translate(-71.006 -448.784)"/><path class="b" d="M132.141,606.419c-.023,2.7-1.342,5.058-2.461,4.858-1.6-.284-2.045-1.62-2.047-3.045,0-1.858,1.376-3.591,2.775-3.279C131.2,605.13,131.808,606.117,132.141,606.419Z" transform="translate(-53.887 -439.23)"/><path class="e" d="M143.19,573.009a2.488,2.488,0,0,1,.1-.6c.423-.987.866-1.964,1.3-2.943a9,9,0,0,1,2.181,1.5c.845,1.055,1.2,2.317-.091,3.4-.781.658-1.6,1.281-2.4,1.918l-1.412-3.145Z" transform="translate(-36.762 -479.054)"/><path class="e" d="M155.345,565.354c-.125-.522-.533-1.261-.327-1.531a31.329,31.329,0,0,1,3.716-4.192c.38-.346,1.573-.151,2.13.208.278.178.227,1.563-.142,1.924-1.412,1.382-3.013,2.569-4.544,3.829Z" transform="translate(-23.186 -490.308)"/><path class="b" d="M108.159,629.506a22.485,22.485,0,0,1-2.684,3.2c-.2.166-1.59-.637-1.973-1.272a2.444,2.444,0,0,1,.115-2.2,13.87,13.87,0,0,1,2.442-2.226Z" transform="translate(-81.231 -414.409)"/><path class="e" d="M147.746,572.3c-1.346-1.525-1.484-4.848-.276-6.188,1-1.113,1.79-.542,2.346.5C150.936,568.716,150.4,570.194,147.746,572.3Z" transform="translate(-32.529 -483.507)"/><path class="e" d="M148.285,570.393a7.635,7.635,0,0,1,6.126-2.145c.437.019.854.488,1.28.751-.3.416-.5,1-.9,1.221C152.8,571.309,150.75,570.865,148.285,570.393Z" transform="translate(-30.686 -480.441)"/><path class="e" d="M151.793,566.7c2.3-2.1,4.771-1.554,7.322-1.374C158.276,567.707,155,568.289,151.793,566.7Z" transform="translate(-26.745 -483.932)"/><path class="e" d="M140.878,580.094a45.332,45.332,0,0,1-.792-4.55c-.034-.425.552-1.081,1.011-1.293.24-.112.93.42,1.225.809C143.621,576.773,143.256,578.391,140.878,580.094Z" transform="translate(-39.899 -473.699)"/><path class="e" d="M151.632,567.68c-1.4-1.758-.618-3.463-.2-5.113a1.591,1.591,0,0,1,1.327-.227A3.456,3.456,0,0,1,151.632,567.68Z" transform="translate(-27.821 -487.145)"/><path class="e" d="M145.229,574.044c2.1-1.336,3.935-2.276,6.256-1.5C150.412,574.976,148.59,575.429,145.229,574.044Z" transform="translate(-34.119 -475.914)"/><path class="e" d="M147.427,576.658c-.826,2.047-2.907,2.716-5.23,1.682C143.647,576.412,145.531,575.807,147.427,576.658Z" transform="translate(-37.525 -471.4)"/><path class="f" d="M99.494,633.011a2.045,2.045,0,0,1-1.777-2.153c.191-1.053.83-2.459,2.684-2.136a2.693,2.693,0,0,1,1.705,1.707C102.615,631.659,101.445,633.011,99.494,633.011Z" transform="translate(-87.514 -412.54)"/><path class="f" d="M93.718,628.906a1.7,1.7,0,0,1,.1-2.312,1.859,1.859,0,0,1,2.841.172,2.249,2.249,0,0,1,.1,2C96.393,629.808,94.919,629.991,93.718,628.906Z" transform="translate(-92.451 -415.535)"/><path class="a" d="M122.573,617.629c-.053,2.444-1.966,4.644-3.975,4.574-1.894-.066-3.888-2.516-3.863-4.744.021-1.767,2.327-3.875,4.117-3.767A4.3,4.3,0,0,1,122.573,617.629Zm-2.009-.214-1.465-1.522a9.708,9.708,0,0,0-1.841,2.3c-.159.393.665,1.183,1.043,1.792Z" transform="translate(-68.377 -429.376)"/><path class="a" d="M116.328,615.923a7.042,7.042,0,0,1-3.085,4.848c-.359.244-1.049,0-1.586-.023.032-.512-.138-1.2.13-1.506,1.5-1.72,2.353-3.463.945-5.657-.136-.214-.089-.809.062-.894.3-.166.928-.268,1.064-.1C114.734,613.657,115.515,614.8,116.328,615.923Z" transform="translate(-71.862 -430.705)"/><path class="a" d="M117.771,608.5c.979-.467,1.777.374,2.425,1.327,1.342,1.977,1.021,3.546-1.232,6.266-1.181-.4-2.032-.6-1.306-2.452C118.217,612.223,117.771,610.409,117.771,608.5Z" transform="translate(-65.395 -435.352)"/><path class="a" d="M119.2,611.635c-.9,2-1.941,1.773-2.287,1.644a2.012,2.012,0,0,1-1.569-1.835,1.839,1.839,0,0,1,1.76-1.656C117.58,609.824,119.338,609.93,119.2,611.635Z" transform="translate(-67.691 -433.76)"/><path class="a" d="M110.744,613.837c1.758.138,2.045,1.045,2.028,2.072,0,0-.612,1.083-1.486,1.176a1.747,1.747,0,0,1-1.968-1.705A1.589,1.589,0,0,1,110.744,613.837Z" transform="translate(-74.464 -429.209)"/><path class="a" d="M107.589,618.018a2.235,2.235,0,0,1-1.686-2.76c1.1-3.958,2.521-7.827,3.93-11.69.125-.346,1.055-.4,1.612-.586.149.567.548,1.213.4,1.69-.5,1.612-1.285,3.134-1.79,4.746C109.184,612.2,108.443,615.016,107.589,618.018Z" transform="translate(-78.386 -441.404)"/><path class="a" d="M108.77,604.888l-5.115,14.826c-.423-.771-1.193-1.514-1.159-2.217a24.955,24.955,0,0,1,4.056-12.373C107.411,603.779,108.35,604.374,108.77,604.888Z" transform="translate(-82.129 -439.921)"/><path class="a" d="M110.338,612.627a2.177,2.177,0,0,1-1.582-2.86,16.93,16.93,0,0,1,1.2-3.429c.263-.522,1-.807,1.522-1.2.278.646.58,1.285.818,1.945.055.151-.1.38-.172.571C111.542,609.283,110.956,610.907,110.338,612.627Z" transform="translate(-75.213 -438.98)"/><path class="a" d="M120.239,604.564c-2.673-.631-5.362.692-7.105-2.083C115.436,601.553,118.912,602.413,120.239,604.564Z" transform="translate(-70.176 -442.383)"/><path class="a" d="M117.692,605.994c-1.9.414-3.444.743-4.646-.964C114.726,603.792,116.159,604.028,117.692,605.994Z" transform="translate(-70.275 -439.959)"/><path class="g" d="M120.188,616.719a2.556,2.556,0,0,1-2.523,2.945,3.733,3.733,0,0,1-2.164-2.321,2.647,2.647,0,0,1,2.351-2.945A2.466,2.466,0,0,1,120.188,616.719Z" transform="translate(-67.517 -428.579)"/></svg>