<svg xmlns="http://www.w3.org/2000/svg" width="83.615" height="178.316" viewBox="0 0 83.615 178.316"><defs><style>.a{fill:#573622;}.b{fill:#d4ebf3;}.c{fill:#fbccb0;}.d{fill:#fff;}.e{fill:#c95483;}.f{fill:#96d1d6;}.g{fill:#653738;}.h{fill:#f6dac9;}.i{fill:#e99c95;}</style></defs><g transform="translate(-267.895 -99.092)"><path class="a" d="M297.887,241.5c-1.857.851-3.711,1.636-5.5,2.551a4.339,4.339,0,0,0-1.6,1.476c-2.04,3.224-4.437,3.562-6.539.455-1.184-1.748-2.634-2.256-4.4-2.932a59.507,59.507,0,0,1-8.614-4.2c-1.727-1-1.921-2.623-1.727-4.812.306-3.453,1.093-7.121-.748-10.511-1.442-2.65-1.133-3.937,1.189-5.866a3.232,3.232,0,0,0,.9-1.181c1.229-2.942,3.719-4.344,6.523-5.273,1.386-.458,2.365-.875,2.543-2.636.091-.87,1.29-2.314,1.961-2.3,1.482.035,3.432.407,4.31,1.41a13.126,13.126,0,0,0,4.352,3.126c4.328,2.165,8.09,5.028,9.625,9.968a3.621,3.621,0,0,0,.543.835c2.916-1.79,3.078-2.4.793-4.65-7.478-7.358-11.907-23.463-4.2-35.876a6.524,6.524,0,0,0,.665-3.746q11.959-23.591,23.923-47.185l-.79-.822-7.286,4.464c-1.713-.388-2.059-2.267-2.469-4.073-1.149-5.052-1.141-5.054,3.291-7.56,1.447-.817,2.9-1.625,4.977-2.791-2.652-.958-4.594-1.729-6.584-2.357-1.974-.62-2.543-1.812-1.809-3.7.186-.476.367-.952.575-1.418,2.548-5.688,4.147-6.2,9.571-3.049.782.452,1.577.881,2.689,1.5.269-2.509.455-4.687.745-6.85.426-3.187,1.349-3.961,4.57-4.078,1.692-.061,3.389-.117,5.07-.3,1.764-.194,2.365.572,2.064,2.2-.474,2.559-.984,5.113-1.554,8.053,2.064-.689,4.049-2.772,5.145-.186.769,1.812,4.379,2.58,2.317,5.422a51.334,51.334,0,0,1-4.147,4.461c1.862.29,3.24.492,4.613.724,2.719.46,3.514,1.961,2.083,4.344-1.155,1.923-1.971,4.267-5.235,3.692-1.825-.322-3.833.41-6.225.729.508,4.312.686,8.64,1.578,12.82,1.926,9.045,4.19,18.02,6.379,27.009a34.411,34.411,0,0,0,1.615,4.56,17.658,17.658,0,0,1,.822,11.37,3.092,3.092,0,0,0-.061,1.918c2.142,4.44,2.064,9.034,1.165,13.721a20.986,20.986,0,0,0-.237,2.144c2.235,1.139,4.19,2,5.98,3.136a2.655,2.655,0,0,1,.753,2.157c-.186,1.708-.732,3.373-1,5.076-.585,3.714-4.179,5.826-8.555,4.916-.91-.189-1.8-.79-2.674-.75a4.723,4.723,0,0,0-2.823,1.006,2.691,2.691,0,0,0-.359,2.413c2.189,5.525,4.578,10.971,6.778,16.491,2.1,5.281,4.1,10.6,6.044,15.943,1.293,3.551,1.107,4.815-2.431,6.2-3.974,1.551-5.347,3.591-4.006,7.7a4.29,4.29,0,0,1-1,3.488c-3.168,3.472-6.643,6.672-11.532,7.459a7.432,7.432,0,0,1-3.86-.519c-2.211-.926-2.477-2.269-1.04-4.243.894-1.229,2.29-2.208,2.823-3.554a7.21,7.21,0,0,0,.189-4.467c-.178-.588-2.086-.737-3.232-.91-.737-.112-1.54.239-2.28.138-4.389-.609-6.845,1.216-7.342,5.645a3.348,3.348,0,0,1-.277.71c-1.147,3.094-1.894,6.589-6,7.1-4.993.622-9.518-.287-12.756-4.589a7.166,7.166,0,0,1-1.093-2.28c-.575-1.992.263-3.158,2.322-3.248,1.269-.053,2.557.157,3.815.04,2.184-.2,2.562-.665,2.99-3.418-2.272-.412-4.552-.912-6.858-1.218-2.176-.293-3.174-1.144-2.692-3.541C295.812,253.173,296.815,247.336,297.887,241.5Zm6.355-17.76a14.791,14.791,0,0,1,2.977,2.336c1.82,2.482,4.331,2.724,7.034,2.57,3.134-.178,6.267-.476,9.4-.521.774-.011,1.559.761,2.341,1.173-.673.524-1.322,1.463-2.024,1.5-4.472.269-8.957.309-13.437.5a2.7,2.7,0,0,0-1.812.782c-1,1.221-1.8,2.6-2.844,4.15,3.879,3.541,8.718,4.4,13.777,4.629a27.6,27.6,0,0,1,3.794.231c.487.09.854.833,1.277,1.277-.447.415-.867,1.163-1.343,1.2-6.134.471-12.045-.213-17.241-3.9-1.245-.886-2.338-1.987-3.615-2.815-.431-.277-1.213-.016-1.836,0a12.543,12.543,0,0,1,.341,1.439,11.093,11.093,0,0,1,.271,3.317c-1.021,5.158-2.171,10.3-3.328,15.427-.458,2.024.231,2.737,2.314,3.134,9.651,1.849,19.308,1.123,28.925.082,6.036-.652,12.1-1.668,17.786-4.727-2.655-12.535-10.343-23.123-13.732-35.3a4.573,4.573,0,0,0-1.085.011c-.639.226-1.264.495-1.881.777-7.4,3.363-14.919,4.411-22.6,1.024C305.745,221.173,304.9,222.048,304.242,223.737Zm18.414-36.288c-7.542,6.632-15.666,11.907-26.831,12.492,1.953,4.592,3.235,8.973,5.549,12.713,3.376,5.456,8.4,8.773,15.219,8.577a29.573,29.573,0,0,0,17.526-6.073c5.794-4.48,7.56-11.133,8.159-18.254C333.7,197.67,327.618,193.916,322.656,187.449Zm-37.142,24.937c-6.158-.013-10.62,4.517-10.529,10.875a24.241,24.241,0,0,0,3.264,12.415c3.9,6.448,9.25,8.106,15.666,4.227a9.868,9.868,0,0,0,3.966-6.145c.471-2.684.221-5.618.287-8.412C298.339,218.231,292.085,212.147,285.514,212.386ZM314.551,129.3c.971-.436,1.862-.894,2.793-1.245a19.631,19.631,0,0,1,3.147-.995c2.735-.524,4.477.325,5.507,2.828a31.94,31.94,0,0,1,1.123,4.328c2.99-1.314,3.283-2.219,1.407-4.461-.995-1.189-.889-2.149.537-2.482a91.446,91.446,0,0,1,9.891-1.857c2.014-.242,2.993-1.08,3.4-3.267a38.669,38.669,0,0,1-5.477-.074,3.7,3.7,0,0,1-2.437-1.639,2.914,2.914,0,0,1,.564-2.546c1.2-1.413,2.751-2.525,4.014-3.892.367-.4.239-1.256.341-1.9-.641-.027-1.468-.319-1.886-.029-1.032.718-1.809,1.8-2.817,2.554a16.785,16.785,0,0,1-2.66,1.359,9.711,9.711,0,0,1-.508-3.128c.615-3.48,1.458-6.917,2.205-10.335-5.1-1.695-5.775-1.274-6.313,3.613-.242,2.195-.466,4.395-.822,6.573a11.587,11.587,0,0,1-.974,2.394,62.519,62.519,0,0,0-6.033-4.363c-2.982-1.663-3.386-1.389-5.028,1.609-.8,1.46-.88,2.277,1.059,3a25.179,25.179,0,0,1,5.89,3.384c1.668,1.21,1.069,2.429-.556,3.288-1.726.912-3.408,1.923-5.185,2.724C313.47,125.761,313.274,127.206,314.551,129.3Zm22.016,30.311a5.6,5.6,0,0,0-.92.279c-9.194,5.914-19.6,8.694-29.957,11.6-1.407.394-4.208,4.395-4.142,5.932.013.306.162.785.38.875,1.665.7,3.482,2.078,5.028,1.83A49.73,49.73,0,0,0,318.429,177c6.044-2.559,11.883-5.61,17.736-8.6a3.354,3.354,0,0,0,1.644-2.49A44.5,44.5,0,0,0,336.567,159.612Zm-3.208-9.941c-1.011.591-2.059,1.288-3.176,1.844-5.743,2.854-11.431,5.834-17.283,8.444a13.953,13.953,0,0,0-7.595,10.729c8.319-3.208,16.6-5.783,24.3-9.548,7.906-3.868,7.151-2.184,4.115-11.144C333.7,149.929,333.6,149.887,333.358,149.671Zm-13.28,36.719-.3-.9-19.319-3.95c-1.907,3.743-4.3,7.9-4.405,12.939-.043,2.008.883,2.7,2.639,2.2,3.23-.92,6.6-1.625,9.569-3.112C312.369,191.506,316.155,188.811,320.078,186.39ZM338.615,169.2c-4.775,2.479-9.071,5.036-13.631,6.986-4.514,1.931-9.29,3.248-14.482,5.015.958.152,1.351.231,1.748.271a10.637,10.637,0,0,1,1.522.117c8.875,2.274,17.475.364,26.084-1.636,1.458-.338,1.825-1.109,1.439-2.37C340.432,174.776,339.511,171.991,338.615,169.2Zm-6.831-29.507c-4.411,2.607-8.393,5.414-12.745,7.417-4.969,2.29-5.743,7.058-8.1,11.04.495.184.694.333.8.285,6.882-3.394,13.772-6.778,20.606-10.263a2.24,2.24,0,0,0,.785-1.894C332.808,144.119,332.273,141.994,331.783,139.69Zm-6.651,45.7c2.628,5.743,10.189,9.659,15.552,8.558,1.62-.333,2.264-1.085,1.825-2.6a59.679,59.679,0,0,0-2.237-6.738,2.615,2.615,0,0,0-2.152-1.181C333.861,183.951,329.629,184.685,325.133,185.39Zm-11.245,79.589c-4.687-1.742-5.6-1.3-7.358,2.155a5.287,5.287,0,0,1-3.07,2.2,28.515,28.515,0,0,1-5.222.551c1.144,3.5,4.11,5.328,8.582,4.8C312.529,274.021,311.531,268.442,313.888,264.979Zm17.84-1.955c-.221,2.442-.04,4.525-.676,6.318-.662,1.875-2.115,3.474-3.442,5.536,4.453-.535,7.35-2.95,10.165-5.536,2.285-2.1,2.777-3.759,1.319-6.454-1.2-2.213-3.134-.537-4.73-.436A15.272,15.272,0,0,0,331.728,263.024ZM317.663,145.253l.652.748c4.161-2.719,8.343-5.411,12.455-8.2.412-.279.412-1.165.678-2-2.043.694-3.8,1.913-5.166,1.564-1.21-.306-1.979-2.352-3.046-3.77C321.432,137.37,319.546,141.31,317.663,145.253Zm22.21,68.892a27.65,27.65,0,0,0,4.467.38c1.838-.149,3.195-1.077,3.269-3.19.059-1.639.146-3.272.247-5.552-1.335.335-3.5.223-4.318,1.218C341.985,208.9,341.2,211.426,339.873,214.145Zm-36.57,12.7c-1.394.38-3.277.724-3.118,2.961.112,1.554-.032,3.629,2.362,3.82a3.827,3.827,0,0,0,3.551-3.645C305.958,228.515,305.729,226.815,303.3,226.842Zm-30.332,12.006c1.178-1.072,2.6-2.032,2.482-2.317a15.739,15.739,0,0,0-2.283-3.118c-.774.846-1.969,1.6-2.179,2.564C270.848,236.645,272.064,237.608,272.971,238.847Zm-1.016-14.974.372-4.9-.7-.521c-.726.787-1.9,1.49-2.078,2.384C269.289,222.186,269.742,223.66,271.955,223.873Zm9.016-14.767.551.96,3.8-.556.287-.814c-.721-.463-1.532-1.4-2.141-1.282C282.559,207.587,281.8,208.5,280.97,209.106Z" transform="translate(0 0)"/><path class="b" d="M285.552,148.157c.66-1.689,1.5-2.564,3.458-1.7,7.685,3.386,15.206,2.338,22.6-1.024.617-.282,1.242-.551,1.881-.777a4.573,4.573,0,0,1,1.085-.011c3.389,12.179,11.077,22.766,13.732,35.3-5.69,3.059-11.75,4.075-17.786,4.727-9.617,1.04-19.273,1.766-28.925-.082-2.083-.4-2.772-1.109-2.314-3.134,1.157-5.132,2.306-10.268,3.328-15.427a11.093,11.093,0,0,0-.271-3.317,12.543,12.543,0,0,0-.341-1.439c.623-.016,1.4-.277,1.836,0,1.277.827,2.37,1.929,3.615,2.815,5.2,3.69,11.106,4.373,17.241,3.9.476-.037.9-.785,1.343-1.2-.423-.444-.79-1.186-1.277-1.277a27.6,27.6,0,0,0-3.794-.231c-5.06-.231-9.9-1.088-13.777-4.629,1.04-1.548,1.846-2.929,2.844-4.15a2.7,2.7,0,0,1,1.812-.782c4.48-.194,8.965-.234,13.437-.5.7-.04,1.351-.979,2.024-1.5-.782-.412-1.567-1.184-2.341-1.173-3.136.045-6.27.343-9.4.521-2.7.154-5.214-.088-7.034-2.57A14.791,14.791,0,0,0,285.552,148.157Z" transform="translate(18.69 75.58)"/><path class="c" d="M305.225,132.306c4.961,6.467,11.04,10.221,19.622,9.454-.6,7.121-2.365,13.775-8.159,18.254a29.573,29.573,0,0,1-17.526,6.073c-6.821.2-11.843-3.12-15.219-8.577-2.315-3.74-3.6-8.122-5.549-12.713C289.559,144.213,297.683,138.938,305.225,132.306Zm-12.133,22.825c-.3,3.456,1.737,6.893,4.448,7.236a7.081,7.081,0,0,0,7.584-6.246c.109-1.543-.468-2.179-2.067-1.992C299.827,154.506,296.587,154.785,293.092,155.131Zm18.1-5.842c-1.484-1.131-2.362-2.312-3.272-2.336-.732-.021-2.165,1.426-2.1,2.094a3.4,3.4,0,0,0,2.1,2.41C308.609,151.622,309.633,150.385,311.192,149.289Zm-19.93-3.23c-.918,1.463-1.931,2.514-1.729,2.868a6.246,6.246,0,0,0,2.522,2.243c.213.106,1.782-1.4,1.652-1.87C293.435,148.321,292.451,147.538,291.262,146.059Z" transform="translate(17.431 55.143)"/><path class="d" d="M281.09,141.684c6.571-.239,12.825,5.845,12.655,12.961-.067,2.793.184,5.727-.287,8.412a9.868,9.868,0,0,1-3.966,6.145c-6.416,3.879-11.764,2.221-15.666-4.227a24.241,24.241,0,0,1-3.264-12.415C270.47,146.2,274.932,141.671,281.09,141.684Z" transform="translate(4.424 70.702)"/><path class="e" d="M285.924,127.727c-1.277-2.1-1.08-3.541,1.181-4.565,1.777-.8,3.458-1.812,5.185-2.724,1.625-.859,2.224-2.078.556-3.288a25.179,25.179,0,0,0-5.89-3.384c-1.939-.718-1.86-1.535-1.059-3,1.641-3,2.046-3.272,5.028-1.609a62.519,62.519,0,0,1,6.033,4.363,11.587,11.587,0,0,0,.974-2.394c.357-2.179.58-4.379.822-6.573.537-4.887,1.21-5.307,6.313-3.613-.748,3.418-1.591,6.855-2.205,10.335a9.711,9.711,0,0,0,.508,3.128,16.785,16.785,0,0,0,2.66-1.359c1.008-.758,1.785-1.836,2.817-2.554.418-.29,1.245,0,1.886.029-.1.646.027,1.5-.341,1.9-1.264,1.367-2.815,2.479-4.014,3.892a2.914,2.914,0,0,0-.564,2.546,3.7,3.7,0,0,0,2.437,1.639,38.669,38.669,0,0,0,5.477.074c-.407,2.187-1.386,3.025-3.4,3.267a91.446,91.446,0,0,0-9.891,1.857c-1.426.333-1.532,1.293-.537,2.482,1.875,2.243,1.583,3.147-1.407,4.461a31.94,31.94,0,0,0-1.123-4.328c-1.029-2.5-2.772-3.352-5.507-2.828a19.631,19.631,0,0,0-3.147.995C287.786,126.833,286.9,127.29,285.924,127.727Z" transform="translate(28.626 1.575)"/><path class="e" d="M315.565,121.842a44.5,44.5,0,0,1,1.242,6.3,3.354,3.354,0,0,1-1.644,2.49c-5.853,2.987-11.692,6.039-17.736,8.6a49.73,49.73,0,0,1-11.474,3.136c-1.546.247-3.363-1.128-5.028-1.83-.218-.09-.367-.569-.38-.875-.067-1.538,2.735-5.539,4.142-5.932,10.356-2.91,20.763-5.69,29.957-11.6A5.6,5.6,0,0,1,315.565,121.842Z" transform="translate(21.002 37.77)"/><path class="f" d="M310.012,118.105c.245.215.341.258.362.325,3.035,8.96,3.791,7.276-4.115,11.144-7.7,3.764-15.983,6.339-24.3,9.548a13.953,13.953,0,0,1,7.595-10.729c5.852-2.61,11.54-5.589,17.283-8.444C307.953,119.393,309,118.7,310.012,118.105Z" transform="translate(23.347 31.566)"/><path class="g" d="M302.505,134.938c-3.924,2.421-7.709,5.116-11.817,7.172-2.966,1.487-6.339,2.192-9.569,3.112-1.756.5-2.682-.192-2.639-2.2.106-5.041,2.5-9.2,4.405-12.939l19.319,3.95Z" transform="translate(17.573 51.452)"/><path class="f" d="M312.024,125.445c.9,2.793,1.817,5.579,2.679,8.382.386,1.261.019,2.032-1.439,2.37-8.609,2-17.209,3.911-26.084,1.636a10.637,10.637,0,0,0-1.522-.117c-.4-.04-.79-.12-1.748-.271,5.193-1.766,9.968-3.083,14.482-5.015C302.953,130.481,307.249,127.924,312.024,125.445Z" transform="translate(26.591 43.752)"/><path class="e" d="M304.922,114.353c.49,2.3,1.024,4.429,1.338,6.584a2.24,2.24,0,0,1-.785,1.894c-6.834,3.485-13.724,6.869-20.606,10.263-.1.048-.3-.1-.8-.285,2.36-3.982,3.134-8.75,8.1-11.04C296.529,119.767,300.512,116.96,304.922,114.353Z" transform="translate(26.861 25.337)"/><path class="g" d="M289.411,132.764c4.5-.7,8.728-1.439,12.987-1.966a2.615,2.615,0,0,1,2.152,1.181,59.679,59.679,0,0,1,2.237,6.738c.439,1.519-.2,2.272-1.825,2.6C299.6,142.423,292.039,138.507,289.411,132.764Z" transform="translate(35.722 52.626)"/><path class="c" d="M294.951,162.071c-2.357,3.464-1.359,9.042-7.068,9.713-4.472.524-7.438-1.309-8.582-4.8a28.515,28.515,0,0,0,5.222-.551,5.287,5.287,0,0,0,3.07-2.2C289.354,160.77,290.264,160.329,294.951,162.071Z" transform="translate(18.937 102.908)"/><path class="c" d="M294.46,161.511a15.272,15.272,0,0,1,2.636-.572c1.6-.1,3.533-1.777,4.73.436,1.458,2.695.966,4.349-1.319,6.454-2.815,2.586-5.712,5-10.165,5.536,1.327-2.062,2.78-3.66,3.442-5.536C294.42,166.036,294.239,163.953,294.46,161.511Z" transform="translate(37.268 101.513)"/><path class="f" d="M286.6,123.722c1.883-3.942,3.77-7.882,5.573-11.662,1.067,1.418,1.836,3.464,3.046,3.77,1.362.349,3.123-.87,5.166-1.564-.266.838-.266,1.724-.678,2-4.113,2.791-8.295,5.483-12.455,8.2Z" transform="translate(31.06 21.53)"/><path class="g" d="M294.952,147.559c1.327-2.719,2.112-5.246,3.666-7.143.817-.995,2.982-.883,4.318-1.218-.1,2.28-.189,3.913-.247,5.552-.074,2.112-1.431,3.041-3.269,3.19A27.65,27.65,0,0,1,294.952,147.559Z" transform="translate(44.921 66.585)"/><path class="h" d="M283.157,147.114c2.426-.027,2.655,1.673,2.8,3.136A3.827,3.827,0,0,1,282.4,153.9c-2.394-.192-2.25-2.266-2.362-3.82C279.879,147.838,281.763,147.495,283.157,147.114Z" transform="translate(20.146 79.728)"/><path class="d" d="M271.046,155.019c-.907-1.24-2.123-2.2-1.979-2.87.21-.966,1.4-1.719,2.179-2.564a15.739,15.739,0,0,1,2.283,3.118C273.65,152.986,272.224,153.947,271.046,155.019Z" transform="translate(1.926 83.829)"/><path class="d" d="M270.962,149.38c-2.213-.213-2.666-1.687-2.4-3.035.176-.894,1.351-1.6,2.078-2.384l.7.521Z" transform="translate(0.993 74.493)"/><path class="d" d="M272.81,141.509c.825-.6,1.588-1.519,2.493-1.692.609-.114,1.421.819,2.141,1.282l-.287.814-3.8.556Z" transform="translate(8.16 67.597)"/><path class="a" d="M283.937,141.532c3.5-.346,6.736-.625,9.965-1,1.6-.186,2.176.45,2.067,1.992a7.081,7.081,0,0,1-7.584,6.246C285.674,148.424,283.639,144.987,283.937,141.532Zm1.971,1.788c.689,2.243,2.777,3.871,4.65,3.5,2.133-.423,3.2-1.9,3.379-4.211Z" transform="translate(26.586 68.742)"/><path class="a" d="M294.073,140.544a2.5,2.5,0,0,1-3.267,2.168,2.434,2.434,0,0,1-2.1-2.41c0-.673.931-2.729,2.288-2.729C291.9,137.573,294.331,138.209,294.073,140.544Z" transform="translate(34.55 63.888)"/><path class="a" d="M284.6,137.476c3.147,0,3.243,2.668,2.767,3.73a2.3,2.3,0,0,1-1.974,1.381,2.394,2.394,0,0,1-2.889-1.748A2.728,2.728,0,0,1,284.6,137.476Z" transform="translate(24.093 63.726)"/><path class="i" d="M284.66,142l8.029-.713c-.181,2.314-1.245,3.788-3.379,4.211C287.437,145.874,285.349,144.246,284.66,142Z" transform="translate(27.834 70.059)"/></g></svg>