<svg xmlns="http://www.w3.org/2000/svg" width="60.068" height="83.068" viewBox="0 0 60.068 83.068"><defs><style>.a{fill:#573622;}.b{fill:#c6557a;}.c{fill:#e6b0be;}.d{fill:#fff;}.e{fill:#458673;}</style></defs><path class="a" d="M257.644,776.218c-3.307.03-4.1.928-3.1,3.7a18.709,18.709,0,0,0,2.476,4.109c1.82,2.615,1.34,4.525-1.774,4.91a20.465,20.465,0,0,1-7.1-.866c-.575-.139-1.1-1.638-1.157-2.545-.162-2.39-.055-4.8-.055-7.546-2.7.452-5.065.9-7.444,1.219a2.822,2.822,0,0,1-1.97-.358c-.277-.224-.076-1.2.09-1.788,1.388-4.883,2.825-9.754,4.227-14.636a11.814,11.814,0,0,0,.164-1.774c-1.4.753-2.506,1.342-3.608,1.942-.388.21-.741.584-1.148.649-2.171.351-3.231,1.52-3.8,3.723a3.575,3.575,0,0,1-4.125,2.64,6.36,6.36,0,0,1-3.52-2.552c-1.111-1.635-.416-3.455.841-4.869,4.576-5.144,9.2-10.241,13.8-15.364a6.437,6.437,0,0,0,.52-.815,22.132,22.132,0,0,1-10.9-10.273c-4.137-8.37-.462-19.441,7.16-24.088a22.9,22.9,0,0,1,12.378-3.832c.868.014,1.751-.75,2.621-1.169.487-.236,1.13-.815,1.407-.67.471.245.721.931,1.039,1.446.206.333.279.831.566,1.014,1.984,1.257,4.01,2.446,6.019,3.666,6.144,3.723,9.206,9.093,8.733,16.357a4.011,4.011,0,0,0,.2.861c1.349-1.044,2.6-2.012,3.806-2.947a47.884,47.884,0,0,1,.074-5.839c.109-.88.88-2.2,1.591-2.379,1.591-.409,2.079-1.439,2.524-2.721a15.483,15.483,0,0,1,.873-2.033c.663-1.282,1.61-2.252,3.171-1.642s3.065,1.589,2.522,3.589a6.526,6.526,0,0,0,.277,4.437c.949,2.374-.545,6.079-2.647,7.682a6.182,6.182,0,0,0-1.9,2.284,71.488,71.488,0,0,1-11.826,18.805,3.977,3.977,0,0,0-.993,4.379c1.48,4.317,2.783,8.7,4.042,13.085a3.289,3.289,0,0,1-.3,2.446c-1.25,1.864-2.023,4.245-4.726,4.774-.356.069-.873,1.319-.688,1.76a25.853,25.853,0,0,0,2.31,4.153c.39.6,1.176.926,1.591,1.513,1.06,1.5,2.27,3.051,1.455,5.047-.568,1.386-4.019,2.612-5.867,2.312-4.716-.767-5.834-3.728-7.43-9.322A22.365,22.365,0,0,1,257.644,776.218ZM247.236,714.9a9.744,9.744,0,0,1-2.09,1.5c-.554.224-1.333-.1-2.012-.18a13.758,13.758,0,0,1,.644-1.815c.152-.3.649-.418.818-.716a19.713,19.713,0,0,0,.864-1.954,5.821,5.821,0,0,0-1.94-.319,18.7,18.7,0,0,0-2.7.975c-8.324,2.94-12.807,14.613-8.832,22.515,3.566,7.1,9.694,9.957,17.071,10.846,4.01.483,8.022.423,11.22-2.635a22.788,22.788,0,0,0,3.663-4.1c3.118-4.943,4.606-10.188,3.2-16.163-1.513-6.421-6.76-8.975-11.613-11.962-.905-.559-2.324-.282-3.506-.39l-.219.566c1.039.991,2.13,1.933,3.1,2.989a10.054,10.054,0,0,1,1.113,1.9,7.8,7.8,0,0,1-2.337-.337,21.6,21.6,0,0,1-2.785-1.822l-2.058,3.735Zm-6.927,61.761a11.066,11.066,0,0,0,1.963-.014c6.259-1.3,12.539-2.5,18.752-4,2.725-.656,5.569-1.5,7.389-3.912a5.315,5.315,0,0,0,1.106-3.1,15.082,15.082,0,0,0-1.083-3.792l-3.961-12.743c3.723-2.3,13.158-16.609,13.627-20.424-1.626-.984-2.9-.7-4.319.658-2.317,2.215-4.781,4.081-5.839,7.442a16.815,16.815,0,0,1-7.71,9.37c-2.273,1.36-4.585,2.423-7.463,1.862a51.949,51.949,0,0,0-7.691-.621,3.347,3.347,0,0,0-2.282.547c-4.1,4.167-8.091,8.433-12.119,12.671,2.52,2.294,2.723,2.374,5.017.938,2.432-1.52,4.753-3.215,7.19-4.723a10.046,10.046,0,0,1,2.5-.758,9.942,9.942,0,0,1,.039,2.79C243.8,764.734,242.074,770.577,240.31,776.666Zm23.4-2.266c-4.017.508-4.321.9-3.511,4.488a25.653,25.653,0,0,0,.947,2.933c1.356,3.779,2.014,4.234,6.014,3.686a3.183,3.183,0,0,0,2.217-1.337,2.583,2.583,0,0,0-.862-2.24A12.307,12.307,0,0,1,263.711,774.4Zm17.944-61.191c-.7,1.64-1.344,3.2-2.044,4.731a4.539,4.539,0,0,1-1,1.543c-.751.656-2.016.993-2.363,1.776a7.484,7.484,0,0,0-.182,3.487,1.912,1.912,0,0,0,1.016,1.2c2.7,1.33,5.971-.8,5.913-4.4-.044-2.566-1-5.139-.559-7.8C282.44,713.683,282.207,713.584,281.655,713.209Zm-29.409,63.965c-2.069-.185-3.287.354-3.25,2.444.035,1.818.148,3.635.088,5.451a1.772,1.772,0,0,0,1.776,2.051,12.21,12.21,0,0,0,3.065.12c2.088-.279,2.5-1.344,1.081-2.94A9.536,9.536,0,0,1,252.246,777.174Zm-19.581-12.228c-1.173-.935-1.776-1.82-2.4-1.838a2.5,2.5,0,0,0-2.739,2.561c0,.693,1.441,2.067,1.608,1.977A26.071,26.071,0,0,0,232.665,764.946Z" transform="translate(-225.253 -705.948)"/><path class="b" d="M244.247,712.322l1.6,2.624,2.058-3.735a21.587,21.587,0,0,0,2.785,1.822,7.792,7.792,0,0,0,2.337.337,10.053,10.053,0,0,0-1.113-1.9c-.97-1.055-2.06-2-3.1-2.989l.219-.566c1.183.109,2.6-.169,3.506.39,4.853,2.987,10.1,5.541,11.613,11.962,1.409,5.975-.079,11.22-3.2,16.163a22.775,22.775,0,0,1-3.663,4.1c-3.2,3.058-7.211,3.118-11.22,2.635-7.377-.889-13.5-3.749-17.071-10.846-3.975-7.9.508-19.575,8.832-22.515a18.688,18.688,0,0,1,2.7-.975,5.816,5.816,0,0,1,1.94.319,19.713,19.713,0,0,1-.864,1.954c-.169.3-.665.416-.818.716a13.758,13.758,0,0,0-.644,1.815c.679.079,1.457.4,2.012.18A9.747,9.747,0,0,0,244.247,712.322Zm4.483,21.094c1.134,3.019,2.663,4.192,5.051,4.063,2.19-.12,3.529-1.45,4.16-4.134.319-1.358-.21-2.072-1.6-1.774C253.855,732.1,251.391,732.765,248.73,733.417Zm-2.776-5.58c1.183.836,1.88,1.7,2.573,1.7.575,0,1.148-1.03,1.723-1.6-.637-.608-1.192-1.506-1.94-1.714C247.848,726.093,247.093,727.014,245.954,727.837Zm14.9-2.379c-1.226-.732-1.875-1.377-2.578-1.443-.43-.042-1.421,1.051-1.335,1.215a3.485,3.485,0,0,0,1.605,1.742C258.944,727.111,259.69,726.257,260.849,725.457Z" transform="translate(-222.264 -703.365)"/><path class="c" d="M237.232,764.105c1.765-6.089,3.495-11.932,5.121-17.808a9.943,9.943,0,0,0-.039-2.79,10.05,10.05,0,0,0-2.5.758c-2.437,1.508-4.758,3.2-7.19,4.723-2.294,1.437-2.5,1.356-5.017-.938,4.028-4.238,8.022-8.5,12.119-12.671a3.346,3.346,0,0,1,2.282-.547,51.99,51.99,0,0,1,7.691.621c2.878.561,5.19-.5,7.463-1.862a16.815,16.815,0,0,0,7.71-9.37c1.058-3.36,3.522-5.227,5.839-7.442,1.418-1.353,2.693-1.642,4.319-.658-.469,3.816-9.9,18.122-13.627,20.425l3.961,12.743a15.079,15.079,0,0,1,1.083,3.792,5.314,5.314,0,0,1-1.106,3.1c-1.82,2.409-4.663,3.256-7.389,3.912-6.213,1.494-12.493,2.7-18.752,4A11.079,11.079,0,0,1,237.232,764.105Z" transform="translate(-222.176 -693.387)"/><path class="d" d="M244.1,735.585a12.307,12.307,0,0,0,4.806,7.53,2.582,2.582,0,0,1,.862,2.24,3.182,3.182,0,0,1-2.217,1.337c-4,.547-4.659.093-6.014-3.686a25.653,25.653,0,0,1-.947-2.933C239.778,736.488,240.083,736.093,244.1,735.585Z" transform="translate(-205.642 -667.133)"/><path class="d" d="M252.909,709.092c.552.374.785.474.776.534-.439,2.661.515,5.234.559,7.8.058,3.6-3.213,5.735-5.913,4.4a1.912,1.912,0,0,1-1.016-1.2,7.483,7.483,0,0,1,.182-3.488c.346-.783,1.612-1.12,2.363-1.776a4.54,4.54,0,0,0,1-1.543C251.565,712.291,252.2,710.732,252.909,709.092Z" transform="translate(-196.507 -701.83)"/><path class="d" d="M238.783,736.805a9.536,9.536,0,0,0,2.76,7.125c1.416,1.6,1.007,2.661-1.081,2.94a12.207,12.207,0,0,1-3.065-.12,1.772,1.772,0,0,1-1.776-2.051c.06-1.815-.053-3.633-.088-5.451C235.5,737.159,236.714,736.62,238.783,736.805Z" transform="translate(-211.79 -665.579)"/><path class="d" d="M231.379,732.535a26.074,26.074,0,0,1-3.536,2.7c-.166.09-1.61-1.284-1.608-1.977a2.5,2.5,0,0,1,2.739-2.561C229.6,730.715,230.205,731.6,231.379,732.535Z" transform="translate(-223.967 -673.537)"/><path class="a" d="M236.712,720.043c2.661-.651,5.125-1.312,7.615-1.845,1.386-.3,1.915.416,1.6,1.774-.631,2.684-1.97,4.014-4.16,4.134C239.375,724.235,237.846,723.062,236.712,720.043Zm1.8.785a2.9,2.9,0,0,0,3.8,2.2c1.651-.381,2.19-1.848,2.153-3.95Z" transform="translate(-210.246 -689.992)"/><path class="a" d="M235.51,717.789a2.446,2.446,0,0,1,2.511-2.178,2.068,2.068,0,0,1,1.785,2.277c-.178,1.6-1.252,1.979-1.827,1.979A2.1,2.1,0,0,1,235.51,717.789Z" transform="translate(-211.82 -693.318)"/><path class="a" d="M244.178,716.609c-.554,1.529-1.34,1.792-2.282,1.776-1.3-.021-1.626-1.2-1.631-2-.007-.831,1.291-1.654,1.718-1.7A1.9,1.9,0,0,1,244.178,716.609Z" transform="translate(-205.593 -694.517)"/><path class="d" d="M237.492,720.291l5.957-1.749c.037,2.1-.5,3.568-2.153,3.95A2.9,2.9,0,0,1,237.492,720.291Z" transform="translate(-209.224 -689.454)"/><path class="e" d="M241.506,710.135l-.182.471c.866.824,1.774,1.612,2.582,2.49a8.445,8.445,0,0,1,.926,1.578,6.4,6.4,0,0,1-1.947-.28,18.048,18.048,0,0,1-2.319-1.517l-1.716,3.111-1.333-2.187a8.017,8.017,0,0,1-1.739,1.247,3.1,3.1,0,0,1-2.176.5,21.912,21.912,0,0,1,1.183-1.915c.127-.25,1.185-1.979,1.326-2.227.289-.513-3.418-1.427-3.185-1.972,2.451-.423,5.721-.873,6.368-.677a7.745,7.745,0,0,1,2.384-1.841c.406-.194,1.584-.843,1.815-.723.393.2.637,1.176.9,1.605C244.567,708.078,242.564,709.154,241.506,710.135Z" transform="translate(-215.218 -705.643)"/></svg>