<svg xmlns="http://www.w3.org/2000/svg" width="96.005" height="78.986" viewBox="0 0 96.005 78.986"><defs><style>.a{fill:#573622;}.b{fill:#f6d4de;}.c{fill:#fff;}</style></defs><path class="a" d="M210.516,777.275a18,18,0,0,1,2.089,1.947,3.193,3.193,0,0,1-1.531,5.164c-1.452.554-2.956,1.852-4.279,1.669a14.228,14.228,0,0,1-5.88-2.448,16.835,16.835,0,0,1-7.587-12.441,5,5,0,0,1-.006-2.215c.784-1.992-.225-3.338-1.123-5a41.765,41.765,0,0,1-3.266-8.218c-.423-1.448-.735-2.4-2.408-2.2-1.6.191-3.211.314-4.795.6-3.289.592-6.409.527-8.772-2.251a4.509,4.509,0,0,1-.745-2.68c2.661.887,4.387,3.9,7.7,2.4a2.9,2.9,0,0,0-.011-.832c-.76-2.816-.5-3.671,1.361-4.342a3.916,3.916,0,0,1,5.045,2.206c.376.826.881,1.593,1.329,2.389a14.26,14.26,0,0,0,1.408-2.8c1.584-6.27,5.895-10.46,11.2-13.32,6.3-3.4,13.042-5.958,19.574-8.923,3.576-1.622,7.135-3.281,10.643-5.041a4.83,4.83,0,0,0,1.482-1.841c1.688-2.682,3.107-5.466,6.457-6.725,1.476-.554,2.535-2.257,3.746-3.476a5.56,5.56,0,0,1,7.64-.537,1.449,1.449,0,0,1,.491,2.219c-.569.994-1,2.066-1.582,3.285a27.276,27.276,0,0,0,4.638,2.907c3.243,1.234,6.031-.215,8.307-2.408,1.535-1.482,2.814-1.306,4.294-.225a6.08,6.08,0,0,1,1.423,7.852c-.648,1.023-1.3,2.049-1.862,2.941.883.522,2.327.922,2.427,1.537a6.224,6.224,0,0,1-.718,3.631,19.406,19.406,0,0,1-8.022,8.4c-.911.493-1.384,1.741-2.185,2.512-1.741,1.677-3.565,3.27-5.436,4.971,1.474,2.038,3.744,1.922,6.067,1.907.956,0,2.491.314,2.733.907a3.715,3.715,0,0,1-.546,3.07c-1.667,2.247-3.829,3.831-6.882,3.593a16.948,16.948,0,0,0-2.17.1l-.306.679c1.512.813,3.036,1.6,4.527,2.453.775.444,2.121,1.019,2.1,1.486a4.3,4.3,0,0,1-1.376,2.68c-2.149,1.968-5,1.973-7.426,1.244a37.17,37.17,0,0,1-8.088-4.079,1.826,1.826,0,0,0-2.584.106c-1.841,1.452-3.89,2.642-5.846,3.952-.478.321-.93.679-1.391,1.017a5.162,5.162,0,0,1-3.553,7.938,1.781,1.781,0,0,1-.964-.176c-2.461-1.278-4.931-2.546-7.349-3.9-.851-.476-1.607-.726-1.932.384A12.805,12.805,0,0,1,210.516,777.275Zm46.629-26.6a7.92,7.92,0,0,1-1.355-.37,63.891,63.891,0,0,1-6.107-3.083,2.457,2.457,0,0,1-.616-2.293,38.265,38.265,0,0,1,3.516-3c.966-.894,2.569-1.546,1.7-3.432-.064-.14.512-.688.877-.892,1.474-.828,3.043-1.5,4.461-2.4a11.884,11.884,0,0,0,5.472-6.963,14.682,14.682,0,0,1-3.8.3c-.7-.127-1.389-1.045-1.788-1.769-.13-.236.563-1.168,1.064-1.467,2.663-1.6,4.858-3.546,5.122-6.852a7.982,7.982,0,0,0-.745-2.61,7.82,7.82,0,0,0-1.968.9,10.5,10.5,0,0,1-11.919,1.355,63.036,63.036,0,0,0-6.071-3.1c-3.189-1.423-8.358-.418-9.11,3.2,4.78.431,6.757,1.478,7.47,4.224-1.96-.673-3.78-1.833-5.557-1.767-1.947.072-3.854,1.274-5.88,2.022,1.83,2.7,4.141,3.589,6.585,3.041.569-.127,1.272.335,1.913.527-.3.59-.5,1.6-.907,1.69a7.11,7.11,0,0,1-3.812.161,18.207,18.207,0,0,1-4.593-2.945,2.448,2.448,0,0,0-2.915-.374c-5.578,2.431-11.256,4.646-16.775,7.2a95.523,95.523,0,0,0-11.944,6.4,17.8,17.8,0,0,0-7.642,9.241,2.64,2.64,0,0,0,.525,2.141c.936,1.085,1.268,1.8-.193,2.737a2.765,2.765,0,0,0-1.062,2.058,15.734,15.734,0,0,0,4.026,10.184c1.161,1.321,2.089,2.455.637,4.181a3.078,3.078,0,0,0-.217,1.966c.548,6.572,4.519,10.488,10.209,13.04.558.251,5.009-1.911,5.075-2.516a2.018,2.018,0,0,0-.372-1.467c-.6-.618-1.429-1-2.1-1.565-.609-.516-1.13-1.136-2.123-2.155,7.986-2.053,8.523-8.651,10.2-14.537,2.716.516,1.367,2.631,1.631,4.236,5.623-.818,10.864-2.238,15.469-5.453,1.76-1.227,4.035-2.225,3.221-5.381a5,5,0,0,1,2.38,1.2,16.6,16.6,0,0,0,8.3,5.272,8.012,8.012,0,0,0,6.513-.582,38,38,0,0,1-3.332-2.257,27.315,27.315,0,0,1-2.686-2.762,7.117,7.117,0,0,1-1.813-6.011c.064-.416.552-.769.845-1.151.4.323.958.569,1.153.987.21.448-.028,1.091.125,1.588.18.586.433,1.37.894,1.616C251.5,754.24,255.467,753.078,257.144,750.674Zm-35.2,17.064-.051.531c.894.427,1.794.839,2.678,1.28,2.833,1.416,3.984.788,4.336-2.489C226.375,765.5,224.224,767.231,221.942,767.739Zm25.749-58.008c-2.4-.777-3.51-.185-4.64,2.474C246.024,713.37,246.82,712.945,247.691,709.73Zm-66.02,39.035-.132,1.117,2.633.27c-.019-.361.03-1.015-.066-1.036A24.453,24.453,0,0,0,181.671,748.766Z" transform="translate(-172.213 -707.087)"/><path class="b" d="M247.156,746.82c-1.677,2.4-5.646,3.565-8.012,2.31-.461-.246-.713-1.03-.894-1.616-.153-.5.085-1.14-.125-1.588-.2-.418-.754-.665-1.153-.987-.293.382-.781.735-.845,1.151a7.117,7.117,0,0,0,1.813,6.011,27.3,27.3,0,0,0,2.686,2.762,37.983,37.983,0,0,0,3.332,2.257,8.013,8.013,0,0,1-6.513.582,16.6,16.6,0,0,1-8.3-5.273,5,5,0,0,0-2.38-1.2c.813,3.155-1.461,4.153-3.221,5.381-4.606,3.215-9.846,4.635-15.469,5.453-.263-1.605,1.085-3.72-1.631-4.236-1.675,5.886-2.213,12.484-10.2,14.537.994,1.019,1.514,1.639,2.123,2.155.667.56,1.495.947,2.1,1.565a2.019,2.019,0,0,1,.372,1.467c-.066.605-4.517,2.767-5.075,2.516-5.691-2.552-9.662-6.468-10.209-13.04a3.078,3.078,0,0,1,.217-1.966c1.452-1.726.524-2.86-.637-4.181A15.734,15.734,0,0,1,181.1,750.7a2.765,2.765,0,0,1,1.062-2.058c1.461-.941,1.13-1.652.193-2.737a2.639,2.639,0,0,1-.525-2.14,17.8,17.8,0,0,1,7.642-9.241,95.532,95.532,0,0,1,11.944-6.4c5.519-2.559,11.2-4.773,16.775-7.2a2.448,2.448,0,0,1,2.915.374,18.206,18.206,0,0,0,4.593,2.945,7.109,7.109,0,0,0,3.812-.161c.408-.089.609-1.1.907-1.69-.641-.191-1.344-.654-1.913-.527-2.444.548-4.754-.342-6.585-3.041,2.026-.748,3.933-1.949,5.88-2.022,1.777-.066,3.6,1.094,5.557,1.767-.713-2.746-2.69-3.793-7.47-4.224.752-3.616,5.92-4.621,9.11-3.2a63.036,63.036,0,0,1,6.071,3.1,10.5,10.5,0,0,0,11.919-1.355,7.82,7.82,0,0,1,1.968-.9,7.983,7.983,0,0,1,.745,2.61c-.263,3.306-2.459,5.253-5.122,6.852-.5.3-1.193,1.232-1.064,1.467.4.724,1.085,1.642,1.788,1.769a14.679,14.679,0,0,0,3.8-.3,11.885,11.885,0,0,1-5.472,6.963c-1.418.907-2.988,1.576-4.461,2.4-.365.2-.941.752-.877.892.868,1.886-.735,2.538-1.7,3.432a38.26,38.26,0,0,0-3.516,3,2.457,2.457,0,0,0,.616,2.293,63.927,63.927,0,0,0,6.107,3.083A7.937,7.937,0,0,0,247.156,746.82Zm-5.432-28.2c-.631.962-1.374,1.614-1.261,2.039a2.348,2.348,0,0,0,1.493,1.455c.4.083,1.493-.917,1.416-1.2C243.179,720.2,242.5,719.623,241.724,718.616Z" transform="translate(-162.225 -703.232)"/><path class="b" d="M195.659,736.346c2.283-.508,4.434-2.238,6.963-.677-.352,3.277-1.5,3.9-4.336,2.489-.883-.442-1.784-.854-2.678-1.28Z" transform="translate(-145.93 -675.694)"/><path class="b" d="M210.213,708.5c-.871,3.215-1.667,3.64-4.64,2.474C206.7,708.315,207.815,707.722,210.213,708.5Z" transform="translate(-134.735 -705.856)"/><path class="c" d="M176.737,726.715a24.452,24.452,0,0,1,2.436.35c.1.021.047.675.066,1.036l-2.633-.27Z" transform="translate(-167.279 -685.036)"/><path class="a" d="M210.569,714.332c1.909.5,2.213,1.915,1.93,2.459a2.144,2.144,0,0,1-1.7,1.034,2.64,2.64,0,0,1-1.937-1.378A1.83,1.83,0,0,1,210.569,714.332Z" transform="translate(-131.069 -698.948)"/></svg>