<svg xmlns="http://www.w3.org/2000/svg" xmlns:xlink="http://www.w3.org/1999/xlink" width="170.015" height="194.438" viewBox="0 0 170.015 194.438"><defs><style>.a{fill:#573622;}.b{fill:#8c4b49;}.c{fill:#dfcec7;}.d{fill:url(#a);}.e{fill:#addced;}.f{fill:#fff;}.g{fill:#f4bab1;}</style><linearGradient id="a" y1="0.5" x2="1" y2="0.5" gradientUnits="objectBoundingBox"><stop offset="0" stop-color="#adc283"/><stop offset="0.537" stop-color="#f4d9c9"/><stop offset="1" stop-color="#ffe0a9"/></linearGradient></defs><g transform="translate(-74.572 -1362.896)"><g transform="translate(74.572 1362.896)"><path class="a" d="M97.212,670.518c-5.193-.032-10.138-.2-14.4-3.429-4.586-3.473-7.614-7.608-6.477-13.771a9.883,9.883,0,0,1,6.437-7.728c3.184-1.252,6.579-1.967,9.883-2.91,1.337-.38,2.667-.81,4.029-1.075.443-.087,1.278.145,1.423.462,2.357,5.181,4.9,10.3,6.834,15.643a9.839,9.839,0,0,1-1.986,10.532C101.336,669.989,99.211,670.286,97.212,670.518Zm4.1-3.247a6.951,6.951,0,0,0,.932-.742c2.465-2.867,2.53-6.091,1.13-9.372-1.828-4.282-3.808-8.5-5.788-12.717-.194-.409-.932-.93-1.28-.844q-5.544,1.361-11.032,2.925a11.471,11.471,0,0,0-6.671,5.042,13.97,13.97,0,0,0-1.05,2.806C88.154,654.21,96.961,656.412,101.309,667.271ZM77.657,656.506c-.384,6.435,10.61,15.087,21.819,11.04C98.724,661.221,88.461,654.693,77.657,656.506Z" transform="translate(-76.097 -641.586)"/><path class="b" d="M100.62,666.323c-4.348-10.859-13.155-13.062-23.759-12.9a13.969,13.969,0,0,1,1.05-2.806,11.471,11.471,0,0,1,6.671-5.042q5.489-1.558,11.032-2.925c.348-.086,1.086.435,1.28.844,1.98,4.215,3.96,8.436,5.788,12.717,1.4,3.281,1.335,6.505-1.13,9.372A6.951,6.951,0,0,1,100.62,666.323Z" transform="translate(-75.407 -640.637)"/><path class="c" d="M76.922,649.576c10.8-1.813,21.067,4.715,21.819,11.04C87.531,664.663,76.537,656.01,76.922,649.576Z" transform="translate(-75.362 -634.656)"/></g><g transform="translate(110.913 1393.148)"><path class="a" d="M208,796.662l3.7,11.6c.285-.1,1.018-.3,1.716-.588,1.423-.578,2.9-.344,3.585.85a4.467,4.467,0,0,1,.185,3.523,6.95,6.95,0,0,1-5.468,4.089,4.641,4.641,0,0,1-3.608-1.564c-2.353-3.005-5.115-2.145-7.964-1.354-.207.057-.371.268-.846.635a9.3,9.3,0,0,1,2.058,1.227c.746.782,1.86,1.788,1.794,2.615-.078.966-1.2,1.9-1.986,2.733-.34.358-1.033.348-1.493.626-3.819,2.3-8.67-2.24-8.015-5.8.291-1.592-.205-2.248-1.826-2.246a7.374,7.374,0,0,1-1.919-.544c-1.265-.367-1.636-1.081-1.385-2.452.711-3.88,1.255-7.791,1.845-11.694.08-.525.057-1.067.1-1.91-3,1.4-5.87,2.509-8.5,4.04a5.325,5.325,0,0,1-8.185-3.958,3.121,3.121,0,0,1,2.868-3.576c2.564-.177,4.145-1.9,5.938-3.258a25.076,25.076,0,0,0,3.121-3.285c.643-.708.569-1.286-.177-1.99-8.748-8.253-17.3-16.727-26.232-24.769A160.723,160.723,0,0,1,130.1,728.126c-3.017-4.611-5.562-9.529-8.363-14.283-2.094-3.551-4.063-7.2-6.433-10.558-3.507-4.974-8.046-8.734-14.1-10.336a3.243,3.243,0,0,1-.877-.586c.761-1.967.164-4.635,3.253-5.113a49.985,49.985,0,0,1-3.359-6.231c-2.083-5.634-4.567-11.192-4.517-17.391a3.927,3.927,0,0,0-.179-.884c-.635-2.779-.525-2.965,2.157-3.665,3.138-.82,3.138-.82,4.2,2.206.059.167.126.333.3.8.148-.59.253-.936.323-1.288.536-2.7,2.764-4.04,5.293-2.889a3.289,3.289,0,0,1,1.375,2.446,78.587,78.587,0,0,1,.068,9.275c-.453,7.454,2.161,13.809,6.606,19.576a4.941,4.941,0,0,0,.81.544c-.289-3.095-.546-5.881-.812-8.666a5.1,5.1,0,0,1-.173-1.075c.124-.942.192-2.617.531-2.68a16.782,16.782,0,0,1,4.55-.021c.755.068,1.466.667,2.218.711,2.068.12,2.589.529,2.6,2.621.008,1.638-.093,3.277-.143,4.915-.192,6.243.146,12.457,2.868,18.182a86.421,86.421,0,0,0,12.742,19.222,132.9,132.9,0,0,0,10.235,11.1A122.528,122.528,0,0,0,172.1,749.909c7.582,4.477,15,9.24,22.692,13.518a112.54,112.54,0,0,0,29.13,11.251,9.105,9.105,0,0,1,3.306,1.446,3.927,3.927,0,0,1,1.624,2.461,27.152,27.152,0,0,1-4.32,15.528c-1.377,2.246-3.89,2.376-6.149,2.5C214.946,796.8,211.488,796.662,208,796.662Zm-23.4-36.476c-.607-.491-.953-.826-1.35-1.08-6.29-4.029-12.807-7.747-18.823-12.147a199.377,199.377,0,0,1-18.4-15.129c-6.18-5.767-11.085-12.725-15.616-19.848-2.593-4.074-5.231-8.323-5.936-13.2-.666-4.6-.711-9.3-.97-13.955-.093-1.678-.015-3.365-.015-5.08-1.527-.156-2.376.1-1.946,1.74a15.72,15.72,0,0,1,.557,2.855,6.276,6.276,0,0,1-.409,1.794c-.5-.472-1.3-.86-1.459-1.429-.479-1.681-.654-3.445-1.069-5.145-.11-.443-.668-.778-1.02-1.162-.217.405-.658.837-.614,1.214.436,3.863,1,7.711,1.4,11.578a3.337,3.337,0,0,1-.582,2.534c-1.065.875-1.653-.327-2.237-1.08-.148-.19-.337-.35-.5-.533-5.569-6.37-8.9-13.5-8.135-22.251a60.51,60.51,0,0,0-.306-9.25c-.034-.512-.73-.982-1.122-1.47-.536.529-1.484,1.02-1.535,1.59-.185,2.1.029,4.236-.114,6.344-.065.97-.43,2.6-.957,2.731-1.5.377-1.438-1.257-1.752-2.195-.8-2.391-1.5-4.82-2.25-7.279l-2.427.525c.865,11.18,4.133,21.237,11.964,29.712a3.055,3.055,0,0,1-1.961.084c-.477-.183-.789-.763-1.253-1.031-1.862-1.071-3.1-.654-2.956,1.008a1.974,1.974,0,0,0,1.1,1.333,24.934,24.934,0,0,1,9.936,6.553,44.834,44.834,0,0,1,6.809,9.821c2.252,4.487,5.252,8.592,7.694,12.989,6.851,12.337,15.806,23.011,25.824,32.826,6.29,6.161,13.041,11.861,19.2,18.144a110.8,110.8,0,0,0,21.191,17.417c7.49,4.575,15.757,5.814,24.375,4.972,1.248-.124,2.982-.458,3.565-1.322a22.425,22.425,0,0,0,4.2-12.959c-.04-2.642-.673-3.112-3.207-3.9-6.024-1.875-12.179-3.466-17.973-5.9-6.246-2.627-12.143-6.09-18.2-9.181-.47-.24-.968-.422-1.453-.632l.16.588-2.437,1.278.1.167-1.716,1.019a6.7,6.7,0,0,1-.428-2.068c.036-.371.692-.759,1.145-.993A12.1,12.1,0,0,1,184.6,760.186ZM181.8,797.4a11.036,11.036,0,0,0,2.258-.689c1.51-.846,2.962-1.809,4.4-2.771a9.8,9.8,0,0,0,1.234-1.17c.361.616,1.006,1.221,1.029,1.851a25.836,25.836,0,0,1-.316,4.525c-.476,3.361-1.029,6.712-1.56,10.068-.152.953-.268,1.914,1.031,2.085,5.72.753,11.384.962,16.683-1.925,2.393-1.3,2.916-2.709,1.912-5.246-.913-2.311-1.775-4.651-2.874-6.872a4.543,4.543,0,0,0-2.153-1.815c-3.517-1.592-7.173-2.893-10.614-4.624a59.134,59.134,0,0,1-6.334-4.175c-2.284,1.972-4.373,3.789-6.475,5.592-.822.7-1.3,1.343-.312,2.365A25.76,25.76,0,0,1,181.8,797.4Zm11.742,17.891c-.027,2.893,2.7,5.657,5.988,4.021a3.007,3.007,0,0,0,1.565-1.68c.084-.415-.864-1.109-1.432-1.573-.679-.552-1.864-.846-2.1-1.512-.578-1.643-1.8-1.36-2.787-1.071C194.24,813.636,193.951,814.659,193.546,815.293Zm21.623-5.714c-1.828.1-3.6.068-5.326.331A11.773,11.773,0,0,0,207,811.241c1.836,1.562,2.941,3.812,5.366,2.872C214.644,813.229,215.623,811.106,215.169,809.579Zm-35.793-12.246a3.149,3.149,0,0,0-2.594-2.81,2.711,2.711,0,0,0-2.994,2.294,3.212,3.212,0,0,0,2.826,2.855A2.726,2.726,0,0,0,179.376,797.334Z" transform="translate(-95.203 -657.491)"/><path class="d" d="M183.739,759.4a12.1,12.1,0,0,0-1.891.593c-.453.234-1.109.622-1.145.993a6.7,6.7,0,0,0,.428,2.068l1.716-1.019-.1-.167,2.437-1.278-.16-.588c.485.209.983.392,1.453.631,6.052,3.091,11.949,6.555,18.2,9.181,5.794,2.437,11.949,4.027,17.973,5.9,2.534.788,3.167,1.257,3.207,3.9a22.424,22.424,0,0,1-4.2,12.959c-.582.864-2.317,1.2-3.565,1.322-8.618.842-16.885-.4-24.375-4.972a110.8,110.8,0,0,1-21.191-17.417c-6.163-6.283-12.913-11.983-19.2-18.144-10.018-9.815-18.973-20.489-25.825-32.826-2.442-4.4-5.442-8.5-7.694-12.989a44.835,44.835,0,0,0-6.809-9.821,24.934,24.934,0,0,0-9.936-6.553,1.974,1.974,0,0,1-1.1-1.333c-.146-1.662,1.094-2.079,2.956-1.008.464.268.776.848,1.253,1.031a3.055,3.055,0,0,0,1.961-.084c-7.831-8.476-11.1-18.532-11.964-29.712l2.427-.525c.753,2.459,1.447,4.888,2.25,7.279.314.938.249,2.571,1.752,2.195.527-.131.892-1.761.957-2.731.143-2.107-.07-4.242.114-6.344.051-.57,1-1.061,1.535-1.59.392.489,1.088.959,1.122,1.47a60.51,60.51,0,0,1,.306,9.25c-.763,8.746,2.566,15.88,8.135,22.251.16.183.348.342.5.533.584.753,1.172,1.955,2.237,1.08a3.337,3.337,0,0,0,.582-2.534c-.4-3.867-.966-7.715-1.4-11.578-.044-.377.4-.808.614-1.214.352.384.909.719,1.02,1.162.415,1.7.59,3.464,1.069,5.145.162.569.955.957,1.459,1.428a6.276,6.276,0,0,0,.409-1.794,15.717,15.717,0,0,0-.557-2.855c-.43-1.638.418-1.9,1.946-1.74,0,1.716-.078,3.4.015,5.08.259,4.658.3,9.353.97,13.956.706,4.879,3.344,9.128,5.936,13.2,4.531,7.123,9.436,14.081,15.616,19.848a199.369,199.369,0,0,0,18.4,15.129c6.016,4.4,12.533,8.118,18.823,12.147C182.786,758.579,183.132,758.914,183.739,759.4Zm1.7,13c3.133,1.914,6.073.3,6.594-3.133.173-1.134.654-2.859-.943-3.013-1.649-.16-1.193,1.56-1.217,2.64-.049,2.1-.679,2.749-2.764,2.958A8.01,8.01,0,0,0,185.436,772.4Zm-8.607-2.262.55-.409c-1.592-2.313.734-2.235,1.678-3.007-.744-1.421-1.883-1.185-2.79-.675a2.327,2.327,0,0,0-1.259,3.038C175.242,769.609,176.2,769.8,176.829,770.142Z" transform="translate(-94.342 -656.71)"/><path class="e" d="M141.986,736.15a25.766,25.766,0,0,0-2.087-2.8c-.993-1.021-.51-1.661.312-2.364,2.1-1.8,4.19-3.62,6.475-5.592a59.14,59.14,0,0,0,6.334,4.175c3.441,1.731,7.1,3.032,10.614,4.624a4.544,4.544,0,0,1,2.153,1.815c1.1,2.222,1.961,4.561,2.874,6.872,1,2.537.481,3.943-1.912,5.246-5.3,2.887-10.964,2.678-16.683,1.925-1.3-.171-1.183-1.132-1.031-2.085.531-3.355,1.084-6.707,1.56-10.068a25.836,25.836,0,0,0,.316-4.525c-.023-.63-.668-1.234-1.029-1.851a9.785,9.785,0,0,1-1.234,1.17c-1.442.962-2.893,1.925-4.4,2.771A11.025,11.025,0,0,1,141.986,736.15Z" transform="translate(-55.385 -596.239)"/><path class="f" d="M146.906,741.42c.405-.633.694-1.657,1.236-1.815.991-.289,2.208-.573,2.787,1.071.234.666,1.419.961,2.1,1.512.569.464,1.516,1.158,1.432,1.573a3.007,3.007,0,0,1-1.565,1.68C149.6,747.076,146.879,744.313,146.906,741.42Z" transform="translate(-48.563 -583.618)"/><path class="f" d="M162.147,737.45c.455,1.527-.525,3.65-2.8,4.534-2.425.94-3.53-1.31-5.366-2.872a11.779,11.779,0,0,1,2.842-1.331C158.549,737.518,160.32,737.547,162.147,737.45Z" transform="translate(-42.182 -585.362)"/><path class="f" d="M142.107,732.345a2.726,2.726,0,0,1-2.762,2.339,3.213,3.213,0,0,1-2.827-2.855,2.711,2.711,0,0,1,2.994-2.294A3.149,3.149,0,0,1,142.107,732.345Z" transform="translate(-57.934 -592.502)"/><path class="a" d="M143.095,721.235a8.012,8.012,0,0,1,1.67-.548c2.085-.209,2.714-.858,2.764-2.958.025-1.08-.432-2.8,1.217-2.64,1.6.154,1.117,1.879.943,3.013C149.168,721.54,146.228,723.149,143.095,721.235Z" transform="translate(-52.001 -605.542)"/><path class="a" d="M139.531,719.255c-.63-.341-1.586-.533-1.822-1.054a2.327,2.327,0,0,1,1.259-3.038c.907-.51,2.047-.746,2.79.675-.943.772-3.27.694-1.678,3.007Z" transform="translate(-57.044 -605.823)"/></g><g transform="translate(135.931 1499.031)"><path class="a" d="M114.667,718.585c2.206-.953,3.985-1.843,5.847-2.5a9.986,9.986,0,0,1,8.578,1.082c.947.553,1.486,1.828,2.172,2.8a25.312,25.312,0,0,0,2,2.954c4.7,4.949,7.245,10.6,5.826,17.545-1.489,7.287-3.947,8.628-10.264,8.314a15.145,15.145,0,0,1-11.4-5.615c-2.982-3.637-3.057-3.576-3.506-5.765-.1-.066-.2-.2-.293-.188-4.289.456-5.531-3.127-5.24-6.7.285-3.492,2.075-6.305,4.078-8.978a3.145,3.145,0,0,0,.481-3.013,22.228,22.228,0,0,1-.647-4.1c-.023-.4.633-.843.978-1.265a5.485,5.485,0,0,1,.723,1.358C114.285,715.829,114.447,717.164,114.667,718.585Zm.848,18.918c.873,1.223,1.461,2.014,2.014,2.828a15.068,15.068,0,0,0,9.746,6.773c6.288,1.185,9.044-.516,9.916-5.927a20.366,20.366,0,0,0,.179-6.324,18.27,18.27,0,0,0-5.936-10.8,15.827,15.827,0,0,1-5.645,9.259C123,735.612,120.008,737.569,115.516,737.5Zm.554-17.278.609,1.786c-.668.063-1.343.084-2,.2a1.76,1.76,0,0,0-1.058.466c-2,2.788-3.8,5.717-3.3,9.331A4.209,4.209,0,0,0,112,734.773a8.2,8.2,0,0,0,6.984.8,17.062,17.062,0,0,0,7.745-5.583,11.318,11.318,0,0,0,2.8-8.609,4.941,4.941,0,0,0-3.313-4.145C123.495,716.019,118.139,717.624,116.069,720.224Z" transform="translate(-108.356 -713.158)"/><path class="g" d="M112.12,732.337c4.493.067,7.485-1.891,10.273-4.194a15.827,15.827,0,0,0,5.645-9.259,18.271,18.271,0,0,1,5.936,10.8,20.365,20.365,0,0,1-.179,6.324c-.871,5.412-3.627,7.112-9.916,5.927a15.068,15.068,0,0,1-9.746-6.773C113.581,734.352,112.993,733.56,112.12,732.337Z" transform="translate(-104.96 -707.993)"/><path class="b" d="M115.176,718.487c2.069-2.6,7.426-4.206,10.151-2.99a4.942,4.942,0,0,1,3.313,4.145,11.318,11.318,0,0,1-2.8,8.609,17.062,17.062,0,0,1-7.745,5.583,8.2,8.2,0,0,1-6.984-.8,4.21,4.21,0,0,1-1.678-2.764c-.506-3.614,1.293-6.543,3.3-9.331a1.761,1.761,0,0,1,1.058-.466c.656-.118,1.331-.139,2-.2Zm4.723,9.273-2.227,2.429C119.4,730.814,119.827,730.4,119.9,727.76Zm-2.5-3.176c.656-.118,1.529-.029,1.767-.373a5.857,5.857,0,0,0,.487-2.125l-.363-.038Z" transform="translate(-107.463 -711.421)"/><path class="a" d="M115.95,721.748c-.072,2.642-.5,3.055-2.227,2.429Z" transform="translate(-103.514 -705.409)"/><path class="a" d="M113.58,721.28l1.891-2.535.363.038a5.857,5.857,0,0,1-.487,2.125C115.109,721.252,114.236,721.162,113.58,721.28Z" transform="translate(-103.643 -708.118)"/></g><g transform="translate(102.31 1465.458)"><path class="a" d="M101.958,698.311c3.72-.211,6.252,1.83,8.67,3.92,2.343,2.026,2.741,5.141,1.535,8.038a4.45,4.45,0,0,0,.013,2.459c.846,4.042,1.233,8.023-1.773,11.561-3.6,4.238-10.123,5.569-14.389,1.584-3.6-3.365-5.352-7.03-4.1-11.9a2.039,2.039,0,0,0-.165-1.366c-2.861-5.225.3-12.023,6.486-13.7,1.134-.306,1.815-.689,1.969-1.86.1-.738.053-1.809,1.36-1.476,1.278.327.662,1.177.4,1.912A3.433,3.433,0,0,0,101.958,698.311Zm-8.23,15.949c-2.03,6.438,4.643,12.424,8.921,12.609a4.344,4.344,0,0,0,1.683-.2c3.351-1.288,5.828-3.435,6.332-7.015a31.677,31.677,0,0,0-.082-5.451c-.055-1.59-1.1-1.725-2.364-1.354a11.265,11.265,0,0,0-1.721.8c-3.694,1.82-7.462,2.364-11.365.885A8.246,8.246,0,0,0,93.727,714.259Zm-.854-4.848-.552.479a10.892,10.892,0,0,0,1.874,2.185,9.473,9.473,0,0,0,8.1,1.48,44.027,44.027,0,0,0,7.633-3.338,2.532,2.532,0,0,0,.972-2.02,11.221,11.221,0,0,0-.883-3.331c-.35-.911-1.067-1.223-2.144-.846a19.332,19.332,0,0,1-2.731.554l-.1-.468,3.161-1.21c-2.106-1.525-3.637-3.241-6.406-3.224l.441,3.475c-2.962.424-1.729-2.07-2.505-3.123-1.562-.624-2.65.466-3.715,1.25-4.424,3.255-4.565,6.2-.462,8.607a4.285,4.285,0,0,0,1.933.628c2.779.09,5.562.071,8.5.093-.023-.175.08.23.025.253a8.991,8.991,0,0,1-2.134.728C99.955,712.081,96.187,711.747,92.873,709.411Z" transform="translate(-90.68 -695.507)"/><path class="g" d="M92.46,706.115a8.252,8.252,0,0,1,1.4.278c3.9,1.48,7.671.936,11.365-.885a11.278,11.278,0,0,1,1.721-.8c1.265-.371,2.309-.236,2.364,1.354a31.678,31.678,0,0,1,.082,5.451c-.5,3.58-2.981,5.727-6.332,7.015a4.345,4.345,0,0,1-1.683.2C97.1,718.539,90.43,712.553,92.46,706.115Z" transform="translate(-89.412 -687.363)"/><path class="b" d="M92.095,707.436c3.313,2.336,7.081,2.67,11.011,2.172a8.988,8.988,0,0,0,2.134-.728c.055-.023-.048-.428-.025-.253-2.943-.023-5.725,0-8.5-.093a4.287,4.287,0,0,1-1.933-.628c-4.1-2.406-3.962-5.352.462-8.607,1.065-.784,2.153-1.873,3.715-1.25.776,1.054-.457,3.547,2.505,3.123l-.441-3.475c2.769-.017,4.3,1.7,6.406,3.224l-3.161,1.21.1.468a19.323,19.323,0,0,0,2.731-.554c1.077-.377,1.794-.065,2.144.846a11.221,11.221,0,0,1,.883,3.331,2.532,2.532,0,0,1-.972,2.02,44.032,44.032,0,0,1-7.633,3.338,9.473,9.473,0,0,1-8.1-1.48,10.89,10.89,0,0,1-1.874-2.186Zm2.035-4.12c2.161,2.372,7.209,3.352,8.75,1.881Z" transform="translate(-89.901 -693.532)"/><path class="a" d="M92.9,700.651l8.75,1.881C100.112,704,95.064,703.023,92.9,700.651Z" transform="translate(-88.674 -690.867)"/></g></g></svg>