<svg xmlns="http://www.w3.org/2000/svg" width="65.043" height="51.35" viewBox="0 0 65.043 51.35"><defs><style>.a{fill:#573622;}.b{fill:#e96031;}.c{fill:#71943d;}</style></defs><path class="a" d="M459.517,593.788c1.65-2.95,2.992-5.748,4.712-8.292a3.391,3.391,0,0,1,5.013-.609,3.8,3.8,0,0,1,.44,5.043c-1.083,1.641-2.064,3.351-3.092,5.03l.5.474a11.391,11.391,0,0,0,1.5-.692c3.489-2.245,7-3.064,10.815-.635a3.412,3.412,0,0,0,2.7-.072c2.818-1.2,5.26-.384,7.723.983a15.75,15.75,0,0,1,8,11.636c1.057,5.914.752,11.794-3.168,16.646-4.041,5-8.782,9.451-15.565,10.235a32.682,32.682,0,0,0-6.755,1.414,6.844,6.844,0,0,1-7.222-1.412c-1.3-1.21-2.72-.917-4.2-.588a18.353,18.353,0,0,1-13.036-1.469c-6.128-3.094-9.8-7.963-12.879-13.6-2.756-5.039-1.773-10.26.257-15.155,3.058-7.373,8.763-11.4,16.871-11.411,1.8,0,3.625.883,5.4,1.463A11.77,11.77,0,0,1,459.517,593.788Zm4.342,4.648-.5-.433c1.435-3.051,2.913-6.086,4.277-9.171a9.714,9.714,0,0,0,.393-2.482c-.885.289-2.128.3-2.6.911-2.083,2.695-3.7,5.657-3.667,9.226.013,1.349-.2,2.875,2.039,2.438.321-.062.822.359,1.087.682.085.1-.246.765-.527.913-1.605.858-4.338-.888-4.415-2.733-.03-.724-.019-1.92-.386-2.081-2.374-1.047-4.85-2.635-7.288-2.627-11.832.04-18.225,11.7-16.115,21.589.979,4.587,4.028,8.1,7.207,11.343,1.374,1.4,3.321,2.242,5.007,3.34l.4-.465c-2.323-6.8-1.529-13.667-.393-20.491a18.982,18.982,0,0,1,6.472-11.241c1.773-1.563,3.085-1.438,3.977.359-4.245,1.843-6.479,5.432-7.721,9.592a38.378,38.378,0,0,0-1.344,8.4c-.342,5.2-.83,10.49,2.576,15.072.255.344.556.907.86.921,4.451.223,8.736.1,12.167-3.546a34.3,34.3,0,0,0,8.993-18.113c.73-4.247-.132-8.026-3.548-11.069a4.2,4.2,0,0,0-4.6-1.06C465.439,597.98,464.645,598.194,463.86,598.436Zm1.777,33.094c2.089,2.431,6.587,2.6,8.712.034,4.406-5.315,8.269-11.089,9.819-17.848,2.009-8.765,1.875-12.573-5.667-17.886a6.263,6.263,0,0,0-7.912.641c.8.728,1.635,1.416,2.382,2.191a11.259,11.259,0,0,1,3.253,6.387c.864,6.077-.845,11.628-3.661,16.784C470.708,625.234,468.055,628.2,465.637,631.53Zm16.877-35.111a26.905,26.905,0,0,1,2.983,4.115c2.729,5.8,2.022,11.708-.429,17.314-1.858,4.247-4.427,8.184-6.68,12.259-.248.45-.51.892-1.043,1.824,1.688-.408,2.937-.609,4.115-1.015,3.826-1.317,6.661-4.092,9.511-6.778,4.752-4.478,5.806-10.256,5.215-16.418a13.131,13.131,0,0,0-8.952-11.743A4.626,4.626,0,0,0,482.514,596.419Z" transform="translate(-433.308 -584.052)"/><path class="b" d="M462.561,597.221c.786-.242,1.58-.456,2.355-.73a4.2,4.2,0,0,1,4.6,1.06c3.417,3.043,4.279,6.823,3.548,11.069a34.3,34.3,0,0,1-8.993,18.113c-3.432,3.646-7.717,3.769-12.167,3.546-.3-.015-.605-.578-.86-.922-3.406-4.582-2.918-9.874-2.576-15.072a38.377,38.377,0,0,1,1.344-8.4c1.242-4.16,3.476-7.749,7.721-9.592-.892-1.8-2.2-1.922-3.977-.359a18.983,18.983,0,0,0-6.472,11.242c-1.136,6.825-1.93,13.692.393,20.491l-.4.465c-1.686-1.1-3.633-1.939-5.007-3.34-3.179-3.245-6.228-6.757-7.207-11.343-2.111-9.889,4.283-21.549,16.115-21.589,2.438-.008,4.914,1.58,7.288,2.627.367.161.357,1.357.386,2.081.076,1.845,2.809,3.591,4.415,2.733.28-.149.612-.809.527-.913-.265-.323-.767-.743-1.087-.682-2.24.437-2.026-1.089-2.039-2.438-.034-3.57,1.584-6.532,3.667-9.226.469-.609,1.711-.622,2.6-.911a9.71,9.71,0,0,1-.393,2.482c-1.363,3.085-2.841,6.12-4.277,9.171Z" transform="translate(-432.01 -582.836)"/><path class="b" d="M448.533,625.887c2.419-3.329,5.071-6.3,6.927-9.7,2.816-5.156,4.525-10.706,3.661-16.784a11.259,11.259,0,0,0-3.253-6.387c-.747-.775-1.584-1.463-2.383-2.191a6.264,6.264,0,0,1,7.912-.641c7.542,5.313,7.676,9.12,5.667,17.886-1.55,6.759-5.413,12.533-9.819,17.848C455.12,628.483,450.622,628.318,448.533,625.887Z" transform="translate(-416.204 -578.408)"/><path class="b" d="M459.215,590.343a4.626,4.626,0,0,1,4.72-.442,13.131,13.131,0,0,1,8.952,11.743c.59,6.162-.463,11.94-5.215,16.418-2.85,2.686-5.684,5.461-9.511,6.778-1.178.406-2.427.607-4.115,1.015.533-.932.794-1.374,1.043-1.824,2.253-4.075,4.822-8.012,6.68-12.259,2.451-5.606,3.158-11.513.429-17.314A26.916,26.916,0,0,0,459.215,590.343Z" transform="translate(-410.01 -577.976)"/><path class="c" d="M446.421,596.1a12.463,12.463,0,0,1,2.136-7.854,9.481,9.481,0,0,1,2.2-2.633,4.74,4.74,0,0,1,1.289-.705,1.56,1.56,0,0,1,2.022,1.556,8.371,8.371,0,0,1-1.217,3.255,15.987,15.987,0,0,0-1.644,4.546c-.149,1.132-.255,3.313-1.172,3.992C448.776,599.188,446.585,597.434,446.421,596.1Z" transform="translate(-418.65 -583.185)"/></svg>