<svg xmlns="http://www.w3.org/2000/svg" width="156.867" height="232.361" viewBox="0 0 156.867 232.361"><defs><style>.a{fill:#573622;}.b{fill:#fff;}.c{fill:#d1ecfb;}.d{fill:#e99c95;}</style></defs><g transform="translate(-516.566 -1864.135)"><g transform="translate(516.566 1864.135)"><path class="a" d="M450.461,858.532c-1-.087-1.932-.172-2.869-.248-1.9-.159-2.625-1.355-1.692-3.02,1.253-2.234,2.625-4.4,4.026-6.729-1.815.176-3.476.235-5.094.52-2.223.391-3.99-.382-4.621-2.221a4.579,4.579,0,0,1,2.193-5.854c2.637-1.34,5.2-2.828,7.785-4.272.217-.121.348-.391.68-.777-1.321-.813-2.576-1.548-3.792-2.34a20.219,20.219,0,0,1-7.838-10.118c-2.716-7.137-3.82-14.378-1.083-21.827.843-2.3,1.329-4.72,2.094-7.05.242-.737.781-1.852,1.317-1.934,2.877-.442,3.918-3.266,6.16-4.478a2,2,0,0,0,.951-1.174,5.061,5.061,0,0,1,5.621-3.833c.885.151,1.926-.452,2.862-.8.5-.185.883-.677,1.382-.835,2.574-.8,5.154-1.595,7.763-2.268a5.871,5.871,0,0,1,2.191.18c.395.06.873.467,1.138.342,3.077-1.444,5.213.586,7.731,2.238-.936-6.36,1.992-10.647,6.874-13.609a23.676,23.676,0,0,1,7.579-2.671,13.424,13.424,0,0,0,9.984-7.362,89.774,89.774,0,0,1,7.519-11.974c1.62-2.172,4.043-3.778,6.224-5.489a6.677,6.677,0,0,0,2.852-5.158c.147-4.468.151-8.937.191-13.407.049-5.279.416-10.458,4.287-14.613,1.091-1.17,2.255-2.28,3.264-3.518,2.952-3.623,2.535-7.867,1.291-11.777-1.548-4.867-3.986-9.443-5.854-14.216-4.209-10.753-3.909-21.232,2.529-31.1a43.168,43.168,0,0,1,5.109-5.782c2.62-2.763,6.077-2.062,9.2-1.7,2.85.331,5.589,1.552,8.39,2.334a12.748,12.748,0,0,0,8.81-.544c6.716-2.8,13.815-5.124,21.122-2.741,5.86,1.911,10.846,5.137,13.707,11.244,3.141,6.708,2.831,13.7,2.986,20.716.091,4.09-.236,8.024-2.053,11.866a21.631,21.631,0,0,1-9.5,9.681,59.85,59.85,0,0,1-6.963,3.336C567.8,698.4,563.375,703.524,561.863,711a31.888,31.888,0,0,1-8.908,16.1,22.329,22.329,0,0,0-6.549,12.537,11.339,11.339,0,0,1-.979,3.3,22.311,22.311,0,0,1-2.544,4.071,43.6,43.6,0,0,1-14.133,11.405,24.592,24.592,0,0,0-10.033,10.044,15.1,15.1,0,0,1-8.419,6.988c-3.525,1.166-7.037,2.38-10.6,3.406a10.007,10.007,0,0,0-5.865,4.654c-1.656,2.62-3.569,5.077-5.419,7.67.707.576,1.692,1,1.988,1.707a13.186,13.186,0,0,1,.59,3.578c.068.618-.261,1.436.032,1.85,2.61,3.695,2.688,4.351.488,7.98,2,1.892,1.837,4.4,1.45,6.771-1.13,6.956-3.393,13.446-9.042,18.13a48.9,48.9,0,0,1-5.812,3.693c-.561.344-1.179.6-2.113,1.068a43.65,43.65,0,0,0,3.1,3.943,33.53,33.53,0,0,0,4.2,3.525,5.644,5.644,0,0,0,2.412.907c2.5.376,4.623,2.166,4.474,3.928-.191,2.272-3.427,4.784-5.829,4.381a14.884,14.884,0,0,1-3.022-1.106c-.565-.232-1.1-.544-1.644-.82l-.37.38c.6,1.325,1.2,2.646,1.792,3.973,1.013,2.285.573,3.151-1.9,3.769-.722.18-1.444.359-2.321.575.036,3.1-.548,6.063-3.179,7.974-2.089,1.516-4.241,3.279-7.177,2.506-2.538-.667-3.338-2.924-1.743-5.018.609-.8,1.546-1.374,2.075-2.213a3.316,3.316,0,0,0,.4-2.223c-.066-.327-1.049-.631-1.635-.673-5.43-.382-5.493-.386-7.445,4.805a6.251,6.251,0,0,1-5.9,4.47c-2.975.183-5.757-.408-7.708-2.807-.635-.779-1.149-2.44-.743-3.088a4.32,4.32,0,0,1,3.126-1.648C449.007,861.422,450.111,860.681,450.461,858.532ZM482.213,792.9a7,7,0,0,0,1.552-1.036,74.617,74.617,0,0,0,6.313-7.381c2.489-3.663,4.975-7.075,9.655-8.073,2.183-.465,4.319-1.161,6.466-1.786a19.647,19.647,0,0,0,12.2-10.021,16.163,16.163,0,0,1,4.574-5.037c4.09-3,8.672-5.368,12.581-8.57,4.389-3.6,8.269-7.734,9.052-13.927a13.914,13.914,0,0,1,3.892-8.57c5.825-5.549,9.984-11.987,11.624-20.011,1.117-5.459,4.506-9.553,9.167-12.416a84.855,84.855,0,0,1,9.787-4.924c6.09-2.735,10.524-7.2,11.724-13.677a55.973,55.973,0,0,0-.716-23.621c-1.7-6.942-6.434-11.227-12.9-13.146-6.975-2.07-13.883-.3-20.4,2.559a13.363,13.363,0,0,1-10.4.533,36.043,36.043,0,0,0-7.349-2.236c-3.676-.48-7.126-.361-10.248,2.76-9.556,9.562-9.806,25.626-4.74,35.44,3.149,6.1,6.315,12.261,5.816,19.6a11.921,11.921,0,0,1-3.555,7.927c-3.168,3.134-5.532,6.432-5.474,11.08.028,2.03-.093,4.062-.155,6.092-.127,4.066-.18,8.137-.425,12.2a7.372,7.372,0,0,1-3.024,5.716c-2.68,2.038-5.555,4.032-7.61,6.627a54.11,54.11,0,0,0-5.933,10.116,13.984,13.984,0,0,1-10.791,8.186c-3.162.578-6.336,1.338-8.9,3.642-3.268,2.937-5.462,6.169-4.311,10.844C480.58,785.384,481.338,789.011,482.213,792.9Zm8.7,15.45c-2.988.769-5.245,1.482-7.555,1.924-10.452,2-20.895,1.516-31.308-.321-4.383-.773-8.577-2.028-11.713-5.752-.238.58-.418,1-.58,1.421-1.374,3.6-.718,7.226-.1,10.849,1.425,8.324,5.47,14.539,13.66,17.75,4.228,1.658,8.485,1.614,12.813,1.172,8.152-.832,15.352-3.7,19.935-10.876a42.883,42.883,0,0,0,4.136-9.649C490.836,812.959,490.681,810.791,490.917,808.353Zm-19.073.75c3.652-.552,8.991-1.346,14.327-2.166,2.342-.361,3.984-1.28,4.347-4.045.227-1.731-.166-2.559-1.688-3.081-1.937-.66-2.134-1.382-.99-3,.582-.822,1.665-1.7.448-2.794-1.049-.945-2.1-1.554-3.421-.164a37.686,37.686,0,0,1-3.37,2.608c-.926.775-1.8,1.554-3.036.675-1.393-.992-.265-2.056.174-2.833,1.864-3.285.386-6.319-.495-9.4-.087-.306-.548-.52-.86-.745-.726-.524-1.493-.994-2.2-1.548-1.221-.962-2.312-2.157-4.069-.837-.346.261-1.217.021-1.754-.206a4.644,4.644,0,0,0-5.487,1.045,1.994,1.994,0,0,1-1.525.5c-2.03-.346-3.612.157-4.661,2.015-.486.864-1.015,1.038-1.962.414-1.843-1.217-3.986-.628-4.57,1.467-.486,1.735-.922,3.051-2.924,3.387-.408.068-.881.885-.983,1.423-.229,1.206-.879,1.44-2,1.467-1.945.047-2.826,1.21-3.009,3.124a18.693,18.693,0,0,1-1,2.8c-.2.745-.552,1.886-.2,2.272a16.073,16.073,0,0,0,7.778,5.2C455.734,808.508,462.915,808.591,471.844,809.1Zm-23.075,46.454c10.271.8,20.018,2.491,30.1.588a34.563,34.563,0,0,1-1.571-3.5,4.2,4.2,0,0,0-3.3-3.126,19.688,19.688,0,0,1-4.89-1.92c-.7-.4-1.007-1.514-1.491-2.3a9.444,9.444,0,0,1,2.44.034c2.981.828,5.91,1.858,8.908,2.61a2.783,2.783,0,0,0,2.087-.975c1.527-1.658-.166-2.436-1.1-3.385-1.839-1.856-3.79-3.618-5.474-5.606a2.15,2.15,0,0,0-2.518-.834c-5.508,1.062-11.044,1.943-16.626.333a2.533,2.533,0,0,0-1.894.164c-1.985,1.384-3.871,2.911-5.744,4.351l.9,3.661c2.232-.4,4.035-1.283,4.95-3.593.172-.437,1.132-.565,1.729-.834.2.682.769,1.546.539,2.017-1.3,2.671-2.769,5.266-4.238,7.853C450.775,852.491,449.864,853.82,448.769,855.558Zm8.4,3.775c-3.38-.941-3.741-.845-5.173,2.364a2.9,2.9,0,0,1-3.075,2.051,17.123,17.123,0,0,0-2.777.365c1.643,2.236,4.136,2.916,7.162,1.937C456.517,865.011,456.241,861.911,457.167,859.333Zm9.32,7.753a6.567,6.567,0,0,0,6.487-2.856c.758-1.155.864-2.739,1.263-4.128l-4.618-.476C470.844,863.35,468.228,864.882,466.487,867.086Zm18.028-16.393c1.174-1.113,2.047-1.939,2.92-2.767-.641-.35-1.488-1.145-1.881-.962a8.068,8.068,0,0,0-2.346,2.075A13.059,13.059,0,0,0,484.515,850.693Zm-41.071-3.323c1-1.225,1.677-2.066,2.359-2.909-.51-.412-1.346-1.261-1.474-1.166a8.182,8.182,0,0,0-2.026,2.172C442.169,845.686,442.844,846.405,443.443,847.37Z" transform="translate(-436.572 -637.717)"/><path class="b" d="M459.561,791.8c-.875-3.892-1.633-7.519-2.516-11.116-1.151-4.676,1.043-7.908,4.311-10.844,2.563-2.3,5.738-3.064,8.9-3.642a13.984,13.984,0,0,0,10.791-8.186,54.1,54.1,0,0,1,5.933-10.116c2.055-2.595,4.931-4.589,7.61-6.627a7.372,7.372,0,0,0,3.024-5.716c.244-4.06.3-8.13.425-12.2.062-2.03.183-4.062.155-6.092-.057-4.648,2.306-7.946,5.474-11.08a11.921,11.921,0,0,0,3.555-7.927c.5-7.337-2.667-13.494-5.816-19.6-5.067-9.815-4.816-25.878,4.74-35.44,3.122-3.122,6.572-3.24,10.248-2.76a36.039,36.039,0,0,1,7.349,2.236,13.363,13.363,0,0,0,10.4-.533c6.515-2.862,13.422-4.629,20.4-2.559,6.462,1.92,11.193,6.2,12.9,13.146a55.975,55.975,0,0,1,.716,23.621c-1.2,6.474-5.633,10.942-11.724,13.677a84.846,84.846,0,0,0-9.787,4.924c-4.661,2.862-8.05,6.956-9.167,12.416-1.639,8.024-5.8,14.463-11.624,20.011a13.914,13.914,0,0,0-3.892,8.57c-.783,6.194-4.663,10.328-9.052,13.928-3.909,3.2-8.492,5.568-12.581,8.57a16.162,16.162,0,0,0-4.574,5.037,19.647,19.647,0,0,1-12.2,10.021c-2.147.624-4.283,1.321-6.466,1.786-4.68,1-7.167,4.41-9.655,8.073a74.639,74.639,0,0,1-6.313,7.381A7,7,0,0,1,459.561,791.8Zm99.19-122.826a7.66,7.66,0,0,0-.5-2.416c-.346-.59-1.159-.909-1.769-1.346a4.891,4.891,0,0,0-.454,1.756c.45,3.085-.811,5.512-2.654,7.814a5.355,5.355,0,0,0-.529,2c.72-.062,1.639.138,2.123-.229C557.454,674.662,558.184,671.838,558.751,668.973Z" transform="translate(-413.921 -636.613)"/><path class="b" d="M489.659,720.271c-.236,2.438-.081,4.606-.711,6.517a42.887,42.887,0,0,1-4.136,9.649c-4.582,7.177-11.783,10.044-19.935,10.876-4.328.442-8.585.486-12.813-1.172-8.19-3.211-12.235-9.426-13.66-17.75-.618-3.623-1.274-7.245.1-10.849.161-.425.342-.841.58-1.421,3.136,3.724,7.33,4.979,11.713,5.752,10.413,1.837,20.856,2.319,31.308.321C484.414,721.753,486.671,721.04,489.659,720.271Zm-39.146,21.536c1.745.017,3.174-1.268,3.935-3.431.459-1.3.045-2.234-1.229-2.489-2.644-.526-5.317-.93-7.995-1.246-.384-.045-1.242.686-1.234,1.043C444.062,738.741,447.372,741.777,450.513,741.807Zm5.383-8.657c.951-1.132,2.011-1.975,1.871-2.31a5.049,5.049,0,0,0-1.994-2.1c-.185-.117-1.593.979-1.525,1.35C454.414,730.992,455.115,731.8,455.9,733.15Zm-10.636-7.128c-.616.873-1.365,1.575-1.236,1.822a9.179,9.179,0,0,0,1.688,1.883c.44-.511,1.315-1.132,1.221-1.514C446.761,727.512,446.018,726.951,445.26,726.021Z" transform="translate(-435.314 -549.635)"/><path class="b" d="M469.611,733.246c-8.929-.512-16.111-.595-23.122-2.429a16.073,16.073,0,0,1-7.778-5.2c-.352-.386,0-1.527.2-2.272a18.7,18.7,0,0,0,1-2.8c.183-1.913,1.064-3.077,3.009-3.124,1.121-.028,1.771-.261,2-1.467.1-.537.575-1.355.983-1.423,2-.336,2.438-1.652,2.924-3.387.584-2.1,2.726-2.684,4.57-1.467.947.624,1.476.45,1.962-.414,1.049-1.858,2.631-2.361,4.661-2.015a1.994,1.994,0,0,0,1.525-.5,4.644,4.644,0,0,1,5.487-1.045c.537.227,1.408.467,1.754.206,1.756-1.321,2.848-.125,4.069.837.7.554,1.469,1.023,2.2,1.548.312.225.773.439.86.745.881,3.083,2.359,6.118.495,9.4-.44.777-1.567,1.841-.174,2.833,1.234.879,2.111.1,3.036-.675a37.707,37.707,0,0,0,3.37-2.608c1.323-1.391,2.372-.781,3.421.164,1.217,1.1.134,1.973-.448,2.794-1.145,1.62-.947,2.342.99,3,1.522.522,1.915,1.351,1.688,3.081-.363,2.765-2,3.684-4.347,4.045C478.6,731.9,473.263,732.694,469.611,733.246Zm-8.477-16.308c-1.015.463-1.739.575-2.066,1a7.067,7.067,0,0,0-.767,2.015c.639.174,1.291.308,1.915.529.6.213,1.166.524,1.754.773.406.17.9.518,1.215.4s.758-.9.65-1.066C462.994,719.314,462.032,718.121,461.134,716.938Zm4.124-6.154c-.588.425-1.276.686-1.3.99a2.4,2.4,0,0,0,.592,1.582,3.958,3.958,0,0,0,1.512.839,15.082,15.082,0,0,0,1.644.457c.079-.686.476-1.639.17-2A12.365,12.365,0,0,0,465.258,710.784Zm15.006,11.184c-.686.745-1.363,1.3-1.291,1.429.607,1.055,1.35,2.034,2.051,3.036.416-.427,1.263-1.038,1.174-1.244A25.641,25.641,0,0,0,480.264,721.968Z" transform="translate(-434.339 -561.86)"/><path class="c" d="M442.887,750.1c1.1-1.737,2.007-3.066,2.8-4.461,1.469-2.586,2.935-5.181,4.238-7.853.229-.472-.34-1.336-.539-2.017-.6.27-1.557.4-1.729.834-.915,2.31-2.718,3.189-4.95,3.593l-.9-3.661c1.873-1.44,3.758-2.967,5.744-4.351a2.533,2.533,0,0,1,1.894-.163c5.583,1.609,11.118.728,16.626-.333a2.15,2.15,0,0,1,2.518.834c1.684,1.987,3.635,3.75,5.474,5.606.939.949,2.631,1.726,1.1,3.385a2.782,2.782,0,0,1-2.087.975c-3-.752-5.927-1.781-8.908-2.61a9.444,9.444,0,0,0-2.44-.034c.484.79.786,1.907,1.491,2.3a19.687,19.687,0,0,0,4.89,1.92,4.2,4.2,0,0,1,3.3,3.126,34.541,34.541,0,0,0,1.571,3.5C462.9,752.589,453.158,750.9,442.887,750.1Z" transform="translate(-430.69 -532.259)"/><path class="b" d="M452.1,742.358c-.926,2.578-.65,5.678-3.862,6.717-3.026.979-5.519.3-7.162-1.937a17.117,17.117,0,0,1,2.777-.365,2.9,2.9,0,0,0,3.075-2.051C448.362,741.513,448.723,741.418,452.1,742.358Z" transform="translate(-431.509 -520.743)"/><path class="b" d="M450.66,749.681c1.741-2.2,4.357-3.735,3.132-7.459l4.618.476c-.4,1.389-.505,2.973-1.263,4.128A6.566,6.566,0,0,1,450.66,749.681Z" transform="translate(-420.746 -520.314)"/><path class="b" d="M459.844,740a13.059,13.059,0,0,1-1.308-1.654,8.068,8.068,0,0,1,2.346-2.075c.393-.183,1.24.612,1.881.962C461.891,738.063,461.018,738.889,459.844,740Z" transform="translate(-411.902 -527.027)"/><path class="b" d="M440.42,738.61c-.6-.964-1.274-1.684-1.14-1.9a8.181,8.181,0,0,1,2.026-2.172c.127-.1.964.754,1.474,1.166Z" transform="translate(-433.549 -528.958)"/><path class="a" d="M507.9,654.948c-.567,2.865-1.3,5.689-3.78,7.581-.484.368-1.4.168-2.123.229a5.356,5.356,0,0,1,.529-2c1.843-2.3,3.1-4.729,2.654-7.814a4.89,4.89,0,0,1,.454-1.756c.609.437,1.423.756,1.769,1.346A7.663,7.663,0,0,1,507.9,654.948Z" transform="translate(-363.071 -622.588)"/><path class="d" d="M447.181,732.01c-3.141-.03-6.451-3.066-6.523-6.124-.008-.357.849-1.087,1.234-1.043,2.678.316,5.351.72,7.995,1.246,1.274.255,1.688,1.189,1.229,2.489C450.356,730.743,448.927,732.028,447.181,732.01Z" transform="translate(-431.982 -539.839)"/><path class="a" d="M447.216,732.511h-.039a7.269,7.269,0,0,1-4.748-2.061,6.639,6.639,0,0,1-2.27-4.552,1.279,1.279,0,0,1,.446-.879,2.141,2.141,0,0,1,1.252-.677.8.8,0,0,1,.093.005c2.887.341,5.515.751,8.035,1.253a2.169,2.169,0,0,1,1.559,1.014,2.544,2.544,0,0,1,.045,2.131C450.747,731.138,449.153,732.511,447.216,732.511Zm-6.056-6.592a5.668,5.668,0,0,0,1.951,3.8,6.263,6.263,0,0,0,4.076,1.792h.03c1.487,0,2.737-1.129,3.429-3.1a1.667,1.667,0,0,0,.029-1.3,1.229,1.229,0,0,0-.885-.528c-2.486-.5-5.08-.9-7.93-1.237A1.633,1.633,0,0,0,441.159,725.919Z" transform="translate(-431.982 -539.839)"/><path class="a" d="M447.336,726.473c-1.537-.253-2.465-2.41-1.813-3.461a1.684,1.684,0,0,1,1.69-.947,2.118,2.118,0,0,1,2.344,2.313A2.069,2.069,0,0,1,447.336,726.473Z" transform="translate(-426.754 -542.959)"/><path class="a" d="M442.046,720.784a1.814,1.814,0,0,1,1.941,2.346,1.674,1.674,0,0,1-1.489,1.359c-1.516,0-1.96-.779-1.945-1.854A1.687,1.687,0,0,1,442.046,720.784Z" transform="translate(-432.1 -544.398)"/><path class="a" d="M450.69,710.749c.9,1.183,1.86,2.376,2.7,3.648.108.164-.325.941-.65,1.066s-.809-.229-1.215-.4c-.588-.249-1.153-.56-1.754-.773-.624-.221-1.276-.355-1.915-.529a7.067,7.067,0,0,1,.767-2.015C448.951,711.324,449.675,711.212,450.69,710.749Z" transform="translate(-423.895 -555.671)"/><path class="a" d="M451.82,707.851a12.366,12.366,0,0,1,2.622,1.864c.306.363-.091,1.317-.17,2a15.1,15.1,0,0,1-1.644-.457,3.958,3.958,0,0,1-1.512-.839,2.394,2.394,0,0,1-.592-1.582C450.543,708.537,451.231,708.276,451.82,707.851Z" transform="translate(-420.901 -558.927)"/><path class="a" d="M458.886,713.118a25.643,25.643,0,0,1,1.934,3.221c.089.206-.758.818-1.174,1.244-.7-1-1.444-1.981-2.051-3.036C457.523,714.42,458.2,713.863,458.886,713.118Z" transform="translate(-412.961 -553.01)"/></g></g></svg>