<svg xmlns="http://www.w3.org/2000/svg" width="61.13" height="112.812" viewBox="0 0 61.13 112.812"><defs><style>.a{fill:#573622;}.b{fill:#f6d4de;}.c{fill:#fff;}.d{fill:#d4ebf3;}.e{fill:#c95483;}</style></defs><path class="a" d="M480.638,798.321c-.089-.119-.119-.2-.174-.223-3.7-1.862-3.748-1.881-2.13-6.022,1.079-2.767,2.331-5.466,3.771-8.814-3.06,0-5.7-.151-8.32.043-2.661.2-4.623-.718-5.357-2.924a4.5,4.5,0,0,1,2.741-5.413,14.285,14.285,0,0,1,3.667-1.034,22.537,22.537,0,0,0,9.114-3.567c-1.04-.943-1.837-1.76-2.731-2.457-2.487-1.934-3.916-4.44-3.432-7.579.822-5.343,1.83-10.66,2.909-15.958,1.353-6.636,2.752-13.265,4.347-19.844a44.819,44.819,0,0,1,2.639-6.459c-.641-1.244-1.476-2.741-2.189-4.3a1.9,1.9,0,0,1,.941-2.727c2.552-1.374,4.969-3.109,7.661-4.083s3.807-2.958,4.6-5.258c1.561-4.57,2.892-5.574,7.835-5.714,5.073-.142,10.05.219,14.6,2.7,4.5,2.459,7.784,6.678,5.143,12.174-1.157,2.4-1.106,4.3.82,6.4,1.119,1.217,1.59,3.106,2.117,4.767.459,1.444-.087,2.491-1.781,2.752-1.531.238-3.039.616-4.814.985a16.361,16.361,0,0,0,.4,1.975,18.161,18.161,0,0,1,.512,8.8c-.7,4.13-.482,8.426-1.308,12.518A142.519,142.519,0,0,1,517.79,765.3c-.482,1.465-2.244,2.6-3.6,3.656a42.286,42.286,0,0,1-4.6,2.705c3.572,1.779,6.589,3.843,10.473,3.107a5.025,5.025,0,0,1,5.572,2.3c.972,1.595,1.44,3.221.112,4.894a5.853,5.853,0,0,1-6.222,2.3,32.545,32.545,0,0,0-6.132-.331c-1.1-.01-1.263.7-1.045,1.692.55,2.516.956,5.063,1.533,7.572a3.39,3.39,0,0,1-1.682,4.154c-1.365.709-1.525,1.569-1.306,2.943.7,4.391-3.187,8.812-7.617,8.473a5.362,5.362,0,0,1-3.44-1.975c-.928-1.24.04-2.438,1.1-3.487a7.742,7.742,0,0,0,1.132-2.533,10.435,10.435,0,0,0-2.667-.972c-2.482-.189-4.988-.059-7.464-.282-1.348-.121-2.123.138-2.7,1.425a21.641,21.641,0,0,1-2.659,4.75,5.6,5.6,0,0,1-3.247,2c-3.69.471-7.258-.117-9.691-3.3a3.668,3.668,0,0,1-.5-3.26c.461-.769,2.017-.945,3.134-1.217a2.982,2.982,0,0,1,1.58.3C479.774,800.945,480.415,799.945,480.638,798.321Zm-2.758-18.079a11.22,11.22,0,0,0,3.174.323,5,5,0,0,0,2.531-1.48c.588-.622.728-1.65,1.954-1.024,1.1.563.9,1.316.516,2.217-1.695,3.984-3.325,7.995-5.052,11.966-1.168,2.688-1.106,3.039,1.726,3.374,4.9.58,9.814,1.164,14.741,1.429,4.247.227,8.528.153,12.56-1.671,1.187-.535,1.66-1.121,1.314-2.472-.518-2.032-.847-4.111-1.238-6.173-.312-1.661-.427-3.37-2.665-3.78-.389-.07-.567-1.287-.843-1.975a8.433,8.433,0,0,1,1.731-.314c2.423.064,4.841.287,7.262.274,1.618-.009,1.605-1.5,1.652-2.574.017-.386-.837-.947-1.4-1.2-2.833-1.278-5.691-2.5-8.56-3.695a3.552,3.552,0,0,0-1.66-.27c-6.009.65-12,1.166-17.835-1.089a1.892,1.892,0,0,0-1.346.074c-2.852,1.374-5.674,2.8-8.566,4.247Zm43.036-43.711c-4.417,0-8.394-.079-12.369.017A65.01,65.01,0,0,1,487.5,733.87c-1.026-.318-1.656-.144-1.937,1.028-1.272,5.338-2.64,10.653-3.82,16.009-.11.5.722,1.607,1.325,1.809,3.648,1.225,7.33,2.38,11.055,3.351a45.624,45.624,0,0,0,20.54.588,9.989,9.989,0,0,0,2.873-.975,2.724,2.724,0,0,0,.333-4.559,2.085,2.085,0,0,1-.669-1.557,12.461,12.461,0,0,1,.739-3.561,10.206,10.206,0,0,1,1.735-2.23l.76.34Zm2.727-13.543c.686-.236,2.177-.329,2.8-1.115.393-.491-.514-2.022-.847-3.083a.747.747,0,0,0-.21-.344c-3.44-2.841-2.48-6.169-1.083-9.56a4.518,4.518,0,0,0,.561-1.926,6.34,6.34,0,0,0-.8-3.015,11.2,11.2,0,0,0-7.5-4.41,75.172,75.172,0,0,0-10.226-.9c-3.671-.115-4.638.792-5.827,4.353-.945,2.828-2.274,5.23-5.455,6.328a30.49,30.49,0,0,0-6.394,3.448,1.58,1.58,0,0,0,.191,2.918,4.711,4.711,0,0,0,2.69.448,33.291,33.291,0,0,0,4.935-1.143,5.188,5.188,0,0,1,5.825,1.773c2.138,2.431,3.117,2.629,5.98,1.346,3.321-1.488,4.234-1.316,6.814,1.3C517.312,721.635,520.086,722.565,523.642,722.987Zm-6.835,11.256,0,.346a13.861,13.861,0,0,0,1.425-.006c2.992-.306,3.775-1.38,3.111-4.317a19.759,19.759,0,0,0-1.026-3.722,6.071,6.071,0,0,0-1.82-2.132c-1.586-1.244-3.431-2.194-4.88-3.572a2.954,2.954,0,0,0-3.784-.609c-4.236,1.843-5.81,1.9-8.723-1.633a3.125,3.125,0,0,0-3.408-1.17,34.024,34.024,0,0,0-5.062,1.391,9.912,9.912,0,0,0-3.313,2.168c-2.661,2.712-2.123,6.43-2.722,9.774-.047.259.656.875,1.085.964,4.162.883,8.309,2.1,12.522,2.416C505.712,734.556,511.271,734.244,516.807,734.244Zm-35.519,19.948c-2.591,5.99-.779,11.8,4.773,14.529,6.636,3.255,13.624,3.183,20.563,1.159,2.087-.609,3.826-2.327,5.876-3.175,3.707-1.533,4.037-4.812,4.9-8.356C504.7,761.245,492.931,758.818,481.288,754.191Zm5.667,45.541c-2.482-1.552-3.364-1.357-4.41.951-.777,1.716-1.9,2.474-3.858,1.907a20.261,20.261,0,0,0-3.372-.414l-.117.671a7.652,7.652,0,0,0,6.948,2.523C485.2,805.022,485.86,802.066,486.956,799.733Zm17.24-.486c1.779,3.529-.858,4.916-1.956,7.043,2.4.435,3.754-1.049,5.113-2.366,1.2-1.159,1.918-2.792.8-4.143C507.619,799.142,505.96,799.44,504.2,799.246Zm17.544-21.954c-1.59.017-2.446,1.255-2.28,3.434.032.431,1.138,1.229,1.291,1.134,1.155-.728,2.729-1.442,3.134-2.542C524.383,777.955,522.9,777.39,521.74,777.292Zm-49.871,3.457c1.9-.045,3.96-1.782,3.729-2.86a1.9,1.9,0,0,0-1.193-1.276c-1.446-.185-3.911,1.752-3.65,2.822C470.9,780.034,471.635,780.49,471.869,780.749Z" transform="translate(-468.229 -695.965)"/><path class="b" d="M472.774,740v-3.811c2.892-1.444,5.714-2.873,8.566-4.247a1.892,1.892,0,0,1,1.346-.074c5.835,2.255,11.826,1.739,17.835,1.089a3.55,3.55,0,0,1,1.66.27c2.869,1.2,5.727,2.416,8.56,3.695.561.253,1.414.813,1.4,1.2-.047,1.077-.034,2.565-1.652,2.574-2.421.013-4.839-.21-7.262-.274a8.424,8.424,0,0,0-1.731.314c.276.688.454,1.9.843,1.975,2.238.41,2.353,2.119,2.665,3.78.391,2.062.72,4.141,1.238,6.173.346,1.35-.127,1.937-1.314,2.472-4.032,1.824-8.313,1.9-12.56,1.671-4.926-.266-9.84-.849-14.741-1.429-2.833-.336-2.894-.686-1.726-3.374,1.726-3.971,3.357-7.982,5.052-11.966.384-.9.58-1.654-.516-2.217-1.225-.627-1.365.4-1.954,1.023a5,5,0,0,1-2.531,1.48A11.221,11.221,0,0,1,472.774,740Z" transform="translate(-463.123 -655.729)"/><path class="c" d="M513.77,716.551l-.48,7.583-.76-.34a10.2,10.2,0,0,0-1.735,2.23,12.46,12.46,0,0,0-.739,3.561,2.085,2.085,0,0,0,.669,1.557,2.724,2.724,0,0,1-.333,4.559,9.989,9.989,0,0,1-2.873.975,45.624,45.624,0,0,1-20.54-.588c-3.725-.97-7.407-2.126-11.055-3.351-.6-.2-1.435-1.306-1.325-1.809,1.181-5.355,2.548-10.67,3.82-16.009.28-1.172.911-1.346,1.937-1.028a65.006,65.006,0,0,0,21.045,2.678C505.376,716.472,509.353,716.551,513.77,716.551Zm-13.938,9.659a36.9,36.9,0,0,0-.514,4.219c.032.565.529,1.1.818,1.652.427-.408,1.142-.762,1.234-1.236a39.326,39.326,0,0,0,.709-5.631,2.52,2.52,0,0,0-.936-1.833c-.263-.2-1.136.316-1.68.609a9.34,9.34,0,0,0-1.217.873c-1-.6-2-1.642-2.584-1.446-.707.236-1.174,1.474-1.546,2.361a22.894,22.894,0,0,0-1.389,4.226c-.123.6.4,1.325.635,1.992.45-.391,1.049-.7,1.323-1.191a34.231,34.231,0,0,0,1.208-4.219c.548-.13,1.346,1.446,1.8,1.338C498.509,727.729,498.968,726.417,499.832,726.21Zm8.969,6.126c-2.427-1.542-2.041-6.3-.183-6.564.346-.049-.871-1.28-1.482-1.45a4.276,4.276,0,0,0-2.143.44c-.406.13-1.017.384-1.066.667-.062.346,1.331.374,1.631.69.96,1.013-.008,3.334-.386,4.5-.151.472-1.393.548-1.7.947.507.391,1,1.085,1.529,1.11A25.266,25.266,0,0,0,508.8,732.337Zm-24.882-.518a21.9,21.9,0,0,0,3.312-1.446c.48-.289.567-1.227.832-1.869-.7-.006-1.556-.28-2.075.023-2.792,1.641-2.952,1.656-5.154-.571a3.719,3.719,0,0,0-1.2-.533,3.666,3.666,0,0,0-.236,1.406A4.427,4.427,0,0,0,483.919,731.818Zm.066-12c-1.187-.762-1.883-1.489-2.667-1.6-.421-.06-1.455,1.017-1.387,1.45.123.769.873,1.44,1.361,2.153Zm5.782,4.011c.922-1.308,1.711-2.028,1.894-2.877.077-.361-1.1-1.365-1.741-1.393a2.16,2.16,0,0,0-1.569,1.48C488.327,721.775,489.06,722.533,489.767,723.832Z" transform="translate(-461.083 -675.986)"/><path class="d" d="M513.3,721.582c-3.557-.423-6.33-1.353-8.536-3.589-2.58-2.612-3.493-2.784-6.814-1.3-2.862,1.283-3.841,1.085-5.98-1.346a5.188,5.188,0,0,0-5.825-1.773,33.289,33.289,0,0,1-4.935,1.143,4.711,4.711,0,0,1-2.69-.448,1.58,1.58,0,0,1-.191-2.918,30.489,30.489,0,0,1,6.394-3.448c3.181-1.1,4.51-3.5,5.455-6.328,1.189-3.561,2.155-4.468,5.827-4.353a75.183,75.183,0,0,1,10.227.9,11.2,11.2,0,0,1,7.5,4.41,6.341,6.341,0,0,1,.8,3.015,4.517,4.517,0,0,1-.561,1.926c-1.4,3.391-2.357,6.719,1.083,9.56a.748.748,0,0,1,.21.344c.333,1.062,1.24,2.593.847,3.083C515.473,721.253,513.983,721.346,513.3,721.582Z" transform="translate(-457.883 -694.56)"/><path class="c" d="M507.087,722.948c-5.536,0-11.095.312-16.6-.1-4.213-.316-8.36-1.533-12.522-2.416-.429-.089-1.132-.705-1.085-.964.6-3.344.062-7.063,2.722-9.774a9.912,9.912,0,0,1,3.313-2.168,34.019,34.019,0,0,1,5.062-1.391,3.125,3.125,0,0,1,3.408,1.17c2.913,3.533,4.487,3.476,8.723,1.633a2.954,2.954,0,0,1,3.784.609c1.448,1.378,3.293,2.327,4.88,3.572a6.07,6.07,0,0,1,1.82,2.132,19.759,19.759,0,0,1,1.026,3.722c.665,2.937-.119,4.011-3.111,4.317a13.86,13.86,0,0,1-1.425.006Z" transform="translate(-458.509 -684.67)"/><path class="c" d="M474.993,723.386c11.643,4.627,23.415,7.054,36.109,4.158-.86,3.544-1.189,6.823-4.9,8.356-2.049.847-3.788,2.565-5.876,3.175-6.939,2.024-13.928,2.1-20.563-1.159C474.214,735.19,472.4,729.376,474.993,723.386Z" transform="translate(-461.934 -665.16)"/><path class="c" d="M483.268,745.364c-1.1,2.334-1.756,5.289-4.81,5.638a7.652,7.652,0,0,1-6.948-2.523l.117-.671a20.254,20.254,0,0,1,3.372.414c1.954.567,3.081-.191,3.858-1.907C479.9,744.007,480.786,743.812,483.268,745.364Z" transform="translate(-464.542 -641.597)"/><path class="c" d="M486.2,744.6c1.765.193,3.423-.1,3.954.535,1.121,1.35.4,2.983-.8,4.143-1.359,1.317-2.714,2.8-5.113,2.366C485.344,749.52,487.981,748.133,486.2,744.6Z" transform="translate(-450.235 -641.323)"/><path class="c" d="M494.646,734.265c1.157.1,2.644.662,2.145,2.026-.406,1.1-1.979,1.813-3.134,2.542-.153.1-1.259-.7-1.291-1.134C492.2,735.52,493.056,734.282,494.646,734.265Z" transform="translate(-441.135 -652.938)"/><path class="c" d="M470.543,738.088c-.234-.259-.968-.715-1.115-1.314-.261-1.07,2.2-3.007,3.65-2.822a1.905,1.905,0,0,1,1.193,1.276C474.5,736.306,472.443,738.043,470.543,738.088Z" transform="translate(-466.903 -653.304)"/><path class="e" d="M490.246,721.138c-.686.164-1.508,1.563-2.134,1.714-.605.144-1.057-1.516-1.8-1.338a34.218,34.218,0,0,1-1.208,4.219c-.274.491-.873.8-1.323,1.191-.231-.667-.758-1.4-.635-1.992a22.9,22.9,0,0,1,1.389-4.226c.372-.888.839-2.125,1.546-2.361.588-.2,1.584.843,2.584,1.446a9.356,9.356,0,0,1,1.217-.873c.544-.293,1.416-.807,1.68-.609a2.52,2.52,0,0,1,.936,1.833,39.327,39.327,0,0,1-.709,5.631c-.091.474-.807.828-1.234,1.236-.289-.55-.786-1.087-.818-1.652A36.915,36.915,0,0,1,490.246,721.138Z" transform="translate(-451.497 -670.913)"/><path class="e" d="M493.522,726.766a25.265,25.265,0,0,1-3.8.344c-.529-.025-1.021-.72-1.529-1.11a3.534,3.534,0,0,1,1.7-.947c.633-.1.386-4.5.386-4.5-.3-.316-1.692-.344-1.631-.69.049-.282.661-.537,1.066-.667a4.274,4.274,0,0,1,2.143-.439c.611.17,1.83,1.482,1.482,1.45C492.125,720.09,491.052,724.367,493.522,726.766Z" transform="translate(-445.804 -670.415)"/><path class="a" d="M481.387,724.584a4.427,4.427,0,0,1-4.517-2.99,3.668,3.668,0,0,1,.236-1.406,3.718,3.718,0,0,1,1.2.533c2.2,2.228,2.361,2.213,5.154.571.518-.3,1.376-.03,2.075-.023-.265.641-.352,1.58-.832,1.869A21.893,21.893,0,0,1,481.387,724.584Z" transform="translate(-458.551 -668.752)"/><path class="a" d="M481.172,717.553c.134,1.728-.868,2.826-2.693,2.3a2.076,2.076,0,0,1-1.361-2.45,1.849,1.849,0,0,1,1.387-1.45C479.279,715.629,480.779,715.5,481.172,717.553Z" transform="translate(-458.27 -673.718)"/><path class="a" d="M482.8,720.757a2.294,2.294,0,0,1-2-2.37,2.226,2.226,0,0,1,2.153-1.9A2.151,2.151,0,0,1,485,718.245,2.271,2.271,0,0,1,482.8,720.757Z" transform="translate(-454.112 -672.911)"/><path class="e" d="M492.875,718.739a15.145,15.145,0,0,0-1.582,7.328l.1.108a7.706,7.706,0,0,0,1.65,1.913,37.955,37.955,0,0,1,.395-4.3,1.7,1.7,0,0,1,.117-.716l.847-2.665a2.372,2.372,0,0,0,.13-1.457,3.583,3.583,0,0,0-1.193-.552c-.121-.038-.274-.068-.359.028a.356.356,0,0,0-.064.138l-.2.684" transform="translate(-442.327 -670.803)"/></svg>