<svg xmlns="http://www.w3.org/2000/svg" width="39.415" height="27.686" viewBox="0 0 39.415 27.686">
  <g id="グループ_2714" data-name="グループ 2714" transform="translate(-845 -1305)">
    <g id="グループ_1660" data-name="グループ 1660" transform="translate(845 1305)">
      <path id="パス_16791" data-name="パス 16791" d="M199.494,605.885l3.049.17c.453.143.115.655-.155.84-.729.5-2.525.58-2.505,1.117-.149.845,1.64.945,2.235,1.6.2.222.459,1.007-.052,1.008-.692-.076-1.385-.156-2.151-.242a29.524,29.524,0,0,0-3.02,3.758,9.877,9.877,0,0,0-1.319,4.056c-.338,4.128-2.191,7.11-6.149,8.846.2,1.252.754,2.966-1.045,3.259-.816.134-1.449-1.831-1.767-2.2l-.587,2.2a1.03,1.03,0,0,1-1.381-.051l-.8-1.836c-1.944-.21-4.36-.131-6.545-.8-2.362-.72-4.484-2.18-6.753-3.228a17.694,17.694,0,0,0-4.068-1.5c-2.8-.522-3.817-2.173-2.675-4.794a15.292,15.292,0,0,1,.961-1.754,1.783,1.783,0,0,1,2.784-.727c1.214.665,3.314.94,4.391,1.324-1.812-2.4-.978-4.612-.851-6.764.105-1.792,1.906-2.436,3.435-1.432,1.949,1.281,3.867,2.618,5.885,3.781,3.661,2.108,5.175,1.141,7.512-2.148a25.559,25.559,0,0,0,2.509-4.647,4.834,4.834,0,0,1,8.55-.537,5.591,5.591,0,0,0,.508.69m-34.1,14.533c2.25.876,4.49,1.332,6.228,2.509a17.3,17.3,0,0,0,12.59,2.881c2.957-.414,5.965-1.073,7.68-3.713a16.849,16.849,0,0,0,1.812-5.328c.466-1.983,1.037-3.792,2.746-5.135a3.867,3.867,0,0,0,1.073-4.981,4.019,4.019,0,0,0-2.581-1.722,3.208,3.208,0,0,0-2.411,1.288c-1.345,1.836-2.311,3.938-3.647,5.78-3.118,4.3-5.583,4.834-9.676,1.959-1.841-1.291-3.81-2.405-5.832-3.668-1.032,1.9-1.058,3.6-.053,4.99,1.926,2.669,5.713,5.363,9.916,3.8a8.717,8.717,0,0,1,2.236-.17,3.348,3.348,0,0,1-3.037,2.695,9.458,9.458,0,0,1-6.674-1.633,5.735,5.735,0,0,0-3.665-1.229,9.215,9.215,0,0,1-4.048-.865c-1.819-.743-2.135-.689-2.5,1.246-.09.485-.124.98-.162,1.293" transform="translate(-163.35 -602.86)" fill="#68472e"/>
      <path id="パス_16792" data-name="パス 16792" d="M165.406,620.036a.82.82,0,0,1-.536-.861c.024-.21.053-.435.094-.658.36-1.935.677-1.989,2.5-1.246a9.26,9.26,0,0,0,4.048.865,5.735,5.735,0,0,1,3.667,1.229A9.458,9.458,0,0,0,181.849,621a3.426,3.426,0,0,0,2.474-1.409.828.828,0,0,0-.734-1.265,2.952,2.952,0,0,0-.94.149c-4.2,1.56-7.991-1.134-9.916-3.8-1.006-1.394-.979-3.092.053-4.991,2.02,1.263,3.99,2.377,5.83,3.668,4.093,2.875,6.557,2.341,9.677-1.958,1.335-1.843,2.3-3.945,3.646-5.781a3.213,3.213,0,0,1,2.412-1.288,4.016,4.016,0,0,1,2.58,1.722,3.866,3.866,0,0,1-1.072,4.981c-1.71,1.342-2.28,3.152-2.746,5.134a16.882,16.882,0,0,1-1.812,5.329c-1.715,2.64-4.723,3.3-7.681,3.713a17.3,17.3,0,0,1-12.59-2.88c-1.582-1.072-3.58-1.546-5.625-2.283m29.615-11.465a.831.831,0,0,0,.017-1.317,2.283,2.283,0,0,0-.927-.52c-.16-.034-.356.106-.56.291a.824.824,0,0,0-.07,1.156,2.934,2.934,0,0,0,.855.728c.127.062.364-.1.685-.339" transform="translate(-162.734 -602.271)" fill="#e7f1db"/>
      <path id="パス_16793" data-name="パス 16793" d="M186.915,606.281a1.18,1.18,0,0,1,0,1.625,1.253,1.253,0,0,1-.82.359,1.128,1.128,0,0,1-1.167-.665,1.084,1.084,0,0,1,.329-1.258,1.193,1.193,0,0,1,.6-.318,1.1,1.1,0,0,1,1.056.258" transform="translate(-154.617 -601.588)" fill="#68472e"/>
    </g>
  </g>
</svg>
