<svg xmlns="http://www.w3.org/2000/svg" width="136.46" height="121.292" viewBox="0 0 136.46 121.292"><defs><style>.a{fill:#573622;}.b{fill:#e8edb8;}.c{fill:#addced;}.d{fill:#adca67;}.e{fill:#fff;}</style></defs><g transform="translate(-385.704 -1477.284)"><g transform="translate(385.704 1477.284)"><path class="a" d="M271.486,788.761c-6.137,1.866-11.793,3.176-17.623,1.176-4.056-1.393-7.476-3.6-8.975-7.871-1.379-3.929.081-6.112,4.324-6.779,5.518-.868,10.777-2.367,15.276-5.927,5.55-4.391,8.931-10.308,11.934-16.516,2.16-4.465,2.852-9.267,3.3-14.14.374-4.1.885-8.188,1.354-12.454-2.063-.277-4.779.388-6.047-2.448,5.167-4.892,10.1-9.936,15.484-14.459a12.615,12.615,0,0,0,3.682-5.271,30.328,30.328,0,0,1,4.271-6.83c1.39-1.764,2.587-1.6,4.569-.007,2.227,1.79,2.672,3.233,1.52,5.067a29.656,29.656,0,0,0-2.49,3.892c-1.524,3.571-.115,6.717,1.649,9.839,1.952,3.455,3.287,7.114,2.095,11.179-.169.578-.524,1.379-.986,1.545-2.1.76-2.023,2.337-1.615,3.977.887,3.562,2.012,7.065,2.788,10.65.813,3.746.092,7.377-2.806,9.969-3.626,3.238-4.843,7.363-5.7,11.867a27.529,27.529,0,0,1-2.379,6.567,2.43,2.43,0,0,0,.277,3.095c3.146,3.9,6.114,7.938,9.216,11.872a18.8,18.8,0,0,0,2.693,2.568c2.187,1.85,3.284,4.215,2.194,5.677-.758,1.014-2.143,2.187-3.233,2.171-1.52-.021-4.005-.758-4.342-1.769-.878-2.624-3.146-2.818-4.813-4.037l-.647.2c.434,1.915.836,3.839,1.316,5.742.342,1.356.825,2.677,1.18,4.028.589,2.245.086,3.335-2.178,3.9-1.448.365-1.781,1.028-1.52,2.34.116.573.023,1.18.088,1.767.554,5.125-1.531,7.65-6.673,7.92a15.926,15.926,0,0,1-3.271-.346c-1.395-.222-3.2-.464-3.1-2.162a4.854,4.854,0,0,1,2.171-3.185c1.589-1,2.534-2.079,1.975-3.908a2.143,2.143,0,0,0-1.6-1.2,2.457,2.457,0,0,0-1.986.965,21.9,21.9,0,0,0-.831,4.109c-.66,3.765-4.328,5.7-8.5,4.451a18.083,18.083,0,0,1-4.631-2.476c-1.21-.808-1.836-2.21-.9-3.448a5.707,5.707,0,0,1,2.862-1.46c1.025-.312,2.21-.146,3.187-.536.485-.194.818-1.143.9-1.792.035-.277-.7-.753-1.164-.975-1.446-.691-2.966-1.236-4.393-1.961-1.746-.887-2.021-2.259-1.356-4.1C269.227,795.926,270.248,792.549,271.486,788.761Zm15.369-64.655-1-.4c-.836,1.164-2.067,2.22-2.421,3.516a36.483,36.483,0,0,0-1.328,8.031c-.4,9.456-2.409,18.346-7.754,26.367-4.97,7.458-11.073,13.174-20.277,14.731-1.737.3-3.455.714-5.171,1.125-1.8.434-2.917,1.534-1.933,3.351a18.264,18.264,0,0,0,3.859,5.439c4.742,3.964,16,2.735,19.7-.282,3.8-3.1,7.227-6.756,12.147-8.289a33.258,33.258,0,0,0,5.181-2.425,12.822,12.822,0,0,0,7.372-10.075c.73-5.379,2.434-10.183,6.682-14,2.85-2.559,2.788-7.481,1.409-11.147-1.21-3.22-1.587-6.77-2.173-10.2-.189-1.1-3.416-5.051-4.511-4.9a2.779,2.779,0,0,0-1.4.931c-1.109,1.185-2.067,2.518-3.247,3.619-.739.691-2.15,1.711-2.594,1.451a5.278,5.278,0,0,1-1.825-2.809A25.9,25.9,0,0,1,286.854,724.106Zm6.245,50.8c-1.478.891-2.686,1.753-4,2.381-2.661,1.268-5.407,2.356-8.07,3.617-3.361,1.591-6.1,3.744-7.139,7.617-.9,3.34-2.062,6.61-3.15,9.9-1.074,3.247-.811,3.721,2.617,4.612,7.077,1.838,14.207,1.169,21.323.374,2.663-.3,2.751-.716,1.968-3.324a62.771,62.771,0,0,1-2.206-8.313c-.323-2.079.076-4.271.153-6.412l.97-.2a15.636,15.636,0,0,1,1.143,2.021c1.527,3.938,3.961,4.407,6.67,1.139C299.955,783.858,296.52,779.372,293.1,774.91ZM303.242,727.6c1.8-4.538.674-7.929-1.187-10.966-3.185-5.2-3.79-10.125.291-15.1.67-.82,1.538-1.8.215-2.841s-2.273-.4-3.233.621a16.326,16.326,0,0,0-4.065,7.973,4.3,4.3,0,0,1-1.693,2.578c-5.929,3.532-10.16,8.763-14.3,14.265a58.07,58.07,0,0,0,6.486-2.4c.774-.319,1.577-.559,2.37-.836a20.772,20.772,0,0,1,.746,2.555c.252,1.545.379,3.111.557,4.668l.647.189c1.887-2.123,3.776-4.243,5.8-6.523Zm-18.5,86.856c3.088,1.032,5.779.658,7.4-.906,1.966-1.9,1.314-4.252.891-6.432-.1-.49-1.564-.961-2.4-.975-.633-.012-1.869.8-1.827,1.12a5.653,5.653,0,0,1-3.658,6.495C284.993,813.824,284.937,814.1,284.743,814.452ZM269.58,810.83a6.827,6.827,0,0,0,7.918,2.991c1.882-.617,3.058-3.654,2.827-7.447-1.1.132-2.538-1.467-3.176.827-.741,2.656-2.012,3.543-4.728,3.467C271.6,810.646,270.783,810.756,269.58,810.83Zm36.338-20.413-.975-.011a9.5,9.5,0,0,0-1.61,2.7,1.779,1.779,0,0,0,2.093,2.174c.838-.132,2.157-1.275,2.13-1.919C307.514,792.36,306.512,791.4,305.918,790.417Z" transform="translate(-244.384 -695.979)"/><path class="b" d="M285.594,708.385a25.908,25.908,0,0,0,.721,4.035,5.277,5.277,0,0,0,1.825,2.809c.444.261,1.855-.76,2.594-1.451,1.18-1.1,2.139-2.434,3.247-3.619a2.779,2.779,0,0,1,1.4-.931c1.095-.152,4.321,3.795,4.511,4.9.587,3.432.963,6.982,2.173,10.2,1.379,3.665,1.441,8.587-1.409,11.146-4.248,3.813-5.952,8.617-6.682,14a12.822,12.822,0,0,1-7.373,10.075,33.266,33.266,0,0,1-5.181,2.425c-4.92,1.534-8.343,5.192-12.147,8.29-3.7,3.016-14.962,4.245-19.7.282a18.264,18.264,0,0,1-3.859-5.439c-.984-1.818.132-2.917,1.933-3.351,1.716-.411,3.434-.829,5.171-1.125,9.2-1.557,15.306-7.273,20.277-14.731,5.345-8.021,7.356-16.911,7.754-26.367a36.5,36.5,0,0,1,1.328-8.031c.353-1.3,1.584-2.351,2.421-3.516ZM279.781,743.8c-.79,2.056-.159,3.495,1.875,4.6a3.573,3.573,0,0,0,4.458-.425,1.507,1.507,0,0,0,.129-1.335c-.118-.3-.852-.684-1.007-.58-2.439,1.64-3.515.026-4.564-1.8C280.554,744.063,280.18,744,279.781,743.8Zm4.506-6.638c-1.169-.732-1.848-1.5-2.418-1.425-.661.086-1.222.912-1.827,1.418.594.7,1.079,1.7,1.827,1.973C282.261,739.277,283.12,738.155,284.287,737.166Zm5.645,4.368c.728-1.076,1.5-1.716,1.439-2.261-.067-.6-.9-1.109-1.4-1.658-.506.515-1.367,1-1.416,1.557C288.5,739.755,289.23,740.406,289.932,741.533Z" transform="translate(-243.124 -680.257)"/><path class="c" d="M278.474,730.153c3.421,4.462,6.855,8.948,10.276,13.41-2.709,3.268-5.144,2.8-6.67-1.139a15.622,15.622,0,0,0-1.143-2.021l-.97.2c-.076,2.141-.476,4.333-.152,6.412a62.767,62.767,0,0,0,2.206,8.313c.783,2.608.7,3.026-1.968,3.324-7.116.794-14.246,1.464-21.323-.374-3.428-.892-3.691-1.365-2.617-4.612,1.088-3.287,2.254-6.557,3.15-9.9,1.042-3.873,3.779-6.026,7.139-7.617,2.663-1.261,5.409-2.349,8.07-3.617C275.788,731.906,277,731.044,278.474,730.153Z" transform="translate(-229.759 -651.222)"/><path class="d" d="M283.462,726.362l-7.366-5.816c-2.028,2.28-3.917,4.4-5.8,6.523l-.647-.189c-.178-1.557-.3-3.123-.557-4.668a20.788,20.788,0,0,0-.746-2.555c-.792.277-1.6.517-2.37.836a58.085,58.085,0,0,1-6.486,2.4c4.141-5.5,8.373-10.733,14.3-14.265a4.3,4.3,0,0,0,1.693-2.578,16.326,16.326,0,0,1,4.065-7.973c.961-1.025,1.919-1.656,3.234-.621s.455,2.021-.215,2.841c-4.081,4.978-3.476,9.906-.291,15.1C284.136,718.432,285.261,721.823,283.462,726.362Z" transform="translate(-224.604 -694.744)"/><path class="e" d="M261.858,751.987c.194-.349.249-.628.4-.7a5.653,5.653,0,0,0,3.658-6.495c-.042-.316,1.194-1.132,1.827-1.12.841.014,2.307.485,2.4.975.423,2.18,1.074,4.529-.892,6.432C267.637,752.645,264.946,753.019,261.858,751.987Z" transform="translate(-221.499 -633.514)"/><path class="e" d="M255.293,748.47c1.2-.074,2.023-.185,2.841-.162,2.716.076,3.986-.811,4.728-3.467.638-2.294,2.072-.7,3.176-.827.231,3.793-.945,6.83-2.827,7.447A6.827,6.827,0,0,1,255.293,748.47Z" transform="translate(-230.097 -633.618)"/><path class="e" d="M272.517,736.874c.594.979,1.6,1.943,1.638,2.945.028.644-1.291,1.788-2.13,1.919a1.779,1.779,0,0,1-2.092-2.174,9.5,9.5,0,0,1,1.61-2.7Z" transform="translate(-210.983 -642.435)"/><path class="a" d="M260.442,723.492c.4.2.774.259.892.462,1.049,1.822,2.125,3.437,4.564,1.8.155-.1.889.284,1.007.58a1.507,1.507,0,0,1-.129,1.335,3.573,3.573,0,0,1-4.458.425C260.283,726.987,259.652,725.548,260.442,723.492Z" transform="translate(-223.785 -659.945)"/><path class="a" d="M264.613,721.6a2.1,2.1,0,0,1-2.418,1.966,1.75,1.75,0,0,1-1.827-1.973,2.057,2.057,0,0,1,1.852-1.707A2.008,2.008,0,0,1,264.613,721.6Z" transform="translate(-223.45 -664.69)"/><path class="a" d="M265.826,724.731a2.175,2.175,0,0,1-2.072-2.127,2.31,2.31,0,0,1,2.109-1.792c1.52.1,2.118,1.19,2.067,1.788A2.142,2.142,0,0,1,265.826,724.731Z" transform="translate(-219.019 -663.456)"/></g><g transform="translate(470.147 1537.93)"><path class="a" d="M290.73,724.427c6.282.259,11.546,5.465,11.408,11.114-.15,6.225-5.834,12.736-12.089,12.283-2.788-.2-5.619-2.608-8.026-4.52-2.557-2.032-3.245-5.345-3.243-8.417C278.782,729.125,284.672,724.18,290.73,724.427Zm-.122,2.432c-4.707-.014-9.29,4.271-9.324,8.721-.039,4.873,4.617,9.922,9.015,9.775,4.333-.148,9.16-5.742,9.206-10.675C299.549,730.37,295.571,726.875,290.608,726.859Z" transform="translate(-278.78 -724.418)"/><path class="a" d="M303.847,746.213c.386,5.3-3.839,12.015-11.1,11.075-4.652-.6-9.943-4.977-9.832-11.234.139-7.855,5.164-10.553,10.978-10.994C298.53,734.706,304.332,739.268,303.847,746.213Zm-2.538-.358c.072-5.178-2.361-8.37-6.77-8.248-5.042.141-8.851,2.82-9.049,8-.215,5.606,3.2,9.126,8.668,9.209C297.787,754.87,301.244,750.537,301.309,745.855Z" transform="translate(-273.373 -710.506)"/><path class="a" d="M303.406,749.941c-6.326-.831-9.811-4.291-10.056-10.747-.155-4.06,5.185-8.294,10-8.2,3.952.081,8.43,5.146,8.373,9.47C311.652,745.308,307.5,750.038,303.406,749.941Zm5.749-9.925c.175-2.966-2.7-6.419-5.43-6.532-3.264-.136-7.675,3.379-7.846,6.255-.254,4.252,3.007,7.3,7.989,7.458C305.951,747.264,308.968,743.167,309.155,740.016Z" transform="translate(-259.702 -715.804)"/><path class="d" d="M289.188,725.475c4.964.016,8.941,3.511,8.9,7.821-.046,4.933-4.873,10.527-9.206,10.675-4.4.148-9.054-4.9-9.015-9.775C279.9,729.746,284.481,725.461,289.188,725.475Zm-4.026,12.292c1.492,2.289,2.991,3.194,5.109,2.712,1.159-.266,2.293-.661,2.525-2.492-1.462.6-2.564,1.423-3.64,1.395C288.01,739.349,286.886,738.508,285.163,737.767Zm2.917-4.566c-.8-.393-1.351-.889-1.681-.771a1.954,1.954,0,0,0-1.111,1.226c-.062.3.822,1.146.938,1.086A11.4,11.4,0,0,0,288.08,733.2Z" transform="translate(-277.36 -723.034)"/><path class="d" d="M299.851,744.4c-.065,4.682-3.522,9.015-7.151,8.959-5.467-.083-8.883-3.6-8.668-9.209.2-5.178,4.007-7.857,9.049-8C297.49,736.032,299.922,739.224,299.851,744.4Zm-9.594,3.6c1.423,2.536,4.264,2.739,5.613.6a1.039,1.039,0,0,0,.032-.952c-.143-.185-.8-.265-.908-.134C293.6,749.254,291.993,748.813,290.256,748.005Zm7.192-4.941c-.765-.593-1.187-1.136-1.7-1.247-.321-.069-.783.517-1.18.811a5.548,5.548,0,0,0,1.268,1.423C296.046,744.171,296.672,743.559,297.448,743.064Z" transform="translate(-271.915 -709.052)"/><path class="d" d="M307.727,738.607c-.187,3.15-3.2,7.248-5.287,7.181-4.982-.162-8.243-3.206-7.989-7.458.171-2.875,4.582-6.391,7.846-6.255C305.031,732.188,307.9,735.641,307.727,738.607Zm-8.8,3.37c.857,2.176,2.25,2.647,4.7,1.571.441-.194.644-.931.958-1.418-.564-.056-1.189.626-1.5.878C301.713,744.111,300.315,743.15,298.932,741.977Zm4.321-2.021,1.208.106.342-2.356-1.55-.116Z" transform="translate(-258.274 -714.395)"/><path class="a" d="M282.158,730.8c1.723.741,2.848,1.582,3.993,1.614,1.076.028,2.178-.795,3.64-1.395-.231,1.831-1.365,2.227-2.524,2.492C285.149,733.991,283.65,733.086,282.158,730.8Z" transform="translate(-274.356 -716.064)"/><path class="a" d="M285.014,729.295c.236,1.739-1.021,1.949-1.792,1.866-.54-.256-1.125-.723-1-1.411a1.919,1.919,0,0,1,1.111-1.226C283.663,728.406,284.811,728.339,285.014,729.295Z" transform="translate(-274.295 -719.128)"/><path class="a" d="M286.721,741.6c1.737.808,3.347,1.249,4.737-.487.106-.132.765-.051.908.134a1.038,1.038,0,0,1-.032.952C290.985,744.335,288.144,744.132,286.721,741.6Z" transform="translate(-268.38 -702.644)"/><path class="a" d="M291.469,739.981a1.411,1.411,0,0,1-1.617,1.143c-.7-.1-1.266-.321-1.266-1.58a1.528,1.528,0,0,1,1.441-1.032C290.543,738.623,291.469,738.729,291.469,739.981Z" transform="translate(-265.936 -705.969)"/><path class="a" d="M296.383,736.36c1.383,1.173,2.781,2.134,4.16,1.03.314-.252.94-.933,1.5-.878-.314.487-.517,1.224-.958,1.418C298.633,739.007,297.24,738.536,296.383,736.36Z" transform="translate(-255.726 -708.778)"/><path class="a" d="M298.687,737.044a1.468,1.468,0,1,1,1.813-2.24,1.623,1.623,0,0,1-.605,2.347A1.134,1.134,0,0,1,298.687,737.044Z" transform="translate(-253.708 -711.483)"/><path class="a" d="M297.067,737.163a1.468,1.468,0,1,1,.54-2.831,1.622,1.622,0,0,1,.575,2.354A1.143,1.143,0,0,1,297.067,737.163Z" transform="translate(-256.742 -711.565)"/><path class="a" d="M286.381,731.119c-1.755.055-1.834-1.217-1.672-1.977a1.379,1.379,0,0,1,1.693-.783,1.476,1.476,0,0,1,1.051.986C287.536,729.687,287.354,731.013,286.381,731.119Z" transform="translate(-271.089 -719.326)"/><path class="a" d="M288.6,739.809a1.411,1.411,0,0,1-1.134,1.621c-.7.143-1.3.125-1.728-1.06a1.526,1.526,0,0,1,1.009-1.458C287.266,738.841,288.174,738.629,288.6,739.809Z" transform="translate(-269.687 -705.515)"/></g></g></svg>