<svg xmlns="http://www.w3.org/2000/svg" width="148.049" height="85.257" viewBox="0 0 148.049 85.257"><defs><style>.a{fill:#573622;}.b{fill:#f5b8b2;}.c{fill:#b86465;}.d{fill:#c87664;}.e{fill:#74b457;}</style></defs><g transform="translate(-559.464 -519.31)"><g transform="translate(559.464 577.532)"><path class="a" d="M303.773,518.711a7.3,7.3,0,0,1,1.557-.316c1.325,3.809,3.695,1.8,6.024,2.733a2.847,2.847,0,0,1,1.438,1.344,54.038,54.038,0,0,1,2.559,6.661c1.179,4.179-.172,7.916-2.695,11.214a5.629,5.629,0,0,1-8.092.531c-2.389-2.085-4.512-4.33-4.831-7.693a23.325,23.325,0,0,0-.7-5.459c-.75-2.266,1.04-4.09,2.818-5.394C303.149,521.376,304.376,520.573,303.773,518.711Zm8.53,9.177c-2.595,1.939-5.168,3.111-8.245,2.984-1.629-.068-2.162.924-1.892,2.55.459,2.79,2.346,4.557,4.4,6.077,1.55,1.149,3.5.5,4.523-1.223a16.206,16.206,0,0,0,1.542-3.293C313.356,532.709,313.743,530.394,312.3,527.888Zm-7.451-4.075-.7-.393c-.928,1.242-1.918,2.444-2.733,3.754a1.533,1.533,0,0,0,.556,1.376c2.03.762,6.8-.677,8.171-2.55a2.882,2.882,0,0,0,.448-2.489c-.34-.6-2.453-.7-3.281-1.015-.255.72.418,1.45.13,2.157-.236.58-.542,1.134-.818,1.7a10.283,10.283,0,0,1-1.289-1.251A4.947,4.947,0,0,1,304.852,523.814Z" transform="translate(-298.854 -518.388)"/><path class="b" d="M310.587,522.862c1.44,2.506,1.053,4.82.327,7.094a16.2,16.2,0,0,1-1.542,3.294c-1.026,1.724-2.973,2.372-4.523,1.223-2.053-1.52-3.941-3.287-4.4-6.077-.27-1.627.263-2.618,1.892-2.55C305.418,525.973,307.992,524.8,310.587,522.862Z" transform="translate(-297.138 -513.361)"/><path class="c" d="M303.488,521.569a5.787,5.787,0,0,0,.514,1.357,5.254,5.254,0,0,0,.767.786.54.54,0,0,0,.839-.166c.178-.35.355-.7.5-1.066.289-.707-.384-1.438-.13-2.157.828.316,2.941.418,3.281,1.015a2.882,2.882,0,0,1-.448,2.489c-1.372,1.873-6.141,3.313-8.171,2.55a1.533,1.533,0,0,1-.556-1.376c.771-1.24,1.849-2.584,2.733-3.754C303.189,521.3,303.117,521.514,303.488,521.569Z" transform="translate(-297.516 -516.214)"/></g><g transform="translate(588.078 551.361)"><path class="a" d="M317.513,541.344c-2-.524-3.654-.7-4.684-2.586-.826-1.516-.646-2.68.682-3.5a21.157,21.157,0,0,1,4.045-1.769c1.2-.429,2.457-.682,4.007-1.1-.629-1.074-1.06-1.964-1.627-2.758a8.066,8.066,0,0,1,1.7-11.252c1.712-1.391,2.748-2.763,2.758-5.2.013-2.289.966-4.572,1.567-7.12,3.933,1.438,4.746,4.695,5.684,7.651,2.792.658,5.451,1.329,8.133,1.879a2.72,2.72,0,0,0,1.629-.471,53.434,53.434,0,0,1,5.12-2.9,3.936,3.936,0,0,1,3.143.155c.444.268.357,1.956.036,2.831-.714,1.949-1.739,3.784-2.606,5.68a1.694,1.694,0,0,0-.1.936c.391,2.3.811,4.6,1.249,7.058,5.738-.988,11.653-1,17.011,3.291.437-.348,1-.788,1.554-1.244,4.854-4.028,10.413-5.629,16.52-4.026,3.546.932,6.13-.257,8.453-2.508,3.4-3.293,6.468-6.918,10.728-9.228,5.073-2.752,10.32-2.933,15.758-1.433,6.194,1.707,9.685,6.143,11.938,11.811,1.525,3.835-.416,8.876-4.468,10.887a55.745,55.745,0,0,1-9.029,3.491,11.406,11.406,0,0,1-9.778-1.263,2.406,2.406,0,0,0-1.8-.145c-2.837.9-5.591,2.117-8.473,2.822-5.117,1.253-9.732-.393-14.146-2.941-4.34-2.508-8.842-2.215-13.282-.282a2.471,2.471,0,0,0-1.229,1.939,27.306,27.306,0,0,0,1.4,6.9c.5,1.274,2.066,2.144,3.194,3.153,1.278,1.143,2.913,2.026,3.826,3.4,1.244,1.867.338,3.862-1.716,4.833-4,1.894-8.169.913-11.367-3.085a5.37,5.37,0,0,0-5.077-2.185,17.459,17.459,0,0,1-12.08-4.572,7.167,7.167,0,0,0-5.791-1.739c-3.336.31-6.865,1.047-10,.3a13.631,13.631,0,0,0-7.687.505,39.917,39.917,0,0,1-4.553,1.028c-1.711.314-3.937-.79-4.345-2.257-.51-1.837.431-3.121,1.962-4.037C316.345,541.957,316.934,541.66,317.513,541.344Zm86.989-5.13c-.569-1.856-1.136-3.245-1.412-4.691-.605-3.185.663-5.657,3.153-7.627,2.3-1.816,4.71-3.049,7.634-1.646.508.244.739,1.062,1.1,1.616-.561.14-1.17.5-1.669.382a7.137,7.137,0,0,0-8.22,4.6,7.626,7.626,0,0,0,4.544,8.723c3.514,1.183,6.81.006,10.165-.765,3.38-.779,5.729-3.009,7.7-5.612.756-1,1.512-2.709,1.155-3.693a23.255,23.255,0,0,0-3.9-7.464c-5.4-6.147-17.3-6.6-23.08-1.66-2.869,2.452-5.449,5.241-8.258,7.767-2.548,2.294-5.239,4.453-9.059,3.306-6.952-2.089-12.694.2-17.78,4.788.24,1.76,1.176,1.907,2.608,1.336a16.06,16.06,0,0,1,14.3.843c3.555,1.947,7.241,3.631,11.392,2.7C398.089,538.4,401.194,537.233,404.5,536.214Zm-88.73,9.148.293.964a44.088,44.088,0,0,0,5.99-1.151c2.877-.958,5.432-1.7,8.638-.448,2.17.852,5.047.112,7.572-.2,3.414-.422,6.394-.183,9.258,2.24a15.2,15.2,0,0,0,12.855,3.7,3.6,3.6,0,0,1,2.493,1.045c1.45,1.291,2.618,2.9,4.088,4.162a5.935,5.935,0,0,0,6.844.3c1.278-.807,1.342-1.826.081-2.693-.66-.454-1.546-.6-2.17-1.089-1.3-1.019-3.066-1.945-3.618-3.319a31.373,31.373,0,0,1-2.283-8.982c-.414-5.111-2.327-7.706-7.354-8.664a18.742,18.742,0,0,0-1.994-.406c-4.226-.314-8.354-.242-11.965,2.521-5.1,3.9-10.738,5.279-16.8,2.7-2.932-1.249-5.64-1.979-8.638-.505-.518.255-1.253.057-1.779.3-1,.465-1.926,1.1-2.884,1.665l.318.9c3.071-.27,6.139-.571,9.212-.786a7.461,7.461,0,0,1,1.9.37c-.257.609-.34,1.495-.8,1.784-2.346,1.474-4.8,2.782-7.192,4.179C317.125,544.37,316.462,544.89,315.772,545.361Zm15.866-28.575c-3.629-.4-9.778,3.223-10.982,6.349a4.46,4.46,0,0,0-.219,1.189c-.244,2.54,2.372,7.207,4.767,8.426,5.616,2.86,11.144,2.911,16.59-.52,3.756-2.366,5.3-7.012,3.045-10.088-2.933-3.99-5.693-5.8-10.443-1.992a17.8,17.8,0,0,1-1.811,1.3c-.592.365-1.238.641-2.329,1.191Zm-5.485-1.336c1.459-.675,3.162-1.157,3.134-1.5a21.04,21.04,0,0,0-1.189-4.327l-.943.11Zm16.559,1.665,2.9,2.336,1.561-4.372-.573-.467Zm-10.173,2.614,3.95-2.688C333.637,515.867,332.766,516.449,332.539,519.729Z" transform="translate(-312.33 -506.063)"/><path class="d" d="M375.8,531.479c-3.308,1.019-6.413,2.189-9.621,2.907-4.151.93-7.838-.754-11.392-2.7a16.06,16.06,0,0,0-14.3-.843c-1.431.571-2.368.425-2.608-1.336,5.086-4.593,10.827-6.878,17.78-4.788,3.82,1.147,6.51-1.013,9.059-3.306,2.809-2.527,5.389-5.315,8.258-7.767,5.784-4.943,17.676-4.487,23.08,1.661a23.256,23.256,0,0,1,3.9,7.464c.357.983-.4,2.695-1.155,3.693-1.973,2.6-4.321,4.833-7.7,5.612-3.355.771-6.651,1.947-10.165.764a7.626,7.626,0,0,1-4.544-8.723,7.137,7.137,0,0,1,8.22-4.6c.5.117,1.108-.242,1.669-.382-.361-.554-.592-1.372-1.1-1.616-2.924-1.4-5.338-.17-7.634,1.646-2.491,1.97-3.759,4.442-3.153,7.627C374.664,528.234,375.231,529.623,375.8,531.479Zm5.852-5.27a3.644,3.644,0,0,0,3.9,3.4c2.924-.083,6.328-3.465,6.508-6.544.07-1.2.053-2.457-1.045-2.523a43.4,43.4,0,0,1-3.206,5.544C386.116,528.2,383.884,526.892,381.653,526.209Z" transform="translate(-283.628 -501.328)"/><path class="b" d="M314.677,532.331c.69-.471,1.353-.992,2.075-1.41,2.4-1.4,4.846-2.705,7.192-4.179.457-.289.539-1.174.8-1.784a7.464,7.464,0,0,0-1.9-.37c-3.073.214-6.141.516-9.212.786l-.318-.9c.958-.565,1.881-1.2,2.884-1.665.527-.246,1.261-.049,1.779-.3,3-1.474,5.706-.743,8.638.505,6.06,2.578,11.7,1.2,16.8-2.7,3.612-2.763,7.74-2.835,11.966-2.521a18.713,18.713,0,0,1,1.994.406c5.026.958,6.939,3.552,7.353,8.664A31.374,31.374,0,0,0,367,535.841c.552,1.374,2.317,2.3,3.618,3.319.624.488,1.51.635,2.17,1.089,1.261.866,1.2,1.886-.081,2.693a5.935,5.935,0,0,1-6.844-.3c-1.469-1.263-2.637-2.871-4.088-4.162a3.6,3.6,0,0,0-2.493-1.045,15.2,15.2,0,0,1-12.855-3.7c-2.865-2.423-5.844-2.663-9.258-2.24-2.525.312-5.4,1.051-7.572.2-3.206-1.257-5.761-.51-8.638.448a44.1,44.1,0,0,1-5.99,1.151Z" transform="translate(-311.234 -493.032)"/><path class="b" d="M327.357,511.129l-1.382,5.856c1.091-.55,1.737-.826,2.329-1.191a17.815,17.815,0,0,0,1.811-1.3c4.75-3.809,7.511-2,10.443,1.992,2.259,3.077.711,7.723-3.045,10.088-5.447,3.431-10.974,3.381-16.59.52-2.4-1.219-5.011-5.886-4.767-8.426a4.46,4.46,0,0,1,.219-1.189C317.579,514.352,323.729,510.732,327.357,511.129Zm-6.423,13.558a3.076,3.076,0,0,0,4.47,1.559c.319-.166.444-.7.66-1.066-.338-.172-.843-.79-1.015-.493C323.9,526.683,322.316,525.152,320.934,524.687Zm9.7-2.805c-.879-.847-1.306-1.55-1.888-1.722-.4-.117-1.493.641-1.455.779a4.115,4.115,0,0,0,1.1,1.99C328.593,523.1,329.5,522.432,330.636,521.882Zm-9.5-4.529c-.847.7-1.633,1.089-1.59,1.357a7.741,7.741,0,0,0,.9,2.022c.442-.348,1.168-.639,1.257-1.062C321.817,519.113,321.435,518.45,321.136,517.352Z" transform="translate(-308.049 -500.405)"/><path class="d" d="M318.84,513.569l1-5.721.943-.11a21.04,21.04,0,0,1,1.189,4.327C322,512.412,320.3,512.893,318.84,513.569Z" transform="translate(-305.016 -504.181)"/><path class="d" d="M326.638,512.592l3.89-2.5.573.467-1.561,4.372Z" transform="translate(-296.256 -501.54)"/><path class="d" d="M321.847,514.216c.227-3.281,1.1-3.863,3.95-2.688Z" transform="translate(-301.638 -500.55)"/><path class="a" d="M358.493,520.78c2.232.684,4.463,1.992,6.156-.125a43.4,43.4,0,0,0,3.206-5.544c1.1.066,1.115,1.327,1.045,2.523-.181,3.079-3.584,6.462-6.508,6.544A3.644,3.644,0,0,1,358.493,520.78Z" transform="translate(-260.469 -495.899)"/><path class="a" d="M318.4,517.536c1.981.478,2.9,1.661,4.115,0,.2-.278.677.321,1.015.493-.217.365-.342.9-.66,1.066A3.076,3.076,0,0,1,318.4,517.536Z" transform="translate(-305.513 -493.255)"/><path class="a" d="M324.773,517.33a1.573,1.573,0,0,1-2.24,1.047c-.55-.471-1.429-.877-1.1-2.2a1.3,1.3,0,0,1,1.926-.879C323.919,515.53,324.919,515.6,324.773,517.33Z" transform="translate(-302.186 -495.854)"/><path class="a" d="M319.488,514.044a1.762,1.762,0,0,1,.852,2.344,1.561,1.561,0,0,1-1.544,1.034,2.012,2.012,0,0,1-1.189-1.956A1.782,1.782,0,0,1,319.488,514.044Z" transform="translate(-306.402 -497.097)"/></g><g transform="translate(668.333 519.31)"><path class="a" d="M360.853,509.443c1.34-4.028,2.6-7.8,3.846-11.585.17-.514.246-1.058.4-1.578,1.465-5,2.145-5.5,7.32-5.264,4.931.227,9.855.531,14.785.728,1.569.064,2.289.73,2.064,2.276-.745,5.152-1.586,10.29-2.261,15.452a10.569,10.569,0,0,1-3.232,6.952c-2.888,2.631-7.067,2.6-9.335-.312a3.127,3.127,0,0,1,.372-4.689c2.761-2.5,5.891-2.811,9.536-1.308.285-1.2.6-2.264.792-3.353.7-3.935,1.31-7.884,2.055-11.811.259-1.363-.355-1.731-1.484-1.748-5-.076-9.993-.168-14.991-.187-1.843-.006-2.6,1.051-3,3.971,3.506.667,7.245-.093,10.657,1.172l.108.843a7.285,7.285,0,0,1-2.155.762c-2.633.057-5.27,0-7.9-.1a1.887,1.887,0,0,0-2.168,1.58c-.854,2.786-1.907,5.51-2.794,8.288a10.961,10.961,0,0,0-.225,2.336c-.036.389.07.917-.142,1.14-2.467,2.595-5.1,4.89-9.037,4.744a3.953,3.953,0,0,1-3.718-2.7c-.592-1.533.142-2.9,1.416-3.916C354.378,509.044,357.213,507.88,360.853,509.443Zm22.869,2.856a5.5,5.5,0,0,0-6.056.35c-.773.5-1.159,1.593-1.722,2.414,1.015.38,2.049,1.113,3.045,1.064C381.233,516.017,382.471,514.3,383.722,512.3Zm-29.3,3.856a59.911,59.911,0,0,0,5.241-3.336c.913-.707.624-1.68-.68-1.72a7.5,7.5,0,0,0-5.98,2.438c-.314.344-.612,1.094-.446,1.4C352.8,515.37,353.472,515.567,354.425,516.155Z" transform="translate(-350.125 -490.969)"/><path class="e" d="M370.062,501.411c-1.251,2-2.489,3.718-4.733,3.828-1,.049-2.03-.684-3.045-1.064.563-.822.949-1.917,1.722-2.414A5.5,5.5,0,0,1,370.062,501.411Z" transform="translate(-336.465 -480.081)"/><path class="e" d="M353.161,505.507c-.953-.588-1.624-.786-1.864-1.221-.166-.3.132-1.053.446-1.4a7.5,7.5,0,0,1,5.98-2.438c1.3.04,1.593,1.013.68,1.72A59.907,59.907,0,0,1,353.161,505.507Z" transform="translate(-348.861 -480.321)"/></g></g></svg>