<svg xmlns="http://www.w3.org/2000/svg" width="103.158" height="93.759" viewBox="0 0 103.158 93.759"><defs><style>.a{fill:#573622;}.b{fill:#d4ebf3;}.c{fill:#96d1d6;}</style></defs><path class="a" d="M200.911,508.71c.953-1.27,1.915-2.535,2.856-3.818.973-1.323,1.85-1.2,2.966-.066,3.338,3.378,4.381,7.674,4.4,12.112a82.02,82.02,0,0,1-1.24,11.658c-.18,1.27-.17,1.979,1.064,2.824a4.259,4.259,0,0,1,1.769,3.283,56.989,56.989,0,0,1-2.565,10.135c-.346.973-2.109,1.44-3.72,2.45-1.319,4.729,2.227,11.5,9.634,14,.737-1.261,1.55-2.506,2.217-3.824a19.35,19.35,0,0,1,7.719-8.154,2.79,2.79,0,0,1,2.14-.352c.418.183.741,1.306.612,1.9-.843,3.892-1.682,7.8-2.824,11.609-.524,1.754-.637,2.582,1.151,3.852a20.024,20.024,0,0,1,6.995,9.774c.13.353-.707,1.529-1.077,1.52-4.3-.1-8.581-.378-12.038-3.455-1.973-1.756-3.941-3.514-5.946-5.232a3.157,3.157,0,0,0-1.387-.673c-10.679-2.077-18.99-7.564-24.566-17.007-.752-1.276-1.467-2.572-2.045-3.587-2.056.671-3.9,1.438-5.82,1.854a3.368,3.368,0,0,1-4.338-2.656c-1.17-4.771-.125-9.339,2.077-13.55.537-1.03,2.448-1.535,3.826-1.871,1.276-.312,1.535-.86,1.65-2.056a78.5,78.5,0,0,1,1.467-11.435c1.376-5.512,4.863-9.744,9.485-13.034.745-.533,1.41-1.181,2.359-1.987C200.32,503.724,198.885,507.118,200.911,508.71Zm25.636,42.539c-.877.6-1.327.869-1.737,1.189-3.158,2.461-5,5.848-6.5,9.441-.435,1.045-.826,1.99-2.136,1.484-4.852-1.873-9.19-4.342-11.067-9.666a22.612,22.612,0,0,1-.4-12.84c1.172-5.075,2.578-10.1,3.907-15.134a28.79,28.79,0,0,0-.193-14.1,9.315,9.315,0,0,0-3.1-5.389c-1.35,1.784-2.5,3.448-3.807,4.982-1.132,1.331-1.8,1.17-2.414-.471-.565-1.5-1.043-3.034-1.629-4.761a24.373,24.373,0,0,0-9.723,12.089,2.2,2.2,0,0,0,.89,1.835c3.179,2.047,6.283,4.406,10.475,3.589.31-.06.726.435,1.094.671-.3.3-.58.832-.892.849-1.525.078-3.189.4-4.557-.072a82.353,82.353,0,0,1-7.746-3.544,6.937,6.937,0,0,0-.444,1.363,56.63,56.63,0,0,0,1.023,20.024,30.272,30.272,0,0,0,11.743,17.346c4.659,3.391,9.558,6.529,15.754,6.226a1.86,1.86,0,0,1,1.193.567c2.109,2.062,4.071,4.287,6.288,6.222,2.535,2.211,5.64,2.843,9.383,2.674-2.183-3.769-3.933-7.3-7.708-9.144-1.374-.669-1.635-1.361-.947-2.862A34.569,34.569,0,0,0,226.547,551.249Zm-42.454-18.7c-1.463.807-3.145,1.151-3.6,2.087a18.775,18.775,0,0,0-1.682,11.628c.21,1.176.907,1.835,2.168,1.386,1.777-.631,3.531-1.325,5.022-1.89C185.342,541.175,184.764,537.192,184.093,532.548Zm25.738-.142-.9.036c-.834,3.446-1.716,6.884-2.461,10.35-.125.584.336,1.293.525,1.947.605-.42,1.61-.737,1.75-1.276.769-3,1.393-6.037,1.9-9.09C210.748,533.777,210.122,533.064,209.831,532.406Z" transform="translate(-144.246 -483.854)"/><path class="a" d="M167.286,521.341a32.047,32.047,0,0,1-4.27-1.79,3.121,3.121,0,0,1-1.61-3.788c.539-1.792,2.013-2.285,3.589-2.48,3.393-.418,6.116,1.491,8.878,2.954,1.223.648.558,2.083-.467,2.6C171.452,519.807,169.362,520.508,167.286,521.341Zm4.854-3.9c-2.276-1.346-4.134-2.915-6.615-2.308-.837.206-1.522,1.034-2.278,1.578.62.711,1.111,1.792,1.886,2.066C167.528,519.621,169.747,518.737,172.14,517.44Z" transform="translate(-161.245 -472.286)"/><path class="a" d="M215.789,520.957c-1.1,1.223-1.83,2.6-2.96,3.157a44.366,44.366,0,0,1-7.016,2.5c-.319.1-1.342-.937-1.293-1.021,1.251-2.189,2.321-4.587,4.022-6.379a4.187,4.187,0,0,1,5.292-.412A12.039,12.039,0,0,1,215.789,520.957Zm-8.267,2.737.346.671c1.576-.792,3.181-1.529,4.7-2.417.336-.2.361-.919.531-1.4-.531-.174-1.111-.58-1.58-.478A5.336,5.336,0,0,0,207.522,523.694Z" transform="translate(-112.631 -466.847)"/><path class="a" d="M183.73,501.624l-.669,3.761c-1-.605-2.051-1.151-3.007-1.824-2.446-1.726-3.151-4.306-3.27-7.107a2.24,2.24,0,0,1,2-2.423,2.963,2.963,0,0,1,3.576,1.951A42.089,42.089,0,0,1,183.73,501.624Zm-2.077.631c-.28-2.157-.44-3.86-.767-5.534-.074-.384-.858-1-1.074-.913a2.075,2.075,0,0,0-1.121,1.2C178.313,498.445,179.628,500.974,181.654,502.255Z" transform="translate(-143.791 -493.944)"/><path class="b" d="M221.383,549.629a34.57,34.57,0,0,1-3.249,12.571c-.688,1.5-.427,2.193.947,2.862,3.775,1.839,5.525,5.375,7.708,9.144-3.744.17-6.848-.463-9.383-2.673-2.217-1.935-4.179-4.16-6.287-6.222a1.86,1.86,0,0,0-1.193-.567c-6.2.3-11.095-2.835-15.754-6.226a30.271,30.271,0,0,1-11.743-17.346,56.63,56.63,0,0,1-1.023-20.024,6.932,6.932,0,0,1,.444-1.363,82.386,82.386,0,0,0,7.746,3.544c1.367.474,3.032.151,4.557.072.312-.017.595-.552.892-.849-.367-.236-.784-.731-1.094-.671-4.192.818-7.3-1.542-10.475-3.589a2.2,2.2,0,0,1-.89-1.835,24.373,24.373,0,0,1,9.723-12.089c.586,1.726,1.064,3.259,1.629,4.761.616,1.641,1.283,1.8,2.414.471,1.3-1.533,2.457-3.2,3.807-4.982a9.315,9.315,0,0,1,3.1,5.389,28.79,28.79,0,0,1,.193,14.1c-1.329,5.037-2.735,10.059-3.907,15.134a22.611,22.611,0,0,0,.4,12.84c1.877,5.324,6.215,7.793,11.067,9.666,1.31.505,1.7-.439,2.136-1.484,1.5-3.593,3.342-6.98,6.5-9.441C220.056,550.5,220.507,550.228,221.383,549.629Zm-36.026-19.073c.091,2.648,1.045,4.557,2.576,4.918a4.854,4.854,0,0,0,5.95-6.075c-.164-.605-.913-1.051-1.391-1.571-.136.648-.27,1.3-.41,1.943-.21.981-.136,2.234-.724,2.865s-2.317,1.143-2.7.79a5.058,5.058,0,0,1-1.136-3.043c-.093-.9.45-1.841.493-2.775a6.444,6.444,0,0,0-.507-1.9c-.463.429-1.151.775-1.34,1.3A27.34,27.34,0,0,0,185.357,530.556Zm7.857-16.1c-.981-.7-1.61-1.5-2.14-1.44-.561.064-1.52,1.06-1.429,1.44a2.559,2.559,0,0,0,1.567,1.61C191.609,516.172,192.282,515.244,193.214,514.456Z" transform="translate(-139.082 -482.234)"/><path class="c" d="M182.957,516.876c.671,4.644,1.249,8.628,1.913,13.212-1.491.565-3.245,1.259-5.022,1.89-1.261.448-1.958-.21-2.168-1.387a18.774,18.774,0,0,1,1.682-11.628C179.812,518.027,181.494,517.683,182.957,516.876Z" transform="translate(-143.11 -468.183)"/><path class="c" d="M193.922,516.809c.291.658.917,1.372.818,1.966-.512,3.054-1.136,6.094-1.9,9.09-.14.539-1.145.856-1.75,1.276-.189-.654-.65-1.363-.525-1.947.745-3.466,1.627-6.9,2.461-10.35Z" transform="translate(-128.336 -468.258)"/><path class="c" d="M171.081,516.5c-2.393,1.3-4.612,2.181-7.007,1.336-.775-.274-1.266-1.355-1.886-2.066.756-.544,1.442-1.372,2.278-1.578C166.947,513.586,168.8,515.155,171.081,516.5Z" transform="translate(-160.187 -471.348)"/><path class="c" d="M205.933,522.641a5.337,5.337,0,0,1,4-3.623c.469-.1,1.049.3,1.58.478-.17.48-.2,1.2-.531,1.4-1.52.888-3.126,1.625-4.7,2.417Z" transform="translate(-111.042 -465.794)"/><path class="c" d="M180.677,501.273c-2.026-1.28-3.34-3.809-2.962-5.251a2.075,2.075,0,0,1,1.121-1.2c.217-.087,1,.529,1.074.913C180.238,497.413,180.4,499.116,180.677,501.273Z" transform="translate(-142.815 -492.963)"/><path class="a" d="M183.038,519.265a27.344,27.344,0,0,1,.811-3.544c.189-.527.877-.873,1.34-1.3a6.445,6.445,0,0,1,.507,1.9c-.042.934-.586,1.879-.493,2.775a5.058,5.058,0,0,0,1.136,3.043c.382.353,2.113-.163,2.7-.79s.514-1.883.724-2.864c.14-.648.274-1.3.41-1.943.478.52,1.227.966,1.391,1.571a4.854,4.854,0,0,1-5.95,6.075C184.083,523.821,183.129,521.913,183.038,519.265Z" transform="translate(-136.763 -470.943)"/><path class="a" d="M188.627,509.921a1.744,1.744,0,0,1-2,1.61,1.44,1.44,0,0,1-1.567-1.61,1.668,1.668,0,0,1,1.646-1.514S188.637,508.286,188.627,509.921Z" transform="translate(-134.495 -477.699)"/></svg>