<svg xmlns="http://www.w3.org/2000/svg" width="142.001" height="71.992" viewBox="0 0 142.001 71.992"><defs><style>.a{fill:#573622;}.b{fill:#adca67;}.c{fill:#a99cca;}.d{fill:#dd6991;}.e{fill:#fff;}</style></defs><path class="a" d="M369.719,761.675c-.121,7.185-3.472,9.622-10.209,7.418.208,4.189-1.65,7.206-5.747,7.864-3.8.613-6.077-1.466-7.922-6.185l-2.016,1.071a7.47,7.47,0,0,1,2.231,7.8,8.142,8.142,0,0,1-2.469,3.527c-1.991,1.931-6.066,2.452-10.141-.8-2.45,3.712-5.812,4.791-10.026,3.443-2.787-.894-3.92-2.943-4.185-5.677-.288-2.975,1.666-5.614,5.668-7.8-.148-1.9-.363-3.685-.4-5.472a4.027,4.027,0,0,1,2.81-4.135c1.792-.563,4.027-1.173,5.62-.573,2.271.858,3.368.4,4.077-1.171-1.31-1.948-3-3.625-3.608-5.631a8.207,8.207,0,0,1,.538-5.625c.844-1.637,2.779-2.718,4.266-4.006.26-.223.771-.179.992-.419,1.81-1.973,3.577-3.985,5.2-5.808-2.4-1.5-4.8-2.925-7.118-4.479-1.673-1.123-1.65-1.646-.167-2.912,2.487-2.12,5.479-1.816,8.414-1.689a12.534,12.534,0,0,1,2.206.473c0-2.1-.135-4.1.037-6.076.185-2.154.815-2.435,2.752-1.494a26.8,26.8,0,0,1,9.547,7.333c2.1,2.642,1.829,5.479,1.154,8.543-1.252,5.674-5.514,7.749-10.407,9.084a26.882,26.882,0,0,1-4.695.425l1.281,2.939c2.7-.737,5.174-2.075,8.133-.519,2.837,1.492,3.75,3.82,4.316,6.674l5.039-.8c-.952-2.314-2.089-4.6-2.829-7.016a9.009,9.009,0,0,1,.115-6.829c2.6-5.376,9.012-8.835,14.828-7.551a32.476,32.476,0,0,1,7.5,2.843c2.01,1.013,1.9,1.621-.038,2.937-1.673,1.133-3.389,2.2-5.25,3.406,2.162,2.691,4.347,5.414,6.531,8.133-1.992,1.583-4.168,1.839-10.045,1.448-.787,2.44-1.693,4.756-2.252,7.152-.365,1.568-.994,1.392-2.041.835A16.516,16.516,0,0,0,369.719,761.675Zm13.515-21.712-.067-.661c-1.169-.462-2.314-1.016-3.516-1.368-4.456-1.3-8.749-1.331-12.447,2.012-.76.687-1.223,1.716-2.014,2.348a5.372,5.372,0,0,0-1.96,4.727c.223,5.423,3.208,9.4,7.041,12.872a4.909,4.909,0,0,0,1.314.6,10.83,10.83,0,0,0,1.346-8.393c1.9.246,3.516.588,5.139.627a47.859,47.859,0,0,0,4.906-.35l.3-.888c-2.058-1.956-4.123-3.908-6.174-5.874-.367-.354-.679-.767-1.017-1.152a8.336,8.336,0,0,1,1.031-.875C379.146,742.363,381.193,741.169,383.233,739.963Zm-41.473,5.262c.2.294.246.433.338.485a4.087,4.087,0,0,0,.829.367,15.308,15.308,0,0,0,11.424-1.016c3.462-1.771,6.281-6.429,5.983-10.318a3.932,3.932,0,0,0-.617-2.087,35.229,35.229,0,0,0-4.572-5,38.3,38.3,0,0,0-5.481-3.2c-1.146,3.514.229,6.3.887,9.438-2.077-.662-3.973-1.585-5.949-1.81-2.127-.24-4.431-.227-6.387,1.637a7.238,7.238,0,0,0,1.558,1.285c2.523,1.06,5.1,2,7.63,3.035a11.751,11.751,0,0,1,1.717,1.067,8.894,8.894,0,0,1-1.389.967C345.2,741.223,343.555,743.327,341.76,745.225Zm-7.047,8.493c.033,3.2,1.541,4.7,4.749,4.731s6.074-3.17,6.014-6.681c-.038-2.223-2.756-4.689-5.129-4.658C337.389,747.15,334.681,750.325,334.714,753.718ZM326,784.53c4.07-.231,5.781-1.958,5.964-5.922.117-2.548-1.791-4.364-4.541-4.393-3.7-.038-6.32,2.406-6.343,5.91C321.062,782.915,322.8,784.473,326,784.53Zm31.8-27.712a4.388,4.388,0,0,0-4.685-4.568c-3.273.165-6.495,1.677-6.443,5.139.046,3.114,2.612,5.533,6.085,5.625C354.94,763.071,357.787,759.574,357.806,756.818Zm-13.305,20.3c-.023-2.916-1.369-4.764-3.633-4.472-4.225.544-5.983,1.489-6.108,5.945a4.275,4.275,0,0,0,4.375,4.339C341.345,782.905,345.032,780.4,344.5,777.118Zm-3.346-6.995a5.48,5.48,0,0,0,5.526-5.839c-.037-2.521-1.415-3.962-3.773-3.935-2.481.029-5.91,2.708-5.927,4.631C336.95,768.313,338.451,770.16,341.155,770.123Zm-9.772,2.733c2.141-.04,4.354-2.1,4.31-4.018-.077-3.475-1.71-5.5-4.427-5.5-3.069,0-5.687,2.289-5.531,4.9C325.911,771.177,328,772.429,331.383,772.856Zm26.143-2.958c.087-2.718-1.373-3.922-3.745-3.977-3.61-.085-5.579,2.054-5.735,5.277-.089,1.856,2.743,4.041,5.143,4.054C355.306,775.266,357.581,772.427,357.525,769.9Zm6.466-10.859c-2.789.056-5.545,2.223-5.56,4.375-.017,2.119,2.591,4.812,4.656,4.808a4.977,4.977,0,0,0,4.979-4.654C368.032,760.982,366.245,759,363.991,759.04Z" transform="translate(-306.703 -722.808)"/><path class="a" d="M368.792,748.777c.754.7,1.358,1.285,1.981,1.84a13.115,13.115,0,0,1,4.281,12.655c-.6,3.508-3.056,6.11-5.777,8.289a15.1,15.1,0,0,1-12.972,3.27c-7.993-1.731-13.251-9.113-10.386-18.08,2.387-7.458,9.507-10.982,16.886-9.859,3.354.512,5.581-.525,7.964-2.231.3-.214.591-.587.9-.6a9.352,9.352,0,0,1,1.794.254c-.185.552-.2,1.308-.583,1.617C371.65,746.925,370.29,747.753,368.792,748.777Zm-3.331.448c-8.978-2.66-16.269,1.679-18.088,10.586a11.156,11.156,0,0,0,7.862,12.849c6.556,1.814,13.976-1.91,17.161-8.614a10.617,10.617,0,0,0-4.87-13.62c-2.021,2.493-1.967,2.745.556,4.3.346.214.44.839.654,1.273-.419.129-.979.5-1.233.346a48.459,48.459,0,0,1-5.185-3.385c-.529-.412-.581-1.431-.852-2.171.717.279,1.435.56,2.154.835a3.859,3.859,0,0,0,.414.1Z" transform="translate(-282.773 -703.189)"/><path class="a" d="M386.823,745.948c-1.237-2.821-1.219-5.314.389-7.622a5.079,5.079,0,0,1,8.718.194c1.175,1.869.34,5.274-1.769,7.133-.594.523-1.237.992-2.217,1.773a21.4,21.4,0,0,0,3.337.852,20.874,20.874,0,0,0,14.136-4.262c1.593-1.135,3.168-2.3,4.824-3.339.375-.235,1.056.019,1.6.048-.058.556.1,1.389-.2,1.623-6.156,4.727-12.486,9.076-20.869,8.018a2.532,2.532,0,0,1-.9-.173c-4.116-2.3-8.764-1.939-13.193-2.675a22.663,22.663,0,0,1-8.245-3.425,17.651,17.651,0,0,0-11.791-2.608c-1.442.2-2.741,1.312-4.162,1.854-.458.173-1.1-.152-1.662-.25.214-.537.271-1.281.665-1.581a11.557,11.557,0,0,1,11.3-1.716,37.607,37.607,0,0,1,6.881,3.025A23.957,23.957,0,0,0,386.823,745.948Zm1.073-2.42c.152.342.315,1.433.939,1.871.45.318,1.69,0,2.262-.444a13.208,13.208,0,0,0,3.129-3.233,3.058,3.058,0,0,0-.119-2.7,2.939,2.939,0,0,0-2.339-.879C389.416,738.311,388.06,740.136,387.9,743.529Z" transform="translate(-273.835 -710.677)"/><path class="a" d="M313.293,727.943c2.873,3.146,6.654,4.222,10.63,4.895,1.092.185,1.617.04,1.873-1.235.6-2.977,5.689-4.447,7.783-2.225.571.606.592,1.792.725,2.731a7.472,7.472,0,0,1-.279,1.885,26.927,26.927,0,0,1,3.9.056c.617.092,1.148.766,1.719,1.175-.575.3-1.148.852-1.721.852-6.447.013-12.9-.268-19.036-2.412-2.173-.76-4.049-2.429-5.968-3.81-.315-.229-.154-1.119-.213-1.7Zm16.744,2.485a4.787,4.787,0,0,0-1.583.277c-.489.234-.808.829-1.2,1.264.487.394.969,1.11,1.462,1.117a11.844,11.844,0,0,0,3.337-.546c.354-.1.873-.829.783-1.031a2.287,2.287,0,0,0-1.144-.95A5.952,5.952,0,0,0,330.036,730.428Z" transform="translate(-312.706 -718.068)"/><path class="b" d="M362.1,733.1c-2.041,1.206-4.087,2.4-6.114,3.625a8.33,8.33,0,0,0-1.031.875c.339.384.65.8,1.017,1.152,2.05,1.966,4.116,3.918,6.174,5.874l-.3.888a47.807,47.807,0,0,1-4.906.35,51.715,51.715,0,0,1-5.139-.627,10.831,10.831,0,0,1-1.346,8.393,4.907,4.907,0,0,1-1.314-.6c-3.833-3.471-6.818-7.449-7.041-12.872a5.372,5.372,0,0,1,1.96-4.727c.79-.633,1.254-1.662,2.014-2.348,3.7-3.343,7.991-3.316,12.447-2.012,1.2.352,2.346.906,3.516,1.367Zm-15.315,4.437c3.187.473,1.023,3.7,3.114,5.095v-4.068l3.043,2.187.371-.471c-1.044-.864-2.089-1.729-3.271-2.71l2.831-1.444-.256-.7c-.858.254-1.731.469-2.571.771C349.153,736.509,348.286,736.911,346.789,737.532Z" transform="translate(-285.575 -715.941)"/><path class="b" d="M332.635,744.433c1.794-1.9,3.435-4,5.972-5.149a8.9,8.9,0,0,0,1.389-.967,11.734,11.734,0,0,0-1.717-1.067c-2.533-1.035-5.106-1.975-7.63-3.035a7.246,7.246,0,0,1-1.558-1.285c1.956-1.864,4.26-1.877,6.387-1.637,1.975.225,3.872,1.148,5.949,1.81-.658-3.137-2.033-5.924-.887-9.437a38.3,38.3,0,0,1,5.481,3.2,35.227,35.227,0,0,1,4.572,5,3.931,3.931,0,0,1,.617,2.087c.3,3.889-2.521,8.547-5.983,10.318a15.307,15.307,0,0,1-11.424,1.015,4.081,4.081,0,0,1-.829-.367C332.882,744.866,332.835,744.727,332.635,744.433ZM347.5,738.8c-1.306-5.089-2.2-6.658-3.594-6.541l1.612,3.725-2.818-.144-.06.419,1.51.846-1.91,2.429.479.483C344.171,739.288,345.206,737.154,347.5,738.8Z" transform="translate(-297.579 -722.017)"/><path class="c" d="M327.27,742.052c-.033-3.393,2.675-6.568,5.633-6.608,2.373-.031,5.091,2.435,5.129,4.658.06,3.512-2.82,6.712-6.014,6.681S327.3,745.251,327.27,742.052Z" transform="translate(-299.26 -711.143)"/><path class="c" d="M325.1,759.852c-3.2-.058-4.941-1.616-4.92-4.4.023-3.5,2.646-5.949,6.343-5.91,2.75.029,4.658,1.844,4.541,4.393C330.884,757.895,329.172,759.622,325.1,759.852Z" transform="translate(-305.803 -698.131)"/><path class="c" d="M344.619,742.688c-.019,2.756-2.866,6.252-5.043,6.2-3.473-.092-6.039-2.512-6.085-5.625-.052-3.462,3.169-4.974,6.443-5.139A4.388,4.388,0,0,1,344.619,742.688Zm-8.328,2.069c.358.592.6,1.487,1.167,1.806a5.49,5.49,0,0,0,2.383.252c.073,0,.285-.5.213-.585-.208-.254-1.669-.158-1.977-.265C337.278,745.684,337.622,745.142,336.291,744.757Zm6.493-.756.442-.785c-.454-.171-.958-.548-1.35-.456a1.79,1.79,0,0,0-1.035,1.016c-.079.2.483.927.735.917C341.988,744.677,342.382,744.253,342.784,744Z" transform="translate(-293.517 -708.678)"/><path class="a" d="M337.427,739.627c.308.219.717.837.537,1.21a1.807,1.807,0,0,1-1.039.764,1.372,1.372,0,0,1-1.479-.767c-.067-.181-.456-.965.669-1.443A1.548,1.548,0,0,1,337.427,739.627Z" transform="translate(-291.821 -707.561)"/><path class="c" d="M337.036,753.208c.531,3.287-3.156,5.787-5.366,5.812a4.276,4.276,0,0,1-4.375-4.339c.125-4.456,1.883-5.4,6.108-5.945C335.667,748.444,337.013,750.292,337.036,753.208Zm-6.826,1.683-.283.256a2.433,2.433,0,0,0,1.317,1.708,6.849,6.849,0,0,0,1.962-.573c-.244-.3-1.187.11-1.5,0C330.989,756.014,330.374,755.756,330.21,754.891Z" transform="translate(-299.238 -698.898)"/><path class="c" d="M332.623,752.1c-2.7.037-4.2-1.81-4.175-5.143.017-1.923,3.446-4.6,5.927-4.631,2.358-.027,3.737,1.414,3.773,3.935A5.48,5.48,0,0,1,332.623,752.1Z" transform="translate(-298.172 -704.787)"/><path class="c" d="M328.253,753.4c-3.383-.427-5.472-1.679-5.649-4.622-.156-2.61,2.462-4.9,5.531-4.9,2.718,0,4.35,2.027,4.427,5.5C332.607,751.3,330.393,753.361,328.253,753.4Zm-2.885-3.841c.54,2.016.887,2.217,3.425,1.577Z" transform="translate(-303.574 -703.353)"/><path class="c" d="M343.683,749.2c.056,2.529-2.219,5.368-4.337,5.354-2.4-.013-5.231-2.2-5.143-4.054.156-3.223,2.125-5.362,5.735-5.277C342.309,745.282,343.769,746.486,343.683,749.2Z" transform="translate(-292.861 -702.114)"/><path class="c" d="M345.162,741.647c2.254-.044,4.041,1.943,4.075,4.529a4.977,4.977,0,0,1-4.979,4.654c-2.066,0-4.674-2.689-4.656-4.808C339.617,743.871,342.373,741.7,345.162,741.647Z" transform="translate(-287.874 -705.416)"/><path class="d" d="M364.487,747.117l-1.427,2.5a3.826,3.826,0,0,1-.413-.1c-.719-.275-1.437-.556-2.154-.835.271.741.323,1.76.852,2.171a48.458,48.458,0,0,0,5.185,3.385c.254.15.814-.217,1.233-.346-.213-.435-.308-1.06-.654-1.273-2.523-1.556-2.577-1.808-.556-4.3a10.617,10.617,0,0,1,4.87,13.62c-3.185,6.7-10.6,10.428-17.161,8.614A11.156,11.156,0,0,1,346.4,757.7C348.219,748.8,355.51,744.457,364.487,747.117Zm-11.716,14.553c-.671,2.889,2,5.7,4.583,5.27.554-.092,1-.814,1.5-1.244a2.428,2.428,0,0,0-1.544-.269c-1.483.154-3.325-.167-3.466-2.9C353.663,762,353.409,762.247,352.771,761.671Zm11.039-.754c-1.092-.658-1.833-1.437-2.283-1.294a2.839,2.839,0,0,0-1.646,1.683c-.108.375,1.052,1.6,1.335,1.512A10.924,10.924,0,0,0,363.81,760.917Zm-6.92-2.839c-1.021-.673-1.654-1.413-2.225-1.369a1.986,1.986,0,0,0-1.244,1.523,1.915,1.915,0,0,0,1.36,1.348C355.371,759.561,355.937,758.8,356.89,758.078Z" transform="translate(-281.799 -701.081)"/><path class="e" d="M372.013,742.477c.163-3.393,1.519-5.218,3.871-5.383a2.939,2.939,0,0,1,2.339.879,3.058,3.058,0,0,1,.119,2.7,13.206,13.206,0,0,1-3.129,3.233c-.571.442-1.812.762-2.262.444C372.328,743.91,372.165,742.819,372.013,742.477Z" transform="translate(-257.951 -709.625)"/><path class="e" d="M323.054,729.235a5.953,5.953,0,0,1,1.652.131,2.287,2.287,0,0,1,1.144.95c.09.2-.429.931-.783,1.031a11.848,11.848,0,0,1-3.337.546c-.492-.008-.975-.723-1.462-1.118.394-.435.713-1.029,1.2-1.263A4.788,4.788,0,0,1,323.054,729.235Z" transform="translate(-305.723 -716.875)"/><path class="a" d="M344.535,735.05c1.5-.621,2.364-1.023,3.26-1.342.84-.3,1.714-.517,2.571-.771l.256.7-2.831,1.444c1.183.981,2.227,1.846,3.271,2.71l-.371.471-3.043-2.187v4.068C345.558,738.75,347.722,735.523,344.535,735.05Z" transform="translate(-283.32 -713.458)"/><path class="a" d="M341.188,734.68c-2.294-1.65-3.329.485-4.781,1.217l-.479-.483,1.91-2.429-1.51-.846.06-.419,2.818.144-1.612-3.725C338.99,728.022,339.882,729.591,341.188,734.68Z" transform="translate(-291.266 -717.893)"/><path class="a" d="M334.947,741.568c1.331.385.987.927,1.787,1.208.308.108,1.769.012,1.977.265.071.087-.14.587-.213.585a5.489,5.489,0,0,1-2.383-.252C335.547,743.055,335.3,742.16,334.947,741.568Z" transform="translate(-292.172 -705.489)"/><path class="a" d="M339.407,742.221a1.533,1.533,0,0,1-1.333.412,1.594,1.594,0,0,1-.773-.919c-.142-.6.485-1.135.9-1.235a1.156,1.156,0,0,1,1.523.631A1.127,1.127,0,0,1,339.407,742.221Z" transform="translate(-290.018 -706.571)"/><path class="a" d="M328.946,751.922a2.011,2.011,0,0,0,1.5,1.387c.31.113,1.252-.292,1.5,0a6.848,6.848,0,0,1-1.962.573,2.218,2.218,0,0,1-1.318-1.708Z" transform="translate(-297.974 -695.93)"/><path class="a" d="M324.038,746.834l3.425,1.577C324.925,749.052,324.578,748.85,324.038,746.834Z" transform="translate(-302.244 -700.627)"/><path class="a" d="M349.658,754.312c.639.577.892.329,1.071.852a2.906,2.906,0,0,0,3.466,2.9,2.428,2.428,0,0,1,1.544.269c-.5.431-.944,1.152-1.5,1.244C351.657,760.008,348.987,757.2,349.658,754.312Z" transform="translate(-278.687 -693.723)"/><path class="a" d="M357.24,754.7a2.286,2.286,0,0,1-2.408,2.214c-.837,0-1.64-.308-1.521-1.825a2.485,2.485,0,0,1,1.785-2.012C355.561,753,357.24,753.367,357.24,754.7Z" transform="translate(-275.229 -694.869)"/><path class="a" d="M353.583,753.238a2.269,2.269,0,0,1-2.371,1.889c-1.289,0-1.533-1.737-1.423-2.208a2.037,2.037,0,0,1,1.452-1.308C351.811,751.567,353.583,751.376,353.583,753.238Z" transform="translate(-278.492 -696.242)"/><path class="a" d="M325.038,747.308a1.222,1.222,0,1,1,.45-2.356,1.351,1.351,0,0,1,.479,1.96A.947.947,0,0,1,325.038,747.308Z" transform="translate(-302.442 -702.441)"/><path class="a" d="M325.858,746.83a1.223,1.223,0,1,1,2.383.291,1.35,1.35,0,0,1-1.923.61A.947.947,0,0,1,325.858,746.83Z" transform="translate(-300.565 -701.831)"/><path class="a" d="M330.112,752.221a1.223,1.223,0,1,1,.45-2.358,1.35,1.35,0,0,1,.477,1.96A.94.94,0,0,1,330.112,752.221Z" transform="translate(-297.759 -697.907)"/><path class="a" d="M330.752,752.066a1.223,1.223,0,1,1,2.383.29,1.35,1.35,0,0,1-1.923.609A.946.946,0,0,1,330.752,752.066Z" transform="translate(-296.047 -696.996)"/></svg>