<svg xmlns="http://www.w3.org/2000/svg" xmlns:xlink="http://www.w3.org/1999/xlink" width="1280.001" height="147.325" viewBox="0 0 1280.001 147.325"><defs><style>.a{fill:none;}.b{clip-path:url(#a);}.c{fill:#f6d5da;}.d{fill:#fff;}.e{fill:#c2f4b7;}.f{fill:#c9e5ea;}</style><clipPath id="a"><rect class="a" width="1280.001" height="147.325"/></clipPath></defs><g class="b"><path class="c" d="M0,145.337C139.745,135.437,253.41,105.5,301.311,0,314.5,31.828,342.729,88.924,438.036,119.506c40.69,13.055,100.058,21.377,161.964,25.979Z"/><path class="d" d="M150.193,145.624l-.577-1.915c2.561-.772,5.124-1.574,7.618-2.382l.617,1.9C155.343,144.043,152.766,144.848,150.193,145.624ZM437.73,144c-1.459-.468-2.928-.951-4.367-1.435l.638-1.9c1.43.481,2.89.961,4.34,1.426Zm-272.276-3.329-.658-1.889c2.524-.879,5.048-1.79,7.5-2.709l.7,1.873C170.531,138.875,167.993,139.791,165.454,140.675Zm260.338-.762c-2.523-.922-5.047-1.883-7.5-2.856l.737-1.859c2.438.967,4.945,1.921,7.451,2.837Zm-245.312-4.864-.746-1.856c2.477-1,4.953-2.029,7.359-3.07l.794,1.836C185.466,133.006,182.974,134.046,180.481,135.048Zm230.389-1.056c-2.469-1.061-4.936-2.165-7.332-3.281l.844-1.813c2.378,1.108,4.826,2.2,7.277,3.257Zm-215.66-5.319-.844-1.813c2.419-1.125,4.835-2.291,7.179-3.465l.9,1.788C200.079,126.366,197.646,127.541,195.21,128.674Zm201.1-1.468c-2.4-1.21-4.791-2.467-7.111-3.736l.96-1.755c2.3,1.258,4.674,2.5,7.053,3.705Zm-186.743-5.724-.949-1.761c2.346-1.264,4.685-2.573,6.954-3.891l1,1.73C214.289,118.888,211.931,120.208,209.567,121.482ZM382.221,119.5c-2.312-1.37-4.614-2.791-6.842-4.223l1.081-1.682c2.208,1.419,4.489,2.827,6.78,4.185Zm-158.766-6.084-1.061-1.7c2.255-1.412,4.5-2.873,6.678-4.342l1.119,1.657C228,110.515,225.73,111.989,223.455,113.413ZM368.7,110.8c-2.2-1.536-4.391-3.127-6.5-4.728l1.208-1.594c2.093,1.586,4.26,3.161,6.441,4.682Zm-131.934-6.386-1.178-1.616c2.146-1.565,4.282-3.183,6.346-4.809l1.238,1.571C241.09,101.206,238.935,102.839,236.769,104.418Zm119.122-3.325c-2.069-1.7-4.12-3.467-6.1-5.24l1.335-1.489c1.956,1.754,3.986,3.5,6.033,5.185Zm-106.5-6.623-1.3-1.522c2.018-1.719,4.022-3.5,5.957-5.28l1.356,1.47C253.454,90.941,251.43,92.735,249.392,94.471Zm94.53-4.115c-1.914-1.872-3.807-3.806-5.626-5.748l1.46-1.367c1.8,1.921,3.671,3.834,5.564,5.685Zm-82.715-6.784-1.414-1.415c1.871-1.87,3.727-3.8,5.514-5.739l1.47,1.356C264.972,79.732,263.1,81.683,261.208,83.572Zm71.723-4.957c-1.737-2.03-3.451-4.126-5.093-6.23l1.577-1.231c1.624,2.081,3.318,4.153,5.036,6.161Zm-60.824-6.86-1.524-1.295c1.709-2.012,3.4-4.088,5.026-6.17l1.576,1.231C275.543,67.624,273.834,69.722,272.107,71.755Zm50.926-5.821c-1.542-2.17-3.06-4.411-4.512-6.66l1.68-1.085c1.437,2.225,2.938,4.441,4.463,6.587ZM282,59.085l-1.625-1.166c1.536-2.141,3.052-4.349,4.506-6.56l1.671,1.1C285.087,54.692,283.555,56.922,282,59.085Zm32.3-6.66c-1.336-2.281-2.655-4.643-3.919-7.021l1.766-.939c1.251,2.354,2.556,4.692,3.879,6.949Zm-23.469-6.771-1.713-1.032c1.357-2.254,2.693-4.576,3.972-6.9l1.752.964C293.558,41.034,292.208,43.378,290.838,45.654Zm15.916-7.422c-1.139-2.357-2.241-4.742-3.369-7.29l1.829-.809c1.119,2.527,2.211,4.892,3.341,7.229Zm-8.166-6.662-1.788-.9c1.178-2.349,2.334-4.765,3.437-7.182l1.82.83C300.944,26.761,299.777,29.2,298.588,31.571Z"/><path class="e" d="M680,145.337C819.746,135.437,933.411,105.5,981.312,0c13.187,31.828,41.418,88.924,136.725,119.506,40.69,13.055,100.058,21.377,161.964,25.979Z"/><path class="f" d="M354.5,145.337C494.246,135.437,607.911,105.5,655.812,0,669,31.828,697.23,88.924,792.537,119.506c40.69,13.055,100.058,21.377,161.964,25.979Z"/><path class="d" d="M499.742,147.083l-.553-1.922c2.571-.739,5.145-1.506,7.65-2.28l.59,1.911C504.912,145.569,502.326,146.34,499.742,147.083Zm290.827-3.618c-2.552-.834-5.108-1.7-7.6-2.588l.669-1.885c2.472.877,5.011,1.743,7.547,2.571Zm-275.5-1.121-.63-1.9c2.536-.842,5.074-1.716,7.543-2.6l.672,1.884C520.172,140.618,517.62,141.5,515.069,142.344Zm260.378-4.251c-2.507-.966-5.013-1.971-7.451-2.989l.771-1.845c2.42,1.011,4.909,2.009,7.4,2.968Zm-245.269-1.146-.716-1.867c2.493-.957,4.986-1.949,7.409-2.948l.763,1.849C535.194,134.986,532.686,135.984,530.178,136.947ZM760.633,131.9c-2.447-1.108-4.891-2.26-7.264-3.424l.881-1.8c2.354,1.155,4.78,2.3,7.208,3.4Zm-215.622-1.078-.811-1.828c2.439-1.083,4.876-2.2,7.242-3.334l.862,1.8C549.921,128.6,547.468,129.733,545.011,130.823Zm201.206-6c-2.372-1.26-4.736-2.569-7.028-3.888l1-1.733c2.272,1.309,4.616,2.606,6.968,3.855ZM559.5,123.9l-.914-1.779c2.371-1.219,4.737-2.481,7.031-3.751l.969,1.75C564.272,121.4,561.888,122.673,559.5,123.9Zm172.8-7.1c-2.276-1.421-4.542-2.895-6.733-4.379l1.122-1.656c2.171,1.47,4.415,2.93,6.67,4.338Zm-158.747-.684-1.025-1.718c2.286-1.364,4.565-2.775,6.772-4.195l1.082,1.682C578.151,113.321,575.854,114.744,573.548,116.119Zm145.443-8.334c-2.161-1.59-4.307-3.235-6.379-4.891l1.249-1.562c2.05,1.639,4.175,3.268,6.315,4.842Zm-131.934-.361-1.14-1.643c2.183-1.515,4.356-3.083,6.458-4.658l1.2,1.6C591.454,104.314,589.261,105.9,587.058,107.425Zm12.857-9.641-1.259-1.554c2.061-1.67,4.109-3.4,6.087-5.13l1.318,1.5C604.064,94.355,602,96.1,599.914,97.784Zm106.525-.037c-2.023-1.76-4.026-3.579-5.955-5.408l1.376-1.451c1.908,1.809,3.891,3.609,5.892,5.35ZM612,87.187l-1.377-1.451c1.92-1.822,3.825-3.7,5.661-5.594l1.434,1.394C615.865,83.445,613.94,85.346,612,87.187Zm82.769-.508c-1.859-1.924-3.7-3.911-5.459-5.906l1.5-1.324c1.744,1.973,3.56,3.938,5.4,5.841ZM623.2,75.659l-1.49-1.334c1.763-1.968,3.508-4,5.187-6.036l1.543,1.272C626.749,71.619,624.986,73.67,623.2,75.659Zm60.915-1.033c-1.676-2.077-3.327-4.222-4.909-6.375l1.612-1.184c1.564,2.129,3.2,4.249,4.854,6.3ZM633.431,63.253l-1.594-1.208c1.593-2.1,3.166-4.269,4.676-6.44l1.642,1.142C636.63,58.941,635.04,61.13,633.431,63.253Zm41.164-1.587c-1.476-2.21-2.93-4.493-4.321-6.785l1.71-1.037c1.376,2.268,2.814,4.526,4.274,6.711ZM642.612,50.055l-1.687-1.075c1.415-2.22,2.81-4.507,4.145-6.8l1.728,1.007C645.45,45.5,644.041,47.813,642.612,50.055Zm23.638-2.137c-1.269-2.306-2.524-4.7-3.732-7.118l1.789-.894c1.2,2.394,2.44,4.765,3.7,7.048ZM650.711,36.17l-1.765-.94c1.235-2.32,2.449-4.707,3.608-7.1l1.8.873C653.183,31.419,651.958,33.829,650.711,36.17Zm8.345-2.625c-1.061-2.326-2.114-4.731-3.221-7.354l1.843-.778c1.1,2.6,2.145,4.993,3.2,7.3Z"/><path class="d" d="M824.394,147.325l-.549-1.923c2.572-.735,5.148-1.5,7.654-2.267l.587,1.912C829.566,145.82,826.978,146.586,824.394,147.325Zm290.841-4.134c-2.55-.841-5.1-1.719-7.589-2.609l.674-1.883c2.47.885,5.007,1.757,7.541,2.593Zm-275.506-.576-.626-1.9c2.538-.837,5.078-1.706,7.548-2.581l.668,1.885C844.835,140.9,842.281,141.773,839.729,142.614Zm260.4-4.84c-2.5-.973-5.007-1.986-7.441-3.012l.777-1.843c2.417,1.018,4.9,2.025,7.389,2.991Zm-245.277-.522-.712-1.869c2.5-.951,4.991-1.936,7.416-2.929l.758,1.851C859.871,135.3,857.36,136.3,854.849,137.252Zm230.483-5.716c-2.443-1.116-4.883-2.276-7.251-3.447l.887-1.793c2.35,1.163,4.77,2.313,7.195,3.421ZM869.7,131.168l-.806-1.83c2.443-1.076,4.883-2.19,7.252-3.312l.856,1.808C874.616,128.963,872.159,130.085,869.7,131.168Zm201.244-6.755c-2.369-1.27-4.731-2.588-7.019-3.918l1-1.729c2.269,1.318,4.61,2.625,6.959,3.885Zm-186.736-.121-.908-1.782c2.375-1.211,4.745-2.465,7.044-3.727l.962,1.753C888.99,121.808,886.6,123.071,884.208,124.291Zm14.076-7.732-1.018-1.721c2.292-1.355,4.575-2.758,6.788-4.169l1.075,1.686C902.9,113.778,900.6,115.193,898.285,116.56Zm158.767-.224c-2.272-1.431-4.533-2.915-6.719-4.409l1.129-1.651c2.166,1.48,4.406,2.95,6.657,4.368Zm-145.224-8.417-1.134-1.648c2.19-1.507,4.369-3.065,6.478-4.632l1.193,1.605C916.236,104.825,914.037,106.4,911.828,107.918Zm131.958-.655c-2.155-1.6-4.3-3.255-6.36-4.922l1.256-1.557c2.044,1.649,4.162,3.288,6.3,4.872ZM924.724,98.332l-1.252-1.559c2.069-1.661,4.124-3.378,6.11-5.1l1.312,1.51C928.889,94.921,926.813,96.654,924.724,98.332Zm106.55-1.167c-2.014-1.768-4.008-3.6-5.927-5.433l1.383-1.445c1.9,1.818,3.872,3.626,5.864,5.375Zm-94.416-9.376-1.37-1.457c1.929-1.814,3.842-3.687,5.687-5.568l1.428,1.4C940.739,84.064,938.806,85.957,936.858,87.789Zm82.8-1.745c-1.85-1.933-3.677-3.93-5.432-5.934l1.505-1.317c1.735,1.983,3.542,3.957,5.371,5.869Zm-71.544-9.733-1.484-1.341c1.772-1.96,3.526-3.983,5.215-6.012l1.537,1.279C951.677,72.288,949.9,74.331,948.115,76.312Zm60.952-2.373c-1.664-2.084-3.3-4.236-4.875-6.4l1.617-1.176c1.553,2.135,3.175,4.263,4.82,6.324ZM958.4,63.953l-1.589-1.215c1.6-2.095,3.185-4.255,4.705-6.419l1.637,1.149C961.616,59.654,960.017,61.836,958.4,63.953Zm41.207-3.021c-1.465-2.215-2.907-4.5-4.287-6.8l1.715-1.029c1.365,2.275,2.792,4.539,4.241,6.73ZM967.638,50.8l-1.682-1.082c1.424-2.214,2.829-4.494,4.173-6.777l1.723,1.015C970.494,46.257,969.076,48.56,967.638,50.8Zm23.689-3.649c-1.258-2.31-2.5-4.711-3.7-7.137l1.793-.887c1.188,2.4,2.422,4.78,3.667,7.067Zm-15.532-10.2L974.034,36c1.245-2.315,2.469-4.7,3.637-7.081l1.8.88C978.287,32.206,977.052,34.611,975.795,36.948Zm8.4-4.2c-1.045-2.314-2.091-4.723-3.2-7.363l1.845-.773c1.1,2.623,2.138,5.015,3.176,7.312Z"/></g></svg>