<svg xmlns="http://www.w3.org/2000/svg" width="50.4" height="47.213" viewBox="0 0 50.4 47.213"><defs><style>.a{fill:#573622;}</style></defs><g transform="matrix(0.574, 0.819, -0.819, 0.574, 34.022, 0)"><path class="a" d="M198.567,500.858a25.718,25.718,0,0,1,2.47-2.648,5.436,5.436,0,0,1,5.7-1.091,5.984,5.984,0,0,1,3.971,5.234,35,35,0,0,1-.191,6.682c-.138,1.263.03,1.937,1.259,2.542,2.928,1.442,5.3,5.018,4.323,8.547-.38,1.365-.624,2.92-2.7,2.54a2.8,2.8,0,0,1-2.45-3.7,20.636,20.636,0,0,1,1.932-3.654,6.853,6.853,0,0,0-.928-1.244c-1.495-1.4-2.444-1.319-3.468.433-3.217,5.5-7.85,5.958-12.5,4.037-2.731-1.13-4.1-3.417-4.612-6.271a28.746,28.746,0,0,1,.488-12.9c.781-2.786.011-5-1.51-7.23a13.263,13.263,0,0,1-2.58-7.8c.032-1.954,1.057-3.162,2.939-3.145a2.942,2.942,0,0,1,1.954.987c2.327,2.758,2.661,6.173,2.083,9.447C194.046,495.548,195.929,498.062,198.567,500.858Zm1.344,4.527c-.911,3.107-.129,4.217,2.782,4.321a3.542,3.542,0,0,1,1.191.533c-.238.431-.367,1.045-.73,1.261-1.9,1.119-4.769.168-5.321-1.973a27.262,27.262,0,0,1-.391-5.357c-.03-.575.255-1.338-.019-1.7-.953-1.242-2.092-2.344-3.357-3.714a28.845,28.845,0,0,0-.505,13.654c.561,2.52,1.968,4.5,4.735,5a7.579,7.579,0,0,0,8.577-4.918,1.448,1.448,0,0,0-.089-1.244C204.565,509.286,202.285,507.392,199.911,505.386Zm7.434,4.051.675-.414c.631-2.455,1.043-5.035.151-7.441a5.278,5.278,0,0,0-3.06-2.724c-1.353-.423-3.752,1.692-4.117,3.07-.079.3-.138.758.023.928C203.1,505.073,205.228,507.25,207.345,509.437Zm-14.618-17.818c1.153-4.434.51-7.428-1.89-8.787C189.251,484.8,189.95,488.054,192.727,491.619Z" transform="translate(-187.763 -481.189)"/></g></svg>