<svg xmlns="http://www.w3.org/2000/svg" width="263.946" height="252.385" viewBox="0 0 263.946 252.385"><defs><style>.a{fill:#d1de88;}.b{fill:#573622;}.c{fill:#fff;}.d{fill:#c95483;}.e{fill:#d4ebf3;}</style></defs><path class="a" d="M387.7,538.957a21.515,21.515,0,0,1-.533-18.82c2.692-5.854,9.94-11.668,16.327-10.806,4.716.637,8.137,3.028,12.575,4.75a24.31,24.31,0,0,1,.624-8.352,11.835,11.835,0,0,1,6.5-7.3c4.368-1.954,10.929,1,14.225,4.466s3.879,8.326,6.512,12.32c.457.694,6.479,7.188,6.9,6.47.849-1.459-6.636-3.346-1.013-10.131,2.58-3.111,9.449-3.516,12.567-.947s5.6,8.3,6.7,12.184,2.414,8,4.731,11.31c1.994-3.661,7.264-5.842,11.433-5.929s5.593,1.924,7.74,5.5c1.278,2.132,1.707,6.058,2.788,8.3s2.077,3.478,4.536,3.826c1.779.253,7.434-1.221,9.226-1.342,6.014-.406,8.634,7.135,12.851,11.441,10.091,10.3,25.245,10.622,35.251,21.226,2.366,2.506,6.818,7.672,6.818,11.118,0,1.779-3.085,2.605-3.714,4.27-.956,2.529-2.523,4.253-3.478,6.78-9.362-12.016-22.033-21.154-37.009-23.952a35.7,35.7,0,0,0-20.251,1.641,99.094,99.094,0,0,0-13.908,6.691c-10.031,6-13.3,11.5-24.887,13.057-2.092.28-10.458-1.576-12.422-2.348-1.9-.75-4.931-5.033-6.139-6.687-5.2-7.107-3.451-13.577,1.877-20.591-7.767,2.741-18.4,5.841-25.014.936-5.869-4.349-11.9-13.539-2.145-22.549C407.764,557.728,390.288,543.7,387.7,538.957Z" transform="translate(-383.994 -496.979)"/><path class="b" d="M616.37,732.765c-1.2.032-2.145.045-3.085.087-2.083.1-2.461-.318-2.363-2.467q.217-4.867.361-9.74a11.656,11.656,0,0,0-.2-1.767l-.584-.317c-.518.913-.975,1.864-1.561,2.733-1.741,2.588-3.383,5.268-5.366,7.661a18.387,18.387,0,0,1-4.255,3.164c-.259.17-.845-.155-1.625-.327,5.2-7.6,6.249-16.157,7.135-24.889-2.2,1.342-4.973,1.244-6.508,3.843-1.516,2.563-5.26,3.308-8.012,2.079-3.48-1.556-4.079-5.387-1.047-7.666,1.769-1.327,4.1-1.973,5.7-3.444a71.867,71.867,0,0,0,7.286-8.054c.374-.465-.168-1.988-.671-2.775-2.622-4.1-5.139-8.307-8.133-12.131a145.3,145.3,0,0,0-10.53-11.817c-7.3-7.479-14.5-15.053-20.589-23.568A39.234,39.234,0,0,1,554.676,620a67.341,67.341,0,0,1,2.595-17.641,3.446,3.446,0,0,0-.578-2.714,68.658,68.658,0,0,0-35.309-22.47c-8.974-2.4-17.505-.637-25.823,3.281-8.381,3.945-15.824,9.4-23.768,14.036-5.514,3.219-11.551,4.621-17.773,3.068a21.2,21.2,0,0,1-8.056-4.442,19.626,19.626,0,0,1-6.765-10.67,13.808,13.808,0,0,1,3.58-12.789,34.531,34.531,0,0,1,4.905-4.26,15.582,15.582,0,0,1,3.2-1.425l.321.686c-1.752,1.531-3.436,3.145-5.266,4.572a13.016,13.016,0,0,0-5.052,9.587c-.268,2.9.911,5.394,2.363,7.644,6.508,10.076,15.144,12.462,26.144,7.19,3.761-1.8,7.116-4.43,10.711-6.591,8.43-5.071,16.89-10.144,26.662-12.244a34.148,34.148,0,0,1,17.283,1.058,72.918,72.918,0,0,1,30.13,17.529c1.448,1.408,2.769,2.947,4.321,4.61.943-1.983,2.083-3.338.8-5.74a27.2,27.2,0,0,0-6.57-8.139c-1.219-1.03-2.323-2.194-3.561-3.374,1.153-1.189,1.92-.826,2.767-.051,3.54,3.236,7.559,6.041,9.294,10.817,2.833-1.659,3.047-2.285,1.765-4.956a29.911,29.911,0,0,0-11.333-12.93c-6.493-4.054-13.42-7.048-20.381-10.078-6.169-2.684-10.734-7.26-14.242-12.925-2.816-4.546-6.086-5.812-11.184-4.238-5.869,1.811-8.757.444-10.97-5.3-.8-2.088-1.346-4.274-2.168-6.353-1.818-4.6-5.447-6.075-10.2-4.723a12.906,12.906,0,0,0-7.332,4.827c1.425,1.854,3.007,3.837,4.483,5.9a7.27,7.27,0,0,1,.682,2.021c-.767-.121-1.777.032-2.261-.4-3.442-3.087-5.109-7.262-6.717-11.454-1.7-4.419-3.325-8.865-5.122-13.244-.584-1.421-1.72-2.607-2.406-4-2.478-5.039-11.307-4.166-13.533.234-1.049,2.072-2.075,4.308.781,6.171a11.663,11.663,0,0,1,2.338,2.251,6.3,6.3,0,0,1,.735,1.584c-.662.034-1.552.359-1.945.051a26.869,26.869,0,0,1-4.967-4.468c-2.777-3.648-5.249-7.53-7.814-11.337-.871-1.291-1.661-2.637-2.455-3.979-2.145-3.625-5.89-4.752-9.528-5.035-3.724-.289-6.61,2.1-8.351,5.447a19.332,19.332,0,0,0-1.754,4.761c-.548,2.527-.319,4.886,1.985,6.735a19.237,19.237,0,0,1,2.964,3.591c.783,1.036.552,1.852-.777,2.425-2.276-3.633-4.871-7.1-8.819-8.732a41.562,41.562,0,0,0-11.057-2.852c-3.31-.378-6.109,1.86-8.4,4a20.7,20.7,0,0,0-6.723,14.626c-.136,5.427,2.775,10.033,6.782,13.866a24.688,24.688,0,0,0,17.022,7.082c.4.01.79.522,1.185.8-.427.336-.877,1-1.272.962-4.657-.389-9.394-.637-13.405-3.438-3.393-2.37-6.71-4.882-8.982-8.445-4.841-7.591-3.837-14.958.769-22.286,2.047-3.253,4.529-6.007,8.039-7.491a13.613,13.613,0,0,1,6.621-1.323c3.958.51,7.814,1.8,11.8,2.784.187-.939.459-2.247.705-3.559A13.047,13.047,0,0,1,420.513,500a10.842,10.842,0,0,1,7.944-2.516c5.4.7,9.693,3.077,12.208,8.26,1.414,2.915,3.272,5.616,4.967,8.394a20.148,20.148,0,0,0,1.639,1.949,13.061,13.061,0,0,1,.41-1.27c2.618-5.663,6.946-6.615,12.919-5.961,2.283.251,3.837,1.854,5.143,3.688,3.6,5.058,5.521,10.844,7.362,16.675.3.962.745,1.884,1.172,2.945a3.41,3.41,0,0,0,.928-.442c3.064-3.077,7.073-3.678,11.067-3.886,4.149-.214,7.6,3.113,9.082,7.995a52.013,52.013,0,0,0,2.349,6.493c1.2,2.627,2.763,3.251,5.6,2.8a51.2,51.2,0,0,1,7.784-1,8.063,8.063,0,0,1,6.984,4.3,34.448,34.448,0,0,0,11.367,12,54.985,54.985,0,0,0,8.834,4.113,74.08,74.08,0,0,1,19.669,11.335c2.788,2.232,4.629,5.776,6.532,8.946,1.684,2.809,1.41,2.811,4.472,1.709,4.988-1.792,9.749-.807,14.263,1.688,5.682,3.141,9.893,7.967,14.191,12.658,10.594,11.558,17.593,25.18,22.177,40.035a189.841,189.841,0,0,1,5.436,22.1c1.3,7.2,1.977,14.552-.191,21.8a3.294,3.294,0,0,0,.068.856c3.434.639,6.891,1.461,10.394,1.839,1.223.132,2.62-.72,3.833-1.331a7.908,7.908,0,0,0,2.514-1.966,3.659,3.659,0,0,0,.758-2.338,108.886,108.886,0,0,0-4.7-23.689c-1.956-6.619-3.688-13.375-6.428-19.674A245.267,245.267,0,0,0,608.827,598,169.519,169.519,0,0,1,598.9,580.51c-1.191-2.289-1.58-5-2.4-7.719-.955.163-2.064.348-3.168.546-1.858.331-2.376-.231-1.881-2.089.469-1.769.968-3.529,1.44-5.3a1.946,1.946,0,0,0-.028-.575c-2.107-.128-4.2-.14-6.258-.4a26.6,26.6,0,0,1-17.04-9.065c-4.878-5.529-6.283-12.327-5.795-19.531a21.112,21.112,0,0,1,3.183-10.589c3.576-5.353,8.882-7.772,14.983-8.122,11.28-.648,21.706,5.31,25.519,16.5,3.508,10.294,1.064,19.058-6.5,26.547-1.094,1.085-1.319,1.656-.376,2.956a24.872,24.872,0,0,1,2.27,4.512c.611,1.35.119,2.136-1.321,2.55-2.975.858-2.856.888-2.421,3.875.637,4.362,2.769,8.092,4.967,11.732,4.376,7.254,9.214,14.231,13.46,21.555,4.519,7.789,8.725,15.766,12.787,23.8a108.054,108.054,0,0,1,8.776,23.158c2.245,9.216,4.975,18.327,5.4,27.9a2.149,2.149,0,0,0,1,1.44c3.457,2.013,4.181,5.655,1.435,8.7a6.624,6.624,0,0,0-1.578,4.389c-.346,4.315-.953,8.613-1.559,12.9-.066.474-.792.852-1.213,1.274-.272-.584-.824-1.2-.766-1.748.423-4.041,1.051-8.06,1.438-12.1.176-1.858-.792-2.31-2.516-1.6-2.629,1.091-5.3,2.072-8.216,3.2.65,2.115,1.514,4.782,2.283,7.477,1.019,3.584,2.1,7.16,2.882,10.8a14.537,14.537,0,0,1,.1,5.436,6.391,6.391,0,0,1-2.011,3.459,1.64,1.64,0,0,0-.595,2.191c1.24,3.625,3.23,7.027,3.066,11.069-.176,4.366-4.434,9.679-8.509,10.127a4.427,4.427,0,0,1-3.234-.983c-.444-.433-.14-2.089.327-2.918A17.356,17.356,0,0,0,628.287,731c-.151-.435-.735-1.132-.907-1.074-.762.255-1.858.58-2.083,1.168-.671,1.75-.869,3.676-1.478,5.453a31.891,31.891,0,0,1-2.536,5.978c-2.312,3.882-6.188,5.377-10.432,5.742a3.692,3.692,0,0,1-2.93-1.994,5.062,5.062,0,0,1,.76-3.89,16.648,16.648,0,0,1,3.933-3.485A9.4,9.4,0,0,0,616.37,732.765Zm-12.382-8.449.336.187a65.972,65.972,0,0,0,3.886-6.071c3.376-6.721,6.506-13.567,9.889-20.285,2.779-5.521,4.138-11.45,5.455-17.406,1.259-5.684.423-11.388-.367-16.992a120.481,120.481,0,0,0-3.565-16.07c-1.754-6.177-3.459-12.458-6.118-18.27-3.763-8.22-7.659-16.5-13.7-23.409-5.383-6.154-10.409-12.764-17.835-16.728-4.24-2.266-8.678-2.979-13.129-.524a15.644,15.644,0,0,0-3.2,2.48c-1.185,1.136-2.637,2.249-3.26,3.682a62.726,62.726,0,0,0-5.617,23.373,38.118,38.118,0,0,0,6.387,22.931,141.027,141.027,0,0,0,10.87,13.677c7.625,8.717,15.618,17.113,23.141,25.912,8.137,9.519,11.67,20.506,9.061,33.068C605.5,717.357,604.736,720.833,603.988,724.315ZM580.327,519.336a49.815,49.815,0,0,0-6.829,2.595c-2.434,1.276-4.793,2.945-5.58,5.895-.762,2.852-1.894,5.693-2.09,8.591-.921,13.664,5.619,22.4,18.2,26.269a17.32,17.32,0,0,0,7.419.652c5.413-.813,9.237-4.219,12.044-8.793,5.461-8.9,4.546-18.988-1.6-26.993C596.807,520.937,589.647,518.839,580.327,519.336Zm59.433,174.8c-.737-1.476-1.253-2.648-1.9-3.737-.257-.431-.858-1.011-1.227-.962-3.013.412-5.716-.646-8.519-1.463-3.535-1.032-3.671-.843-4.688,2.6a5.145,5.145,0,0,1-.206.573c-2.907,6.714-5.72,13.471-8.774,20.117a14.623,14.623,0,0,0-1.378,7.419,92.52,92.52,0,0,1-.136,10.738c-.064,1.316.3,1.832,1.542,1.582,1.043-.21,2.041-.722,3.085-.824,5.869-.571,11.229-2.822,16.567-5.073a3.676,3.676,0,0,0,1.731-2.665,17.549,17.549,0,0,0-.38-6.039c-1.554-5.54-3.408-11-5.143-16.488-.395-1.251-.79-2.5-1.4-4.412C633.338,697.505,636.7,696.445,639.76,694.133Zm-11.6,53.778c3.206-.057,7.608-4.313,7.982-7.226.6-4.65-1.61-8.483-3.185-12.488-2.935.4-2.979.412-2.438,2.952.839,3.935,1.542,7.85-.166,11.742C629.652,744.486,628.958,746.083,628.159,747.911ZM622.6,731.656c-2.9-.155-3.644.3-4.512,2.93a11.052,11.052,0,0,1-4.319,5.952,16.558,16.558,0,0,0-3.336,2.937,6.906,6.906,0,0,0-.779,2.516,7.525,7.525,0,0,0,2.453.346C618.213,745.07,623.165,738.078,622.6,731.656ZM603.961,696.5l-7.234,7.638c2.595,2.72,2.618,2.754,5.623.892.883-.548,2.23-1.323,2.274-2.06A38.469,38.469,0,0,0,603.961,696.5Zm35.822-6.281c.35,1.72,2.257,3.355,3.54,3.039,1.824-.45,3.55-3.427,3.138-5.413-.329-1.588-1.554-2.272-3.448-1.92C641.044,686.291,639.422,688.446,639.783,690.219ZM600.96,568.738a33.771,33.771,0,0,0-1.775-3.871c-.369-.605-1.317-1.419-1.767-1.291a3.427,3.427,0,0,0-2.07,1.709,60.1,60.1,0,0,0-1.765,6.166Zm-7.581,142.281c1.875-.312,3.591-2.045,3.41-3.444-.142-1.113-2.013-2.051-3.644-1.828-1.877.257-3.712,2.187-3.442,3.623C589.935,710.613,591.53,711.329,593.379,711.018Z" transform="translate(-384.665 -497.416)"/><path class="b" d="M404.729,520.489a8.379,8.379,0,0,1-1.287,1.435c-6.7,4.686-3.724,13.779.433,17.788,4.285,4.132,9.517,5.491,15.369,4.485,2.2-.38,4.4-.826,6.612-1.113.474-.062,1.021.429,1.533.665-.4.35-.769.943-1.215,1.013-3.538.552-7.08,1.151-10.643,1.459-8.623.743-16.227-5.328-18.123-14.673-.779-3.841,2.166-9.5,5.714-11.258a5.577,5.577,0,0,1,1.268-.291Z" transform="translate(-370.489 -472.047)"/><path class="c" d="M512.944,676.809c.747-3.482,1.514-6.958,2.238-10.445,2.61-12.562-.924-23.549-9.061-33.068-7.523-8.8-15.516-17.2-23.141-25.912a141.045,141.045,0,0,1-10.87-13.677,38.117,38.117,0,0,1-6.387-22.931A62.724,62.724,0,0,1,471.34,547.4c.622-1.433,2.075-2.546,3.259-3.682a15.637,15.637,0,0,1,3.2-2.48c4.451-2.455,8.889-1.741,13.129.525,7.426,3.964,12.452,10.575,17.835,16.728,6.039,6.906,9.936,15.189,13.7,23.409,2.659,5.812,4.364,12.093,6.118,18.27a120.463,120.463,0,0,1,3.565,16.07c.79,5.6,1.627,11.307.367,16.992-1.316,5.956-2.675,11.885-5.455,17.406-3.383,6.719-6.513,13.565-9.889,20.285A65.971,65.971,0,0,1,513.28,677Zm-9.764-61.836-.1.72a13.788,13.788,0,0,0,3.128.875c2.249.087,7.033-3.538,7.638-5.648a1.119,1.119,0,0,0-.284-1.006,1.624,1.624,0,0,0-1.3-.051c-.367.2-.52.76-.841,1.089-1.979,2.039-3.671,4.644-7.209,3.663C503.924,614.535,503.529,614.843,503.181,614.973Zm2.9-29.5c-1.268,1.484-2.261,2.518-3.062,3.686-.176.255.34.983.535,1.495a4.253,4.253,0,0,0,1.153-.832c1.68-2.485,2.1-2.54,4.192-.584.323.3.915.314,1.385.461.013-.537.251-1.376,0-1.563C509.067,587.224,507.721,586.485,506.081,585.474Zm-16.1,13.643c.206-.616.378-1.036.486-1.474.658-2.693,1.179-2.992,3.835-2.332.363.089.818-.191,1.229-.3-.159-.455-.183-1.062-.5-1.338-1.363-1.2-4.162-.682-5.406.928C488.3,596.329,488.342,598.119,489.986,599.117Zm9,8.772c.618-1.24,1.384-2.073,1.221-2.644s-1.238-.915-1.913-1.359c-.384.6-1.145,1.263-1.058,1.786C497.345,606.334,498.142,606.882,498.987,607.889Zm12.993-8.908c-1.3-.5-2.106-1.094-2.735-.947-.454.106-.964,1.221-.913,1.841.036.44,1.113,1.227,1.478,1.106C510.473,600.763,510.955,599.985,511.98,598.981Z" transform="translate(-293.621 -449.91)"/><path class="d" d="M484.525,507.776c9.32-.5,16.48,1.6,21.563,8.216,6.149,8.005,7.065,18.1,1.6,26.993-2.807,4.574-6.631,7.98-12.044,8.793a17.319,17.319,0,0,1-7.419-.652c-12.583-3.869-19.124-12.6-18.2-26.269.2-2.9,1.327-5.74,2.089-8.591.788-2.95,3.147-4.618,5.58-5.895A49.833,49.833,0,0,1,484.525,507.776Z" transform="translate(-288.863 -485.856)"/><path class="e" d="M519,593.608c-3.06,2.312-6.421,3.372-10.823,1.37.605,1.911,1,3.162,1.4,4.412,1.735,5.489,3.589,10.948,5.143,16.488a17.55,17.55,0,0,1,.38,6.039,3.676,3.676,0,0,1-1.731,2.665c-5.338,2.251-10.7,4.5-16.567,5.073-1.045.1-2.043.614-3.085.824-1.247.25-1.605-.266-1.542-1.582a92.481,92.481,0,0,0,.136-10.738,14.621,14.621,0,0,1,1.378-7.419c3.053-6.646,5.867-13.4,8.774-20.117a5.123,5.123,0,0,0,.206-.573c1.017-3.446,1.153-3.635,4.688-2.6,2.8.817,5.506,1.875,8.519,1.463.369-.049.97.531,1.227.962C517.743,590.96,518.259,592.132,519,593.608Z" transform="translate(-263.902 -396.891)"/><path class="c" d="M499.335,625.813c.8-1.828,1.493-3.425,2.194-5.02,1.707-3.892,1-7.808.166-11.742-.541-2.54-.5-2.548,2.438-2.952,1.576,4,3.782,7.838,3.185,12.488C506.943,621.5,502.541,625.756,499.335,625.813Z" transform="translate(-255.841 -375.318)"/><path class="c" d="M503.567,607.742c.565,6.421-4.387,13.414-10.494,14.681a7.523,7.523,0,0,1-2.453-.346,6.906,6.906,0,0,1,.779-2.516,16.559,16.559,0,0,1,3.336-2.937,11.051,11.051,0,0,0,4.319-5.952C499.923,608.046,500.668,607.587,503.567,607.742Z" transform="translate(-265.631 -373.502)"/><path class="e" d="M491.766,591.172a38.463,38.463,0,0,1,.663,6.47c-.045.737-1.391,1.512-2.274,2.06-3,1.862-3.028,1.828-5.623-.892Z" transform="translate(-272.471 -392.088)"/><path class="c" d="M504.836,590.533c-.361-1.773,1.261-3.928,3.23-4.294,1.894-.353,3.119.331,3.448,1.92.412,1.985-1.314,4.962-3.138,5.413C507.093,593.888,505.186,592.253,504.836,590.533Z" transform="translate(-249.718 -397.73)"/><path class="d" d="M490.429,533.742l-7.377,2.714a60.071,60.071,0,0,1,1.765-6.166,3.427,3.427,0,0,1,2.07-1.709c.45-.127,1.4.686,1.767,1.291A33.784,33.784,0,0,1,490.429,533.742Z" transform="translate(-274.134 -462.421)"/><path class="c" d="M484.915,600.816c-1.849.31-3.444-.406-3.676-1.65-.27-1.435,1.565-3.366,3.442-3.623,1.631-.223,3.5.716,3.644,1.828C488.505,598.771,486.79,600.5,484.915,600.816Z" transform="translate(-276.2 -387.214)"/><path class="b" d="M483.409,577.914c.348-.13.743-.437,1.032-.359,3.538.981,5.23-1.624,7.209-3.663.321-.329.474-.894.841-1.089a1.624,1.624,0,0,1,1.3.051,1.119,1.119,0,0,1,.285,1.006c-.605,2.111-5.389,5.735-7.638,5.648a13.787,13.787,0,0,1-3.128-.875Z" transform="translate(-273.849 -412.851)"/><path class="b" d="M486.359,561.258c1.639,1.011,2.986,1.75,4.2,2.663.251.187.013,1.026,0,1.563-.469-.146-1.062-.159-1.385-.461-2.087-1.956-2.512-1.9-4.192.584a4.253,4.253,0,0,1-1.153.832c-.2-.512-.711-1.24-.535-1.495C484.1,563.776,485.091,562.742,486.359,561.258Z" transform="translate(-273.899 -425.694)"/><path class="b" d="M477.827,570.912c-1.643-1-1.688-2.788-.352-4.516,1.244-1.61,4.043-2.13,5.406-.928.314.276.338.883.5,1.338-.412.11-.866.391-1.229.3-2.656-.66-3.177-.361-3.835,2.332C478.2,569.876,478.033,570.3,477.827,570.912Z" transform="translate(-281.462 -421.705)"/><path class="b" d="M482.527,573.949c-1.219,0-2.032-1.357-2.14-2.017-.085-.524-.1-1.393,1.448-1.985,1.741-.229,2.166.794,2.331,1.38A2.694,2.694,0,0,1,482.527,573.949Z" transform="translate(-277.162 -415.97)"/><path class="b" d="M489.473,568.527c-.255,2.013-1.365,2.389-1.958,2.287-.378-.064-1.55-.518-1.69-1.393-.051-.62-.333-1.3.522-2C487.709,566.3,489.446,566.752,489.473,568.527Z" transform="translate(-271.114 -419.456)"/></svg>