<svg xmlns="http://www.w3.org/2000/svg" width="1321.77" height="317.427" viewBox="0 0 1321.77 317.427"><defs><style>.a{fill:#f6d5da;}.b{fill:#fff;}.c{fill:#df76a1;}.d{fill:#e9e251;}.e{fill:#8dcbdc;}</style></defs><g transform="translate(17724.723 -1335.105)"><path class="a" d="M247.03,3761.615c298.122-21.115,540.609-84.982,642.8-310.052,28.133,67.9,88.359,189.705,291.68,254.945,86.8,27.852,213.458,45.6,345.522,55.422Z" transform="translate(-17946.031 -2109.398)"/><path class="a" d="M-110.9,3853.857l-.185-2.994c3.337-.206,6.7-.419,9.989-.632l.194,2.994C-104.2,3853.438-107.56,3853.651-110.9,3853.857Zm1271.591-.267c-3.324-.223-6.682-.453-9.982-.683l.209-2.993c3.3.23,6.652.46,9.974.683Zm-1251.614-1.028-.2-2.993c3.33-.227,6.685-.461,9.97-.7l.214,2.992C-84.232,3852.1-87.59,3852.335-90.924,3852.562Zm1231.652-.367c-3.323-.242-6.68-.491-9.977-.741l.227-2.991c3.294.25,6.647.5,9.968.741ZM-70.96,3851.135l-.224-2.991c3.325-.249,6.674-.506,9.953-.764l.235,2.991C-64.279,3850.629-67.631,3850.886-70.96,3851.135Zm1191.738-.453c-3.322-.262-6.677-.532-9.97-.8l.245-2.99c3.29.27,6.641.539,9.96.8Zm-1171.789-1.116-.246-2.99c3.326-.274,6.676-.557,9.958-.841l.258,2.989C-44.327,3849.009-47.681,3849.292-51.011,3849.567Zm1151.848-.52c-3.324-.283-6.678-.575-9.97-.866l.265-2.988c3.288.291,6.639.582,9.96.865Zm-1131.918-1.2-.271-2.988c3.327-.3,6.678-.612,9.961-.923l.283,2.987C-24.395,3847.232-27.75,3847.543-31.081,3847.844Zm1111.981-.563c-3.323-.305-6.675-.62-9.963-.934l.285-2.986c3.284.314,6.633.627,9.953.933Zm-1092.055-1.327-.3-2.985c3.321-.33,6.667-.669,9.944-1.01l.31,2.984C-4.479,3845.284-7.829,3845.624-11.155,3845.954Zm1072.133-.576c-3.322-.329-6.671-.667-9.954-1.005l.307-2.984c3.28.337,6.625.675,9.943,1ZM8.759,3843.884l-.324-2.982c3.313-.36,6.65-.732,9.92-1.1l.339,2.981C15.419,3843.152,12.077,3843.523,8.759,3843.884Zm1032.315-.554c-3.321-.354-6.667-.719-9.945-1.082l.331-2.982c3.275.363,6.617.727,9.933,1.081Zm-1012.43-1.709-.354-2.979c3.313-.394,6.651-.8,9.92-1.207l.37,2.977C35.305,3840.819,31.962,3841.226,28.644,3841.621Zm992.545-.5c-3.32-.382-6.664-.774-9.938-1.165l.356-2.979c3.27.39,6.609.782,9.925,1.164Zm-972.695-1.975-.387-2.975c3.313-.431,6.65-.875,9.919-1.319l.4,2.973C55.155,3838.275,51.812,3838.719,48.494,3839.151Zm952.82-.4c-3.32-.412-6.661-.834-9.931-1.255l.383-2.976c3.265.421,6.6.842,9.917,1.253Zm-932.971-2.3-.422-2.97c3.3-.469,6.621-.951,9.875-1.434l.44,2.968C74.976,3835.5,71.647,3835.983,68.343,3836.452Zm913.116-.258c-3.318-.444-6.654-.9-9.918-1.352l.413-2.971c3.258.453,6.59.907,9.9,1.35Zm-893.313-2.681-.46-2.965c3.3-.511,6.615-1.036,9.865-1.562l.479,2.961C94.774,3832.474,91.448,3833,88.146,3833.513Zm873.485-.076c-3.315-.479-6.647-.97-9.9-1.46l.446-2.967c3.25.489,6.576.979,9.886,1.457Zm-19.8-2.977c-3.312-.518-6.638-1.049-9.885-1.578l.482-2.961c3.241.528,6.56,1.058,9.866,1.575Zm-833.938-.144-.5-2.958c3.293-.556,6.609-1.129,9.857-1.7l.521,2.954C114.52,3829.184,111.2,3829.758,107.9,3830.316Zm814.178-3.077c-3.308-.562-6.627-1.138-9.863-1.711l.523-2.954c3.229.572,6.541,1.147,9.842,1.708Zm-794.449-.4-.543-2.95c3.275-.6,6.572-1.223,9.8-1.844l.566,2.946C134.214,3825.608,130.908,3826.23,127.626,3826.834Zm774.735-3.09c-3.3-.611-6.613-1.237-9.836-1.861l.57-2.946c3.215.622,6.516,1.247,9.812,1.856Zm-755.072-.69-.59-2.941c3.27-.656,6.562-1.331,9.786-2.005l.615,2.937C153.868,3821.72,150.567,3822.4,147.289,3823.054Zm735.417-3.115c-3.3-.668-6.593-1.351-9.8-2.032l.623-2.935c3.2.679,6.485,1.361,9.771,2.026Zm-715.826-.987-.64-2.931c3.259-.712,6.541-1.444,9.753-2.176l.667,2.925C173.439,3817.5,170.149,3818.239,166.881,3818.953Zm696.236-3.176c-3.293-.735-6.581-1.487-9.773-2.236l.685-2.921c3.181.747,6.458,1.5,9.74,2.228Zm-676.7-1.278-.694-2.919c3.241-.771,6.5-1.563,9.7-2.355l.723,2.912C192.942,3812.931,189.67,3813.726,186.419,3814.5Zm657.18-3.307c-3.28-.812-6.547-1.644-9.71-2.471l.76-2.9c3.151.824,6.4,1.653,9.672,2.461Zm-637.751-1.515-.752-2.9c3.23-.836,6.481-1.7,9.662-2.555l.782,2.9C212.349,3807.976,209.088,3808.839,205.847,3809.677Zm618.373-3.562-1.139-.317c-2.835-.792-5.69-1.608-8.488-2.425l.841-2.88c2.787.814,5.631,1.626,8.455,2.416l1.133.316ZM225.2,3804.45l-.814-2.888c3.2-.9,6.429-1.832,9.584-2.76l.846,2.878C231.647,3802.612,228.412,3803.543,225.2,3804.45Zm579.793-3.951c-3.2-.981-6.417-1.992-9.566-3.006l.919-2.855c3.136,1.01,6.341,2.017,9.526,2.994Zm-560.579-1.7-.88-2.868c3.188-.979,6.395-1.984,9.531-2.989l.915,2.857C250.828,3796.8,247.609,3797.814,244.41,3798.8Zm541.493-4.445c-3.168-1.071-6.354-2.174-9.469-3.279l1-2.827c3.1,1.1,6.273,2.2,9.427,3.264ZM263.5,3792.68l-.952-2.845c3.157-1.056,6.331-2.141,9.435-3.224l.989,2.832C269.852,3790.531,266.665,3791.62,263.5,3792.68Zm503.525-5.027c-3.135-1.167-6.287-2.368-9.367-3.571l1.091-2.794c3.065,1.2,6.2,2.393,9.322,3.554Zm-484.612-1.579-1.027-2.818c3.132-1.142,6.28-2.315,9.356-3.486l1.068,2.8C288.716,3783.749,285.554,3784.927,282.409,3786.074Zm465.93-5.718c-3.095-1.268-6.2-2.573-9.241-3.879l1.185-2.756c3.021,1.3,6.115,2.6,9.194,3.859Zm-447.194-1.418-1.109-2.788c3.093-1.23,6.2-2.494,9.236-3.755l1.151,2.77C307.374,3776.433,304.252,3777.7,301.145,3778.938Zm428.784-6.5c-3.054-1.378-6.12-2.795-9.112-4.212l1.284-2.711c2.976,1.409,6.025,2.818,9.062,4.188Zm-410.283-1.191-1.2-2.751c3.056-1.327,6.126-2.691,9.124-4.052l1.24,2.732C325.8,3768.544,322.717,3769.914,319.646,3771.247Zm392.154-7.395c-3-1.49-6.005-3.022-8.94-4.553l1.388-2.659c2.917,1.522,5.907,3.045,8.887,4.526Zm-373.889-.9-1.286-2.71c3.006-1.427,6.024-2.892,8.97-4.355l1.334,2.687C343.967,3760.046,340.933,3761.519,337.911,3762.954Zm356.105-8.385c-2.935-1.608-5.877-3.261-8.744-4.913l1.5-2.6c2.849,1.641,5.773,3.284,8.689,4.882Zm-338.152-.531-1.383-2.662c2.952-1.533,5.914-3.108,8.8-4.679l1.433,2.636C361.811,3750.913,358.832,3752.5,355.863,3754.038Zm320.769-9.483c-2.864-1.734-5.732-3.515-8.526-5.293l1.611-2.531c2.775,1.767,5.624,3.536,8.469,5.258Zm-303.146-.1L372,3741.847c2.891-1.645,5.789-3.334,8.616-5.02l1.536,2.577C379.311,3741.1,376.395,3742.8,373.487,3744.454Zm17.229-10.276-1.59-2.544c2.818-1.76,5.642-3.567,8.394-5.37l1.644,2.51C396.394,3730.588,393.552,3732.406,390.716,3734.178Zm269-.4c-2.783-1.864-5.568-3.779-8.278-5.69l1.729-2.452c2.69,1.9,5.455,3.8,8.219,5.649Zm-252.22-10.592-1.7-2.473c2.738-1.881,5.481-3.811,8.152-5.736l1.754,2.434C413.011,3719.35,410.249,3721.293,407.492,3723.187ZM643.3,3722.2c-2.684-1.994-5.367-4.042-7.975-6.084l1.85-2.362c2.588,2.027,5.251,4.059,7.914,6.038Zm-219.531-10.757-1.81-2.392c2.647-2,5.3-4.058,7.874-6.107l1.867,2.348C429.107,3707.361,426.439,3709.431,423.774,3711.448Zm203.733-1.623c-2.579-2.132-5.155-4.319-7.655-6.5l1.973-2.26c2.48,2.165,5.035,4.334,7.594,6.449Zm-188.024-10.868-1.924-2.3c2.545-2.126,5.09-4.306,7.564-6.481l1.98,2.254C444.611,3694.619,442.047,3696.816,439.483,3698.958Zm172.894-2.339c-2.457-2.267-4.908-4.592-7.285-6.911l2.1-2.147c2.357,2.3,4.788,4.605,7.224,6.853Zm-157.817-10.909-2.037-2.2c2.433-2.25,4.865-4.556,7.227-6.855l2.093,2.15C459.461,3681.118,457.011,3683.442,454.559,3685.709ZM598,3682.592c-2.323-2.4-4.637-4.862-6.879-7.317l2.216-2.023c2.222,2.434,4.516,4.874,6.819,7.253ZM468.944,3671.7l-2.148-2.094c2.311-2.37,4.618-4.8,6.858-7.222l2.2,2.037C473.6,3666.866,471.273,3669.316,468.944,3671.7Zm115.521-3.943c-2.175-2.528-4.34-5.12-6.436-7.706l2.331-1.889c2.077,2.563,4.223,5.133,6.379,7.638Zm-101.892-10.8-2.256-1.977c2.18-2.487,4.354-5.036,6.463-7.577l2.309,1.916C486.963,3651.888,484.771,3654.458,482.573,3656.965Zm89.246-4.812c-2.018-2.648-4.026-5.366-5.969-8.078l2.439-1.747c1.925,2.688,3.915,5.382,5.916,8.006ZM495.4,3641.515l-2.359-1.853c2.042-2.6,4.077-5.263,6.047-7.917l2.408,1.789C499.506,3636.209,497.455,3638.895,495.4,3641.515Zm64.728-5.689c-1.853-2.755-3.7-5.586-5.484-8.415l2.537-1.6c1.771,2.8,3.6,5.611,5.437,8.342Zm-52.756-10.432-2.456-1.723c1.9-2.7,3.782-5.47,5.607-8.227l2.5,1.656C511.181,3619.88,509.279,3622.67,507.368,3625.394Zm42.03-6.55c-1.682-2.837-3.365-5.765-5-8.7l2.62-1.46c1.625,2.915,3.294,5.82,4.962,8.634Zm-30.949-10.185-2.545-1.588c1.747-2.8,3.483-5.665,5.161-8.518l2.586,1.521C521.96,3602.949,520.21,3605.837,518.449,3608.659Zm21.171-7.345c-1.527-2.907-3.021-5.83-4.567-8.935l2.686-1.337c1.536,3.086,3.02,5.99,4.537,8.877Zm-11-9.963L526,3589.9c1.515-2.74,3.02-5.544,4.474-8.333l1.392-2.67,1.512,3.179-1.007.48.763.4C531.669,3585.763,530.152,3588.588,528.625,3591.35Z" transform="translate(-17588.008 -2240.094)"/><g transform="matrix(0.966, -0.259, 0.259, 0.966, -18769.912, -1765.535)"><g transform="translate(516.687 3439.528)"><path class="b" d="M682.655,3413.159c-2.453,2.011.006.064-2.631,1.829a3.294,3.294,0,0,0-1.65,3.608c1.542,12.083,3.01,24.176,4.5,36.267a13.007,13.007,0,0,1,.178,2.171c-.064,1.51-1.069,2.1-2.185,1.253-7.207-5.455-14.458-10.859-21.417-16.622-3.406-2.818-6.174-6.4-9.324-9.542a2.33,2.33,0,0,0-2.073-.3c-5.825,2.505-11.636,5.058-17.364,7.78a3.136,3.136,0,0,0-1.011,2.629c1.57,12.786.863,25.584.32,38.378a12.08,12.08,0,0,1-1.065,3.17c-1.067-.545-2.439-.83-3.154-1.675-8.5-10.041-16.883-20.179-25.366-30.233a2.691,2.691,0,0,0-2.229-.749c-10.147,2.5-20.281,5.048-30.374,7.75a3.323,3.323,0,0,0-1.614,2.5c-.541,7.6-.851,15.215-1.37,22.817-.348,5.073-.879,10.13-1.44,15.182a11.24,11.24,0,0,1-1.111,2.784c-.915-.482-2.141-.737-2.693-1.486-4.359-5.914-8.611-11.909-12.854-17.906-3.619-5.116-7.143-10.3-10.826-15.369a3.3,3.3,0,0,0-2.547-1.256c-8.621,1.376-17.233,2.84-25.8,4.5a4.223,4.223,0,0,0-2.435,2.675c-3.442,11.965-6.69,23.986-10.121,35.955-.461,1.612-1.634,3.02-2.479,4.524a23.247,23.247,0,0,1-3.19-3.855q-8.407-16.2-16.571-32.531a2.278,2.278,0,0,0-2.7-1.54c-9.656,1.173-19.326,2.229-28.97,3.492a3.882,3.882,0,0,0-2.351,2.221c-3.679,8.993-7.237,18.036-10.807,27.073-.7,1.766-1.316,3.562-2.223,6.028-1.067-.916-2.1-1.442-2.593-2.283-2.257-3.829-4.492-7.68-6.49-11.648-2.856-5.667-5.531-11.43-8.218-17.184a3.481,3.481,0,0,0-3.544-2.285c-6.348-.124-12.69-.561-19.04-.659-1.073-.014-2.223.981-3.222,1.678a3.374,3.374,0,0,0-.971,1.618c-3.332,9.656-9.614,17.406-15.978,25.138-1.658,2.012-2.7,4.525-4.145,6.722a19.715,19.715,0,0,1-2.441,2.582c-.663-1-1.656-1.907-1.936-3-1.664-6.514-3.2-13.061-4.706-19.615-1.2-5.22-2.207-10.487-3.48-15.689a3.02,3.02,0,0,0-2.119-1.725c-.837-.466-1.738-2.759-.044-3.219,21.2,1.332,42.421,2.767,63.649,3.092,12.488.192,25.023-1.474,37.507-2.645q18.191-1.71,36.311-4.143c10.365-1.385,20.7-3.088,30.995-4.922,14.062-2.5,28.139-4.982,42.1-7.985,16-3.44,31.986-6.931,47.5-12.352,14.764-5.16,29.551-10.189,43.48-17.409,9.6-4.977,19.3-9.752,28.824-14.851,3.18-1.7,4.007-2.081,4.007-2.081,1.5-.689,2.351.645,1.51,1.333m-324.02,99.57c7.86-10.553,17.772-19.218,21.215-32.438l-28.105-1.442c2.335,11.481,4.612,22.68,6.891,33.88m132.85-4.607.829.056c3.442-12.019,6.885-24.036,10.487-36.612l-27.626,3.843c3.829,12.141,10.9,22.007,16.31,32.713m184.1-90.1c-8.22,3.987-15.83,7.677-23.752,11.518,7.547,10.393,16.839,17.895,27.02,24.4l1.037-.419c-1.414-11.655-2.828-23.309-4.305-35.5m-73.1,31.872c7.2,10.633,15.73,19.568,24.064,29.116,1.174-5.775,1.768-33.732-.511-37.485l-23.553,8.368m-43.162,46.46.979-.306c1.089-11.871,3.544-23.627,3.256-35.855-8.793,1.791-16.959,3.45-25.9,5.269,7.473,10.653,14.57,20.772,21.667,30.892m-149.314-14.922c4.742,9.558,9.187,18.513,13.631,27.468l.761-.23c3.733-9.486,7.465-18.972,11.332-28.8-8.491.517-16.681,1.017-25.724,1.566" transform="translate(-345.816 -3411.634)"/><path class="c" d="M355.667,3479.079c-2.279-11.2-4.556-22.4-6.891-33.878,9.526.487,18.789.963,28.105,1.442-3.44,13.219-13.355,21.884-21.214,32.436" transform="translate(-342.849 -3377.983)"/><path class="d" d="M426.722,3478.117c-5.407-10.7-12.482-20.571-16.308-32.713,9.167-1.274,18.02-2.505,27.628-3.843-3.6,12.578-7.047,24.595-10.489,36.611l-.831-.056" transform="translate(-281.058 -3381.632)"/><path class="d" d="M522.388,3414.825c1.478,12.187,2.892,23.843,4.305,35.5-.344.141-.693.277-1.039.417-10.179-6.5-19.472-14.005-27.018-24.4,7.922-3.84,15.531-7.531,23.752-11.518" transform="translate(-192.615 -3408.435)"/><path class="e" d="M473.995,3434.93l23.553-8.368c2.279,3.753,1.684,31.71.511,37.485-8.334-9.548-16.865-18.483-24.064-29.116" transform="translate(-217.318 -3396.668)"/><path class="c" d="M463.288,3472.044c-7.1-10.121-14.2-20.239-21.667-30.893,8.943-1.818,17.107-3.478,25.9-5.268.286,12.227-2.167,23.984-3.258,35.855l-.977.306" transform="translate(-249.773 -3387.324)"/></g><g transform="translate(175.372 3383.81)"><path class="b" d="M507.036,3504.315c-3.138.452-.028.058-3.2.206a3.289,3.289,0,0,0-3.276,2.237c-4.922,11.142-9.912,22.256-14.887,33.375a12.93,12.93,0,0,1-.967,1.953c-.837,1.259-2,1.247-2.519-.056-3.352-8.393-6.77-16.767-9.75-25.3-1.462-4.172-1.983-8.669-3.056-12.986a2.326,2.326,0,0,0-1.622-1.325c-6.282-.864-12.576-1.681-18.886-2.307-.7-.07-1.874.946-2.225,1.73-5.259,11.757-12.476,22.352-19.548,33.026a12.073,12.073,0,0,1-2.551,2.165c-.633-1.017-1.658-1.97-1.834-3.061-2.091-12.987-4.033-26-6.1-38.991a2.7,2.7,0,0,0-1.522-1.792c-9.978-3.105-19.975-6.154-30.011-9.053a3.311,3.311,0,0,0-2.675,1.308c-4.389,6.228-8.589,12.588-12.96,18.829-2.916,4.163-5.986,8.223-9.075,12.257a11.112,11.112,0,0,1-2.389,1.809c-.533-.885-1.452-1.736-1.538-2.661-.679-7.318-1.221-14.647-1.756-21.974-.457-6.25-.8-12.508-1.332-18.752a3.293,3.293,0,0,0-1.532-2.391c-8.094-3.276-16.222-6.47-24.423-9.472a4.216,4.216,0,0,0-3.466,1.031c-9.127,8.467-18.119,17.081-27.238,25.558-1.228,1.144-2.96,1.744-4.46,2.594a23.3,23.3,0,0,1-.741-4.948q1.171-18.214,2.615-36.413a2.276,2.276,0,0,0-1.516-2.714c-8.875-3.983-17.7-8.074-26.609-11.972a3.884,3.884,0,0,0-3.162.684c-7.794,5.8-15.511,11.709-23.239,17.6-1.51,1.151-2.966,2.371-5.016,4.013-.441-1.336-1.051-2.319-1.041-3.294.046-4.444.122-8.9.461-13.325.483-6.33,1.167-12.646,1.84-18.959a3.484,3.484,0,0,0-1.856-3.787c-5.371-3.386-10.577-7.036-15.964-10.4-.911-.567-2.409-.31-3.622-.228a3.344,3.344,0,0,0-1.668.885c-7.842,6.547-17.223,9.937-26.667,13.271-2.459.865-4.646,2.483-7.021,3.613a19.78,19.78,0,0,1-3.422.951c-.054-1.2-.435-2.487-.108-3.571,1.938-6.436,4-12.835,6.1-19.223,1.674-5.088,3.528-10.121,5.126-15.233a3.022,3.022,0,0,0-.925-2.571c-.475-.831-.062-3.26,1.626-2.78,17.466,12.093,34.893,24.282,52.9,35.526,10.593,6.615,22.19,11.663,33.484,17.109q16.458,7.934,33.231,15.207c9.592,4.167,19.316,8.046,29.082,11.8,13.333,5.12,26.667,10.269,40.172,14.908,15.473,5.315,30.969,10.587,47.053,13.958,15.307,3.208,30.564,6.54,46.222,7.554,10.787.7,21.559,1.615,32.352,2.173,3.6.186,4.5.288,4.5.288,1.638.184,1.682,1.766.6,1.923M178.16,3422.2c12.181-4.976,25.143-7.275,34.92-16.816-7.73-5.223-15.415-10.413-23.321-15.752-3.929,11.036-7.764,21.8-11.6,32.568m116.133,64.677c.226.158.453.319.681.477,9.157-8.51,18.313-17.023,27.893-25.93l-25.642-10.982c-2.992,12.373-2.033,24.476-2.932,36.436m204.181,17.95-26.287-2.4c1.093,12.8,5.174,24.021,10.533,34.846l1.1.178c4.81-10.709,9.62-21.419,14.65-32.621m-79.051-10.464c.671,12.824,3.36,24.881,5.565,37.363,3.987-4.342,18.938-27.971,18.926-32.363-7.934-1.617-15.894-3.244-24.491-5m-60.958,17.485,1,.245c7.065-9.6,15.239-18.4,21.309-29.019-8.453-3.01-16.3-5.8-24.9-8.869.9,12.982,1.744,25.312,2.593,37.643m-120.144-89.9c-.875,10.633-1.694,20.595-2.515,30.56l.771.2c8.1-6.194,16.192-12.39,24.581-18.809l-22.836-11.947" transform="translate(-175.372 -3383.81)"/><path class="c" d="M176.763,3419.285c3.835-10.767,7.67-21.535,11.6-32.568,7.9,5.337,15.589,10.529,23.319,15.752-9.774,9.542-22.738,11.84-34.92,16.816" transform="translate(-173.977 -3380.895)"/><path class="d" d="M234.758,3453.518c.9-11.959-.062-24.062,2.932-36.435,8.509,3.645,16.725,7.164,25.642,10.981-9.582,8.907-18.737,17.42-27.893,25.932l-.681-.479" transform="translate(-115.837 -3350.454)"/><path class="d" d="M349.881,3445.446c-5.03,11.2-9.84,21.912-14.65,32.621-.366-.058-.735-.12-1.1-.18-5.359-10.825-9.44-22.05-10.533-34.844l26.287,2.4" transform="translate(-26.779 -3324.428)"/><path class="e" d="M297.245,3439.017c8.6,1.756,16.557,3.383,24.491,5,.012,4.392-14.939,28.021-18.926,32.363-2.2-12.482-4.894-24.539-5.565-37.363" transform="translate(-53.194 -3328.465)"/><path class="c" d="M268.1,3466.593c-.849-12.33-1.7-24.663-2.593-37.644,8.6,3.064,16.445,5.857,24.9,8.87-6.07,10.617-14.244,19.416-21.309,29.018l-1-.244" transform="translate(-85.009 -3338.557)"/></g><path class="e" d="M377.877,3447.274c9.043-.549,17.233-1.049,25.724-1.566-3.867,9.832-7.6,19.318-11.332,28.8l-.761.23c-4.444-8.955-8.889-17.91-13.631-27.468" transform="translate(203.011 62.053)"/><path class="e" d="M208.073,3402.853c8.028,4.2,15.3,8.01,22.832,11.955l-24.589,18.8-.769-.2c.823-9.965,1.646-19.927,2.525-30.56" transform="translate(30.252 19.091)"/><path class="b" d="M341.993,3443.027l11.214.624.043,3.22-13.848-1.716" transform="translate(164.439 59.365)"/></g><g transform="matrix(0.985, 0.174, -0.174, 0.985, -16646.637, -2027.75)"><g transform="translate(516.687 3439.528)"><path class="b" d="M682.655,3413.159c-2.453,2.011.006.064-2.631,1.829a3.294,3.294,0,0,0-1.65,3.608c1.542,12.083,3.01,24.176,4.5,36.267a13.007,13.007,0,0,1,.178,2.171c-.064,1.51-1.069,2.1-2.185,1.253-7.207-5.455-14.458-10.859-21.417-16.622-3.406-2.818-6.174-6.4-9.324-9.542a2.33,2.33,0,0,0-2.073-.3c-5.825,2.505-11.636,5.058-17.364,7.78a3.136,3.136,0,0,0-1.011,2.629c1.57,12.786.863,25.584.32,38.378a12.08,12.08,0,0,1-1.065,3.17c-1.067-.545-2.439-.83-3.154-1.675-8.5-10.041-16.883-20.179-25.366-30.233a2.691,2.691,0,0,0-2.229-.749c-10.147,2.5-20.281,5.048-30.374,7.75a3.323,3.323,0,0,0-1.614,2.5c-.541,7.6-.851,15.215-1.37,22.817-.348,5.073-.879,10.13-1.44,15.182a11.24,11.24,0,0,1-1.111,2.784c-.915-.482-2.141-.737-2.693-1.486-4.359-5.914-8.611-11.909-12.854-17.906-3.619-5.116-7.143-10.3-10.826-15.369a3.3,3.3,0,0,0-2.547-1.256c-8.621,1.376-17.233,2.84-25.8,4.5a4.223,4.223,0,0,0-2.435,2.675c-3.442,11.965-6.69,23.986-10.121,35.955-.461,1.612-1.634,3.02-2.479,4.524a23.247,23.247,0,0,1-3.19-3.855q-8.407-16.2-16.571-32.531a2.278,2.278,0,0,0-2.7-1.54c-9.656,1.173-19.326,2.229-28.97,3.492a3.882,3.882,0,0,0-2.351,2.221c-3.679,8.993-7.237,18.036-10.807,27.073-.7,1.766-1.316,3.562-2.223,6.028-1.067-.916-2.1-1.442-2.593-2.283-2.257-3.829-4.492-7.68-6.49-11.648-2.856-5.667-5.531-11.43-8.218-17.184a3.481,3.481,0,0,0-3.544-2.285c-6.348-.124-12.69-.561-19.04-.659-1.073-.014-2.223.981-3.222,1.678a3.374,3.374,0,0,0-.971,1.618c-3.332,9.656-9.614,17.406-15.978,25.138-1.658,2.012-2.7,4.525-4.145,6.722a19.715,19.715,0,0,1-2.441,2.582c-.663-1-1.656-1.907-1.936-3-1.664-6.514-3.2-13.061-4.706-19.615-1.2-5.22-2.207-10.487-3.48-15.689a3.02,3.02,0,0,0-2.119-1.725c-.837-.466-1.738-2.759-.044-3.219,21.2,1.332,42.421,2.767,63.649,3.092,12.488.192,25.023-1.474,37.507-2.645q18.191-1.71,36.311-4.143c10.365-1.385,20.7-3.088,30.995-4.922,14.062-2.5,28.139-4.982,42.1-7.985,16-3.44,31.986-6.931,47.5-12.352,14.764-5.16,29.551-10.189,43.48-17.409,9.6-4.977,19.3-9.752,28.824-14.851,3.18-1.7,4.007-2.081,4.007-2.081,1.5-.689,2.351.645,1.51,1.333m-324.02,99.57c7.86-10.553,17.772-19.218,21.215-32.438l-28.105-1.442c2.335,11.481,4.612,22.68,6.891,33.88m132.85-4.607.829.056c3.442-12.019,6.885-24.036,10.487-36.612l-27.626,3.843c3.829,12.141,10.9,22.007,16.31,32.713m184.1-90.1c-8.22,3.987-15.83,7.677-23.752,11.518,7.547,10.393,16.839,17.895,27.02,24.4l1.037-.419c-1.414-11.655-2.828-23.309-4.305-35.5m-73.1,31.872c7.2,10.633,15.73,19.568,24.064,29.116,1.174-5.775,1.768-33.732-.511-37.485l-23.553,8.368m-43.162,46.46.979-.306c1.089-11.871,3.544-23.627,3.256-35.855-8.793,1.791-16.959,3.45-25.9,5.269,7.473,10.653,14.57,20.772,21.667,30.892m-149.314-14.922c4.742,9.558,9.187,18.513,13.631,27.468l.761-.23c3.733-9.486,7.465-18.972,11.332-28.8-8.491.517-16.681,1.017-25.724,1.566" transform="translate(-345.816 -3411.634)"/><path class="c" d="M355.667,3479.079c-2.279-11.2-4.556-22.4-6.891-33.878,9.526.487,18.789.963,28.105,1.442-3.44,13.219-13.355,21.884-21.214,32.436" transform="translate(-342.849 -3377.983)"/><path class="d" d="M426.722,3478.117c-5.407-10.7-12.482-20.571-16.308-32.713,9.167-1.274,18.02-2.505,27.628-3.843-3.6,12.578-7.047,24.595-10.489,36.611l-.831-.056" transform="translate(-281.058 -3381.632)"/><path class="d" d="M522.388,3414.825c1.478,12.187,2.892,23.843,4.305,35.5-.344.141-.693.277-1.039.417-10.179-6.5-19.472-14.005-27.018-24.4,7.922-3.84,15.531-7.531,23.752-11.518" transform="translate(-192.615 -3408.435)"/><path class="e" d="M473.995,3434.93l23.553-8.368c2.279,3.753,1.684,31.71.511,37.485-8.334-9.548-16.865-18.483-24.064-29.116" transform="translate(-217.318 -3396.668)"/><path class="c" d="M463.288,3472.044c-7.1-10.121-14.2-20.239-21.667-30.893,8.943-1.818,17.107-3.478,25.9-5.268.286,12.227-2.167,23.984-3.258,35.855l-.977.306" transform="translate(-249.773 -3387.324)"/></g><g transform="translate(175.372 3383.81)"><path class="b" d="M507.036,3504.315c-3.138.452-.028.058-3.2.206a3.289,3.289,0,0,0-3.276,2.237c-4.922,11.142-9.912,22.256-14.887,33.375a12.93,12.93,0,0,1-.967,1.953c-.837,1.259-2,1.247-2.519-.056-3.352-8.393-6.77-16.767-9.75-25.3-1.462-4.172-1.983-8.669-3.056-12.986a2.326,2.326,0,0,0-1.622-1.325c-6.282-.864-12.576-1.681-18.886-2.307-.7-.07-1.874.946-2.225,1.73-5.259,11.757-12.476,22.352-19.548,33.026a12.073,12.073,0,0,1-2.551,2.165c-.633-1.017-1.658-1.97-1.834-3.061-2.091-12.987-4.033-26-6.1-38.991a2.7,2.7,0,0,0-1.522-1.792c-9.978-3.105-19.975-6.154-30.011-9.053a3.311,3.311,0,0,0-2.675,1.308c-4.389,6.228-8.589,12.588-12.96,18.829-2.916,4.163-5.986,8.223-9.075,12.257a11.112,11.112,0,0,1-2.389,1.809c-.533-.885-1.452-1.736-1.538-2.661-.679-7.318-1.221-14.647-1.756-21.974-.457-6.25-.8-12.508-1.332-18.752a3.293,3.293,0,0,0-1.532-2.391c-8.094-3.276-16.222-6.47-24.423-9.472a4.216,4.216,0,0,0-3.466,1.031c-9.127,8.467-18.119,17.081-27.238,25.558-1.228,1.144-2.96,1.744-4.46,2.594a23.3,23.3,0,0,1-.741-4.948q1.171-18.214,2.615-36.413a2.276,2.276,0,0,0-1.516-2.714c-8.875-3.983-17.7-8.074-26.609-11.972a3.884,3.884,0,0,0-3.162.684c-7.794,5.8-15.511,11.709-23.239,17.6-1.51,1.151-2.966,2.371-5.016,4.013-.441-1.336-1.051-2.319-1.041-3.294.046-4.444.122-8.9.461-13.325.483-6.33,1.167-12.646,1.84-18.959a3.484,3.484,0,0,0-1.856-3.787c-5.371-3.386-10.577-7.036-15.964-10.4-.911-.567-2.409-.31-3.622-.228a3.344,3.344,0,0,0-1.668.885c-7.842,6.547-17.223,9.937-26.667,13.271-2.459.865-4.646,2.483-7.021,3.613a19.78,19.78,0,0,1-3.422.951c-.054-1.2-.435-2.487-.108-3.571,1.938-6.436,4-12.835,6.1-19.223,1.674-5.088,3.528-10.121,5.126-15.233a3.022,3.022,0,0,0-.925-2.571c-.475-.831-.062-3.26,1.626-2.78,17.466,12.093,34.893,24.282,52.9,35.526,10.593,6.615,22.19,11.663,33.484,17.109q16.458,7.934,33.231,15.207c9.592,4.167,19.316,8.046,29.082,11.8,13.333,5.12,26.667,10.269,40.172,14.908,15.473,5.315,30.969,10.587,47.053,13.958,15.307,3.208,30.564,6.54,46.222,7.554,10.787.7,21.559,1.615,32.352,2.173,3.6.186,4.5.288,4.5.288,1.638.184,1.682,1.766.6,1.923M178.16,3422.2c12.181-4.976,25.143-7.275,34.92-16.816-7.73-5.223-15.415-10.413-23.321-15.752-3.929,11.036-7.764,21.8-11.6,32.568m116.133,64.677c.226.158.453.319.681.477,9.157-8.51,18.313-17.023,27.893-25.93l-25.642-10.982c-2.992,12.373-2.033,24.476-2.932,36.436m204.181,17.95-26.287-2.4c1.093,12.8,5.174,24.021,10.533,34.846l1.1.178c4.81-10.709,9.62-21.419,14.65-32.621m-79.051-10.464c.671,12.824,3.36,24.881,5.565,37.363,3.987-4.342,18.938-27.971,18.926-32.363-7.934-1.617-15.894-3.244-24.491-5m-60.958,17.485,1,.245c7.065-9.6,15.239-18.4,21.309-29.019-8.453-3.01-16.3-5.8-24.9-8.869.9,12.982,1.744,25.312,2.593,37.643m-120.144-89.9c-.875,10.633-1.694,20.595-2.515,30.56l.771.2c8.1-6.194,16.192-12.39,24.581-18.809l-22.836-11.947" transform="translate(-175.372 -3383.81)"/><path class="c" d="M176.763,3419.285c3.835-10.767,7.67-21.535,11.6-32.568,7.9,5.337,15.589,10.529,23.319,15.752-9.774,9.542-22.738,11.84-34.92,16.816" transform="translate(-173.977 -3380.895)"/><path class="d" d="M234.758,3453.518c.9-11.959-.062-24.062,2.932-36.435,8.509,3.645,16.725,7.164,25.642,10.981-9.582,8.907-18.737,17.42-27.893,25.932l-.681-.479" transform="translate(-115.837 -3350.454)"/><path class="d" d="M349.881,3445.446c-5.03,11.2-9.84,21.912-14.65,32.621-.366-.058-.735-.12-1.1-.18-5.359-10.825-9.44-22.05-10.533-34.844l26.287,2.4" transform="translate(-26.779 -3324.428)"/><path class="e" d="M297.245,3439.017c8.6,1.756,16.557,3.383,24.491,5,.012,4.392-14.939,28.021-18.926,32.363-2.2-12.482-4.894-24.539-5.565-37.363" transform="translate(-53.194 -3328.465)"/><path class="c" d="M268.1,3466.593c-.849-12.33-1.7-24.663-2.593-37.644,8.6,3.064,16.445,5.857,24.9,8.87-6.07,10.617-14.244,19.416-21.309,29.018l-1-.244" transform="translate(-85.009 -3338.557)"/></g><path class="e" d="M377.877,3447.274c9.043-.549,17.233-1.049,25.724-1.566-3.867,9.832-7.6,19.318-11.332,28.8l-.761.23c-4.444-8.955-8.889-17.91-13.631-27.468" transform="translate(203.011 62.053)"/><path class="e" d="M208.073,3402.853c8.028,4.2,15.3,8.01,22.832,11.955l-24.589,18.8-.769-.2c.823-9.965,1.646-19.927,2.525-30.56" transform="translate(30.252 19.091)"/><path class="b" d="M341.993,3443.027l11.214.624.043,3.22-13.848-1.716" transform="translate(164.439 59.365)"/></g></g></svg>