<?xml version="1.0" encoding="utf-8"?>
<!-- Generator: Adobe Illustrator 26.5.0, SVG Export Plug-In . SVG Version: 6.00 Build 0)  -->
<svg version="1.1" id="レイヤー_1" xmlns="http://www.w3.org/2000/svg" xmlns:xlink="http://www.w3.org/1999/xlink" x="0px"
	 y="0px" viewBox="0 0 1669.2 1409.1" style="enable-background:new 0 0 1669.2 1409.1;" xml:space="preserve">
<style type="text/css">
	.st0{opacity:0.111;}
	.st1{fill:#4B9E3B;}
	.st2{clip-path:url(#SVGID_00000052095114816895757560000011114541056765020301_);}
	.st3{opacity:0.48;}
	.st4{clip-path:url(#SVGID_00000174600361247605527360000008608067047166380978_);}
	.st5{fill:#75B168;}
	.st6{clip-path:url(#SVGID_00000006708681110241638250000008791952009817072057_);}
	.st7{clip-path:url(#SVGID_00000150804590212100304800000013096595259734993067_);}
	.st8{clip-path:url(#SVGID_00000150789471558346328700000006306966575288055174_);}
	.st9{clip-path:url(#SVGID_00000150068817003555823730000010759398424808421289_);}
	.st10{clip-path:url(#SVGID_00000005234483294391921690000015644753166090689185_);}
	.st11{clip-path:url(#SVGID_00000038401951090513843930000017529216369193184693_);}
	.st12{clip-path:url(#SVGID_00000008109012653843502750000007153900074423887508_);}
	.st13{clip-path:url(#SVGID_00000160902430099860786760000011386994885515728021_);}
	.st14{clip-path:url(#SVGID_00000112633821783789591870000015572576164572472977_);}
	.st15{clip-path:url(#SVGID_00000104707687773830580060000017650295660984131767_);}
</style>
<g transform="translate(20041.436 -1802.779)">
	<g transform="translate(-19604.941 -1265.721) rotate(9)" class="st0">
		<path class="st1" d="M1290.6,3004.4l-127.4,185.8c-67.2,110.4,15,260.3,134.9,260.3l254.8,0c119.9,0,201.2-159.4,134.9-260.3
			l-127.4-185.8C1466.5,2900.6,1376,2900.1,1290.6,3004.4"/>
		<g transform="translate(1304.96 3234.334)">
			<g>
				<defs>
					
						<rect id="SVGID_1_" x="12.2" y="-12.2" transform="matrix(0.1564 -0.9877 0.9877 0.1564 -5.2686 209.9963)" width="216.2" height="240.6"/>
				</defs>
				<clipPath id="SVGID_00000003797273584835440120000016974519799654180528_">
					<use xlink:href="#SVGID_1_"  style="overflow:visible;"/>
				</clipPath>
				<g style="clip-path:url(#SVGID_00000003797273584835440120000016974519799654180528_);">
					<g transform="translate(-9787.604 -14313.144)" class="st3">
						<g transform="translate(0 0)">
							<g>
								<defs>
									
										<rect id="SVGID_00000133489923008252617320000012747501513759331456_" x="-3209" y="3209" transform="matrix(0.1564 -0.9877 0.9877 0.1564 -4308.8271 17183.3516)" width="22228.3" height="15810.3"/>
								</defs>
								<clipPath id="SVGID_00000136413023431961966380000014094555133251278213_">
									<use xlink:href="#SVGID_00000133489923008252617320000012747501513759331456_"  style="overflow:visible;"/>
								</clipPath>
								<g style="clip-path:url(#SVGID_00000136413023431961966380000014094555133251278213_);">
									
										<rect x="9799.8" y="14300.9" transform="matrix(2.136111e-06 1 -1 2.136111e-06 24329.1113 4513.2891)" class="st5" width="216.2" height="240.6"/>
								</g>
							</g>
						</g>
					</g>
				</g>
			</g>
		</g>
	</g>
	<g transform="matrix(0.899, -0.438, 0.438, 0.899, -22347.99, 609.862)" class="st0">
		<path class="st1" d="M1290.6,3004.4l-127.4,185.8c-67.2,110.4,15,260.3,134.9,260.3h254.8c119.9,0,201.2-159.4,134.9-260.3
			l-127.4-185.8C1466.5,2900.6,1376,2900.1,1290.6,3004.4"/>
		<g transform="translate(1304.96 3234.334)">
			<g>
				<defs>
					
						<rect id="SVGID_00000129919422722918432510000006308475624749119929_" x="0" y="0" transform="matrix(0.899 -0.438 0.438 0.899 -35.1851 63.6101)" width="240.6" height="216.2"/>
				</defs>
				<clipPath id="SVGID_00000005952514728057977690000014700051944417537469_">
					<use xlink:href="#SVGID_00000129919422722918432510000006308475624749119929_"  style="overflow:visible;"/>
				</clipPath>
				<g style="clip-path:url(#SVGID_00000005952514728057977690000014700051944417537469_);">
					<g transform="translate(-9787.604 -14313.144)" class="st3">
						<g transform="translate(0 0)">
							<g>
								<defs>
									
										<rect id="SVGID_00000072989934218132967740000002369720804809579659_" x="-0.2" y="-0.2" transform="matrix(0.899 -0.438 0.438 0.899 -4069.3171 4585.1318)" width="15810.6" height="22228.8"/>
								</defs>
								<clipPath id="SVGID_00000138570543936146326820000012346285034858405505_">
									<use xlink:href="#SVGID_00000072989934218132967740000002369720804809579659_"  style="overflow:visible;"/>
								</clipPath>
								<g style="clip-path:url(#SVGID_00000138570543936146326820000012346285034858405505_);">
									
										<rect x="9787.6" y="14313.1" transform="matrix(-1 2.534198e-06 -2.534198e-06 -1 19815.8496 28842.4238)" class="st5" width="240.6" height="216.2"/>
								</g>
							</g>
						</g>
					</g>
				</g>
			</g>
		</g>
	</g>
	<g transform="translate(-19819.145 -1050.936) rotate(16)" class="st0">
		<path class="st1" d="M1220.6,2968.4l-68.6,100.1c-36.2,59.4,8.1,140.2,72.6,140.2h137.2c64.6,0,108.3-85.8,72.6-140.2l-68.6-100.1
			C1315.3,2912.5,1266.6,2912.2,1220.6,2968.4"/>
		<g transform="translate(1228.364 3092.189)">
			<g>
				<defs>
					
						<rect id="SVGID_00000035492873482883151120000002560028203325002897_" x="6.6" y="-6.6" transform="matrix(0.2756 -0.9613 0.9613 0.2756 -9.0203 104.4245)" width="116.4" height="129.6"/>
				</defs>
				<clipPath id="SVGID_00000113313962409380803320000015952170677966332838_">
					<use xlink:href="#SVGID_00000035492873482883151120000002560028203325002897_"  style="overflow:visible;"/>
				</clipPath>
				<g style="clip-path:url(#SVGID_00000113313962409380803320000015952170677966332838_);">
					<g transform="translate(-5270.301 -7707.155)" class="st3">
						<g transform="translate(0 0)">
							<g>
								<defs>
									
										<rect id="SVGID_00000116933564441294869640000006917552453538844592_" x="-1728" y="1728" transform="matrix(0.2756 -0.9613 0.9613 0.2756 -2669.4143 8426.7939)" width="11969.2" height="8513.3"/>
								</defs>
								<clipPath id="SVGID_00000048502230393861598410000005161390290782510466_">
									<use xlink:href="#SVGID_00000116933564441294869640000006917552453538844592_"  style="overflow:visible;"/>
								</clipPath>
								<g style="clip-path:url(#SVGID_00000048502230393861598410000005161390290782510466_);">
									
										<rect x="5276.9" y="7700.6" transform="matrix(2.105099e-06 1 -1 2.105099e-06 13100.4199 2430.2571)" class="st5" width="116.4" height="129.6"/>
								</g>
							</g>
						</g>
					</g>
				</g>
			</g>
		</g>
	</g>
	<g transform="translate(-18662.438 3055.003) rotate(164)" class="st0">
		<path class="st1" d="M81.6,240.2L13,140.2C-23.2,80.8,21.1,0,85.6,0l137.2,0c64.6,0,108.3,85.8,72.6,140.2l-68.6,100.1
			C176.4,296.1,127.6,296.3,81.6,240.2"/>
		<g transform="translate(89.364 0.003)">
			<g>
				<defs>
					
						<rect id="SVGID_00000047761996227902252030000008469007042762416031_" x="0" y="0" transform="matrix(0.9613 -0.2756 0.2756 0.9613 -13.5319 20.1101)" width="129.6" height="116.4"/>
				</defs>
				<clipPath id="SVGID_00000088134695665177976340000015971917405283692718_">
					<use xlink:href="#SVGID_00000047761996227902252030000008469007042762416031_"  style="overflow:visible;"/>
				</clipPath>
				<g style="clip-path:url(#SVGID_00000088134695665177976340000015971917405283692718_);">
					<g transform="translate(-5270.301 -4145.676)" class="st3">
						<g transform="translate(0)">
							<g>
								<defs>
									
										<rect id="SVGID_00000070092053418016642830000007849199756859794878_" x="0" y="0" transform="matrix(0.9613 -0.2756 0.2756 0.9613 -1484.6871 1405.1287)" width="8513.3" height="11969.2"/>
								</defs>
								<clipPath id="SVGID_00000166641564820048396730000008211157875250390929_">
									<use xlink:href="#SVGID_00000070092053418016642830000007849199756859794878_"  style="overflow:visible;"/>
								</clipPath>
								<g style="clip-path:url(#SVGID_00000166641564820048396730000008211157875250390929_);">
									<rect x="5270.3" y="4145.7" class="st5" width="129.6" height="116.4"/>
								</g>
							</g>
						</g>
					</g>
				</g>
			</g>
		</g>
	</g>
	<g transform="translate(-22075.012 -219.081) rotate(-25)" class="st0">
		<path class="st1" d="M1198.9,2957.2l-50.4,73.5c-26.6,43.6,5.9,103,53.4,103h100.8c47.4,0,79.6-63,53.3-103l-50.4-73.5
			C1268.5,2916.1,1232.7,2916,1198.9,2957.2"/>
		<g transform="translate(1204.634 3048.153)">
			<g>
				<defs>
					
						<rect id="SVGID_00000013880644143312549580000004148878834289218180_" x="0" y="0" transform="matrix(0.9063 -0.4226 0.4226 0.9063 -13.6064 24.1125)" width="95.2" height="85.5"/>
				</defs>
				<clipPath id="SVGID_00000036235900342098396530000005964093386001205137_">
					<use xlink:href="#SVGID_00000013880644143312549580000004148878834289218180_"  style="overflow:visible;"/>
				</clipPath>
				<g style="clip-path:url(#SVGID_00000036235900342098396530000005964093386001205137_);">
					<g transform="translate(-3870.856 -5660.642)" class="st3">
						<g transform="translate(0 0)">
							<g>
								<defs>
									
										<rect id="SVGID_00000144306900294680635470000012324593293051324331_" x="0" y="0" transform="matrix(0.9063 -0.4226 0.4226 0.9063 -1564.6992 1733.0854)" width="6252.7" height="8791"/>
								</defs>
								<clipPath id="SVGID_00000038383374330607087200000010322402489448999302_">
									<use xlink:href="#SVGID_00000144306900294680635470000012324593293051324331_"  style="overflow:visible;"/>
								</clipPath>
								<g style="clip-path:url(#SVGID_00000038383374330607087200000010322402489448999302_);">
									
										<rect x="3870.9" y="5660.6" transform="matrix(-1 2.857361e-06 -2.857361e-06 -1 7836.8862 11406.7598)" class="st5" width="95.2" height="85.5"/>
								</g>
							</g>
						</g>
					</g>
				</g>
			</g>
		</g>
	</g>
	<g transform="translate(-18552.719 2847.299) rotate(-155)" class="st0">
		<path class="st1" d="M59.9,176.4L9.5,103C-17,59.3,15.5,0,62.9,0l100.8,0c47.4,0,79.6,63,53.3,103l-50.4,73.5
			C129.5,217.5,93.8,217.7,59.9,176.4"/>
		<g transform="translate(65.635 0.002)">
			<g>
				<defs>
					
						<rect id="SVGID_00000109738876648442448720000005358268618447370662_" x="4.8" y="-4.8" transform="matrix(0.4226 -0.9063 0.9063 0.4226 -11.2686 67.7999)" width="85.5" height="95.2"/>
				</defs>
				<clipPath id="SVGID_00000149377798679835067680000018372195094419384713_">
					<use xlink:href="#SVGID_00000109738876648442448720000005358268618447370662_"  style="overflow:visible;"/>
				</clipPath>
				<g style="clip-path:url(#SVGID_00000149377798679835067680000018372195094419384713_);">
					<g transform="translate(-3870.856 -3044.858)" class="st3">
						<g transform="translate(0)">
							<g>
								<defs>
									
										<rect id="SVGID_00000181059979077658943010000002005641733071947394_" x="-1269.1" y="1269.1" transform="matrix(0.4226 -0.9063 0.9063 0.4226 -2178.5608 5371.3325)" width="8791" height="6252.7"/>
								</defs>
								<clipPath id="SVGID_00000000935932570357117980000014868523964761979292_">
									<use xlink:href="#SVGID_00000181059979077658943010000002005641733071947394_"  style="overflow:visible;"/>
								</clipPath>
								<g style="clip-path:url(#SVGID_00000000935932570357117980000014868523964761979292_);">
									
										<rect x="3875.7" y="3040" transform="matrix(-2.213003e-06 -1 1 -2.213003e-06 830.8406 7006.0425)" class="st5" width="85.5" height="95.2"/>
								</g>
							</g>
						</g>
					</g>
				</g>
			</g>
		</g>
	</g>
</g>
</svg>
