<svg xmlns="http://www.w3.org/2000/svg" viewBox="0 0 396.75 4.4"><defs><style>.cls-1{fill:#e7d453;}</style></defs><g id="レイヤー_2" data-name="レイヤー 2"><g id="レイヤー_1-2" data-name="レイヤー 1"><polygon class="cls-1" points="396.75 2.35 395.64 2.2 395.3 2.61 396.75 2.35"/><path class="cls-1" d="M391.54.87,389.66,1c1.08,1.19-.38.84,2.56,1.7,1-.19,3.31-.6,3-1.07A11.94,11.94,0,0,1,392.3,2c.47-.34,1.65-.3,2.21-.75-1.78-.37-1.13.29-3.07.13Z"/><path class="cls-1" d="M389.31,2.05c.18-.2.36-.41.33-.57C389.46,1.68,388.54,1.93,389.31,2.05Z"/><path class="cls-1" d="M388.17,2.18c-1.19-.05,0-.44-.1-.51l-1.35.77Z"/><path class="cls-1" d="M383.23,2.12l-.56.08C382.86,2.32,383,2.22,383.23,2.12Z"/><path class="cls-1" d="M380.8,2.22a3.12,3.12,0,0,0,1.87,0l-.07-.05c-.68-.23,0-.78,1.06-.63,1.15-.12,1,.42,2,.06l-1.36-.44A9.51,9.51,0,0,0,380.8,2.22Z"/><path class="cls-1" d="M383.23,2.12c.21,0,.42,0,.65,0A.87.87,0,0,0,383.23,2.12Z"/><polygon class="cls-1" points="385.71 2.19 386.32 2.08 386.18 1.84 385.71 2.19"/><path class="cls-1" d="M376.76,2.26c.27-.75,2.89.08,3.21-.5-1.6,0-2.88-.52-2.53-.93l-1.77.24C375.08,1.35,375.83,1.91,376.76,2.26Z"/><path class="cls-1" d="M373.29.37a1.16,1.16,0,0,1-.41.13A.84.84,0,0,0,373.29.37Z"/><path class="cls-1" d="M364.35,1.65,368.48.9c-.39.24-.23.48-1.17.56,1.82.1,2.06-.37,3.57-.3.46.7-2.67.05-1.8.67a7.24,7.24,0,0,0,3.52-.64l1.69.47L373.71.9c-.68-.22-1.38.6-1.8.07-.22-.33.47-.39.95-.47-1.09.16-3-.59-5.19-.49S365.88,1.29,364.35,1.65Z"/><polygon class="cls-1" points="364.18 0.82 363.92 0.52 364.11 0.92 364.18 0.82"/><path class="cls-1" d="M359.68,1.81l2.15-.48a1.41,1.41,0,0,1,.52.37c-.09-.18.49-.48.4-.62-1-.69-2.63.22-3.79.34-3-.31.14-.37-1-1,.86,0,.89.18,2.08.23-1.87-.78-4.22-.07-5.41.12.34.07.43.29,1.09.23l-1.24.22C355.72,1.75,356.81,1.9,359.68,1.81Z"/><path class="cls-1" d="M363.52,1.8c-.8.06-1.1,0-1.16-.09C362.57,1.89,362.84,2,363.52,1.8Z"/><path class="cls-1" d="M353.93.78a1.67,1.67,0,0,0,.65,0A1.89,1.89,0,0,0,353.93.78Z"/><path class="cls-1" d="M355.15,1.59l-1.51-.07.59.33C354.44,1.81,355.19,1.76,355.15,1.59Z"/><path class="cls-1" d="M297.51.54c.13.28.69.42,1.85.36-.14.38-1.65.3-2.35.52,1.53.24,0,.44.36.8,1.72,0,2.48-.45,4.32-.35-.09.1-.06.27.18.4A38.71,38.71,0,0,1,310,2a39.77,39.77,0,0,0,5.9-.21c7.51.19,15.34-.19,23.42.16l1.15-.73c.39.36,1.92,0,1.69.47a6.44,6.44,0,0,0-1.39,0c1.73.64,4.58-.06,6.66.17-.24-.12-.58-.76,0-.87-.16.81,2.46,0,3.06.92,2.07.23.08-.71,2.24-.58.23-.48-2.07-.23-2.46-.59.68-.39,1.95.16,1.85-.34-3.46-.24-9.89.75-15.18,1l.55-.44c-2.71.32-7.09.33-9.26-.4.51.43-4-.23-3.59.74a7,7,0,0,0-1.87-.27l-.26.31c-1.39,0-1.17-.48-2.76-.45,1,.42-.12.54-.58.88-1.82-.46-3.95-.87-5.57-1.25a1.54,1.54,0,0,0,.83.47c-1.11-.15-.91.25-1.21.39-1.06,0-.95-.51-.9-.79-1.95-.16-2.83.86-4.29.52l.52.43c-2,.11-3.7-.37-5.92-.22-1.07-.59,1.82-.51,2.74-.76a11.26,11.26,0,0,1-1.7-.35c-1,.3-2.55.71-3.73,1C301.09.54,298.27.58,297.51.54Z"/><path class="cls-1" d="M303.69.24a5.38,5.38,0,0,0,.63-.24,2.36,2.36,0,0,1-.74.05C303.55.13,303.6.19,303.69.24Z"/><path class="cls-1" d="M297.51.54s-.05,0-.05-.07C297.24.51,297.31.53,297.51.54Z"/><path class="cls-1" d="M310.27,2,310,2l-.37,0Z"/><path class="cls-1" d="M311.92.09a16.34,16.34,0,0,0,1.7.46C313.43.36,313.27.21,311.92.09Z"/><path class="cls-1" d="M325.47.58c.42-.08.18-.21.47-.35C325.08.21,324.79.35,325.47.58Z"/><polygon class="cls-1" points="301.25 0.13 299.56 0.26 298.94 0.37 301.25 0.13"/><path class="cls-1" d="M267.06,2.36c1.49.51,3.67.2,5.51.3,3.36-.27.42-1.12,3.62-1.18l-.55,1c3.19-.06,7.72.16,10.43-.77.24.13.8.29,0,.44,2.13,0,1.11-1.5,3.95-1.15-2.66.65.87.62.14,1.27l-.42.08c1.81-.07,4.19-.42,5.38-.37.05-.27-1-.69.61-.72-.65-.06-.39-.36-.33-.63-1.65.3-2.55.11-3.55.47-.92-.35.62-.11-.3-.47L290.2,1c-1-.08,1-.35-.52-.43a5.37,5.37,0,0,1-2.59.39l.34-.12c-.91.14-2.19,0-1.75.55L284.61.81l.18.4C282.3,1.06,281.37.1,278.15.6c.77.12.07.33-.34.41,1.34.28,1.65-.3,2.92-.35.19.39-2,.87-.43,1.11-1.69-.47-3.2.06-3.92-.93-2-.07-2.81.42-4.88.19l.06-.15c-.38.66-1.68-.3-3.22.38l1.1.14c-.05.28-.58.28-1.32.33.08-.1.08-.1-.16-.23-.22.48-2.56.55-2.85.69a20.15,20.15,0,0,0,3.33-.43C267.85,2,268,2.44,267.06,2.36Z"/><path class="cls-1" d="M288.09.62l-.66.23A1.43,1.43,0,0,0,288.09.62Z"/><path class="cls-1" d="M257.82,1.52c-1.3-.1.35-.41-.87-.62-1.32.33,1.52.68.23,1.17-.8-.28-2.1.21-2.63.22.59-.28.25-.91,0-1a11.56,11.56,0,0,1-2.48-.16c2.1.4-1.77.24.13.67-.14.38-2.13.65-2.93.36.06-.27.71-.21,1.25-.22.43-.51-1.34-.28-1.64-.74-2,.71-8.43.66-6.6,1.8a5.3,5.3,0,0,0,2-.1c-2.08-.23,0-.61.17-.81.88.18,2.41-.18,2.06.23l-1.41.42c4.52.22,10.71.14,15.91,0l-2.25,0c.27-.31,1.33-.33,2.16-.48l-1.1-.75c.64.06,1.26-.06,1.21.21.79-.32.43-.51-.05-.77,1.68-.13,2,.16,3.25-.33-2.79-.62-2.36.51-5.55,0Z"/><polygon class="cls-1" points="263.93 1.11 263.26 1.49 264.3 1.3 263.93 1.11"/><path class="cls-1" d="M262.87,2.77c0-.16.38-.24.34-.41C261.91,2.25,262.06,2.49,262.87,2.77Z"/><path class="cls-1" d="M247.16,1.12l-1.68.13,1.1.15C246.55,1.23,247,1.16,247.16,1.12Z"/><path class="cls-1" d="M235.37,3.09c2.34-.07,3.33-.43,6,0,1.29-.5-.6-.93-.05-1.38-1.31-.11-1.14.73-2.5.89-.5-.43-2,.09-3.28,0C235.67,2.73,235.67,2.93,235.37,3.09Z"/><path class="cls-1" d="M227.34,1.46a14.86,14.86,0,0,1-3,.12c.12-.27.75-.36,1.4-.29-.42-.61-1.18.09-2.33-.31.1.06.51.17.19.3-2.87-.14-1.61.49-5.34.15-.54.16-1.07.16-1,.57a25.45,25.45,0,0,0-3.58-1c.09.24.93.78.91,1.28-3.59-.71-3.67.1-6-.43a3.89,3.89,0,0,1,1.19-.09c-.3-.7-1.93.13-3.2,0l.12-.6c-1.17.1-3.21.49-4.69.05l.34-.3c-3,.46-6.52.25-9.08.47L192,1c-3.54.46,3.5.21.92,1.11-.39-1.11-1.82.36-3.83-.08-.95-.44,2-.23,1-.74-.44.57-1.07.17-2.14.33.23-.53-2.24-.07-1.58-.67l-3.76,1A5.56,5.56,0,0,0,180,1.8c2,0-.56.8,1.72,1.05a102.63,102.63,0,0,1,13-.16c.46-.73,2.67,0,3.33-.59.1.24.41.44.51.67,2.67-.16-.63-.4,0-.67,1.17-.1,2.12.34,2,.61,1.92,0,.21-.2,1.19-.6l1.25.81c6-.25,13.89-.79,20.7-.33l-.52-.51c3.09.28,5.16-1.12,7.9,0l.93-.43c-.51.25.53.76-.27,1.1.83-.17,1.73,0,2.6-.13l-1.54-.24a2.72,2.72,0,0,1,2.62.21c2.3-.52-1.37-.88-1.88-1.31-3.23.94-3.26-.91-6.37-.52C225.32,1,227.46,1.19,227.34,1.46Z"/><path class="cls-1" d="M231.35,2.85a2.69,2.69,0,0,0,.47-.14A2.33,2.33,0,0,0,231.35,2.85Z"/><path class="cls-1" d="M180,1.8l-.9,0C178.82,2,179.31,1.87,180,1.8Z"/><path class="cls-1" d="M235.51,2.55h0Z"/><polygon class="cls-1" points="237.06 1.31 236.19 1.3 236.34 1.53 237.06 1.31"/><path class="cls-1" d="M170.94,1.17v.26C171,1.35,171,1.26,170.94,1.17Z"/><path class="cls-1" d="M146.31,1h.53A1.57,1.57,0,0,0,146.31,1Z"/><path class="cls-1" d="M87.22,1.56a25.2,25.2,0,0,0-4.94.75l.12-.26c-.86.13-3.65.55-1.85,1L81,2.85c2-.4,1.48.44,3.07.61,1.91-.13,3-1.13,4.72-.89.74,0,.63.24.41.44,1.7.07,2.37-.7,3.54-.8.47,2,5.25-.55,7.77.73a52.79,52.79,0,0,0,5.77-.38c-1.08.5,1.91,0,1.47.61.58-1.17,5.85.53,6.22-.95,2.76.41.11-.1,3.3.25,0,.16-.54.16-.76.19,1.27.31,1.94-.63,3,0,2.55.12.43-.39,1.94-.79,2.66.17,1.91.37,3.38,1,.24-.7,1.82-.36,3.12-.73-.32,0-2.13-.17-1-.43,3.09.11,2.47-.47,5.36-.66,1.46.78-2.88,0-.34.64-1.83.36-3.22.32-4.19.89a61.59,61.59,0,0,0,8.12-.41c1.48.11-.76.37.41.44,2.65.34,4.08-.79,6.2-.45l-.44.4c1.29-.53,4.69.12,7.15-.18-.32-.2-.52-.33-.2-.47,0,1,3.43-.52,5.86.19-.19-.64,2.17-1,3.66-1.06.53.17.41.44.41.6-2.45-.37-2.37.7-4.31,1,1.62-.33,4.28,0,5.68-.45l-.55.5c2.23.07,1.95-1.14,4.28-.66l-.23.37c4.7,0,10.22.61,14-.22.33-.3-1.57-1-1.66-1.25-2.25.26-3.55.8-5.26,1.06l0-.58c-.39.4-2.45.63-1.31.94-1.4.3-1.06-.51-2.67-.17.14-.61,1.09-.67,1.11-1.17l-1.4.29c.44-.23-.84-.2-.41-.44-2.59.73-3.61-.28-6.29.05l1.49.11c0,.33-.86.3-1.51.39-.72-.47-1.16-.4-2.53-.61-1.19.27-1.85.87-3.45.86.34-.63-2.66-.34-3-.88-.35.63-3.1.23-3.32.59-.86.13-2,.06-2-.27.13,0,.38-.08.65-.11l-.85,0c.08-.07,0-.12.15-.14-.76,0-.77.45-1.76.14,0-.17.55-.17,1-.23-2-.11-3.55,1-5.24.38-.34.3-2.68.33-2.18,1-.63-.24-.38-.77-2.1-.68-1,.57-1.91-.21-3.21.16,1.73-.6,0-.17,1.52-.74-1.16-.23-2.89.53-4.92.42-.21-.13-.2-.3-.41-.43-.75.2-1.62.66-2.35.19l.09.4a33.86,33.86,0,0,1-4.78-.52l-1.73.77c-2.32-.81-5.44-.09-7.27.61-.85,0-2.13-.17-2.12-.34.19-.06.53-.18.92-.28-1.25,0-2.78-.47-3.48.17-1.29.2-.94-.44-1.9-.54-2.59.9-7.66-.66-8.45.71,1.06,0,3.08.28,5.11.22-.54.16-.12.43-.87.46-2,.06-3.07-.44-5.1-.21l.24-.88C93.11.74,89.94,2.81,87.22,1.56Z"/><path class="cls-1" d="M113.23,1.58l-1.48-.44.16.37A3.06,3.06,0,0,1,113.23,1.58Z"/><path class="cls-1" d="M111.91,1.51a7.25,7.25,0,0,0-.86.18,3.25,3.25,0,0,0,.9-.08Z"/><path class="cls-1" d="M81.34,1.71a5.9,5.9,0,0,0-1.6,0A3.76,3.76,0,0,0,81.34,1.71Z"/><polygon class="cls-1" points="79.63 1.97 80.37 2.11 80.48 2 79.63 1.97"/><path class="cls-1" d="M36.52,2.73l-2.36.53c-.42-.27-3.1.05-2.23-.41-1.41.63-4.47,0-3.33.93,6.93-.31,16.51.22,24.54-.59l-1.28.36c4.17-.72,5.72.8,9.08-.64l-.46.74c1.92.21,3.66-1.06,5.66-.28L66,3.06c.53,0,.73.14,1.27.14L67,3.07A8.88,8.88,0,0,1,70.64,3c.09.24-.65.1-1.08.16.64.24,1.72-.26,2.79-.25.84.2,0,.33-.13.44,3.22-.33,4.68.44,7-.66.22-.19-.83-.37.34-.46a17.23,17.23,0,0,0-5.77.38h.53c-1.53,1.07-1.16-.24-3.63.22.65-.43,1.73-.42,2.15-.66-2.84-.82-4.07.62-6-.42l.21,0a6,6,0,0,0-1.82.19,7.06,7.06,0,0,0,1.28.31,2.07,2.07,0,0,0-1.2.76c-.74-.47-1,.23-2.13,0-.42-.44,1-.4,1.4-.64l-1.4.3c-1.28,0-1.26-.47-1.89-.71-1.09.33.63.24-.24.7-1.37-.54-7.24-.39-10,0,1-.07.34-.47,1.5-.4-.42-.1-1.92.13-1.93.46a20.86,20.86,0,0,1-6.18-.22l.52.34c-1.51.57-3.82-.42-6.5-.09h.06c-.87.07-1.6.89-3.18.72C35.76,3.1,36.61,3.13,36.52,2.73Z"/><path class="cls-1" d="M27.11,3.5,28,3c-1-.11-2.16.49-1.95.8.65-.1,1.49.1,1.61-.17C27.53,3.61,27.54,3.44,27.11,3.5Z"/><path class="cls-1" d="M9.19,3.58c-.35.11-.25.28-.4.41,3.79-.06,8.47-.24,10,.12,1.28.14,1.51-.56,3.12-.73l.72.48c.87-.3,3.52.21,2.58-.56-.09-.07-.75.36-1.49.23l.12-.27-1.71.09L22.65,3c-2.33-.48-1.64,1-4.5.69l0-.67a18.46,18.46,0,0,1-4.58-.22s0,.34.32.2c.31,0,.72.31.5.51-2.89.52.46-.4-1.57-.68-2.47.46-7.17.85-8.54.31,1.16.41-.56.84-1.94.8-.64-.24.43-.4.66-.6a6.15,6.15,0,0,0-1.81-.14c.83.37.29.87-1.21,1.1C3.29,4.73,5.89,3.5,9.19,3.58Z"/><path class="cls-1" d="M8.22,4.15A1,1,0,0,0,8.79,4L7.47,4Z"/></g></g></svg>