<svg xmlns="http://www.w3.org/2000/svg" viewBox="0 0 29.95 28.3"><defs><style>.cls-1{fill:#938366;}</style></defs><g id="レイヤー_2" data-name="レイヤー 2"><g id="レイヤー_1-2" data-name="レイヤー 1"><polygon class="cls-1" points="3.29 26.2 3.58 26.36 3.17 25.65 3.29 26.2"/><path class="cls-1" d="M5.49,28.3l0-.42a11.94,11.94,0,0,0-2.14-2.66,5.59,5.59,0,0,0,.82,2c0-.13-.34-1-.06-.81.32.61.14.62.57,1.42.6.49-.19-.58.2-.44Z"/><path class="cls-1" d="M4.45,26.15c.21.36.41.72.59,1C4.84,26.79,4.67,26.3,4.45,26.15Z"/><path class="cls-1" d="M4.45,25.86c.18,0,.47.74.55.84l-.68-1.39Z"/><path class="cls-1" d="M5.06,25.59a1,1,0,0,0,0-.16C4.89,25.24,5,25.42,5.06,25.59Z"/><path class="cls-1" d="M5.23,25.26c-.34-.41-.24-.1-.19.17l.06.07c.32.33.85,1.3.56,1.13,0,.29-.57-.62-.29.05l.64.64C6.13,27.08,5.39,25.67,5.23,25.26Z"/><path class="cls-1" d="M5.06,25.59c0,.05,0,.09,0,.1C5.15,25.83,5.12,25.72,5.06,25.59Z"/><polygon class="cls-1" points="4.71 25.66 4.76 25.9 5.03 26.27 4.71 25.66"/><path class="cls-1" d="M5.64,24.89c.78,1.27-.41.08.18,1.07.15-.17.89.66,1.29,1.37l-.05-.52A10.06,10.06,0,0,0,5.64,24.89Z"/><path class="cls-1" d="M8.08,27.81A1.61,1.61,0,0,1,8,27.56.69.69,0,0,0,8.08,27.81Z"/><path class="cls-1" d="M7.7,25l.35,1.56a3.58,3.58,0,0,1-.48-1c-.31,0,.18.78-.07.77-.81-1.14.24-.28-.53-1.26-.1.11-.25.28.3,1.33l-.7-.67L7.46,27c.31.31-.5-1.11.13-.25a1.61,1.61,0,0,1,.4.85c0-.34,1,.78,1.12.45S7.92,25.72,7.7,25Z"/><polygon class="cls-1" points="8.62 26.39 8.98 26.87 8.52 26.21 8.62 26.39"/><path class="cls-1" d="M8.05,24.4l.28,1a5.15,5.15,0,0,1-.45-.57c.19.28.45.82.62,1.06.86,1.08.06-.56.06-.85.68.3.39.64,1.23,1.64-.12,0-.3-.25-.48-.23,1,1.17.54-.2.46-.61-.11-.09-.35-.45-.36-.3L9.3,25C8.56,24.21,8.28,24,8.05,24.4Z"/><path class="cls-1" d="M7.63,24.69c0-.15.12-.08.23.07C7.64,24.47,7.46,24.26,7.63,24.69Z"/><path class="cls-1" d="M9.82,25.71c-.06-.06-.06,0-.05.09S9.85,25.83,9.82,25.71Z"/><path class="cls-1" d="M8.8,24.43H9l-.41-.5A.77.77,0,0,0,8.8,24.43Z"/><path class="cls-1" d="M16.44,22c-.33-.46-.54-.66-.61-.48-.39-.64-.14-.62-.3-1-.43-.29-.47-.73-.9-1.31-.24.06.21.94-.11.9a5.7,5.7,0,0,0-.46-.66c0,.56,0,1.42-.62,1-.39-.08-.37.33-.45.78-1.05.22-1.52,1.44-2.81,1.44l.66,1.3c-.43-.57-.21.14-.7-.66.15.12.12,0,.17-.09-.89-.95-.46.42-1,.18a8.43,8.43,0,0,1,1,1.48c-.86-1.37-.26.2-1.34-1.32-.48-.23.76,1.2.38,1.14.49.81.48.23.92.81s-.4-.13.16.7c.64.15.29-2,.59-2.83l.42.8c0-.74.44-1.09,1.48,0-.53-.68.69.09-.41-1.5.32.32.31.24.51.31l-.31-.54c.17-.08.66.73.8.56a4.86,4.86,0,0,1-.89-1.53c.71.65,1.39,1.18,2,1.7a5.56,5.56,0,0,0-.6-.73c.29.17-.17-.49-.29-.74.1-.11.67.8,1,1.26.4.13-.62-1.66-.08-1.19l-.52-.68c.11-.32.81.35.91-.05.76.9.34,1,.51,1.47.19.18.33.16.58.47-.22-.58-.49-1.38-.66-1.94C16,22.25,16.3,22,16.44,22Z"/><path class="cls-1" d="M16.07,23l.18.43c0-.07,0-.15,0-.13A2.45,2.45,0,0,0,16.07,23Z"/><path class="cls-1" d="M16.44,22l.07.11C16.5,22,16.47,22,16.44,22Z"/><path class="cls-1" d="M13.36,20.41l.08,0h.06Z"/><path class="cls-1" d="M15.3,23.8a8.81,8.81,0,0,0-.7-.65A1.7,1.7,0,0,0,15.3,23.8Z"/><path class="cls-1" d="M13.25,24a4.11,4.11,0,0,0,.32.61C13.68,24.55,13.56,24.3,13.25,24Z"/><polygon class="cls-1" points="16.46 22.96 16.51 22.61 16.45 22.38 16.46 22.96"/><path class="cls-1" d="M17.88,16.72c-.72-.75-.62-.06-.94-.1-.09.7,1.17,1.91.87,2.25l-1.08-1.81c-.29.33-1,.3-.34,2.05a1.75,1.75,0,0,1-.47-.74c-.19.23,1.51,2.6.81,2.22-.42-1.29-.78-1-1.4-2.12l0-.16c-.13.24,0,1-.2,1,.28.46.86,1.08.71,1.25a4.84,4.84,0,0,1,.73,1c-.14-.62.16-.38-.12-1.05.49.52.06.23.54.76l-.21-.65c.2.07.28.67.53.68-.21-.36-.31-.82-.13-.83l.09.23c0-.3.29-.1-.4-1.06l.76.9-.46-.65c.45.08,1.6,1.61,1.42.54a1.36,1.36,0,0,1-.41-.72c-.45-.36.14.64.06.82-.46-.66-.73-1.62-1.17-1.91.71.68.3-.33,1.46,1.28.3,0-.15-.91.34-.67l.15.25c-.67-1.13.52.38,0-.87l-.29-.16c-.28-.46-.24-.52-.2-.65a1.59,1.59,0,0,0,.27.38,3.47,3.47,0,0,1-.44-1.37c-.2-.07.1.68.1,1C18.14,17.32,17.68,16.65,17.88,16.72Z"/><path class="cls-1" d="M17.41,21.18l-.18-.43A1.77,1.77,0,0,0,17.41,21.18Z"/><path class="cls-1" d="M19.83,17.45c.27.09.41.71.78,1-.22-.65-.91-1-1.3-1.95.4.42,0-.5.05-.56a13,13,0,0,0,1.14,1.75c-.14-.33.4.07.57,0-.8-.43,0-.55-.83-1.06-.4-.62-.56-1.18-.09-.8s.2.38.15.44c.59.84.53.32,1.22,1-.62-1.29.17-1.69-2-3-.42-.26,0,.13,0,.24a3.75,3.75,0,0,1,1.27,1.1c-.38-.19,0,.44-.58-.17-.16-.23-.34-.46-.52-.68a1,1,0,0,0-.8.21,3.51,3.51,0,0,0-.7.83l.28-.12a2,2,0,0,1,.28,1l.94,1.18c-.13-.05-.08.19-.37-.27a4.58,4.58,0,0,0,.85,1.3c-.05.34-.4-.13,0,.79,1,.84-.29-1,.66-.36Z"/><polygon class="cls-1" points="19.6 18.59 19.26 17.91 19.34 18.29 19.6 18.59"/><path class="cls-1" d="M17.91,15.72c.18.28.22.43.4.71C18.58,16.52,18.31,16.14,17.91,15.72Z"/><path class="cls-1" d="M21.85,17.1l.07-.36-.39-.1A.89.89,0,0,1,21.85,17.1Z"/><path class="cls-1" d="M19.75,13.76c0,.17.58.66-.31.31.75.7,1.68,1.13,2.42,1.72.38,0-1.15-1-1.32-1.26.85.45,0-.23.31-.19C20.47,14.16,20.07,14,19.75,13.76Z"/><path class="cls-1" d="M24.3,14.71c.18-.11-.52-.44.12-.38s.84.33.56.35c1.62.39-.06-.19,1.19,0a3.49,3.49,0,0,1-.83-.17c.85-.22-1.13-.45.4-.62a5.2,5.2,0,0,0-1.54-.35,26.48,26.48,0,0,0,3.45,0c-.77-.06-2.59-.17-4.15-.36,1.3,0,1.37-.1,1.29-.16s-.24-.13.81-.17c.06,0,.45.07.14.11,2.43.11-.16-.19.46-.27l2.11.07c-.13-.14-1.2-.31.33-.46l.17,0,.75,0H30l0,0c-2.13-.28-1.93-.63-3.09-.82.34-.08.67-.17,1-.27-1-.09-1,0-1.24.16s-.6.27-2.22.32c1.78-.2,1.41-.22.77-.2s-1.54.07-1-.1c1.21-.29,1,.06,2.4-.25-1.83.21-.66,0-1.32,0,1.64-.25-.11-.25,1.76-.52-1.19,0-2.32.14-3.37.27.75-.25.45-.32.14-.32.24.15-2.12.57-2.57.87.92,0,2.12.27,1.55.58,2.54-.17.2.15,2.38.07l-2.33.15a14.61,14.61,0,0,0,2.39-.11c.5.08-1,.19-2,.21a16.55,16.55,0,0,0,2.34,0l-1.06.05-2,.06c.25.14.64.36.64.62s-.36.54-1.28.59l1.4.3c-.54,0,.05.31.32.56s.25.46-1.15.07l.86.48c-.49-.27-1.75-.68-2.44-1,.31.21-.19.07.07.28l.67.14c.82.5.08.34-.71-.05a4.05,4.05,0,0,0,1.39.74c.51.16,1.08.26,1.58.45-.76-.63-.18-.46.65-.29s1.85.38,1.66,0C25.75,14.82,24.93,14.94,24.3,14.71Z"/><path class="cls-1" d="M20.57,13.82l.26.15A1.28,1.28,0,0,0,20.57,13.82Z"/><path class="cls-1" d="M23.77,10.5a.36.36,0,0,0-.19-.05C23.22,10.52,23.5,10.49,23.77,10.5Z"/><path class="cls-1" d="M20.85,14.34h0Z"/><polygon class="cls-1" points="23.15 15.8 23.32 15.73 22.83 15.5 23.15 15.8"/><path class="cls-1" d="M23.91,9.09l-.56.28A5.84,5.84,0,0,0,23.91,9.09Z"/><path class="cls-1" d="M20.2,6.44l0,.06C20.27,6.41,20.24,6.41,20.2,6.44Z"/><path class="cls-1" d="M12.86,3.23a3.4,3.4,0,0,0-1.35.94l.29-.44a3.21,3.21,0,0,0-1.29,1.63L10.8,5c.65-.53-.29.86-.29,1.26C10.86,6.17,12,4.54,12,5.07c.12,0-.17.45-.41.77.12.25,1-1,1.24-1.1-2.05,3.46,1.17-.58.12,1.79.35-.16.41.28,1.06-.25-.65.78.18.2-.47,1.14,1.29-2,.12,1.31,1.71-1.19-.12.9.12-.16.12.66-.18.28-.24.24-.29.28-.18.61.88-.94.29.28.18.37.47-.65,1.06-1.22.12.49-.17.77-.64,1.92.76-1.19.59-.5,1.11-1a.92.92,0,0,1,.35-.81c.24.4.77-.62,1.3-.74-.64,1.42-.35-.17-.7,1.06-.59.49-.71.33-1.42,1.23.24.24.71.24,1.36-.13.06.28-.47.57-.41.78-.06.77,1.29-1.07,1.18-.33l-.47.65c.7-.82.41.52,1,.2a3.88,3.88,0,0,1,.47-.82c-.53.86-.29.69,0,.49s.77-.4.47.24c.77-1,1.62-1.34,2-1.27a4.83,4.83,0,0,1-.84.91c.19-.76-1.33.82-1.86,1.19.59-.41.34.24,1.2-.32l-.83.67c0,.2,2-1.41,1.52-.61l-.67.45c.29.12.26.46.36.65s.37.25,1.59,0A22.63,22.63,0,0,0,25.3,9.43a17.22,17.22,0,0,0-3.18.54l1.23-.6a8.76,8.76,0,0,0-2.13.9c-.73.24.9-.64.07-.38,1.16-.7,1.43-.69,2.42-1.25l-.8.2c.52-.23.24-.33.76-.56-.91.29-.91.13-.86-.12s.15-.59-.35-.52l.09.31a1.27,1.27,0,0,1-.87.39c.6-.73.43-.68.48-1.14-.6.26-1.5,1.12-1.7,1,.84-1,0-.8.54-1.73-.79,1-.62.14-1.05.74-.23.16-.29,0,.06-.61a1,1,0,0,1,.19-.14l-.08-.1c.09-.12.14-.22.17-.23s-.56.71-.34.1a.6.6,0,0,1,.35-.32c-.12-.33-1.41,1.39-1,.29-.35.48-.65.36-1.29,1.55.17-.45.76-1.35.46-1.31-.7.9,0-.49-.53,0,.82-.89.18-.28.94-1.14.12-.49-.88.7-1,.37l.41-.77c-.29.29-.88,1-.47.16l-.41.69c.06-.44-.29-.36,0-1.22l-1,1.19c.58-1.55-.53-.53-1.47.53a.86.86,0,0,1,.11-.73l.4-.41c-.11-.14.17-1-.58,0-.35.24.35-.82.35-1.06C14,5.47,15,2.45,13.52,4.74c.11.08.05.69.35.73-.23.24-.47.73-.59.73-.29,0,.12-1-.35-.73L13.87,4C14.39,2.25,11.87,5.56,12.86,3.23Z"/><path class="cls-1" d="M15.82,5.09l.29-.86-.38.66C15.85,4.82,15.9,4.84,15.82,5.09Z"/><path class="cls-1" d="M15.73,4.89a1.64,1.64,0,0,0-.28.24s.08,0,.19-.08Z"/><path class="cls-1" d="M12,3.08c0-.09,0-.25-.17-.13S11.86,3.28,12,3.08Z"/><polygon class="cls-1" points="11.56 3.4 11.51 3.69 11.62 3.52 11.56 3.4"/><path class="cls-1" d="M5.84,1.67,5,2.41c.23-.49-.42-.12.17-.85-.82,1-.53-.29-1.35,1.35C5,2.86,5.49,4.44,7.26,3.62l-.53.54c1.24-1-.17,1.75,1.71-.46L7.62,4.92c0,.49,1.53-1.55.94-.08l.29-.53c.06,0,0,.28,0,.33L9,4.39c.47-.41.53-.29.48.16-.24.4-.18.12-.3.2-.18.45.47-.32.59-.24a2,2,0,0,1-.47.74c.71-.34.06,1.09,1.47-.63.24-.32.3-.69.53-.77.12-.73-.53-.12-1.06.25l.06,0c-1.29,1.71.12-.49-.65.12.53-.69.65-.61.94-1,.53-1.59-1.12.78-.24-1.13l.06,0c.06-.2-.23.08-.41.21a2.91,2.91,0,0,0-.18.61,11.77,11.77,0,0,0-.94,1.22c.41-.85-.35.33-.23-.16.41-.77.53-.61.82-1L9,3.41c-.18,0,.35-.9.53-1.34-.47.49-.18.44-.77,1.18.41-1-.41-1.18-1.18-.65.18,0,.53-.77.59-.57.06-.2-.35.08-.71.66-.53.37-.59-.17-.47-.82l-.29.62c-.77.86,0-1-.65-.61H6C5.84,2,4.9,3.3,4.9,2.9A10.25,10.25,0,0,0,5.84,1.67Z"/><path class="cls-1" d="M4,2.33l.59-.73c0-.24-.76.69-1.06,1.22.18-.12.06.29.36-.16C3.89,2.54,4.07,2.26,4,2.33Z"/><path class="cls-1" d="M1.83,1.21a5.26,5.26,0,0,0-.48.67c.49.17,1.22.18,1,.91,0,.33.77-.86,1.12-1l-.41.85c.41-.45.18.61.88-.77.06-.13-.47.57-.41.28l.29-.45-.29,0L4,1.19c.23-1-1.23,1.6-1.24.87L3.42.91c-.18-.2-.53.13-.3-.69,0,0-.35.58-.17.37a4.1,4.1,0,0,1-.47.9C1.59,2.18,3,.83,3,.22c-.76.62-1.7,1-1.3-.07C1.41.92.77,1.53.65,1.37a4.3,4.3,0,0,1,.7-1c0-.16.12-.49-.06-.36A4.84,4.84,0,0,1,0,1.82C-.06,2.76,1.53.84,1.83,1.21Z"/><path class="cls-1" d="M1.12,2.1c.06,0,.14-.1.23-.22a.85.85,0,0,1-.17-.06Z"/></g></g></svg>