<svg xmlns="http://www.w3.org/2000/svg" viewBox="0 0 888.46 8.81"><defs><style>.cls-1{fill:#938366;}</style></defs><g id="レイヤー_2" data-name="レイヤー 2"><g id="レイヤー_1-2" data-name="レイヤー 1"><polygon class="cls-1" points="888.46 4.7 885.99 4.41 885.23 5.23 888.46 4.7"/><path class="cls-1" d="M876.8,1.73l-4.21.35c2.41,2.38-.84,1.69,5.74,3.39,2.31-.37,7.4-1.2,6.73-2.13-1.66.1-4.09,1-6.55.72,1-.69,3.69-.6,4.94-1.5-4-.73-2.52.59-6.88.26Z"/><path class="cls-1" d="M871.82,4.11c.39-.42.79-.82.72-1.16C872.15,3.36,870.09,3.87,871.82,4.11Z"/><path class="cls-1" d="M869.26,4.35c-2.66-.09,0-.88-.22-1l-3,1.53Z"/><path class="cls-1" d="M858.2,4.25c-.44,0-.84.08-1.25.14C857.37,4.64,857.74,4.43,858.2,4.25Z"/><path class="cls-1" d="M852.75,4.43c1.1.53,2.47.21,4.2,0l-.17-.09c-1.52-.45-.09-1.55,2.37-1.25,2.58-.25,2.35.83,4.58.12l-3.06-.89C856.63,2.42,854.33,4,852.75,4.43Z"/><path class="cls-1" d="M858.2,4.25c.46,0,.93-.07,1.44-.07A2.11,2.11,0,0,0,858.2,4.25Z"/><polygon class="cls-1" points="863.75 4.38 865.13 4.15 864.8 3.69 863.75 4.38"/><path class="cls-1" d="M843.7,4.51c.62-1.48,6.48.17,7.19-1-3.58.06-6.44-1-5.66-1.85l-4,.46C840,2.7,841.63,3.81,843.7,4.51Z"/><path class="cls-1" d="M835.94.74A2.76,2.76,0,0,1,835,1,2,2,0,0,0,835.94.74Z"/><path class="cls-1" d="M815.92,3.31l9.24-1.51c-.86.49-.52,1-2.63,1.13,4.1.2,4.63-.76,8-.61,1,1.39-6,.1-4,1.34,2.38,0,5.94-.1,7.86-1.27l3.78.94L836.87,1.8c-1.52-.43-3.08,1.2-4,.14-.48-.65,1.06-.77,2.14-.93-2.44.31-6.67-1.19-11.63-1C818.11.18,819.34,2.58,815.92,3.31Z"/><polygon class="cls-1" points="815.54 1.64 814.95 1.04 815.37 1.84 815.54 1.64"/><path class="cls-1" d="M805.45,3.62l4.83-1a2.81,2.81,0,0,1,1.15.73c-.2-.34,1.1-.94.9-1.23-2.21-1.38-5.89.43-8.47.68-6.84-.62.31-.75-2.36-2,1.92,0,2,.38,4.64.46C802-.3,796.71,1.13,794,1.51a5.18,5.18,0,0,0,2.45.44l-2.78.46C796.59,3.5,799,3.79,805.45,3.62Z"/><path class="cls-1" d="M814.07,3.61c-1.8.1-2.47,0-2.62-.19C811.92,3.79,812.52,4.06,814.07,3.61Z"/><path class="cls-1" d="M792.57,1.55a4.07,4.07,0,0,0,1.46,0A4.32,4.32,0,0,0,792.57,1.55Z"/><path class="cls-1" d="M795.32,3.19l-3.38-.14,1.32.64C793.73,3.62,795.4,3.52,795.32,3.19Z"/><path class="cls-1" d="M666.23,1.08c.31.56,1.54.84,4.15.72-.31.75-3.69.61-5.27,1,3.44.48-.06.87.81,1.59,3.85.08,5.55-.9,9.67-.7-.2.22-.14.55.4.8,5-.47,13.34-1.16,18.16-.52a96.31,96.31,0,0,0,13.22-.41c16.83.39,34.36-.38,52.46.32l2.56-1.45c.87.72,4.3,0,3.79.94a16.17,16.17,0,0,0-3.12,0c3.87,1.27,10.27-.11,14.91.35-.53-.26-1.29-1.53.11-1.75-.36,1.62,5.49,0,6.85,1.83,4.64.46.17-1.41,5-1.16.51-.95-4.64-.46-5.51-1.18,1.51-.77,4.38.32,4.15-.68-7.76-.47-22.15,1.52-34,2.06l1.25-.9c-6.07.64-15.88.67-20.74-.79,1.14.86-9-.45-8,1.48a16.42,16.42,0,0,0-4.19-.53l-.59.61c-3.11,0-2.61-1-6.17-.9,2.32.83-.27,1.08-1.3,1.77-4.09-.93-8.84-1.74-12.49-2.5a4,4,0,0,0,1.87.93c-2.48-.3-2,.51-2.7.79-2.38,0-2.14-1-2-1.58-4.38-.33-6.33,1.72-9.6,1l1.16.86c-4.51.21-8.29-.73-13.26-.45-2.4-1.17,4.08-1,6.14-1.52-1-.24-3.15-.31-3.83-.7-2.13.6-5.68,1.42-8.33,2C674.25,1.09,667.94,1.17,666.23,1.08Z"/><path class="cls-1" d="M680.06.47A12.93,12.93,0,0,0,681.49,0a6.38,6.38,0,0,1-1.66.09C679.76.25,679.87.37,680.06.47Z"/><path class="cls-1" d="M666.23,1.08c0-.05-.1-.09-.11-.14C665.63,1,665.79,1.05,666.23,1.08Z"/><path class="cls-1" d="M694.8,4.08,694.15,4c-.28,0-.52,0-.81,0Z"/><path class="cls-1" d="M698.51.19c1,.29,2.29.6,3.79.92C701.89.72,701.54.42,698.51.19Z"/><path class="cls-1" d="M728.85,1.15c.93-.15.4-.41,1-.68C728,.43,727.33.71,728.85,1.15Z"/><polygon class="cls-1" points="674.61 0.25 670.83 0.52 669.44 0.75 674.61 0.25"/><path class="cls-1" d="M598.05,4.72c3.33,1,8.23.39,12.34.59,7.52-.53,1-2.23,8.09-2.35l-1.22,2.1c7.14-.12,17.29.31,23.35-1.54.54.26,1.8.58-.06.88,4.77-.09,2.48-3,8.85-2.3-6,1.31,1.94,1.24.31,2.54l-.93.16c4-.14,9.38-.84,12-.74.11-.54-2.21-1.38,1.36-1.44-1.45-.11-.87-.72-.74-1.27-3.7.6-5.7.23-7.94.95-2.06-.71,1.39-.23-.67-.93l-3,.66c-2.18-.17,2.25-.72-1.15-.86-.39.41-3.14.86-5.81.77l.77-.25c-2,.28-4.92-.07-3.93,1.11l-2.4-1.17.41.8c-5.57-.31-7.66-2.22-14.87-1.23,1.73.24.15.67-.77.83,3,.54,3.7-.61,6.54-.72.43.8-4.41,1.75-.95,2.23-3.79-1-7.16.12-8.78-1.87-4.55-.12-6.29.85-10.93.39l.14-.3c-.85,1.32-3.77-.59-7.21.76l2.45.29c-.11.54-1.3.56-3,.65.19-.2.19-.2-.35-.46-.5,1-5.73,1.11-6.39,1.39,2.2.16,4.89-.63,7.47-.87C599.83,4.08,600.22,4.88,598.05,4.72Z"/><path class="cls-1" d="M645.14,1.23l-1.47.46A3.23,3.23,0,0,0,645.14,1.23Z"/><path class="cls-1" d="M577.36,3.05c-2.92-.22.78-.82-2-1.25-3,.67,3.4,1.36.5,2.35-1.78-.58-4.68.41-5.88.44,1.32-.57.55-1.83,0-2.09-1.12.35-3.64-.27-5.57-.31,4.72.79-4,.47.3,1.34-.32.74-4.76,1.3-6.56.72.13-.54,1.59-.43,2.79-.45,1-1-3-.56-3.67-1.49-4.49,1.42-18.86,1.33-14.78,3.61,1.54.45,2.85-.11,4.52-.21-4.67-.45,0-1.21.36-1.62,2,.37,5.41-.36,4.63.46l-3.16.86c10.12.43,24,.28,35.63-.06l-5,0c.59-.62,3-.66,4.82-1l-2.46-1.51c1.45.11,2.84-.12,2.72.42,1.77-.64,1-1-.1-1.54,3.76-.27,4.37.33,7.27-.66-6.25-1.24-5.28,1-12.44-.06Z"/><polygon class="cls-1" points="591.05 2.22 589.54 2.98 591.86 2.6 591.05 2.22"/><path class="cls-1" d="M588.66,5.54c-.07-.33.85-.48.77-.81C586.51,4.51,586.86,5,588.66,5.54Z"/><path class="cls-1" d="M553.49,2.25l-3.76.26,2.45.29C552.12,2.47,553,2.32,553.49,2.25Z"/><path class="cls-1" d="M527.08,6.19c5.24-.15,7.46-.87,13.37-.09,2.9-1-1.35-1.86-.11-2.76-2.93-.22-2.56,1.46-5.61,1.78-1.12-.85-4.43.19-7.34,0C527.75,5.46,527.75,5.86,527.08,6.19Z"/><path class="cls-1" d="M509.09,2.92c-2.39,0-4.8.65-6.69.25.27-.54,1.69-.74,3.14-.6-.94-1.21-2.65.19-5.23-.62.23.14,1.16.34.43.6-6.41-.28-3.6,1-11.95.31-1.2.33-2.39.33-2.19,1.13-4.74-1-2.35-1-8-1.9.21.47,2.08,1.55,2,2.55-8-1.41-8.22.2-13.35-.86a9.26,9.26,0,0,1,2.65-.17c-.67-1.41-4.32.25-7.17,0l.28-1.2c-2.64.19-7.19,1-10.5.1l.75-.6c-6.73.92-14.61.49-20.34,1l-3.09-.75c-7.91.91,7.86.42,2.07,2.22-.87-2.22-4.08.72-8.59-.16-2.12-.88,4.56-.46,2.2-1.47-1,1.13-2.4.32-4.79.65.52-1.07-5-.14-3.53-1.35l-8.43,2c-1.36-.61-3.81-.51-5.62-.35,4.56,0-1.25,1.6,3.86,2.09a257.28,257.28,0,0,1,29.16-.32c1-1.47,6,0,7.45-1.18.21.47.91.87,1.14,1.34,6-.31-1.41-.8.05-1.34,2.62-.19,4.74.69,4.5,1.22,4.29.08.47-.4,2.66-1.2l2.8,1.62c13.4-.49,31.12-1.58,46.35-.66l-1.15-1c6.91.56,11.56-2.24,17.68-.07l2.08-.88c-1.13.5,1.2,1.53-.61,2.21,1.88-.34,3.88,0,5.82-.27l-3.44-.48c2.41-.86,5.07-.33,5.88.42,5.15-1-3.07-1.75-4.21-2.6-7.25,1.87-7.3-1.83-14.27-1.05C504.59,2,509.36,2.38,509.09,2.92Z"/><path class="cls-1" d="M518.07,5.69a6,6,0,0,0,1-.27A7,7,0,0,0,518.07,5.69Z"/><path class="cls-1" d="M403.15,3.61c-.54,0-1.17,0-2,.05C400.44,3.92,401.54,3.74,403.15,3.61Z"/><path class="cls-1" d="M527.39,5.11a0,0,0,0,0,0,0l0,0Z"/><polygon class="cls-1" points="530.86 2.62 528.92 2.59 529.26 3.06 530.86 2.62"/><path class="cls-1" d="M382.8,2.34l0,.53C383,2.7,383,2.53,382.8,2.34Z"/><path class="cls-1" d="M327.64,2l1.2,0A4,4,0,0,0,327.64,2Z"/><path class="cls-1" d="M195.31,3.12c-3.6.32-8.39.64-11.05,1.5l.26-.53c-1.92.26-8.16,1.12-4.14,2.07l1-.47c4.56-.79,3.31.89,6.87,1.23,4.3-.25,6.77-2.26,10.58-1.78,1.66-.07,1.4.47.91.88,3.83.14,5.32-1.4,7.94-1.59,1.06,4,11.75-1.11,17.39,1.46,3.58-.32,8.37,0,12.92-.77-2.42,1,4.3.09,3.3,1.22,1.29-2.34,13.11,1,13.92-1.91,6.18.83.25-.19,7.39.5,0,.33-1.21.33-1.68.39,2.82.62,4.34-1.26,6.68.09,5.71.22,1-.8,4.36-1.59,5.95.35,4.27.74,7.56,2,.54-1.41,4.07-.73,7-1.46-.72-.07-4.77-.35-2.11-.88,6.91.22,5.52-.93,12-1.3,3.27,1.55-6.45,0-.77,1.27-4.09.72-7.19.65-9.39,1.78a152.14,152.14,0,0,0,18.19-.82c3.33.21-1.7.74.92.88,5.95.69,9.14-1.58,13.89-.9l-1,.8c2.89-1.06,10.5.24,16-.35-.71-.41-1.17-.68-.44-.94-.09,2,7.67-1.05,13.11.37-.43-1.27,4.85-2,8.2-2.12,1.18.35.93.87.91,1.21-5.48-.75-5.3,1.39-9.64,2,3.61-.66,9.57,0,12.71-.9l-1.23,1c5,.16,4.37-2.26,9.6-1.3l-.52.73c10.51-.1,22.88,1.21,31.3-.44.74-.61-3.51-2-3.73-2.5-5,.52-7.93,1.59-11.78,2.12l.06-1.15c-.87.79-5.49,1.25-2.94,1.87-3.13.6-2.37-1-6-.35.3-1.2,2.44-1.33,2.48-2.34l-3.14.59c1-.46-1.87-.4-.91-.87-5.8,1.46-8.08-.56-14.08.09l3.33.21c0,.67-1.93.6-3.38.8-1.63-.94-2.6-.82-5.68-1.23-2.65.53-4.12,1.73-7.71,1.72.76-1.27-5.95-.69-6.62-1.76-.77,1.27-6.94.45-7.44,1.19-1.91.26-4.54.12-4.52-.56.27,0,.84-.16,1.44-.22l-1.91,0c.18-.15.11-.26.34-.28-1.7,0-1.72.89-3.93.26,0-.33,1.22-.33,2.19-.46-4.55-.22-8,1.93-11.74.77-.75.6-6,.65-4.87,2-1.41-.47-.87-1.55-4.7-1.36-2.2,1.14-4.28-.42-7.19.31,3.86-1.18,0-.33,3.4-1.46-2.61-.48-6.49,1-11,.84-.47-.27-.45-.61-.92-.88-1.69.41-3.63,1.34-5.27.39l.21.81c-3.08-.42-7.39-.16-10.71-1L267.65,3.4c-5.19-1.62-12.18-.17-16.29,1.22-1.9-.07-4.75-.34-4.74-.68.44-.12,1.19-.36,2.06-.56-2.8-.06-6.22-.93-7.8.35-2.87.38-2.1-.88-4.24-1.09-5.81,1.79-17.16-1.33-18.92,1.42,2.38,0,6.89.55,11.43.43-1.2.34-.26.87-1.94.93-4.54.13-6.88-.89-11.43-.43l.53-1.75C208.51,1.48,201.41,5.62,195.31,3.12Z"/><path class="cls-1" d="M253.57,3.16l-3.31-.89.35.76A7.5,7.5,0,0,1,253.57,3.16Z"/><path class="cls-1" d="M250.61,3a15.43,15.43,0,0,0-1.93.35,7.65,7.65,0,0,0,2-.17Z"/><path class="cls-1" d="M182.16,3.42a15.3,15.3,0,0,0-3.58,0A9.18,9.18,0,0,0,182.16,3.42Z"/><polygon class="cls-1" points="178.33 3.94 179.98 4.21 180.22 4.01 178.33 3.94"/><path class="cls-1" d="M81.79,5.46l-5.3,1c-.93-.53-6.93.12-5-.81-3.15,1.26-10,0-7.46,1.85,15.53-.62,37,.45,55-1.17l-2.89.73c9.36-1.45,12.81,1.58,20.34-1.28l-1,1.47c4.28.41,8.19-2.12,12.66-.57l-.43-.6c1.18,0,1.65.27,2.85.28l-.48-.27A22,22,0,0,1,158.18,6c.21.47-1.44.2-2.4.33,1.41.48,3.84-.52,6.24-.52,1.88.42,0,.68-.29.88,7.21-.65,10.48.9,15.57-1.3.49-.4-1.86-.75.76-.94-4.76-.68-8.6.18-12.93.78h1.2c-3.44,2.13-2.61-.49-8.14.44,1.46-.87,3.86-.86,4.82-1.33-6.37-1.63-9.11,1.25-13.33-.84l.47-.07a15.48,15.48,0,0,0-4.08.39,16.71,16.71,0,0,0,2.86.61A4.86,4.86,0,0,0,146.24,6c-1.63-1-2.17.46-4.77,0-.92-.87,2.17-.79,3.14-1.26l-3.12.59c-2.87.06-2.82-1-4.24-1.42-2.43.66,1.42.47-.54,1.41-3.06-1.08-16.2-.79-22.44.06,2.15-.12.76-.93,3.37-.79-.94-.2-4.3.26-4.33.93A52.66,52.66,0,0,1,99.47,5l1.17.68c-3.39,1.13-8.56-.84-14.56-.18h.13C84.28,5.7,82.63,7.34,79.1,7,80.08,6.2,82,6.26,81.79,5.46Z"/><path class="cls-1" d="M60.71,7l1.95-.94c-2.15-.2-4.83,1-4.37,1.6,1.45-.2,3.34.21,3.6-.32C61.65,7.21,61.68,6.88,60.71,7Z"/><path class="cls-1" d="M20.58,7.16c-.78.21-.57.56-.9.83,8.49-.12,19-.5,22.36.24,2.85.27,3.38-1.13,7-1.46l1.62.94c1.94-.59,7.88.43,5.78-1.12-.22-.13-1.69.73-3.35.46l.27-.54L49.5,6.7,50.73,6c-5.23-1-3.67,2-10.09,1.38l0-1.35c-4.29-.07-6.46.39-10.24-.43,0,0,0,.67.7.41.71.07,1.63.61,1.14,1-6.49,1,1-.81-3.52-1.35-5.53.92-16.07,1.69-19.13.61,2.6.81-1.26,1.67-4.35,1.6-1.42-.48,1-.81,1.48-1.21a16.29,16.29,0,0,0-4-.28c1.87.74.64,1.75-2.71,2.2C7.36,9.47,13.19,7,20.58,7.16Z"/><path class="cls-1" d="M18.4,8.29A2.38,2.38,0,0,0,19.68,8L16.73,8Z"/></g></g></svg>