<svg xmlns="http://www.w3.org/2000/svg" viewBox="0 0 22.56 23.36"><defs><style>.cls-1{fill:#c6bb54;}.cls-2{fill:#c5b950;}</style></defs><g id="レイヤー_2" data-name="レイヤー 2"><g id="レイヤー_1-2" data-name="レイヤー 1"><path class="cls-1" d="M20.31,8.05c.09,0,.26-.09.19-.15L20.17,8Z"/><path class="cls-1" d="M20.65,7.29a1,1,0,0,0-.74.17c.33,0,.21,0,.6,0,.07.06,0,.18-.15.21.09,0,0,.15.19.11s.14-.34-.11-.39A.46.46,0,0,1,20.65,7.29Z"/><path class="cls-1" d="M14.6,1.23l0,.05A.1.1,0,0,0,14.6,1.23Z"/><path class="cls-1" d="M9.05.75a.07.07,0,0,0,0-.09S9,.72,9.05.75Z"/><path class="cls-1" d="M8,.63h.06S8,.6,8,.63Z"/><path class="cls-1" d="M14.6,1.23l-.11-.15C14.44,1.18,14.54,1.18,14.6,1.23Z"/><path class="cls-1" d="M19.41,6.65l.11,0-.06,0Z"/><path class="cls-1" d="M17,2l0,0,.11-.1Z"/><path class="cls-1" d="M18.57,3.12s-.22.16-.31.24c.09-.07.15-.09.19-.08A.74.74,0,0,0,18.57,3.12Z"/><path class="cls-1" d="M20.17,5.71l.06,0Z"/><path class="cls-1" d="M15.77,1.32a.58.58,0,0,0,0-.1A.36.36,0,0,0,15.77,1.32Z"/><path class="cls-1" d="M20,13.64h0S20,13.62,20,13.64Z"/><polygon class="cls-1" points="21.67 11.87 21.68 11.9 21.84 11.91 21.67 11.87"/><path class="cls-1" d="M6.13,1h0S6.15.94,6.13,1Z"/><path class="cls-1" d="M.5,15.61c.16-.26.41.17.57-.19C1,15.49.57,15.33.5,15.61Z"/><path class="cls-1" d="M19.42,6.59l0,0A.07.07,0,0,0,19.42,6.59Z"/><path class="cls-1" d="M1.07,15.42h0v0Z"/><path class="cls-1" d="M2.78,3.67a.31.31,0,0,0,.12.05A.28.28,0,0,0,2.78,3.67Z"/><path class="cls-1" d="M5.45,2H5.37A.11.11,0,0,0,5.45,2Z"/><path class="cls-1" d="M2.07,5.19S2,5.2,2,5.27H2S2,5.21,2.07,5.19Z"/><path class="cls-1" d="M1.23,6.63h.06v0Z"/><path class="cls-1" d="M18.3,17.36a.7.7,0,0,1,.23.11C18.37,17.36,18.44,17.15,18.3,17.36Z"/><path class="cls-1" d="M19.55,6.57c-.07,0-.1,0-.13,0l0,0Z"/><path class="cls-1" d="M3.87,6.5l-.16.15A.56.56,0,0,0,3.87,6.5Z"/><path class="cls-1" d="M9.45,20.52l.06,0S9.47,20.49,9.45,20.52Z"/><path class="cls-1" d="M3.43,7.21a.5.5,0,0,0-.23,0l0,0Z"/><path class="cls-1" d="M18.54,17.47h0Z"/><path class="cls-1" d="M18.81,15.93c-.11.16.26.26.42.41-.05.26-.29-.05-.5-.08,0,.18.22.47.14.56s-.09,0-.13-.09c.16.32-.29.39-.12.78l-.08,0a2.42,2.42,0,0,1,.41.3c-.06.08.06.29-.15.17.05-.05,0-.11-.07-.19l0,.15c-.32-.15,0-.18-.2-.35,0,.23,0,.6-.16.64-.27-.21.16-.33-.2-.39a1.84,1.84,0,0,0,.25-.09c-.51-.21.11-.08-.42-.33-.26.15-.1.35-.37.5.09.18.21.18.3.36-.07.57-.82-.39-.75.15.09.22.34.57,0,.54L17,18.59c-.24.15.23.55-.19.52,0-.15.12-.23.05-.25-.34-.13,0,.26-.11.35L16.56,19c-.22.22-.37.62-.65.84,0-.1,0-.22-.16-.27-.28.38-.85.37-1.28.35l-.05.32s-.11-.1-.09-.17c-.19-.05.05.18,0,.31s-.17-.12-.15-.22a1.48,1.48,0,0,1-.43.48.53.53,0,0,1-.58,0l0-.1c-.25-.07-.14.65-.42.42l0-.05c-.53-.07-1.1.27-1.5-.19-.08.43-.5-.17-.56.4-.28-.32-.19-.41-.57-.64-.1,0-.21.36-.35.39l0-.31-.23.29,0-.38-.14.05a.27.27,0,0,1,.05.24c-.22.1-.43-.3-.4-.45-.17.05-.34.08-.51.12,0-.11.13-.13.21-.19-.32.23.05-.33-.25-.11,0,.07-.07.17-.09.23-.06-.21-.3-.28-.5-.29l.11-.18c-.29-.18-.7-.16-1-.36.07.15-.12.47-.24.44L7,19.64c-.16.15,0,.17-.2.31-.12-.1.09-.37.21-.42H6.77c0-.09.1-.11.17-.22-.17.15-.1-.41-.36-.17l0-.09c-.3-.21-.52-.19-.77-.38-.18.22-.23.1-.45.21a2.82,2.82,0,0,0-.4-.72c-.24,0-.21.13-.39.19.17-.2-.05-.38.18-.4A3,3,0,0,0,4,17.49c0,.11,0,.18-.13.21s0-.21.07-.27H4c-.32-.05-.33-.41-.34-.72s0-.59-.33-.62h0l-.44-.21c-.05-.18.23,0,.3-.19-.58-.18-.21-.63-.62-.83.63-.51-.38-.89,0-1.38l-.16.06c-.19,0,.07-.13.1-.2-.14,0-.14.13-.25.09-.39-.75,0-1.67.24-2.42.07-.28-.91-.24-.45-.58l.32.14c-.34-.64.19-1.18.05-1.82.06,0,.16.08.14.14.26-.05.13-.43,0-.5.06-.08.18,0,.29,0S2.69,8,2.94,8c0,0,.06.06.07.09s.16-.33-.12-.37c.2-.15.09-.44.31-.52C3,7,3.5,7,3.14,6.71c.39.25.53-.13.43-.36.09.11.18,0,.31.13a.28.28,0,0,0-.11-.42c.61.1,0-.74.67-.43A3.81,3.81,0,0,1,5,4.31c.29.35-.34.35,0,.69.16-.4.11-.86.5-1,.12,0,.06.18.09.27.23-.38.65-.44.84-.82,0,0,0,.1,0,.15s.18,0,.07-.2l0,.08c-.25-.19,0-.68-.11-.83.17.58.41-.05.58.7A.33.33,0,0,0,6.93,3c.09,0,.14.06.15.24.18-.22,0-.37.23-.46,0,.09,0,.14,0,.26,0-.23.07-.45.29-.46,0,.06.06.12,0,.15.29-.18.38-.69.81-.64,0,.45.17.09.29.44a1.22,1.22,0,0,1,.17-.15l-.13-.16c.18,0,.27-.33.46-.25l-.1.18L9.45,2l-.21-.1c.14-.23-.12-.46.15-.41-.05.05.19,0,.32.17h0c.07-.12.15-.26.31-.18a4.79,4.79,0,0,1,.05.49c0-.32.41-.14.5-.49a.68.68,0,0,0,0,.32l.06-.26c.09.08.1.12.1.28.26,0-.11-.47.21-.27,0,0,0,0-.06.09.31.11.6-.18.88,0,.07.38-.25.07-.16.4.38,0,.86-.4,1.24-.24l-.06-.05c.14-.51.25.29.48.1,0,0-.12.27-.09.22.23.14.55,0,1-.05l-.09.11c.11.17.38.18.51.31.09-.11.18-.05.19-.26.11.46.38.45.65.45s.56,0,.6.39c-.05,0-.17,0-.13.06l.4.09c.09-.22,0-.15.05-.34a.34.34,0,0,1,.36-.08c-.24,0-.19.32-.2.47,0-.06.09-.12.12-.18,0,.46.29-.37.38,0l-.08.09c.13,0,.31-.06.38,0-.11.25-.16,0-.3.21.14.08.56-.2.52.1-.1,0-.18,0-.28,0-.06.35,0,.29.06.41v0l.12.28V4c.61-.4.39.18.91,0-.5.13-.2.15-.43.36,0,.11,0,.24-.07.29.26-.09,0,.28.38.16-.06.07.09.1-.11.25.17.06.1-.14.2-.22.43,0,.08.71.67.7.33.15.63,0,.95.17-.07.18-.34.13-.34.13a.31.31,0,0,0,.23.38c-.09,0-.13.09-.2.18s.35-.11.31.1a2.46,2.46,0,0,1-.41.1,4.81,4.81,0,0,1,.53.2c-.13.12-.27,0-.39,0,.14.11.33.31.6.24l0-.14c0,.05-.19.13-.25.11-.26,0,0-.23.07-.28l.1.07c.46-.37-.28-.36-.37-.55l.41-.13-.42,0c.07-.1.25-.25.36-.19.09-.25-.2,0-.08-.29a.06.06,0,0,1,.06,0L20,5.64c.09,0,.23-.18.24-.07,0-.38-.53-.2-.34-.48h0c-.35-.25-.26.14-.73.13l.46-.63-.26.17a.13.13,0,0,1,.05-.19c-.26,0-.09.11-.29.17.09-.34-.47-.31-.14-.68-.22.11,0,.26-.26.22.33-.41-.23-.12-.2-.41.23-.16.26.07.29-.23-.39.25-.2-.32-.38-.37-.24.27-.35-.11-.64-.17.09-.09-.27-.47-.41-.71l0,0c-.24.28-.41.08-.61,0a.5.5,0,0,1,.34-.27L17,2a.31.31,0,0,1-.29.08l.17-.21c-.22-.1-.56,0-.75-.25-.12.22-.11.74-.46.76.05-.13.15-.35.24-.36s-.13.06-.15,0L16,1.89c-.08-.15-.15.14-.23.08.08-.18,0-.16.06-.3s0,.11.13.06a.49.49,0,0,1-.17-.41c0,.11-.11.24-.2.23s0-.25-.07-.39c-.11.1-.2-.09-.31.19-.06,0,0-.16,0-.25-.16.07-.55-.15-.52.19l0,0h0c-.45.16-.73-.39-1.15-.35l0-.09c-.24.05-.52,0-.71.15-.07,0-.14-.2-.09-.31-.19.05-.22.15-.46,0,.2-.16,0-.16.2-.11-.22-.11-.27-.27-.54,0A.2.2,0,0,0,11.64.3l.16.19a.82.82,0,0,1-.35,0l.07-.34C11-.25,10.66.82,10.25.2c-.11.24.28.13.18.42-.21,0-.5-.47-.58-.46C9.51,0,9.63.66,9.3.59c.06.11.15.42-.05.58C9,1.17,8.89.74,9,.61s.09,0,.09.05.15-.13,0-.23V.55C9,.45,8.69.53,8.71.33c-.14.15,0,.2.11.24-.32-.1-.44.07-.76.06.07.05.15.17.1.19-.46,0-.12.27-.37.41C7.57,1.11,7.71.8,7.47,1,7.26,1,7.33.75,7.37.64c-.19.29-.54,0-.71.07l.1-.15a.39.39,0,0,1-.2.15l.17.18c-.09,0-.16,0-.2-.06,0,.18.22.33.15.6-.15-.07-.25.25-.42,0,.37,0-.18-.27.08-.44a.23.23,0,0,1-.2.09.08.08,0,0,1,0-.09c-.44-.1,0,.39-.3.55,0-.18-.23-.25-.26-.19.13-.07.2.23.15.41-.26,0-.16.2-.27.25H5.6c.06.17-.06.2-.15.33-.09-.11.06-.15,0-.18,0,.36-.5,0-.58.26-.16,0-.2-.26-.33-.27-.09.35-.41,0-.51.31.21.14.18.08.18.39a3.66,3.66,0,0,1,.26-.42c0,.15,0,.3,0,.46.11-.09.15-.3.24-.32,0,.24,0,.18.15.3-.38-.18-.16.4-.48.34L4,2.73c-.43,0-.27.6-.67.81l.17,0c.13.21-.16.22-.19.38a.65.65,0,0,0-.38-.17c.11.1-.24.22,0,.52l-.32,0c-.31.21.18.67-.07.88-.11-.21-.32-.17-.3-.44-.07.09-.17.15-.06.23-.14,0,.05.41-.16.39,0,.09.21.21.13.31a.18.18,0,0,1-.09-.06c.09.06,0,.24.25.26-.72,0-.42.83-1,.84-.06.24-.1.54-.17.75-.05,0-.09,0-.06-.07-.28.22.46.38.15.62C.84,8,1.11,7.7,1,7.76c-.65-.17,0,.42-.48.53l0-.06c-.26.11.1.49,0,.76a.29.29,0,0,0-.1,0,1.47,1.47,0,0,1,.37.93C.49,9.77.62,9.75.35,9.76c0,.13.42,0,.45.28-.15.06-.29.22-.56.21V10c-.36.08,0,.31-.08.43l-.16,0c0,.37.41.4.36.78l.12,0c.39.21-.22.17.07.38l-.39.06a4.16,4.16,0,0,1,.47.71c-.31-.11-.45-.4-.63-.58,0,.14,0,.48.23.54,0,0-.13-.12-.07-.18a.81.81,0,0,1,.51.62c-.76,0-.12.73-.64,1a1,1,0,0,1,.22.73,2.77,2.77,0,0,0,.13.84c.5-.4.07.15.64-.09.07.11.08.16.05.19l-.18.51c-.12.16-.17-.07-.3,0,.08.3-.18.22-.25.48.18-.13.33,0,.33.16l.15-.34c.47.24-.32.56.18.8L.77,17c.21.14.39.74.93.65,0,.07-.14.2-.24.14.25.5,1.09.65,1.12,1.13L2.44,19c.1.05.33-.06.29.14,0,0-.14.06-.11.11s.36,0,.39.16l-.2,0c.23.5.84.27,1.21.46a.71.71,0,0,0,.05.88l0,0c.44.44,1.06.3,1.59.44.07.57.92.72,1.34,1.15,0-.11.14-.31.24-.32s.43-.15.28.22l0,0c-.05.41.25.39.45.46l.18-.5c.32.93,1.41,0,1.58.77.14-.12.3-.1.45-.22l0,.28a2,2,0,0,0,1,.1l-.1.2c.26,0,.33-.82.55-.84l.08.43c.43,0,.92.3,1.3-.13,0,.06,0,.18-.06.21.21,0,.86.14.67-.41.08.37.45-.06.63-.27l0,.27c.1-.38.07-.49.3-.66.07,0,.12.19,0,.15.25.07.07-.3.36-.24l0,.2c.22-.05.17-.14.21-.37s.4-.09.53.13c0-.15,0-.39.14-.37a.2.2,0,0,1,0,.19c.42,0,.36-.51.7-.39a.26.26,0,0,0,.11.12,1.15,1.15,0,0,1-.47.2c.11.23.36.17.33.57.11-.25.19-.8.45-.8a.13.13,0,0,1,.07.06v0c.06,0,.09-.05.11-.11a.37.37,0,0,0,.21,0c.14.18.3-.05.4-.11-.16-.23,0-.28-.26-.39,0,0,0,0-.05.09s0,0,0,.06v0a.78.78,0,0,1-.24.17c0-.16,0-.31.22-.26-.05-.18-.1-.38-.12-.47.35.24.73.23.91.4.21-.33.61-.64.44-1.17,0-.11.19,0,.27.08s-.07.11,0,.19c.07-.22.4-.46.18-.75.29-.07.14.34.34,0l.05.12c.46-.05.49-.43.49-.8s.05-.68.56-.79c-.07,0-.1,0-.15,0a2.18,2.18,0,0,0,.71-1.11,2.36,2.36,0,0,1,.71-1.13c.19-.19,0-.3-.15-.49l.3,0-.26-.35c-.15-.39.91-.4.51-1l-.21,0c.07-.16,0-.53.2-.46,0,0-.2-.09-.08-.13l.16,0a3.55,3.55,0,0,0-.23-.43c.15-.3.62.11.7-.35,0-.18-.42-.51-.53-.45a.27.27,0,0,1-.28.16l-.07-.15c-.46-.05-.93-.15-1.28.15l.26.24-.23.05v-.18c-.23.09,0,.17.08.26a.43.43,0,0,0-.26.06l.43.28c-.19,0-.35-.15-.47,0,.19.13.43,0,.53.15-.23.08-.39,0-.24.17a.25.25,0,0,1-.23-.1c.12.14,0,.3.23.41-.27.05,0,.39-.43.28.1,0,.28.27.27.37-.46-.32-.14.37-.67.15.43.28.05.53.2.85,0,0-.09-.08-.06-.09s-.24.09-.35.14c.35.17.36.41.52.62-.43,0-.37-.29-.72-.4.29.13.15.39.41.46a.79.79,0,0,1-.47,0c.42.25,0,.14.23.38-.3.05-.42-.18-.39.07C18.87,16.16,18.81,15.93,18.81,15.93ZM16,19.87h0L16,19.8Zm-.37.21a.51.51,0,0,0,.17-.08c.06.08.09.18.05.19S15.67,20.13,15.58,20.08Zm1.83,1.21c-.05.08-.11,0-.14,0a.57.57,0,0,0,.1-.11v0A1.21,1.21,0,0,1,17.41,21.29Z"/><path class="cls-1" d="M17.33,20.89a0,0,0,0,1,0,0l-.07,0,0,.09Z"/><path class="cls-1" d="M14.65,1.29h0a.06.06,0,0,1,0,0Z"/><polygon class="cls-1" points="9.92 20.47 9.91 20.54 9.95 20.49 9.92 20.47"/><path class="cls-1" d="M16.51,3.23a.11.11,0,0,0,0,.08A.17.17,0,0,0,16.51,3.23Z"/><path class="cls-1" d="M17.31,3.89l.05.16A.37.37,0,0,0,17.31,3.89Z"/><path class="cls-1" d="M17.82,4.51l.09-.08h0Z"/><path class="cls-1" d="M6.48,3.57a0,0,0,0,0,0,0C6.43,3.67,6.46,3.63,6.48,3.57Z"/><path class="cls-1" d="M9.71,1.7a.56.56,0,0,1-.1.15C9.68,1.86,9.73,1.86,9.71,1.7Z"/><polygon class="cls-1" points="3.88 6.48 3.88 6.48 3.87 6.5 3.88 6.48"/><path class="cls-1" d="M9.44,1.88a.12.12,0,0,0,.17,0C9.55,1.84,9.48,1.83,9.44,1.88Z"/><path class="cls-1" d="M19.72,7.26v0h0Z"/><path class="cls-1" d="M19.77,7.29l.05,0S19.8,7.28,19.77,7.29Z"/><path class="cls-1" d="M19.92,7.36l-.1-.05S19.84,7.37,19.92,7.36Z"/><path class="cls-1" d="M19.33,6.31l-.1,0A.26.26,0,0,0,19.33,6.31Z"/><path class="cls-1" d="M19.13,6.06c0,.08-.07.27,0,.33l.07,0C19.09,6.39,19.31,6,19.13,6.06Z"/><path class="cls-1" d="M19.24,4.19l.14.27c0-.11.11-.26.22-.17C19.59,3.79,19.47,4.5,19.24,4.19Z"/><path class="cls-1" d="M18.69,3.42c.16.07.11-.11.16-.15C18.7,3.27,18.67,3.27,18.69,3.42Z"/><path class="cls-1" d="M12.66.61l.05-.25C12.58.38,12.7.46,12.66.61Z"/><polygon class="cls-1" points="11.36 1.85 11.46 2 11.52 1.77 11.36 1.85"/><path class="cls-1" d="M10.58,0l.06,0-.21.1Z"/><path class="cls-1" d="M1.15,6.26l.29.11C1.43,6.27,1.13,6.08,1.15,6.26Z"/><path class="cls-1" d="M.18,11.14c-.16,0-.26.19-.1.28C.1,11.31.22,11.2.18,11.14Z"/><polygon class="cls-1" points="8.21 22.69 8.08 22.76 8.29 22.73 8.21 22.69"/><polygon class="cls-2" points="16.77 18.18 16.4 18.22 16.35 18.45 16.77 18.18"/><path class="cls-2" d="M14.85,18.06l-.57.3c.55.43,0,.44,1.11.5.3-.21,1-.66.79-.84-.23.1-.51.44-.88.49.09-.21.47-.33.58-.6-.63,0-.31.26-1,.41Z"/><path class="cls-2" d="M14.35,18.88a.54.54,0,0,0,0-.31C14.33,18.69,14.08,18.92,14.35,18.88Z"/><path class="cls-2" d="M14,19.08c-.38.13-.08-.21-.12-.22l-.29.52Z"/><path class="cls-2" d="M12.45,19.69l-.16.11C12.37,19.83,12.4,19.76,12.45,19.69Z"/><path class="cls-2" d="M11.71,20.07c.21.05.36-.11.58-.27h0c-.25,0-.16-.35.21-.43s.41.05.66-.24l-.52,0A2.39,2.39,0,0,0,11.71,20.07Z"/><path class="cls-2" d="M12.45,19.69l.19-.1A.21.21,0,0,0,12.45,19.69Z"/><polygon class="cls-2" points="13.24 19.4 13.41 19.27 13.32 19.18 13.24 19.4"/><path class="cls-2" d="M10.45,20.64c0-.36.92-.35.91-.66-.5.25-1,.16-.95-.08l-.1.07,0,0v0s0,0,0,0l0,.15c0,.11,0,.16,0,.23a.58.58,0,0,1,0,.15c0,.06,0,0,.13.06a1.76,1.76,0,0,1,.32.21s0,0,0,0-.08-.16-.21-.19h-.19C10.21,20.55,10.38,20.62,10.45,20.64Z"/><path class="cls-2" d="M11.54,20.56a.31.31,0,0,1,.06-.13C11.56,20.48,11.53,20.53,11.54,20.56Z"/><path class="cls-2" d="M13.51,18.2l-.88,1.15c0-.17-.09-.23.14-.46-.52.34-.44.58-.86.86-.34-.18.69-.57.27-.64-.28.23-.69.58-.73,1l-.58.18.4.17c.23-.06.15-.53.43-.41s0,.25-.09.38c.22-.29,1-.39,1.51-.88S13.21,18.66,13.51,18.2Z"/><polygon class="cls-2" points="13.81 18.5 13.97 18.57 13.8 18.45 13.81 18.5"/><path class="cls-2" d="M14.73,17.18l-.44.64a.53.53,0,0,1-.25,0c.07,0,0,.29.08.32.47.08.64-.62.92-.91.92-.5.07.18.59.19-.24.17-.3.11-.63.34.74-.08,1.16-.84,1.42-1.17-.11.05-.2,0-.36.14l.27-.35A2.69,2.69,0,0,0,14.73,17.18Z"/><path class="cls-2" d="M13.69,18c.2-.18.29-.22.34-.2C13.92,17.74,13.8,17.74,13.69,18Z"/><path class="cls-2" d="M16.59,16.41a.45.45,0,0,0-.17.14A.4.4,0,0,0,16.59,16.41Z"/><path class="cls-2" d="M16,16.34l.43-.29h-.25C16.14,16.11,16,16.28,16,16.34Z"/><path class="cls-2" d="M7.61,19.29c-.12-.08-.32,0-.55.24-.11-.16.28-.46.4-.69-.47.23-.13-.17-.35-.23a1.94,1.94,0,0,0-.47.55,1.34,1.34,0,0,0-.14.26s0,0-.06,0,0,0,0,0,0-.09,0-.1l.19,0a.16.16,0,0,0,.11.18,13.33,13.33,0,0,1,2.47-1.25,8.36,8.36,0,0,0,1.74-1c2.31-1.07,4.54-2.55,7.09-3.61l.21-.49c.11.05.26,0,.41-.06S19,13,19,13.1a1.09,1.09,0,0,0-.51.16,2.83,2.83,0,0,0,.56,0,.18.18,0,0,1,.14,0,.13.13,0,0,1,0,.17.85.85,0,0,1-.09.14l-.21.24a4.51,4.51,0,0,1-.87.79c.1,0,.39.17.26.35-.21-.35-.65.53-1.11.3-.62.34.2.29-.42.69.09.24.63-.34.85-.28-.07.29-.58.35-.4.52A9.83,9.83,0,0,0,19,14.56c.16-.19.31-.36.5-.61a1.25,1.25,0,0,0,.18-.3.5.5,0,0,0,0-.13.42.42,0,0,0,0-.2.58.58,0,0,0-.12-.33.62.62,0,0,0-.28-.21.7.7,0,0,0-.38,0,1.9,1.9,0,0,0-.44.19c-.46.25-.85.52-1.24.75l.07-.29a6.62,6.62,0,0,1-2.9,1.29c.25.11-1.25.54-.9.9a1.56,1.56,0,0,0-.63.18V16c-.41.21-.46,0-.93.23.41,0,.09.26,0,.49-.65.08-1.38.23-2,.31a.62.62,0,0,0,.36.08c-.37.1-.22.25-.28.36-.31.17-.4-.09-.45-.22-.62.22-.66.81-1.18.87l.25.12c-.59.34-1.21.37-1.85.71-.43-.14.45-.45.68-.7-.16,0-.46.12-.59.06-.11.13-.26.29-.41.44l-.09.1s0,0,0,0h0l0,.14a.81.81,0,0,1,0,.22c0,.09,0,.12,0,.16s0,0,0,0,.07,0,.09,0a.77.77,0,0,1,.19.08l.08.06.05,0v0s0,0,0,0c.08.17.14.21.3.11S7.51,19.36,7.61,19.29Z"/><path class="cls-2" d="M6.94,18.27a1,1,0,0,0,.15-.19.53.53,0,0,1-.21.12A.07.07,0,0,0,6.94,18.27Z"/><path class="cls-2" d="M7.61,19.29h0C7.69,19.24,7.67,19.25,7.61,19.29Z"/><path class="cls-2" d="M9.32,18.16l-.09,0-.12,0Z"/><path class="cls-2" d="M9.39,17A5.29,5.29,0,0,0,10,17C9.9,16.93,9.82,16.89,9.39,17Z"/><path class="cls-2" d="M13.56,15.14c.11-.1,0-.12.06-.23C13.36,15,13.31,15.15,13.56,15.14Z"/><path class="cls-2" d="M6.34,18.45a2.81,2.81,0,0,1,.08.53,1.1,1.1,0,0,1,0,.35c0,.09-.07.09,0,.08a.65.65,0,0,1,.27.12,3.09,3.09,0,0,1,.43.3l.06.05h0s0-.05,0-.07,0-.1.09-.16a1.05,1.05,0,0,0-.15.23h0l-.14-.11c-.1-.08-.22-.15-.31-.21a.51.51,0,0,0-.22-.11.14.14,0,0,0-.11,0A2,2,0,0,0,6.34,18.45Z"/><path class="cls-2" d="M15.28,12.34c-.55.12-1,.69-1.57,1-.83.79.23.53-.62,1.21l-.17-.53a9.49,9.49,0,0,0-2.61,2.42c-.11,0-.31.05-.13-.18-.57.45.15.82-.73,1.26.53-.8-.42-.07-.42-.48L9.12,17c-.47.4-1,1-1.34,1.25.07.12.47.07.06.41.19-.11.21.06.28.18.34-.46.64-.56.8-.91.36-.05-.13.17.23.13l.26-.41c.28-.16-.17.35.26.07,0-.11.26-.45.59-.68l0,.12c.2-.24.61-.43.31-.57H11l-.17-.12c.72-.44,1.26-.24,2-1.1-.25.11-.12-.12,0-.23-.45.16-.36.45-.7.73-.17-.12.28-.75-.21-.53.6-.15.85-.67,1.35-.42.57-.4.63-.75,1.27-1.08l0,.07c-.09-.34.55-.24.76-.83l-.34.18c-.07-.12.07-.24.25-.41,0,.06,0,.06.12.06-.09-.24.51-.76.54-.88-.28.18-.48.59-.75.88C15.17,12.63,15,12.51,15.28,12.34Z"/><path class="cls-2" d="M10.1,17.34l.11-.23A.38.38,0,0,0,10.1,17.34Z"/><path class="cls-2" d="M18,10.63c.36-.28.05.23.43,0,.22-.44-.62.12-.46-.37.3-.08.43-.58.53-.72,0,.25.29.37.4.35.05-.22.43-.38.62-.86-.16.28-.22.27-.23.26a.84.84,0,0,1,.05-.23.51.51,0,0,0,0-.37c0-.08,0,.14-.14.3a.42.42,0,0,1-.09-.19.19.19,0,0,0-.26-.14,1.78,1.78,0,0,1-.56.11c0-.13.19-.19.38-.24.1-.3-.53,0-.69-.16C17.37,9,15.5,10,16.31,10.22c.26,0,.36-.24.57-.38-.67.24-.15-.26-.14-.38.3-.06.68-.46.67-.22l-.32.4,1.11-.48A3.14,3.14,0,0,1,18.76,9c.23-.25-.2-.25-.19,0a12.37,12.37,0,0,1-1.81,2l.57-.5c0,.18-.22.43-.38.66l.53,0c-.19.13-.31.31-.39.2-.1.29.06.29.27.28-.4.43-.57.37-.76.85.94-.38.47-.71,1.48-1.25Z"/><polygon class="cls-2" points="16.5 12.16 16.56 11.87 16.34 12.16 16.5 12.16"/><path class="cls-2" d="M16.25,11.29c.06.05,0,.17,0,.23C16.67,11.28,16.55,11.22,16.25,11.29Z"/><path class="cls-2" d="M17.35,8.62,16.86,9l.37-.11C17.18,8.77,17.29,8.67,17.35,8.62Z"/><path class="cls-2" d="M14.33,11.46a5.59,5.59,0,0,1,1.73-1.05c.25-.43-.41-.3-.36-.59-.41.18-.16.51-.51.82-.26-.1-.56.38-1,.56A.2.2,0,0,1,14.33,11.46Z"/><path class="cls-2" d="M11.58,12.19c-.31.19-.53.53-.83.59,0-.13.12-.29.33-.37-.28-.19-.32.25-.76.28,0,0,.2,0,.14.1-.87.45-.33.5-1.5,1-.11.17-.26.26-.13.42a6.37,6.37,0,0,0-1.29.24c.09.08.48.16.6.38-1.22.34-1,.7-1.83.87a.85.85,0,0,1,.32-.24c-.27-.25-.53.39-.94.56l-.11-.28a3.12,3.12,0,0,1-1.36.82l0-.19A5.78,5.78,0,0,1,3,17.27l-.16.07,0,0h0a1,1,0,0,1,0,.26.2.2,0,0,1,0,.14s0,0,0,0h.08s.17.07.24.12,0,0,0,0l.08-.1.44-.5.47-.17c.74-.95-1,.7-.6-.21.46.33.34-.54,1-.81.38,0-.46.53,0,.49-.07-.31.22-.29.45-.59.11.26.61-.45.62-.08l.68-1.19A1.27,1.27,0,0,0,7,14.29c-.54.43-.1-.43-.78,0a38.51,38.51,0,0,1-3.35,2.93.33.33,0,0,1,0,.27l-.09.13c0,.07-.11.06-.08.25a.14.14,0,0,0,.17.07l.1,0a.59.59,0,0,0,.16-.07.31.31,0,0,0,.18-.21c.08.09.22.13.31.22.78-.5-.29-.08-.15-.3.33-.23.72-.2.75-.06.58-.3,0-.12.21-.46l.57.14a58,58,0,0,1,5.91-3.83l-.28-.12c1-.44,1.19-1.41,2.27-1.43l.15-.35c-.08.19.36.23.21.51.2-.22.51-.29.72-.51l-.51.17a.71.71,0,0,1,.82-.38c.54-.62-.63-.13-.88-.22-.7,1-1.19.19-2,.91C10.88,12.37,11.55,12.06,11.58,12.19Z"/><path class="cls-2" d="M13.1,12.07a.56.56,0,0,0,.1-.15C13.17,12,13.13,12,13.1,12.07Z"/><path class="cls-2" d="M7,14.29l.23-.21C7.25,14,7.15,14.11,7,14.29Z"/><polygon class="cls-2" points="14.23 11.21 14.23 11.2 14.22 11.21 14.23 11.21"/><polygon class="cls-2" points="14.36 10.4 14.11 10.55 14.21 10.62 14.36 10.4"/><path class="cls-2" d="M9.59,12.61l-.08-.11A.11.11,0,0,0,9.59,12.61Z"/><path class="cls-2" d="M16.14,7.37,16,7.48A.33.33,0,0,0,16.14,7.37Z"/><path class="cls-2" d="M4.09,12.44a6.74,6.74,0,0,0-1.24,1.19l0-.13c-.19.21-1,.83-.31.76l.08-.17c.53-.52.56-.07,1.08-.27.53-.4.58-1,1.14-1.22.2-.15.24,0,.23.11.51-.28.5-.72.81-1,.67.76,1.37-1.18,2.43-1.1a12.15,12.15,0,0,0,1.56-1.2c-.18.41.56-.33.59,0-.15-.6,1.82-.83,1.53-1.52.91-.32,0-.06,1-.49,0,.08-.11.17-.16.22.44-.09.39-.61.87-.51.77-.4,0-.25.36-.68.82-.4.65-.18,1.23-.17-.11-.35.44-.47.73-.85-.1,0-.67.29-.39,0,1-.47.61-.62,1.46-1.18.63.12-.88.47,0,.34-.47.45-.89.67-1,1.08.37-.2.77-.43,1.16-.68l.6-.36a2.19,2.19,0,0,1,.3-.16c.11,0,.21-.1.15,0s-.16.11-.15,0,0-.16-.1,0c-.66.51-.68,1.24-1.32,1.6l0-.25c-.15.5-1.23,1-1.78,1.65.15,0,.25,0,.2.14-.31-.39-.72,1-1.59,1.2.26.2-.25.85-.63,1.2-.19,0-.24-.09-.3-.15.77-.38.41-.78.82-1.31-.31.47-1.12.91-1.35,1.39V9.64c-.61.44-.16.86-.93,1.17l-.05-.2c-1.23,1-2.9,1.93-3.64,3.05,0,.19.73.07.83.14.51-.58.69-1.06,1.06-1.53l.18.23c0-.24.45-.76.05-.64.28-.42.44,0,.77-.5.15.26-.08.49.07.69l.28-.41c0,.18.28-.1.24.08.46-.83,1.05-.66,1.65-1.36l-.42.28c-.1-.13.13-.3.27-.48.34,0,.44-.09.87-.3.22-.36.21-.73.63-1.08.11.32.81-.44,1.06-.3-.11-.32.74-.76.68-1,.18-.24.5-.48.61-.35a2.22,2.22,0,0,1-.13.19l.23-.18s0,.06,0,.08c.21-.16.06-.34.41-.44.06.07-.08.19-.17.31.56-.42.59-1.16,1.21-1.35,0-.18.56-.78.19-.89a1.71,1.71,0,0,1,.32,0,.36.36,0,0,0,.19-.09.68.68,0,0,0,.12-.17.5.5,0,0,0,.05-.28c0-.25-.34-.39-.4-.36s-.25.14-.35.17a1.38,1.38,0,0,1-.27.08.86.86,0,0,0-.54.26c.41-.54-.05-.08.32-.57-.45.08-.8.7-1.42,1-.1,0-.14-.1-.23-.12-.18.22-.32.57-.65.49l.12.16a8.14,8.14,0,0,1-1.53.61l-.3.63A2.81,2.81,0,0,0,11.5,8.25c-.26.14-.66.31-.7.24A2.8,2.8,0,0,1,11,8.21c-.37.21-.93.3-1,.7-.32.31-.39,0-.69.11-.51.85-2.38,1.1-2.24,1.83.3-.19,1-.44,1.52-.83-.11.16.09.2-.12.35-.57.39-1,.37-1.53.83l-.16-.41C5.57,11,5.21,12.49,4.09,12.44Z"/><path class="cls-2" d="M11.59,7.77,11,7.84l.15.14A.65.65,0,0,1,11.59,7.77Z"/><path class="cls-2" d="M11.19,8a1.43,1.43,0,0,0-.2.23,1,1,0,0,0,.24-.2Z"/><path class="cls-2" d="M2.43,13.53a2.19,2.19,0,0,0-.47.23A.71.71,0,0,0,2.43,13.53Z"/><path class="cls-2" d="M2,13.9l.25,0V13.8Z"/><path class="cls-2" d="M11.3,3.63l.35-.76c.21,0,.65-.78.64-.42a1.19,1.19,0,0,1,.12-.39l.07-.16s0,0,0,0h0l.12,0,.14,0c.26,0,.09,0,.1.09s0,.43,0,.36,0,0,0,.08,0,.08,0,0a.67.67,0,0,1,0-.23c0-.19,0-.24.05-.32s0,0,0,0H12.8a.26.26,0,0,1-.15,0l-.26-.06c-.26-.07-.11-.07-.16-.05a2.17,2.17,0,0,1-.15.26c-.16.22-.37.46-.59.71-.45.48-1,1-1.45,1.49A34.43,34.43,0,0,0,7.13,7.42L7.32,7c-.76,1.25-1.67,1.07-2,2.38L5.18,9c-.53.38-.51,1.25-1.27,1.46l.15.06c-.12.12-.22.13-.35.25h.1a2.2,2.2,0,0,1-.85.91c-.11-.06.12-.2.2-.32-.24.07-.32.51-.57.77S2.47,12,2.46,12a10.33,10.33,0,0,1-.88,1,1.83,1.83,0,0,0-.31.51A1.07,1.07,0,0,0,1.2,14a.49.49,0,0,0,.25.35.39.39,0,0,0,.28,0A.46.46,0,0,0,2,14.3c0-.12-.35-.09,0-.26-.17,0-.44,0-.3-.15s.15-.29.22-.43.31-.58.46-.88l-.12.14c0-.75.36-.22.77-1,0,.31-.25.57-.26.76,1-.43.73-1.22,1.55-1.31l0,.06c.14-.06.25-.31.37-.5-.1,0-.27.13-.41.2a.77.77,0,0,0,0-.56c.35,0,.16-.32.52-.51.26.06-.09.37-.11.56L4.88,10c.3-.32.47-.13.71-.2.14-.37-.24.07-.19-.31A8.05,8.05,0,0,0,7.83,7.11c-.21.25.08.24-.23.49.14-.06.42-.5.31-.62A5.1,5.1,0,0,1,9.49,5.59H9.24c.17-.56,1.08-.76,1.6-1.52h0c.18-.24.06-.7.48-1C11.35,3.31,11.14,3.51,11.3,3.63Z"/><path class="cls-2" d="M12.6,2.53l.15-.3c-.27,0-.51.48-.38.58.16-.13.42-.12.39-.24S12.71,2.45,12.6,2.53Z"/><path class="cls-2" d="M7.35,5.44c-.08.1,0,.16,0,.25a18.36,18.36,0,0,1,3-1.63c.41-.15.3-.49.73-.83l.33.1c.19-.28,1.07-.43.62-.65,0,0-.13.28-.38.33l0-.14-.48.31L11.2,3c-.8.17-.24.7-1.16,1L9.88,3.7a4.19,4.19,0,0,1-1.4.67s.08.15.14,0,.29,0,.28.13c-.73.72,0-.25-.63,0A5.43,5.43,0,0,1,5.76,6c.45,0,0,.47-.46.65-.25,0,.07-.24.09-.37a2.07,2.07,0,0,0-.61.19c.34.06.28.37-.23.68C5.83,6.92,6.33,5.94,7.35,5.44Z"/><path class="cls-2" d="M7.19,5.85c.1-.07.13-.12.14-.16l-.4.22Z"/></g></g></svg>