<svg xmlns="http://www.w3.org/2000/svg" viewBox="0 0 570.74 235.28"><defs><style>.cls-1{fill:#ac4e66;}</style></defs><g id="レイヤー_2" data-name="レイヤー 2"><g id="レイヤー_1-2" data-name="レイヤー 1"><path class="cls-1" d="M329.17,201.64c-1.9-.16-1.24.1-1.53.11C330.84,202,329.09,201.58,329.17,201.64Z"/><polygon class="cls-1" points="360.45 201.94 359.9 202.03 364.5 201.75 360.45 201.94"/><path class="cls-1" d="M389.64,200.71a69.72,69.72,0,0,0-7,.33c-2.95.2-6.2.46-8.8.48l-.86-.05-2.34.38C377,201.63,385.19,200.93,389.64,200.71Z"/><path class="cls-1" d="M405.24,200.09c-1-.05,3.35-.47-3.62.33l.66,0Z"/><path class="cls-1" d="M402.28,200.39c-3.07.3,2-.07,0,0Z"/><path class="cls-1" d="M416.41,198.68l-4,.63c.85,0,4.44-.45,3.11-.23C419.64,198.49,418.77,198.51,416.41,198.68Z"/><path class="cls-1" d="M420.19,197.9l-2.08.35A11.78,11.78,0,0,0,420.19,197.9Z"/><path class="cls-1" d="M413.7,198.92l4.41-.67a5.48,5.48,0,0,0-2,.3C416.43,198.41,415.57,198.61,413.7,198.92Z"/><path class="cls-1" d="M411.19,199.18c-2.27.21-5.2.45-1.17-.1C402.31,200,403.48,200.11,411.19,199.18Z"/><path class="cls-1" d="M391.1,200.22l-3,.13-2.61.28C386.76,200.51,391.3,200.33,391.1,200.22Z"/><path class="cls-1" d="M441.42,194.86c.23-.12-1.38.06-1.7,0l-2.93.62C438.31,195.26,441.2,194.81,441.42,194.86Z"/><path class="cls-1" d="M439.72,194.87c1.47-.29,2.92-.66,4.38-1C440.17,194.67,439.46,194.83,439.72,194.87Z"/><path class="cls-1" d="M420.85,197.41q-3.63.68-7.26,1.24c2.89-.43,5.78-.93,8.66-1.44Z"/><path class="cls-1" d="M458.19,191.27c-.81.27-1.62.52-2.44.75,1.46-.4,2.9-.87,4.35-1.31Z"/><path class="cls-1" d="M469.21,188.42c-1.78.64,2.56-.43.66.17,3-.81,5.49-1.68,7.73-2.48-1.2.39-2.45.78-3.82,1.17S470.91,188,469.21,188.42Z"/><path class="cls-1" d="M481.38,184.81l-3.78,1.3C478.88,185.7,480.13,185.27,481.38,184.81Z"/><path class="cls-1" d="M451.59,192.36a25.64,25.64,0,0,0,3.5-.56l-1.77.18Z"/><path class="cls-1" d="M453.25,192h.07l3.72-.82Z"/><path class="cls-1" d="M451.16,192.45l.43-.09A1.27,1.27,0,0,0,451.16,192.45Z"/><path class="cls-1" d="M432.49,195.81c2.58-.57,7.95-1.67,2.69-.91C433.35,195.37,436.36,195,432.49,195.81Z"/><path class="cls-1" d="M449,192.67l-4.68.89c.11,0,1-.05-.3.27Z"/><polygon class="cls-1" points="451.22 192.09 448.96 192.67 450.69 192.3 451.22 192.09"/><path class="cls-1" d="M473.49,187c1.95-.68,4.11-1.33,6.54-2.07l-7.91,2.26C471.78,187.31,470.67,187.74,473.49,187Z"/><path class="cls-1" d="M463.69,189.53l.44-.13C463.85,189.45,463.63,189.5,463.69,189.53Z"/><path class="cls-1" d="M503.67,176.57l-.39.11-.08.07Z"/><path class="cls-1" d="M471.67,187.23c-2,.5-3.16.87-4.27,1.23l4.72-1.31C472.28,187.07,472.3,187.05,471.67,187.23Z"/><path class="cls-1" d="M488,182.55l-3.41,1C485.6,183.28,487.66,182.72,488,182.55Z"/><path class="cls-1" d="M464.81,189.3l-.29.08C465.18,189.26,465.09,189.26,464.81,189.3Z"/><path class="cls-1" d="M464.81,189.3c1-.3,1.8-.57,2.59-.84l-3.27.94Z"/><path class="cls-1" d="M510.14,172.4a53.11,53.11,0,0,1-9.53,4.08c-4.2,1.8-1.19,1.32,2.67.2.09-.15.09-.15,4.39-2.08-1.54.61-9.81,3.6-6.17,2,5.77-2.35,4.77-1.83,7.6-2.91-2.46.79,7.15-3.44,5.73-3.27-1.62.82-3.3,1.52-5,2.29C509.77,172.71,511.55,171.85,510.14,172.4Z"/><path class="cls-1" d="M494.87,179.85l-1.81.68c2.08-.73,3.62-1.13,6.39-2.05a28,28,0,0,0,3.75-1.73c-3,1.16-5.93,2.32-8.94,3.35Z"/><path class="cls-1" d="M484.81,183.33c1.38-.68,5.77-2.21,3-1.54-5.4,1.77-3.73,1.42-6.94,2.54,8.72-2.88-2.46.94,3.88-1-1.71.59-3.24,1.13-4.71,1.56,1.6-.43,3.11-.93,4.56-1.35l-.21.05,0,0h0c-.38.1-.51.12-.08,0l.18-.06a1.75,1.75,0,0,1,.37-.21c2.54-.78.41-.08-.37.21l-.1.06h0c2.91-1,5.81-2,8.68-3.06l-3.27,1.15Z"/><path class="cls-1" d="M439.92,193.58c.28,0,.27,0,.29,0C440.79,193.44,441,193.38,439.92,193.58Z"/><path class="cls-1" d="M443.64,193c-.65.16-1.17.36-3.31.76-1.86.27,0-.1-.12-.16-1.27.29-4.47,1-.42.34l.64-.14c3.63-.65,8.34-1.32,7.71-1.17A43.64,43.64,0,0,0,443.64,193Z"/><path class="cls-1" d="M464.6,188.66l7.35-2.09-3.8.84.22.05C464.16,188.56,465.1,188.45,464.6,188.66Z"/><path class="cls-1" d="M504.52,176.35l-.86.59c1.34-.64,2.67-1.27,4-2Q506.1,175.71,504.52,176.35Z"/><path class="cls-1" d="M513.69,172.46l-.26.32c.8-.37,1.57-.78,2.36-1.19C515.09,171.88,514.4,172.19,513.69,172.46Z"/><path class="cls-1" d="M129.36,8.77c-.73.13-1.46.3-2.19.45Z"/><path class="cls-1" d="M145.36,6.31l.38-.15C145,6.31,144.7,6.39,145.36,6.31Z"/><path class="cls-1" d="M442.56,29.83c-3.1-1-6.57-2.25-6.24-1.93l.91.46C439.46,28.9,441.14,29.4,442.56,29.83Z"/><path class="cls-1" d="M278,3.27l.95.14,2.22,0Z"/><path class="cls-1" d="M275.61,4l-4.28-.45C272.29,3.65,273.67,3.79,275.61,4Z"/><path class="cls-1" d="M46.8,38.11,44.74,39.7C48.14,37.5,46.58,38.37,46.8,38.11Z"/><path class="cls-1" d="M565.08,98.17c-.72-1.25-1.38-2.37-2.06-3.34s-1.3-1.85-1.9-2.65C563.17,95,564.44,97.48,565.08,98.17Z"/><path class="cls-1" d="M135.28,5.43a8.55,8.55,0,0,0-1.88.45C134.79,5.61,135.58,5.44,135.28,5.43Z"/><path class="cls-1" d="M555.67,85.94c.33.38.68.73,1,1.12a61.35,61.35,0,0,1,4.44,5.12c-.73-1.07-1.62-2.11-2.51-3.2A40.15,40.15,0,0,0,555.67,85.94Z"/><path class="cls-1" d="M183.65,226.59l.71.13A2.93,2.93,0,0,0,183.65,226.59Z"/><path class="cls-1" d="M276.84,235l-3.85,0C273.68,235.08,274.85,235.07,276.84,235Z"/><path class="cls-1" d="M548.63,152.73c-1.69,1.29-.25.22,0,0Z"/><path class="cls-1" d="M539.68,157.91a3.2,3.2,0,0,0,.65-.55A4.27,4.27,0,0,1,539.68,157.91Z"/><path class="cls-1" d="M538.72,73.38l-.15-.1C539.05,73.68,539,73.61,538.72,73.38Z"/><path class="cls-1" d="M546,154.56c.66-.44,1.4-1,2.22-1.57Z"/><path class="cls-1" d="M546.42,154.4l-1.54,1C544.68,155.63,544.89,155.52,546.42,154.4Z"/><path class="cls-1" d="M551,150.88c-.94.79-1.84,1.47-2.73,2.11.34-.24.49-.34.4-.26C549.13,152.35,549.84,151.82,551,150.88Z"/><path class="cls-1" d="M28,160.75l.3.33C29.82,162.52,29.16,161.87,28,160.75Z"/><path class="cls-1" d="M388.73,19.6l.24,0-.31-.07Z"/><path class="cls-1" d="M381.29,18.32a54.88,54.88,0,0,1,7.37,1.25l-2.32-1.1Z"/><path class="cls-1" d="M91.75,17.84c1.69-.47,3.39-.93,5.11-1.33-3,1-5.6,1.94-6.86,2.36s-1.16.46,1.24-.15a13.09,13.09,0,0,1,3.27-1.36c1.88-.59,4.34-1.3,6.8-2l6.86-1.83a13,13,0,0,0,3.36-1.11l3.43-.65c-1,.21-1.13.3-2.09.51a40,40,0,0,0,6-1.42c.71-.23,1.49-.48,2.63-.77s2.63-.6,4.79-1c3-.53,5.11-.75,3.08-.33L136,7.47c2-.27,1.5-.09-.45.2,3.42-.52,6.82-1.1,10.24-1.54l-.07,0c1.45-.29,4.74-.92,6.37-1.15,2.62-.2-1.31.22-.63.23l5.68-.82c2.34-.08-2.36.62-6.3,1,5.4.1,4.7-.79,16.25-1.44-1.8.16-3.59.39-5.38.58,3.5,0,7.7-.47,13.82-.66-1.46-.08-12.26.37-6.07-.32,1.75-.09,4.05-.26,7.4-.6,0,.25,3.31-.07,7.4-.28l-.26.34c4.42-.33,4.07-.48,6.67-.72,4.94-.16,6,0,7.14.23,7.92-.15-5.47-.26,3.89-.56,6.59,0,11.21-.2,19.09-.37,4.62.16-.8.19.85.3l4.09-.21c1,0,.68.09.51.13,3.45-.06.29-.33,5.71-.3,1.47-.34,11.1.78,17.81.7,1.65.17-.8.17-.3.31l15.44.3,6.41.64c-4.7-.56,1.35-.45,6.64-.26-1.66-.25-3.08-.47-4-.58l8.44.49c1,.14.16.18-1.23.2l1.55.05c3,.38,1.42.42-.75.42l-3-.44c-2.09,0-4.06.09-3.64.31.55,0,1.61.06,2.77.13-.55,0-.9,0-.65.08S278.57,4,280,4l1.88.51.48-.1c3.66.39,7.32.78,11,1.21,7.9.4,14.8.6,27.29,2-3.13-.12-.72.34-.93.63-3.36-.75-9.66-1-16.12-1.8,3.37.39,2.61.46,1.75.42,3.85.34,7.7.66,11.55,1-.29.22,2.42.48,5.42,1-2.21-.8,8.61.77,13.31,1.29.26.21-.88.22-6.58-.6,6.24,1.23,8.22.53,14.34,1.76a23.85,23.85,0,0,0-2.7-.33c3.28.31,11.19,1.67,9.3,1.52l-1.39-.21,17.66,2.86c6,1,11.08,1.81,11.8,1.73a6.13,6.13,0,0,1-1.86.26c5.54.53,11.08,1.13,16.63,1.75-1.51.08,3.84,2-3.79.72,2.17.48,4.85,1.08,9.46,1.91-1.47-.36-3.59-1.28-1.56-.9,5.49,1.57,3.83,1,10.6,2.85-2.2-.57.39-.58,3.89.21-.57,0,.17.62-1.13.39,2.95.48,5.9.95,8.84,1.46-2.19-.41-.49.38,1.41,1-.87-.33,7.51,1.82,9.83,2.37l-3.64-1c4.88,1.26,7.34,1.69,9.79,2.13a83.39,83.39,0,0,1,9.72,2.24c-1.2-.22-3.07-.13,1.8,1.33a130.07,130.07,0,0,1,18.81,4.19l1.55.71c2.17.68,4.33,1.37,6.49,2.1L464.66,38c-4.19-1.07-8.67-2.12-11.82-2.88,3.57,1.23,1,.47,6.34,2.15,1.86.74-3-.72-4.59-1.18q6.27,2,12.46,4.14c-.43-.56,9.58,3,9.2,2.62-4.5-1.55-9-3-13.59-4.38-.45-.5,8.16,1.64,16.87,5,2.17,1-1.87-.07-1.73.11,1.18.28,8.32,3,9.08,3.4l-3.74-1.3c4.77,2,8,2.75,13.6,5.55,2,.88,5.67,3,6.08,3-3-1.83-3.16-3.17-.9-2.47.34.18,2.88,1.43,5.57,2.88s5.54,3,6.58,3.69c3,1.89-5.06-1.8-2.49-.19a23.91,23.91,0,0,1,2.69,1.12c2,1.12-.95-.21,3.39,2.08.9.06,8.69,4.9,2.17.86,2.12,1.12,3.22,1.78,4.39,2.5l4.84,3c-1.41-1.14,4.72,2,8.72,4.73-.28-.09.55.62.94,1a118.83,118.83,0,0,1,9.71,7.74,104.87,104.87,0,0,1,8.45,8.38c.53.66,3.25,4.14,1.94,2.78.45.48.85,1,1.38,1.59a29.39,29.39,0,0,1,1.95,2.59c.71,1.16.79,1.45.64,1.23s-.61-.91-1.12-1.61c-1-1.43-2.19-2.87-1.06-1.13a6.32,6.32,0,0,1,.87,1,28,28,0,0,1,1.68,2.39c.65.93,1.25,2,1.86,3.08s1.12,2.13,1.51,3a21.25,21.25,0,0,0-2.37-5.07,52,52,0,0,0-4.49-6.25c.15-.13,1.43,1.08,3.25,3.44a38.07,38.07,0,0,1,5.66,10.6c.16.47.29.88.42,1.26s.17.73.25,1c.14.61.25,1.07.32,1.41a2.81,2.81,0,0,1,.06,1c-.07,0-.27-.68-.13,0a22.57,22.57,0,0,1,.32,2.52,21.69,21.69,0,0,1,.13,2.19c0,.68,0,1.31,0,1.89s-.07,1.13-.1,1.64a35.11,35.11,0,0,1-.67,4.88c-.07.35-.13.69-.21,1l-.3,1a20.48,20.48,0,0,1-.76,2.24,25.43,25.43,0,0,1-1.24,2.71l-.87,1.62-1.15,1.78a9.3,9.3,0,0,1-1.32,1.62c-.21.17-.21.06-.14-.14.13-.41.54-1.18.16-.81.43-.64.79-1.29,1.16-1.88s.71-1.15,1-1.71.59-1.08.86-1.59.48-1,.71-1.51a28.87,28.87,0,0,0,2-5.82c-.25.84-.45,1.69-.73,2.51s-.59,1.64-.93,2.44c.18-.46.34-1.08.56-1.75.11-.33.22-.69.33-1l.27-1.13a20.14,20.14,0,0,0,.49-2.27c.11-.73.29-1.4.33-2a44.92,44.92,0,0,1-1.24,5.5,38.57,38.57,0,0,1-3.92,8.45,59.3,59.3,0,0,1-13.64,14.89c-1.43,1.35-4.1,3.45-2.75,2.57.94-.7,1.82-1.46,2.72-2.21,1.31-.94.09.16-1,1.16s-2.2,1.81-.39.52a90.49,90.49,0,0,1-13.65,9.54l-1.22.37a44,44,0,0,0,5.34-3.15c-1.11.83-3.37,2-5.61,3.29s-4.56,2.47-5.82,3.32c1.42-.63,2.79-1.36,4.18-2.05a125.37,125.37,0,0,1-14.5,7.84c2.57-.84,1.22-.59,5.14-2.11-1.73.59,1.68-1,4.76-2.67s5.89-3.24,3.24-2a47.6,47.6,0,0,0,5.38-2.76c1.77-1,3.63-2.16,6.1-3.54-.1,0-.55.23-.44.13s.76-.54,2.81-1.94c.17-.16.58-.49.85-.7l.28-.19-.24.15-.08.06c-1,.64-1.82,1.14-2.17,1.31.47-.4,1.23-1,2.14-1.65l3-2.29c2-1.64,4.06-3.34,5-4.3,2.23-1.94-.84.91.43-.09l1.42-1.4,1.36-1.47a7.44,7.44,0,0,0,1-.8c.49-.43,1-1,1.4-1.33.76-.73.93-.74-1.43,1.85a61,61,0,0,0,4.19-4.73c.63-.69,1.24-1.52,1.87-2.37a28.07,28.07,0,0,0,1.81-2.69,31,31,0,0,0,2.64-5.24c1.3-2.78,2-7.41,1.53-4.79a30.87,30.87,0,0,0,.76-10l0-.1a29.72,29.72,0,0,0-1.48-7.4,40.29,40.29,0,0,0-3.09-7.09,76.3,76.3,0,0,0-9.42-13.09c-2.3-2.33-4.74-4.66-8.87-8.23l-.69-.83c-1.65-1.3-4.08-3.29-6.37-5a56.12,56.12,0,0,0-5.18-3.56,86.48,86.48,0,0,0-10.67-6.95c-4.7-2.71-9.84-5.33-13.09-7l-.36.1c-4.49-2.27-8.89-4.29-14.65-6.71l.26.36c-5-2-12.67-5.58-20.67-8.5a40.13,40.13,0,0,1,4,1.49c-9.33-4.12-20.34-6.87-29.07-9.79-2.23-.58-3.82-1.05-5.36-1.54l.55.14-.9-.26-3.05-1,2.56.83c-1.71-.47-4.31-1.16-6.86-1.78l-1-.52-.59-.15c-2.47-.74-2-.42-.75.11-1.29-.3-2.48-.56-3.4-.73-1.94-.91-6.73-1.56-9.41-2.64-1.77-.23-12.92-2.89-14.39-2.74-.07-.07-.82-.26.56,0-2.85-.69-5.7-1.35-8.3-1.78l-1.15-.56-6.36-.9c-3.77-1-5.33-1.36-1.5-.84-9.22-1.46-7.45-1.34-15.31-2.44l.42-.13c-2.79-.51-7.3-1-9-1.5-3.09-.74-10.82-2.08-19.8-3.47S329.08,7.8,321,6.61c3.06,1-7.48-1.19-8.18-.8-.93-.24-3.17-.58-.54-.39-8.27-.83-12.39-1.6-18.14-1.78-.93-.23,1.79,0,1-.19-.67,0-2.64-.14-3.49-.3s1.22,0,2.53.07c-8.45-.79-9.35-.4-10-.07a61.86,61.86,0,0,0-9.52-.67c-1.49-.23-4-.56,1.29-.22C273,2,257.87.83,257.55,1.19c-.92-.13-4.14-.24-4.92-.25C246,.63,245.39.55,238.86.38l1.81.11c-2.59.3-5.43-.09-10.7-.15l.15,0c-6-.26-7.35-.2-8.63-.2S218.94.15,213,0l.65.24c-1.1.49-10.56-.21-17.48.2l2.5.08c-3.77.27-10.58-.35-14.38-.19A13.48,13.48,0,0,1,186.72.1c-9.95.23-1.27.34-8.66.88-1.38-.08,1.73-.55-3.25-.25-1.25,0-4.85.44-9,.89s-8.8,1-12.2,1.28c1.51,0,3-.08-.41.41l-9.65,1a81.58,81.58,0,0,0-9.21,1.49,3.48,3.48,0,0,1-1,0c-4,.74-12.88,2.47-15.2,3.25-1.91,0-8,1.38-13.61,2.95l-4,1.13-3.4,1c-2,.56-3.26.86-3.29.67L88,16.76c-2,.65-3.92,1.35-5.88,2l.28-.18c-1.89.61-3.43,1.26-4.76,1.76s-2.43.94-3.36,1.36c-1.87.84-3.13,1.46-4.39,2.08-1.71.66-.5.08-.38,0-2.68,1.12-4.73,2.06-6.46,2.82s-3.08,1.51-4.4,2.18-2.55,1.39-4,2.22-3.08,1.79-5.11,3.14l-1,.3c-1.1.72-4.75,2.81-9.13,5.81A96.73,96.73,0,0,0,25.83,51.2a6.9,6.9,0,0,1,.84-.94,115.72,115.72,0,0,0-14,15.46c-4,5.43-6.57,10.59-7.06,13-.59,1.3-1,2.64-1.51,4s-.88,2.7-1.26,4.07c3.63-10.36-.23,1.64,1.38-2.58-1.4,4-3.09,10.67-2,5.5l.24-.79c0-.51-.21.07-.53,1.21-.15.57-.34,1.28-.54,2.07S1.15,93.81,1,94.7C.34,98.28.19,102.12.06,102a69.13,69.13,0,0,0,6.35,31.19,92.45,92.45,0,0,0,7.73,13.59c1.43,2.16,3,4.19,4.57,6.22s3.24,3.95,5,5.78l-1.3-2c1.6,1.72,3.12,3.51,4.8,5.15,1.26,1.36,1.54,2-2-1.63A41.23,41.23,0,0,0,28.91,164a32,32,0,0,0,2.6,2.13c1.77,1.71,2.48,2.39,2.57,2.52s-.49-.27-1.18-.86c-1.39-1.17-3.4-2.94-2.3-1.91s2,1.87,3,2.76L33,168c1.29,1.05,2,1.57,3,2.34.49.38,1,.83,1.75,1.42L40.56,174c2.94,2.45,1.41,1.39,2.59,2.32,0,0,.08.09.36.31s.75.55,1.48,1.08l1.78,1.34,1.81,1.27c1.22.85,2.41,1.72,3.65,2.54-.94-.73-1.84-1.51-2.76-2.25.82.53,1.66,1.09,2.41,1.6l1.88,1.2c.92.57,1,.58-.62-.67a139.72,139.72,0,0,0,16.33,10.14c7,3.84,14,7,15.63,7.82l7.73,3.2c2.67,1.07,5.47,2.24,8.6,3.45-1.54-.64-2.36-1.29,3,.78-2.23-.09,9.83,4,14.18,5.75-1.93-.82,2,.51,5.64,1.55s7.06,2,4,.86c4.62,1.4.21.33,3.69,1.48,11.14,2.87,24.52,6.47,38.53,8.93.24,0-2.08-.62.94-.18l7.32,1.69c2.78.43,2.64-.1,7.66,1-.71-.18-1.76-.45.11-.2,13.73,2.24,27.9,3.66,42.14,4.57s28.55,1.34,42.69,1.72c-3.83-.18-1.28-.16,1.64-.21-1.9,0,0-.21-.33-.33,3.94.06,7.89.2,11.83.18,1.08-.19,4.24-.28,7.3-.36a57.43,57.43,0,0,0,6.6-.42l-3.74.21c2.48-.29.73-.42-1.54-.55s-5.09-.32-4.73-.57a90.9,90.9,0,0,1-10.57.13c-2.06-.05-4.22-.09-6.45-.08s-4.5,0-6.79.15c-2-.11,1.72-.14.65-.26a80.49,80.49,0,0,1-10.29,0l.58,0c-7.27-.11-12.46-.42-17.87-.72l-8.57-.61-10.6-.91,1.18.33c-3.49-.32-4.22-.5-5.85-.7-2,0,.43.22,2.93.47s5.05.43,3.2.5c-1.15-.2-3.27-.47-5.84-.74s-5.61-.55-8.59-.91a116.21,116.21,0,0,1-13.25-1.93c-5.35-.71,1.53.51-3.82-.25L187,227.3h-1.38c-3.49-.56-5.23-1-5.34-1.16.85.15,2.42.33,3.33.46-2.26-.41-5.45-.94-8.27-1.39l-3.79-.6c-1.06-.19-1.86-.34-2.25-.43,1.69.37,3.39.69,5.09,1-14.56-2.31-32.05-6.55-45.78-10.28l1,.41c-5.24-1.47-7.32-2.09-9.5-2.87L110,209l.42.12c-2.3-.66-5.3-1.74-8.35-2.91,1.43.47.13-.08-1.06-.6s-2.25-1-.4-.37c-11-4.22-5.46-2-12.78-4.71-.53-.29-1-.6-1.56-.91-1.24-.48-1.91-.73-3-1.16s-2.48-1-5.15-2.36c4.45,2-3.28-1.95,1.71.3l-7.3-3.84c-2.14-1.12-4-2.07-5.67-3a57.29,57.29,0,0,1-8.18-5c-2.57-1.3-.32.2,2.25,1.77s5.5,3.19,4.07,2.46c1.12.74,0,.24-1.74-.7s-4.21-2.42-5.86-3.48C54.13,182.34,52,180.45,44,174.44l1.67,1.2c-.73-.58-1.47-1.14-2.22-1.7l-2.25-1.74c-.77-.59-1.56-1.2-2.37-1.86s-1.6-1.41-2.43-2.2c-2.2-1.41-4.39-4-5.23-4.22l3.4,3.09,3.52,3c-2-1.66-4-3.19-6.24-5.15-1.13-1-2.28-2-3.52-3.28-.62-.62-1.28-1.26-1.94-2l-2-2.29c.53.43,2.29,2.29,3.6,3.46l-2.53-2.68a36.21,36.21,0,0,1-2.5-2.8,64.35,64.35,0,0,1,4.6,4.67c1.22,1.19,2.49,2.53,3.8,3.72s2.57,2.33,3.65,3.2c-.94-1-2.91-2.7-4.36-4s-2.29-2.24-1.16-1.4c-3.27-2.42-6.78-7.12-11.2-12.23l.46.21c-.33-.41-.88-1-1.45-1.77s-1.18-1.59-1.74-2.39c.77.91,1.51,1.83,2.29,2.73-3.43-4.26-5.69-8.84-8.15-13.41l.81,1.63.69,1.25c.39.72.66,1.24.86,1.59.37.73.39.85.3.79s-.78-.86.36,1.16a52.11,52.11,0,0,1-3.49-6.25,27.74,27.74,0,0,1-1.39-3.43c-.34-1-.71-2.08-1.28-3.78-.27-.85-.61-1.86-1-3.09s-.82-2.74-1.32-4.55c.25,1,.79,2.81,1.09,4s.49,1.8-.1.32c-.36-1.39-.85-3-1.17-4.47s-.57-2.85-.67-3.72c-.84-4.89-.76-4.52-.72-3.42s.31,2.9-.1.81c-.17-3.39-.72-4.84-.89-9.24l.24,0c.06-1.41.1-2.52.14-3.4s.12-1.52.15-2a9.37,9.37,0,0,0,0-1.63,4.62,4.62,0,0,1,0-1.42c0-.42.14-1,.27-1.74.07-.38.14-.81.23-1.31s.26-1,.42-1.67c-.27,1.42-.37,2.88-.5,4.31L3,92.7l.57-2.61v1.13A46.12,46.12,0,0,1,7.85,78.69c-.66,1.15-.2-.92,2.24-5.37C12,70.44,9.25,75.06,13,69c-.42.7-.74,1.49-1.26,2.39s-1.19,1.91-2,3.25c-.08.32-.62,1.47-.7,1.8a112.29,112.29,0,0,1,6.25-10.08c-.58.81-1.27,1.78-1.64,2.26.94-1.45,1.85-2.92,2.91-4.29l1.53-2.11,1.63-2c1.15-1.18.35-.15-.44.87l1.88-2.29c.65-.78,1.44-1.6,2.5-2.74a7.29,7.29,0,0,1-.6,1c-.33.51-1.07,1.26-2.44,3,1-1.29,2.18-2.47,3.28-3.69s2.3-2.37,3.47-3.53c.5-.44,4-3.21,3-2.31,1.07-.86,2.18-1.9,3.45-2.94l4-3.27L42.31,41c1.54-1.05,3.12-2.05,4.66-3a21.36,21.36,0,0,1,2.25-1.49c5.91-3.51,11.42-6.11,18.75-9.68,1.44-.55,2.91-1,4.38-1.5,5.88-2.51-6,2,3.83-2.19,7-2.77,2.74-.71,5.25-1.55,1.73-.72,4.11-1.68,6.9-2.7A97.83,97.83,0,0,1,97.71,16c-1.09.35-2.08.63-3,.91ZM169.32,3.63c-1.52.17-4.55.58-5.68.56A26.43,26.43,0,0,1,169.32,3.63ZM289.56,4.72a46.91,46.91,0,0,1-4.87-.48C286.13,4.35,287.76,4.5,289.56,4.72Zm275.2,131.1.08-.15C566.77,132.72,566.08,133.76,564.76,135.82Zm-4.45,5.74c-.46.56-.4.54-.17.34.31-.39,1.31-1.69,2.49-3.12C562.27,139.15,561.65,139.85,560.31,141.56ZM43.84,176.73l-1.08-.89C45.32,177.67,44.58,177.19,43.84,176.73Z"/><path class="cls-1" d="M275.93,3.9a1.94,1.94,0,0,1-.65-.18C274.68,3.72,274.66,3.76,275.93,3.9Z"/><path class="cls-1" d="M47.18,37.81l-.21.13a.64.64,0,0,0-.17.17Z"/><path class="cls-1" d="M514,59.54c-1.28-.7-2-1.12-2.44-1.4A12,12,0,0,0,514,59.54Z"/><path class="cls-1" d="M530.16,164.62l4-2.29c-1.94,1.09-2.66,1.43-3.66,1.95C530.61,164.28,531.42,163.92,530.16,164.62Z"/><path class="cls-1" d="M493.26,179.21l-1.94.73.21,0C494.2,179,496,178.26,493.26,179.21Z"/><path class="cls-1" d="M526,165.89a57.71,57.71,0,0,0-5.8,2.78l.51-.25C520,169.08,523.06,167.54,526,165.89Z"/><path class="cls-1" d="M519.57,169c-.89.43-1.8.85-2.68,1.25A14.87,14.87,0,0,0,519.57,169Z"/><path class="cls-1" d="M553.94,148.15c-1.18,1-.55.84-1.26,1.35-.56.66,1.32-1.09,2.53-2.32a5,5,0,0,0,.95-1.08,5.87,5.87,0,0,0-.55.52Z"/><path class="cls-1" d="M523.42,166.47l1.14-.28,1.5-1C525.18,165.61,524.31,166.06,523.42,166.47Z"/><path class="cls-1" d="M545.21,153.8c-1.42.94-2.8,1.94-4.26,2.82a5.58,5.58,0,0,1-1.1.82l2-1.27,1.74-1.19A14.38,14.38,0,0,0,545.21,153.8Z"/><path class="cls-1" d="M539.85,157.44c-1.37.89-2.7,1.71-3.47,2.2l1.62-1Z"/><path class="cls-1" d="M529.57,163.18l1.35-.69c1-.58,2.11-1.14,3.14-1.75C532.58,161.58,531.07,162.37,529.57,163.18Z"/><path class="cls-1" d="M568.42,108a38.26,38.26,0,0,0-2.06-5.2c-.33-.47.32.9,1.08,2.83C568,106.85,568.59,108.84,568.42,108Z"/><path class="cls-1" d="M568.09,124.56c.43-1.43.5-1.51.72-2.33l-.28-.22A20.29,20.29,0,0,1,568.09,124.56Z"/><path class="cls-1" d="M567.87,108.77c-.16-.54-2.87-7.4-.52-.89a8.6,8.6,0,0,1,.38,1l.41,1.43C568.36,111.12,568.43,111.23,567.87,108.77Z"/><polygon class="cls-1" points="506.73 54.92 508 55.54 508.05 54.99 506.73 54.92"/><path class="cls-1" d="M437,31c6.32,1.82,1.59.09,7.29,1.81,1.52.29-4.66-1.41-3.1-1.09C437.32,30.81,435.32,30.24,437,31Z"/><path class="cls-1" d="M441.19,31.74l2,.46Z"/><polygon class="cls-1" points="292.42 234.98 296.67 234.92 293.92 234.86 292.42 234.98"/><path class="cls-1" d="M300.55,234.27l1,.29,2.53-.4C303.15,234.21,301.29,234.32,300.55,234.27Z"/><path class="cls-1" d="M181.1,3.45l.31-.09a30.55,30.55,0,0,0-3.62.13Z"/><polygon class="cls-1" points="124.18 10.05 125.15 9.88 123.28 9.93 124.18 10.05"/><path class="cls-1" d="M78.09,23.23c1.83-.67,4-1.57,5.82-2.17C79.9,22.5,77.48,23.1,78.09,23.23Z"/></g></g></svg>