<?xml version="1.0" encoding="utf-8"?>
<!-- Generator: Adobe Illustrator 25.0.1, SVG Export Plug-In . SVG Version: 6.00 Build 0)  -->
<svg version="1.1" id="レイヤー_1" xmlns="http://www.w3.org/2000/svg" xmlns:xlink="http://www.w3.org/1999/xlink" x="0px"
	 y="0px" viewBox="0 0 4.4 73.3" style="enable-background:new 0 0 4.4 73.3;" xml:space="preserve">
<style type="text/css">
	.st0{fill:#C5B950;}
</style>
<g id="レイヤー_2_1_">
	<g id="レイヤー_1-2">
		<polygon class="st0" points="1.1,73.3 1.2,73.1 0.8,73 		"/>
		<path class="st0" d="M2.6,72.3L2.4,72c-1.2,0.2-0.8-0.1-1.7,0.4c0.3,0.3,0.6,0.5,1,0.6c0-0.1-0.5-0.4-0.3-0.5
			c0.3,0.1,0.3,0.3,0.7,0.4c0.4-0.3-0.3-0.2-0.1-0.6L2.6,72.3z"/>
		<path class="st0" d="M1.4,71.9C1.6,71.9,1.8,72,2,72C1.8,71.9,1.5,71.8,1.4,71.9z"/>
		<path class="st0" d="M1.3,71.7c0-0.2,0.4,0,0.5,0L1,71.4L1.3,71.7z"/>
		<path class="st0" d="M1.3,70.8c0,0,0-0.1-0.1-0.1C1.1,70.7,1.3,70.7,1.3,70.8z"/>
		<path class="st0" d="M1.3,70.3c-0.3,0.1-0.1,0.2,0,0.3l0,0c0.2-0.1,0.8,0,0.6,0.2c0.1,0.2-0.4,0.2-0.1,0.4L2.3,71
			C2.3,70.7,1.5,70.5,1.3,70.3z"/>
		<path class="st0" d="M1.3,70.8c0,0,0,0.1,0,0.1C1.5,70.8,1.4,70.8,1.3,70.8z"/>
		<polygon class="st0" points="1.3,71.2 1.4,71.3 1.6,71.3 		"/>
		<path class="st0" d="M1.2,69.6c0.7,0-0.1,0.5,0.5,0.6c0-0.3,0.5-0.5,0.9-0.4l-0.2-0.3C2,69.3,1.6,69.4,1.2,69.6z"/>
		<path class="st0" d="M3.1,69C3.1,69,3,69,3,69C3,69,3.1,69,3.1,69z"/>
		<path class="st0" d="M1.9,67.3l0.7,0.8c-0.2-0.1-0.5,0-0.6-0.2c-0.1,0.3,0.4,0.4,0.3,0.7c-0.7,0.1,0-0.5-0.7-0.3
			c0,0.2,0,0.5,0.6,0.7l-0.5,0.3L2.6,69c0.2-0.1-0.6-0.3-0.1-0.3c0.2,0,0.4,0,0.5,0.2c-0.1-0.2,0.6-0.5,0.5-1S2.3,67.6,1.9,67.3z"/>
		<polygon class="st0" points="2.8,67.3 3,67.3 2.6,67.3 		"/>
		<path class="st0" d="M1.8,66.4l0.5,0.4c-0.1,0-0.2,0.1-0.4,0.1c0.2,0,0.5,0.1,0.6,0.1c0.7-0.2-0.2-0.5-0.3-0.7
			c0.3-0.6,0.4,0,1-0.2c0,0.1-0.2,0.2-0.2,0.4c0.8-0.3,0.1-0.8-0.1-1c-0.1,0.1-0.3,0.1-0.2,0.2l-0.2-0.2C1.9,65.7,1.7,65.9,1.8,66.4
			z"/>
		<path class="st0" d="M1.8,67.1c0-0.2,0-0.2,0.1-0.2C1.7,67,1.5,67,1.8,67.1z"/>
		<path class="st0" d="M2.8,65.4c0,0,0,0.1,0,0.1C2.8,65.6,2.9,65.5,2.8,65.4z"/>
		<path class="st0" d="M2,65.6l0.1-0.3l-0.3,0.1C1.8,65.5,1.9,65.6,2,65.6z"/>
		<path class="st0" d="M3.4,55c-0.3,0-0.4,0.1-0.4,0.3c-0.4,0-0.3-0.3-0.5-0.4c-0.2,0.3-0.4,0-0.8,0c0,0.3,0.4,0.5,0.3,0.8
			c-0.1,0-0.3,0-0.4,0c0.2,0.4,0.5,1.1,0.2,1.5c-0.2,0.4,0,0.7,0.2,1.1c-0.2,1.4,0.1,2.8-0.3,4.3l0.7,0.2c-0.4,0.1,0,0.3-0.5,0.3
			c0.1-0.1,0-0.2,0-0.2c-0.6,0.3,0,0.8-0.2,1.2c0.1,0,0.8-0.1,0.9,0c-0.8,0,0,0.5-0.9,0.5c-0.2,0.4,0.7,0,0.6,0.4
			c0.5,0,0.2-0.4,0.6-0.4c0.4,0.1-0.2,0.4,0.3,0.3c0.2-0.6-0.7-1.9-0.9-2.8l0.4,0.1c-0.4-0.5-0.2-1.3,0.3-1.6c0,0,0.1-0.1,0.1-0.1
			c-0.4,0.1,0.3-0.7-0.7-0.7c0.2-0.1,0.2-0.2,0.3-0.3l-0.3,0c0-0.3,0.5-0.2,0.5-0.5c-0.4,0.2-0.5,0-0.9-0.1c0.5-0.3,0.9-0.7,1.3-1
			c-0.2,0-0.3,0.1-0.5,0.1C3,58,2.6,58,2.4,58c-0.1-0.1,0.5-0.2,0.8-0.1c0.2-0.4-0.8-0.5-0.5-0.8l-0.5,0c-0.1-0.4,0.4-0.7,0.3-1.1
			c0.6-0.2,0.5,0.4,0.7,0.5c0.1-0.1,0.2-0.3,0.4-0.3c-0.3-0.2-0.7-0.5-1-0.7C3.3,55.6,3.3,55.1,3.4,55z"/>
		<path class="st0" d="M3.6,56.1l0.2,0.1c0,0-0.1-0.1,0-0.1C3.8,56.1,3.7,56.1,3.6,56.1z"/>
		<path class="st0" d="M3.4,55L3.4,55C3.4,55,3.4,54.9,3.4,55z"/>
		<path class="st0" d="M1.8,57.3L1.8,57.3c0-0.1,0-0.1,0-0.1L1.8,57.3z"/>
		<path class="st0" d="M3.7,57.7c-0.2,0.1-0.3,0.2-0.5,0.3C3.5,58,3.7,57.8,3.7,57.7z"/>
		<path class="st0" d="M3.2,60.1c0.1,0.1,0.2,0,0.3,0.1C3.5,60,3.4,60,3.2,60.1z"/>
		<polygon class="st0" points="3.8,55.7 3.6,55.4 3.5,55.3 		"/>
		<path class="st0" d="M1.7,49.3c-0.5,0.3-0.2,0.7-0.3,1c0.2,0.6,1.1,0.1,1.2,0.7l-1.1-0.1c0,0.6-0.2,1.4,0.7,2
			c-0.1,0-0.3,0.1-0.4,0c0,0.4,1.5,0.3,1.1,0.8c-0.6-0.5-0.6,0.1-1.3,0l0-0.1c0.1,0.3,0.4,0.8,0.4,1c0.3,0,0.7-0.2,0.7,0.1
			c0.1-0.1,0.4-0.1,0.6,0c-0.3-0.3-0.1-0.5-0.5-0.7c0.4-0.2,0.1,0.1,0.5,0l-0.3-0.2c0.1-0.2,0.4,0.2,0.4-0.1c-0.2,0-0.4-0.3-0.4-0.5
			l0.1,0.1c-0.1-0.2,0-0.4-0.6-0.3l0.6-0.2l-0.4,0c0.2-0.5,1.1-0.6,0.6-1.2c-0.1,0.1-0.3,0-0.4-0.1c-0.3,0.2,0.3,0.3,0.3,0.5
			c-0.4,0-0.9-0.4-1.1-0.1c0.5-0.3,0-0.6,1-0.7c0.1-0.4-0.4-0.5-0.2-0.9l0.1,0c-0.6-0.1,0.3-0.3-0.4-0.6l-0.1,0.2
			c-0.3,0-0.3-0.1-0.3-0.2c0.1,0,0.1,0,0.2,0c-0.5,0-0.5-0.5-0.7-0.5c-0.1,0.2,0.3,0.4,0.4,0.6C2,49.5,1.6,49.5,1.7,49.3z"/>
		<path class="st0" d="M3.3,53.2l-0.2-0.1C3.2,53.2,3.2,53.2,3.3,53.2z"/>
		<path class="st0" d="M2.6,47.6c0.1-0.2,0.4,0.1,0.6-0.1c-0.3-0.3-0.7,0.3-1.2,0c0.3-0.1-0.2-0.4-0.2-0.5c0.3,0.1,0.7,0.1,1,0
			C2.7,46.9,3,46.7,3,46.5c-0.4,0.4-0.2-0.3-0.7,0C2,46.5,1.7,46.1,2,46c0.3,0,0.2,0.1,0.2,0.2C2.7,46.3,2.5,46,3,45.9
			c-0.7-0.4-0.6-1.6-1.8-1.3C1,44.8,1.2,44.9,1.3,45c0.2-0.4,0.6,0,0.8,0c-0.2,0.2,0.2,0.5-0.2,0.4l-0.4-0.3c-0.2,1-0.2,2-0.1,2.9
			l0-0.4c0.3,0,0.3,0.2,0.5,0.4L2.7,48c0,0.1,0.1,0.2-0.2,0.2c0.2,0.1,0.5,0.1,0.8,0c0.1,0.3-0.2,0.4,0.3,0.6c0.6-0.5-0.5-0.5,0-1
			L2.6,47.6z"/>
		<polygon class="st0" points="3,48.8 2.6,48.6 2.8,48.8 		"/>
		<path class="st0" d="M1.3,48.5c0.2,0,0.2,0.1,0.4,0.1C1.8,48.4,1.6,48.4,1.3,48.5z"/>
		<path class="st0" d="M3,45.7l-0.1-0.3l-0.2,0.2C2.9,45.6,3,45.6,3,45.7z"/>
		<path class="st0" d="M1.1,43.4c0.1,0.4,0.4,0.6,0,1.1c0.5,0.3,0.9-0.1,1.4,0c0.1-0.2-0.7-0.2-0.9-0.5c0.4-0.1-0.1-0.4,0-0.6
			C1.5,43.5,1.3,43.5,1.1,43.4z"/>
		<path class="st0" d="M2.8,42c0-0.2-0.3-0.4-0.1-0.6c0.3,0,0.4,0.2,0.3,0.3c0.6-0.1-0.1-0.2,0.3-0.4c-0.1,0-0.2,0.1-0.3,0
			c0.2-0.5-0.5-0.3-0.1-1c-0.1-0.2-0.3-0.2-0.6-0.2c0.5-0.4,0.5-0.2,1-0.6c-0.4,0.1-0.9,0.1-1.3,0.1c0.7-0.6-0.1-0.7,0.5-1.1
			c0,0,0.2,0.1,0.1,0.2c0.7,0-0.1-0.4,0-0.6l0.6,0c-0.1-0.2-0.5-0.6,0-0.9l0.3,0.1c-0.4-0.6-0.2-1.2-0.4-1.7l0.4-0.2
			c-0.4-0.7-0.2,0.6-1.1,0.1c1.1,0-0.4-0.3,0.1-0.7c0.4-0.2,0.2,0.4,0.7,0.2C2.6,35,3,34.9,2.8,34.7c0.5,0,0.1-0.4,0.7-0.3l-1-0.7
			c0.3-0.1,0.3-0.3,0.2-0.5c0,0.4-0.8-0.1-1,0.3C2,34.3,2,35.2,1.7,36c0.7,0.1,0,0.5,0.6,0.6c-0.2,0-0.4,0.1-0.7,0.1
			c0.1,0.5,0.4-0.1,0.7,0c0.1,0.2-0.4,0.4-0.6,0.4c0,0.3,0.2,0,0.6,0.2l-0.8,0.2c0.2,1.1,0.7,2.6,0.2,3.8l0.5-0.1
			c-0.3,0.6,1.1,1,0,1.4l0.4,0.2c-0.2-0.1-0.8,0.1-1.1,0c0.2,0.2,0,0.3,0.1,0.5L1.9,43c0.4,0.2,0.1,0.4-0.2,0.5
			c0.5,0.4,0.9-0.2,1.3-0.3c-0.9-0.6,0.9-0.6,0.6-1.2C3.3,41.7,3.1,42,2.8,42z"/>
		<path class="st0" d="M1.4,42.7c0,0,0.1,0.1,0.1,0.1C1.5,42.8,1.4,42.7,1.4,42.7z"/>
		<path class="st0" d="M2.7,33.3c0-0.1,0-0.1,0-0.2C2.5,33,2.6,33.1,2.7,33.3z"/>
		<polygon class="st0" points="1.7,43.5 1.7,43.5 1.7,43.5 		"/>
		<polygon class="st0" points="2.9,43.8 2.9,43.6 2.7,43.7 		"/>
		<path class="st0" d="M3.4,31.6l-0.2,0C3.2,31.6,3.3,31.6,3.4,31.6z"/>
		<path class="st0" d="M3.7,27L3.7,27C3.7,27.1,3.7,27.1,3.7,27z"/>
		<path class="st0" d="M3.4,16.1c-0.1-0.4-0.4-0.7-0.7-0.9l0.3,0c-0.1-0.2-0.5-0.7-1-0.4l0.2,0.1c0.4,0.4-0.4,0.3-0.6,0.5
			c0.1,0.4,1.1,0.6,0.9,0.9c0,0.1-0.2,0.1-0.4,0.1c-0.1,0.3,0.7,0.5,0.8,0.7c-2,0,0.5,1-0.8,1.4c0.2,0.3,0,0.7,0.4,1.1
			c-0.5-0.2,0,0.3-0.6,0.3c1.2,0.1-0.5,1.1,1,1.2c-0.4,0.5,0.1,0-0.3,0.6c-0.2,0-0.2-0.1-0.2-0.1c-0.3,0.2,0.6,0.4,0,0.5
			c-0.1,0.5,0.4,0.1,0.8,0.4c-0.2,0.5-0.4,0.3-1,0.6c0.7,0.1,0.4,0.4,0.7,0.6c0-0.1,0.2-0.4,0.4-0.2c-0.1,0.6,0.4,0.5,0.6,1
			c-0.8,0.2,0-0.5-0.6-0.1c-0.4-0.3-0.3-0.6-0.9-0.8c0,0.5,0.1,1.1,0.4,1.5c-0.1,0.3-0.4-0.2-0.4,0.1c-0.4,0.5,0.8,0.8,0.4,1.2
			l-0.4-0.1c0.5,0.2-0.1,0.9,0.1,1.3c0.2-0.1,0.3,0,0.5,0c-1,0,0.5,0.6-0.2,1.1c0.5,0,0.9,0.3,1.1,0.7c-0.2,0.1-0.4,0.1-0.6,0.1
			c0.4-0.4-0.7-0.4-1-0.8c0.3,0.3,0,0.8,0.4,1.1L2,29.5c-0.1,0.4,1.1,0.4,0.6,0.8l-0.4,0c0,0.9-0.7,1.9,0.1,2.6
			c0.3,0.1,1-0.3,1.3-0.3c-0.2-0.4-0.8-0.7-1-1l0.5,0c-0.4-0.1-0.6-0.5-0.9-0.3c-0.3-0.3,0.5-0.2,0.2-0.5c0.6,0,0.7,0.2,1.2,0.2
			l-0.3-0.3c0.2,0.1,0.2-0.1,0.4-0.1c-0.7-0.5,0.3-0.7,0-1.2l-0.1,0.3c-0.3,0-0.3-0.2-0.4-0.3c0.5-0.1,0.4-0.2,0.6-0.5
			C3.6,28.9,3,28.8,3,28.5C3.7,28.6,3.4,28,3.9,28c-0.6-0.1-0.2-0.6-0.6-0.6c-0.1-0.2,0-0.4,0.3-0.4c0,0,0,0,0,0.1l0-0.1
			c0.1,0,0.1,0,0.1,0c0-0.1-0.4-0.2-0.1-0.3c0.2,0,0.2,0.1,0.2,0.2c0.1-0.4-1-0.7-0.4-1c-0.3-0.1-0.3-0.5-1-0.4
			c0.2-0.1,0.8,0,0.7-0.4c-0.6-0.2,0.2-0.3-0.1-0.6c0.6,0.3,0.2,0,0.7,0.3c0.2-0.2-0.5-0.6-0.4-0.9c0.1,0,0.3,0,0.4-0.1
			c-0.2-0.1-0.7-0.3-0.2-0.4l-0.4,0c0.2-0.3,0.1-0.6,0.5-0.9L3.1,22c0.8-0.4,0.1-1-0.6-1.4c0-0.2,0.2-0.4,0.4-0.4l0.3,0.2
			c0-0.2,0.5-0.5-0.2-0.6c-0.2-0.2,0.4-0.2,0.5-0.3c-0.9-0.5,0.7-1.4-0.7-1.6c0,0.2-0.3,0.6-0.2,0.9c-0.2-0.1-0.4,0-0.5-0.2
			c0-0.4,0.5-0.6,0.2-0.9l0.9,0C4.2,17.2,2.1,16.6,3.4,16.1z"/>
		<path class="st0" d="M3.3,20.9l0.4-0.3l-0.4,0C3.4,20.7,3.4,20.8,3.3,20.9C3.3,20.9,3.3,20.9,3.3,20.9z"/>
		<path class="st0" d="M3.3,20.7c0-0.1-0.1-0.1-0.2-0.2C3.1,20.6,3.2,20.7,3.3,20.7L3.3,20.7z"/>
		<path class="st0" d="M3.3,15c0.1-0.1,0.1-0.2,0-0.3C3.2,14.8,3.2,15,3.3,15z"/>
		<polygon class="st0" points="3,14.7 2.9,14.9 3,14.9 		"/>
		<path class="st0" d="M2.5,6.7L2,6.3c0.3-0.1,0-0.6,0.4-0.4c-0.6-0.3,0-0.8-0.9-0.6c0.3,1.3-0.3,3,0.5,4.6L1.6,9.6
			c0.7,0.8-0.8,1,0.6,1.7l-0.7-0.1c-0.2,0.3,1.1,0.7,0.3,1.1l0.3,0c0,0.1-0.1,0.1-0.1,0.2l0.1,0c0.3,0.3,0.3,0.4,0,0.7
			c-0.2,0-0.1-0.1-0.2-0.2c-0.2,0.1,0.3,0.3,0.2,0.5c-0.2,0.2-0.3,0-0.4,0C2,14,1.2,14.3,2.3,14.7c0.2,0,0.4-0.1,0.5,0.1
			c0.4-0.4-0.1-0.7-0.4-1.1l0,0.1c-1.1-0.3,0.2-0.2-0.2-0.7c0.4,0.1,0.4,0.3,0.6,0.4c0.8-0.5-0.6-0.8,0.4-1.1l0,0
			c0.1-0.1-0.1-0.2-0.2-0.3c-0.1,0-0.2,0.1-0.3,0.2c-0.1-0.1-0.6-0.2-0.8-0.2c0.5-0.1-0.2-0.2,0-0.4c0.4-0.1,0.4,0.2,0.6,0.3
			l-0.3-0.3c0-0.2,0.5-0.2,0.7-0.3c-0.3-0.2-0.2,0.1-0.7,0c0.5-0.2,0.4-1.3,0.1-1.9c0.1,0.2,0.5,0.1,0.4,0.3
			c0.1-0.1-0.1-0.4-0.5-0.4C2.1,9.1,2.3,8.6,2.6,8.3L2.3,8.4C1.8,8,2.8,7.6,2.4,7.1l0,0C2.4,7,1.6,6.8,1.7,6.5
			C2.1,6.6,2.1,6.7,2.5,6.7z"/>
		<path class="st0" d="M1.8,5l0.5,0.2C2.3,5,1.7,4.7,1.4,4.8C1.5,4.9,1.3,5,1.6,5.1C1.7,5.1,1.9,5.1,1.8,5z"/>
		<path class="st0" d="M1.8,1.7C1.7,1.6,1.5,1.6,1.4,1.6c0,0.7,0.2,1.6-0.2,1.8C1.1,3.7,1.8,3.7,1.9,4L1.4,4.1
			C1.7,4.3,1.2,4.8,2,4.6c0.1,0-0.4-0.2-0.2-0.3l0.3,0L1.9,4l0.3,0.1c0.5-0.4-1-0.3-0.7-0.8l0.7,0c0-0.4-0.2-0.5,0.2-0.8
			c0,0-0.3,0-0.2,0.1C2.1,2.6,2,2.6,1.8,2.6C1.3,2,2.2,2.7,2.5,2.3C2,1.9,1.7,1,2.2,0.8C1.8,1,1.4,0.7,1.4,0.4
			C1.7,0.3,1.8,0.5,2,0.5c0.1-0.1,0.2-0.2,0.1-0.3C1.8,0.4,1.4,0.3,1.1,0C0.7,0.6,1.9,1.1,1.8,1.7z"/>
		<path class="st0" d="M1.2,1.5c0,0.1,0.1,0.1,0.1,0.1c0-0.1,0-0.2,0-0.2L1.2,1.5z"/>
	</g>
</g>
</svg>
