<svg xmlns="http://www.w3.org/2000/svg" viewBox="0 0 129.18 77.16"><defs><style>.cls-1{fill:#fff;}.cls-2{fill:#f5efe6;}.cls-3{fill:#867454;}.cls-4{fill:#42290b;}</style></defs><g id="レイヤー_2" data-name="レイヤー 2"><g id="レイヤー_1-2" data-name="レイヤー 1"><path class="cls-1" d="M120,45.36a14.37,14.37,0,0,1-.68,2.79A10,10,0,0,1,118.5,51c-.24.8-1.14,1.52-1.59,2.35a21.22,21.22,0,0,1-1.81,2.25c-.78.69-1.71,1.14-2.36,1.76a27.81,27.81,0,0,0-2.23,1.88c-.83.47-1.83.81-2.61,1.3s-1.69,1.17-2.57,1.58-1.82.58-2.66,1a27.41,27.41,0,0,1-2.76,1.35c-.71.32-1.73.37-2.68.74s-1.78.78-2.86,1.08c-.73.2-1.8.31-2.82.5-.8.23-1.78.69-2.8,1s-2,.15-3,.32-1.71.58-2.69.74-1.92.11-2.88.26-2,.49-2.89.57-2,0-3,.08-1.89.39-2.93.38c-.86.08-2-.06-2.83,0-1.14.06-2,.27-2.88.3s-2.12-.16-3.07-.22-2,.19-2.88.18S57.78,70,57,70c-1,0-2.13.11-3.1.06s-1.8-.42-2.73-.53-2.09,0-3.1-.12-1.81-.47-2.77-.6-2-.08-3-.26-1.81-.62-2.71-.86-2-.22-3-.41a24.87,24.87,0,0,0-2.6-.93c-1-.31-1.92-.42-2.81-.75-1.08-.31-1.83-.84-2.77-1.16s-1.85-.56-2.79-.88a19.14,19.14,0,0,1-2.44-1.49,29.33,29.33,0,0,1-2.79-1.18,11.74,11.74,0,0,1-2.19-1.79,10.19,10.19,0,0,1-2.43-1.67,9.66,9.66,0,0,1-1.9-2.22,15.65,15.65,0,0,1-2-2.25,16.34,16.34,0,0,1-.9-2.75,7.08,7.08,0,0,1-.64-2.88,7.87,7.87,0,0,1,.62-2.81,13.43,13.43,0,0,1,.75-2.88c.45-.82,1.22-1.47,1.74-2.29a20.21,20.21,0,0,1,1.79-2.26,26,26,0,0,1,2.47-1.77c.73-.55,1.33-1.3,2.13-1.85a21.61,21.61,0,0,1,2.7-1.31,18.78,18.78,0,0,1,2.37-1.58c.89-.44,1.84-.59,2.82-1a19.13,19.13,0,0,1,2.66-1.22,24.88,24.88,0,0,1,2.83-.79c.8-.3,1.76-.83,2.6-1.12s2-.27,3-.53,1.8-.68,2.75-.86,2-.21,2.8-.37c1.09-.19,1.88-.59,2.92-.76.87-.21,2-.05,2.79-.22,1.14-.17,1.92-.46,3-.55.81-.12,2,0,3-.13s1.9-.4,2.9-.39,1.95.1,2.82.07,1.92-.35,2.87-.38,2,.2,3.09.23c.78.05,1.76-.23,2.9-.16a22.21,22.21,0,0,1,2.91.36c.93,0,1.91-.11,2.89,0a27.32,27.32,0,0,1,2.76.47c1,.05,2.15,0,3.1.11s1.77.44,2.68.61a23.71,23.71,0,0,1,3,.33c1,.12,1.87.56,2.85.76s1.94.18,2.81.4c1,.23,1.83.73,2.73,1,1.1.29,2,.41,2.88.68s1.88.86,2.72,1.17,1.91.49,2.73.87,1.83,1.08,2.62,1.47,1.83.77,2.72,1.3,1.38,1.18,2.18,1.75a21.08,21.08,0,0,1,2.39,1.61c.75.7,1.24,1.55,2,2.27s1.39,1.45,1.89,2.22a23.51,23.51,0,0,1,.82,2.8A7.66,7.66,0,0,1,120,45.36Z"/><path class="cls-2" d="M114.26,36.14a9.9,9.9,0,0,1-.67,2.36,7.63,7.63,0,0,1-.91,2.36c-.25.64-1.08,1.19-1.54,1.85a17.63,17.63,0,0,1-1.7,1.77c-.71.53-1.54.84-2.14,1.31a23.91,23.91,0,0,0-2,1.46c-.74.35-1.62.58-2.3.94s-1.5.91-2.27,1.22-1.58.4-2.31.69a25.33,25.33,0,0,1-2.4,1c-.62.24-1.5.25-2.31.53s-1.55.6-2.48.83c-.62.15-1.53.2-2.41.34-.69.17-1.53.55-2.41.75s-1.68.08-2.52.21-1.47.46-2.3.58-1.64.06-2.46.17-1.75.39-2.47.46-1.7,0-2.53,0-1.61.32-2.5.31c-.73.06-1.72-.07-2.41,0-1,0-1.69.24-2.45.26s-1.81-.15-2.62-.19-1.69.18-2.45.17-1.71-.24-2.41-.25c-.88,0-1.82.11-2.65.08s-1.54-.33-2.32-.41-1.79,0-2.65-.06-1.55-.37-2.37-.46-1.71,0-2.58-.15-1.56-.49-2.32-.67-1.7-.13-2.58-.26c-.69-.2-1.48-.57-2.24-.71s-1.65-.28-2.42-.52c-.93-.23-1.59-.65-2.4-.88s-1.6-.38-2.42-.61a18.38,18.38,0,0,1-2.15-1.14c-.89-.32-1.74-.51-2.44-.85a10.36,10.36,0,0,1-2-1.37,9.38,9.38,0,0,1-2.19-1.24,8.44,8.44,0,0,1-1.78-1.74,13.8,13.8,0,0,1-1.87-1.75A12.41,12.41,0,0,1,19,40.29a5.19,5.19,0,0,1-.62-2.43,5.62,5.62,0,0,1,.6-2.38,10.18,10.18,0,0,1,.82-2.38c.43-.66,1.15-1.15,1.66-1.8a16.81,16.81,0,0,1,1.69-1.78,24,24,0,0,1,2.24-1.33c.65-.41,1.21-1,1.93-1.43a20.2,20.2,0,0,1,2.37-1,17.77,17.77,0,0,1,2.1-1.22c.77-.32,1.59-.4,2.44-.74a16.88,16.88,0,0,1,2.32-.94c.73-.29,1.5-.3,2.44-.56.68-.22,1.52-.65,2.24-.87s1.76-.17,2.57-.36,1.54-.54,2.37-.67,1.66-.13,2.38-.25c.94-.14,1.62-.47,2.51-.6s1.68,0,2.38-.14c1-.12,1.64-.37,2.56-.43.69-.1,1.7,0,2.53-.08s1.62-.32,2.47-.31,1.67.09,2.4.07,1.64-.3,2.45-.32,1.73.18,2.64.19c.66,0,1.49-.2,2.47-.15a20.79,20.79,0,0,1,2.48.29c.79,0,1.62-.11,2.46-.06a23.13,23.13,0,0,1,2.35.37c.9,0,1.84,0,2.65,0s1.51.35,2.29.47a22.23,22.23,0,0,1,2.6.21c.85.08,1.61.44,2.46.58s1.66.1,2.4.26c.89.16,1.58.56,2.35.76,1,.22,1.71.27,2.48.47s1.63.66,2.36.89,1.65.33,2.37.61,1.61.83,2.31,1.11,1.6.55,2.38.94,1.25.92,2,1.35A18.36,18.36,0,0,1,109,27.91c.69.53,1.17,1.22,1.85,1.77s1.3,1.13,1.79,1.74a15.75,15.75,0,0,1,.86,2.31A5.77,5.77,0,0,1,114.26,36.14Z"/><path class="cls-3" d="M129,40.66a10.5,10.5,0,0,0-1.19-3.15A14,14,0,0,0,126,35.08a19.39,19.39,0,0,0-4.39-3.45l-.11.28a25.75,25.75,0,0,1,4,3.87,13.07,13.07,0,0,1,1.59,2.39,10.33,10.33,0,0,1,.93,2.76,8.5,8.5,0,0,1-1.17,5.53,15.33,15.33,0,0,1-3.64,4,40.2,40.2,0,0,1-9,5.17,84.93,84.93,0,0,1-9.64,3.4,139.7,139.7,0,0,1-19.81,4.12A178.38,178.38,0,0,1,65,64.79a181.13,181.13,0,0,1-19.76-.91,140.38,140.38,0,0,1-20-3.4,83.73,83.73,0,0,1-9.78-3,40.47,40.47,0,0,1-9.25-4.84,15.5,15.5,0,0,1-3.8-3.86A8.48,8.48,0,0,1,1.1,43.25a10.11,10.11,0,0,1,.81-2.8A12.84,12.84,0,0,1,3.4,38a25.77,25.77,0,0,1,3.85-4l-.12-.27a19.28,19.28,0,0,0-4.24,3.61,14.88,14.88,0,0,0-1.74,2.49A10.41,10.41,0,0,0,.1,43a9.08,9.08,0,0,0,.19,3.56A11.4,11.4,0,0,0,1.6,49.65a16.59,16.59,0,0,0,4.1,4.27A41.93,41.93,0,0,0,15.18,59a85.54,85.54,0,0,0,9.89,3.19,135.06,135.06,0,0,0,20.12,3.47,165.19,165.19,0,0,0,19.51.73h.73a165.15,165.15,0,0,0,19.48-1.45,133.23,133.23,0,0,0,20-4.2,85,85,0,0,0,9.74-3.55,41.57,41.57,0,0,0,9.26-5.42,16.6,16.6,0,0,0,3.93-4.42A11.6,11.6,0,0,0,129,44.22,9.08,9.08,0,0,0,129,40.66Z"/><path class="cls-3" d="M73.27,76.71c2.73-.28,5.47-.66,8.18-1.21a51,51,0,0,0,8.06-2.28,18.56,18.56,0,0,0,3.88-2,8.07,8.07,0,0,0,1.76-1.57,3.7,3.7,0,0,0,.95-2.6h-.43a3,3,0,0,1-1,1.83A8.76,8.76,0,0,1,93,70.15a23.11,23.11,0,0,1-3.77,1.69,50.83,50.83,0,0,1-8,2c-2.68.47-5.38.83-8.09,1.06s-5.26.39-7.9.45-5.27,0-7.91-.16-5.43-.39-8.13-.77a49.35,49.35,0,0,1-8-1.7,23.59,23.59,0,0,1-3.84-1.56A8.28,8.28,0,0,1,35.61,70a3,3,0,0,1-1.09-1.79h-.43a3.76,3.76,0,0,0,1,2.56A8.44,8.44,0,0,0,37,72.3a19.33,19.33,0,0,0,4,1.81,51.07,51.07,0,0,0,8.14,2c2.74.45,5.48.73,8.23.91,2.58.16,5.16.18,7.74.15h.5"/><path class="cls-4" d="M34.71,4h1.42l0,2.7-2.82,0,0-2.7L34.79.88h1.26Zm3.94,0h1.42l0,2.7-2.82,0,0-2.7L38.73.91H40Z"/><path class="cls-4" d="M48.07,3.58c-1.78,0-2.38,0-2.5,0s-.22,0-.22-.22V2.06c0-.22,0-.24.22-.24s.72.05,2.51.06l5,0V1.86A9,9,0,0,0,52.92,0c.72,0,1.44.05,2.14.12.2,0,.3.1.3.2a2.16,2.16,0,0,1-.12.4,3.18,3.18,0,0,0-.11,1.16v.06l5.28,0c1.78,0,2.38,0,2.5,0s.24,0,.24.22l0,1.34c0,.2,0,.22-.24.22s-.72,0-2.5-.06H58.53A19.91,19.91,0,0,1,62.21,6.8a.28.28,0,0,1,.1.18c0,.08,0,.14-.17.26l-1,.87c-.18.16-.26.2-.4,0-.4-.48-.83-.94-1.27-1.39-3.4.3-8.31.5-11.89.59a1.63,1.63,0,0,0-.68.11.65.65,0,0,1-.28.08c-.14,0-.2-.08-.24-.26a16.06,16.06,0,0,1-.3-1.8c.72,0,1.38.07,2.06,0,.34,0,.74,0,1.12,0A14.25,14.25,0,0,0,50.59,3.6Zm12.08,10c0,.94.05,2,0,2.52a2.34,2.34,0,0,1-.53,1.66c-.36.32-1,.47-2.82.46-.62,0-.68,0-.78-.47a5.19,5.19,0,0,0-.51-1.47c.86.07,1.36.1,1.9.1s.68-.15.68-.65V15l-8-.07v.9c0,1.46,0,2.16,0,2.26s0,.22-.23.22H48.31c-.2,0-.22,0-.22-.22s0-.76.06-2.24l0-5.1c0-1.51,0-2.19,0-2.31s0-.24.22-.23.83,0,2.77.06l6.12,0c1.92,0,2.62,0,2.74,0s.22,0,.21.24,0,.92-.06,2.46Zm-2-.14v-1l-8-.06v1Zm-8-3.62v1l8,.07v-1Zm2.69-6.22a21.62,21.62,0,0,1-1.31,1.87c2.06,0,4.3-.12,6.24-.23-.34-.28-.7-.53-1-.79-.18-.12-.18-.16,0-.34l.52-.47Z"/><path class="cls-4" d="M79.39,7a6.9,6.9,0,0,0,0-1.36,8.79,8.79,0,0,1,2.31.88.38.38,0,0,1,.14.54,3.39,3.39,0,0,0-.33.78c-.17.84-.37,1.72-.58,2.58A24,24,0,0,1,84,12.33c.19.12.17.22.11.42a17.25,17.25,0,0,1-.87,1.72c-.06.1-.12.14-.18.14a.46.46,0,0,1-.24-.15,17,17,0,0,0-2.61-1.9,12.29,12.29,0,0,1-4.08,5.23c-.18.14-.28.22-.4.22a.55.55,0,0,1-.3-.14A4.15,4.15,0,0,0,73.72,17a11.05,11.05,0,0,0,4.53-5.38,13.47,13.47,0,0,0-4-1.26,14.15,14.15,0,0,1-2.47,4,3.33,3.33,0,0,1-2.57,1.08A2.42,2.42,0,0,1,66.9,12.7c0-2.49,2.59-4.41,5.93-4.38a49.53,49.53,0,0,0,1.7-4.73l-2.76.3a4.82,4.82,0,0,0-.9.21,1.05,1.05,0,0,1-.36.08A.32.32,0,0,1,70.19,4a11.6,11.6,0,0,1-.56-2.19,7.47,7.47,0,0,0,1.76.14,22.11,22.11,0,0,0,3.1-.24,2.19,2.19,0,0,0,1-.33.44.44,0,0,1,.26-.08.47.47,0,0,1,.28.09,6.11,6.11,0,0,1,1.35,1.11.48.48,0,0,1,.18.34.51.51,0,0,1-.2.34,2.62,2.62,0,0,0-.55,1c-.53,1.36-1.1,2.91-1.72,4.35a16.75,16.75,0,0,1,3.88,1A21.75,21.75,0,0,0,79.39,7Zm-10.61,5.5c0,.64.21.92.69.93a1.63,1.63,0,0,0,1.17-.76,13.91,13.91,0,0,0,1.48-2.42C70.08,10.28,68.79,11.33,68.78,12.47Z"/><path class="cls-4" d="M91.61,4.33,90.12,7.44H88.86l1.35-3.11H88.79l0-2.7,2.82,0Zm3.94,0L94.06,7.47H92.8l1.35-3.11H92.73l0-2.7,2.82,0Z"/><path class="cls-4" d="M47.45,36.56c-3,.76-4.89,1.47-6.6,2a2.3,2.3,0,0,1-.58.22.58.58,0,0,1-.4-.41c-.19-.4-.41-1-.65-1.64.45-.12.63-.18,1.05-.31A9.88,9.88,0,0,0,42.2,35.3a65.72,65.72,0,0,0,5.74-5.19c-1.22.33-2.3.52-3.57.75-.3.06-.46.07-.76.15a2.1,2.1,0,0,1-.56.2c-.18,0-.34-.18-.48-.45a12,12,0,0,1-.7-2,13.1,13.1,0,0,0,2,0c1.34-.09,2.8-.31,4.57-.56a2.49,2.49,0,0,0,1.06-.33.64.64,0,0,1,.38-.14c.18,0,.3.1.54.31a6.64,6.64,0,0,1,1,1,.88.88,0,0,1,.23.57c0,.2-.12.34-.36.45a4.79,4.79,0,0,0-.82.6c-2.1,1.82-3.81,3.29-6.11,5l0,.06A78.85,78.85,0,0,1,54,33.66c.26,0,.34.1.38.32a8.9,8.9,0,0,1,.21,1.62c0,.2-.1.26-.33.28a14,14,0,0,0-3.72.61c-2.33.78-3.44,2.19-3.45,3.63,0,1.92,2.08,2.52,5,2.54.2,0,.32.11.3.37-.05.5-.21,1.31-.28,1.67s-.16.44-.44.44A11.72,11.72,0,0,1,50.34,45C46.58,44.6,45,42.87,45,40.45a4.65,4.65,0,0,1,2.47-3.84Z"/><path class="cls-4" d="M68.61,31.93A25.36,25.36,0,0,1,66,40.54a3.82,3.82,0,0,1-3.42,2.27c-1.76,0-3.53-1.91-3.5-5.17a7.33,7.33,0,0,1,2.3-5.18A8.74,8.74,0,0,1,67.94,30c4.8,0,7.6,3,7.57,7,0,3.72-2.15,6-6.22,7.23-.42.12-.6,0-.86-.37A4.29,4.29,0,0,0,67,42.54c3.39-.77,6.06-2.15,6.09-5.93a4.55,4.55,0,0,0-4.44-4.68Zm-5.76,1.9a5.73,5.73,0,0,0-1.59,3.69c0,1.84.72,2.86,1.34,2.87s1-.26,1.51-1.21A22.9,22.9,0,0,0,66.28,32,6,6,0,0,0,62.85,33.83Z"/><path class="cls-4" d="M92.13,31.16l-6-.05L86,34.19c0,.46-.07,1-.13,1.44a3.1,3.1,0,0,1,2.63-1.3c2.52,0,4.28,2,4.26,5,0,3.22-2,5.32-4.93,5.3-2.4,0-4.09-1.11-4.61-3.36l2.45-.72c.26,1.48,1,2.13,2.16,2.14,1.44,0,2.35-1.22,2.37-3.34s-.8-3.11-2.2-3.12A2.22,2.22,0,0,0,85.78,38l-2.08-.31.37-8.56,8.08.06Z"/></g></g></svg>