<?xml version="1.0" encoding="utf-8"?>
<!-- Generator: Adobe Illustrator 26.5.0, SVG Export Plug-In . SVG Version: 6.00 Build 0)  -->
<svg version="1.1" id="レイヤー_1" xmlns="http://www.w3.org/2000/svg" xmlns:xlink="http://www.w3.org/1999/xlink" x="0px"
	 y="0px" viewBox="0 0 127.7 80.3" style="enable-background:new 0 0 127.7 80.3;" xml:space="preserve">
<style type="text/css">
	.st0{fill:#FFFFFF;}
	.st1{fill:#DCEECD;}
	.st2{fill:#867454;}
	.st3{fill:#42290B;}
</style>
<g id="レイヤー_2_00000077320378799352951550000005405368738147725201_">
	<g id="レイヤー_1-2">
		<path class="st0" d="M119,39.7c0,0.9-0.1,1.9-0.3,2.8c0,1-0.1,2-0.4,3c-0.1,0.8-0.9,1.7-1.2,2.6c-0.4,0.9-0.9,1.7-1.4,2.5
			c-0.7,0.8-1.5,1.3-2.1,2.1c-0.7,0.7-1.3,1.4-1.9,2.2c-0.8,0.6-1.7,1-2.4,1.7s-1.5,1.4-2.3,1.9s-1.7,0.8-2.5,1.3
			c-0.8,0.6-1.7,1.2-2.5,1.7c-0.7,0.4-1.7,0.6-2.6,1.2c-1,0.3-1.7,1-2.7,1.5c-0.9,0.4-1.8,0.7-2.7,0.9c-0.8,0.4-1.7,1-2.6,1.4
			c-0.8,0.3-1.9,0.4-2.9,0.7s-1.6,0.8-2.6,1.1S83.9,68.7,83,69s-2,0.8-2.8,1s-2,0.3-2.9,0.5c-0.9,0.3-1.9,0.6-2.8,0.8
			c-0.8,0.2-2,0.2-2.8,0.4c-1.1,0.2-1.9,0.5-2.8,0.7s-2.1,0.1-3.1,0.2S63.8,73,63,73.2s-2,0-2.8,0.1c-1,0.1-2.1,0.4-3.1,0.5
			s-1.8-0.1-2.8-0.1c-1.1,0-2.1,0.3-3.1,0.3s-1.9-0.2-2.8-0.2s-2,0.2-3,0.2s-1.9-0.3-2.8-0.5s-2,0.1-3,0c-0.9-0.2-1.8-0.4-2.7-0.5
			c-1-0.2-2-0.2-2.9-0.3c-1.1-0.3-2-0.6-3-0.8s-1.9-0.3-2.9-0.5c-0.9-0.3-1.8-0.7-2.6-1.1c-1.1-0.3-2.1-0.5-2.9-0.8
			c-0.8-0.4-1.6-0.9-2.4-1.4c-0.9-0.3-1.8-0.8-2.6-1.3c-0.8-0.5-1.6-1.2-2.2-1.9c-0.8-0.6-1.6-1.3-2.3-2c-0.5-0.8-0.9-1.7-1.3-2.6
			c-0.5-0.8-0.9-1.8-1-2.8c-0.1-1-0.1-1.9,0.2-2.9c0-1,0.1-2,0.4-3c0.3-0.9,1-1.6,1.4-2.5c0.4-0.9,0.9-1.7,1.4-2.5
			c0.7-0.7,1.4-1.4,2.2-2.1c0.6-0.6,1.1-1.5,1.9-2.2c0.8-0.6,1.6-1.2,2.5-1.7c0.7-0.7,1.4-1.3,2.1-1.9c0.8-0.5,1.7-0.8,2.6-1.4
			c0.8-0.6,1.6-1.1,2.5-1.6c0.9-0.5,1.8-0.9,2.7-1.2c0.8-0.4,1.6-1.1,2.4-1.5c0.9-0.4,2-0.5,2.9-0.9s1.7-0.9,2.6-1.2
			s1.9-0.5,2.7-0.8c1.1-0.3,1.8-0.9,2.8-1.2c0.8-0.3,1.9-0.3,2.7-0.6c1.1-0.3,1.8-0.7,2.9-1c0.8-0.3,2-0.3,2.9-0.5
			c0.9-0.3,1.9-0.6,2.8-0.8c0.9-0.2,2-0.2,2.8-0.4s1.9-0.6,2.8-0.8s2-0.1,3.1-0.2c0.8-0.1,1.7-0.5,2.8-0.6c1-0.1,1.9-0.1,2.9,0
			c0.9-0.1,1.9-0.4,2.9-0.5s1.9,0.1,2.8,0s2.1-0.3,3.1-0.3s1.8,0.1,2.8,0.2c1-0.1,2-0.1,3-0.1c1,0,1.9,0.3,2.9,0.4s2-0.1,2.8,0
			c1,0.1,1.9,0.5,2.8,0.6c1.1,0.1,2,0.1,3,0.3s2,0.6,2.9,0.8s2,0.2,2.8,0.5s2,0.8,2.8,1.1s1.9,0.5,2.9,0.9s1.5,0.9,2.4,1.4
			c0.9,0.4,1.8,0.8,2.6,1.2c0.8,0.6,1.4,1.4,2.3,2c0.8,0.6,1.6,1.2,2.2,1.9c0.5,0.9,0.9,1.7,1.2,2.6C118.4,37.8,118.8,38.8,119,39.7
			z"/>
		<path class="st1" d="M112,31.5c0,0.8-0.1,1.6-0.3,2.4c-0.1,0.8-0.2,1.7-0.6,2.5c-0.2,0.7-0.9,1.3-1.3,2.1c-0.4,0.7-0.9,1.4-1.4,2
			c-0.6,0.6-1.4,1-1.9,1.6c-0.6,0.5-1.2,1.1-1.8,1.7c-0.7,0.5-1.5,0.8-2.1,1.3s-1.4,1.1-2.1,1.5s-1.5,0.6-2.2,1
			c-0.7,0.5-1.5,0.9-2.2,1.4c-0.6,0.3-1.4,0.5-2.2,0.9s-1.4,0.8-2.3,1.2c-0.8,0.3-1.5,0.5-2.3,0.7c-0.7,0.3-1.4,0.8-2.3,1.1
			s-1.7,0.3-2.5,0.6s-1.4,0.7-2.2,0.9s-1.6,0.3-2.4,0.5s-1.7,0.6-2.4,0.8s-1.7,0.2-2.5,0.4s-1.6,0.5-2.4,0.7
			c-0.7,0.2-1.7,0.2-2.4,0.3c-1,0.2-1.6,0.5-2.4,0.6s-1.8,0.1-2.6,0.2s-1.6,0.4-2.4,0.5s-1.7,0-2.4,0.1c-0.9,0.1-1.8,0.3-2.6,0.4
			s-1.6-0.1-2.3-0.1s-1.8,0.3-2.6,0.3s-1.6-0.1-2.4-0.1s-1.7,0.2-2.6,0.2s-1.6-0.2-2.4-0.3s-1.7,0.1-2.6,0.1
			c-0.7-0.1-1.5-0.3-2.3-0.3s-1.7,0-2.5-0.2c-1-0.1-1.7-0.4-2.5-0.5s-1.6-0.1-2.5-0.3c-0.8-0.2-1.5-0.5-2.3-0.8
			c-0.9-0.2-1.8-0.3-2.5-0.5c-0.8-0.3-1.5-0.6-2.2-1c-0.8-0.2-1.6-0.5-2.3-0.9c-0.7-0.4-1.4-0.9-2-1.5c-0.7-0.4-1.4-0.9-2.1-1.5
			c-0.5-0.7-0.9-1.4-1.3-2.1c-0.5-0.7-0.9-1.5-1-2.3c-0.1-0.8,0-1.6,0.2-2.4c0.1-0.8,0.2-1.7,0.5-2.5c0.3-0.7,1-1.3,1.4-2
			c0.4-0.7,0.9-1.4,1.4-2c0.6-0.6,1.3-1.1,2-1.6s1-1.2,1.7-1.7c0.7-0.5,1.5-0.9,2.2-1.3c0.6-0.5,1.2-1.1,1.9-1.5
			c0.7-0.4,1.5-0.6,2.3-1.1c0.7-0.5,1.4-0.9,2.2-1.2c0.8-0.3,1.5-0.7,2.3-0.9c0.7-0.3,1.4-0.9,2.1-1.2s1.7-0.4,2.5-0.7
			s1.5-0.8,2.2-1s1.6-0.4,2.3-0.6c0.9-0.3,1.5-0.7,2.4-0.9s1.7-0.2,2.3-0.5c1-0.2,1.6-0.6,2.5-0.8c0.7-0.2,1.7-0.2,2.5-0.4
			s1.6-0.6,2.4-0.7s1.7-0.1,2.4-0.3s1.6-0.5,2.4-0.7s1.7-0.1,2.6-0.2c0.7-0.1,1.4-0.4,2.4-0.5c0.8-0.1,1.7-0.1,2.5-0.1
			c0.8-0.1,1.6-0.4,2.4-0.4s1.6,0.1,2.4,0s1.8-0.3,2.6-0.3s1.6,0.1,2.3,0.1c0.9-0.1,1.7-0.2,2.6-0.1c0.9,0,1.7,0.2,2.5,0.2
			s1.7-0.1,2.4-0.1s1.6,0.3,2.4,0.4c1,0.1,1.7,0,2.5,0.1s1.7,0.4,2.5,0.5s1.7,0.1,2.4,0.3s1.7,0.6,2.4,0.8s1.7,0.3,2.5,0.6
			s1.4,0.7,2.2,1c0.8,0.2,1.5,0.5,2.3,0.9c0.8,0.4,1.3,1,2.1,1.5c0.7,0.5,1.4,0.9,2,1.5c0.5,0.7,0.9,1.4,1.2,2.1
			C111.4,29.8,111.8,30.6,112,31.5z"/>
		<path class="st2" d="M127.3,33.8c-0.4-1.1-0.9-2.1-1.6-3c-0.6-0.8-1.4-1.5-2.2-2.1c-1.5-1.2-3.1-2.1-4.8-2.8l-0.1,0.3
			c1.6,0.9,3.1,2,4.5,3.2c0.7,0.6,1.4,1.4,1.9,2.1c0.6,0.8,1,1.7,1.3,2.6c0.5,1.9,0.4,3.9-0.4,5.6c-0.7,1.7-1.7,3.2-3,4.5
			c-2.4,2.5-5.2,4.6-8.2,6.4c-2.9,1.8-5.9,3.4-9,4.8c-6.2,2.8-12.5,5.1-19,6.9c-6.3,1.8-12.8,3.3-19.3,4.5c-6.5,1-13.1,1.6-19.7,1.9
			c-6.7,0.3-13.5,0.2-20.2-0.5c-3.4-0.3-6.8-0.9-10.1-1.6c-3.4-0.7-6.7-1.9-9.9-3.5c-1.6-0.8-3.1-1.9-4.4-3.2
			c-1.3-1.5-2.1-3.3-2.2-5.3c0-1,0.1-2,0.4-2.9c0.3-0.9,0.7-1.8,1.1-2.6c0.9-1.6,2-3.1,3.2-4.5l-0.2-0.2C4.2,45.6,3,47.1,2,48.6
			c-0.6,0.9-1,1.8-1.4,2.7C0.2,52.4,0,53.5,0,54.6c0,1.2,0.2,2.4,0.7,3.5c0.4,1,1,2,1.7,2.9c1.3,1.5,2.9,2.7,4.7,3.6
			c3.2,1.7,6.6,2.9,10.1,3.7c3.4,0.8,6.8,1.3,10.2,1.7c6.8,0.7,13.6,0.9,20.4,0.5c6.5-0.3,13-1,19.4-2l0,0c0.1,0,0.2-0.1,0.4-0.1
			l0.4-0.1l0,0c6.4-1,12.8-2.4,19.1-4.2c6.6-1.8,13-4.2,19.2-7c3.1-1.4,6.2-3.1,9.1-4.9c3.1-1.9,5.9-4.1,8.4-6.7
			c1.4-1.4,2.5-3.1,3.2-5c0.4-1,0.6-2.2,0.7-3.3C127.8,36.1,127.6,34.9,127.3,33.8z"/>
		<path class="st2" d="M77.2,77.5c2.7-0.7,5.3-1.4,7.9-2.4c2.6-0.9,5.2-2.1,7.7-3.4c1.3-0.7,2.5-1.5,3.6-2.5
			c0.6-0.5,1.1-1.1,1.5-1.8c0.5-0.8,0.7-1.8,0.6-2.7l-0.4,0.1c0,0.7-0.3,1.4-0.8,1.9c-0.4,0.5-0.9,1-1.5,1.4
			c-1.1,0.8-2.3,1.6-3.5,2.2c-2.4,1.2-5,2.3-7.6,3.1c-2.6,0.8-5.2,1.6-7.9,2.2s-5.2,1.1-7.8,1.6s-5.2,0.7-7.8,1s-5.4,0.4-8.2,0.4
			c-2.7,0-5.5-0.1-8.2-0.5c-1.4-0.2-2.7-0.5-4-1c-0.7-0.2-1.3-0.5-1.9-0.9c-0.6-0.4-1.1-0.9-1.3-1.6l-0.4,0.1
			c0.1,0.9,0.6,1.8,1.4,2.4c0.6,0.5,1.3,0.9,2,1.2c1.3,0.6,2.7,1,4.2,1.2c2.8,0.5,5.5,0.8,8.4,0.8c2.8,0,5.5-0.1,8.3-0.3
			c2.6-0.2,5.1-0.6,7.7-1l0,0h0.2h0.2l0,0"/>
		<path class="st3" d="M28.6,11.1l1.4-0.2l0.4,2.7l-2.8,0.4l-0.4-2.7l1-3.3l1.2-0.2L28.6,11.1z M32.5,10.5l1.5-0.2l0.3,2.7l-2.8,0.4
			l-0.4-2.7l1-3.3l1.2-0.2L32.5,10.5z"/>
		<path class="st3" d="M41.8,8.7c-1.8,0.2-2.3,0.4-2.5,0.4s-0.2,0-0.2-0.2l-0.2-1.3c0-0.2,0-0.2,0.2-0.3s0.7-0.1,2.5-0.3l4.9-0.7
			V6.3c-0.1-0.6-0.2-1.2-0.4-1.8c0.7-0.1,1.4-0.2,2.1-0.2c0.2,0,0.3,0.1,0.3,0.2c0,0.1,0,0.3-0.1,0.4c0,0.4,0,0.8,0,1.1v0.1l5.2-0.7
			C55.5,5.1,56.1,5,56.3,5s0.2,0,0.3,0.2l0.2,1.3c0,0.2,0,0.2-0.2,0.2S55.8,6.8,54,7.1l-1.8,0.2C53.6,8,55,8.9,56.3,9.9
			c0.1,0,0.1,0.1,0.1,0.2c0,0.1,0,0.1-0.1,0.3l-0.9,1c-0.2,0.2-0.2,0.2-0.4,0.1c-0.5-0.4-1-0.8-1.5-1.2c-3.3,0.8-8.2,1.7-11.7,2.3
			c-0.2,0-0.5,0.1-0.7,0.2c-0.1,0.1-0.2,0.1-0.3,0.1c-0.1,0-0.2-0.1-0.3-0.2c-0.2-0.4-0.4-1.2-0.6-1.7c0.7-0.1,1.4-0.1,2-0.2
			c0.3,0,0.7-0.1,1.1-0.2c0.4-0.7,0.7-1.4,1-2.1L41.8,8.7z M55.2,16.9c0.1,0.9,0.3,2,0.4,2.5c0.1,0.6,0,1.2-0.3,1.7
			c-0.3,0.4-1,0.6-2.7,0.9c-0.6,0.1-0.7,0.1-0.8-0.4c-0.2-0.5-0.4-1-0.8-1.4c0.9-0.1,1.4-0.1,1.9-0.2s0.7-0.2,0.6-0.7l-0.1-0.8
			l-7.9,1.1l0.1,0.9c0.2,1.5,0.3,2.1,0.3,2.2s0,0.2-0.2,0.2l-1.6,0.2c-0.2,0-0.2,0-0.2-0.2s-0.1-0.8-0.3-2.2l-0.7-5
			c-0.2-1.5-0.3-2.2-0.3-2.3s0-0.2,0.2-0.3s0.8-0.1,2.7-0.3l6.1-0.9c1.9-0.3,2.6-0.4,2.7-0.4s0.2,0,0.2,0.2s0.1,0.9,0.3,2.4
			L55.2,16.9z M44.8,14.6l0.1,1l7.9-1.1l-0.1-1L44.8,14.6z M53.2,17.1l-0.1-1l-7.9,1.1l0.1,1L53.2,17.1z M46.6,8.1
			c-0.3,0.7-0.6,1.4-1,2c2-0.3,4.2-0.7,6.1-1.1c-0.4-0.2-0.8-0.4-1.2-0.6c-0.2-0.1-0.2-0.1,0-0.3L51,7.4L46.6,8.1z"/>
		<path class="st3" d="M73.3,7.6c0-0.5-0.1-0.9-0.2-1.3c0.8,0.1,1.6,0.2,2.4,0.5c0.2,0.1,0.3,0.3,0.2,0.5c0,0,0,0,0,0
			c-0.1,0.3-0.2,0.5-0.2,0.8c0,0.9-0.1,1.8-0.2,2.6c1.2,0.4,2.3,0.9,3.3,1.5c0.2,0.1,0.2,0.2,0.2,0.4c-0.1,0.5-0.4,1.4-0.6,1.8
			c0,0.1-0.1,0.1-0.2,0.2c-0.1,0-0.2,0-0.3-0.1c-0.9-0.6-1.9-1.1-2.8-1.5c-0.5,2.2-1.7,4.2-3.3,5.8c-0.2,0.2-0.2,0.3-0.4,0.3
			c-0.1,0-0.2,0-0.3-0.1c-0.6-0.3-1.2-0.5-1.8-0.6c1.9-1.5,3.2-3.7,3.7-6c-1.3-0.4-2.7-0.7-4.1-0.7c-0.4,1.5-1,3-1.9,4.3
			c-0.5,0.8-1.4,1.3-2.4,1.4C63.3,17.6,62,17,61.8,15c-0.3-2.5,1.9-4.7,5.2-5.2c0.4-1.7,0.7-3.2,1-4.9l-2.7,0.7
			c-0.3,0.1-0.6,0.2-0.9,0.3C64.3,6,64.2,6,64.1,6c-0.1,0-0.3,0-0.3-0.2c-0.4-0.7-0.7-1.4-0.9-2.1c0.6,0,1.2,0,1.8-0.1
			c1-0.2,2-0.4,3-0.7c0.3-0.1,0.7-0.2,0.9-0.5c0.1-0.1,0.2-0.1,0.2-0.1c0.1,0,0.2,0,0.3,0c0.5,0.2,1,0.5,1.5,0.9
			c0.1,0.1,0.2,0.2,0.2,0.3c0,0.1,0,0.2-0.2,0.4c-0.2,0.3-0.3,0.7-0.4,1.1c-0.3,1.4-0.7,3-1.1,4.6c1.3,0,2.7,0.2,4,0.5
			C73.3,9.3,73.3,8.4,73.3,7.6z M63.6,14.6c0.1,0.6,0.3,0.9,0.8,0.8s0.7-0.4,1-0.9c0.5-0.8,0.8-1.7,1.1-2.6
			C64.6,12.2,63.4,13.4,63.6,14.6L63.6,14.6z"/>
		<path class="st3" d="M85,3.2l-1,3.3l-1.2,0.2l0.9-3.3l-1.4,0.2l-0.4-2.7l2.8-0.4L85,3.2z M88.9,2.7l-1,3.3l-1.2,0.2l0.9-3.3
			l-1.4,0.2l-0.4-2.7L88.5,0L88.9,2.7z"/>
		<path class="st3" d="M45.9,41.5c-2.8,1.2-4.6,2.2-6.2,3c-0.2,0.1-0.4,0.2-0.5,0.3c-0.1,0-0.3-0.1-0.5-0.3c-0.3-0.5-0.6-1-0.9-1.5
			c0.4-0.2,0.6-0.3,1-0.5c0.6-0.4,1.2-0.9,1.7-1.4c1.8-1.9,3.4-3.9,4.9-6c-1.2,0.5-2.2,0.8-3.4,1.3c-0.3,0.1-0.4,0.1-0.7,0.3
			s-0.3,0.2-0.5,0.3s-0.4-0.1-0.5-0.4c-0.4-0.6-0.7-1.2-1-1.9c0.7,0,1.3-0.1,2-0.2c1.3-0.3,2.7-0.7,4.4-1.2c0.4-0.1,0.7-0.3,1-0.5
			c0.1-0.1,0.2-0.2,0.4-0.2c0.2,0,0.3,0,0.6,0.2c0.4,0.2,0.8,0.5,1.1,0.9c0.2,0.1,0.3,0.3,0.3,0.5c0,0.2-0.1,0.3-0.3,0.5
			c-0.3,0.2-0.5,0.5-0.7,0.7c-1.8,2.1-3.3,3.8-5.3,5.8l0,0c3-1.3,6.1-2.5,9.3-3.4c0.3-0.1,0.3,0.1,0.4,0.3c0.2,0.5,0.3,1,0.4,1.6
			c0,0.2-0.1,0.3-0.3,0.3c-1.2,0.2-2.4,0.6-3.6,1.1c-2.2,1.1-3.1,2.7-2.9,4.1c0.3,1.9,2.4,2.2,5.3,1.8c0.2,0,0.3,0.1,0.3,0.3
			c0,0.5,0,1.3,0,1.7s-0.1,0.5-0.4,0.5c-0.5,0.1-0.9,0.1-1.4,0.1c-3.8,0.1-5.6-1.3-6-3.8C43.9,44,44.6,42.5,45.9,41.5L45.9,41.5z"/>
		<path class="st3" d="M66.2,33.8c0.1,3-0.3,6-1.3,8.9c-0.4,1.4-1.6,2.5-3.1,2.7c-1.7,0.2-3.8-1.4-4.2-4.6c-0.2-2,0.3-3.9,1.5-5.5
			c1.5-1.9,3.7-3.1,6.1-3.4c4.8-0.6,8,1.9,8.5,5.8c0.5,3.7-1.3,6.3-5.1,8c-0.4,0.2-0.6,0.1-0.9-0.2c-0.4-0.4-1-0.8-1.6-1
			c3.2-1.3,5.7-3,5.2-6.8c-0.3-2.5-2.5-4.3-5-4C66.3,33.9,66.3,33.9,66.2,33.8L66.2,33.8z M60.8,36.5c-0.8,1.1-1.1,2.5-1,3.9
			c0.2,1.8,1.1,2.7,1.7,2.7s0.9-0.4,1.3-1.4c0.8-2.4,1.2-4.9,1.1-7.4C62.7,34.6,61.6,35.4,60.8,36.5z"/>
		<path class="st3" d="M80.8,31.9c0.2-2.1,2-3.8,4.1-3.9c2.8-0.4,4.8,1,5.1,3.2c0.3,1.7-0.7,3.4-2.4,3.8v0.1c1.9,0,3.5,1.4,3.7,3.4
			c0.4,2.7-1.3,4.8-4.2,5.2c-2.5,0.3-4.3-0.4-5.3-2.7l2.3-1c0.6,1.5,1.3,2,2.7,1.8c1.3-0.1,2.2-1.2,2.1-2.5c0-0.1,0-0.3-0.1-0.4
			c-0.2-1.7-1.2-2.6-3.3-2.3l-1.2,0.2l-0.3-2l1-0.1c2-0.3,2.7-1.2,2.4-2.8c0-1.1-0.9-1.9-2-1.8c-0.1,0-0.2,0-0.3,0
			c-1.2,0.1-2,1.2-1.8,2.3c0,0,0,0,0,0L80.8,31.9z"/>
	</g>
</g>
</svg>
