<svg xmlns="http://www.w3.org/2000/svg" viewBox="0 0 61.84 17.18"><defs><style>.cls-1{fill:#e7d453;}.cls-2{fill:#e7d557;}</style></defs><g id="レイヤー_2" data-name="レイヤー 2"><g id="レイヤー_1-2" data-name="レイヤー 1"><polygon class="cls-1" points="0.01 16.28 0.11 16.36 0 16.07 0.01 16.28"/><path class="cls-1" d="M.73,17.18l0-.17A5.14,5.14,0,0,0,.1,15.93a2.23,2.23,0,0,0,.19.79s-.07-.39,0-.31c.09.24,0,.24.13.56s0-.23.11-.16Z"/><path class="cls-1" d="M.45,16.32a3.89,3.89,0,0,0,.18.4A1.36,1.36,0,0,0,.45,16.32Z"/><path class="cls-1" d="M.46,16.22c.07,0,.15.29.18.33L.44,16Z"/><path class="cls-1" d="M.71,16.13v-.06C.65,16,.68,16.06.71,16.13Z"/><path class="cls-1" d="M.78,16c-.11-.16-.08,0-.07.06l0,0c.11.13.27.51.17.44,0,.11-.2-.25-.12,0l.22.26C1.06,16.72.83,16.17.78,16Z"/><path class="cls-1" d="M.71,16.13s0,0,0,0S.72,16.18.71,16.13Z"/><polygon class="cls-1" points="0.57 16.15 0.58 16.24 0.67 16.39 0.57 16.15"/><path class="cls-1" d="M1,15.88c.26.5-.16,0,0,.41.06-.06.32.27.45.54v-.2A3.83,3.83,0,0,0,1,15.88Z"/><path class="cls-1" d="M1.81,17a.33.33,0,0,1,0-.1A.54.54,0,0,0,1.81,17Z"/><path class="cls-1" d="M1.74,16l.1.59a1.16,1.16,0,0,1-.16-.39c-.13,0,.05.3-.05.29-.29-.44.1-.1-.18-.48,0,0-.1.1.09.51l-.26-.26.31.48c.12.12-.16-.43.06-.1s.13.27.13.33c0-.13.37.3.44.17S1.81,16.22,1.74,16Z"/><polygon class="cls-1" points="2.07 16.47 2.2 16.66 2.04 16.41 2.07 16.47"/><path class="cls-1" d="M1.88,15.71l.1.37a1.72,1.72,0,0,1-.17-.22c.07.11.16.32.23.41.31.4,0-.22,0-.33.26.11.14.24.46.61,0,0-.12-.09-.19-.08.4.43.22-.09.2-.24s-.14-.17-.14-.11l0-.18C2.08,15.64,2,15.58,1.88,15.71Z"/><path class="cls-1" d="M1.71,15.83c0-.06.05,0,.09,0C1.72,15.74,1.65,15.66,1.71,15.83Z"/><path class="cls-1" d="M2.56,16.19s0,0,0,0S2.57,16.24,2.56,16.19Z"/><path class="cls-1" d="M2.17,15.72h.09l-.16-.19A.39.39,0,0,0,2.17,15.72Z"/><path class="cls-1" d="M5.09,14.44c-.15-.15-.24-.2-.26-.13-.18-.22-.09-.23-.17-.37s-.22-.25-.41-.44c-.09,0,.13.34,0,.35l-.21-.22c0,.21.06.54-.18.43s-.13.14-.14.31c-.39.13-.54.62-1,.65L3,15.5c-.17-.21-.08.06-.28-.24.06.05,0,0,.06,0-.35-.33-.17.18-.35.1a3.23,3.23,0,0,1,.37.54c-.34-.5-.1.09-.52-.47-.19-.09.29.44.14.42.19.3.19.08.36.3s-.16-.05,0,.26c.27.05.13-.78.23-1.1l.18.29c0-.29.15-.43.58-.07-.22-.23.27,0-.19-.56.13.11.12.08.2.1l-.13-.19c.06,0,.27.24.32.17a1.8,1.8,0,0,1-.39-.53c.29.21.58.37.83.53a3.33,3.33,0,0,0-.26-.24c.11.05-.09-.18-.14-.27s.29.27.42.43-.3-.59-.08-.44l-.22-.23c0-.13.32.08.34-.08.33.29.18.35.26.53s.14,0,.25.13l-.35-.69C4.94,14.57,5,14.45,5.09,14.44Z"/><path class="cls-1" d="M5,14.84l.08.16s0-.06,0-.06Z"/><path class="cls-1" d="M5.09,14.44l0,0S5.1,14.44,5.09,14.44Z"/><path class="cls-1" d="M3.84,14.05h0Z"/><path class="cls-1" d="M4.71,15.22,4.42,15A.55.55,0,0,0,4.71,15.22Z"/><path class="cls-1" d="M3.9,15.41c0,.06.09.12.14.22S4,15.52,3.9,15.41Z"/><polygon class="cls-1" points="5.14 14.81 5.14 14.67 5.11 14.59 5.14 14.81"/><path class="cls-1" d="M5.28,12.34c-.33-.21-.23,0-.35.05,0,.26.58.6.5.76l-.54-.58c-.08.15-.35.2,0,.79a.66.66,0,0,1-.23-.24c0,.1.74.85.45.77-.24-.46-.36-.31-.66-.69l0-.06c0,.1.06.37,0,.39.13.15.38.35.34.42a1.76,1.76,0,0,1,.33.34c-.08-.23,0-.16-.1-.39.22.16,0,.08.25.24l-.11-.23c.08,0,.14.24.24.22-.1-.12-.17-.28-.1-.3l0,.08c0-.11.11-.06-.22-.37l.35.28-.22-.21c.18,0,.72.47.58.08a.59.59,0,0,1-.21-.24c-.19-.09.1.23.08.31-.21-.21-.38-.54-.57-.61.31.18.09-.16.64.34.11,0-.12-.33.08-.29l.08.08c-.34-.35.22.09-.09-.32l-.12,0c-.14-.15-.13-.17-.13-.22l.14.11c-.25-.25-.21-.38-.28-.46s.09.24.12.35C5.43,12.54,5.2,12.34,5.28,12.34Z"/><path class="cls-1" d="M5.42,14.05l-.09-.14A.72.72,0,0,0,5.42,14.05Z"/><path class="cls-1" d="M6.07,12.43c.11,0,.22.22.38.28-.14-.22-.43-.29-.66-.59.19.12,0-.18,0-.21a5,5,0,0,0,.58.53c-.08-.11.13,0,.17,0-.29-.11-.07-.19-.38-.33s-.29-.4-.1-.29.1.13.08.16c.28.27.21.08.48.3-.33-.43-.09-.66-.81-1.14-.15-.08,0,.07,0,.13.19,0,.34.29.45.4-.13-.06,0,.18-.2,0l-.19-.27c-.28.07-.42.35-.52.62l.09-.07a.66.66,0,0,1,.19.32l.46.34c-.06,0,0,.08-.16-.06a1.39,1.39,0,0,0,.42.39c0,.14-.16,0,.06.3.45.21-.19-.35.23-.2Z"/><polygon class="cls-1" points="6.08 12.87 5.89 12.65 5.96 12.78 6.08 12.87"/><path class="cls-1" d="M5.2,12c.1.08.12.13.22.22S5.39,12.09,5.2,12Z"/><path class="cls-1" d="M6.67,12.2l0-.14-.12,0A.5.5,0,0,1,6.67,12.2Z"/><path class="cls-1" d="M5.93,10.78c0,.13.14.34-.17.25a8.91,8.91,0,0,0,.79.66c.11,0-.38-.39-.42-.52.26.18,0-.13.11-.13A2,2,0,0,1,5.93,10.78Z"/><path class="cls-1" d="M7.15,11.23s-.13-.24,0-.18.19.2.13.2c.37.26,0-.1.26,0a.78.78,0,0,1-.18-.13c.17-.06-.25-.3.07-.3a.94.94,0,0,0-.31-.3,4.76,4.76,0,0,0,.69.28c-.15-.1-.5-.31-.8-.53.53.16,0-.2.44-.06,0,0,.07.09,0,.09.44.29,0-.14.11-.13l.36.26c0-.09-.2-.35.12-.22l.17.14c-.19-.32.06-.38,0-.59l.27.09c-.19-.35-.23.07-.72-.42.71.45-.18-.23.16-.13s.08.18.43.34c-.34-.25-.07-.11-.15-.23.33.23.11-.07.47.21l-.52-.57c.21.09.21,0,.18,0s-.49-.34-.71-.34c.07.24,0,.56-.25.62.45.33-.08.11.27.39l-.43-.27c0,.18.27.15.41.29s-.27-.06-.43-.18c-.09.06.11.1.33.31L7,9.57c0,.35.07.92-.41,1l.32.22c-.26,0,.5.73-.23.33l.22.24c-.13-.13-.46-.33-.64-.53.08.12-.06.06,0,.17l.19,0c.22.25,0,.17-.21,0,.22.34.55.37.82.55-.44-.57.65.29.53,0S7.3,11.36,7.15,11.23Z"/><path class="cls-1" d="M6.2,10.74l.06.08Z"/><path class="cls-1" d="M8.35,9.05a.07.07,0,0,0,0-.05C8.28,8.93,8.33,9,8.35,9.05Z"/><polygon class="cls-1" points="6.24 11.04 6.24 11.04 6.24 11.04 6.24 11.04"/><polygon class="cls-1" points="6.91 11.7 6.94 11.67 6.8 11.56 6.91 11.7"/><path class="cls-1" d="M9,8.89l-.17-.1A1.28,1.28,0,0,0,9,8.89Z"/><path class="cls-1" d="M9.75,7.8l0,0S9.76,7.82,9.75,7.8Z"/><path class="cls-1" d="M10.66,4.79a1.11,1.11,0,0,0-.44-.44l.18.08a1.16,1.16,0,0,0-.69-.36l.15.08c.25.2-.33,0-.48,0,.06.13.75.44.54.46,0,0-.18,0-.31-.1s.44.3.48.38c-1.41-.53.29.4-.66.16.08.12-.08.17.15.38-.32-.2-.06.08-.44-.11.79.37-.48.11.53.58-.34,0,.06,0-.24.07-.11,0-.1-.07-.12-.09-.23,0,.4.29-.08.13-.13.08.26.14.5.34-.17.07-.29,0-.74-.16.48.24.21.2.43.38a.36.36,0,0,1,.32.1c-.15.1.25.26.31.46-.56-.19,0-.14-.42-.23-.2-.2-.15-.25-.51-.48-.08.1-.07.27.09.51C9.1,7,9,6.76,8.9,6.79c-.29,0,.44.45.16.43L8.8,7.06c.33.25-.18.18-.05.39a1.05,1.05,0,0,1,.32.16c-.67-.36.26.34-.26.2.42.22.6.46.61.56A2.63,2.63,0,0,1,9,8.16c.3,0-.4-.36-.55-.56.18.2-.11.19.16.43l-.31-.21c-.1.07.69.5.31.43L8.39,8.1c-.09.23-.66.21-.23.69A9.38,9.38,0,0,0,9,9.21a8.34,8.34,0,0,0-.53-.65l.37.23c-.25-.17-.34-.35-.57-.42s.35.15.18,0c.39.23.41.3.73.49L9,8.64c.14.11.15,0,.29.15-.4-.4.29-.06.15-.31l-.11,0c-.22-.12-.17-.15-.22-.22a.77.77,0,0,0,.46.11c-.14-.16-.52-.4-.48-.48.41.25.29,0,.65.18-.41-.24-.07-.23-.31-.37-.06-.08,0-.11.23,0l.06.07,0,0,.09.06s-.28-.19-.05-.13a.25.25,0,0,1,.13.12c.12-.06-.55-.49-.13-.38-.19-.11-.15-.23-.61-.44.17,0,.52.25.5.13-.36-.23.19,0,0-.2.36.28.11.06.46.32.19,0-.29-.32-.16-.37l.3.12c-.12-.1-.41-.29-.07-.18L9.94,6.7c.18,0,.13-.13.46-.07l-.49-.32c.6.14.17-.24-.27-.53a.33.33,0,0,1,.28,0l.17.12c.05-.05.38,0-.05-.21-.11-.12.32.08.42.06-.57-.38.61-.18-.33-.6,0,0-.25.06-.25.18-.1-.08-.3-.13-.31-.18s.37,0,.26-.18l.6.26C11.12,5.3,9.73,4.59,10.66,4.79Z"/><path class="cls-1" d="M10.12,6l.34.06L10.19,6S10.22,6.06,10.12,6Z"/><path class="cls-1" d="M10.19,6a.93.93,0,0,0-.1-.1s0,0,0,.07Z"/><path class="cls-1" d="M10.66,4.46s.09,0,0-.07S10.57,4.41,10.66,4.46Z"/><polygon class="cls-1" points="10.5 4.31 10.39 4.31 10.46 4.34 10.5 4.31"/><path class="cls-1" d="M10.62,2l-.36-.22c.2,0,0-.16.32,0-.44-.19,0-.23-.63-.34.14.39-.34.75.11,1.29L9.81,2.6c.46.36-.65.09.32.58L9.61,3c-.18,0,.7.42.12.33l.21.06s-.1,0-.11,0l.09,0c.2.14.15.17,0,.19s-.06-.06-.1-.09.16.14.14.19a.72.72,0,0,1-.31-.11c.18.23-.39.11.35.49.14.06.28.06.33.14.27,0,0-.21-.19-.38v0c-.74-.34.19,0-.1-.23.29.13.27.19.43.26.63.06-.37-.34.4-.19l0,0c.08,0-.05-.08-.11-.13a.66.66,0,0,0-.24,0A2.67,2.67,0,0,0,10,3.37c.35.07-.14-.1,0-.1s.27.14.43.21l-.19-.13c0-.07.36,0,.54.07-.22-.13-.18,0-.5-.18.41.06.4-.26.14-.49,0,.06.33.12.26.16s-.06-.12-.3-.19,0-.23.25-.25l-.25-.05c-.39-.19.35-.1.15-.3h0c0-.05-.63-.25-.49-.29A5.2,5.2,0,0,0,10.62,2Z"/><path class="cls-1" d="M10.17,1.43l.33.13c.08,0-.34-.2-.56-.24.06.05-.1.05.1.1S10.21,1.46,10.17,1.43Z"/><path class="cls-1" d="M10.32.55A1.84,1.84,0,0,0,10,.47c0,.19.08.44-.2.45-.12,0,.39.17.49.28L10,1.15c.21.09-.2.13.38.22.05,0-.26-.1-.15-.11l.19.05,0-.1.23.09c.38,0-.71-.26-.45-.34l.49.12c.05-.09-.1-.18.21-.19,0,0-.24-.06-.15,0A1.07,1.07,0,0,1,10.3.81c-.35-.22.28.09.51,0-.31-.2-.54-.49-.12-.47-.32,0-.61-.15-.57-.21a1.5,1.5,0,0,1,.44.12c.06,0,.19,0,.12-.07A1.94,1.94,0,0,1,9.88,0C9.54.09,10.42.4,10.32.55Z"/><path class="cls-1" d="M9.92.42l.1,0A.15.15,0,0,1,10,.4Z"/><polygon class="cls-1" points="11.04 13.74 11.11 13.65 10.87 13.85 11.04 13.74"/><path class="cls-1" d="M11.78,12.9l-.13,0a7.73,7.73,0,0,0-.91.9,4.54,4.54,0,0,0,.66-.47s-.32.21-.26.12.2-.12.46-.33-.18.12-.12,0Z"/><path class="cls-1" d="M11.08,13.45l.33-.28A2.06,2.06,0,0,0,11.08,13.45Z"/><path class="cls-1" d="M11,13.49c0-.05.24-.22.28-.26l-.46.36Z"/><path class="cls-1" d="M10.93,13.36l0,0C10.81,13.45,10.87,13.4,10.93,13.36Z"/><path class="cls-1" d="M10.83,13.36c-.14.14,0,.07.05,0l0,0c.12-.12.44-.39.37-.29.09,0-.21.23,0,.07l.22-.25A6.61,6.61,0,0,0,10.83,13.36Z"/><path class="cls-1" d="M10.93,13.36h0S11,13.33,10.93,13.36Z"/><polygon class="cls-1" points="10.94 13.44 11.01 13.4 11.14 13.28 10.94 13.44"/><path class="cls-1" d="M10.74,13.3c.42-.37,0,.1.33-.19,0,0,.24-.31.48-.51l-.16.08A6.14,6.14,0,0,0,10.74,13.3Z"/><path class="cls-1" d="M11.73,12.29a.15.15,0,0,1-.08.05A.25.25,0,0,0,11.73,12.29Z"/><path class="cls-1" d="M10.86,12.75l.49-.29a1.85,1.85,0,0,1-.34.25c0,.09.25-.14.24-.08-.38.36-.08,0-.41.3,0,0,.08,0,.42-.25L11,13l.41-.39c.11-.12-.36.27-.07,0a.82.82,0,0,1,.28-.21c-.11.05.28-.36.18-.36S11.09,12.6,10.86,12.75Z"/><polygon class="cls-1" points="11.32 12.33 11.48 12.17 11.26 12.38 11.32 12.33"/><path class="cls-1" d="M10.69,12.73l.3-.19-.19.19.35-.3c.37-.36-.17.06-.26.09.12-.21.21-.18.55-.53,0,0-.09.11-.09.16.4-.43,0-.12-.17-.05s-.15.15-.1.14l-.15.09C10.65,12.62,10.59,12.72,10.69,12.73Z"/><path class="cls-1" d="M10.76,12.81s0,0,0-.07S10.62,12.91,10.76,12.81Z"/><path class="cls-1" d="M11.16,12.1s0,0,0,0S11.2,12.08,11.16,12.1Z"/><path class="cls-1" d="M10.72,12.54l0-.07-.17.17A.47.47,0,0,0,10.72,12.54Z"/><path class="cls-1" d="M10.28,10.86c-.16.14-.23.22-.17.22-.21.18-.2.12-.33.21a4.72,4.72,0,0,1-.44.41c0,.05.29-.18.27-.09l-.22.2c.17-.07.43-.17.29,0s.09.06.22,0c0,.24.39.21.34.54l.42-.34c-.19.19,0,0-.23.27,0-.05,0,0,0,0-.33.36.11.07,0,.22.07-.07.41-.39.49-.44-.46.41.05.05-.46.52-.09.16.4-.35.36-.24.27-.24.1-.16.29-.35s0,.12.22-.13c.07-.19-.6.18-.84.21l.26-.21c-.23.11-.32,0,.05-.38-.23.22,0-.2-.48.3.11-.13.09-.11.12-.18l-.18.15s.25-.26.2-.28a3.84,3.84,0,0,1-.5.44l.6-.74a2,2,0,0,0-.25.25c.07-.1-.15.11-.24.17a2.8,2.8,0,0,1,.43-.42c.05-.12-.53.38-.37.18l-.23.23c-.09,0,.14-.26,0-.23.31-.32.31-.22.47-.33a1.67,1.67,0,0,1,.16-.21l-.61.42C10.34,10.93,10.26,10.89,10.28,10.86Z"/><path class="cls-1" d="M10.55,10.83l.14-.11s0,0,0,0Z"/><path class="cls-1" d="M10.28,10.86l0,0Z"/><path class="cls-1" d="M9.67,11.87v0h0Z"/><path class="cls-1" d="M10.78,10.92c-.07.09-.15.17-.22.27A1.45,1.45,0,0,0,10.78,10.92Z"/><path class="cls-1" d="M10.76,11.43c.05,0,.12-.1.2-.16S10.87,11.31,10.76,11.43Z"/><polygon class="cls-1" points="10.57 10.72 10.47 10.76 10.39 10.8 10.57 10.72"/><path class="cls-1" d="M8.72,11.17c-.26.29-.05.17-.07.26.21-.07.63-.56.72-.52l-.6.52c.1,0,.06.23.62-.18a1.36,1.36,0,0,1-.25.22c.07,0,.86-.74.72-.51-.42.28-.33.34-.71.65l-.05,0c.07,0,.31-.13.3-.08.15-.14.37-.37.41-.35a4.4,4.4,0,0,1,.35-.33c-.2.12-.11,0-.33.17.18-.2.08,0,.26-.24L9.88,11c0-.06.22-.16.23-.23-.12.1-.27.19-.26.15l.07-.06c-.09,0,0-.06-.34.25l.31-.32-.22.2c0-.12.55-.62.22-.44a.82.82,0,0,1-.23.2c-.13.17.19-.12.25-.12a8.29,8.29,0,0,0-.63.56c.23-.28-.09,0,.45-.55,0-.08-.29.16-.2,0l.08-.08c-.37.33.14-.18-.26.13l-.06.1c-.15.13-.17.13-.21.14l.13-.13a2.48,2.48,0,0,1-.44.3c0,.06.21-.11.3-.15C8.91,11,8.69,11.23,8.72,11.17Z"/><path class="cls-1" d="M10.06,10.71l-.14.1A.53.53,0,0,0,10.06,10.71Z"/><path class="cls-1" d="M9,10.57c0-.08.23-.2.33-.34-.21.15-.35.38-.65.6.15-.16-.15.07-.16.06.16-.13.51-.46.57-.53-.1.08.05-.1,0-.12-.18.24-.16.08-.36.34s-.4.28-.26.12.14-.09.15-.09c.29-.25.13-.16.38-.41-.43.32-.52.17-1.12.79-.11.13.06,0,.1,0a1.92,1.92,0,0,1,.45-.41c-.09.11.14,0-.09.16l-.26.19c0,.19.11.28.3.29l0-.05a1.06,1.06,0,0,1,.31-.2l.4-.41s.05,0-.1.14a4.29,4.29,0,0,0,.43-.4c.1,0-.06.12.24-.1s-.33.21-.09-.12Z"/><polygon class="cls-1" points="9.35 10.48 9.13 10.66 9.25 10.58 9.35 10.48"/><path class="cls-1" d="M8.41,11.3l.23-.2C8.68,11,8.55,11.14,8.41,11.3Z"/><path class="cls-1" d="M9,10.15l-.1,0-.07.09Z"/><path class="cls-1" d="M7.74,10.92c.08,0,.3-.15.13.09.3-.22.5-.48.76-.7,0-.08-.42.35-.54.41.23-.23-.08,0-.05-.07Z"/><path class="cls-1" d="M8.49,9.93s-.22.13-.12,0,.22-.17.19-.13c.33-.31-.08,0,.13-.2,0,0-.09.1-.16.16,0-.13-.31.22-.19,0A1.69,1.69,0,0,0,8,10a6.74,6.74,0,0,0,.46-.56l-.68.67c.32-.43-.13,0,.13-.34,0,0,.09-.06.07,0,.38-.36-.11,0-.06-.07l.34-.3c-.08,0-.33.19-.12-.07l.18-.14c-.31.17-.26,0-.43.06L8.08,9c-.32.17-.05.18-.59.59.6-.58-.24.15,0-.12s.16-.08.42-.36c-.32.29-.11.07-.22.13.3-.27,0-.08.34-.38l-.61.44c.16-.17.11-.17.05-.14s-.45.4-.54.57c.2-.07.4-.05.32.17.41-.37,0,.06.39-.24L7.25,10c.13,0,.21-.22.37-.35s-.15.22-.3.36c0,0,.11-.1.35-.29l-.42.44c.24,0,.69-.13.56.24l.27-.27c-.1.2.71-.47.16.13l.26-.2c-.15.12-.41.4-.62.56.11-.07,0,0,.13,0l.1-.15c.26-.2.13,0-.07.16a4.52,4.52,0,0,0,.69-.7c-.58.41.44-.53.17-.4A2.52,2.52,0,0,0,8.49,9.93Z"/><path class="cls-1" d="M7.8,10.72l.08-.06Z"/><path class="cls-1" d="M7.44,9.18h0C7.33,9.23,7.39,9.2,7.44,9.18Z"/><polygon class="cls-1" points="8.04 10.65 8.04 10.65 8.04 10.65 8.04 10.65"/><polygon class="cls-1" points="8.75 10.05 8.74 10.02 8.62 10.14 8.75 10.05"/><path class="cls-1" d="M7.62,8.68l-.14.13Z"/><path class="cls-1" d="M7.26,8.11v0S7.27,8.1,7.26,8.11Z"/><path class="cls-1" d="M5.86,7.24a2.48,2.48,0,0,0-.5.3l.15-.14a2,2,0,0,0-.59.51l.13-.12c.25-.16-.21.26-.27.38.1,0,.66-.53.57-.37,0,0-.12.13-.23.23s.42-.31.49-.34c-1.08,1,.4-.19-.25.53.12-.05.06.08.31-.09-.29.24,0,.06-.3.35.65-.6-.18.38.63-.38-.17.27.06,0-.07.2-.09.08-.1.07-.12.08-.15.19.38-.29,0,.08,0,.11.22-.19.47-.37,0,.14-.17.23-.48.57.39-.36.24-.15.46-.31a.53.53,0,0,1,.22-.25c0,.12.3-.19.45-.23-.39.43-.06,0-.35.32a3.06,3.06,0,0,0-.56.38c0,.07.14.06.37-.05,0,.08-.21.17-.23.23-.14.23.51-.33.36-.11l-.23.2c.32-.25,0,.15.23.05a1.46,1.46,0,0,1,.25-.25c-.55.52.35-.2,0,.21a1.7,1.7,0,0,1,.65-.47c-.09.1-.24.23-.33.31.16-.24-.42.32-.62.43.21-.14.07.09.35-.12l-.28.25c0,.08.65-.55.43-.26l-.2.19c.11.06-.15.51.37.16.18-.15.53-.55.66-.67-.19.09-.5.33-.68.44l.32-.3a3.23,3.23,0,0,0-.54.46c-.19.12.26-.29,0-.15l.66-.58-.19.13c.14-.11.1-.12.23-.23-.44.32.09-.22-.14-.1l0,.08a.77.77,0,0,1-.24.18,1.32,1.32,0,0,0,.28-.37c-.16.11-.5.41-.53.38.35-.32.14-.23.43-.51-.36.31-.18.05-.39.23s-.07,0,.12-.18l.07,0v0L7.33,8s-.25.22-.1,0A.32.32,0,0,1,7.37,8c0-.1-.59.42-.3.09a4.63,4.63,0,0,0-.59.47c.12-.13.42-.4.33-.39-.32.28.08-.14-.14,0,.35-.27.09-.08.43-.35.1-.14-.35.22-.32.12L7,7.68c-.13.09-.4.31-.15.05l-.22.21c.09-.13,0-.1.19-.36l-.44.36c.39-.46-.06-.15-.47.18a.41.41,0,0,1,.15-.22l.16-.13s.21-.29-.15,0c-.13.07.22-.25.26-.32-.54.41.21-.5-.54.2,0,0-.1.21,0,.21a2.57,2.57,0,0,1-.27.23c-.07,0,.19-.29,0-.21L6,7.46C6.42,6.93,5.24,8,5.86,7.24Z"/><path class="cls-1" d="M6.34,7.76l.21-.26-.2.2S6.4,7.68,6.34,7.76Z"/><path class="cls-1" d="M6.35,7.7l-.12.07s0,0,.07,0Z"/><path class="cls-1" d="M5.67,7.21s0-.08,0,0S5.6,7.27,5.67,7.21Z"/><polygon class="cls-1" points="5.5 7.31 5.44 7.4 5.5 7.35 5.5 7.31"/><path class="cls-1" d="M4.29,6.88,4,7.11c.14-.15-.08,0,.18-.25-.36.3-.09-.08-.56.42.3,0,.19.43.77.16l-.22.17c.47-.3-.32.52.51-.17l-.4.38c-.08.14.64-.49.26,0l.16-.16s-.06.08,0,.09l.06-.07c.19-.13.19-.09.1,0s-.06,0-.11.06.18-.1.19-.08a1.2,1.2,0,0,1-.23.23c.23-.11-.16.32.48-.21.11-.09.18-.21.25-.23.15-.22-.12,0-.31.09h0c-.61.52.11-.15-.19,0,.25-.21.26-.19.4-.3.39-.48-.41.24.12-.34h0c0-.06-.07,0-.14.07a1.79,1.79,0,0,0-.14.18,5.81,5.81,0,0,0-.44.38c.24-.26-.14.1,0-.05A2,2,0,0,1,5,7.22l-.18.13s.23-.27.35-.41c-.2.15-.12.14-.39.36.27-.3.08-.34-.2-.17,0,0,.25-.24.24-.18s-.11,0-.29.21-.12,0,0-.24l-.17.19c-.34.27.15-.29-.08-.17h0s-.51.44-.44.32C4.08,7.06,4.08,7.09,4.29,6.88Z"/><path class="cls-1" d="M3.7,7.11,4,6.88c0-.07-.31.22-.47.38.07,0,0,.09.12,0S3.74,7.08,3.7,7.11Z"/><path class="cls-1" d="M3.33,6.81c-.07.05-.16.15-.23.21.1,0,.29,0,.12.25S3.55,7,3.67,7l-.24.26c.17-.14-.05.18.34-.25,0,0-.2.18-.15.1l.15-.14-.08,0,.19-.17c.21-.3-.57.5-.46.28l.36-.35c0-.06-.15,0,0-.21,0,0-.18.18-.1.12a2.65,2.65,0,0,1-.26.27c-.33.23.22-.2.33-.38-.29.19-.58.31-.32,0-.2.24-.46.43-.46.38a3,3,0,0,1,.33-.3s.1-.15,0-.11A3.34,3.34,0,0,1,2.76,7C2.6,7.31,3.31,6.71,3.33,6.81Z"/><path class="cls-1" d="M3,7.09,3.1,7h0Z"/><path class="cls-2" d="M27.93,5.77s0-.14,0-.12v.12Z"/><path class="cls-2" d="M27.83,5.47a1.68,1.68,0,0,0,0,.38V5.56s0,.05,0,.11,0,0,0-.07-.05-.12-.06,0Z"/><path class="cls-2" d="M26.74,5.28v0Z"/><path class="cls-2" d="M26.07,5.22v0A0,0,0,0,0,26.07,5.22Z"/><path class="cls-2" d="M26,5.05h0S26,5,26,5.05Z"/><path class="cls-2" d="M26.74,5.28l0,0C26.72,5.29,26.73,5.27,26.74,5.28Z"/><path class="cls-2" d="M27.71,5.88v0Z"/><path class="cls-2" d="M27,5.13h0v0Z"/><path class="cls-2" d="M27.24,5.1s0,.13,0,.19V5.1Z"/><path class="cls-2" d="M27.61,5.32v0Z"/><path class="cls-2" d="M26.86,5.11v0Z"/><path class="cls-2" d="M20.57,6.3v0Z"/><polygon class="cls-2" points="20.31 5.6 20.31 5.6 20.31 5.52 20.31 5.6"/><path class="cls-2" d="M25.74,4.87h0Z"/><path class="cls-2" d="M23.84,5c0,.12,0,.16,0,.3A3,3,0,0,0,23.84,5Z"/><path class="cls-2" d="M27.7,5.86h0Z"/><polygon class="cls-2" points="23.84 5.33 23.84 5.33 23.84 5.34 23.84 5.33"/><path class="cls-2" d="M25.26,5V5Z"/><path class="cls-2" d="M25.62,5.16v0Z"/><path class="cls-2" d="M25.08,5.18s0,0,0,0h0S25.08,5.16,25.08,5.18Z"/><polygon class="cls-2" points="24.89 5.18 24.89 5.21 24.9 5.2 24.89 5.18"/><path class="cls-2" d="M21.16,6.23V6.1C21.15,6.2,21.12,6.24,21.16,6.23Z"/><path class="cls-2" d="M27.7,5.8v.06h0Z"/><path class="cls-2" d="M25.11,6.29l0,0S25.1,6.29,25.11,6.29Z"/><path class="cls-2" d="M22.55,6.2v0S22.55,6.22,22.55,6.2Z"/><path class="cls-2" d="M25,6.29a.22.22,0,0,0,0-.1v0Z"/><path class="cls-2" d="M21.15,6.1Z"/><path class="cls-2" d="M21,6.44s0-.18,0-.29,0,.14,0,.23,0-.22.05-.21v.08c0-.15.07,0,.1-.19V5.85s0-.12,0,0a.44.44,0,0,1,0,.09l0-.06c0,.18,0,.06,0,.19,0-.05.05-.2.08-.15s0,.06,0,.21l0-.07c0,.27,0,0,0,.27,0,0,0-.08.09,0V6.06c.06-.17,0,.43.09.2s0-.33.05-.21v.19s0-.28.06-.15,0,.07,0,.09,0-.11,0-.11v.17c.05,0,.09-.15.14-.18a.75.75,0,0,0,0,.15c.06-.08.13,0,.19.12l0-.14s0,.06,0,.09,0-.09,0-.15,0,.09,0,.13c0-.13.11-.27.15-.11v0c0,.06,0-.3.06-.16v0c.07.07.15-.07.2.15,0-.21.07.1.08-.2a1,1,0,0,0,.09.3s0-.19,0-.22v.16l0-.17,0,.19v0s0-.07,0-.12.07.11.07.19l.06-.13a.37.37,0,0,1,0,.12c0-.16,0,.16,0,0V6.18c0,.09.06.09.08.05v.11s.1-.06.16,0a.78.78,0,0,1,0-.26V6.2a1.42,1.42,0,0,1,0-.19.64.64,0,0,1,0,.24l0-.06v.14c0-.1.05.16.06,0v0s.08-.06.12-.07a1.17,1.17,0,0,1,0-.22s.07.15.11.14,0-.12,0-.2c0,.12,0,.11,0,.2s.06,0,.12-.13,0-.07,0-.12,0,.06,0,.12h0c.07-.19.16.37.21.1v0l.05-.14s0,.09,0,.17c.06-.21.1,0,.14-.11,0,.38.14,0,.19.21V6.26c0-.09,0,0,0,.07a.31.31,0,0,1,0-.13c.11-.11.23.13.35.21s0-.46.07-.25v.16c.08-.2.18,0,.26-.16,0,0,0,.08,0,.08s.07,0,.07-.09,0,.09,0,.14,0-.16.06,0a.43.43,0,0,1,0,0c0-.06.05,0,0-.13,0,.07.06-.06.08,0,0-.15.06.08.06-.14,0,.22.06.18.08.07,0,.07,0,.07,0,.17s0,0,0-.17c.05.27.07-.22.11.13A.83.83,0,0,1,25.44,6c0,.22-.07,0-.06.26.06-.1.08-.29.14-.24s0,.1,0,.14.12,0,.16-.11a.13.13,0,0,1,0,.06s0,0,0-.07v0a2,2,0,0,1,0-.39c0,.29.06.07,0,.44a.42.42,0,0,0,0-.13.23.23,0,0,1,0,.13c0-.05,0-.16,0-.16v.13c0-.1,0-.2.06-.16s0,.07,0,.07.07-.26.13-.17,0,.07,0,.26L26,6l0-.09s0-.13.07-.07l0,.08.05,0,0-.07c0-.1,0-.24,0-.19s0,0,0,.11h0c0-.06,0-.12,0-.07s0,.2,0,.24c0-.15.06,0,.06-.21a.76.76,0,0,0,0,.16V5.74a.41.41,0,0,1,0,.14s0-.24,0-.14v0s.07-.08.11,0,0,.05,0,.2c.05,0,.1-.23.15-.19v0c0-.26.05.13.07,0a.44.44,0,0,0,0,.12s.07-.07.12-.16V5.8c0,.06.05,0,.08.06a.84.84,0,0,0,0-.16c.09.39.12-.21.2.11,0,0,0,.06,0,.06l0-.07c0-.11,0-.07,0-.15s0-.13,0-.13a.51.51,0,0,0,0,.25V5.66c0,.2,0-.23,0-.1v.07s0-.12,0-.1,0,.06,0,.17,0-.25.06-.12,0,0,0,.08,0,.11.05.13h0l0,.07v0c0-.35,0-.07.07-.3a.78.78,0,0,0,0,.28.27.27,0,0,1,0,.13c0-.13,0,.09.05-.09a.24.24,0,0,1,0,.13s0-.09,0-.15.1.2.13,0,0-.26.06-.35a.62.62,0,0,1,0,.18c0,.07,0,0,.06,0a.3.3,0,0,0,0,.13s0-.18,0-.11v.2l.05-.19a.56.56,0,0,1,0,.19.31.31,0,0,0,.05-.22l0,0s0,.11,0,.14,0,0,0-.1v0c0-.28-.05,0-.08,0v0a.75.75,0,0,1,0-.2c0-.1,0,.08,0,0a0,0,0,0,1,0,0v.06s0-.14,0-.12-.05.16-.07,0h0c0,.07,0,.15,0,.33l-.05-.37v.15s0,0,0-.08c0,.11,0,.07,0,.17,0-.14-.06.07-.08-.18,0,.12,0,.09,0,.17,0-.26,0,0-.06-.07s0-.06,0-.18c0,.23,0,0-.06,0s0,.07-.06.14-.07-.1-.1-.16v0c0,.18,0,.15-.05.19a1.1,1.1,0,0,1,0-.21h0a.33.33,0,0,1,0,.12V5.11s-.05.16-.09.07a1.73,1.73,0,0,1,0,.45,1.59,1.59,0,0,1,0-.22s0,.06,0,0V5.32c0-.05,0,.1,0,.09l0-.15s0,0,0,0a.28.28,0,0,1-.05-.15.71.71,0,0,1,0,.15s0-.12,0-.17,0,0,0,.15c0,0,0-.07,0-.11s-.07,0,0,.18h0c0,.15-.1-.08-.15,0v0c0,.06-.06,0-.07.14a.32.32,0,0,1,0-.14s0,.09-.05,0,0-.08,0-.06,0-.12-.06,0c0-.13,0-.16,0-.12l0,.09s0,0,0,0V5c-.06-.2-.09.35-.14,0,0,.12,0,.09,0,.22S26.17,5,26.16,5s0,.25-.06.19a.62.62,0,0,1,0,.27.92.92,0,0,1,0-.3s0,0,0,0a.38.38,0,0,0,0-.11v.06c0-.06,0-.06,0-.15a.23.23,0,0,0,0,.12c0-.08-.05,0-.08-.05s0,.1,0,.1,0,.11-.05.14,0-.22,0-.14a.5.5,0,0,1,0-.21c0,.12-.06-.07-.08-.09V4.81s0,0,0,0V5a.1.1,0,0,1,0-.07,3,3,0,0,1,0,.3c0-.06,0,.07-.05-.09.05.05,0-.16,0-.18s0,0,0,0a.07.07,0,0,1,0,0c0-.14,0,.18-.06.18s0-.17,0-.15,0,.15,0,.22,0,0,0,0l0,0c0,.09,0,.08,0,.11s0,0,0-.08c0,.16-.05-.16-.07,0,0-.06,0-.17,0-.21,0,.12,0-.12-.07,0a.34.34,0,0,1,0,.2l.05-.08,0,.17s0-.07,0-.05a.43.43,0,0,0,0,.16c0-.18,0,.11-.07,0V5c0-.13-.06.16-.11.08v.06c0,.11,0,0,0,.06a.84.84,0,0,0,0-.19c0,.07,0,0,0,.19l0-.13c-.05,0,0,.28-.08.25a2,2,0,0,1,0-.26s0,0,0,0,0,.14-.05,0c0,.05,0,.15,0,.14V5.27a.51.51,0,0,0,0,.18c-.05-.31-.11,0-.16-.24a.2.2,0,0,1-.08.08v0c0-.09,0,.28-.06.18s0-.09,0-.15c0-.32-.05,0-.08-.14v0c0-.11-.05.12-.09.1v0a.49.49,0,0,1-.09.27.61.61,0,0,0,0-.19s0,.2,0,.24a2.34,2.34,0,0,1,0-.27h0c0-.17,0,0-.05,0V5.11s0,.23-.08.21v.06c0,.2,0-.11,0,0v-.2s-.06.19-.08.23a1.54,1.54,0,0,1,.06-.31s-.05,0-.06.11,0-.06,0,0,0,.23-.07.23c0-.39-.09-.1-.12-.4-.05.15-.11,0-.18,0,0,.3,0,0,0,.32,0,0,0,0,0,0l-.05-.18c0-.09,0-.07,0-.14s0-.13,0-.21c0,.11,0,.16,0,.12l0,.14c0,.16-.05-.26-.09-.1V4.87s-.09,0-.11.24a.65.65,0,0,1,0-.14c-.06,0-.13.27-.17.12V5s0,.14,0,.07V5s0,.13-.05.09V5c0-.1-.08.21-.13.26a.58.58,0,0,0-.07-.33v0c-.07,0-.11.19-.17.27,0-.24-.13-.1-.19-.23a.66.66,0,0,1,0,.2s0,.15,0,0h0c0-.2,0-.14-.06-.15V5.2c-.07-.38-.16.15-.2-.2,0,.07,0,.07,0,.14V5s-.06,0-.11,0v-.1s0,.41,0,.42V5.08c-.05,0-.1-.18-.15,0a.28.28,0,0,1,0-.1S22,4.85,22,5.14c0-.19-.05,0-.08.06V5.06a.74.74,0,0,1-.05.28s0-.11,0-.08,0,.14-.05.06V5.23s0,0,0,.14,0,0,0-.16c0,.08,0,.18,0,.15a.32.32,0,0,1,0-.1c0-.09-.06.17-.09,0s0-.07,0-.08.06,0,.06,0a1.67,1.67,0,0,1,0-.33c0,.1-.05.31-.08.25V5.1h0s0,0,0,0,0,0,0,0,0-.06,0-.06a1.55,1.55,0,0,0,0,.23s0,0,0,0v0h0c0,.07,0,.13,0,0l0,.23c0-.2-.06-.3-.06-.42,0,.08-.1,0-.12.31,0,0,0-.07,0-.11s0,0,0-.06-.07,0-.08.21c0-.09,0-.17,0-.14V5.22c-.08-.29-.13.47-.22.09a.17.17,0,0,1,0,.07c-.1-.17-.21.15-.31-.11,0,0,0,.06-.05.15V5.27l0,.18c0,.13-.08-.37-.13-.13v.1s-.06.06-.05-.06,0,.11,0,.06V5.34l0,.13s0-.31-.05-.33a.84.84,0,0,0-.05.29s0,.05,0,.13l0,0a2.48,2.48,0,0,0,0,.63l0-.14V6.2h0c0,.1,0,0,0,0s0,.1,0,.12l0-.22a1.48,1.48,0,0,0,0,.23,2.1,2.1,0,0,1,0-.27c0,.1,0,.19,0,.1a.35.35,0,0,1,0,.12c0-.07,0,0,.05-.15,0,.13.05,0,.05.18a.6.6,0,0,1,0-.18c0,.27.06,0,.05.3,0-.24.07-.1.1-.24,0,0,0,.06,0,0a.4.4,0,0,1,0,.13A1.47,1.47,0,0,1,20.84,6a2.77,2.77,0,0,1,0,.41c0-.15,0-.15,0-.29,0,.12,0,.06,0,.22,0-.24,0,0,0-.19,0,.12,0,.23,0,.16A.54.54,0,0,1,21,6.44ZM21.63,6Zm.06,0h0s0-.1,0-.09A.44.44,0,0,0,21.69,6Zm-.13-1s0,0,0,0l0,0V5Z"/><path class="cls-2" d="M21.55,5.22h0v0Z"/><path class="cls-2" d="M26.75,5.31h0v0Z"/><polygon class="cls-2" points="22.49 6.27 22.49 6.24 22.48 6.27 22.49 6.27"/><path class="cls-2" d="M27.09,5.77v0Z"/><path class="cls-2" d="M27.23,5.79l0,0Z"/><path class="cls-2" d="M27.34,5.86V5.8h0Z"/><path class="cls-2" d="M25.66,6.1h0S25.66,6.12,25.66,6.1Z"/><path class="cls-2" d="M26.15,5.75v.07S26.15,5.83,26.15,5.75Z"/><polygon class="cls-2" points="25.11 6.29 25.11 6.29 25.11 6.29 25.11 6.29"/><path class="cls-2" d="M26.11,5.82s0,0,0,0S26.12,5.8,26.11,5.82Z"/><path class="cls-2" d="M27.81,5.89h0v0Z"/><path class="cls-2" d="M27.81,5.87v0Z"/><path class="cls-2" d="M27.82,5.82v0S27.82,5.86,27.82,5.82Z"/><path class="cls-2" d="M27.66,5.83v0Z"/><path class="cls-2" d="M27.62,5.85s0,.11,0,.08v0C27.66,6,27.62,5.77,27.62,5.85Z"/><path class="cls-2" d="M27.4,5.24l0,0s0-.12,0-.14S27.44,5.25,27.4,5.24Z"/><path class="cls-2" d="M27.28,5.16s0-.07,0-.1S27.26,5.12,27.28,5.16Z"/><path class="cls-2" d="M26.49,5.21V5.08S26.49,5.13,26.49,5.21Z"/><polygon class="cls-2" points="26.37 5.87 26.39 5.95 26.39 5.83 26.37 5.87"/><polygon class="cls-2" points="26.24 4.97 26.25 4.95 26.23 5 26.24 4.97"/><path class="cls-2" d="M24.92,5.06v.16S24.94,5,24.92,5.06Z"/><path class="cls-2" d="M24.35,5.23c0-.08,0-.13,0-.05S24.35,5.25,24.35,5.23Z"/><polygon class="cls-2" points="22.63 5.01 22.64 4.95 22.62 5 22.63 5.01"/><path class="cls-2" d="M30.36,13.39c0-.05,0-.14,0-.12l0,.16Z"/><path class="cls-2" d="M30.13,13.08a.63.63,0,0,0-.05.38c0-.16,0-.1.08-.29,0,0,.06.06.06.12s.05,0,.06-.07-.1-.13-.15,0A.41.41,0,0,1,30.13,13.08Z"/><path class="cls-2" d="M26.92,12.88l0,0Z"/><path class="cls-2" d="M24.93,12.83s0,0,0,0A.05.05,0,0,0,24.93,12.83Z"/><path class="cls-2" d="M24.59,12.65h0Z"/><path class="cls-2" d="M26.92,12.88l-.05-.05C26.86,12.89,26.89,12.87,26.92,12.88Z"/><path class="cls-2" d="M29.7,13.49a.05.05,0,0,0,0,0h0Z"/><path class="cls-2" d="M27.79,12.73h0v-.07Z"/><path class="cls-2" d="M28.46,12.7a1.54,1.54,0,0,0,0,.19.29.29,0,0,1,0-.1A.34.34,0,0,0,28.46,12.7Z"/><path class="cls-2" d="M29.53,12.92l0,0Z"/><path class="cls-2" d="M27.31,12.71v-.05A.11.11,0,0,1,27.31,12.71Z"/><path class="cls-2" d="M29.65,12.3v0S29.66,12.3,29.65,12.3Z"/><polygon class="cls-2" points="30.34 13.09 30.33 13.1 30.32 13.17 30.34 13.09"/><path class="cls-2" d="M24,12.48Z"/><path class="cls-2" d="M19.93,13.7c-.08-.11.08-.17,0-.3C19.91,13.46,19.84,13.63,19.93,13.7Z"/><path class="cls-2" d="M29.68,13.47h0Z"/><polygon class="cls-2" points="19.9 13.4 19.89 13.4 19.88 13.39 19.9 13.4"/><path class="cls-2" d="M22.54,12.59a.35.35,0,0,0,0,.06A.18.18,0,0,0,22.54,12.59Z"/><path class="cls-2" d="M23.61,12.77l0,0S23.6,12.77,23.61,12.77Z"/><path class="cls-2" d="M22,12.8s0,0,0,0v0S22,12.78,22,12.8Z"/><polygon class="cls-2" points="21.41 12.81 21.42 12.84 21.44 12.83 21.41 12.81"/><path class="cls-2" d="M27.87,12.21a.69.69,0,0,1,0,.13C27.89,12.24,28,12.21,27.87,12.21Z"/><path class="cls-2" d="M29.69,13.41s0,.05,0,.06h0A.07.07,0,0,0,29.69,13.41Z"/><path class="cls-2" d="M22,13.91l-.09,0Z"/><path class="cls-2" d="M23.68,12.2l0,0Z"/><path class="cls-2" d="M21.62,13.92a.3.3,0,0,0-.05-.1s0,0,0,0Z"/><path class="cls-2" d="M27.89,12.34Z"/><path class="cls-2" d="M28.52,12.05c-.08,0-.05.18-.08.28s0-.13-.07-.23-.13.21-.18.2,0-.05,0-.08c-.08.14-.21,0-.3.17a.09.09,0,0,1,0-.05,2.24,2.24,0,0,1,0,.26s-.08.11-.09,0,0-.05,0-.08l0,.05c0-.18.06-.06.06-.19-.08.05-.18.19-.24.14s.15,0,.07-.2l.1.07c-.06-.28.05,0,0-.27-.12-.06-.14.08-.27,0s0,.14,0,.23c-.19.16-.12-.43-.26-.21s-.06.33-.15.21l0-.19c-.12,0-.08.27-.21.14,0-.08.1-.06.09-.09s-.07.11-.13.11v-.17c-.13,0-.28.14-.42.17a.22.22,0,0,0,0-.16.65.65,0,0,1-.56-.13l-.07.14s0-.06,0-.09,0,.09,0,.15-.05-.08,0-.13c-.13.13-.35.27-.47.11l0,0c-.1-.06-.11.3-.2.16l0,0c-.22-.06-.45.07-.62-.15,0,.22-.22-.08-.22.21-.13-.14-.09-.19-.27-.29s-.06.19-.12.22v-.15l-.07.16-.05-.18-.05,0a.16.16,0,0,1,.05.11c-.08.07-.21-.1-.21-.17l-.2.14c0-.07,0-.09.06-.13-.1.16,0-.16-.12,0s0,.09,0,.12a.16.16,0,0,0-.24,0v-.11a2.72,2.72,0,0,0-.47.08c.06.05.06.23,0,.25l0-.16c0,.1.06.06,0,.19s0-.19,0-.24l-.07.06s0-.07,0-.14c0,.11-.15-.15-.18,0v-.05a2.51,2.51,0,0,0-.37.09c0,.14-.05.12-.08.23s-.22-.13-.34-.11,0,.12,0,.21c0-.13-.14-.11-.08-.2a.71.71,0,0,0-.35.16s.05.07,0,.12-.08,0-.08-.11h0c-.18.21-.51-.32-.64,0v0l-.15.16c-.08,0,0-.1,0-.17-.15.24-.29,0-.42.17-.17-.35-.4.09-.59-.12l0,.09c0,.09-.05-.05-.09-.06s.06.07,0,.12a.6.6,0,0,1-.19.06l.11,1.14a4.54,4.54,0,0,1,.84.22c.13,0,.06-.46.22-.25l0,.16c.25-.2.52,0,.76-.17,0,0,0,.09,0,.09s.19,0,.19-.1,0,.09,0,.14.12-.16.15,0,0,0,0,0,.16,0,.13-.13c.09.07.17-.06.25,0,0-.16.16.07.17-.15,0,.23.17.18.22.07,0,.07.06.07,0,.17a.13.13,0,0,0,.12-.16c.13.26.24-.23.32.12A2.37,2.37,0,0,1,23,13.6c0,.23-.2,0-.19.26.17-.09.26-.29.43-.24s0,.1,0,.14c.17-.09.33,0,.48-.11a.08.08,0,0,1,0,.06s.07,0,.07-.07l0,0c-.05-.15.11-.31.12-.39-.05.29.15.07.07.44a.16.16,0,0,0,0-.13s0,.05,0,.13.07-.16.17-.16a.79.79,0,0,1,0,.13c.05-.1.09-.2.18-.16s0,.07,0,.07c.14,0,.23-.26.39-.17,0,.21.05.07.06.25l.08,0,0-.09c.07,0,.13-.14.2-.08l-.06.08.14,0-.08-.07c.07-.09,0-.23.09-.18s.07,0,.11.11h0c0-.06.07-.13.12-.08a2.26,2.26,0,0,1,0,.25c0-.16.17,0,.21-.22a.3.3,0,0,0,0,.16l0-.13a.15.15,0,0,1,0,.14c.1,0,0-.24.09-.14s0,0,0,.05.24-.08.35,0-.1.05-.06.2c.16,0,.33-.23.48-.18l0,0c0-.26.12.13.2,0s0,.14,0,.12.22-.07.37-.16v.07c.06.06.16,0,.23.06s.06-.06,0-.16c.22.39.39-.21.58.11,0,0-.05.06,0,.06l.16-.07c0-.11,0-.07-.06-.16s.06-.12.1-.12,0,.19,0,.25a.4.4,0,0,1,0-.11c.08.2,0-.23.12-.1v.06s.07-.11.12-.09,0,.06,0,.17.12-.25.18-.12-.07,0-.1.07.08.12.12.14h0l.11.07,0,0c.07-.35.16-.07.26-.3-.1.22,0,.13,0,.28s.07.09.06.13c.05-.12.09.09.16-.09,0,.05.05,0,0,.13.07,0,0-.08,0-.15s.24.2.38,0,.15-.26.26-.34,0,.17,0,.17.11.06.17,0,0,.08,0,.14,0-.18.1-.11a.84.84,0,0,1-.05.2c.06,0,.11-.14.17-.19s0,.13-.05.19.17-.08.19-.22l-.05,0s0,.11,0,.14-.08-.05-.09-.1l0,0c0-.28-.16.05-.25,0l0-.2-.09.17s0-.17,0-.2-.05.07-.11,0v0l-.05.07c0-.05,0-.15,0-.12s-.17.16-.21,0h0c-.15.07,0,.15-.12.33l-.08-.37V13s-.05,0,0-.08c-.06.11,0,.07,0,.17-.08-.14-.2.07-.22-.18,0,.12.07.09,0,.17,0-.26-.09,0-.15-.07s.08-.06,0-.18c0,.23-.13-.05-.19,0,0,.19-.12.08-.21.14s-.18-.09-.27-.16v0c0,.19-.1.15-.17.19a.41.41,0,0,1,.05-.2h-.06a.13.13,0,0,1-.07.11v-.13c-.08,0-.16.16-.27.07,0,.13.09.36,0,.44s0-.18,0-.21,0,.06-.06,0l0-.12c0-.05,0,.1-.06.09s0-.07,0-.15,0,0,.05,0a.21.21,0,0,1-.12-.15c0,.06,0,.13,0,.15s0-.12-.08-.17-.07,0-.07.15c0,0,0-.07,0-.11s-.2,0-.15.18h0c-.14.15-.29-.08-.43,0v-.05c-.08.06-.18,0-.24.14s-.06-.09-.05-.14-.07.09-.16,0,0-.08.06-.06c-.08-.05-.1-.12-.19,0,0-.13-.06-.16-.1-.12l.06.09a.17.17,0,0,1-.12,0l0-.17c-.18-.2-.3.35-.43,0-.05.11.09.08.05.21s-.16-.25-.19-.25-.09.24-.2.18,0,.22-.05.27-.1-.24-.05-.29,0,0,0,0a.08.08,0,0,0,0-.11v.06c0-.06-.15-.05-.12-.15-.06.06,0,.1,0,.13-.1-.09-.16,0-.26-.06s0,.1,0,.1-.07.12-.17.14,0-.21-.08-.13,0-.16,0-.21c-.1.12-.18-.07-.23-.09l.05-.05a.1.1,0,0,1-.08,0l0,.12s-.06,0-.06-.07,0,.19,0,.3c0-.06-.11.07-.13-.09.12,0,0-.16.09-.18a.08.08,0,0,1-.08,0l0,0c-.12-.14,0,.18-.17.18s0-.17-.05-.15,0,.15,0,.22-.08,0-.12,0l0,0c0,.09,0,.08-.1.11s0-.05,0-.08c-.06.16-.14-.16-.22-.05,0-.06,0-.17,0-.21-.09.12-.11-.12-.2,0s0,.09,0,.21l.15-.09-.1.18c.05,0,.11-.08.13-.06s0,.07,0,.17c-.07-.18-.13.1-.21,0v-.29c-.12-.13-.21.15-.36.08l0,0c0,.12-.09,0-.14.07a.37.37,0,0,0-.05-.2c0,.08-.11,0-.12.2l-.07-.13c-.12-.05-.13.28-.25.25,0-.11,0-.18.06-.26s-.07,0-.07,0-.11.14-.15.05,0,.14-.06.14v0s-.07.06,0,.17c-.12-.3-.33,0-.44-.23a1.29,1.29,0,0,1-.26.08s0-.05,0,0-.06.28-.19.18.07-.09,0-.15c0-.32-.15.05-.23-.14l0,0c-.07-.11-.15.13-.25.11v0a.51.51,0,0,1-.3.27c0-.13,0-.07,0-.2s0,.21-.07.25a.81.81,0,0,1-.1-.27h.08c0-.17-.1,0-.15,0v-.08c-.13,0-.13.23-.26.21V13c-.07.2-.06-.1-.13,0l0-.2a1.43,1.43,0,0,1-.25.24.85.85,0,0,1,.21-.32c-.05,0-.17,0-.19.12s0-.07.06,0-.13.24-.23.23c0-.23-.09-.21-.18-.23l.08.78a.17.17,0,0,1,.16.13c.15-.16.34,0,.53,0-.11-.29.06,0,0-.32,0,0,.06,0,.07,0l.16.16c0,.09,0,.08,0,.14s.06.13.14.2c0-.11,0-.16.07-.13l-.1-.13c.12-.18.16.24.27.06l0,.1c.07-.06.26,0,.3-.28,0,0,0,.11,0,.14.17,0,.35-.31.5-.17v.08s0-.15.09-.08,0,.08,0,.08.07-.14.12-.1l0,.08c.18.08.24-.22.38-.29a.33.33,0,0,0,.22.31v0c.2,0,.32-.21.49-.31.13.23.39.07.58.2a.21.21,0,0,1,0-.2s.1-.16.11.05h0c.05.2.13.14.2.14v-.26c.19.37.46-.16.57.18,0-.07.09-.07.13-.14v.14a.44.44,0,0,0,.32,0l0,.11c.08,0,.09-.42.17-.43l0,.22c.14,0,.29.17.43,0,0,0,0,.09,0,.1s.27.14.24-.15c0,.19.15,0,.23-.06v.14c.06-.18.07-.23.16-.28s0,.11,0,.08.06-.13.15-.06l0,.09c.08,0,.07,0,.11-.14s.15,0,.16.16c0-.08.05-.18.09-.14a.1.1,0,0,1,0,.09c.13.1.19-.16.28,0s0,.07,0,.08-.18,0-.17,0,.08.15,0,.33c.07-.1.18-.3.26-.24v.06s0,0,0,0l.06,0c0,.1.09.06.13.06s.06-.11,0-.23,0,0,0,0h-.12c0-.07.07-.13.11,0l.07-.23c.05.2.15.31.16.43.12-.07.29,0,.38-.3,0,0,0,.08,0,.12s0,0-.06.06.21,0,.23-.2c.09.09-.06.17.07.14l0,.06c.22.31.41-.45.65-.05a.19.19,0,0,1,0-.07c.28.18.63-.11.9.18.08.06.1,0,.16-.14v.15l.1-.16c.14-.11.18.39.36.17v-.1c.06,0,.19,0,.16.07s0-.1.05,0v.08l.16-.12c.1.07-.06.31.09.35a.45.45,0,0,0,.19-.27s-.06,0-.05-.13l.06,0a.88.88,0,0,0,0-.64l-.11.13,0-.12h.08c0-.11-.07,0-.11,0a.39.39,0,0,0,0-.13l-.12.21c0-.09.06-.17,0-.23-.06.1,0,.21-.07.26,0-.11,0-.19-.07-.11a.19.19,0,0,1,0-.12c-.06.07-.13,0-.17.14,0-.14-.16,0-.13-.21,0,.06-.1.17-.15.17.11-.25-.16,0-.11-.31-.08.23-.22.08-.33.2s0-.05,0,0-.07-.1-.1-.14c0,.19-.12.23-.18.34-.06-.19.06-.22.05-.41,0,.16-.13.15-.12.29a.52.52,0,0,1-.06-.23c0,.24-.05,0-.11.18-.07-.12,0-.23-.09-.16C28.44,12.13,28.52,12.05,28.52,12.05Zm-2.08.32Zm-.17,0h.07s0,.1,0,.09S26.29,12.41,26.27,12.37Zm.33,1s0,0,0,0l.05,0v0A.15.15,0,0,1,26.6,13.35Z"/><path class="cls-2" d="M26.66,13.17h0l0,0v0Z"/><path class="cls-2" d="M26.94,12.91h0v0Z"/><polygon class="cls-2" points="23.87 12.12 23.87 12.16 23.89 12.13 23.87 12.12"/><path class="cls-2" d="M27.9,13.37a.06.06,0,0,0,0,0S27.9,13.38,27.9,13.37Z"/><path class="cls-2" d="M28.3,13.39l.06,0Z"/><path class="cls-2" d="M28.62,13.46V13.4h0Z"/><path class="cls-2" d="M23.64,13.71h0S23.62,13.74,23.64,13.71Z"/><path class="cls-2" d="M25.12,13.36l-.05.07S25.12,13.44,25.12,13.36Z"/><polygon class="cls-2" points="21.99 13.91 21.99 13.91 21.98 13.91 21.99 13.91"/><path class="cls-2" d="M25,13.42s.05,0,.07,0S25,13.4,25,13.42Z"/><path class="cls-2" d="M30,13.5h0v0Z"/><path class="cls-2" d="M30,13.48l0,0Z"/><path class="cls-2" d="M30,13.43l0,0S30,13.47,30,13.43Z"/><path class="cls-2" d="M29.56,13.44v0Z"/><path class="cls-2" d="M29.43,13.46s.08.11.12.07v0C29.54,13.57,29.46,13.37,29.43,13.46Z"/><path class="cls-2" d="M28.9,12.84l.1,0c0-.06,0-.13,0-.14C28.87,12.58,29,12.86,28.9,12.84Z"/><path class="cls-2" d="M28.57,12.76c.05,0,0-.07,0-.11S28.53,12.72,28.57,12.76Z"/><path class="cls-2" d="M26.2,12.81v-.13C26.16,12.7,26.21,12.73,26.2,12.81Z"/><polygon class="cls-2" points="25.77 13.47 25.81 13.55 25.83 13.44 25.77 13.47"/><polygon class="cls-2" points="25.48 12.57 25.5 12.55 25.43 12.6 25.48 12.57"/><path class="cls-2" d="M21.51,12.69l0,.15S21.56,12.64,21.51,12.69Z"/><path class="cls-2" d="M19.8,12.88c0-.08-.07-.13-.1-.05S19.78,12.9,19.8,12.88Z"/><polygon class="cls-2" points="23.47 13.4 23.44 13.46 23.5 13.41 23.47 13.4"/><polygon class="cls-1" points="41.12 11.09 41.19 11.11 41.01 11.01 41.12 11.09"/><path class="cls-1" d="M41.8,11.38l-.06-.07c-.53-.26-.37-.2-.77-.37a3.79,3.79,0,0,0,.45.3s-.21-.15-.14-.13l.32.22c.17.06-.12-.09,0-.08Z"/><path class="cls-1" d="M41.29,11.07l.25.14A1.66,1.66,0,0,0,41.29,11.07Z"/><path class="cls-1" d="M41.24,11s.2.1.23.11L41.13,11Z"/><path class="cls-1" d="M41.3,11l0,0C41.21,10.93,41.26,11,41.3,11Z"/><path class="cls-1" d="M41.27,10.93c-.12,0-.06,0,0,0h0c.1,0,.35.16.27.15s-.19-.08,0,0l.21.08A3.45,3.45,0,0,0,41.27,10.93Z"/><path class="cls-1" d="M41.3,11h0S41.33,11,41.3,11Z"/><polygon class="cls-1" points="41.25 10.99 41.3 11.03 41.4 11.08 41.25 10.99"/><path class="cls-1" d="M41.27,10.87c.34.16-.05,0,.21.14a1.68,1.68,0,0,1,.44.16l-.09-.08Z"/><path class="cls-1" d="M42.16,11.19l0,0Z"/><path class="cls-1" d="M41.63,10.82,42,11a1,1,0,0,1-.25-.11c-.06,0,.16.1.12.1-.33-.12,0,0-.3-.14,0,0,0,0,.27.16L41.56,11l.36.14c.1,0-.27-.14,0,0a.78.78,0,0,1,.21.1c-.07-.05.29.06.27,0A7.3,7.3,0,0,0,41.63,10.82Z"/><polygon class="cls-1" points="42.02 10.96 42.16 11.01 41.98 10.94 42.02 10.96"/><path class="cls-1" d="M41.57,10.73l.22.11-.17-.05.29.1c.33.1-.09-.08-.15-.11.16,0,.18.06.49.13,0,0-.09,0-.12,0,.38.08.06-.08,0-.12s-.14,0-.11,0l-.11-.06C41.62,10.68,41.54,10.67,41.57,10.73Z"/><path class="cls-1" d="M41.56,10.79s0,0,0,0S41.46,10.74,41.56,10.79Z"/><path class="cls-1" d="M42.09,10.78s0,0,0,0S42.12,10.8,42.09,10.78Z"/><path class="cls-1" d="M41.69,10.69h0l-.16,0Z"/><path class="cls-1" d="M42.26,9.69c-.14,0-.2.05-.17.07-.19,0-.16,0-.27,0a2.18,2.18,0,0,1-.39.08s.23,0,.19,0l-.2,0c.12,0,.3,0,.15.09s0,.05.1.08c-.1.11.1.25-.1.34l.36.08c-.18,0,0,0-.24,0,0,0,0,0,0,0-.32,0,0,.08-.11.08l.42.1c-.39-.09,0,0-.46-.06-.11,0,.35.09.28.11.23.06.12,0,.29,0s-.08,0,.16.08-.32-.28-.44-.37l.22,0c-.15-.07-.16-.14.21-.16-.21,0,.12-.07-.37-.09a.33.33,0,0,0,.14,0h-.16s.24,0,.23,0a2.09,2.09,0,0,1-.44,0,4.55,4.55,0,0,0,.62-.12l-.23,0c.08,0-.12,0-.19,0a1.87,1.87,0,0,1,.39,0c.08-.05-.43,0-.26-.06l-.22,0c-.05,0,.18-.08.1-.11.28-.06.25,0,.38,0a1.07,1.07,0,0,1,.17-.06h-.5C42.27,9.76,42.24,9.71,42.26,9.69Z"/><path class="cls-1" d="M42.43,9.79h.12s0,0,0,0Z"/><path class="cls-1" d="M42.26,9.69h0Z"/><path class="cls-1" d="M41.55,10h0Z"/><path class="cls-1" d="M42.52,10l-.23,0A.47.47,0,0,0,42.52,10Z"/><path class="cls-1" d="M42.28,10.26h.17S42.39,10.25,42.28,10.26Z"/><polygon class="cls-1" points="42.48 9.73 42.4 9.71 42.34 9.7 42.48 9.73"/><path class="cls-1" d="M41.25,9.49c-.23.12-.08.08-.11.12.14,0,.52-.21.56-.17l-.49.18s0,.1.41,0a1.05,1.05,0,0,1-.21.06s.73-.19.57-.09a4.71,4.71,0,0,0-.62.16h0s.21,0,.19,0a1.9,1.9,0,0,1,.35-.06,2.59,2.59,0,0,1,.31-.07c-.15,0-.06,0-.24,0a1.41,1.41,0,0,0,.22-.06L42,9.6s.18,0,.21-.06-.22,0-.2,0h.06c-.07,0,0,0-.27,0l.27-.1-.19.06c.06-.06.51-.23.25-.21a.56.56,0,0,1-.2.06c-.12.07.16,0,.19,0a3.71,3.71,0,0,0-.53.17c.21-.1-.05,0,.41-.22,0-.05-.21,0-.12-.05l.07,0c-.3.12.13-.09-.19,0l-.06,0c-.13.06-.14,0-.16,0l.1,0c-.22.09-.26.08-.33.11s.15,0,.22,0Z"/><path class="cls-1" d="M42.18,9.51l-.11,0Z"/><path class="cls-1" d="M41.56,9.18s.19-.09.27-.16c-.16.06-.29.18-.51.28.12-.08-.11,0-.12,0s.4-.22.46-.25,0-.06,0-.08c-.15.13-.12,0-.29.18s-.29.14-.17.05.09-.05.1,0c.23-.13.11-.09.31-.22a2.5,2.5,0,0,0-.81.42c-.09.06,0,0,0,0a2.92,2.92,0,0,1,.34-.23c-.07.07.1,0-.08.09l-.19.1c-.06.11,0,.14.12.16a0,0,0,0,0,0,0,.91.91,0,0,1,.23-.09l.33-.19s0,0-.09.07a1.79,1.79,0,0,0,.34-.18c.08,0-.06.07.18,0s-.25.07,0-.1Z"/><polygon class="cls-1" points="41.79 9.17 41.62 9.25 41.71 9.22 41.79 9.17"/><path class="cls-1" d="M41,9.53l.19-.09S41.17,9.46,41,9.53Z"/><path class="cls-1" d="M41.64,8.93h-.07l0,.06Z"/><path class="cls-1" d="M40.75,9.35s.19-.09,0,0c.21-.13.38-.27.57-.39,0-.05-.31.19-.39.23.17-.13,0,0,0,0Z"/><path class="cls-1" d="M41.32,8.77s-.15.08-.08,0,.15-.11.13-.08c.23-.2,0,0,.1-.13a.42.42,0,0,1-.12.1c0-.08-.2.15-.11,0a1.28,1.28,0,0,0-.22.18c.17-.2.18-.18.32-.37l-.46.45c.22-.28-.07,0,.1-.21,0,0,.06,0,0,0,.25-.25-.06,0,0,0l.22-.22c-.05,0-.21.15-.07,0l.1-.1c-.19.13-.16,0-.26.07l.11-.15c-.2.14,0,.12-.36.42.36-.41-.14.12,0-.06s.1-.07.26-.27c-.2.21-.07,0-.14.1.18-.2,0-.05.21-.27l-.36.34c.08-.12.06-.11,0-.09s-.25.31-.31.43c.12-.08.23-.1.17,0,.26-.26,0,0,.24-.19l-.23.26c.08,0,.13-.16.23-.25s-.1.14-.19.24.07-.07.22-.21L40.56,9c.14,0,.41-.15.29.07L41,8.92c-.08.12.49-.3.09.07l.18-.12-.44.33c.08,0,0,0,.08,0L41,9.1c.18-.12.09,0-.06.09a3.66,3.66,0,0,0,.5-.41c-.4.24.33-.33.14-.25A1.37,1.37,0,0,0,41.32,8.77Z"/><path class="cls-1" d="M40.81,9.24l.06,0Z"/><path class="cls-1" d="M40.7,8.39h0S40.67,8.42,40.7,8.39Z"/><polygon class="cls-1" points="40.96 9.19 40.97 9.19 40.96 9.19 40.96 9.19"/><polygon class="cls-1" points="41.48 8.84 41.47 8.82 41.38 8.89 41.48 8.84"/><path class="cls-1" d="M40.79,8.06l-.08.11Z"/><path class="cls-1" d="M40.52,7.78h0S40.53,7.77,40.52,7.78Z"/><path class="cls-1" d="M39.62,7.62a1.14,1.14,0,0,0-.21.32l.05-.12a1.51,1.51,0,0,0-.21.47l0-.11c.1-.17-.06.21-.08.3s.25-.51.23-.39a1.31,1.31,0,0,1-.08.21s.16-.31.2-.35c-.4.93.17-.22-.06.38,0-.07,0,0,.15-.15-.12.22,0,0-.12.29.27-.53-.05.26.29-.39-.06.2,0-.05,0,.13l0,.08c-.06.14.16-.27,0,0,0,.06.1-.18.21-.34a1.93,1.93,0,0,1-.19.45c.17-.31.11-.15.21-.3a.39.39,0,0,1,.09-.2c0,.07.15-.18.23-.24-.17.34,0,0-.16.27a2.34,2.34,0,0,0-.27.36s.08,0,.2-.12c0,0-.11.15-.11.19s.25-.31.19-.15l-.11.17c.15-.22,0,.08.12,0l.13-.2c-.28.43.18-.19,0,.12a1.54,1.54,0,0,1,.34-.41l-.17.26c.08-.18-.22.27-.33.38.11-.13,0,0,.19-.15l-.15.2c0,.05.35-.44.24-.23l-.11.15c.07,0-.08.32.21,0,.1-.11.3-.41.37-.5a4.44,4.44,0,0,0-.38.37l.17-.23a4.07,4.07,0,0,0-.3.36c-.1.11.14-.21,0-.09.18-.24.2-.26.36-.46l-.11.11c.08-.09.05-.09.12-.18-.24.27,0-.15-.09,0v.06a.53.53,0,0,1-.13.15,1.35,1.35,0,0,0,.14-.27c-.09.09-.27.34-.28.32.18-.26.06-.16.2-.39-.18.27-.1.07-.2.23s0,0,0-.14l0,0v0l0,0s-.13.18-.06,0a.26.26,0,0,1,.07-.09c0-.07-.3.38-.17.12a3.16,3.16,0,0,0-.28.41c.05-.1.19-.33.15-.31-.16.24,0-.1-.08,0l.2-.31c0-.11-.17.21-.17.15l.1-.2c-.06.08-.18.28-.08.07l-.09.18c0-.1,0-.06.06-.26l-.2.32c.15-.37-.06-.07-.23.23a.31.31,0,0,1,0-.17l.07-.12s.07-.23-.08.06c-.06.08.08-.21.09-.26-.22.39,0-.35-.26.27,0,0,0,.15,0,.13a1.46,1.46,0,0,1-.11.2s.06-.21,0-.12l.18-.4C39.86,7.28,39.41,8.21,39.62,7.62Z"/><path class="cls-1" d="M40,7.79,40,7.58,40,7.75S40,7.73,40,7.79Z"/><path class="cls-1" d="M40,7.75l-.05.07,0,0Z"/><path class="cls-1" d="M39.51,7.66s0-.06,0,0S39.48,7.71,39.51,7.66Z"/><polygon class="cls-1" points="39.44 7.77 39.42 7.83 39.44 7.79 39.44 7.77"/><path class="cls-1" d="M38.78,8l-.09.25c0-.13,0,0,0-.2-.09.3-.05,0-.13.45.1-.15.13.15.33-.22l-.07.17c.16-.34-.06.4.2-.27l-.12.34c0,.11.22-.48.11-.11l0-.14s0,.07,0,.07l0-.06c.07-.14.07-.12,0,0s0,0,0,.08.07-.12.08-.11a1.14,1.14,0,0,1-.08.2c.1-.14,0,.23.2-.27a1.9,1.9,0,0,1,.09-.22c0-.17-.07,0-.14.16h0c-.2.49,0-.12-.08.09.08-.21.1-.2.14-.31.11-.39-.15.28,0-.22v0s0,0-.05.09,0,.1,0,.15l-.14.35c.07-.22,0,.11,0,0a1.57,1.57,0,0,1,.12-.29L39.11,8a2.17,2.17,0,0,1,.09-.34c-.06.15,0,.11-.11.33.07-.26,0-.22-.13,0,0,0,.07-.23.08-.19S39,7.85,39,8s-.07,0-.05-.13l0,.16c-.09.27,0-.21-.06-.06h0s-.12.43-.12.34S38.73,8.15,38.78,8Z"/><path class="cls-1" d="M38.59,8.31l0-.23a1.81,1.81,0,0,0-.09.39c0-.05,0,0,0-.08S38.6,8.28,38.59,8.31Z"/><path class="cls-1" d="M38.42,8.32l0,.21s.07-.12.06.06,0-.27.09-.35l0,.23c0-.14,0,.12.08-.27,0,0,0,.18,0,.11l0-.13,0,0,0-.16c0-.24-.1.49-.1.33l.05-.33s0,.09,0-.11c0,0,0,.16,0,.1a2.14,2.14,0,0,1,0,.25c-.05.26,0-.2,0-.34-.06.23-.1.42-.1.15a1.7,1.7,0,0,1,0,.4,3,3,0,0,1,0-.31s0-.12,0-.07a4.65,4.65,0,0,1,0,.55C38.36,8.89,38.39,8.28,38.42,8.32Z"/><path class="cls-1" d="M38.39,8.6V8.53h0Z"/><path class="cls-2" d="M45.18,13.46s0-.14,0-.12l0,.16Z"/><path class="cls-2" d="M45.17,13.14a2.66,2.66,0,0,0-.09.36l.09-.27s0,.06,0,.12,0,0,0-.06,0-.14-.05,0S45.17,13.17,45.17,13.14Z"/><path class="cls-2" d="M44.16,12.68v0Z"/><path class="cls-2" d="M43.5,12.49s0,0,0,0S43.5,12.47,43.5,12.49Z"/><path class="cls-2" d="M43.41,12.29h0Z"/><path class="cls-2" d="M44.16,12.68v0S44.15,12.67,44.16,12.68Z"/><path class="cls-2" d="M45,13.5l0,0,0,0Z"/><path class="cls-2" d="M44.48,12.6h0l0-.06Z"/><path class="cls-2" d="M44.71,12.62a.8.8,0,0,0-.05.19.85.85,0,0,1,0-.09Z"/><path class="cls-2" d="M45,12.94v0Z"/><path class="cls-2" d="M44.32,12.54v0Z"/><path class="cls-2" d="M38,14v0A0,0,0,0,0,38,14Z"/><polygon class="cls-2" points="37.74 13.35 37.75 13.34 37.75 13.26 37.74 13.35"/><path class="cls-2" d="M43.21,12.09h0Z"/><path class="cls-2" d="M41.17,12.14c0,.12,0,.16,0,.3A1.56,1.56,0,0,0,41.17,12.14Z"/><path class="cls-2" d="M44.94,13.48Z"/><polygon class="cls-2" points="41.19 12.44 41.19 12.44 41.2 12.45 41.19 12.44"/><path class="cls-2" d="M42.7,12.12v0Z"/><path class="cls-2" d="M43.06,12.36v0Z"/><path class="cls-2" d="M42.5,12.31s0,0,0,0v0S42.49,12.28,42.5,12.31Z"/><polygon class="cls-2" points="42.3 12.29 42.3 12.32 42.3 12.31 42.3 12.29"/><path class="cls-2" d="M38.68,13.91a.69.69,0,0,0,0-.13C38.67,13.88,38.65,13.92,38.68,13.91Z"/><path class="cls-2" d="M45,13.43s0,.05,0,.05h0Z"/><path class="cls-2" d="M42.42,13.41l0,0Z"/><path class="cls-2" d="M40.1,13.52v0Z"/><path class="cls-2" d="M42.31,13.4a.41.41,0,0,0,0-.09v0Z"/><path class="cls-2" d="M38.66,13.78Z"/><path class="cls-2" d="M38.47,14.14s0-.18,0-.29,0,.14.06.23,0-.22,0-.22,0,0,0,.08c0-.15.07,0,.07-.2l0,0,0-.25s0-.12,0,0,0,.05,0,.08v0c0,.17,0,.06,0,.19,0-.06,0-.21.06-.16s0,.06,0,.21l0-.06c.06.26,0,0,0,.26.06,0,0-.09.09-.05a1.6,1.6,0,0,0,0-.23c0-.18.13.41.14.17s0-.32,0-.21l0,.19s0-.28,0-.16,0,.07,0,.09,0-.11,0-.12l0,.17s.07-.17.11-.21a.42.42,0,0,0,0,.15c0-.1.14,0,.23.06l0-.14a.3.3,0,0,1,0,.09s0-.09,0-.15,0,.07,0,.12c0-.13,0-.29.13-.15v0c0,.05-.05-.3,0-.18v0c.09,0,.12-.11.24.09-.05-.21.09.06,0-.22a1.17,1.17,0,0,0,.17.26s0-.18,0-.22l0,.15,0-.16.07.17v0a.32.32,0,0,1,0-.11c0-.07.09.09.11.16l0-.14a.34.34,0,0,1,0,.13c0-.16,0,.15,0,0l0-.12c0,.09.07.08.09,0l0,.1c.05,0,.08-.07.12-.08a1,1,0,0,1-.06-.25l0,.16a.8.8,0,0,1,0-.18.64.64,0,0,1,.06.23v-.06l0,.13c0-.1.08.15,0,0v.05c.05,0,.06-.08.1-.09a.94.94,0,0,1,0-.22s.09.14.12.12,0-.12,0-.2c0,.12.06.1.06.2s.05,0,.09-.15a.27.27,0,0,1,0-.12s0,.05,0,.11v0c0-.21.19.35.2.08h0l0-.14s0,.09,0,.17c0-.22.09,0,.12-.13.06.37.12,0,.18.21v-.09c0-.09,0,.05,0,.07s0-.08,0-.13.21.11.32.2,0-.46.07-.25l0,.16c.08-.19.16,0,.24-.16,0,0,0,.09,0,.09s.06,0,.06-.09,0,.09,0,.14,0-.15,0,0a.43.43,0,0,1,0,.05c0-.06,0,0,0-.12,0,.07.05-.06.07,0,0-.16.05.07.07-.14,0,.22,0,.18.06.08,0,.06,0,.07,0,.16s0,0,0-.16c0,.28.1-.21.09.14a.89.89,0,0,1,.2-.24c0,.22-.06,0-.08.25.06-.09.11-.28.16-.22s0,.1,0,.13.1,0,.16-.08a.14.14,0,0,1,0,.06s0,0,0-.07v0a2,2,0,0,1,.08-.38c-.05.29,0,.08,0,.44a.4.4,0,0,0,0-.13.53.53,0,0,1,0,.14c0-.05,0-.16.07-.16l0,.13c0-.1,0-.19.08-.15s0,.07,0,.07.11-.25.15-.15,0,.08,0,.26l0-.05v-.09s.06-.13.08-.07l0,.08,0,0,0-.07c0-.1,0-.24.06-.18s0,0,0,.11h0s0-.11,0-.07,0,.21,0,.25c0-.15.07,0,.11-.2a.55.55,0,0,0,0,.16l0-.13a.88.88,0,0,1,0,.14s0-.23,0-.13,0,0,0,.05.09-.07.12,0,0,0,0,.2c0,0,.14-.21.18-.15v0c0-.26,0,.14.06,0s0,.14,0,.12.09-.06.15-.13l0,.07c0,.06.05,0,.07.07a.39.39,0,0,0,0-.15c0,.39.16-.18.17.15,0,0,0,.05,0,.05l.06-.05a1,1,0,0,0,0-.16c0-.06,0-.11.06-.11a.55.55,0,0,0,0,.25l0-.11c0,.21.05-.23.06-.09v.06s0-.1.06-.08,0,.06-.05.17.09-.24.08-.11,0,0,0,.07,0,.12,0,.14h0l0,.08v0c.09-.33.06-.05.14-.26a.9.9,0,0,0-.06.26.61.61,0,0,1,0,.14c0-.12,0,.1.07-.07,0,0,0,0,0,.12s0-.08,0-.14,0,.21.13,0,.11-.24.16-.32a.5.5,0,0,1,0,.18c0,.07,0,.06.06,0a.51.51,0,0,0,0,.13s.05-.17.05-.1l-.05.19.09-.16a.76.76,0,0,1-.06.18.47.47,0,0,0,.11-.2v0a.44.44,0,0,1,0,.14c0,.1,0,0,0-.1l0,0c0-.28-.07,0-.09,0l0-.2-.06.17a.54.54,0,0,1,0-.2c0-.11,0,.07,0,0v0L45,13s0-.14,0-.11c0-.12-.08.14-.07,0v0c-.06.06,0,.15-.11.32l0-.37,0,.14s0,0,0-.07c0,.09,0,.06,0,.16,0-.15-.08.05,0-.19,0,.11,0,.09,0,.16,0-.26,0,0,0-.08s0-.06,0-.18c-.06.22,0-.06-.06,0s0,.07-.1.12,0-.11-.05-.18v0c0,.18-.06.14-.09.17a.68.68,0,0,1,0-.19h0a.19.19,0,0,1,0,.11l0-.14s-.09.15-.11,0a1.73,1.73,0,0,1-.08.44,1.58,1.58,0,0,1,0-.21s0,.05,0,0l0-.11s0,.09,0,.08,0-.07,0-.15,0,.05,0,0a.34.34,0,0,1,0-.16c0,.06,0,.13,0,.14s0-.11,0-.17,0,0,0,.14,0-.07,0-.11-.07,0-.08.17h0c-.07.14-.08-.09-.14,0v0s-.07,0-.1.13a.36.36,0,0,1,0-.15s0,.08,0,0,0-.08,0-.06,0-.13-.07,0c0-.12,0-.16,0-.12v.09s0,0,0,0l0-.16c0-.21-.15.32-.14,0,0,.11,0,.08,0,.22,0,0,0-.27,0-.27s-.07.23-.1.16a.81.81,0,0,1,0,.27s0-.25,0-.29,0,0,0,0,0,0,0-.11v.06c0-.06-.05-.06,0-.15a.11.11,0,0,0,0,.12c0-.08-.06,0-.09-.07a.38.38,0,0,1,0,.11c0-.08,0,.1-.08.13s0-.22,0-.15a.64.64,0,0,1,0-.2c-.05.11-.05-.08-.07-.1l0-.05s0,0,0,0v.12s0,0,0-.07a1.87,1.87,0,0,1,0,.3c0-.06,0,.06,0-.1,0,.06,0-.15,0-.18s0,0,0,0v0c0-.15,0,.17-.07.16a.6.6,0,0,0,0-.15.56.56,0,0,1,0,.22c0-.07,0,0,0,0v0c0,.09,0,.07,0,.1s0-.05,0-.08c0,.16,0-.16-.07-.06,0-.06,0-.17,0-.21s0-.13-.07,0a.34.34,0,0,1,0,.2l.06-.08,0,.17s0-.07,0-.05a.5.5,0,0,0,0,.17c0-.18-.06.09-.07,0l0-.29c0-.14-.09.14-.13.07v.05c0,.12,0,0-.06.06a.66.66,0,0,0,0-.2c0,.08,0,0-.05.19l0-.13c0-.06-.06.28-.1.24s0-.18,0-.25,0,0,0,0,0,.13-.06,0,0,.15,0,.14v0a.35.35,0,0,0,0,.17c0-.31-.12,0-.14-.25a.3.3,0,0,1-.1.07s0-.05,0,0,0,.28-.07.18,0-.08,0-.15c0-.32,0,0-.07-.14v0c0-.11,0,.12-.09.1v-.05a.46.46,0,0,1-.1.26,1.15,1.15,0,0,0,0-.19s0,.21,0,.24a1.35,1.35,0,0,1,0-.27h0c0-.18,0,0,0,0V12.2s0,.22-.09.21v.06c0,.19,0-.11,0,0v-.19a1.55,1.55,0,0,1-.08.23,1.54,1.54,0,0,1,.06-.31s-.06,0-.06.11,0-.06,0,0,0,.23-.07.23c0-.38-.09-.09-.14-.39,0,.15-.12-.05-.2,0,.06.3,0,0,0,.32t0,0l-.07-.18c0-.09,0-.07,0-.14s0-.12-.06-.2c0,.11,0,.16,0,.12l0,.13c0,.17-.07-.25-.1-.08V12c0,.06-.1,0-.09.26a.36.36,0,0,1,0-.14c-.07,0-.11.28-.18.14v-.08s0,.15,0,.07a.35.35,0,0,0,0-.07s0,.13,0,.09v-.08c-.08-.09-.06.22-.09.28a.56.56,0,0,0-.14-.31v0c-.08,0-.08.2-.13.3-.09-.22-.16-.06-.26-.17a.43.43,0,0,1,0,.19s0,.16-.05,0h0c-.07-.18-.08-.12-.11-.12l.07.25c-.17-.35-.12.18-.25-.14,0,.07,0,.08,0,.14l0-.13s-.08,0-.11,0l0-.1s.08.4.06.42l-.07-.2s-.15-.15-.14.05a.58.58,0,0,1,0-.1s-.12-.11,0,.16c-.06-.18-.05,0-.06.09l0-.14c0,.18,0,.23,0,.28s0-.1,0-.07,0,.13,0,.07l0-.09s0,0,0,.14-.06,0-.1-.14c0,.08,0,.18,0,.15s0-.08,0-.09,0,.17-.08,0l0-.08H39a2.23,2.23,0,0,1-.09-.32c0,.1,0,.32,0,.26l0,0h0s0,0,0,0,0,0,0,0,0,0-.05,0a1.19,1.19,0,0,0,.05.22v0l0,0c0,.07,0,.13,0,.06,0,.09,0,.18,0,.23-.06-.19-.12-.29-.15-.4a.47.47,0,0,0-.05.33s0-.08,0-.12,0,0,0-.06-.06,0,0,.22c0-.07,0-.17-.05-.13v-.06c-.12-.28,0,.49-.19.12l0,.07c-.12-.16-.19.18-.31-.08,0-.05,0,.07,0,.16l0-.15,0,.17c0,.13-.09-.37-.13-.12v.1s-.05.06-.05-.06,0,.11,0,.06v-.08l0,.13c0-.05,0-.31-.05-.32a.82.82,0,0,0,0,.28.46.46,0,0,1,0,.13l0,0a2.48,2.48,0,0,0,0,.63l0-.14v.11h0c0,.11,0,0,0,0a.71.71,0,0,0,0,.12l0-.22a.8.8,0,0,0,0,.23c0-.1,0-.2,0-.27,0,.1,0,.19,0,.1a.35.35,0,0,1,0,.12c0-.07,0,0,0-.15,0,.13.06,0,.07.18a.66.66,0,0,1,0-.18c0,.26.06,0,.07.29,0-.24.07-.1.1-.24,0,0,0,.06,0,0s0,.08.06.13a1.31,1.31,0,0,1,0-.37c0,.19,0,.23,0,.41,0-.16,0-.16,0-.29a1.31,1.31,0,0,1,0,.21c0-.24,0,0,0-.19,0,.12,0,.23.06.15A.39.39,0,0,1,38.47,14.14Zm.68-.55Zm.06,0h0l0-.09A.41.41,0,0,0,39.21,13.57Zm-.35-.91s0,0,0,0a0,0,0,0,0,0,0v-.05Z"/><path class="cls-2" d="M38.89,12.84h0v0Z"/><path class="cls-2" d="M44.16,12.71h0v0Z"/><polygon class="cls-2" points="40.06 13.61 40.05 13.57 40.06 13.6 40.06 13.61"/><path class="cls-2" d="M44.39,13.24v0Z"/><path class="cls-2" d="M44.52,13.29v.06A.18.18,0,0,1,44.52,13.29Z"/><path class="cls-2" d="M44.61,13.38v-.06h0Z"/><path class="cls-2" d="M43,13.29h0S43,13.31,43,13.29Z"/><path class="cls-2" d="M43.49,13l0,.07S43.48,13.1,43.49,13Z"/><polygon class="cls-2" points="42.42 13.41 42.42 13.41 42.42 13.41 42.42 13.41"/><path class="cls-2" d="M43.44,13.08s0,0,0,0S43.45,13.06,43.44,13.08Z"/><path class="cls-2" d="M45,13.54h0v0Z"/><path class="cls-2" d="M45,13.52v0Z"/><path class="cls-2" d="M45.07,13.47l0,0S45.06,13.51,45.07,13.47Z"/><path class="cls-2" d="M44.91,13.44v0Z"/><path class="cls-2" d="M44.87,13.45s0,.11,0,.08v0C44.88,13.57,44.9,13.37,44.87,13.45Z"/><path class="cls-2" d="M44.82,12.8l0,0c0-.06,0-.13,0-.14C44.87,12.54,44.86,12.83,44.82,12.8Z"/><path class="cls-2" d="M44.73,12.7s0-.08,0-.11S44.72,12.65,44.73,12.7Z"/><path class="cls-2" d="M43.93,12.56l0-.13S44,12.48,43.93,12.56Z"/><polygon class="cls-2" points="43.68 13.18 43.68 13.27 43.71 13.15 43.68 13.18"/><polygon class="cls-2" points="43.73 12.27 43.73 12.25 43.7 12.29 43.73 12.27"/><path class="cls-2" d="M42.34,12.17v.16S42.36,12.12,42.34,12.17Z"/><path class="cls-2" d="M41.73,12.32c0-.08,0-.13,0-.05S41.72,12.34,41.73,12.32Z"/><polygon class="cls-2" points="39.85 12.35 39.85 12.29 39.84 12.34 39.85 12.35"/><polygon class="cls-1" points="61.78 7.46 61.72 7.39 61.69 7.59 61.78 7.46"/><path class="cls-1" d="M61.47,6.71l-.11.09c0,.59,0,.42.14.85a.87.87,0,0,0,.19-.53s-.11.25-.18.18.1-.15.14-.38-.07.15-.19.06Z"/><path class="cls-1" d="M61.32,7.3a1.49,1.49,0,0,0,0-.28C61.34,7.12,61.28,7.24,61.32,7.3Z"/><path class="cls-1" d="M61.25,7.36c-.07,0,0-.22,0-.25l-.09.39Z"/><path class="cls-1" d="M61,7.33l0,0C60.92,7.43,60.93,7.38,61,7.33Z"/><path class="cls-1" d="M60.8,7.38c0,.13.06,0,.11,0v0c0-.11,0-.38.07-.31s.06.21.13,0L61,6.84C60.91,6.87,60.84,7.27,60.8,7.38Z"/><path class="cls-1" d="M61,7.33h0C61,7.27,61,7.3,61,7.33Z"/><polygon class="cls-1" points="61.1 7.37 61.14 7.31 61.13 7.2 61.1 7.37"/><path class="cls-1" d="M60.55,7.39c0-.37.17.05.2-.24-.1,0-.17-.26-.15-.47l-.11.12A1.23,1.23,0,0,0,60.55,7.39Z"/><path class="cls-1" d="M60.35,6.45a.16.16,0,0,1,0,.06A.33.33,0,0,0,60.35,6.45Z"/><path class="cls-1" d="M59.78,7.08l.27-.37c0,.12,0,.23-.08.27.11.06.13-.18.22-.14,0,.34-.16,0-.11.33.06,0,.16,0,.22-.31l.1.23,0-.38c0-.11-.09.3-.11,0s0-.19.06-.23-.18-.3-.32-.25S59.88,6.9,59.78,7.08Z"/><polygon class="cls-1" points="59.78 6.66 59.77 6.51 59.77 6.71 59.78 6.66"/><path class="cls-1" d="M59.49,7.15l.14-.24s0,.12,0,.18,0-.23,0-.3c-.06-.35-.16.1-.24.16-.18-.16,0-.18-.05-.51.05,0,.05.09.12.12-.11-.39-.26,0-.33.06s0,.14.06.11l-.08.11C59.25,7.11,59.32,7.19,59.49,7.15Z"/><path class="cls-1" d="M59.73,7.15s-.07,0-.07-.05S59.69,7.26,59.73,7.15Z"/><path class="cls-1" d="M59.15,6.63s0,0,0,0S59.17,6.6,59.15,6.63Z"/><path class="cls-1" d="M59.22,7l-.1,0,0,.16S59.22,7.12,59.22,7Z"/><path class="cls-1" d="M55.66,6.44c0,.15,0,.21.11.19,0,.19-.11.15-.15.25s0,.22,0,.4c.11,0,.16-.22.27-.17a1.34,1.34,0,0,0,0,.2c.14-.11.38-.28.51-.12s.22,0,.36-.09c.47.1.95-.08,1.45.1l.08-.36c0,.18.12,0,.1.24,0,0,0,0-.09,0,.1.32.29,0,.41.1a1.29,1.29,0,0,1,0-.44c0,.41.16,0,.19.46.12.12,0-.35.14-.28,0-.24-.13-.12-.15-.3s.12.08.12-.17c-.21-.12-.62.37-.95.5l0-.23c-.17.16-.44.16-.57-.2,0,.21-.25-.12-.23.36,0-.11,0-.09-.11-.14l0,.16c-.09,0-.07-.24-.17-.23.06.21,0,.27,0,.44-.11-.23-.24-.44-.34-.63a1.2,1.2,0,0,0,.05.23c-.07-.07-.06.13-.08.2s0-.26,0-.4-.18.43-.27.26l0,.21c-.12,0-.22-.18-.36-.12-.06-.29.12-.25.18-.37S56.06,6.4,56,6.3a4.44,4.44,0,0,1-.24.49C55.88,6.45,55.7,6.47,55.66,6.44Z"/><path class="cls-1" d="M56,6.3a.56.56,0,0,0,0-.12s0,0,0,0Z"/><path class="cls-1" d="M55.66,6.44v0S55.65,6.44,55.66,6.44Z"/><path class="cls-1" d="M56.43,7.21v0h0Z"/><path class="cls-1" d="M56.55,6.24c0,.07.06.15.1.23C56.64,6.37,56.64,6.3,56.55,6.24Z"/><path class="cls-1" d="M57.39,6.49s0-.1,0-.17S57.35,6.38,57.39,6.49Z"/><polygon class="cls-1" points="55.89 6.24 55.79 6.31 55.75 6.36 55.89 6.24"/><path class="cls-1" d="M53.76,7.32c.08.26.22.1.34.16.21-.13,0-.56.23-.59l0,.53c.19,0,.47.08.65-.38,0,.07.05.15,0,.22.14,0,.09-.75.26-.57-.17.33.05.31,0,.64l0,0c.11,0,.26-.21.33-.18,0-.14-.05-.35,0-.36s0-.18,0-.32c-.1.15-.15.06-.22.23,0-.17,0,0,0-.23l-.09.16c-.06,0,.07-.17,0-.21s-.09.21-.16.19l0-.06c-.06.07-.13,0-.11.27l-.06-.29v.2c-.15-.08-.2-.56-.4-.32,0,.06,0,.17,0,.21s.11-.15.19-.18c0,.2-.13.44,0,.56-.1-.24-.2,0-.23-.47-.13,0-.18.21-.31.09V6.59c0,.32-.1-.15-.2.18l.06.08c0,.13,0,.14-.08.16a.57.57,0,0,0,0-.12c0,.24-.16.28-.18.35s.14-.16.21-.22C53.81,7.16,53.82,7.36,53.76,7.32Z"/><path class="cls-1" d="M55.07,6.47l0,.12A.24.24,0,0,0,55.07,6.47Z"/><path class="cls-1" d="M53.19,6.89c-.08,0,0-.2,0-.31-.09.17.08.34,0,.59,0-.15-.13.1-.17.1a1.53,1.53,0,0,0,0-.52c0,.09-.1-.07-.15-.08.13.2-.11.12,0,.34s-.13.32-.18.17.05-.1.08-.11c0-.25-.08-.14-.1-.37-.13.35-.52.32-.42.89,0,.12.08,0,.12,0-.12-.11,0-.3,0-.4.06.09.15-.09.13.12l-.09.21a1.72,1.72,0,0,0,1,0h-.14c0-.16.09-.17.14-.24l-.06-.38s.08,0,.07.11a.74.74,0,0,0,0-.39c.1-.06.12.09.2-.16-.17-.31-.15.26-.34,0Z"/><polygon class="cls-1" points="53.58 6.69 53.53 6.88 53.6 6.79 53.58 6.69"/><path class="cls-1" d="M53.49,7.52c0-.08,0-.12,0-.2S53.45,7.38,53.49,7.52Z"/><path class="cls-1" d="M52.54,6.68l-.11.06.07.08A.19.19,0,0,1,52.54,6.68Z"/><path class="cls-1" d="M51.79,7.65c.15,0,.21-.21.37,0,.08-.25,0-.47,0-.69-.08-.06-.08.36-.16.44,0-.21-.13,0-.21,0A.81.81,0,0,1,51.79,7.65Z"/><path class="cls-1" d="M51.31,6.83c-.07,0-.14.16-.19.06s.05-.19.09-.15c0-.3-.07,0-.14-.16a.34.34,0,0,1,0,.15c-.18-.07-.11.25-.33.07a.39.39,0,0,0-.07.28c-.13-.25-.06-.25-.21-.48,0,.12.05.39,0,.64-.21-.35-.23,0-.36-.22,0,0,0-.07.07,0,0-.35-.12.06-.2,0l0-.3c-.08,0-.21.24-.29,0l0-.15a.46.46,0,0,1-.24.15l.06.91a.74.74,0,0,0,.3-.13l.11.18c.18-.26-.23-.08-.13-.55.09.55.08-.19.24,0s-.11.13,0,.37c0-.28.06-.09.11-.17,0,.26.14,0,.13.32l.18-.51c.05.14.11.11.16.07-.12,0,0-.4-.15-.51a1,1,0,0,1-.81.17c0,.37-.16,0-.16.32,0-.06,0-.11,0-.16l0-.08v0l0,.5v0c.16-.08,0-.2,0-.33s.12.17.11.3,0-.1.08-.3l.07.41c.38-.12.87-.38,1.29-.14l0-.26c.19.15.33-.55.49,0l.06-.21a3.7,3.7,0,0,1,0,.55c.06-.09.11,0,.17-.07l-.1-.12c.07-.21.14-.08.16.11.15-.25-.07-.44-.1-.65-.21.46-.2-.47-.39-.27S51.32,6.69,51.31,6.83Z"/><path class="cls-1" d="M51.54,7.52a.07.07,0,0,0,0-.06A.16.16,0,0,0,51.54,7.52Z"/><path class="cls-1" d="M50.67,7.19l0,0C50.74,7.1,50.71,7.15,50.67,7.19Z"/><polygon class="cls-1" points="51.8 7.38 51.8 7.38 51.8 7.38 51.8 7.38"/><polygon class="cls-1" points="51.91 6.76 51.86 6.75 51.86 6.87 51.91 6.76"/><path class="cls-1" d="M51.25,7.47V7.34A.62.62,0,0,0,51.25,7.47Z"/><path class="cls-1" d="M52.74,7.51h0S52.73,7.52,52.74,7.51Z"/><path class="cls-1" d="M56.38,7.35A.77.77,0,0,0,56.7,7v.13a.48.48,0,0,0,.14-.51l0,.12c-.14.19-.08-.23-.17-.32s-.22.55-.32.43,0-.12,0-.22-.17.34-.24.38c0-1-.34.26-.47-.39-.1.08-.23,0-.36.18.07-.25-.12,0-.08-.31-.06.58-.36-.28-.41.46-.16-.21,0,0-.2-.13,0-.08,0-.08.05-.1s-.13.31-.18,0c-.16-.07,0,.19-.13.39-.17-.09-.12-.19-.2-.5,0,.35-.12.18-.2.36a.15.15,0,0,1,0,.22c-.19-.06-.16.23-.33.32-.09-.39.17,0,0-.32.12-.17.2-.15.27-.44a.65.65,0,0,0-.51.2c-.09,0,0-.18,0-.22s-.26.39-.39.22l0-.2c-.08.26-.29-.06-.44.09a.5.5,0,0,1,0,.24c0-.51-.21.26-.36-.09a.53.53,0,0,1-.21.53,1,1,0,0,1,0-.3c.16.18.14-.35.26-.5-.1.16-.27,0-.35.23l0-.25c-.14,0-.1.57-.26.34V6.82c-.29,0-.66-.26-.86.16a3.75,3.75,0,0,0,.15.62,4.75,4.75,0,0,0,.28-.55l0,.29c0-.2.13-.33,0-.48.08-.15.08.25.17.08,0,.3-.05.34,0,.59l.08-.15c0,.11.06.1,0,.22.15-.37.23.13.38,0l-.09,0c0-.17,0-.15.09-.2.05.23.07.2.16.3.07-.14.1-.44.2-.44,0,.32.17.18.19.44,0-.31.19-.11.2-.29s.12,0,.12.13l0,.06h0v.07s0-.23.1-.07,0,.09-.06.12c.13.05.22-.48.32-.19,0-.15.17-.16.14-.5,0,.12,0,.39.13.34.06-.28.11.1.19-.08-.11.3,0,.09-.09.37.06.12.18-.26.3-.2s0,.15,0,.21S54,7.26,54,7.5V7.3c.08.11.2,0,.28.27l.12-.38c.13.41.33,0,.46-.29a.21.21,0,0,1,.13.17l-.07.14c.08,0,.16.24.22-.08.08-.09,0,.23.11.28.18-.44.45.36.53-.33-.06,0-.18-.15-.31-.12,0-.08,0-.22.07-.23s.18.23.31.12l0,.44C56,7.74,56.24,6.72,56.38,7.35Z"/><path class="cls-1" d="M54.78,7.26l.08.23V7.3S54.8,7.33,54.78,7.26Z"/><path class="cls-1" d="M54.86,7.3a.36.36,0,0,0,0-.09.05.05,0,0,0,0,0Z"/><path class="cls-1" d="M56.75,7.29a.05.05,0,0,0,.09,0S56.77,7.23,56.75,7.29Z"/><polygon class="cls-1" points="56.86 7.17 56.82 7.1 56.81 7.15 56.86 7.17"/><path class="cls-1" d="M59.54,7l.17-.26c0,.14.19,0,.12.21.11-.31.28,0,.23-.45-.43.13-1-.17-1.53.2l.09-.18c-.28.35-.33-.41-.58.29l.05-.37c-.11-.11-.26.52-.36.12v.15s0-.07-.08-.07v.07c-.09.14-.15.12-.22,0s0,0,.07-.07-.12.12-.18.11,0-.16,0-.21c-.21.15-.28-.25-.45.29,0,.1,0,.19,0,.24.12.18.24,0,.37-.17h0c.13-.52.06.13.23-.09,0,.21-.12.2-.15.32.15.42.27-.3.35.23v0s.07,0,.12-.09a.59.59,0,0,0-.07-.16,1.25,1.25,0,0,0,.09-.38c0,.24.07-.11.14,0s-.08.2-.11.31l.1-.14c.08,0,.06.24.09.36.08-.16,0-.12,0-.35.06.28.43.23.62,0-.06,0,0,.23-.11.19s.12-.06.14-.23.27,0,.37.14l0-.17c.11-.28.22.22.4.07h0c.06,0,.13-.43.22-.34S59.55,6.75,59.54,7Z"/><path class="cls-1" d="M60.15,6.6l-.07.23c.06.06.15-.24.14-.39,0,0-.08-.06-.1.08S60.12,6.63,60.15,6.6Z"/><path class="cls-1" d="M61.25,6.63a.65.65,0,0,0,0-.21c-.24,0-.53.1-.61-.09s-.11.28-.21.35l0-.24c-.07.15-.21-.12-.18.27,0,0,.06-.18.1-.1l0,.13.11,0,0,.16c.13.25.13-.49.3-.33l0,.34c.11,0,.18-.09.27.12,0,0,0-.16,0-.1a.44.44,0,0,1,0-.25c.19-.26,0,.2.08.34.16-.22.46-.4.53-.13-.06-.2.06-.41.14-.39s0,.2,0,.3.06.12.1.08a.71.71,0,0,1,.11-.55C61.65,6.07,61.45,6.68,61.25,6.63Z"/><path class="cls-1" d="M61.33,6.35s0,0,0,.07h.08Z"/></g></g></svg>