<svg xmlns="http://www.w3.org/2000/svg" width="216.396" height="99.624" viewBox="0 0 216.396 99.624"><defs><style>.a{opacity:0.8;}.b{fill:#fff;}.c{fill:#d25f91;}.d{fill:#efda39;}.e{fill:#7ac1d4;}</style></defs><g class="a" transform="translate(-187.625 -730.289) rotate(13)"><g transform="translate(358.896 666.641)"><path class="b" d="M568.229,688.178c-1.792.759-.007.039-1.864.622a2.021,2.021,0,0,0-1.595,1.839c-1.18,7.381-2.4,14.755-3.619,22.132a8.028,8.028,0,0,1-.269,1.309c-.3.879-.993,1.053-1.5.361-3.3-4.457-6.637-8.893-9.738-13.487-1.519-2.247-2.53-4.835-3.842-7.229a1.425,1.425,0,0,0-1.169-.533c-3.863.469-7.725.968-11.568,1.581-.424.068-.965.854-1.049,1.374-1.284,7.8-3.911,15.214-6.441,22.653a7.39,7.39,0,0,1-1.175,1.682c-.534-.505-1.293-.909-1.568-1.53-3.269-7.38-6.455-14.8-9.712-22.184a1.656,1.656,0,0,0-1.183-.826c-6.406-.284-12.814-.531-19.223-.683-.463-.011-1.189.677-1.382,1.194-1.632,4.381-3.13,8.812-4.749,13.2-1.08,2.926-2.267,5.813-3.47,8.691a6.835,6.835,0,0,1-1.135,1.446c-.455-.442-1.133-.8-1.328-1.339-1.546-4.236-3.013-8.5-4.475-12.765-1.247-3.637-2.427-7.3-3.72-10.919a2.023,2.023,0,0,0-1.283-1.18c-5.315-.68-10.638-1.305-15.972-1.805a2.588,2.588,0,0,0-1.9,1.154c-4.094,6.45-8.083,12.967-12.17,19.422a14.025,14.025,0,0,1-2.241,2.235,14.206,14.206,0,0,1-1.213-2.82q-2.151-10.993-4.137-22.017c-.156-.861-.469-1.231-1.323-1.373-5.888-.977-11.764-2.026-17.661-2.948a2.384,2.384,0,0,0-1.768.9c-3.72,4.66-7.376,9.371-11.041,14.074-.716.919-1.39,1.87-2.349,3.165a7.523,7.523,0,0,1-1.133-1.793c-.667-2.643-1.317-5.3-1.809-7.979-.7-3.831-1.283-7.686-1.87-11.538a2.137,2.137,0,0,0-1.693-1.958c-3.716-1.17-7.375-2.523-11.1-3.677a4.111,4.111,0,0,0-2.186.431,2.053,2.053,0,0,0-.852.785c-3.63,5.109-8.668,8.588-13.751,12.041a46.936,46.936,0,0,0-3.6,3.242,12.134,12.134,0,0,1-1.883,1.1,6.962,6.962,0,0,1-.622-2.1c.145-4.123.369-8.243.617-12.362.2-3.281.512-6.557.661-9.84a1.856,1.856,0,0,0-.95-1.381c-.412-.419-.547-1.924.531-1.9,12.253,4.447,24.5,8.958,36.942,12.816,7.32,2.27,14.99,3.454,22.542,4.921q11.006,2.136,22.1,3.833c6.343.974,12.719,1.757,19.1,2.456,8.712.956,17.429,1.927,26.168,2.571,10.012.736,20.03,1.444,30.1.931,9.584-.488,19.159-.895,28.609-2.74,6.51-1.272,13.046-2.408,19.538-3.765,2.166-.452,2.718-.532,2.718-.532,1-.147,1.273.785.659,1.046m-207.986,2.655c6.451-4.856,13.784-8.245,18.1-15.435l-16.3-5.7-1.8,21.139m79.019,20.236.478.177c4.1-6.482,8.207-12.964,12.5-19.745l-16.931-2.51c.157,7.81,2.617,14.841,3.953,22.079m123.966-21.248-15.974,2.68c2.648,7.423,6.823,13.445,11.694,19.033l.683-.066,3.6-21.646m-48.544,6.14c2.4,7.5,5.881,14.239,9.14,21.3,1.688-3.2,6.868-19.556,6.175-22.16l-15.314.859m-33.44,19.9.629-.011c2.692-6.8,6.168-13.3,8.111-20.549l-16.161-1.373c2.56,7.563,4.99,14.748,7.421,21.933M395.9,681.282c1.141,6.446,2.212,12.487,3.282,18.528l.488,0,11.648-15L395.9,681.282" transform="translate(-358.896 -666.641)"/><path class="c" d="M359.991,690.265l1.8-21.139,16.3,5.7c-4.309,7.19-11.644,10.579-18.1,15.435" transform="translate(-358.646 -666.072)"/><path class="d" d="M425.034,706.907c-1.336-7.236-3.8-14.269-3.952-22.079l16.931,2.51-12.5,19.745-.479-.177" transform="translate(-344.669 -662.48)"/><path class="d" d="M528.158,685.505l-3.6,21.646-.683.065c-4.871-5.587-9.046-11.61-11.694-19.031l15.974-2.68" transform="translate(-323.826 -662.325)"/><path class="e" d="M485.678,690.662l15.314-.859c.693,2.6-4.486,18.961-6.175,22.16-3.259-7.062-6.737-13.8-9.14-21.3" transform="translate(-329.891 -661.342)"/><path class="c" d="M459.846,710.779c-2.43-7.185-4.862-14.369-7.421-21.932l16.161,1.373c-1.943,7.249-5.419,13.748-8.111,20.549l-.629.011" transform="translate(-337.498 -661.56)"/></g><path class="e" d="M389.013,678.556l15.418,3.522-11.648,15-.488,0c-1.07-6.041-2.141-12.081-3.282-18.527" transform="translate(6.89 2.726)"/></g></svg>