<svg xmlns="http://www.w3.org/2000/svg" width="46.426" height="32.617" viewBox="0 0 46.426 32.617"><defs><style>.a{fill:#573622;}.b{fill:#d4ebf3;}</style></defs><path class="a" d="M467.517,563.013l-2.467-2.225,1.875-3c-.448-.242-.614-.389-.669-.355-1.968,1.231-3.731,1.066-5.88-.006-2.578-1.285-6.532.554-8.574,3.466-.849,1.208-1.565,2.508-2.431,3.913-3.739-2.329-5.09-6.419-8.052-9.674-4.438,3.378-3.31,7.865-2.6,12.528a18.251,18.251,0,0,1-9.078-4.066,19.524,19.524,0,0,0-3.506-1.854c-.412,1.416-1.185,2.837-1.164,4.245a15.389,15.389,0,0,0,3.574,9.494c-1.387.064-2.474.1-3.559.163-3.782.2-4.623,1.238-3.332,4.674,2.23,5.935,1.718,6.232,8.1,5.6,3.922-.384,7.5.779,11.172,1.542,8.258,1.716,16.4-4.489,18.334-11.857.614-2.342,2.034-4.474,3.1-6.7a8.979,8.979,0,0,0,.629-1.036c.62-1.97.917-4.2,3.8-4.086C466.965,563.792,467.152,563.417,467.517,563.013Zm-40.668.9c3.23,3.342,6.869,4.748,10.707,5.74,6.689,1.729,11.7-.578,14.885-6.676a11.945,11.945,0,0,1,2.637-3.287,4.057,4.057,0,0,1,4.591-.505,3.675,3.675,0,0,1,2.37,3.909c-.272,1.9-.6,4.062-1.7,5.5a19.6,19.6,0,0,0-3.3,7.326,12.989,12.989,0,0,1-15.234,9.653c-4.03-.788-7.925-2.077-12.191-1.506-4.081.546-6.368-2.111-6.063-6.3,3.277,0,6.549-.06,9.817.025,1.584.042,3.336.922,4.461-1.633a9.81,9.81,0,0,1-8.379-3.2C427.322,570.623,426.759,567.627,426.848,563.918Zm13.86-5.844c2.313,3.028,4.419,5.786,6.861,8.982-1.966.546-3.877,1.074-5.634,1.561A12.809,12.809,0,0,1,440.708,558.074Z" transform="translate(-421.091 -555.131)"/><path class="b" d="M426.98,562.023c-.089,3.71.474,6.706,2.6,9.046a9.81,9.81,0,0,0,8.379,3.2c-1.125,2.555-2.877,1.675-4.461,1.633-3.268-.085-6.54-.026-9.817-.026-.306,4.187,1.981,6.844,6.063,6.3,4.266-.571,8.16.718,12.191,1.506a12.989,12.989,0,0,0,15.234-9.653,19.6,19.6,0,0,1,3.3-7.326c1.1-1.435,1.427-3.6,1.7-5.5a3.675,3.675,0,0,0-2.37-3.909,4.057,4.057,0,0,0-4.591.505,11.947,11.947,0,0,0-2.637,3.287c-3.189,6.1-8.2,8.4-14.885,6.676C433.85,566.772,430.21,565.366,426.98,562.023Zm28.951-1.125a7.1,7.1,0,0,1,2.117-.992c.31-.019.673.752,1.013,1.164a5.62,5.62,0,0,1-1.622,1.181C457.169,562.329,456.66,561.578,455.931,560.9Z" transform="translate(-421.223 -553.237)"/><path class="b" d="M431.107,556.517a12.809,12.809,0,0,0,1.227,10.543c1.756-.486,3.667-1.015,5.634-1.561C435.526,562.3,433.419,559.545,431.107,556.517Z" transform="translate(-411.489 -553.574)"/><path class="a" d="M425.135,559.285a1.316,1.316,0,0,0,1.508,1.352c.6-.174,1.308.007,1.622-1.181a1.236,1.236,0,0,0-1.013-1.164C426.643,558.334,425.532,557.875,425.135,559.285Z" transform="translate(-390.426 -551.624)"/></svg>