<?xml version="1.0" encoding="utf-8"?>
<!-- Generator: Adobe Illustrator 26.5.0, SVG Export Plug-In . SVG Version: 6.00 Build 0)  -->
<svg version="1.1" id="レイヤー_1" xmlns="http://www.w3.org/2000/svg" xmlns:xlink="http://www.w3.org/1999/xlink" x="0px"
	 y="0px" viewBox="0 0 199 112" style="enable-background:new 0 0 199 112;" xml:space="preserve">
<style type="text/css">
	.st0{fill:#FFAA4D;}
	.st1{fill:#FFFFFF;}
	.st2{enable-background:new    ;}
</style>
<g transform="translate(15741.009 1617)">
	<g transform="matrix(1, 0, 0, 1, -15741.01, -1617)">
		<path class="st0" d="M9,112l88.7-23.7L190,112V0H9"/>
	</g>
	<path class="st1" d="M-15724.5-1512.9v-1.7h1v0.4l2.2-0.6l0.3,1L-15724.5-1512.9z M-15559.1-1513.1l-3.9-1l0.3-1l3.2,0.9v-2.5h1
		v3.1h-0.5L-15559.1-1513.1z M-15717.2-1514.9l-0.3-1l3.9-1.1l0.3,1L-15717.2-1514.9z M-15566.9-1515.1l-3.9-1l0.3-1l3.9,1
		L-15566.9-1515.1z M-15709.5-1517l-0.3-1l3.9-1.1l0.3,1L-15709.5-1517z M-15574.6-1517.2l-3.9-1l0.3-1l3.9,1L-15574.6-1517.2z
		 M-15723.5-1518.6h-1v-4h1V-1518.6z M-15701.7-1519.2l-0.3-1l3.9-1.1l0.3,1L-15701.7-1519.2z M-15582.3-1519.2l-3.9-1l0.3-1l3.9,1
		L-15582.3-1519.2z M-15558.5-1520.7h-1v-4h1V-1520.7z M-15590-1521.3l-3.9-1l0.3-1l3.9,1L-15590-1521.3z M-15694-1521.3l-0.3-1
		l3.9-1.1l0.3,1L-15694-1521.3z M-15597.8-1523.3l-3.9-1l0.3-1l3.9,1L-15597.8-1523.3z M-15686.3-1523.4l-0.3-1l3.9-1.1l0.3,1
		L-15686.3-1523.4z M-15605.5-1525.4l-3.9-1l0.3-1l3.9,1L-15605.5-1525.4z M-15678.6-1525.6l-0.3-1l3.9-1.1l0.3,1L-15678.6-1525.6z
		 M-15723.5-1526.6h-1v-4h1V-1526.6z M-15613.2-1527.4l-3.9-1l0.3-1l3.9,1L-15613.2-1527.4z M-15670.9-1527.7l-0.3-1l3.9-1.1l0.3,1
		L-15670.9-1527.7z M-15558.5-1528.7h-1v-4h1V-1528.7z M-15621-1529.5l-3.9-1l0.3-1l3.9,1L-15621-1529.5z M-15663.2-1529.8l-0.3-1
		l3.9-1.1l0.3,1L-15663.2-1529.8z M-15628.7-1531.5l-3.9-1l0.3-1l3.9,1L-15628.7-1531.5z M-15655.5-1532l-0.3-1l3.9-1.1l0.3,1
		L-15655.5-1532z M-15636.4-1533.6l-3.9-1l0.3-1l3.9,1L-15636.4-1533.6z M-15647.8-1534.1l-0.3-1l3.9-1.1l0.3,1L-15647.8-1534.1z
		 M-15723.5-1534.6h-1v-4h1V-1534.6z M-15558.5-1536.7h-1v-4h1V-1536.7z M-15723.5-1542.6h-1v-4h1V-1542.6z M-15558.5-1544.7h-1v-4
		h1V-1544.7z M-15723.5-1550.6h-1v-4h1V-1550.6z M-15558.5-1552.7h-1v-4h1V-1552.7z M-15723.5-1558.6h-1v-4h1V-1558.6z
		 M-15558.5-1560.7h-1v-4h1V-1560.7z M-15723.5-1566.6h-1v-4h1V-1566.6z M-15558.5-1568.7h-1v-4h1V-1568.7z M-15723.5-1574.6h-1v-4
		h1V-1574.6z M-15558.5-1576.7h-1v-4h1V-1576.7z M-15723.5-1582.6h-1v-4h1V-1582.6z M-15558.5-1584.7h-1v-4h1V-1584.7z
		 M-15723.5-1590.6h-1v-4h1V-1590.6z M-15558.5-1592.7h-1v-4h1V-1592.7z M-15723.5-1598.6h-1v-4h1V-1598.6z M-15558.5-1600.7h-1v-4
		h1V-1600.7z M-15723.5-1606.6h-1v-4h1V-1606.6z M-15723.5-1613.6h-1v-3.4h1V-1613.6z M-15558.5-1608.7h-1v-4h1V-1608.7z
		 M-15558.5-1615.6h-1v-1.4h1V-1615.6z"/>
	<g class="st2">
		<path class="st1" d="M-15678.3-1562.8c-3.1,3.2-7.3,5.7-12.1,7.3c-0.7-1.3-1.2-2.1-2.3-3.3c4.9-1.2,9-3.2,11.9-5.9h-6.1
			c-0.2,0.6-0.3,0.9-0.5,1.8l-4.1-0.1c1-2.3,1.5-4.2,2-6.5c0.3-1.5,0.5-3.1,0.5-3.8c0.6,0.1,1.6,0.1,3.3,0.1h7.2v-2.3h-7.8
			c-1.4,0-2.3,0-3.2,0.1v-3.4c-0.4,0.4-0.6,0.5-1,1c-0.7-1.2-1.4-2.1-2.3-2.8c3-2.3,4.7-4.5,5.5-7.1l3.7,0.7c-0.5,0.9-0.6,1.2-1,1.9
			h4.5c1.7,0,2.6,0,3.4-0.2v2.8c1.4-1.6,2.2-3.2,2.8-5.2l3.7,0.7c-0.3,0.7-0.3,0.8-0.9,2h6.7c1.9,0,2.7,0,3.9-0.2v3.6
			c-1.1-0.1-2.1-0.2-3.7-0.2h-2.7c0.7,1,1,1.5,1.5,2.4l-2.9,0.8h1.7c1.7,0,2.3,0,3.3-0.1c-0.1,0.7-0.1,1.3-0.1,2.5v3.6
			c0,1.3,0,1.8,0.1,2.6c-0.9-0.1-1.9-0.1-3.3-0.1h-8.1v2.3h10c1.3,0,2.2,0,3-0.1c-0.1,0.5-0.1,0.7-0.1,1.1c-0.1,1.3-0.2,2.5-0.3,3.3
			c-0.3,3.4-0.6,4.3-1.3,5.1c-0.7,0.8-1.7,1-4.1,1c-1,0-1.8,0-3.3-0.1c-0.2-1.4-0.4-2.2-0.9-3.4c1.3,0.2,3,0.4,3.8,0.4
			c1.9,0,2-0.2,2.3-4.1h-9l0.1,5.8c0,1.9,0.1,2.8,0.3,3.9h-4.1c0.2-1,0.2-1.6,0.2-3c0-0.4,0-0.7,0-0.9L-15678.3-1562.8z
			 M-15683.3-1578.6c-0.4-1.2-0.9-2.1-1.6-3.3h-1.9c-0.9,1.3-1.6,2-2.7,3.2c0.8,0.1,1.6,0.1,3.2,0.1L-15683.3-1578.6
			L-15683.3-1578.6z M-15678.4-1570.2h-7.2c-0.1,0.9-0.2,1.1-0.5,2.3h7.7V-1570.2z M-15676.4-1578.6c-0.5-0.7-1.3-1.4-2.2-2.1
			c0.6-0.5,0.8-0.7,1.3-1.1c-0.6,0-1.2-0.1-2-0.1h-1.9c0.4,0.7,0.6,1,1.4,2.4l-2.9,0.9L-15676.4-1578.6L-15676.4-1578.6z
			 M-15669-1578.6c-0.4-0.9-1.1-2.1-1.8-3.3h-2.1c-0.9,1.3-1.7,2.2-2.8,3.3H-15669z M-15674.8-1573.2h7.6v-2.3h-7.6V-1573.2z"/>
		<path class="st1" d="M-15600.8-1555.1v-1.9h-21.8v1.9h-4.1c0.1-1.1,0.2-2.6,0.2-4.6v-22.2c0-1.6-0.1-2.9-0.2-4.2
			c1.3,0.1,2.4,0.2,4.1,0.2h21.7c1.8,0,2.8,0,4.2-0.2c-0.1,1.3-0.2,2.5-0.2,4.2v22.2c0,1.9,0.1,3.6,0.2,4.5L-15600.8-1555.1
			L-15600.8-1555.1z M-15622.6-1560.5h21.8v-21.8h-21.8V-1560.5z M-15608-1578.3c1.5,0,2.5,0,3.4-0.1c-0.1,0.8-0.1,1.7-0.1,2.8v8.4
			c0,1.1,0,1.9,0.1,2.8c-1-0.1-1.9-0.1-3.4-0.1h-7.5c-1.8,0-2.3,0-3.4,0.1c0.1-0.9,0.1-1.8,0.1-2.8v-8.4c0-1,0-1.9-0.1-2.8
			c0.9,0.1,1.9,0.1,3.4,0.1H-15608z M-15615-1567.9h6.6v-7.1h-6.6V-1567.9z"/>
		<path class="st1" d="M-15649.9-1557.7c-2.7,0-3.3,0-4.5,0.2c0.2-2,0.5-3.2,0.9-4.5c0.9-2.6,2.5-4.8,4.8-6.9
			c1.2-1.1,2.3-1.9,5.8-4.2c3.2-2.2,4.2-3.4,4.2-5.1c0-2.4-1.9-3.9-4.8-3.9c-2,0-3.6,0.7-4.4,2.1c-0.6,0.8-0.8,1.6-1.1,3.2l-5-0.6
			c0.5-2.7,1.1-4.1,2.4-5.6c1.8-2,4.5-3.1,8-3.1c6.1,0,9.9,2.9,9.9,7.7c0,2.3-0.8,4-2.5,5.6c-1,0.9-1.3,1.2-5.9,4.3
			c-1.5,1.1-3.3,2.6-4.2,3.5c-1,1.1-1.5,1.8-2,3.2h9.8c2.2,0,4-0.1,5.1-0.3v4.6c-1.6-0.1-3-0.2-5.3-0.2H-15649.9z"/>
	</g>
</g>
</svg>
