<svg xmlns="http://www.w3.org/2000/svg" width="208.032" height="195.526" viewBox="0 0 208.032 195.526"><defs><style>.a{opacity:0.799;}.b{fill:#fff;}.c{fill:#d25f91;}.d{fill:#efda39;}.e{fill:#7ac1d4;}</style></defs><g class="a" transform="translate(-712.781 -103.127) rotate(-42)"><g transform="translate(358.896 666.641)"><path class="b" d="M585.905,690c-1.943.823-.008.043-2.021.674a2.192,2.192,0,0,0-1.73,1.995c-1.279,8-2.608,16-3.924,24a8.707,8.707,0,0,1-.292,1.419c-.325.953-1.077,1.142-1.631.392-3.579-4.833-7.2-9.644-10.56-14.626-1.647-2.437-2.744-5.244-4.167-7.839a1.545,1.545,0,0,0-1.267-.578c-4.19.509-8.378,1.05-12.545,1.715-.46.073-1.046.926-1.138,1.49-1.393,8.458-4.242,16.5-6.985,24.565a8.017,8.017,0,0,1-1.274,1.824c-.58-.548-1.4-.986-1.7-1.659-3.545-8-7-16.048-10.532-24.058a1.8,1.8,0,0,0-1.283-.9c-6.947-.308-13.9-.576-20.846-.741-.5-.012-1.29.734-1.5,1.3-1.77,4.751-3.394,9.556-5.15,14.313-1.171,3.173-2.459,6.3-3.763,9.425a7.415,7.415,0,0,1-1.231,1.568c-.493-.48-1.229-.871-1.441-1.453-1.676-4.593-3.267-9.217-4.853-13.842-1.353-3.944-2.632-7.914-4.034-11.841a2.194,2.194,0,0,0-1.391-1.279c-5.763-.737-11.536-1.415-17.32-1.958a2.806,2.806,0,0,0-2.056,1.251c-4.44,6.995-8.765,14.062-13.2,21.062a15.207,15.207,0,0,1-2.431,2.424,15.407,15.407,0,0,1-1.315-3.058q-2.333-11.921-4.487-23.877c-.169-.934-.509-1.335-1.435-1.489-6.386-1.059-12.758-2.2-19.153-3.2a2.586,2.586,0,0,0-1.918.977c-4.034,5.053-8,10.162-11.973,15.263-.777,1-1.507,2.028-2.548,3.433a8.16,8.16,0,0,1-1.229-1.944c-.724-2.866-1.428-5.745-1.962-8.652-.762-4.155-1.391-8.335-2.028-12.513a2.317,2.317,0,0,0-1.836-2.123c-4.03-1.269-8-2.736-12.034-3.987a4.458,4.458,0,0,0-2.371.468,2.227,2.227,0,0,0-.923.851c-3.936,5.541-9.4,9.313-14.913,13.058a50.891,50.891,0,0,0-3.906,3.515,13.163,13.163,0,0,1-2.041,1.191,7.548,7.548,0,0,1-.674-2.279c.157-4.471.4-8.939.669-13.405.215-3.558.556-7.11.717-10.671a2.012,2.012,0,0,0-1.03-1.5c-.446-.454-.593-2.087.576-2.064,13.288,4.823,26.568,9.714,40.062,13.9,7.938,2.461,16.256,3.746,24.445,5.337q11.935,2.317,23.962,4.156c6.879,1.057,13.793,1.906,20.713,2.664,9.448,1.037,18.9,2.09,28.378,2.788,10.858.8,21.722,1.566,32.643,1.01,10.394-.529,20.777-.97,31.024-2.972,7.06-1.379,14.148-2.612,21.187-4.083,2.349-.49,2.948-.577,2.948-.577,1.085-.16,1.38.851.714,1.134m-225.549,2.88c7-5.266,14.948-8.941,19.623-16.738L362.3,669.952l-1.947,22.924m85.692,21.944.518.192c4.451-7.029,8.9-14.058,13.556-21.413l-18.361-2.722c.171,8.47,2.838,16.095,4.287,23.943m134.434-23.042-17.323,2.906c2.872,8.05,7.4,14.581,12.682,20.64l.741-.072,3.9-23.474m-52.644,6.659c2.605,8.138,6.378,15.442,9.911,23.1,1.831-3.469,7.448-21.207,6.7-24.031l-16.607.931m-36.264,21.581.682-.012c2.92-7.376,6.689-14.423,8.8-22.284l-17.526-1.488c2.776,8.2,5.411,15.993,8.047,23.785m-92.546-37.5c1.238,6.991,2.4,13.541,3.559,20.092l.529,0,12.631-16.269-16.719-3.819" transform="translate(-358.896 -666.641)"/><path class="c" d="M359.991,692.05l1.947-22.924,17.676,6.186c-4.673,7.8-12.627,11.472-19.623,16.738" transform="translate(-358.532 -665.814)"/><path class="d" d="M425.367,708.771c-1.448-7.847-4.116-15.474-4.285-23.943l18.361,2.722c-4.657,7.356-9.107,14.384-13.556,21.413l-.52-.192" transform="translate(-338.217 -660.593)"/><path class="d" d="M529.507,685.505l-3.9,23.474-.741.071c-5.282-6.059-9.81-12.59-12.682-20.638l17.323-2.906" transform="translate(-307.921 -660.368)"/><path class="e" d="M485.678,690.734l16.607-.931c.752,2.824-4.865,20.563-6.7,24.031-3.534-7.658-7.306-14.962-9.911-23.1" transform="translate(-316.736 -658.938)"/><path class="c" d="M460.472,712.632c-2.636-7.791-5.273-15.583-8.047-23.785l17.526,1.488c-2.107,7.861-5.876,14.909-8.8,22.284l-.682.012" transform="translate(-327.794 -659.256)"/></g><path class="e" d="M389.013,678.556l16.719,3.819L393.1,698.644l-.529,0c-1.161-6.551-2.321-13.1-3.559-20.092" transform="translate(10.015 3.962)"/></g></svg>