<svg xmlns="http://www.w3.org/2000/svg" viewBox="0 0 447.56 249.13"><defs><style>.cls-1{isolation:isolate;}.cls-2{opacity:0.7;}.cls-3{fill:#fff;}.cls-4{fill:#f1e9dc;}.cls-5{mix-blend-mode:multiply;}.cls-6{fill:#f1d4e0;}.cls-7{fill:#dceecd;}.cls-8{fill:#f3ecba;}.cls-9{fill:#e9d2b3;}.cls-10{fill:#fff6ef;}.cls-11{fill:#867454;}.cls-12{fill:#261919;}.cls-13{fill:#211818;}</style></defs><g class="cls-1"><g id="レイヤー_2" data-name="レイヤー 2"><g id="レイヤー_1-2" data-name="レイヤー 1"><g class="cls-2"><path class="cls-3" d="M447.56,167.81a28.3,28.3,0,0,1-4.14,10.26c-1.52,3.15-2.9,6.57-6,9.56-1.63,2.35-5.82,4.14-8.4,6.54-2.74,1.92-5.82,4.77-9,6.5-3.54,1.81-7.48,2.62-10.43,4.23-3.69,1.52-6.94,3.7-9.86,5.18-3.51,1.16-7.55,1.64-10.79,2.85-3.42,1.13-7.12,3.3-10.73,4.3-3.71.83-7.24,1-10.64,2-3.58.89-6.7,2.81-11.14,3.67-2.82.75-6.78.46-10.53,1.38-4.17.52-7.1,2.21-11.35,2.94-2.82.44-6.93.34-10.93.74-3.09.54-7,2-10.93,2.66-3.36.36-7.59-.08-11.38.29-3.52.54-6.63,1.72-10.38,2.07s-7.37-.14-11,.19c-4.13.19-8,1.48-11.16,1.64-3.55.29-7.63-.41-11.34-.29-3.36.08-7.25,1.22-11.23,1.14-3.25.16-7.68-.58-10.74-.51-4.4.11-7.6.92-11,1-3.84-.06-8.1-.84-11.75-1-3.09-.12-7.57.72-10.95.67-3.74-.21-7.63-1.17-10.76-1.26-3.91-.13-8.16.53-11.88.38-3.54-.34-6.84-1.48-10.37-1.81-4.17-.3-8,.3-11.85-.1-3.7-.24-6.94-1.6-10.61-2-4.16-.55-7.65.09-11.59-.41-3.6-.67-7-2-10.43-2.66-3.35-.32-7.63-.3-11.58-.8-3.08-.73-6.71-2.29-10.12-2.78-4-.83-7.44-.83-10.93-1.7-4.23-.83-7.27-2.55-11-3.4-3.37-.81-7.25-1.15-11-2-4-1.22-7-3.05-10-4.31-4.13-1.13-8-1.6-11.28-2.79-3.88-1.45-6.77-3.57-9.42-5.13-4.28-1.6-7.72-2.47-10.41-4.26a43.46,43.46,0,0,1-9-6.58c-3.57-2.26-7-4.08-9.6-6.46-2.83-2.89-3.9-6.46-5.7-9.38-2.14-3.51-3.81-7-3.45-10.58,0-3.5,1.6-6.95,3.83-10.32a37.65,37.65,0,0,1,5.58-9.65c2.46-2.44,6.11-4,9-6.37,2.9-2.13,5.77-4.78,9-6.51,3.53-1.86,7.19-2.75,10.88-4.3,3.2-1.38,6-3.68,9.47-5.07,3.66-1.46,7.38-1.81,11.15-2.91,2.82-1.21,6.68-3.33,9.91-4.28,3.61-1.06,7.31-1,11.27-2.16a97.66,97.66,0,0,1,10.76-3.29c3.34-1,6.79-.68,11.13-1.53,3.11-.7,7-2.35,10.26-3,3.85-.62,7.95-.23,11.63-.84,3.23-.47,7.06-2,10.77-2.35,3.34-.6,7.5-.1,10.73-.46,4.25-.42,7.33-1.73,11.35-2.13,3.35-.49,7.53.34,10.67-.07,4.42-.37,7.41-1.4,11.59-1.55,3.06-.28,7.62.32,11.31.12s7.32-1.25,11.12-1.16c3.57-.15,7.45.67,10.72.64,3.82-.07,7.34-1.15,11-1.18,3.89,0,7.75.94,11.82,1.06,2.92.19,6.64-.84,11.06-.61,3.33,0,7.39,1,11.08,1.39,3.53.15,7.25-.52,11-.3,3.89,0,7,1.38,10.5,1.64,4,.15,8.25-.23,11.86.05s6.75,1.52,10.26,2c3.85.39,7.93-.13,11.68.62,3.79.33,7.23,1.84,11,2.37s7.44.18,10.8.78c4,.6,7.15,2.26,10.64,3,4.3.77,7.69.78,11.18,1.5s7.49,2.59,10.79,3.41c3.24,1,7.49,1,10.76,2,3.67,1.31,7.48,3.21,10.7,4.21,3.29,1.3,7.36,1.75,11,3.15,3.18,1.32,6,3.51,9.39,5s7.64,2.59,10.24,4.08c3.42,2,6,4.68,9.32,6.72,3.06,2.24,6.67,4.07,9.24,6.38,2.36,2.94,3.82,6.49,5.35,9.52A19.5,19.5,0,0,1,447.56,167.81Z"/></g><g class="cls-2"><path class="cls-3" d="M322.18,220.54a9.86,9.86,0,0,1-2.12,4.37,13.06,13.06,0,0,1-3.07,3.85c-.8.9-2.72,1.52-3.94,2.43-1.28.72-2.73,1.87-4.19,2.52s-3.36.91-4.69,1.51c-1.66.56-3.15,1.45-4.46,2-1.56.43-3.35.54-4.78,1s-3.19,1.29-4.79,1.67-3.19.31-4.69.65-3,1.12-4.94,1.44c-1.24.27-3,.1-4.63.44-1.84.19-3.14.89-5,1.16-1.24.16-3,.06-4.8.2-1.36.21-3.07.82-4.81,1.06-1.48.13-3.33-.1-5,0s-2.91.71-4.55.84-3.23-.12-4.84,0c-1.81.07-3.5.62-4.9.68-1.55.1-3.34-.22-5-.18-1.47,0-3.18.52-4.92.49-1.42.06-3.38-.28-4.71-.26-1.94.05-3.34.41-4.83.43-1.68,0-3.56-.38-5.16-.45-1.35,0-3.32.33-4.79.31-1.64-.08-3.35-.5-4.72-.53-1.71,0-3.58.26-5.21.21s-3-.62-4.54-.74c-1.84-.12-3.51.18-5.21,0s-3-.66-4.66-.8c-1.83-.2-3.35.1-5.08-.08-1.58-.25-3.08-.82-4.59-1.06s-3.35,0-5.09-.22c-1.35-.28-3-.92-4.46-1.1-1.77-.31-3.27-.25-4.81-.57-1.87-.31-3.23-1-4.87-1.33-1.49-.3-3.19-.36-4.86-.67-1.75-.46-3.12-1.2-4.45-1.67-1.84-.42-3.55-.53-5-1a27.77,27.77,0,0,1-4.26-2,28.47,28.47,0,0,1-4.69-1.52,21.54,21.54,0,0,1-4.19-2.55,35,35,0,0,1-4.49-2.4c-1.41-1.14-2-2.62-3-3.78-1.14-1.5-2-2.94-1.81-4.5a7.26,7.26,0,0,1,2-4.39,16,16,0,0,1,2.9-3.89c1.17-.93,2.85-1.45,4.19-2.36a40.72,40.72,0,0,1,4.16-2.52c1.61-.7,3.23-1,4.9-1.54,1.44-.51,2.73-1.44,4.28-2s3.27-.6,4.95-1c1.25-.45,3-1.31,4.41-1.66,1.6-.39,3.23-.31,5-.73a46.7,46.7,0,0,1,4.77-1.29c1.47-.36,3-.19,4.9-.5,1.36-.26,3.09-1,4.52-1.2,1.7-.23,3.49,0,5.11-.24,1.42-.18,3.11-.8,4.74-.94,1.47-.23,3.29,0,4.71-.1,1.87-.16,3.22-.72,5-.87,1.46-.18,3.3.2,4.67,0,1.94-.13,3.25-.58,5.09-.64,1.34-.1,3.34.19,5,.12s3.21-.54,4.88-.5,3.26.31,4.69.3c1.68,0,3.22-.49,4.81-.51s3.4.42,5.19.47c1.27.07,2.9-.39,4.84-.3,1.46,0,3.24.45,4.86.59s3.18-.26,4.83-.18,3.05.58,4.6.67c1.76.06,3.62-.15,5.2,0s3,.62,4.51.8c1.69.14,3.47-.12,5.12.16,1.67.12,3.19.75,4.86.95s3.26,0,4.74.22c1.77.22,3.16.91,4.69,1.18,1.91.29,3.39.22,4.93.49s3.32,1,4.78,1.33,3.3.29,4.75.67c1.63.49,3.34,1.26,4.78,1.63s3.26.59,4.89,1.11c1.43.49,2.7,1.38,4.24,1.94s3.43.9,4.62,1.45c1.56.74,2.77,1.84,4.31,2.6s3.1,1.49,4.33,2.37a21.54,21.54,0,0,1,2.79,3.84A7.3,7.3,0,0,1,322.18,220.54Z"/></g><g class="cls-2"><path class="cls-4" d="M362.32,174.39a11.87,11.87,0,0,1-3.29,5.87,19,19,0,0,1-4.69,4.94c-1.2,1.11-3.91,1.79-5.68,2.92-1.82.88-3.92,2.37-6,3.16-2.26.83-4.71,1-6.59,1.77-2.33.69-4.43,1.84-6.26,2.52-2.2.52-4.67.58-6.68,1.13s-4.45,1.66-6.68,2.11-4.43.3-6.52.73-4.15,1.43-6.88,1.82c-1.72.34-4.12,0-6.41.47-2.56.23-4.37,1.15-7,1.48-1.71.2-4.2,0-6.65.18-1.87.24-4.25,1.07-6.67,1.36-2,.16-4.61-.19-6.91,0-2.14.25-4,.94-6.31,1.1s-4.47-.22-6.69-.07c-2.52.09-4.86.83-6.78.9-2.16.13-4.63-.34-6.88-.28-2,0-4.4.7-6.82.66-2,.07-4.66-.41-6.51-.38-2.68.05-4.61.57-6.67.58-2.33,0-4.93-.53-7.14-.62-1.86-.06-4.59.48-6.63.46-2.27-.1-4.64-.69-6.53-.73-2.38-.06-5,.4-7.21.34s-4.15-.83-6.29-1c-2.54-.14-4.85.29-7.2.11s-4.22-.88-6.46-1c-2.54-.25-4.64.2-7,0-2.19-.31-4.27-1.07-6.37-1.37-2-.14-4.62,0-7-.2-1.87-.33-4.12-1.2-6.2-1.41-2.45-.38-4.53-.23-6.67-.62-2.6-.38-4.49-1.31-6.77-1.7-2.07-.36-4.42-.36-6.74-.74-2.45-.56-4.36-1.54-6.22-2.11-2.57-.51-4.94-.57-7-1.11a41.8,41.8,0,0,1-6-2.49c-2.71-.73-4.85-1-6.59-1.79a33.7,33.7,0,0,1-6-3.19,58.55,58.55,0,0,1-6.44-2.89c-2.1-1.44-3.13-3.38-4.51-4.85-1.82-2-3.09-3.93-2.87-6,0-2,1.23-4,3.11-5.89a22.18,22.18,0,0,1,4.44-5c1.71-1.15,4.09-1.72,6-2.84a63.39,63.39,0,0,1,5.94-3.16c2.27-.85,4.54-1.1,6.88-1.8,2-.63,3.85-1.84,6-2.47s4.56-.66,6.91-1.16c1.74-.55,4.18-1.67,6.17-2.1,2.23-.48,4.47-.31,6.91-.82,1.82-.42,4.15-1.28,6.64-1.65,2-.43,4.12-.15,6.79-.53,1.89-.32,4.3-1.23,6.28-1.54,2.36-.28,4.84.05,7.09-.22,2-.21,4.31-1,6.57-1.22,2-.27,4.55.11,6.51,0,2.59-.19,4.47-.94,6.91-1.12,2-.23,4.57.31,6.47.12,2.69-.17,4.5-.78,7-.85,1.85-.13,4.63.29,6.87.2s4.44-.72,6.75-.67c2.16-.07,4.51.45,6.48.44,2.33,0,4.46-.68,6.65-.69,2.36,0,4.71.58,7.18.63,1.76.1,4-.54,6.71-.43,2,0,4.48.62,6.72.79s4.39-.39,6.67-.29,4.24.78,6.37.89c2.44.07,5-.25,7.21-.13s4.1.84,6.24,1.06c2.34.17,4.81-.22,7.1.12,2.3.15,4.42,1,6.74,1.23s4.51-.08,6.56.19c2.45.28,4.39,1.18,6.52,1.51,2.64.36,4.68.21,6.82.53s4.63,1.33,6.66,1.7,4.57.28,6.59.73c2.27.61,4.67,1.62,6.67,2.08s4.53.63,6.82,1.27c2,.6,3.8,1.75,6,2.45s4.8,1,6.48,1.69c2.22.91,4,2.32,6.18,3.27s4.42,1.76,6.21,2.85a29.38,29.38,0,0,1,4.29,4.92A9.06,9.06,0,0,1,362.32,174.39Z"/></g><g class="cls-5"><path class="cls-6" d="M128.89,70.89c0,1.41-.3,2.86-.46,4.32-.06,1.64-.06,3.12-.13,4.54-.37,1.52-.9,3.06-1.18,4.43s-.55,2.87-.87,4.42-1.16,2.72-1.67,4.15c-.74,1.47-.9,2.92-1.51,4.36-.77,1.2-1.7,2.41-2.51,3.72a20.54,20.54,0,0,1-2.13,4c-.93,1.32-1.91,2.24-3,3.6a38.88,38.88,0,0,0-2.52,3.57c-1.09,1-2.24,2-3.49,3-1,1-2.12,2.25-3.18,3.18s-2.42,1.63-3.78,2.63c-1.23.77-2.21,1.82-3.53,2.54s-2.82,1.26-4,2-2.66,1.72-4,2.29a28.61,28.61,0,0,1-4.37,1.32,35.4,35.4,0,0,1-4.29,1.61c-1.46.51-3,.53-4.28.87a27.13,27.13,0,0,1-4.59.9,14.22,14.22,0,0,1-4.34.3c-1.65.12-3.21.32-4.55.44a38,38,0,0,1-4.47-.49,31.26,31.26,0,0,1-4.64,0c-1.4-.29-2.89-.94-4.48-1.15-1.28-.37-2.87-.44-4.4-.7a36.35,36.35,0,0,0-4-1.73,22.44,22.44,0,0,1-4.35-1.26,33.22,33.22,0,0,1-4-2.23c-1.26-.82-2.9-1.31-4.07-2.13s-2.31-1.64-3.64-2.54-2.48-1.59-3.84-2.55a24,24,0,0,0-3.19-3.19c-1-1.06-2.32-2.07-3.38-3.09-.81-1.14-1.67-2.45-2.72-3.69a26.49,26.49,0,0,0-2.83-3.41c-.71-1.23-1.49-2.76-2.08-4S6.77,98.5,6,97.12c-.5-1.44-.89-2.81-1.5-4.33s-1.2-2.69-1.63-4.22A27.63,27.63,0,0,1,1.8,84.22a36.11,36.11,0,0,1-1-4.4C.52,78.28.67,76.67.44,75.4c-.1-1.67-.26-3-.44-4.51a29.9,29.9,0,0,0,.44-4.71c.09-1.38,0-2.93.21-4.36s.92-3.08,1.14-4.52a39.93,39.93,0,0,1,1-4.3,26.67,26.67,0,0,1,1.78-4.13c.61-1.36.79-2.95,1.43-4.42.65-1.27,1.72-2.46,2.3-3.86,1-1.21,1.49-2.75,2.43-3.94a18.7,18.7,0,0,1,2.81-3.36c.86-1.17,1.63-2.48,2.61-3.63s2.36-2.16,3.31-3a32.53,32.53,0,0,1,3.36-3.17c1.09-1,2.32-1.63,3.77-2.72C27.7,20,28.93,18.85,30,18.17a30.47,30.47,0,0,1,4.28-1.88c1.2-.73,2.39-1.59,3.93-2.35a41.92,41.92,0,0,0,4.2-1.44,28.92,28.92,0,0,1,4.1-1.43c1.58-.61,3-.49,4.45-.91,1.53-.17,3.06-.74,4.64-1s2.85-.08,4.45-.24c1.32-.08,3-.4,4.54-.44A40.09,40.09,0,0,0,69,8.88c1.37.17,3.11.19,4.51.3,1.59.24,2.81.79,4.27,1a45.23,45.23,0,0,1,4.49.74c1.47.4,2.77,1,4.33,1.58s2.77.94,4.27,1.58a35.29,35.29,0,0,1,3.88,2c1.44.75,2.75,1.35,4.17,2,1.18,1,2.39,1.87,3.49,2.85a39.71,39.71,0,0,1,3.76,2.41c1.27,1.07,2.13,2.28,3.34,3.26.94,1.14,2.33,1.94,3.42,3.1s1.61,2.46,2.5,3.63a32,32,0,0,1,3,3.5,27.06,27.06,0,0,1,2.06,3.84,32.06,32.06,0,0,1,2.38,3.83,35.11,35.11,0,0,1,1.59,4.41A17.45,17.45,0,0,1,126.15,53a34.71,34.71,0,0,1,1,4.44,35.46,35.46,0,0,1,1.1,4.33,20,20,0,0,1,.13,4.61A34.14,34.14,0,0,1,128.89,70.89Z"/></g><g class="cls-5"><path class="cls-7" d="M209.89,59.63a16.8,16.8,0,0,1-.33,3.06c0,1.11,0,2.08-.05,3.22-.28,1-.52,2.11-.78,3s-.34,2-.68,3.05-.88,2.08-1.16,2.94a25.29,25.29,0,0,1-1.25,3A17.18,17.18,0,0,1,204,80.8a24.09,24.09,0,0,1-1.5,2.7c-.58.93-1.44,1.67-2.08,2.56a19.22,19.22,0,0,1-1.92,2.37,22.71,22.71,0,0,1-2.23,2.16c-.84.83-1.4,1.54-2.22,2.24a24,24,0,0,1-2.75,1.84,20.45,20.45,0,0,1-2.53,1.87A14.8,14.8,0,0,1,186,98c-1,.41-1.85,1.07-2.86,1.47a15.81,15.81,0,0,1-3,1,30.71,30.71,0,0,1-2.93,1.12c-1,.25-2.12.33-3.13.65-1,.12-2,.52-3.19.63a23.49,23.49,0,0,1-3.17.18c-.9,0-2.12.26-3.12.27s-2-.26-3.08-.19c-1.11-.21-2.2,0-3.17-.14-1.17-.3-2.21-.61-3.15-.86a14,14,0,0,1-3.21-.48c-.9-.37-2-.79-3-1.22a26.84,26.84,0,0,1-2.88-.94,14.27,14.27,0,0,1-2.81-1.58,17.59,17.59,0,0,1-2.88-1.35c-.86-.5-1.62-1.23-2.61-1.92-.75-.56-1.75-1.09-2.65-1.81A28.7,28.7,0,0,1,133,90.7c-.87-.86-1.62-1.49-2.39-2.22A12.66,12.66,0,0,1,128.73,86a20.69,20.69,0,0,1-2.07-2.53c-.6-.9-1-1.82-1.57-2.71S124,78.9,123.53,78s-.83-2-1.18-2.91-.93-2-1.28-3-.39-2-.6-3c-.27-1.17-.58-2.08-.77-3.19a26.79,26.79,0,0,1-.07-3.23c-.13-1-.35-2-.38-3s.25-2.13.35-3.18a25,25,0,0,1,.17-3.25c.19-1,.53-2,.65-3,.4-1.08.37-2.27.68-3.23s.9-1.93,1.23-2.94c.52-1,.65-1.91,1.22-2.86s1.13-1.87,1.52-2.74c.54-1.06,1-1.92,1.57-2.87a15.81,15.81,0,0,1,2.11-2.36,18.92,18.92,0,0,1,1.86-2.61,14.61,14.61,0,0,1,2.4-2.14,27.82,27.82,0,0,1,2.14-2.2,22.82,22.82,0,0,1,2.69-1.83c.85-.56,1.6-1.3,2.46-1.95,1-.46,2-.83,3-1.28a12.58,12.58,0,0,1,2.84-1.6,20.51,20.51,0,0,1,3-.93c1-.42,2-.86,2.85-1.26a17.69,17.69,0,0,0,3.12-.57c1.15-.15,2.15-.49,3.11-.59a26.68,26.68,0,0,1,3.29-.21c1,0,2.14-.36,3.18-.33s2.12.23,3.06.39a28.47,28.47,0,0,1,3.16.11,26.47,26.47,0,0,1,3.19.77,9.56,9.56,0,0,1,3.11.54c1,.3,2,.71,3.05,1.13l2.94.93A23.33,23.33,0,0,0,186,21.07a23.66,23.66,0,0,0,2.8,1.41c.9.58,1.71,1.38,2.59,2s1.74,1.1,2.64,1.68a23.9,23.9,0,0,0,2.24,2.26,23.22,23.22,0,0,0,2.34,2.11c.59.92,1.2,1.75,1.89,2.65s1.36,1.61,2,2.38c.5.92,1,1.94,1.52,2.92.48.83,1.09,1.69,1.61,2.69s.76,2,1.2,2.92c.27,1,.85,1.94,1.06,2.87a24.2,24.2,0,0,1,.71,3.14c.28,1,.65,2.16.82,3.14s0,2.15.09,3.1A14.82,14.82,0,0,1,209.89,59.63Z"/></g><g class="cls-5"><path class="cls-8" d="M329.33,59.5c-.1,1.49-.27,2.89-.37,4.3-.11,1.57-.14,2.94-.34,4.42a29,29,0,0,1-1,4.13c-.4,1.35-.41,2.94-.94,4.17a29.93,29.93,0,0,1-1.57,4c-.63,1.44-.88,2.93-1.47,4.14s-1.55,2.36-2.29,3.76c-.61,1.11-1.33,2.53-2.05,3.72s-1.85,2.17-2.66,3.27c-1.09,1.1-1.83,2.51-2.72,3.44a25.5,25.5,0,0,1-3.23,2.91c-1,1-1.79,2.15-3,3.19-1.18.79-2.42,1.42-3.66,2.35a35.28,35.28,0,0,1-3.39,2.5,27.35,27.35,0,0,1-3.87,1.93,26.88,26.88,0,0,1-3.94,2.14,34.45,34.45,0,0,1-4,1.34,16.79,16.79,0,0,1-4.16,1.46c-1.36.42-2.63.47-4,.89-1.38.14-2.84.85-4.42,1-1.35.12-2.73,0-4.22.25s-2.79.27-4.27.36a40.35,40.35,0,0,0-4.36-.48c-1.5-.2-2.92.1-4.34-.11a24.17,24.17,0,0,1-4.06-1c-1.51-.32-3.1-.39-4.29-.72-1.48-.56-2.76-1.19-4.09-1.58-1.46-.57-2.87-.83-4.07-1.28a28,28,0,0,0-4-2.07c-1.09-.81-2.55-1.29-3.75-2.08s-2.35-1.76-3.58-2.43c-1.07-.94-2.31-1.62-3.4-2.43a41.66,41.66,0,0,1-3.08-3.16c-1.23-1-2.23-1.85-3.27-2.9a32.48,32.48,0,0,1-2.59-3.44,20,20,0,0,1-2.77-3.4c-.68-1.07-1.32-2.51-2.15-3.78-.64-1.25-1.43-2.36-2.1-3.53-.68-1.45-.94-2.77-1.65-4-.33-1.37-1.25-2.6-1.48-4.2a29.37,29.37,0,0,1-.95-4.22,30.88,30.88,0,0,1-1-4.06,21.34,21.34,0,0,1-.28-4.34c0-1.48-.44-2.8-.48-4.34a21.82,21.82,0,0,1,.52-4.32,20.84,20.84,0,0,1,.23-4.21c.28-1.5.67-2.76.9-4.32.38-1.38.57-2.78.94-4.17a39,39,0,0,1,1.69-3.9,40.31,40.31,0,0,1,1.49-4,27.38,27.38,0,0,1,2.25-3.77c.63-1.22,1.37-2.61,2.19-3.94A31.22,31.22,0,0,1,219,23.59c.86-1.14,1.55-2.34,2.54-3.42a30.12,30.12,0,0,1,3.23-2.9,18,18,0,0,1,2.93-2.93c1.25-.95,2.58-1.62,3.68-2.47a23.28,23.28,0,0,1,3.51-2.63,40.56,40.56,0,0,1,3.75-1.84,34.36,34.36,0,0,1,3.92-2.29c1.15-.41,2.71-.79,4.09-1.25a35.34,35.34,0,0,1,4.09-1.58c1.35-.38,2.87-.39,4.06-.62,1.62-.27,2.88-.81,4.44-1,1.31-.13,2.64,0,4.29-.19,1.31,0,2.71-.41,4.15-.41s2.93.35,4.44.36c1.27.21,2.93,0,4.37.24a34.08,34.08,0,0,1,4.2.86c1.25.35,2.69.36,4.06.79,1.6.55,2.83,1.24,4.21,1.59a28.07,28.07,0,0,1,4.15,1.43,20.59,20.59,0,0,1,3.73,2c1.35.7,2.6,1.26,3.93,1.81,1.21.9,2.31,1.93,3.34,2.69,1.22.82,2.52,1.51,3.63,2.4s1.92,2,3,2.94c1.05,1.19,2.26,2.07,3.19,3.08s1.65,2.3,2.54,3.41a22.21,22.21,0,0,1,2.76,3.27,42.44,42.44,0,0,1,2.15,3.89,33.56,33.56,0,0,1,2.28,3.63c.47,1.35,1,2.64,1.35,4.15a17.26,17.26,0,0,1,1.68,3.88,20,20,0,0,1,.87,4.28,16,16,0,0,1,1,4.22c.24,1.41.27,2.88.46,4.24C329,56.76,329.41,58.11,329.33,59.5Z"/></g><g class="cls-5"><path class="cls-9" d="M409.08,70.73a31,31,0,0,1-.41,3.63c0,1,0,2.22-.06,3.5a25.26,25.26,0,0,1-1,3.23,14.73,14.73,0,0,1-.68,3.46,18.25,18.25,0,0,1-1.38,3.39,33.94,33.94,0,0,1-1.17,3.27,16.65,16.65,0,0,1-1.82,2.91,12.63,12.63,0,0,1-1.7,3c-.66,1.06-1.51,1.91-2.09,2.78-.88.83-1.38,1.88-2.22,2.77a22.85,22.85,0,0,1-2.46,2.3,17.66,17.66,0,0,1-2.66,2.45,20.1,20.1,0,0,1-2.9,2,25.5,25.5,0,0,1-2.71,2.11c-1.05.68-2.16,1-3.2,1.63-.93.42-1.93,1.23-3.06,1.66s-2.29.63-3.39,1a17.38,17.38,0,0,1-3.24,1.16,35.28,35.28,0,0,1-3.47.79,21.19,21.19,0,0,1-3.39.68,25.64,25.64,0,0,1-3.57.11c-1.16.11-2.19.42-3.49.45-1.1-.05-2.25-.29-3.43-.38s-2.27,0-3.54-.13-2.31-.58-3.28-.71c-1.17-.35-2.31-.35-3.59-.67s-2.21-.83-3.27-1.24a29.92,29.92,0,0,0-3.34-1.06,28.52,28.52,0,0,0-3.07-1.78,26.43,26.43,0,0,0-3.08-1.47c-.93-.77-2-1.4-2.74-2.17-1.07-.59-2-1.25-3-1.91s-1.73-1.78-2.56-2.53-1.83-1.58-2.55-2.42-1.34-1.91-2.1-2.71a26.17,26.17,0,0,1-2.18-2.79c-.69-.85-1.12-2-1.76-2.94-.48-1.15-1.24-2-1.74-3.11a14.25,14.25,0,0,1-1.24-3.19,19.48,19.48,0,0,1-1.36-3.27c-.43-1.23-.39-2.32-.8-3.42-.26-1.26-.66-2.27-.82-3.49-.1-1,0-2.37,0-3.52a15.53,15.53,0,0,1-.49-3.47,33.32,33.32,0,0,1,.48-3.41,20.68,20.68,0,0,1,.08-3.62c.14-1,.63-2.27.87-3.28a28.51,28.51,0,0,1,.8-3.47c.33-1.19.94-2.16,1.26-3.19.5-1.18.72-2.2,1.27-3.35a30.69,30.69,0,0,1,1.73-2.92,18.55,18.55,0,0,1,1.81-3.11,19.44,19.44,0,0,1,2.22-2.83c.73-.81,1.29-1.92,2-2.76a22.07,22.07,0,0,1,2.73-2.25,33.75,33.75,0,0,1,2.46-2.47c.76-.8,2-1.33,2.83-2.1a27.54,27.54,0,0,1,2.93-2.09c.85-.58,2.09-.94,3.12-1.55s1.94-1.09,3.07-1.59a13.84,13.84,0,0,1,3.24-1.07c1.2-.37,2.19-.91,3.28-1.36,1.11-.16,2.38-.32,3.51-.52a12.39,12.39,0,0,1,3.44-.8c1.17-.18,2.23-.13,3.5-.22a17.83,17.83,0,0,1,3.49-.2,29.18,29.18,0,0,1,3.43.29c1.15-.05,2.29,0,3.59,0,1.16.26,2.23.55,3.25.81,1.3.35,2.49.35,3.47.6a29.36,29.36,0,0,1,3.28,1.28,35.1,35.1,0,0,1,3.4,1.21,11.94,11.94,0,0,1,3,1.66c1.08.55,2.32.93,3.22,1.45s1.88,1.53,2.77,2.07,2.12,1.36,3,1.95c.75.74,1.65,1.69,2.51,2.57.65.81,1.75,1.45,2.47,2.32s1.49,1.87,2.17,2.78,1.63,1.76,2.16,2.68,1.11,2.1,1.8,3.05c.54,1.12,1.26,2,1.69,3.11s.82,2.21,1.19,3.18c.41,1.25,1,2.3,1.36,3.33a28.25,28.25,0,0,1,.73,3.48,28,28,0,0,1,.88,3.38,23,23,0,0,1,.1,3.39C408.74,68.38,409,69.52,409.08,70.73Z"/></g><g class="cls-5"><path class="cls-10" d="M437.36,106.69a10.87,10.87,0,0,1-.17,1.73,12,12,0,0,1-.11,1.71,5.3,5.3,0,0,1-.42,1.7,15.57,15.57,0,0,1-.29,1.73c-.18.6-.48,1-.71,1.67s-.41,1.12-.61,1.57-.58,1-.92,1.56a13.52,13.52,0,0,1-.79,1.49c-.35.49-.8.91-1.16,1.33a15.77,15.77,0,0,1-1,1.41c-.43.42-.87.77-1.36,1.21a12.71,12.71,0,0,1-1.2,1.28,13.88,13.88,0,0,1-1.46.91,17.33,17.33,0,0,1-1.39,1,17.88,17.88,0,0,1-1.57.86,9.09,9.09,0,0,0-1.51.84c-.59.17-1.17.31-1.66.49a13,13,0,0,1-1.71.63,10.1,10.1,0,0,1-1.69.28,16.14,16.14,0,0,1-1.76.44c-.5,0-1.14,0-1.73.08a13.33,13.33,0,0,1-1.71.13,13.69,13.69,0,0,1-1.81-.17h-1.74c-.56-.12-1.15-.37-1.68-.49a13.8,13.8,0,0,1-1.76-.25c-.56-.17-1-.47-1.56-.67a7.13,7.13,0,0,1-1.69-.56,13,13,0,0,1-1.54-.77,13.86,13.86,0,0,1-1.57-.82c-.56-.33-1-.68-1.43-1s-1-.62-1.47-1-.8-.89-1.23-1.24-.91-.79-1.33-1.2-.68-.9-1-1.38-.74-.91-1.07-1.34-.56-1.07-.92-1.58a13.12,13.12,0,0,1-.83-1.5,7.52,7.52,0,0,1-.69-1.62c-.17-.55-.47-1-.65-1.56a16.27,16.27,0,0,1-.3-1.81,7.23,7.23,0,0,1-.42-1.61c-.17-.6-.05-1.22-.16-1.84a17.05,17.05,0,0,1-.14-1.74,13.21,13.21,0,0,1,.21-1.66,11.33,11.33,0,0,1,0-1.84c.14-.51.29-1.09.42-1.69s.19-1.15.33-1.67.54-1.06.69-1.62.42-1.17.62-1.66.6-1,.89-1.52.58-1,.88-1.49.77-1,1.08-1.4.71-.91,1.11-1.39a8.24,8.24,0,0,1,1.28-1.16,11.65,11.65,0,0,1,1.28-1.24,11.79,11.79,0,0,1,1.46-1,7.52,7.52,0,0,1,1.39-1,11.24,11.24,0,0,1,1.55-.8,14,14,0,0,0,1.49-.89,14.3,14.3,0,0,0,1.7-.48,10.66,10.66,0,0,1,1.62-.64,12.9,12.9,0,0,1,1.7-.32c.63-.09,1.14-.29,1.74-.37s1.14-.06,1.77-.1,1.15-.15,1.72-.14,1.19.09,1.81.11,1.16,0,1.73.12,1.1.28,1.67.35,1.18.18,1.78.37a15.59,15.59,0,0,1,1.6.59,14.74,14.74,0,0,0,1.71.54c.53.25,1,.59,1.46.84s1.12.53,1.63.81.9.69,1.4,1,1,.64,1.43,1a9.14,9.14,0,0,1,1.24,1.32,10.23,10.23,0,0,1,1.33,1.16,8.54,8.54,0,0,0,1.05,1.33c.37.46.73,1,1.13,1.39s.54,1.06.79,1.54.7,1,.94,1.47a13.48,13.48,0,0,1,.58,1.64c.24.61.47,1.1.67,1.63s.21,1.2.4,1.76.27,1.07.44,1.68,0,1.16,0,1.74A7.07,7.07,0,0,1,437.36,106.69Z"/></g><path class="cls-11" d="M444.37,155.12a24,24,0,0,0-3.87-8.43,39.2,39.2,0,0,0-6.16-6.56,65.06,65.06,0,0,0-14.84-9.38l-.39.72A83.5,83.5,0,0,1,432.65,142,36.44,36.44,0,0,1,438,148.4a23.07,23.07,0,0,1,3,7.4c.93,5.18-1.05,10.4-4.42,14.64a47.52,47.52,0,0,1-12.79,10.48c-9.75,5.74-20.55,9.82-31.47,13.31s-22.13,6.25-33.41,8.58a607.7,607.7,0,0,1-68.42,10c-22.57,2.07-45.23,3.25-67.9,3.39-22.68-.14-45.34-1.32-67.91-3.39a608,608,0,0,1-68.42-10c-11.28-2.33-22.45-5.15-33.41-8.58s-21.72-7.57-31.47-13.31A47.52,47.52,0,0,1,8.53,170.44C5.16,166.2,3.18,161,4.11,155.8a23.07,23.07,0,0,1,3-7.4A36.44,36.44,0,0,1,12.4,142a83.5,83.5,0,0,1,13.54-10.49l-.39-.72a65.06,65.06,0,0,0-14.84,9.38,39.2,39.2,0,0,0-6.16,6.56,24,24,0,0,0-3.87,8.43,18.89,18.89,0,0,0,.41,9.47,26.71,26.71,0,0,0,4.3,8.27A51.56,51.56,0,0,0,19.2,184.43c10.18,6.1,21.16,10.33,32.24,14s22.4,6.54,33.78,9a586.43,586.43,0,0,0,69,10.2c22.31,2.05,44.7,2.89,67.09,2.89v0h2.51v0c22.39,0,44.78-.84,67.09-2.89a586.43,586.43,0,0,0,69-10.2c11.38-2.45,22.66-5.41,33.78-9s22.06-7.88,32.24-14a51.56,51.56,0,0,0,13.81-11.57,26.71,26.71,0,0,0,4.3-8.27A18.89,18.89,0,0,0,444.37,155.12Z"/><path class="cls-11" d="M250,248.33c9.43-.61,18.86-1.47,28.23-2.81a219.14,219.14,0,0,0,27.89-5.67,74.71,74.71,0,0,0,13.5-5,27.37,27.37,0,0,0,6.15-4.1c1.86-1.6,3.61-4.06,3.45-6.85h-1.47c-.34,2-1.85,3.56-3.63,4.82a32,32,0,0,1-5.91,3.13,94.63,94.63,0,0,1-13.09,4.32,214.48,214.48,0,0,1-27.48,4.93q-13.89,1.69-27.92,2.43-13.58.73-27.19.81t-27.2-.81q-14-.72-27.92-2.43a214.79,214.79,0,0,1-27.48-4.93,94.06,94.06,0,0,1-13.08-4.32,31.75,31.75,0,0,1-5.92-3.13c-1.78-1.26-3.29-2.81-3.63-4.82h-1.46c-.17,2.79,1.58,5.25,3.44,6.85a27.37,27.37,0,0,0,6.15,4.1,74.71,74.71,0,0,0,13.5,5,219.14,219.14,0,0,0,27.89,5.67c9.37,1.34,18.8,2.2,28.23,2.81,8.86.57,17.74.75,26.62.78v0h1.71v0"/><path class="cls-12" d="M51.42,101.41c6.22-1.91,11.46-3.8,15.84-5.47s5.68,1.45,1.73,3.94c-7.45,4.27-17.82,8.8-34,14.11-.09,2.64-.87,5.05-2.7,5.29-2.28.19-4.66-4.55-6.19-10.38-.23-1,.16-1.33,1-1.45q9-1.83,16.61-3.82c-1.25-10.36-4.37-40-7.12-51.82A145.09,145.09,0,0,1,16,66.25c-3.08,1.61-4.71-1.58-2.1-3.46C29.57,51,43.75,37.82,52.66,18A2.07,2.07,0,0,1,55,16.61c4.21.32,9.58,1.92,9.82,3.76.11.86-.59,1.39-1.85,1.77C75.05,32.3,92.18,35.86,107.75,36.67c3.42.1,3,2.24,1,3.28a8.88,8.88,0,0,0-4,3.81c-1.33,2.37-2,3.11-4.9,2.73C87.62,44.58,71.5,37.91,59.94,25a107.85,107.85,0,0,1-20.6,24.42,26.31,26.31,0,0,1,8.93,2.89L57.65,51c-.46-4.33-1.34-9.37-2-12.58A1.37,1.37,0,0,1,57,36.64c1.83-.24,11.06-1,11.39,1.58.26,1.94-1.89,3.1-5.15,4.18l1,7.76L77.7,48.4c1.24-2.25,2.89-4.77,4.08-4.92,2-.27,8.67,3.47,9,5.84.18,1.4-1.42,2.6-3.17,3.48.81,7,3.09,22.74,3.56,26.3.44,3.34-1.08,4.31-4,4.69-2.48.32-3.38-1.53-3.61-3.26l0-.32-16.07,2.1A38.91,38.91,0,0,0,81.14,93,70.4,70.4,0,0,0,97.4,76.52a1.87,1.87,0,0,1,2.68-.46c3.66,1.94,7.8,5.12,7.17,7-.4,1.15-1.55,1.63-4.93.87a83.86,83.86,0,0,1-16,11.19c8,2.79,17.39,3.76,27.53,3.3,3.49-.12,3.45,2.07,1.08,3.26a9,9,0,0,0-4.21,3.84c-1.15,2.13-1.8,3-4.91,2.73-17.78-1-33.73-8.85-43.55-25.22L49.12,84.72ZM45.82,57c.16,2.07.54,5.85.94,9.75l34.61-4.54c-.49-3.77-1-7.33-1.27-9.7ZM83,75.9l-1.12-9.4L47.33,71l.89,6.8.34,2.58Z"/><path class="cls-12" d="M202.82,56.85c.26,4.38-3.82,6.72-9.55,9-3.67,1.5-12.19,4.65-18.08,7.28.12,2.1.36,4.56.46,6.39.13,2.19-.69,3.79-2.7,4a3.69,3.69,0,0,1-4-3.61c-.06-1,0-2.2,0-3.76-6,3.47-9.51,6.6-9.26,10.89.24,4,5.17,5.29,10,5,7.58-.44,12.13-2.54,15.88-2.76,2.83-.16,5.61.5,5.78,3.33.15,2.65-6.11,5.21-18.53,5.93-12,.7-18-3.25-18.44-10-.32-5.39,3.09-9.89,14.61-16.42a35.4,35.4,0,0,0-.35-4.47c-.62-4.45-3.1-9.16-7.75-8.89-5.75.33-8.24,8-14.41,16.77-1.27,1.82-2.27,3.53-4.46,3.65a3.11,3.11,0,0,1-3.48-3.09c-.19-1.64.34-3.5,2.58-6,5.67-6.37,12.6-14.93,16.6-24.87a84.8,84.8,0,0,1-11.28,1.39c-6.57.38-10.42-2.69-11.93-9.84-.4-2.08.85-2.61,2.39-1.33,4.72,3.85,7.38,5.62,12.68,5.31a92.88,92.88,0,0,0,10.1-1.14,27.56,27.56,0,0,0,1.48-6.13c.16-1.93.34-3.5-1.21-5S157.07,26.07,157,25c-.07-1.28,2.73-2,4.09-2.07,2.93-.17,6.91.6,7,2.8.11,1.91-1.2,7.76-2.75,12.61,9.64-2.76,13-7,16.8-7.2,2-.12,4.36.84,4.58,3.12.21,2.09-2.91,3.47-5.41,4.62s-12.13,4-18.47,5.38c-1.55,3.11-4.68,9.25-6,12.16,6-2,11.82-1.69,15.46,5.88,4.93-9.81,11.12-13.65,17.51-14C196.44,47.88,202.52,51.55,202.82,56.85Zm-7.4-1.22c-.14-2.56-2.43-4-6.26-3.76s-8.79,3.26-11.51,8.46A21,21,0,0,0,175,68.91c5.69-2.9,11.41-5.43,13.54-6.56C192.94,60.08,195.63,59.1,195.42,55.63Z"/><path class="cls-12" d="M299.75,20c2.57-3.46,5.93-7.54,7.66-7.45,2.28.11,10.2,7.36,10.06,10.08-.08,1.63-2,2.51-6.43,2.29l-47.46-2.37c1.06.71,1.78,1.51,1.74,2.38-.09,1.73-2.95,2.35-5.35,2.45-2.11,2.94-4.55,6.09-6.87,9,14.34.5,25.88.42,35.91.16a81.14,81.14,0,0,0-5.77-6.39c-1.46-1.37-.25-3.71,2.22-3,11.58,3.41,17.88,10.25,18.92,15.75.71,3.19-.82,5.51-3.9,6.12-2.2.43-3.56-.72-5.08-2.87-.92-1.35-1.9-3.47-3.32-5.5-15.8,2.48-36.41,3.08-56.09,2.65-.77,2.35-2.08,4.47-3.91,4.16-2.27-.33-3.34-5.18-3.37-11.06,0-1,.51-1.39,1.37-1.24,5.75.4,11.07.66,16.07.91a64.44,64.44,0,0,0,6.25-14l-30-1.5c-1.41-.07-2.37-.55-2.28-2.29s1.08-2.12,2.49-2.05l42,2.09a97.81,97.81,0,0,0,.25-11.52,1.36,1.36,0,0,1,1.6-1.56c1.85.09,12.36,1,12.22,3.88-.12,2.28-2.55,3-5.95,3.62l-.3,6ZM283.64,52.72c1.84-2.09,4.35-4.46,5.12-4.43,2.6.13,9.26,6.24,9.16,8.3-.07,1.41-2.19,2.39-4.51,3.15-.66,8.89-1.26,23.13-2,35.07-.32,6.51-5.34,9-10,8.75s-2.09-4-8.06-6.5c-2.13-1-1.78-3.57.28-3.47.87,0,5,.68,6.6.77,2.39.12,3.31-.82,3.65-3.31.19-1.62.3-3.79.41-6.07l-36.59-1.83L247,99.23c-.12,2.39-1.91,3.5-5.28,3.33a2.75,2.75,0,0,1-2.89-3.19c.56-9,2.86-39.81,2.25-51.6a1.34,1.34,0,0,1,1.59-1.34c1.72.31,7.38,2.55,9.89,4.74Zm1,27.92.38-7.71.11-2.06L248.42,69l-.31,6.19-.18,3.58ZM249.32,55.36c-.2,1.84-.39,5.54-.68,9.33l36.7,1.83.47-9.34Z"/><path class="cls-12" d="M353.28,49.85c.33-2.82.45-3.91-.5-5.21-1.27-1.81-3.93-2.67-3.72-4.48.18-1.55,3.75-2.24,5.75-2s6.37,2.3,6.07,4.84c-.19,1.64-1.06,5.22-2,9.26.85,2.21,2.11,2.45,6,1.7,2.44-.46,4.86-1.47,6.68-1.26s3.06,1.37,2.89,2.91c-.29,2.45-3.54,3.55-7.79,4.44-2.17.49-5.64,1-9.65,1.47-.86,4.32-1.88,9.17-2.48,12.78a10.22,10.22,0,0,1,.5,5.22c-.87,7.54-6.25,10.32-7.16,18.23-.42,3.63,1.7,5.17,8.7,6,7.54.87,15,.07,16.6-5.91,1.46-5.45,1.67-14.44,4.33-21.59,2.13-5.65,6.32-13.27,14.4-12.34,7.64.88,14.09,8.81,13.25,16.07-.38,3.27-2.26,4.44-5.35,4.91a43.74,43.74,0,0,1-11.4-.12c-2.71-.49-2.61-2.14-.41-2.9,2.4-.83,4.81-1.74,7.43-2.92s2.62-2,2.8-3.54c.28-2.45-2.62-6.84-7.25-7.37-4.27-.49-7.13,4.33-8.78,9.11-3.06,9-1.66,16-2.49,23.19-.9,7.81-9.05,11.39-23.13,9.76-10.36-1.19-14.86-4.47-14.08-11.19.13-1.18.47-3.26.86-5.06-6.81,0-13.15-4.18-12.45-10.18.81-7.08,10.38-13.44,18.19-12.54a7.07,7.07,0,0,1,1.36.25c.53-3.07,1-6.24,1.35-9.33A78.38,78.38,0,0,1,338,61.9c-5.36-.62-8.19-6.38-7.67-10.92.15-1.27,1-1.45,1.91-.61,3.75,3.47,4.37,5.2,9.46,5.79a69.83,69.83,0,0,0,10.83.32Zm-7.16,25.41c-4.45-.51-10.14,4.08-10.6,8.08-.29,2.54,1.7,4.43,4.79,4.78s4.87-1.55,6.38-5.06C347.94,80.26,349.3,75.63,346.12,75.26Z"/><path class="cls-12" d="M404.91,108.34a12.8,12.8,0,1,1,9.55,15.38A12.84,12.84,0,0,1,404.91,108.34Zm20.66,4.82a8.41,8.41,0,1,0-10.11,6.28A8.39,8.39,0,0,0,425.57,113.16Z"/><path class="cls-13" d="M148.85,159.8c.29,16.36,12.07,16.24,12.07,16.24l-1.09,8.2s-12.84.22-17.52-13.62a14,14,0,0,1-4.88.93c-6,.1-11.31-3.86-11.44-11.05-.12-7,6.38-11.35,11-11.44a12.2,12.2,0,0,1,3.37.48l-.16-9.64-11.71.21-.14-8.26,11.7-.2-.07-4.13,8.26-.15.07,4.13,8.72-.15.14,8.26-8.72.15Zm-8.63.45a2.95,2.95,0,1,0-2.94,3A3,3,0,0,0,140.22,160.25Zm19.42-13.49,8-2,3.54,14.48-8,2Z"/><path class="cls-13" d="M201,163.72,200,146l-17.11.9-.43-8.25,17.11-.89-.43-8.25,8.25-.44.43,8.25,8.63-.45.44,8.25-8.64.45.93,17.72Zm5.32,22.54c-9.88-1.47-20.66-5.5-23.1-22.76l8.21-1.12c2.24,13.44,9.43,14.67,16.14,15.7Z"/><path class="cls-13" d="M255.24,184c-18,5.42-24.1-.45-23.39-20.71l1.22-34.86,8.26.29-1.22,34.86c-.51,14.52,2.89,15.79,12.73,12.53Z"/><path class="cls-13" d="M309.11,153.53c0,18.66-12.39,26.92-22.8,26.92v-8.26c7,0,14.23-6.12,14.23-18.58,0-4.67-2.06-10.87-8-12.7-1.53,16.75-9.18,22.49-15.69,22.49-6,0-11.47-2-12.92-8.72C261.3,142.21,273,132,288.76,132,303.52,132,309.11,145.11,309.11,153.53ZM284.32,140.6c-14.53,2.22-15.6,15.07-8.79,15.07C278.89,155.67,283.18,151.92,284.32,140.6Z"/></g></g></g></svg>