<svg xmlns="http://www.w3.org/2000/svg" viewBox="0 0 171.29 42.04"><defs><style>.cls-1{fill:#fff;}</style></defs><g id="レイヤー_2" data-name="レイヤー 2"><g id="レイヤー_1-2" data-name="レイヤー 1"><path class="cls-1" d="M2.14,37.65a5.57,5.57,0,0,0,.06-6.16A18.1,18.1,0,0,1,.58,18.24,19.13,19.13,0,0,1,8.21,7a17.48,17.48,0,0,1,7-3.1,4.91,4.91,0,0,0,4-3.34L19.34,0l.15,0,.62,1.33a4.13,4.13,0,0,0,3.1,2.39,16.05,16.05,0,0,1,6.26,2.35A23.27,23.27,0,0,1,35,11c.43.55.2.86-.21,1.13-.56.37-1.19.65-1.78,1s-.74-.11-1-.42A14.48,14.48,0,0,0,22.1,6.93c-5.49-.84-10.43.52-14.26,4.58A15.36,15.36,0,0,0,4,27.33C5.62,32.69,9.18,36.13,14.46,38a13.83,13.83,0,0,0,8.25.55,16.37,16.37,0,0,0,8.91-5.18,16.09,16.09,0,0,0,2.87-16.61c-.24-.66-.1-.87.43-1.17,2.65-1.46,2.13-1.54,3,1.15A18.73,18.73,0,0,1,36.29,32.3a4.54,4.54,0,0,0-.06,4.39c.13.27.29.53.51.92-.54-.16-.94-.31-1.36-.39a4.89,4.89,0,0,0-4.49,1.16,14.91,14.91,0,0,1-6.7,3.1,20.14,20.14,0,0,1-15-2.26A9.9,9.9,0,0,1,7.73,38.1a4.63,4.63,0,0,0-4.42-.84C3,37.34,2.68,37.47,2.14,37.65Z"/><path class="cls-1" d="M22.16,20.84c-1.68-1-.93-2.54-1.08-3.88-.07-.55.24-.55.62-.38a7.49,7.49,0,0,1,3.78,3.76c.16.33.18.75.71.72.26,0,.34.16.34.39,0,.82,0,1.64,0,2.45,0,.12-.08.35-.13.35-1,.06-.9,1-1.27,1.52a7,7,0,0,1-3.4,3.06c-.49.17-.69.09-.67-.46a23,23,0,0,0,0-2.35c0-.56.36-.75.67-1.05.14-.13.35-.25.24-.49s-.29-.13-.45-.13H17.33c-.16,0-.36,0-.43.17s.07.32.21.42c1.38,1.05.49,2.52.66,3.79.06.39-.43.17-.64.09a6.86,6.86,0,0,1-3.61-3.52c-.23-.42-.22-1-.95-1-.29,0-.25-.36-.25-.59,0-.57,0-1.15,0-1.73s-.13-1,.65-1c.35,0,.35-.45.47-.72a7.64,7.64,0,0,1,3.62-3.67c.5-.26.83-.18.76.51a13.64,13.64,0,0,0,0,1.43c0,.74.13,1.52-.73,2a.29.29,0,0,0-.15.42.5.5,0,0,0,.35.12H22Z"/><path class="cls-1" d="M17.22,35.46A12.5,12.5,0,0,1,10.49,32c-3.75-3.75-4.72-8.16-3.4-13.19.22-.83.5-1.1,1.37-.57,1.7,1,1.73,1,1.41,2.93a9.58,9.58,0,0,0,7,10.78c.78.21,1,.51.92,1.23a14.28,14.28,0,0,0,0,1.73C17.83,35.35,17.73,35.61,17.22,35.46Z"/><path class="cls-1" d="M32.38,22.86a12.88,12.88,0,0,1-4.6,9.71,13.31,13.31,0,0,1-5.94,2.86c-.57.13-.86,0-.77-.6v-.1a7.51,7.51,0,0,1,.06-2.23c.28-.77,1.28-.56,1.93-.83a9.52,9.52,0,0,0,5.68-11.56c-.18-.65,0-.89.53-1.19,2.33-1.34,2.34-1.33,2.87,1.3A15.6,15.6,0,0,1,32.38,22.86Z"/><path class="cls-1" d="M21.84,10a11.77,11.77,0,0,1,6.6,3.47c1.44,1.36,1.4,1.31-.23,2.33a1.53,1.53,0,0,1-2.3-.28,8.08,8.08,0,0,0-4.1-2.13c-.59-.14-.79-.37-.75-1a19.83,19.83,0,0,0,0-2C21.06,10,21.23,9.84,21.84,10Z"/><path class="cls-1" d="M17.82,11.81c.33,1.07-.25,1.5-1.43,1.79a8,8,0,0,0-4,2.4c-.34.37-.63.48-1,.16a1,1,0,0,0-.18-.09c-2.32-1.23-2.3-1.32-.31-3a12.89,12.89,0,0,1,5.88-3c.9-.19,1.17,0,1,.9A8.58,8.58,0,0,0,17.82,11.81Z"/><path class="cls-1" d="M78.47,35.76c-1,0-2.18-1.17-3.32-3-1-1.85-2.66-5.43-3.37-14.6H65.21v5.2h5.1v1.82h-5.1v6.18c2.63-.48,6.39-1.55,6.39-1.55l-.12,1.94a141,141,0,0,1-15.74,3l-.65-1.91c1-.09,1.85-.18,2.77-.3V22.5h1.85v9.79c.75-.11,2.72-.44,3.59-.59V18.14H55.56V16.29H71.69c-.15-2.18-.21-4.66-.21-7.44h1.91c0,2.81.09,5.26.21,7.44h7.49v1.85H73.72c.6,7.53,1.94,11.08,3,13.26.65,1.13,1.13,1.88,1.61,1.88s1.19-1.37,2.06-4.93l1.43,1.94C80.86,34.18,79.72,35.76,78.47,35.76ZM57.74,13V11.15H67.87V13Zm21.32,1.65a33.25,33.25,0,0,0-3.79-3.83l1.35-1.22a39.14,39.14,0,0,1,3.79,3.79Z"/><path class="cls-1" d="M108.39,35.7c-1,0-2.12-1.2-3.25-3.11-.33-.56-.48-.86-.78-1.43A27.07,27.07,0,0,1,100,35.73l-1.28-1.41a19.19,19.19,0,0,0,5-4.89c-1.14-2.9-1.77-6.18-2.1-11.38H89.1v2.72c0,5.19-.36,10.45-2.77,14.66L84.8,33.85c2.21-3,2.51-8.63,2.51-13.08V16.38h14.16c0-.78,0-1.55,0-2.39h.65V12.41H94.33v2.71H92.54V12.41H85.37V10.79h7.17V8.85h1.79v1.94h7.76V8.85h1.79v1.94h7.17v1.62h-7.17v2.71h-.65v1.26h4.36a15.68,15.68,0,0,0-1.35-1.47l1.23-1c2.09,2.33,3.88,4.78,3.88,4.78L110,19.81a27.13,27.13,0,0,0-2.15-3.13v1.37h-4.48a38.17,38.17,0,0,0,1.52,10,19.32,19.32,0,0,0,2.6-8.15l1.58,1a19.59,19.59,0,0,1-3.49,9,11,11,0,0,0,1,1.94c.69,1,1.23,1.82,1.73,1.82.66,0,1.26-1.32,2-5.17l1.41,1.79C110.69,34.12,109.59,35.7,108.39,35.7ZM92.48,32.35v1.74h-1.7V20h9.85v1.55H97v2.12h3.22v4.66H97V30.8h3.82v1.55Zm3-10.81h-3v2.12h3Zm3.14,3.56H92.48V27h6.18Zm-3.14,3.22h-3V30.8h3Z"/><path class="cls-1" d="M115.12,34.38l-.36-1.79c2.27-.15,4.27-.33,6-.5v-4h-5V26.32h5V22.68h-5V10.41h11.71V22.68h-5v3.64h5.11v1.73h-5.11v3.83c3.62-.42,5.86-.84,5.86-.84v1.73A119.63,119.63,0,0,1,115.12,34.38ZM120.79,12h-3.16v3.7h3.16Zm0,5.31h-3.16v3.8h3.16Zm5-5.31h-3.17v3.7h3.17Zm0,5.31h-3.17v3.8h3.17Zm12.9,9.32-1.52-1a12.32,12.32,0,0,0,2-4.87h-3V32.83c0,2.42-1.52,2.9-5,2.9L130.41,34c3.67,0,3.91-.24,3.91-1.82V20.74h-5.56V19h6.57a26.06,26.06,0,0,0-4.18-3.89l1.26-1.25s1.07.87,2.33,2.06a17,17,0,0,0,3-4.09h-8.24V10.11h10.33v1.76a24.33,24.33,0,0,1-3.88,5.29c.33.35,1,1.07,1,1.07L136,19h5v1.67A25,25,0,0,1,138.65,26.62Z"/><path class="cls-1" d="M144.66,14.2V12.41H157V8.85h1.91v3.56h12.36V14.2Zm18.51,18.69H163L162.36,31h1.77c2.68,0,2.68-.24,2.68-3.55V21h-7.88V35.73H157V21h-7.68V32.8h-1.85V19.24H157V15.39h1.91v3.85h9.74v8.4C168.67,32.86,167.62,32.89,163.17,32.89Z"/></g></g></svg>