<svg xmlns="http://www.w3.org/2000/svg" viewBox="0 0 175.21 43"><defs><style>.cls-1{fill:#09097e;}</style></defs><g id="レイヤー_2" data-name="レイヤー 2"><g id="レイヤー_1-2" data-name="レイヤー 1"><path class="cls-1" d="M2.19,38.51a5.71,5.71,0,0,0,.06-6.3A18.54,18.54,0,0,1,.59,18.66,19.61,19.61,0,0,1,8.4,7.11a17.82,17.82,0,0,1,7.13-3.18A5,5,0,0,0,19.61.52c.05-.16.11-.33.17-.48s.06,0,.16,0c.2.44.41.9.63,1.36A4.2,4.2,0,0,0,23.74,3.8a16.67,16.67,0,0,1,6.41,2.41,24.08,24.08,0,0,1,5.64,5c.44.56.21.88-.21,1.15-.58.39-1.22.67-1.82,1s-.76-.12-1-.43A14.82,14.82,0,0,0,22.6,7.09C17,6.23,11.93,7.62,8,11.77A15.74,15.74,0,0,0,4.1,28c1.65,5.47,5.29,9,10.69,10.92a14.14,14.14,0,0,0,8.44.56,16.72,16.72,0,0,0,9.11-5.3,16.44,16.44,0,0,0,2.93-17c-.24-.67-.09-.89.45-1.19,2.71-1.5,2.18-1.58,3.06,1.18A19.17,19.17,0,0,1,37.12,33a4.65,4.65,0,0,0-.06,4.5c.13.28.3.54.52.94-.55-.16-1-.32-1.39-.4a5,5,0,0,0-4.59,1.19,15.47,15.47,0,0,1-6.85,3.17,20.61,20.61,0,0,1-15.4-2.32A9.74,9.74,0,0,1,7.91,39a4.75,4.75,0,0,0-4.52-.86C3.06,38.2,2.74,38.32,2.19,38.51Z"/><path class="cls-1" d="M22.67,21.31c-1.72-1-1-2.59-1.11-4-.06-.57.25-.56.63-.39a7.63,7.63,0,0,1,3.87,3.84c.16.34.18.78.72.74.27,0,.36.17.36.4,0,.84,0,1.67,0,2.51,0,.12-.08.35-.14.36-1,.06-.92,1-1.3,1.55a7.28,7.28,0,0,1-3.47,3.13c-.5.17-.71.09-.68-.47a21.34,21.34,0,0,0,0-2.4c0-.58.37-.78.69-1.08.14-.13.36-.26.24-.5s-.3-.14-.46-.14H17.73c-.16,0-.38,0-.44.17s.07.33.21.43c1.41,1.07.5,2.58.68,3.87.05.41-.44.18-.66.1a7.05,7.05,0,0,1-3.69-3.6c-.23-.43-.22-1-1-1-.3,0-.26-.36-.26-.59,0-.59,0-1.19,0-1.78s-.13-1,.67-1c.35,0,.36-.46.48-.74A7.79,7.79,0,0,1,17.45,17c.51-.27.84-.19.78.52,0,.48,0,1,0,1.46,0,.76.14,1.56-.73,2a.29.29,0,0,0-.16.42.46.46,0,0,0,.35.13h4.77Z"/><path class="cls-1" d="M17.61,36.27a12.7,12.7,0,0,1-6.88-3.52C6.9,28.91,5.9,24.41,7.25,19.26c.23-.85.51-1.13,1.4-.58,1.74,1.07,1.78,1,1.45,3a9.78,9.78,0,0,0,7.2,11c.79.21,1,.53.93,1.26a17.42,17.42,0,0,0,0,1.77C18.24,36.16,18.13,36.43,17.61,36.27Z"/><path class="cls-1" d="M33.12,23.38a13.18,13.18,0,0,1-4.7,9.93,13.62,13.62,0,0,1-6.08,2.93c-.58.13-.88,0-.79-.61a.41.41,0,0,0,0-.11,7.44,7.44,0,0,1,.07-2.27c.28-.8,1.3-.58,2-.86A9.74,9.74,0,0,0,29.4,20.57c-.19-.67,0-.91.54-1.21C32.32,18,32.33,18,32.87,20.68A16.3,16.3,0,0,1,33.12,23.38Z"/><path class="cls-1" d="M22.34,10.23a12,12,0,0,1,6.75,3.55c1.47,1.39,1.43,1.33-.23,2.38a1.56,1.56,0,0,1-2.35-.28,8.36,8.36,0,0,0-4.2-2.19c-.61-.14-.81-.37-.77-1a20.62,20.62,0,0,0,0-2.08C21.54,10.21,21.72,10.06,22.34,10.23Z"/><path class="cls-1" d="M18.22,12.08c.35,1.09-.25,1.54-1.46,1.83a8.18,8.18,0,0,0-4.05,2.46c-.34.38-.64.48-1.06.16-.05,0-.12-.06-.18-.1-2.38-1.25-2.35-1.34-.32-3.09a13.21,13.21,0,0,1,6-3.09c.93-.19,1.2,0,1.07.92A6.37,6.37,0,0,0,18.22,12.08Z"/><path d="M80.26,36.58c-1.07,0-2.23-1.19-3.39-3.09s-2.72-5.56-3.45-14.94H66.7v5.32h5.22v1.86H66.7v6.33c2.69-.49,6.54-1.59,6.54-1.59l-.13,2A144.74,144.74,0,0,1,57,35.57l-.68-2c1-.09,1.9-.18,2.85-.3V23h1.89V33l3.66-.61V18.55H56.83V16.66h16.5q-.22-3.35-.22-7.61h2c0,2.87.09,5.38.21,7.61H83v1.89H75.41c.61,7.7,2,11.34,3,13.57C79.1,33.28,79.59,34,80.08,34c.64,0,1.22-1.4,2.11-5l1.46,2C82.71,35,81.55,36.58,80.26,36.58ZM59.06,13.27V11.4H69.42v1.87ZM80.87,15A33.32,33.32,0,0,0,77,11l1.38-1.25a39.7,39.7,0,0,1,3.88,3.88Z"/><path d="M110.87,36.52c-1.07,0-2.17-1.23-3.33-3.18-.33-.58-.48-.89-.79-1.47a28,28,0,0,1-4.46,4.68L101,35.11a19.63,19.63,0,0,0,5.1-5c-1.16-3-1.8-6.32-2.14-11.64H91.14v2.78c0,5.32-.37,10.69-2.84,15l-1.56-1.62c2.26-3,2.57-8.83,2.57-13.38V16.75h14.48c0-.79,0-1.59,0-2.44h.67V12.69H96.49v2.78H94.65V12.69H87.32V11h7.33v-2h1.84v2h7.94v-2h1.83v2h7.33v1.65h-7.33v2.78h-.67v1.28h4.46a16.35,16.35,0,0,0-1.38-1.5l1.26-1c2.14,2.38,4,4.88,4,4.88l-1.44,1.16a27.15,27.15,0,0,0-2.2-3.2v1.4h-4.58a39.29,39.29,0,0,0,1.56,10.27,19.84,19.84,0,0,0,2.66-8.34l1.62,1a20,20,0,0,1-3.58,9.2,11.25,11.25,0,0,0,1,2c.7,1,1.25,1.87,1.77,1.87.67,0,1.28-1.35,2-5.29L114.2,31C113.23,34.9,112.1,36.52,110.87,36.52ZM94.59,33.09v1.78H92.85V20.45h10.08V22h-3.7V24.2h3.3V29h-3.3v2.54h3.92v1.58ZM97.71,22H94.59V24.2h3.12Zm3.21,3.63H94.59v1.89h6.33ZM97.71,29H94.59v2.54h3.12Z"/><path d="M117.75,35.17l-.37-1.83c2.32-.15,4.37-.34,6.17-.52V28.7h-5.16V26.92h5.16V23.2h-5.07V10.64h12V23.2h-5.07v3.72h5.22V28.7h-5.22v3.91c3.69-.43,6-.86,6-.86v1.77A123.42,123.42,0,0,1,117.75,35.17Zm5.8-22.91h-3.24v3.79h3.24Zm0,5.44h-3.24v3.88h3.24Zm5.07-5.44h-3.23v3.79h3.23Zm0,5.44h-3.23v3.88h3.23Zm13.2,9.53-1.56-1a12.4,12.4,0,0,0,2.08-5h-3.12V33.58c0,2.48-1.55,3-5.13,3l-.7-1.78c3.76,0,4-.24,4-1.86V21.21h-5.68V19.44h6.72a26.8,26.8,0,0,0-4.28-4l1.29-1.29s1.09.89,2.38,2.11a17.17,17.17,0,0,0,3.05-4.18h-8.43V10.34H143v1.8a25.36,25.36,0,0,1-4,5.41c.34.36,1,1.09,1,1.09l-.89.8h5.07v1.71A25.53,25.53,0,0,1,141.82,27.23Z"/><path d="M148,14.52V12.69h12.65V9.05h1.95v3.64h12.65v1.83ZM166.9,33.64h-.15l-.67-2h1.8c2.75,0,2.75-.25,2.75-3.64v-6.5h-8.07v15h-1.95v-15h-7.85v12h-1.9V19.68h9.75V15.74h1.95v3.94h10v8.59C172.52,33.61,171.45,33.64,166.9,33.64Z"/></g></g></svg>