<svg xmlns="http://www.w3.org/2000/svg" viewBox="0 0 303.7 93"><defs><style>.cls-1{fill:#fff;}.cls-2{fill:#867454;}</style></defs><g id="レイヤー_2" data-name="レイヤー 2"><g id="レイヤー_1-2" data-name="レイヤー 1"><path class="cls-1" d="M291.31,46.53A20.58,20.58,0,0,1,289,53.05c-.84,2.08-1.55,4.29-3.3,6.27-.92,1.6-3.45,2.88-5,4.52a58.34,58.34,0,0,1-5.38,4.41c-2.15,1.25-4.59,1.89-6.39,3-2.27,1-4.24,2.51-6,3.53-2.16.82-4.68,1.22-6.69,2.07s-4.39,2.22-6.63,2.93-4.52.79-6.64,1.45-4.16,1.88-6.92,2.48c-1.76.53-4.24.4-6.59,1-2.6.37-4.43,1.47-7.08,2-1.77.31-4.34.31-6.85.6-1.93.38-4.35,1.34-6.83,1.78-2.11.26-4.76,0-7.13.28-2.21.38-4.16,1.14-6.51,1.38s-4.63,0-6.93.21c-2.58.14-5,1-7,1.08-2.23.2-4.79-.21-7.12-.13-2.11.06-4.55.78-7,.73-2,.11-4.82-.33-6.75-.29-2.76.08-4.77.58-6.91.61-2.41,0-5.09-.51-7.38-.65-2-.08-4.76.44-6.89.4-2.35-.14-4.79-.74-6.76-.81-2.46-.09-5.13.3-7.46.2s-4.31-1-6.52-1.19c-2.62-.22-5,.14-7.44-.14s-4.36-1-6.66-1.31c-2.61-.38-4.81,0-7.28-.35-2.25-.47-4.38-1.33-6.54-1.79-2.09-.23-4.78-.28-7.25-.63-1.94-.5-4.2-1.52-6.34-1.87-2.5-.58-4.66-.65-6.84-1.26-2.64-.58-4.53-1.7-6.84-2.3-2.1-.57-4.53-.87-6.86-1.46a54.13,54.13,0,0,1-6.19-2.93c-2.57-.79-5-1.19-7-2a32.73,32.73,0,0,1-5.78-3.5c-2.63-1.11-4.76-1.78-6.4-3a25.6,25.6,0,0,1-5.42-4.46,40.69,40.69,0,0,1-5.73-4.45c-1.62-1.91-2.15-4.22-3.17-6.13-1.19-2.24-2.17-4.45-2-6.75A13.45,13.45,0,0,1,16.73,40a25.06,25.06,0,0,1,3.06-6.33c1.43-1.65,3.64-2.78,5.3-4.4a49.79,49.79,0,0,1,5.35-4.42,73,73,0,0,1,6.67-3.05c2-1,3.66-2.5,5.79-3.46s4.58-1.34,6.92-2.11a55.89,55.89,0,0,1,6.12-2.92c2.25-.74,4.56-.79,7-1.58a55,55,0,0,1,6.69-2.23c2.08-.67,4.25-.55,7-1.14C78.56,7.88,81,6.8,83,6.31c2.41-.44,5-.24,7.28-.66,2-.34,4.41-1.31,6.74-1.58,2.09-.42,4.7-.14,6.73-.39,2.66-.3,4.59-1.15,7.1-1.43,2.11-.33,4.73.17,6.71-.12,2.76-.26,4.64-.91,7.25-1,1.93-.19,4.79.16,7.11,0s4.59-.81,7-.75c2.23-.1,4.67.4,6.73.37,2.4-.05,4.61-.73,6.88-.75C155,0,157.4.59,160,.67c1.84.13,4.19-.52,7-.36a68.53,68.53,0,0,1,7,.9c2.22.1,4.56-.3,6.92-.15s4.39.9,6.6,1.08c2.52.1,5.18-.09,7.45.11s4.24,1,6.44,1.31c2.42.28,5,0,7.33.5,2.38.24,4.53,1.22,6.91,1.59s4.67.2,6.78.62c2.51.42,4.47,1.51,6.65,2,2.69.54,4.82.62,7,1.12s4.66,1.74,6.72,2.31,4.69.75,6.72,1.46c2.29.91,4.64,2.16,6.64,2.87,2,.9,4.58,1.28,6.84,2.26,2,.92,3.65,2.37,5.76,3.43s4.71,1.86,6.29,2.89c2.07,1.36,3.57,3.15,5.59,4.56,1.82,1.52,4,2.83,5.51,4.4a36,36,0,0,1,3,6.23A13.65,13.65,0,0,1,291.31,46.53Z"/><path class="cls-2" d="M303.4,36.8a17,17,0,0,0-2.65-5.92,27.6,27.6,0,0,0-4.21-4.6,44.38,44.38,0,0,0-10.15-6.59l-.27.5a58.4,58.4,0,0,1,9.27,7.37A26.07,26.07,0,0,1,299,32.08a16.43,16.43,0,0,1,2,5.19,13.23,13.23,0,0,1-3,10.26,32.7,32.7,0,0,1-8.73,7.33,104,104,0,0,1-21.49,9.32,234,234,0,0,1-22.82,6,406,406,0,0,1-46.73,7c-15.42,1.43-30.9,2.25-46.39,2.33-15.49-.11-31-1-46.39-2.43A407.38,407.38,0,0,1,58.75,70a232.33,232.33,0,0,1-22.83-6,103.78,103.78,0,0,1-21.51-9.36,32.7,32.7,0,0,1-8.75-7.35A13.26,13.26,0,0,1,2.63,37a16.35,16.35,0,0,1,2-5.18,25.58,25.58,0,0,1,3.62-4.51,56.7,56.7,0,0,1,9.25-7.35l-.28-.5A44.13,44.13,0,0,0,7.12,26a27.54,27.54,0,0,0-4.2,4.6A16.82,16.82,0,0,0,.29,36.48a13.42,13.42,0,0,0,.29,6.63,18.78,18.78,0,0,0,2.94,5.8A35.44,35.44,0,0,0,13,57a106.89,106.89,0,0,0,22,9.83,232.43,232.43,0,0,0,23.08,6.32,391.65,391.65,0,0,0,47.12,7.21c15.24,1.45,30.54,2,45.84,2.07h0c.28,0,.57,0,.85,0h.86v0c15.29,0,30.59-.56,45.83-2a391.23,391.23,0,0,0,47.11-7.11,235.29,235.29,0,0,0,23.06-6.27,106.45,106.45,0,0,0,22-9.78,35.17,35.17,0,0,0,9.42-8.11,18.59,18.59,0,0,0,2.93-5.79A13.54,13.54,0,0,0,303.4,36.8Z"/></g></g></svg>