<?xml version="1.0" encoding="utf-8"?>
<!-- Generator: Adobe Illustrator 26.5.0, SVG Export Plug-In . SVG Version: 6.00 Build 0)  -->
<svg version="1.1" id="レイヤー_1" xmlns="http://www.w3.org/2000/svg" xmlns:xlink="http://www.w3.org/1999/xlink" x="0px"
	 y="0px" viewBox="0 0 1321.8 317.4" style="enable-background:new 0 0 1321.8 317.4;" xml:space="preserve">
<style type="text/css">
	.st0{fill:#EBFFE8;}
	.st1{fill:#8CC35A;}
	.st2{fill:#FFFFFF;}
	.st3{fill:#DF76A1;}
	.st4{fill:#E9E251;}
	.st5{fill:#8DCBDC;}
</style>
<g transform="translate(17724.723 -1335.105)">
	<path class="st0" d="M-17699,1652.2c298.1-21.1,540.6-85,642.8-310.1c28.1,67.9,88.4,189.7,291.7,254.9
		c86.8,27.9,213.5,45.6,345.5,55.4L-17699,1652.2z"/>
	<path class="st1" d="M-17698.9,1613.8l-0.2-3c3.3-0.2,6.7-0.4,10-0.6l0.2,3C-17692.2,1613.3-17695.6,1613.6-17698.9,1613.8z
		 M-16427.3,1613.5c-3.3-0.2-6.7-0.5-10-0.7l0.2-3c3.3,0.2,6.7,0.5,10,0.7L-16427.3,1613.5z M-17678.9,1612.5l-0.2-3
		c3.3-0.2,6.7-0.5,10-0.7l0.2,3C-17672.2,1612-17675.6,1612.2-17678.9,1612.5L-17678.9,1612.5z M-16447.3,1612.1
		c-3.3-0.2-6.7-0.5-10-0.7l0.2-3c3.3,0.2,6.6,0.5,10,0.7L-16447.3,1612.1z M-17659,1611l-0.2-3c3.3-0.2,6.7-0.5,10-0.8l0.2,3
		C-17652.3,1610.5-17655.6,1610.8-17659,1611z M-16467.2,1610.6c-3.3-0.3-6.7-0.5-10-0.8l0.2-3c3.3,0.3,6.6,0.5,10,0.8
		L-16467.2,1610.6z M-17639,1609.5l-0.2-3c3.3-0.3,6.7-0.6,10-0.8l0.3,3C-17632.3,1608.9-17635.7,1609.2-17639,1609.5L-17639,1609.5
		z M-16487.2,1609c-3.3-0.3-6.7-0.6-10-0.9l0.3-3c3.3,0.3,6.6,0.6,10,0.9L-16487.2,1609z M-17619.1,1607.8l-0.3-3
		c3.3-0.3,6.7-0.6,10-0.9l0.3,3C-17612.4,1607.1-17615.8,1607.4-17619.1,1607.8L-17619.1,1607.8z M-16507.1,1607.2
		c-3.3-0.3-6.7-0.6-10-0.9l0.3-3c3.3,0.3,6.6,0.6,10,0.9L-16507.1,1607.2z M-17599.2,1605.9l-0.3-3c3.3-0.3,6.7-0.7,9.9-1l0.3,3
		C-17592.5,1605.2-17595.8,1605.5-17599.2,1605.9L-17599.2,1605.9z M-16527,1605.3c-3.3-0.3-6.7-0.7-10-1l0.3-3
		c3.3,0.3,6.6,0.7,9.9,1L-16527,1605.3z M-17579.2,1603.8l-0.3-3c3.3-0.4,6.7-0.7,9.9-1.1l0.3,3
		C-17572.6,1603.1-17575.9,1603.4-17579.2,1603.8z M-16546.9,1603.2c-3.3-0.4-6.7-0.7-9.9-1.1l0.3-3c3.3,0.4,6.6,0.7,9.9,1.1
		L-16546.9,1603.2z M-17559.4,1601.5l-0.4-3c3.3-0.4,6.7-0.8,9.9-1.2l0.4,3C-17552.7,1600.7-17556,1601.1-17559.4,1601.5
		L-17559.4,1601.5z M-16566.8,1601c-3.3-0.4-6.7-0.8-9.9-1.2l0.4-3c3.3,0.4,6.6,0.8,9.9,1.2L-16566.8,1601z M-17539.5,1599.1l-0.4-3
		c3.3-0.4,6.7-0.9,9.9-1.3l0.4,3C-17532.9,1598.2-17536.2,1598.6-17539.5,1599.1L-17539.5,1599.1z M-16586.7,1598.7
		c-3.3-0.4-6.7-0.8-9.9-1.3l0.4-3c3.3,0.4,6.6,0.8,9.9,1.3L-16586.7,1598.7z M-17519.7,1596.4l-0.4-3c3.3-0.5,6.6-1,9.9-1.4l0.4,3
		C-17513,1595.4-17516.4,1595.9-17519.7,1596.4L-17519.7,1596.4z M-16606.5,1596.1c-3.3-0.4-6.7-0.9-9.9-1.4l0.4-3
		c3.3,0.5,6.6,0.9,9.9,1.4L-16606.5,1596.1z M-17499.9,1593.4l-0.5-3c3.3-0.5,6.6-1,9.9-1.6l0.5,3
		C-17493.2,1592.4-17496.6,1592.9-17499.9,1593.4L-17499.9,1593.4z M-16626.4,1593.3c-3.3-0.5-6.6-1-9.9-1.5l0.4-3
		c3.2,0.5,6.6,1,9.9,1.5L-16626.4,1593.3z M-16646.2,1590.4c-3.3-0.5-6.6-1-9.9-1.6l0.5-3c3.2,0.5,6.6,1.1,9.9,1.6L-16646.2,1590.4z
		 M-17480.1,1590.2l-0.5-3c3.3-0.6,6.6-1.1,9.9-1.7l0.5,3C-17473.5,1589.1-17476.8,1589.7-17480.1,1590.2L-17480.1,1590.2z
		 M-16665.9,1587.1c-3.3-0.6-6.6-1.1-9.9-1.7l0.5-3c3.2,0.6,6.5,1.1,9.8,1.7L-16665.9,1587.1z M-17460.4,1586.7l-0.5-2.9
		c3.3-0.6,6.6-1.2,9.8-1.8l0.6,2.9C-17453.8,1585.5-17457.1,1586.1-17460.4,1586.7L-17460.4,1586.7z M-16685.7,1583.6
		c-3.3-0.6-6.6-1.2-9.8-1.9l0.6-2.9c3.2,0.6,6.5,1.2,9.8,1.9L-16685.7,1583.6z M-17440.7,1583l-0.6-2.9c3.3-0.7,6.6-1.3,9.8-2
		l0.6,2.9C-17434.1,1581.6-17437.4,1582.3-17440.7,1583L-17440.7,1583z M-16705.3,1579.8c-3.3-0.7-6.6-1.4-9.8-2l0.6-2.9
		c3.2,0.7,6.5,1.4,9.8,2L-16705.3,1579.8z M-17421.1,1578.9l-0.6-2.9c3.3-0.7,6.5-1.4,9.8-2.2l0.7,2.9
		C-17414.6,1577.4-17417.9,1578.1-17421.1,1578.9L-17421.1,1578.9z M-16724.9,1575.7c-3.3-0.7-6.6-1.5-9.8-2.2l0.7-2.9
		c3.2,0.7,6.5,1.5,9.7,2.2L-16724.9,1575.7z M-17401.6,1574.4l-0.7-2.9c3.2-0.8,6.5-1.6,9.7-2.4l0.7,2.9
		C-17395.1,1572.8-17398.3,1573.6-17401.6,1574.4L-17401.6,1574.4z M-16744.4,1571.1c-3.3-0.8-6.5-1.6-9.7-2.5l0.8-2.9
		c3.2,0.8,6.4,1.7,9.7,2.5L-16744.4,1571.1z M-17382.2,1569.6l-0.8-2.9c3.2-0.8,6.5-1.7,9.7-2.6l0.8,2.9
		C-17375.7,1567.9-17378.9,1568.7-17382.2,1569.6L-17382.2,1569.6z M-16763.8,1566l-1.1-0.3c-2.8-0.8-5.7-1.6-8.5-2.4l0.8-2.9
		c2.8,0.8,5.6,1.6,8.5,2.4l1.1,0.3L-16763.8,1566z M-17362.8,1564.4l-0.8-2.9c3.2-0.9,6.4-1.8,9.6-2.8l0.8,2.9
		C-17356.4,1562.5-17359.6,1563.4-17362.8,1564.4z M-16783,1560.4c-3.2-1-6.4-2-9.6-3l0.9-2.9c3.1,1,6.3,2,9.5,3L-16783,1560.4z
		 M-17343.6,1558.7l-0.9-2.9c3.2-1,6.4-2,9.5-3l0.9,2.9C-17337.2,1556.7-17340.4,1557.7-17343.6,1558.7L-17343.6,1558.7z
		 M-16802.1,1554.3c-3.2-1.1-6.4-2.2-9.5-3.3l1-2.8c3.1,1.1,6.3,2.2,9.4,3.3L-16802.1,1554.3z M-17324.5,1552.6l-1-2.8
		c3.2-1.1,6.3-2.1,9.4-3.2l1,2.8C-17318.2,1550.4-17321.3,1551.5-17324.5,1552.6z M-16821,1547.6c-3.1-1.2-6.3-2.4-9.4-3.6l1.1-2.8
		c3.1,1.2,6.2,2.4,9.3,3.6L-16821,1547.6z M-17305.6,1546l-1-2.8c3.1-1.1,6.3-2.3,9.4-3.5l1.1,2.8
		C-17299.3,1543.7-17302.5,1544.8-17305.6,1546L-17305.6,1546z M-16839.7,1540.3c-3.1-1.3-6.2-2.6-9.2-3.9l1.2-2.8
		c3,1.3,6.1,2.6,9.2,3.9L-16839.7,1540.3z M-17286.9,1538.8l-1.1-2.8c3.1-1.2,6.2-2.5,9.2-3.8l1.2,2.8
		C-17280.6,1536.3-17283.8,1537.6-17286.9,1538.8L-17286.9,1538.8z M-16858.1,1532.3c-3.1-1.4-6.1-2.8-9.1-4.2l1.3-2.7
		c3,1.4,6,2.8,9.1,4.2L-16858.1,1532.3z M-17268.4,1531.2l-1.2-2.8c3.1-1.3,6.1-2.7,9.1-4.1l1.2,2.7
		C-17262.2,1528.4-17265.3,1529.8-17268.4,1531.2L-17268.4,1531.2z M-16876.2,1523.8c-3-1.5-6-3-8.9-4.6l1.4-2.7
		c2.9,1.5,5.9,3,8.9,4.5L-16876.2,1523.8z M-17250.1,1522.9l-1.3-2.7c3-1.4,6-2.9,9-4.4l1.3,2.7
		C-17244,1520-17247.1,1521.4-17250.1,1522.9L-17250.1,1522.9z M-16894,1514.5c-2.9-1.6-5.9-3.3-8.7-4.9l1.5-2.6
		c2.8,1.6,5.8,3.3,8.7,4.9L-16894,1514.5z M-17232.1,1513.9l-1.4-2.7c3-1.5,5.9-3.1,8.8-4.7l1.4,2.6
		C-17226.2,1510.8-17229.2,1512.4-17232.1,1513.9L-17232.1,1513.9z M-16911.4,1504.5c-2.9-1.7-5.7-3.5-8.5-5.3l1.6-2.5
		c2.8,1.8,5.6,3.5,8.5,5.3L-16911.4,1504.5z M-17214.5,1504.4l-1.5-2.6c2.9-1.6,5.8-3.3,8.6-5l1.5,2.6
		C-17208.7,1501-17211.6,1502.7-17214.5,1504.4L-17214.5,1504.4z M-17197.3,1494.1l-1.6-2.5c2.8-1.8,5.6-3.6,8.4-5.4l1.6,2.5
		C-17191.6,1490.5-17194.5,1492.3-17197.3,1494.1L-17197.3,1494.1z M-16928.3,1493.7c-2.8-1.9-5.6-3.8-8.3-5.7l1.7-2.5
		c2.7,1.9,5.5,3.8,8.2,5.6L-16928.3,1493.7z M-17180.5,1483.1l-1.7-2.5c2.7-1.9,5.5-3.8,8.2-5.7l1.8,2.4
		C-17175,1479.3-17177.8,1481.2-17180.5,1483.1L-17180.5,1483.1z M-16944.7,1482.1c-2.7-2-5.4-4-8-6.1l1.9-2.4c2.6,2,5.2,4.1,7.9,6
		L-16944.7,1482.1z M-17164.2,1471.3l-1.8-2.4c2.6-2,5.3-4.1,7.9-6.1l1.9,2.3C-17158.9,1467.3-17161.6,1469.3-17164.2,1471.3
		L-17164.2,1471.3z M-16960.5,1469.7c-2.6-2.1-5.2-4.3-7.7-6.5l2-2.3c2.5,2.2,5,4.3,7.6,6.4L-16960.5,1469.7z M-17148.5,1458.9
		l-1.9-2.3c2.5-2.1,5.1-4.3,7.6-6.5l2,2.3C-17143.4,1454.5-17146,1456.7-17148.5,1458.9L-17148.5,1458.9z M-16975.6,1456.5
		c-2.5-2.3-4.9-4.6-7.3-6.9l2.1-2.1c2.4,2.3,4.8,4.6,7.2,6.9L-16975.6,1456.5z M-17133.5,1445.6l-2-2.2c2.4-2.2,4.9-4.6,7.2-6.9
		l2.1,2.1C-17128.5,1441-17131,1443.3-17133.5,1445.6L-17133.5,1445.6z M-16990,1442.5c-2.3-2.4-4.6-4.9-6.9-7.3l2.2-2
		c2.2,2.4,4.5,4.9,6.8,7.3L-16990,1442.5z M-17119.1,1431.6l-2.1-2.1c2.3-2.4,4.6-4.8,6.9-7.2l2.2,2
		C-17114.4,1426.8-17116.7,1429.2-17119.1,1431.6z M-17003.5,1427.7c-2.2-2.5-4.3-5.1-6.4-7.7l2.3-1.9c2.1,2.6,4.2,5.1,6.4,7.6
		L-17003.5,1427.7z M-17105.4,1416.9l-2.3-2c2.2-2.5,4.4-5,6.5-7.6l2.3,1.9C-17101,1411.8-17103.2,1414.4-17105.4,1416.9
		L-17105.4,1416.9z M-17016.2,1412.1c-2-2.6-4-5.4-6-8.1l2.4-1.7c1.9,2.7,3.9,5.4,5.9,8L-17016.2,1412.1z M-17092.6,1401.4l-2.4-1.9
		c2-2.6,4.1-5.3,6-7.9l2.4,1.8C-17088.5,1396.1-17090.6,1398.8-17092.6,1401.4z M-17027.9,1395.7c-1.9-2.8-3.7-5.6-5.5-8.4l2.5-1.6
		c1.8,2.8,3.6,5.6,5.4,8.3L-17027.9,1395.7z M-17080.6,1385.3l-2.5-1.7c1.9-2.7,3.8-5.5,5.6-8.2l2.5,1.7
		C-17076.8,1379.8-17078.7,1382.6-17080.6,1385.3L-17080.6,1385.3z M-17038.6,1378.8c-1.7-2.8-3.4-5.8-5-8.7l2.6-1.5
		c1.6,2.9,3.3,5.8,5,8.6L-17038.6,1378.8z M-17069.6,1368.6l-2.5-1.6c1.7-2.8,3.5-5.7,5.2-8.5l2.6,1.5
		C-17066,1362.9-17067.8,1365.7-17069.6,1368.6L-17069.6,1368.6z M-17048.4,1361.2c-1.5-2.9-3-5.8-4.6-8.9l2.7-1.3
		c1.5,3.1,3,6,4.5,8.9L-17048.4,1361.2z M-17059.4,1351.3l-2.6-1.5c1.5-2.7,3-5.5,4.5-8.3l1.4-2.7l1.5,3.2l-1,0.5l0.8,0.4
		C-17056.3,1345.7-17057.9,1348.5-17059.4,1351.3L-17059.4,1351.3z"/>
	<g transform="matrix(0.966, -0.259, 0.259, 0.966, -18769.912, -1765.535)">
		<g transform="translate(516.687 3439.528)">
			<path class="st2" d="M336.8,1.5c-2.5,2,0,0.1-2.6,1.8c-1.3,0.7-2,2.2-1.7,3.6c1.5,12.1,3,24.2,4.5,36.3c0.1,0.7,0.2,1.4,0.2,2.2
				c-0.1,1.5-1.1,2.1-2.2,1.3c-7.2-5.5-14.5-10.9-21.4-16.6c-3.4-2.8-6.2-6.4-9.3-9.5c-0.6-0.4-1.4-0.5-2.1-0.3
				c-5.8,2.5-11.6,5.1-17.4,7.8c-0.7,0.7-1.1,1.6-1,2.6c1.6,12.8,0.9,25.6,0.3,38.4c-0.2,1.1-0.6,2.2-1.1,3.2
				c-1.1-0.5-2.4-0.8-3.2-1.7c-8.5-10-16.9-20.2-25.4-30.2c-0.6-0.6-1.4-0.9-2.2-0.7c-10.1,2.5-20.3,5-30.4,7.8
				c-0.9,0.5-1.5,1.5-1.6,2.5c-0.5,7.6-0.9,15.2-1.4,22.8c-0.3,5.1-0.9,10.1-1.4,15.2c-0.2,1-0.6,1.9-1.1,2.8
				c-0.9-0.5-2.1-0.7-2.7-1.5c-4.4-5.9-8.6-11.9-12.9-17.9c-3.6-5.1-7.1-10.3-10.8-15.4c-0.6-0.8-1.6-1.2-2.5-1.3
				c-8.6,1.4-17.2,2.8-25.8,4.5c-1.2,0.5-2.1,1.5-2.4,2.7c-3.4,12-6.7,24-10.1,36c-0.5,1.6-1.6,3-2.5,4.5c-1.2-1.2-2.3-2.5-3.2-3.9
				c-5.6-10.8-11.1-21.6-16.6-32.5c-0.4-1.1-1.5-1.8-2.7-1.5c-9.7,1.2-19.3,2.2-29,3.5c-1.1,0.4-1.9,1.2-2.4,2.2
				c-3.7,9-7.2,18-10.8,27.1c-0.7,1.8-1.3,3.6-2.2,6c-1.1-0.9-2.1-1.4-2.6-2.3c-2.3-3.8-4.5-7.7-6.5-11.6
				c-2.9-5.7-5.5-11.4-8.2-17.2c-0.5-1.5-2-2.4-3.5-2.3c-6.3-0.1-12.7-0.6-19-0.7c-1.1,0-2.2,1-3.2,1.7c-0.5,0.4-0.8,1-1,1.6
				c-3.3,9.7-9.6,17.4-16,25.1c-1.7,2-2.7,4.5-4.1,6.7c-0.7,0.9-1.6,1.8-2.4,2.6c-0.7-1-1.7-1.9-1.9-3c-1.7-6.5-3.2-13.1-4.7-19.6
				c-1.2-5.2-2.2-10.5-3.5-15.7c-0.4-0.9-1.2-1.5-2.1-1.7c-0.8-0.5-1.7-2.8,0-3.2c21.2,1.3,42.4,2.8,63.6,3.1
				c12.5,0.2,25-1.5,37.5-2.6c12.1-1.1,24.2-2.5,36.3-4.1c10.4-1.4,20.7-3.1,31-4.9c14.1-2.5,28.1-5,42.1-8c16-3.4,32-6.9,47.5-12.4
				c14.8-5.2,29.6-10.2,43.5-17.4c9.6-5,19.3-9.8,28.8-14.9c3.2-1.7,4-2.1,4-2.1C336.8-0.5,337.7,0.8,336.8,1.5 M12.8,101.1
				C20.7,90.5,30.6,81.9,34,68.6L5.9,67.2C8.3,78.7,10.5,89.9,12.8,101.1 M145.7,96.5l0.8,0.1c3.4-12,6.9-24,10.5-36.6l-27.6,3.8
				C133.2,75.9,140.3,85.8,145.7,96.5 M329.8,6.4c-8.2,4-15.8,7.7-23.8,11.5c7.5,10.4,16.8,17.9,27,24.4l1-0.4
				C332.7,30.2,331.3,18.6,329.8,6.4 M256.7,38.2c7.2,10.6,15.7,19.6,24.1,29.1c1.2-5.8,1.8-33.7-0.5-37.5L256.7,38.2 M213.5,84.7
				l1-0.3c1.1-11.9,3.5-23.6,3.3-35.9c-8.8,1.8-17,3.4-25.9,5.3C199.3,64.5,206.4,74.6,213.5,84.7 M64.2,69.8
				c4.7,9.6,9.2,18.5,13.6,27.5l0.8-0.2c3.7-9.5,7.5-19,11.3-28.8C81.4,68.7,73.2,69.2,64.2,69.8"/>
			<path class="st3" d="M12.8,101.1c-2.3-11.2-4.6-22.4-6.9-33.9c9.5,0.5,18.8,1,28.1,1.4C30.6,81.9,20.7,90.5,12.8,101.1"/>
			<path class="st4" d="M145.7,96.5c-5.4-10.7-12.5-20.6-16.3-32.7c9.2-1.3,18-2.5,27.6-3.8c-3.6,12.6-7,24.6-10.5,36.6L145.7,96.5"
				/>
			<path class="st4" d="M329.8,6.4c1.5,12.2,2.9,23.8,4.3,35.5c-0.3,0.1-0.7,0.3-1,0.4c-10.2-6.5-19.5-14-27-24.4
				C313.9,14.1,321.6,10.4,329.8,6.4"/>
			<path class="st5" d="M256.7,38.3l23.6-8.4c2.3,3.8,1.7,31.7,0.5,37.5C272.4,57.8,263.9,48.9,256.7,38.3"/>
			<path class="st3" d="M213.5,84.7c-7.1-10.1-14.2-20.2-21.7-30.9c8.9-1.8,17.1-3.5,25.9-5.3c0.3,12.2-2.2,24-3.3,35.9L213.5,84.7"
				/>
		</g>
		<g transform="translate(175.372 3383.81)">
			<path class="st2" d="M331.7,120.5c-3.1,0.5,0,0.1-3.2,0.2c-1.5-0.1-2.8,0.8-3.3,2.2c-4.9,11.1-9.9,22.3-14.9,33.4
				c-0.3,0.7-0.6,1.3-1,2c-0.8,1.3-2,1.2-2.5-0.1c-3.4-8.4-6.8-16.8-9.8-25.3c-1.5-4.2-2-8.7-3.1-13c-0.3-0.7-0.9-1.2-1.6-1.3
				c-6.3-0.9-12.6-1.7-18.9-2.3c-0.7-0.1-1.9,0.9-2.2,1.7c-5.3,11.8-12.5,22.4-19.5,33c-0.7,0.8-1.6,1.6-2.6,2.2
				c-0.6-1-1.7-2-1.8-3.1c-2.1-13-4-26-6.1-39c-0.2-0.8-0.8-1.5-1.5-1.8c-10-3.1-20-6.2-30-9.1c-1,0-2,0.5-2.7,1.3
				c-4.4,6.2-8.6,12.6-13,18.8c-2.9,4.2-6,8.2-9.1,12.3c-0.7,0.7-1.5,1.3-2.4,1.8c-0.5-0.9-1.5-1.7-1.5-2.7
				c-0.7-7.3-1.2-14.6-1.8-22c-0.5-6.2-0.8-12.5-1.3-18.8c-0.1-1-0.7-1.9-1.5-2.4c-8.1-3.3-16.2-6.5-24.4-9.5
				c-1.3-0.2-2.5,0.2-3.5,1c-9.1,8.5-18.1,17.1-27.2,25.6c-1.2,1.1-3,1.7-4.5,2.6c-0.4-1.6-0.7-3.3-0.7-4.9
				c0.8-12.1,1.7-24.3,2.6-36.4c0.3-1.2-0.4-2.3-1.5-2.7c-8.9-4-17.7-8.1-26.6-12c-1.1-0.2-2.3,0-3.2,0.7
				c-7.8,5.8-15.5,11.7-23.2,17.6c-1.5,1.2-3,2.4-5,4c-0.4-1.3-1.1-2.3-1-3.3c0-4.4,0.1-8.9,0.5-13.3c0.5-6.3,1.2-12.6,1.8-19
				c0.3-1.5-0.5-3.1-1.9-3.8c-5.4-3.4-10.6-7-16-10.4c-0.9-0.6-2.4-0.3-3.6-0.2c-0.6,0.1-1.2,0.4-1.7,0.9
				c-7.8,6.5-17.2,9.9-26.7,13.3c-2.5,0.9-4.6,2.5-7,3.6c-1.1,0.4-2.3,0.7-3.4,1c-0.1-1.2-0.4-2.5-0.1-3.6c1.9-6.4,4-12.8,6.1-19.2
				c1.7-5.1,3.5-10.1,5.1-15.2c0.1-1-0.2-1.9-0.9-2.6c-0.4-0.7,0-3.1,1.7-2.6C29.5,12.2,46.9,24.3,65,35.6
				c10.6,6.6,22.2,11.7,33.5,17.1c11,5.3,22,10.4,33.2,15.2c9.6,4.2,19.3,8,29.1,11.8c13.3,5.1,26.7,10.3,40.2,14.9
				c15.5,5.3,31,10.6,47.1,14c15.3,3.2,30.6,6.5,46.2,7.6c10.8,0.7,21.6,1.6,32.4,2.2c3.6,0.2,4.5,0.3,4.5,0.3
				C332.7,118.8,332.7,120.4,331.7,120.5 M2.8,38.4c12.2-5,25.1-7.3,34.9-16.8C30,16.4,22.3,11.2,14.4,5.8
				C10.5,16.9,6.6,27.6,2.8,38.4 M118.9,103.1c0.2,0.2,0.5,0.3,0.7,0.5c9.2-8.5,18.3-17,27.9-25.9l-25.6-11
				C118.9,79,119.8,91.1,118.9,103.1 M323.1,121l-26.3-2.4c1.1,12.8,5.2,24,10.5,34.8l1.1,0.2C313.3,142.9,318.1,132.2,323.1,121
				 M244,110.6c0.7,12.8,3.4,24.9,5.6,37.4c4-4.3,18.9-28,18.9-32.4C260.6,113.9,252.6,112.3,244,110.6 M183.1,128l1,0.2
				c7.1-9.6,15.2-18.4,21.3-29c-8.5-3-16.3-5.8-24.9-8.9C181.4,103.4,182.2,115.7,183.1,128 M62.9,38.1c-0.9,10.6-1.7,20.6-2.5,30.6
				l0.8,0.2c8.1-6.2,16.2-12.4,24.6-18.8L62.9,38.1"/>
			<path class="st3" d="M2.8,38.4c3.8-10.8,7.7-21.5,11.6-32.6c7.9,5.3,15.6,10.5,23.3,15.8C27.9,31.1,15,33.4,2.8,38.4"/>
			<path class="st4" d="M118.9,103.1c0.9-12-0.1-24.1,2.9-36.4c8.5,3.6,16.7,7.2,25.6,11c-9.6,8.9-18.7,17.4-27.9,25.9L118.9,103.1"
				/>
			<path class="st4" d="M323.1,121c-5,11.2-9.8,21.9-14.6,32.6c-0.4-0.1-0.7-0.1-1.1-0.2c-5.4-10.8-9.4-22.1-10.5-34.8L323.1,121"/>
			<path class="st5" d="M244.1,110.6c8.6,1.8,16.6,3.4,24.5,5c0,4.4-14.9,28-18.9,32.4C247.4,135.4,244.7,123.4,244.1,110.6"/>
			<path class="st3" d="M183.1,128c-0.8-12.3-1.7-24.7-2.6-37.6c8.6,3.1,16.4,5.9,24.9,8.9c-6.1,10.6-14.2,19.4-21.3,29L183.1,128"
				/>
		</g>
		<path class="st5" d="M580.9,3509.3c9-0.5,17.2-1,25.7-1.6c-3.9,9.8-7.6,19.3-11.3,28.8l-0.8,0.2
			C590.1,3527.8,585.6,3518.9,580.9,3509.3"/>
		<path class="st5" d="M238.3,3421.9c8,4.2,15.3,8,22.8,12l-24.6,18.8l-0.8-0.2C236.6,3442.5,237.4,3432.6,238.3,3421.9"/>
		<path class="st2" d="M506.4,3502.4l11.2,0.6v3.2l-13.8-1.7"/>
	</g>
	<g transform="matrix(0.985, 0.174, -0.174, 0.985, -16646.637, -2027.75)">
		<g transform="translate(516.687 3439.528)">
			<path class="st2" d="M336.8,1.5c-2.5,2,0,0.1-2.6,1.8c-1.3,0.7-2,2.2-1.7,3.6c1.5,12.1,3,24.2,4.5,36.3c0.1,0.7,0.2,1.4,0.2,2.2
				c-0.1,1.5-1.1,2.1-2.2,1.3c-7.2-5.5-14.5-10.9-21.4-16.6c-3.4-2.8-6.2-6.4-9.3-9.5c-0.6-0.4-1.4-0.5-2.1-0.3
				c-5.8,2.5-11.6,5.1-17.4,7.8c-0.7,0.7-1.1,1.6-1,2.6c1.6,12.8,0.9,25.6,0.3,38.4c-0.2,1.1-0.6,2.2-1.1,3.2
				c-1.1-0.5-2.4-0.8-3.2-1.7c-8.5-10-16.9-20.2-25.4-30.2c-0.6-0.6-1.4-0.9-2.2-0.7c-10.1,2.5-20.3,5-30.4,7.8
				c-0.9,0.5-1.5,1.5-1.6,2.5c-0.5,7.6-0.9,15.2-1.4,22.8c-0.3,5.1-0.9,10.1-1.4,15.2c-0.2,1-0.6,1.9-1.1,2.8
				c-0.9-0.5-2.1-0.7-2.7-1.5c-4.4-5.9-8.6-11.9-12.9-17.9c-3.6-5.1-7.1-10.3-10.8-15.4c-0.6-0.8-1.6-1.2-2.5-1.3
				c-8.6,1.4-17.2,2.8-25.8,4.5c-1.2,0.5-2.1,1.5-2.4,2.7c-3.4,12-6.7,24-10.1,36c-0.5,1.6-1.6,3-2.5,4.5c-1.2-1.2-2.3-2.5-3.2-3.9
				c-5.6-10.8-11.1-21.6-16.6-32.5c-0.4-1.1-1.5-1.8-2.7-1.5c-9.7,1.2-19.3,2.2-29,3.5c-1.1,0.4-1.9,1.2-2.4,2.2
				c-3.7,9-7.2,18-10.8,27.1c-0.7,1.8-1.3,3.6-2.2,6c-1.1-0.9-2.1-1.4-2.6-2.3c-2.3-3.8-4.5-7.7-6.5-11.6
				c-2.9-5.7-5.5-11.4-8.2-17.2c-0.5-1.5-2-2.4-3.5-2.3c-6.3-0.1-12.7-0.6-19-0.7c-1.1,0-2.2,1-3.2,1.7c-0.5,0.4-0.8,1-1,1.6
				c-3.3,9.7-9.6,17.4-16,25.1c-1.7,2-2.7,4.5-4.1,6.7c-0.7,0.9-1.6,1.8-2.4,2.6c-0.7-1-1.7-1.9-1.9-3c-1.7-6.5-3.2-13.1-4.7-19.6
				c-1.2-5.2-2.2-10.5-3.5-15.7c-0.4-0.9-1.2-1.5-2.1-1.7c-0.8-0.5-1.7-2.8,0-3.2c21.2,1.3,42.4,2.8,63.6,3.1
				c12.5,0.2,25-1.5,37.5-2.6c12.1-1.1,24.2-2.5,36.3-4.1c10.4-1.4,20.7-3.1,31-4.9c14.1-2.5,28.1-5,42.1-8c16-3.4,32-6.9,47.5-12.4
				c14.8-5.2,29.6-10.2,43.5-17.4c9.6-5,19.3-9.8,28.8-14.9c3.2-1.7,4-2.1,4-2.1C336.8-0.5,337.7,0.8,336.8,1.5 M12.8,101.1
				C20.7,90.5,30.6,81.9,34,68.6L5.9,67.2C8.3,78.7,10.5,89.9,12.8,101.1 M145.7,96.5l0.8,0.1c3.4-12,6.9-24,10.5-36.6l-27.6,3.8
				C133.2,75.9,140.3,85.8,145.7,96.5 M329.8,6.4c-8.2,4-15.8,7.7-23.8,11.5c7.5,10.4,16.8,17.9,27,24.4l1-0.4
				C332.7,30.2,331.3,18.6,329.8,6.4 M256.7,38.2c7.2,10.6,15.7,19.6,24.1,29.1c1.2-5.8,1.8-33.7-0.5-37.5L256.7,38.2 M213.5,84.7
				l1-0.3c1.1-11.9,3.5-23.6,3.3-35.9c-8.8,1.8-17,3.4-25.9,5.3C199.3,64.5,206.4,74.6,213.5,84.7 M64.2,69.8
				c4.7,9.6,9.2,18.5,13.6,27.5l0.8-0.2c3.7-9.5,7.5-19,11.3-28.8C81.4,68.7,73.2,69.2,64.2,69.8"/>
			<path class="st3" d="M12.8,101.1c-2.3-11.2-4.6-22.4-6.9-33.9c9.5,0.5,18.8,1,28.1,1.4C30.6,81.9,20.7,90.5,12.8,101.1"/>
			<path class="st4" d="M145.7,96.5c-5.4-10.7-12.5-20.6-16.3-32.7c9.2-1.3,18-2.5,27.6-3.8c-3.6,12.6-7,24.6-10.5,36.6L145.7,96.5"
				/>
			<path class="st4" d="M329.8,6.4c1.5,12.2,2.9,23.8,4.3,35.5c-0.3,0.1-0.7,0.3-1,0.4c-10.2-6.5-19.5-14-27-24.4
				C313.9,14.1,321.6,10.4,329.8,6.4"/>
			<path class="st5" d="M256.7,38.3l23.6-8.4c2.3,3.8,1.7,31.7,0.5,37.5C272.4,57.8,263.9,48.9,256.7,38.3"/>
			<path class="st3" d="M213.5,84.7c-7.1-10.1-14.2-20.2-21.7-30.9c8.9-1.8,17.1-3.5,25.9-5.3c0.3,12.2-2.2,24-3.3,35.9L213.5,84.7"
				/>
		</g>
		<g transform="translate(175.372 3383.81)">
			<path class="st2" d="M331.7,120.5c-3.1,0.5,0,0.1-3.2,0.2c-1.5-0.1-2.8,0.8-3.3,2.2c-4.9,11.1-9.9,22.3-14.9,33.4
				c-0.3,0.7-0.6,1.3-1,2c-0.8,1.3-2,1.2-2.5-0.1c-3.4-8.4-6.8-16.8-9.8-25.3c-1.5-4.2-2-8.7-3.1-13c-0.3-0.7-0.9-1.2-1.6-1.3
				c-6.3-0.9-12.6-1.7-18.9-2.3c-0.7-0.1-1.9,0.9-2.2,1.7c-5.3,11.8-12.5,22.4-19.5,33c-0.7,0.8-1.6,1.6-2.6,2.2
				c-0.6-1-1.7-2-1.8-3.1c-2.1-13-4-26-6.1-39c-0.2-0.8-0.8-1.5-1.5-1.8c-10-3.1-20-6.2-30-9.1c-1,0-2,0.5-2.7,1.3
				c-4.4,6.2-8.6,12.6-13,18.8c-2.9,4.2-6,8.2-9.1,12.3c-0.7,0.7-1.5,1.3-2.4,1.8c-0.5-0.9-1.5-1.7-1.5-2.7
				c-0.7-7.3-1.2-14.6-1.8-22c-0.5-6.2-0.8-12.5-1.3-18.8c-0.1-1-0.7-1.9-1.5-2.4c-8.1-3.3-16.2-6.5-24.4-9.5
				c-1.3-0.2-2.5,0.2-3.5,1c-9.1,8.5-18.1,17.1-27.2,25.6c-1.2,1.1-3,1.7-4.5,2.6c-0.4-1.6-0.7-3.3-0.7-4.9
				c0.8-12.1,1.7-24.3,2.6-36.4c0.3-1.2-0.4-2.3-1.5-2.7c-8.9-4-17.7-8.1-26.6-12c-1.1-0.2-2.3,0-3.2,0.7
				c-7.8,5.8-15.5,11.7-23.2,17.6c-1.5,1.2-3,2.4-5,4c-0.4-1.3-1.1-2.3-1-3.3c0-4.4,0.1-8.9,0.5-13.3c0.5-6.3,1.2-12.6,1.8-19
				c0.3-1.5-0.5-3.1-1.9-3.8c-5.4-3.4-10.6-7-16-10.4c-0.9-0.6-2.4-0.3-3.6-0.2c-0.6,0.1-1.2,0.4-1.7,0.9
				c-7.8,6.5-17.2,9.9-26.7,13.3c-2.5,0.9-4.6,2.5-7,3.6c-1.1,0.4-2.3,0.7-3.4,1c-0.1-1.2-0.4-2.5-0.1-3.6c1.9-6.4,4-12.8,6.1-19.2
				c1.7-5.1,3.5-10.1,5.1-15.2c0.1-1-0.2-1.9-0.9-2.6c-0.4-0.7,0-3.1,1.7-2.6C29.5,12.2,47,24.3,65,35.6
				c10.6,6.6,22.2,11.7,33.5,17.1c11,5.3,22,10.4,33.2,15.2c9.6,4.2,19.3,8,29.1,11.8c13.3,5.1,26.7,10.3,40.2,14.9
				c15.5,5.3,31,10.6,47.1,14c15.3,3.2,30.6,6.5,46.2,7.6c10.8,0.7,21.6,1.6,32.4,2.2c3.6,0.2,4.5,0.3,4.5,0.3
				C332.7,118.8,332.7,120.4,331.7,120.5 M2.8,38.4c12.2-5,25.1-7.3,34.9-16.8C30,16.4,22.3,11.2,14.4,5.8
				C10.5,16.9,6.6,27.6,2.8,38.4 M118.9,103.1c0.2,0.2,0.5,0.3,0.7,0.5c9.2-8.5,18.3-17,27.9-25.9l-25.6-11
				C118.9,79,119.8,91.1,118.9,103.1 M323.1,121l-26.3-2.4c1.1,12.8,5.2,24,10.5,34.8l1.1,0.2C313.3,142.9,318.1,132.2,323.1,121
				 M244,110.6c0.7,12.8,3.4,24.9,5.6,37.4c4-4.3,18.9-28,18.9-32.4C260.6,113.9,252.6,112.3,244,110.6 M183.1,128l1,0.2
				c7.1-9.6,15.2-18.4,21.3-29c-8.5-3-16.3-5.8-24.9-8.9C181.4,103.4,182.2,115.7,183.1,128 M62.9,38.1c-0.9,10.6-1.7,20.6-2.5,30.6
				l0.8,0.2c8.1-6.2,16.2-12.4,24.6-18.8L62.9,38.1"/>
			<path class="st3" d="M2.8,38.4c3.8-10.8,7.7-21.5,11.6-32.6c7.9,5.3,15.6,10.5,23.3,15.8C27.9,31.1,15,33.4,2.8,38.4"/>
			<path class="st4" d="M118.9,103.1c0.9-12-0.1-24.1,2.9-36.4c8.5,3.6,16.7,7.2,25.6,11c-9.6,8.9-18.7,17.4-27.9,25.9L118.9,103.1"
				/>
			<path class="st4" d="M323.1,121c-5,11.2-9.8,21.9-14.6,32.6c-0.4-0.1-0.7-0.1-1.1-0.2c-5.4-10.8-9.4-22.1-10.5-34.8L323.1,121"/>
			<path class="st5" d="M244.1,110.6c8.6,1.8,16.6,3.4,24.5,5c0,4.4-14.9,28-18.9,32.4C247.4,135.4,244.7,123.4,244.1,110.6"/>
			<path class="st3" d="M183.1,128c-0.8-12.3-1.7-24.7-2.6-37.6c8.6,3.1,16.4,5.9,24.9,8.9c-6.1,10.6-14.2,19.4-21.3,29L183.1,128"
				/>
		</g>
		<path class="st5" d="M580.9,3509.3c9-0.5,17.2-1,25.7-1.6c-3.9,9.8-7.6,19.3-11.3,28.8l-0.8,0.2
			C590.1,3527.8,585.6,3518.9,580.9,3509.3"/>
		<path class="st5" d="M238.3,3421.9c8,4.2,15.3,8,22.8,12l-24.6,18.8l-0.8-0.2C236.6,3442.5,237.4,3432.6,238.3,3421.9"/>
		<path class="st2" d="M506.4,3502.4l11.2,0.6v3.2l-13.8-1.7"/>
	</g>
</g>
</svg>
